<svg width="1439" height="34" viewBox="0 0 1439 34" fill="none" xmlns="http://www.w3.org/2000/svg">
<path opacity="0.4" d="M0 17.4395L1438.04 17.5165" stroke="white" stroke-width="2"/>
<path d="M190.526 19.5746L177.11 18.2068L176.966 18.3L185.183 28.4705L180.2 31.5156L174.762 19.6407L174.618 19.7339L170.118 32.143L164.657 29.1333L172.238 18.4655L172.145 18.322L158.896 19.8669L158.984 14.0745L172.18 15.5774L172.324 15.4841L164.309 5.49098L169.292 2.44587L174.478 14.0669L174.622 13.9736L179.358 1.62397L184.649 4.53191L177.238 15.3015L177.331 15.445L190.326 13.6554L190.526 19.5746Z" fill="#F98AC1"/>
<path d="M471.526 20.0607L458.11 18.6928L457.966 18.7861L466.183 28.9565L461.2 32.0017L455.762 20.1267L455.618 20.2199L451.118 32.6291L445.657 29.6194L453.238 18.9515L453.145 18.808L439.896 20.3529L439.984 14.5605L453.18 16.0634L453.324 15.9702L445.309 5.97701L450.292 2.93189L455.478 14.5529L455.622 14.4596L460.358 2.10999L465.649 5.01794L458.238 15.7875L458.331 15.931L471.326 14.1414L471.526 20.0607Z" fill="#F98AC1"/>
<path d="M672.526 20.0607L659.11 18.6928L658.967 18.7861L667.184 28.9565L662.2 32.0017L656.762 20.1267L656.618 20.2199L652.118 32.6291L646.657 29.6194L654.238 18.9515L654.145 18.808L640.896 20.3529L640.984 14.5605L654.181 16.0634L654.324 15.9702L646.309 5.97701L651.293 2.93189L656.478 14.5529L656.622 14.4596L661.358 2.10999L666.649 5.01794L659.238 15.7875L659.331 15.931L672.327 14.1414L672.526 20.0607Z" fill="#F98AC1"/>
</svg>
