<svg width="162" height="612" viewBox="0 0 162 612" fill="none" xmlns="http://www.w3.org/2000/svg">
<g opacity="0.2">
<path d="M157.531 375.207C160.59 372.21 161.725 369.092 161.725 364.698C161.612 253.407 161.644 142.107 161.644 30.8163C161.644 22.2132 161.676 13.6101 161.604 5.007C161.588 3.29446 162.32 1.26687 160.348 0.0390123C159.535 -0.11447 159.012 0.200573 158.601 0.709489C158.795 0.903362 158.988 1.09723 159.181 1.29111C159.736 3.06828 159.6 4.91007 159.6 6.7357C159.6 126.105 159.584 245.482 159.68 364.851C159.68 368.47 158.658 371.007 156.203 373.47C149.377 380.329 142.849 387.51 136.007 394.352C133.536 396.824 132.538 399.361 132.546 402.98C132.651 453.879 132.57 504.779 132.699 555.671C132.707 559.863 131.548 562.803 128.69 565.712C117.132 577.473 105.75 589.421 94.4245 601.425C92.2995 603.678 90.1584 604.688 87.0916 604.68C73.3917 604.648 59.6999 604.648 46 604.632V609.002C46.1529 609.179 46.2978 609.365 46.4347 609.567C47.4811 611.102 49.0507 611.142 50.6766 611.142C63.6682 611.118 76.6597 611.094 89.6432 611.175C91.7522 611.191 93.2493 610.496 94.7304 608.945C108.334 594.655 121.985 580.422 135.677 566.221C137.15 564.694 137.907 563.151 137.883 560.937C137.786 552.52 137.842 544.095 137.858 535.677C137.858 534.183 137.891 532.648 136.619 531.671C134.421 529.99 134.623 527.624 134.623 525.224C134.639 484.584 134.663 443.951 134.566 403.311C134.558 400.096 135.54 397.842 137.697 395.661C144.378 388.924 150.761 381.847 157.531 375.207Z" fill="#E5E5E5"/>
</g>
<path opacity="0.2" d="M54 579.342C55.4788 579.342 56.8268 579.342 57.2477 579.342C58.1123 579.342 58.7095 579.103 59.3238 578.491C69.6756 568.124 80.0615 557.791 90.4019 547.419C91.1869 546.63 91.9775 546.33 93.0468 546.352C95.6802 546.398 104.383 546.006 107.016 546.012C107.391 546.012 107.863 545.887 108 546.449C107.71 546.812 107.357 546.681 107.05 546.681C104.337 546.693 95.5437 547.067 92.8306 547.033C92.0685 547.022 91.5224 547.215 90.965 547.776C80.5279 558.228 70.0567 568.646 59.6196 579.098C58.9711 579.745 58.3227 580 57.4184 580C56.9918 580 55.5642 580 54.0057 580V579.342H54Z" fill="white"/>
<path opacity="0.2" d="M86 546C65.6686 546 45.3314 546.008 25 546.024V547C45.1419 546.976 65.2838 546.967 85.4257 546.967C85.6152 546.642 85.8047 546.317 86 546Z" fill="white"/>
<path d="M105.101 530.796C102.287 530.598 99.5098 532.959 99.4366 536.261C99.3706 539.239 101.884 541.879 104.866 541.887C108.545 541.894 110.501 538.864 110.508 536.496C110.508 533.304 108.222 530.84 105.101 530.796ZM104.917 541.262C102.477 541.357 99.9495 539.063 100.052 536.216C100.147 533.503 102.28 531.363 104.998 531.37C107.746 531.377 109.973 533.62 109.944 536.356C109.915 539.092 107.673 541.284 104.917 541.262Z" fill="white"/>
<path opacity="0.2" d="M24.9489 522C12.099 522.011 0.0628386 532.296 0.000239289 546.921C-0.06236 561.682 12.1673 572.218 24.9489 571.996C38.0777 572.252 49.9829 561.34 50 547.023C50.0057 533.134 38.55 521.994 24.9489 522ZM24.9432 571.09C11.3649 571.033 0.757121 559.712 0.984755 546.966C0.774194 535.098 10.3746 522.94 25.0513 522.962C38.5728 522.98 49.0781 533.657 49.0382 547.075C48.9984 561.397 37.2525 571.141 24.9432 571.09Z" fill="white"/>
<path opacity="0.2" d="M11.9162 531C13.5412 532.89 15.0867 534.687 16.6834 536.536C11.8593 542.13 10.8138 548.23 14.831 554.482C18.013 559.43 22.9848 561.098 28.1327 560.023C33.4341 558.914 37.9229 555.069 38.8718 546.973C41.2298 546.973 43.6049 546.973 45.9743 546.973C46.4118 554.482 41.2298 563.557 32.6158 566.733C23.1155 570.238 12.581 566.293 7.56939 557.094C2.87602 548.47 4.7795 537.264 11.9162 531Z" fill="white"/>
<path opacity="0.2" d="M25.211 538.019C20.6377 537.695 16.1212 541.528 16.0021 546.882C15.8943 551.713 19.9852 555.989 24.8308 556C30.8055 556.011 34 551.106 34 547.256C34.0057 542.09 30.2835 538.093 25.211 538.019ZM24.9103 554.984C20.9385 555.143 16.8362 551.412 17.0007 546.802C17.1596 542.402 20.615 538.933 25.0408 538.945C29.5119 538.956 33.1262 542.595 33.0808 547.029C33.0354 551.475 29.387 555.023 24.9103 554.984Z" fill="white"/>
<g opacity="0.2">
<path d="M27.5128 543.959L25.7222 546.328V546.368L28.5734 545.99V547.278L25.7222 546.935V546.975L27.5356 549.247L26.3495 549.928L25.2204 547.278H25.1805L23.9544 549.951L22.8767 549.27L24.6673 546.958V546.918L21.873 547.278V545.99L24.6444 546.351V546.311L22.871 543.999L24.0229 543.335L25.1919 545.968H25.2318L26.3837 543.318L27.5128 543.959Z" fill="white"/>
</g>
</svg>
