<svg width="1244" height="87" viewBox="0 0 1244 87" fill="none" xmlns="http://www.w3.org/2000/svg">
<path d="M265 69C279.912 69 292 56.6878 292 41.5C292 26.3122 279.912 14 265 14C250.088 14 238 26.3122 238 41.5C238 56.6878 250.088 69 265 69Z" fill="white"/>
<g style="mix-blend-mode:multiply">
<path d="M50 65C63.2548 65 74 54.2548 74 41C74 27.7452 63.2548 17 50 17C36.7451 17 26 27.7452 26 41C26 54.2548 36.7451 65 50 65Z" fill="#D9D9D9"/>
</g>
<path opacity="0.3" d="M11.74 42.15C14.07 42.14 16.65 42.12 20.19 42.1C16.98 44.97 13.89 42.94 11.36 44.27C10.31 46.67 12.01 49.67 10.02 52.66C8.56 49.65 9.72 46.92 8.86 44.24C6.39 43.08 3.2 44.78 0 42.87C3.28 41.37 6.18 42.56 8.86 41.72C9.7 38.98 8.44 36.07 9.85 33C12.14 35.87 10.05 39.12 11.74 42.15Z" fill="#1D1D1B"/>
<path opacity="0.3" d="M1234.74 42.15C1237.07 42.14 1239.65 42.12 1243.19 42.1C1239.98 44.97 1236.89 42.94 1234.36 44.27C1233.31 46.67 1235.01 49.67 1233.02 52.66C1231.56 49.65 1232.72 46.92 1231.86 44.24C1229.39 43.08 1226.2 44.78 1223 42.87C1226.28 41.37 1229.18 42.56 1231.86 41.72C1232.7 38.98 1231.44 36.07 1232.85 33C1235.14 35.87 1233.05 39.12 1234.74 42.15Z" fill="#1D1D1B"/>
<path d="M1041.67 74.4415C1047.65 74.4275 1052.23 59.6901 1051.92 41.5247C1051.6 23.3593 1046.5 8.64467 1040.52 8.65867C1034.55 8.67267 1029.96 23.41 1030.27 41.5754C1030.59 59.7408 1035.69 74.4555 1041.67 74.4415Z" stroke="#15252B" stroke-miterlimit="10"/>
<path d="M1030.84 74.4661C1036.82 74.4521 1041.41 59.7147 1041.09 41.5493C1040.77 23.3839 1035.67 8.66927 1029.7 8.68327C1023.72 8.69727 1019.13 23.4346 1019.45 41.6C1019.76 59.7654 1024.86 74.4801 1030.84 74.4661Z" stroke="#15252B" stroke-miterlimit="10"/>
<path d="M1020.02 74.4907C1025.99 74.4767 1030.58 59.7393 1030.27 41.5739C1029.95 23.4085 1024.85 8.69387 1018.87 8.70787C1012.9 8.72187 1008.31 23.4592 1008.62 41.6246C1008.94 59.79 1014.04 74.5047 1020.02 74.4907Z" stroke="#15252B" stroke-miterlimit="10"/>
<path d="M1009.19 74.5178C1015.17 74.5038 1019.76 59.7664 1019.44 41.601C1019.13 23.4356 1014.03 8.72097 1008.05 8.73497C1002.07 8.74897 997.484 23.4863 997.8 41.6517C998.116 59.8171 1003.22 74.5318 1009.19 74.5178Z" stroke="#15252B" stroke-miterlimit="10"/>
<path d="M998.366 74.5423C1004.34 74.5284 1008.93 59.791 1008.62 41.6256C1008.3 23.4602 1003.2 8.74557 997.222 8.75956C991.245 8.77356 986.656 23.5109 986.972 41.6763C987.288 59.8417 992.389 74.5563 998.366 74.5423Z" stroke="#15252B" stroke-miterlimit="10"/>
<path d="M174.405 86.0393C179.664 86.0212 183.703 67.032 183.424 43.6256C183.146 20.2193 178.657 1.2593 173.398 1.27734C168.138 1.29537 164.1 20.2846 164.378 43.691C164.656 67.0973 169.145 86.0573 174.405 86.0393Z" stroke="#15252B" stroke-miterlimit="10"/>
<path d="M164.876 86.0711C170.135 86.0531 174.173 67.0639 173.895 43.6575C173.617 20.2511 169.128 1.29116 163.869 1.3092C158.609 1.32724 154.571 20.3165 154.849 43.7228C155.127 67.1292 159.616 86.0892 164.876 86.0711Z" stroke="#15252B" stroke-miterlimit="10"/>
<path d="M155.352 86.1028C160.612 86.0848 164.65 67.0955 164.372 43.6892C164.094 20.2828 159.605 1.32284 154.345 1.34087C149.086 1.35891 145.048 20.3481 145.326 43.7545C145.604 67.1609 150.093 86.1208 155.352 86.1028Z" stroke="#15252B" stroke-miterlimit="10"/>
<path d="M145.829 86.1376C151.089 86.1196 155.127 67.1304 154.849 43.724C154.57 20.3177 150.081 1.35769 144.822 1.37573C139.562 1.39376 135.524 20.383 135.802 43.7893C136.08 67.1957 140.57 86.1557 145.829 86.1376Z" stroke="#15252B" stroke-miterlimit="10"/>
<path d="M136.3 86.1693C141.559 86.1513 145.598 67.1621 145.319 43.7557C145.041 20.3493 140.552 1.38936 135.293 1.4074C130.033 1.42544 125.995 20.4147 126.273 43.821C126.551 67.2274 131.04 86.1874 136.3 86.1693Z" stroke="#15252B" stroke-miterlimit="10"/>
<path d="M126.777 86.2011C132.036 86.1831 136.074 67.1939 135.796 43.7875C135.518 20.3811 131.029 1.42116 125.769 1.4392C120.51 1.45724 116.472 20.4465 116.75 43.8528C117.028 67.2592 121.517 86.2192 126.777 86.2011Z" stroke="#15252B" stroke-miterlimit="10"/>
<path d="M117.253 86.2328C122.513 86.2148 126.551 67.2255 126.273 43.8192C125.995 20.4128 121.506 1.45284 116.246 1.47088C110.987 1.48892 106.948 20.4781 107.227 43.8845C107.505 67.2909 111.994 86.2508 117.253 86.2328Z" stroke="#15252B" stroke-miterlimit="10"/>
<path d="M107.724 86.2678C112.984 86.2497 117.022 67.2605 116.744 43.8542C116.465 20.4478 111.976 1.48781 106.717 1.50585C101.457 1.52389 97.4193 20.5131 97.6974 43.9195C97.9755 67.3258 102.465 86.2858 107.724 86.2678Z" stroke="#15252B" stroke-miterlimit="10"/>
<path d="M98.1789 86.2991C103.438 86.2807 107.481 67.2911 107.209 43.8846C106.937 20.4782 102.453 1.51849 97.1935 1.53693C91.9341 1.55537 87.891 20.545 88.1631 43.9514C88.4352 67.3579 92.9194 86.3176 98.1789 86.2991Z" stroke="#15252B" stroke-miterlimit="10"/>
<path d="M222.045 85.6266C227.304 85.6086 231.343 66.6193 231.065 43.213C230.786 19.8066 226.297 0.84664 221.038 0.864678C215.778 0.882716 211.74 19.8719 212.018 43.2783C212.296 66.6847 216.785 85.6446 222.045 85.6266Z" stroke="#15252B" stroke-miterlimit="10"/>
<path d="M212.516 85.6583C217.775 85.6402 221.813 66.651 221.535 43.2447C221.257 19.8383 216.768 0.878317 211.509 0.896355C206.249 0.914393 202.211 19.9036 202.489 43.31C202.767 66.7163 207.256 85.6763 212.516 85.6583Z" stroke="#15252B" stroke-miterlimit="10"/>
<path d="M202.992 85.69C208.252 85.672 212.29 66.6828 212.012 43.2764C211.734 19.87 207.245 0.910055 201.985 0.928094C196.726 0.946132 192.688 19.9354 192.966 43.3417C193.244 66.7481 197.733 85.7081 202.992 85.69Z" stroke="#15252B" stroke-miterlimit="10"/>
<path d="M193.469 85.7249C198.729 85.7069 202.767 66.7177 202.489 43.3113C202.211 19.9049 197.722 0.944968 192.462 0.963006C187.203 0.981044 183.165 19.9703 183.443 43.3766C183.721 66.783 188.21 85.743 193.469 85.7249Z" stroke="#15252B" stroke-miterlimit="10"/>
<path d="M183.918 85.7564C189.178 85.738 193.221 66.7484 192.949 43.3419C192.676 19.9355 188.192 0.975766 182.933 0.994204C177.673 1.01264 173.63 20.0023 173.902 43.4087C174.174 66.8151 178.659 85.7748 183.918 85.7564Z" stroke="#15252B" stroke-miterlimit="10"/>
<g style="mix-blend-mode:multiply">
<rect x="313.497" y="24.7907" width="25.6887" height="25.6887" transform="rotate(45 313.497 24.7907)" fill="#D9D9D9"/>
</g>
<g style="mix-blend-mode:multiply">
<rect x="349.835" y="24.7907" width="25.6887" height="25.6887" transform="rotate(45 349.835 24.7907)" fill="#D9D9D9"/>
</g>
<circle cx="953" cy="42" r="21" fill="white"/>
<g style="mix-blend-mode:multiply">
<path d="M966.586 45.4931L955.194 43.994L955.07 44.0699L961.815 52.9363L957.495 55.4056L953.159 45.1567L953.034 45.2326L948.893 55.6888L944.317 52.9896L951.039 44.0931L950.963 43.9685L939.641 44.9543L939.86 40.0234L951.062 41.6319L951.186 41.5561L944.609 32.8457L948.929 30.3764L953.056 40.4027L953.181 40.3269L957.522 29.9271L961.956 32.5355L955.375 41.5229L955.451 41.6475L966.564 40.4469L966.586 45.4931Z" fill="#BBBCBC"/>
</g>
<g style="mix-blend-mode:multiply">
<path d="M20.5 43H1221.5" stroke="#15252B"/>
</g>
<g style="mix-blend-mode:multiply">
<path d="M922.225 25.1843L922.225 60.4289L900.613 42.8023L922.225 25.1843Z" fill="#BBBCBC"/>
<path d="M900.613 25.1843L900.613 60.4289L879 42.8023L900.613 25.1843Z" fill="#BBBCBC"/>
</g>
<path d="M624 64C635.598 64 645 54.598 645 43C645 31.402 635.598 22 624 22C612.402 22 603 31.402 603 43C603 54.598 612.402 64 624 64Z" fill="#F4005E"/>
</svg>
