<svg width="207" height="176" viewBox="0 0 207 176" fill="none" xmlns="http://www.w3.org/2000/svg">
<g style="mix-blend-mode:multiply">
<path d="M57.9789 145C38.7458 145 18.4743 145 0 145.025C0.0234922 145.348 0.0540323 145.677 0.0845722 146C18.5918 145.988 38.788 145.988 58 145.981C57.993 145.652 57.9859 145.323 57.9789 145Z" fill="#BBBCBC"/>
</g>
<path d="M206.925 46C138.282 46 65.9341 46 0 46.0248C0.083843 46.3478 0.192839 46.677 0.301835 47C66.3534 46.9876 138.433 46.9876 207 46.9814C206.975 46.6522 206.95 46.323 206.925 46Z" fill="#BBBCBC"/>
<path d="M206.925 79C138.282 79 65.9341 79 0 79.0248C0.083843 79.3478 0.192839 79.677 0.301835 80C66.3534 79.9876 138.433 79.9876 207 79.9814C206.975 79.6522 206.95 79.323 206.925 79Z" fill="#BBBCBC"/>
<g style="mix-blend-mode:multiply">
<path d="M110.461 55.2003C115.167 55.2003 118.983 51.3774 118.983 46.6615C118.983 41.9457 115.167 38.1227 110.461 38.1227C105.755 38.1227 101.939 41.9457 101.939 46.6615C101.939 51.3774 105.755 55.2003 110.461 55.2003Z" fill="#D9D9D9"/>
<path d="M135.414 55.2003C140.12 55.2003 143.936 51.3774 143.936 46.6615C143.936 41.9457 140.12 38.1227 135.414 38.1227C130.707 38.1227 126.892 41.9457 126.892 46.6615C126.892 51.3774 130.707 55.2003 135.414 55.2003Z" fill="#D9D9D9"/>
<path d="M160.367 55.2003C165.073 55.2003 168.889 51.3774 168.889 46.6615C168.889 41.9457 165.073 38.1227 160.367 38.1227C155.661 38.1227 151.845 41.9457 151.845 46.6615C151.845 51.3774 155.661 55.2003 160.367 55.2003Z" fill="#D9D9D9"/>
<path d="M185.32 55.2003C190.026 55.2003 193.842 51.3774 193.842 46.6615C193.842 41.9457 190.026 38.1227 185.32 38.1227C180.613 38.1227 176.798 41.9457 176.798 46.6615C176.798 51.3774 180.613 55.2003 185.32 55.2003Z" fill="#D9D9D9"/>
<path d="M10.6592 55.0776C15.3657 55.0776 19.181 51.2546 19.181 46.5388C19.181 41.8229 15.3657 38 10.6592 38C5.95278 38 2.13745 41.8229 2.13745 46.5388C2.13745 51.2546 5.95278 55.0776 10.6592 55.0776Z" fill="#D9D9D9"/>
<path d="M35.6122 55.0776C40.3186 55.0776 44.1339 51.2546 44.1339 46.5388C44.1339 41.8229 40.3186 38 35.6122 38C30.9057 38 27.0904 41.8229 27.0904 46.5388C27.0904 51.2546 30.9057 55.0776 35.6122 55.0776Z" fill="#D9D9D9"/>
<path d="M60.5652 55.0776C65.2717 55.0776 69.087 51.2546 69.087 46.5388C69.087 41.8229 65.2717 38 60.5652 38C55.8588 38 52.0435 41.8229 52.0435 46.5388C52.0435 51.2546 55.8588 55.0776 60.5652 55.0776Z" fill="#D9D9D9"/>
<path d="M85.5079 55.0776C90.2144 55.0776 94.0297 51.2546 94.0297 46.5388C94.0297 41.8229 90.2144 38 85.5079 38C80.8015 38 76.9861 41.8229 76.9861 46.5388C76.9861 51.2546 80.8015 55.0776 85.5079 55.0776Z" fill="#D9D9D9"/>
</g>
<g style="mix-blend-mode:multiply">
<path d="M110.461 87.9953C115.167 87.9953 118.983 84.1724 118.983 79.4566C118.983 74.7407 115.167 70.9178 110.461 70.9178C105.755 70.9178 101.939 74.7407 101.939 79.4566C101.939 84.1724 105.755 87.9953 110.461 87.9953Z" fill="#D9D9D9"/>
<path d="M135.414 87.9953C140.12 87.9953 143.936 84.1724 143.936 79.4566C143.936 74.7407 140.12 70.9178 135.414 70.9178C130.707 70.9178 126.892 74.7407 126.892 79.4566C126.892 84.1724 130.707 87.9953 135.414 87.9953Z" fill="#D9D9D9"/>
<path d="M160.367 87.9953C165.073 87.9953 168.889 84.1724 168.889 79.4566C168.889 74.7407 165.073 70.9178 160.367 70.9178C155.661 70.9178 151.845 74.7407 151.845 79.4566C151.845 84.1724 155.661 87.9953 160.367 87.9953Z" fill="#D9D9D9"/>
<path d="M185.32 87.9953C190.026 87.9953 193.842 84.1724 193.842 79.4566C193.842 74.7407 190.026 70.9178 185.32 70.9178C180.613 70.9178 176.798 74.7407 176.798 79.4566C176.798 84.1724 180.613 87.9953 185.32 87.9953Z" fill="#D9D9D9"/>
<path d="M10.6592 87.8624C15.3657 87.8624 19.181 84.0395 19.181 79.3236C19.181 74.6078 15.3657 70.7849 10.6592 70.7849C5.95278 70.7849 2.13745 74.6078 2.13745 79.3236C2.13745 84.0395 5.95278 87.8624 10.6592 87.8624Z" fill="#D9D9D9"/>
<path d="M35.6122 87.8624C40.3186 87.8624 44.1339 84.0395 44.1339 79.3236C44.1339 74.6078 40.3186 70.7849 35.6122 70.7849C30.9057 70.7849 27.0904 74.6078 27.0904 79.3236C27.0904 84.0395 30.9057 87.8624 35.6122 87.8624Z" fill="#D9D9D9"/>
<path d="M60.5652 87.8624C65.2717 87.8624 69.087 84.0395 69.087 79.3236C69.087 74.6078 65.2717 70.7849 60.5652 70.7849C55.8588 70.7849 52.0435 74.6078 52.0435 79.3236C52.0435 84.0395 55.8588 87.8624 60.5652 87.8624Z" fill="#D9D9D9"/>
<path d="M85.5079 87.8624C90.2144 87.8624 94.0297 84.0395 94.0297 79.3236C94.0297 74.6078 90.2144 70.7849 85.5079 70.7849C80.8015 70.7849 76.9861 74.6078 76.9861 79.3236C76.9861 84.0395 80.8015 87.8624 85.5079 87.8624Z" fill="#D9D9D9"/>
</g>
<g style="mix-blend-mode:multiply">
<path d="M110.461 120.78C115.167 120.78 118.983 116.957 118.983 112.241C118.983 107.526 115.167 103.703 110.461 103.703C105.755 103.703 101.939 107.526 101.939 112.241C101.939 116.957 105.755 120.78 110.461 120.78Z" fill="#BBBCBC"/>
<path d="M135.414 120.78C140.12 120.78 143.936 116.957 143.936 112.241C143.936 107.526 140.12 103.703 135.414 103.703C130.707 103.703 126.892 107.526 126.892 112.241C126.892 116.957 130.707 120.78 135.414 120.78Z" fill="#BBBCBC"/>
<path d="M160.367 120.78C165.073 120.78 168.889 116.957 168.889 112.241C168.889 107.526 165.073 103.703 160.367 103.703C155.661 103.703 151.845 107.526 151.845 112.241C151.845 116.957 155.661 120.78 160.367 120.78Z" fill="#BBBCBC"/>
<path d="M185.32 120.78C190.026 120.78 193.842 116.957 193.842 112.241C193.842 107.526 190.026 103.703 185.32 103.703C180.613 103.703 176.798 107.526 176.798 112.241C176.798 116.957 180.613 120.78 185.32 120.78Z" fill="#BBBCBC"/>
<path d="M10.6592 120.647C15.3657 120.647 19.181 116.824 19.181 112.108C19.181 107.393 15.3657 103.57 10.6592 103.57C5.95278 103.57 2.13745 107.393 2.13745 112.108C2.13745 116.824 5.95278 120.647 10.6592 120.647Z" fill="#BBBCBC"/>
<path d="M35.6122 120.647C40.3186 120.647 44.1339 116.824 44.1339 112.108C44.1339 107.393 40.3186 103.57 35.6122 103.57C30.9057 103.57 27.0904 107.393 27.0904 112.108C27.0904 116.824 30.9057 120.647 35.6122 120.647Z" fill="#BBBCBC"/>
<path d="M60.5652 120.647C65.2717 120.647 69.087 116.824 69.087 112.108C69.087 107.393 65.2717 103.57 60.5652 103.57C55.8588 103.57 52.0435 107.393 52.0435 112.108C52.0435 116.824 55.8588 120.647 60.5652 120.647Z" fill="#BBBCBC"/>
<path d="M85.5079 120.647C90.2144 120.647 94.0297 116.824 94.0297 112.108C94.0297 107.393 90.2144 103.57 85.5079 103.57C80.8015 103.57 76.9861 107.393 76.9861 112.108C76.9861 116.824 80.8015 120.647 85.5079 120.647Z" fill="#BBBCBC"/>
</g>
<g style="mix-blend-mode:multiply">
<path d="M10.6592 153.432C15.3657 153.432 19.181 149.609 19.181 144.893C19.181 140.177 15.3657 136.355 10.6592 136.355C5.95278 136.355 2.13745 140.177 2.13745 144.893C2.13745 149.609 5.95278 153.432 10.6592 153.432Z" fill="#BBBCBC"/>
</g>
<g style="mix-blend-mode:multiply">
<path d="M35.6122 153.432C40.3186 153.432 44.1339 149.609 44.1339 144.893C44.1339 140.177 40.3186 136.355 35.6122 136.355C30.9057 136.355 27.0904 140.177 27.0904 144.893C27.0904 149.609 30.9057 153.432 35.6122 153.432Z" fill="#BBBCBC"/>
</g>
<g style="mix-blend-mode:multiply">
<path d="M80.2316 156.623H57.6872V134.033H80.2316V156.623ZM59.7283 154.577H78.1905V136.078H59.7283V154.577Z" fill="#595959"/>
</g>
<g style="mix-blend-mode:multiply">
<path d="M68.7808 149.393C68.7706 149.393 68.7706 149.393 68.7808 149.393C68.342 149.393 67.944 149.209 67.648 148.892L64.5863 145.538C64.0148 144.914 64.0556 143.942 64.6781 143.37C65.3007 142.797 66.2702 142.838 66.8417 143.462L68.7808 145.578C73.1693 140.731 77.1903 135.506 80.7725 130.045C81.242 129.339 82.1911 129.135 82.8953 129.605C83.5995 130.065 83.8036 131.017 83.3342 131.732C79.3539 137.807 74.843 143.574 69.9035 148.902C69.6075 149.219 69.1993 149.393 68.7808 149.393Z" fill="#F4005E"/>
</g>
<g style="mix-blend-mode:multiply">
<path d="M108.522 156.623H85.9775V134.033H108.522V156.623ZM88.0186 154.577H106.481V136.078H88.0186V154.577Z" fill="#595959"/>
</g>
<g style="mix-blend-mode:multiply">
<path d="M97.0608 149.393C97.0608 149.393 97.0506 149.393 97.0608 149.393C96.622 149.393 96.224 149.209 95.928 148.892L92.8663 145.538C92.2948 144.914 92.3356 143.942 92.9582 143.37C93.5807 142.797 94.5502 142.838 95.1218 143.462L97.0608 145.578C101.449 140.731 105.47 135.506 109.053 130.045C109.522 129.339 110.461 129.135 111.175 129.605C111.88 130.065 112.084 131.017 111.614 131.732C107.634 137.807 103.123 143.574 98.1835 148.902C97.8875 149.219 97.4895 149.393 97.0608 149.393Z" fill="#F4005E"/>
</g>
<g style="mix-blend-mode:multiply">
<path d="M136.802 156.623H114.257V134.033H136.802V156.623ZM116.299 154.577H134.761V136.078H116.299V154.577Z" fill="#595959"/>
</g>
<g style="mix-blend-mode:multiply">
<path d="M125.341 149.393C124.912 149.393 124.504 149.209 124.208 148.892L121.146 145.538C120.575 144.914 120.616 143.942 121.238 143.37C121.861 142.797 122.83 142.838 123.402 143.462L125.341 145.578C129.729 140.721 133.761 135.506 137.333 130.045C137.802 129.339 138.741 129.135 139.455 129.605C140.16 130.065 140.364 131.017 139.894 131.732C135.924 137.796 131.403 143.574 126.464 148.902C126.178 149.219 125.77 149.393 125.341 149.393Z" fill="#F4005E"/>
</g>
<g style="mix-blend-mode:multiply">
<path d="M165.082 156.623H142.537V134.033H165.082V156.623ZM144.579 154.577H163.041V136.078H144.579V154.577Z" fill="#595959"/>
</g>
<g style="mix-blend-mode:multiply">
<path d="M153.631 149.393C153.621 149.393 153.621 149.393 153.631 149.393C153.192 149.393 152.794 149.209 152.498 148.892L149.437 145.538C148.865 144.914 148.906 143.942 149.528 143.37C150.151 142.797 151.121 142.838 151.692 143.462L153.631 145.578C158.02 140.731 162.041 135.506 165.623 130.045C166.092 129.339 167.042 129.135 167.746 129.605C168.45 130.065 168.654 131.017 168.185 131.732C164.204 137.807 159.693 143.574 154.754 148.902C154.458 149.219 154.05 149.393 153.631 149.393Z" fill="#F4005E"/>
</g>
<g style="mix-blend-mode:multiply">
<path d="M193.372 156.623H170.818V134.033H193.362V156.623H193.372ZM172.859 154.577H191.321V136.078H172.859V154.577Z" fill="#595959"/>
</g>
<g style="mix-blend-mode:multiply">
<path d="M181.911 149.393C181.911 149.393 181.901 149.393 181.911 149.393C181.472 149.393 181.074 149.209 180.778 148.892L177.717 145.538C177.145 144.914 177.186 143.942 177.808 143.37C178.431 142.797 179.401 142.838 179.972 143.462L181.911 145.578C186.3 140.731 190.321 135.506 193.903 130.045C194.372 129.339 195.311 129.135 196.026 129.605C196.73 130.065 196.934 131.017 196.465 131.732C192.484 137.807 187.973 143.574 183.034 148.902C182.738 149.219 182.33 149.393 181.911 149.393Z" fill="#F4005E"/>
</g>
<path d="M206.925 112C138.282 112 65.9341 112 0 112.025C0.083843 112.348 0.192839 112.677 0.301835 113C66.3534 112.988 138.433 112.988 207 112.981C206.975 112.652 206.95 112.323 206.925 112Z" fill="#BBBCBC"/>
<g opacity="0.2">
<path d="M44.1426 162.512C44.8243 163.647 45.4037 164.945 45.9604 166.278C46.5057 167.633 47.0283 169.035 47.4486 170.599C46.767 169.464 46.1876 168.166 45.6309 166.834C45.0856 165.478 44.563 164.076 44.1426 162.512Z" fill="#15252B"/>
<path d="M35.6959 141.795C36.3548 143.139 36.9796 144.53 37.5988 145.943C38.2236 147.345 38.8201 148.794 39.4165 150.242C40.0073 151.702 40.5924 153.162 41.1604 154.668C41.7285 156.163 42.2908 157.669 42.8134 159.245C42.1545 157.912 41.5296 156.51 40.9105 155.097C40.2856 153.695 39.6892 152.246 39.0927 150.798C38.502 149.338 37.9169 147.878 37.3545 146.372C36.7808 144.877 36.2185 143.371 35.6959 141.795Z" fill="#15252B"/>
<path d="M40.9162 139.768L44.0063 147.403C45.0459 149.929 46.0797 152.466 47.1362 154.969L50.2605 162.547C51.2943 165.096 52.3224 167.645 53.3052 170.275C52.1861 167.876 51.0955 165.443 50.0105 162.987C48.9256 160.53 47.869 158.028 46.8068 155.525C45.7729 152.976 44.7334 150.439 43.745 147.82C42.7623 145.202 41.8023 142.537 40.9162 139.768Z" fill="#15252B"/>
<path d="M27.9933 107.267C29.1691 109.353 30.2711 111.612 31.3334 113.941C32.3956 116.282 33.3897 118.726 34.3724 121.194C35.3267 123.709 36.2753 126.234 37.1785 128.818C38.0817 131.402 38.9678 134.021 39.8142 136.685C38.8258 134.229 37.8715 131.715 36.9172 129.212C35.9629 126.71 35.0199 124.184 34.0429 121.727C33.0886 119.225 32.1002 116.791 31.0948 114.37C30.0837 111.96 29.0442 109.608 27.9933 107.267Z" fill="#15252B"/>
<path d="M36.2923 162.767C36.9739 163.821 37.559 165.038 38.1214 166.312C38.6724 167.598 39.2007 168.919 39.6324 170.437C38.9507 169.394 38.3656 168.166 37.8033 166.892C37.2466 165.605 36.7183 164.273 36.2923 162.767Z" fill="#15252B"/>
<path d="M26.9935 139.976C27.6922 141.425 28.3624 142.942 29.0214 144.46C29.686 145.978 30.3222 147.531 30.9584 149.083C31.5889 150.647 32.2138 152.223 32.8216 153.834C33.4294 155.444 34.0315 157.055 34.5938 158.746C33.8952 157.298 33.2306 155.792 32.5716 154.274C31.907 152.756 31.2708 151.204 30.6346 149.639C30.0041 148.064 29.3736 146.5 28.7714 144.877C28.158 143.278 27.5558 141.656 26.9935 139.976Z" fill="#15252B"/>
<path d="M1.56232 75.7755C2.56775 78.3245 3.58454 80.8504 4.60133 83.3763L7.65739 90.9538L13.7979 106.051C15.8258 111.114 17.8764 116.154 19.8759 121.264L22.8525 128.969L25.7495 136.802L22.6877 129.236L19.6203 121.681L13.4684 106.596C11.4405 101.532 9.39559 96.4921 7.40177 91.3593L4.4366 83.6311C3.47093 81.0358 2.51094 78.4172 1.56232 75.7755Z" fill="#15252B"/>
<path d="M33.0715 101.799C34.219 104.429 35.3607 107.082 36.4911 109.747L39.8255 117.846C42.0295 123.268 44.1881 128.784 46.3637 134.252C48.5165 139.768 50.6921 145.225 52.8905 150.67C53.9868 153.393 55.0945 156.093 56.2135 158.781C57.3269 161.481 58.4516 164.146 59.5933 166.799C58.4004 164.25 57.2246 161.666 56.0544 159.071C54.9013 156.441 53.7652 153.787 52.6405 151.111C50.3911 145.758 48.2155 140.277 46.0342 134.809L39.5699 118.275L36.3321 110.025C35.2528 107.256 34.1679 104.521 33.0715 101.799Z" fill="#15252B"/>
<path d="M1.06244 23.7755L5.01032 33.0446L8.92412 42.3717L16.7006 61.1071C19.2624 67.3986 21.8527 73.6553 24.3918 79.9931L28.1977 89.5056L31.9695 99.076L28.0387 89.7836L24.1419 80.4218L16.3711 61.6632L8.67418 42.8005L4.85127 33.3227L1.06244 23.7755Z" fill="#15252B"/>
<path d="M1 41.1088L13.2413 69.8317C15.2521 74.6748 17.2687 79.5064 19.2171 84.4538C20.1884 86.9333 21.1484 89.4244 22.1027 91.9387C23.04 94.4761 23.9602 97.0367 24.8691 99.6089C23.9034 97.1178 22.9264 94.6499 21.938 92.2052C20.9553 89.7488 19.9669 87.3041 18.9671 84.8825C16.9676 80.0278 14.9567 75.1846 12.9232 70.3994C10.9123 65.5562 8.87304 60.771 6.87922 55.9047L3.90269 48.5705C2.92566 46.1025 1.95999 43.6114 1 41.1088Z" fill="#15252B"/>
<path d="M19.2625 101.521C20.4043 104.047 21.5176 106.63 22.6196 109.226C23.7216 111.821 24.8009 114.463 25.8915 117.081C26.9538 119.746 28.0331 122.376 29.0839 125.065C30.1348 127.753 31.18 130.441 32.1911 133.198C31.0437 130.672 29.936 128.089 28.834 125.493C27.732 122.898 26.6527 120.256 25.5678 117.638C24.5055 114.973 23.4262 112.343 22.3754 109.655C21.3131 106.966 20.2679 104.278 19.2625 101.521Z" fill="#15252B"/>
<path d="M1.56799 58.1523C3.0165 61.4197 4.43092 64.7566 5.83966 68.1051C7.2484 71.442 8.62873 74.8368 10.0261 78.1969L14.133 88.4278C15.4907 91.8574 16.8369 95.2985 18.1548 98.8093C16.7063 95.5419 15.2918 92.205 13.8831 88.8565L9.69665 78.753C8.32767 75.3466 6.94166 71.9634 5.58972 68.5222C4.2321 65.0926 2.88017 61.6514 1.56799 58.1523Z" fill="#15252B"/>
<path d="M71.6414 159.835C72.6014 161.573 73.4648 163.497 74.2998 165.455C75.1292 167.436 75.9358 169.452 76.6402 171.642C75.6802 169.893 74.8168 167.981 73.9817 166.023C73.1524 164.053 72.3515 162.037 71.6414 159.835Z" fill="#15252B"/>
<path d="M81.8492 151.621C82.4343 152.779 82.9853 153.984 83.5249 155.212C84.0702 156.429 84.5928 157.692 85.1154 158.955C85.6266 160.229 86.1436 161.504 86.6321 162.825C87.1206 164.134 87.6091 165.455 88.0579 166.845C87.4728 165.698 86.9218 164.482 86.3821 163.253C85.8368 162.037 85.3142 160.774 84.7916 159.511C84.2804 158.236 83.7635 156.962 83.275 155.641C82.7864 154.332 82.2979 153.011 81.8492 151.621Z" fill="#15252B"/>
<path d="M47.744 101.266C49.7549 104.916 51.5953 108.936 53.3506 113.084C55.1058 117.244 56.7588 121.577 58.4061 125.91L63.2799 139.003C64.9159 143.348 66.5859 147.623 68.3468 151.771C66.4553 147.867 64.7171 143.684 63.0243 139.42C61.3315 135.156 59.7183 130.777 58.071 126.443C56.4521 122.075 54.8048 117.753 53.1063 113.524C51.4022 109.284 49.6299 105.171 47.744 101.266Z" fill="#15252B"/>
<path d="M36.9854 74.8949C37.8772 76.8067 38.7349 78.7764 39.587 80.7461C40.439 82.7274 41.2627 84.755 42.1034 86.7479C42.9157 88.7871 43.745 90.8147 44.5403 92.8771C45.3412 94.9511 46.1308 97.0251 46.892 99.157C46.0001 97.2452 45.1424 95.2755 44.2903 93.3058C43.4383 91.3245 42.6146 89.2969 41.7739 87.304C40.9616 85.2532 40.1323 83.2372 39.337 81.1748C38.5361 79.1124 37.7465 77.0384 36.9854 74.8949Z" fill="#15252B"/>
<path d="M43.8245 74.7327L48.4654 86.2149L53.0325 97.8246L62.1097 121.125C65.1317 128.9 68.1934 136.593 71.3063 144.217L73.6523 149.917L76.0267 155.572L78.4182 161.191L80.8437 166.741L78.3386 161.33L75.8677 155.85L73.4478 150.277L71.0564 144.646C67.8924 137.103 64.825 129.398 61.7803 121.658C58.7583 113.883 55.759 106.074 52.7768 98.2301L43.8245 74.7327Z" fill="#15252B"/>
<path d="M29.6689 40.9002C30.8505 43.2754 31.9866 45.7318 33.1113 48.2229C34.236 50.714 35.3153 53.2746 36.4059 55.812C37.4681 58.4074 38.5417 60.9912 39.5756 63.6329C40.6094 66.2746 41.6319 68.9395 42.6089 71.6739C41.4955 69.1712 40.4106 66.6106 39.3256 64.0616L36.0878 56.3797L32.867 48.6631C31.7991 46.0909 30.7255 43.5188 29.6689 40.9002Z" fill="#15252B"/>
<path d="M40.4163 101.66C42.109 105.414 43.7677 109.237 45.415 113.072C47.0623 116.907 48.6756 120.812 50.2888 124.705C51.8793 128.645 53.4755 132.572 55.0263 136.57C56.577 140.567 58.1107 144.599 59.5876 148.724L49.9593 125.261L45.1594 113.501C43.5689 109.573 41.9727 105.645 40.4163 101.66Z" fill="#15252B"/>
<path d="M15.1612 39.8225L21.1256 54.5721C23.1251 59.4732 25.1133 64.3743 27.1355 69.2406L33.1567 83.8859L36.1616 91.2317L39.1325 98.6239L36.0026 91.5098L32.9068 84.3262C30.8505 79.5294 28.8282 74.6631 26.806 69.7967C24.8122 64.8841 22.8127 59.983 20.87 54.9892L17.9787 47.4696L15.1612 39.8225Z" fill="#15252B"/>
<path d="M1.39191 6.08289C2.53367 8.59715 3.64135 11.1809 4.73767 13.7647C5.83966 16.3485 6.90758 18.9902 7.99821 21.5972C9.06045 24.2505 10.134 26.8806 11.1849 29.5571C12.2301 32.2336 13.2753 34.9216 14.2807 37.6676C13.139 35.1534 12.0313 32.5696 10.935 29.9858C9.83299 27.402 8.76507 24.7603 7.67443 22.1533C6.6122 19.5 5.5386 16.8699 4.49341 14.1934C3.44253 11.5169 2.39734 8.82888 1.39191 6.08289Z" fill="#15252B"/>
<path d="M51.0728 75.2542C51.8964 76.8299 52.686 78.4868 53.4585 80.1784C54.2367 81.8584 54.9752 83.5964 55.7023 85.3807C56.418 87.1651 57.1167 88.9841 57.7643 90.8843C58.4175 92.7729 59.0367 94.7079 59.5877 96.7239C58.889 94.9048 58.2073 93.0742 57.503 91.2898C56.7986 89.5055 56.0942 87.7096 55.3728 85.9369L53.2143 80.6303C52.4929 78.846 51.7714 77.0732 51.0728 75.2542Z" fill="#15252B"/>
<path d="M36.6104 40.3903C37.6102 43.1363 38.6326 45.8359 39.6835 48.4776C40.7401 51.1193 41.8023 53.7495 42.91 56.2985C43.9893 58.9055 45.1083 61.4313 46.216 64.0035C47.318 66.5641 48.4313 69.1247 49.4992 71.7549C48.3007 69.3681 47.1305 66.9233 45.9717 64.4554C44.8186 61.9759 43.6996 59.4384 42.5862 56.8778C41.5012 54.2709 40.4276 51.6407 39.4279 48.8947C38.4225 46.1487 37.4682 43.3332 36.6104 40.3903Z" fill="#15252B"/>
<path d="M20.3077 1.79596C21.6426 4.66941 22.9377 7.61238 24.2328 10.5553C25.528 13.4983 26.789 16.4992 28.0728 19.4653C29.3282 22.4778 30.5949 25.4671 31.8332 28.5028C33.0715 31.5385 34.3099 34.5857 35.5084 37.7025C34.1735 34.829 32.8784 31.8976 31.5833 28.9431C30.2881 26.0001 29.0271 22.9992 27.7433 20.0331C26.488 17.0206 25.2212 14.0313 23.9772 10.984C22.7446 7.94838 21.5062 4.90114 20.3077 1.79596Z" fill="#15252B"/>
<path d="M14.0024 2.90802C14.9738 5.01676 15.9111 7.18343 16.8426 9.35011C17.7742 11.5284 18.6774 13.753 19.5976 15.9428C20.4895 18.1906 21.3983 20.4036 22.2788 22.663C23.1593 24.9339 24.034 27.2049 24.8691 29.5338C23.8977 27.425 22.9604 25.2583 22.0232 23.0917C21.0916 20.9134 20.1884 18.6888 19.2682 16.499C18.3764 14.2512 17.4675 12.0382 16.587 9.7788C15.7122 7.50785 14.8375 5.2369 14.0024 2.90802Z" fill="#15252B"/>
<path d="M68.4207 118.715C69.5113 121.102 70.5622 123.546 71.6074 126.003C72.6526 128.459 73.675 130.962 74.7089 133.441C75.7143 135.967 76.7368 138.458 77.7308 141.007C78.7249 143.556 79.7133 146.105 80.6676 148.724C79.577 146.337 78.5261 143.892 77.4809 141.436C76.4357 138.98 75.4132 136.477 74.3794 133.997C73.374 131.472 72.3515 128.98 71.3574 126.431C70.3634 123.882 69.375 121.333 68.4207 118.715Z" fill="#15252B"/>
<path d="M60.576 99.4813C61.2065 100.756 61.803 102.077 62.3937 103.421C62.9902 104.753 63.5582 106.132 64.1262 107.511C64.6886 108.901 65.2453 110.292 65.7849 111.728C66.3246 113.153 66.8585 114.59 67.3527 116.096C66.7222 114.833 66.1257 113.501 65.535 112.157C64.9385 110.824 64.3705 109.446 63.8025 108.067C63.2401 106.677 62.6834 105.286 62.1495 103.849C61.6041 102.424 61.0759 100.988 60.576 99.4813Z" fill="#15252B"/>
<path d="M22.7502 40.0082C23.6023 41.8157 24.4203 43.6927 25.2326 45.5813C26.0449 47.4583 26.8288 49.3932 27.6297 51.2934C28.4022 53.2399 29.1918 55.1633 29.953 57.133C30.7142 59.1027 31.4697 61.084 32.1854 63.1232C31.3333 61.3157 30.5154 59.4387 29.7031 57.5617C28.8908 55.6847 28.1069 53.7497 27.3059 51.8496C26.5334 49.903 25.7438 47.9797 24.9883 46.01C24.2271 44.0287 23.4717 42.0474 22.7502 40.0082Z" fill="#15252B"/>
<path d="M8.56628 5.237C9.72509 7.79761 10.8498 10.4277 11.9688 13.0579C13.0879 15.688 14.1785 18.3761 15.2862 21.0294C16.3655 23.729 17.4618 26.4055 18.5297 29.1283C19.5976 31.8511 20.6599 34.5856 21.6823 37.3779C20.5235 34.8173 19.3988 32.1872 18.2798 29.557C17.1607 26.9269 16.0701 24.2388 14.9624 21.5855C13.8831 18.8859 12.7868 16.2094 11.7246 13.4866C10.651 10.7638 9.58876 8.02934 8.56628 5.237Z" fill="#15252B"/>
<path d="M76.4925 118.321C78.1171 122.191 79.7076 126.119 81.2868 130.058L85.9901 141.934L90.6196 153.938C92.1477 157.958 93.67 161.991 95.1583 166.092C93.5337 162.222 91.9489 158.294 90.364 154.355L85.6607 142.479L81.0311 130.475C79.5031 126.443 77.9808 122.411 76.4925 118.321Z" fill="#15252B"/>
<path d="M71.6414 106.364C72.448 107.812 73.1524 109.423 73.8341 111.08C74.5043 112.748 75.1519 114.463 75.6972 116.351C74.8906 114.903 74.1862 113.293 73.5046 111.636C72.8343 109.967 72.1867 108.252 71.6414 106.364Z" fill="#15252B"/>
<path d="M58.6107 74.4198C59.4911 76.2968 60.3318 78.2318 61.1725 80.1783C62.0132 82.1248 62.8198 84.1177 63.6435 86.0758C64.4444 88.0918 65.2567 90.0731 66.0406 92.1124C66.8245 94.1516 67.6084 96.1908 68.3469 98.288C67.4664 96.4109 66.6257 94.476 65.785 92.5295C64.95 90.5829 64.1377 88.5901 63.314 86.6204C62.5188 84.6043 61.7008 82.623 60.9169 80.5838C60.133 78.5678 59.3548 76.5285 58.6107 74.4198Z" fill="#15252B"/>
<path d="M35.6959 18.2602C37.4568 22.8369 39.2972 27.2745 41.1888 31.6194C43.0804 35.9643 44.9947 40.2745 46.9147 44.5731C48.8119 48.918 50.7148 53.263 52.5155 57.7817C54.3162 62.3004 56.0431 66.9582 57.5711 71.8709C55.9011 67.1552 54.1174 62.6248 52.2656 58.2104C50.4138 53.7959 48.5165 49.4626 46.5966 45.1524C44.705 40.8075 42.7793 36.4973 40.9389 32.0481C39.0984 27.6105 37.3148 23.057 35.6959 18.2602Z" fill="#15252B"/>
<path d="M28.9873 1.81891C29.6519 2.90804 30.2143 4.15938 30.7482 5.45706C31.2765 6.76634 31.7821 8.13354 32.1854 9.65137C31.5208 8.56224 30.9584 7.3109 30.4244 6.01321C29.8962 4.70394 29.3906 3.33674 28.9873 1.81891Z" fill="#15252B"/>
<path d="M59.5876 148.724C60.4056 150.508 61.1838 152.339 61.9564 154.181C62.7289 156.024 63.473 157.912 64.2342 159.778C64.967 161.689 65.7168 163.566 66.4382 165.501C67.1596 167.436 67.8754 169.371 68.5513 171.376C67.7333 169.603 66.9551 167.772 66.1826 165.918C65.4101 164.076 64.6602 162.176 63.8991 160.311C63.1663 158.399 62.4165 156.51 61.6951 154.575C60.985 152.663 60.2693 150.717 59.5876 148.724Z" fill="#15252B"/>
<path d="M2.10767 152.536C2.70979 153.695 3.27783 154.923 3.84019 156.151C4.40823 157.379 4.94787 158.654 5.48751 159.917C6.02146 161.203 6.55542 162.489 7.06098 163.821C7.57221 165.142 8.07777 166.475 8.54356 167.877C7.94144 166.718 7.3734 165.49 6.81104 164.262C6.243 163.033 5.70336 161.759 5.16372 160.496C4.62977 159.21 4.10149 157.924 3.59025 156.591C3.0847 155.259 2.57914 153.926 2.10767 152.536Z" fill="#15252B"/>
<path d="M2.03949 133.928C3.22101 136.547 4.36845 139.223 5.51021 141.9C6.65197 144.588 7.76533 147.322 8.89573 150.022C9.99773 152.768 11.1168 155.502 12.2074 158.271C13.298 161.052 14.383 163.833 15.4282 166.671C14.2467 164.053 13.0992 161.376 11.9518 158.7C10.81 156.012 9.69667 153.277 8.56627 150.578C7.46427 147.82 6.34523 145.097 5.2546 142.328C4.16964 139.559 3.08468 136.767 2.03949 133.928Z" fill="#15252B"/>
<path d="M20.9722 162.593C21.438 163.196 21.8072 163.972 22.1481 164.794C22.4832 165.629 22.79 166.509 22.9945 167.552C22.5287 166.95 22.1594 166.173 21.8186 165.351C21.4891 164.505 21.1824 163.636 20.9722 162.593Z" fill="#15252B"/>
<path d="M11.3099 138.899C12.071 140.486 12.7981 142.143 13.5196 143.8C14.2466 145.457 14.9453 147.148 15.644 148.852C16.337 150.566 17.0244 152.27 17.6946 154.031C18.3649 155.78 19.0295 157.541 19.6544 159.36C18.8932 157.773 18.1661 156.116 17.4447 154.459C16.7176 152.803 16.0189 151.111 15.3202 149.408C14.6272 147.693 13.9399 145.99 13.2696 144.229C12.5993 142.479 11.9404 140.718 11.3099 138.899Z" fill="#15252B"/>
<path d="M2.06226 116.224C2.82911 117.823 3.5562 119.48 4.28329 121.137C5.01038 122.793 5.71475 124.497 6.41344 126.2C7.10645 127.915 7.79946 129.63 8.46975 131.391C9.14004 133.14 9.80465 134.913 10.4352 136.732C9.66832 135.133 8.94122 133.476 8.21413 131.819C7.48704 130.162 6.78267 128.459 6.08398 126.756C5.39097 125.041 4.69796 123.326 4.02768 121.565C3.35739 119.816 2.6871 118.055 2.06226 116.224Z" fill="#15252B"/>
<path d="M28.7431 161.62C29.3339 162.547 29.8281 163.636 30.2995 164.771C30.7596 165.918 31.1914 167.112 31.5265 168.479C30.9357 167.552 30.4415 166.463 29.9701 165.327C29.5156 164.18 29.0782 162.987 28.7431 161.62Z" fill="#15252B"/>
<path d="M19.6431 139.2C20.3986 140.776 21.1143 142.421 21.83 144.066C22.5458 145.711 23.2388 147.392 23.9318 149.083C24.6134 150.786 25.3007 152.478 25.954 154.228C26.6129 155.966 27.2718 157.715 27.891 159.523C27.1355 157.947 26.4198 156.302 25.7041 154.656C24.9883 153.011 24.2953 151.331 23.6023 149.639C22.9207 147.936 22.239 146.244 21.5801 144.495C20.9212 142.757 20.2622 141.007 19.6431 139.2Z" fill="#15252B"/>
<path d="M1.44873 94.3718C2.92563 97.7318 4.36278 101.138 5.79992 104.568L10.0602 114.915L14.2467 125.389C15.627 128.899 17.0074 132.422 18.3422 136.014C16.8653 132.665 15.4282 129.247 13.9911 125.817L9.73076 115.471L5.5443 104.997C4.16396 101.474 2.78931 97.952 1.44873 94.3718Z" fill="#15252B"/>
<path d="M91.7785 118.808L97.1749 132.329L102.594 145.804L108.024 159.256C109.831 163.752 111.649 168.224 113.432 172.766C111.512 168.467 109.638 164.088 107.775 159.685C105.911 155.282 104.088 150.821 102.265 146.349C100.47 141.842 98.6688 137.323 96.9193 132.735C95.1697 128.158 93.4429 123.523 91.7785 118.808Z" fill="#15252B"/>
<path d="M71.579 69.3101C73.249 73.122 74.8793 76.9803 76.5039 80.8618L81.3436 92.5641L86.1038 104.394C87.6772 108.357 89.245 112.331 90.7787 116.374C89.1087 112.562 87.4784 108.704 85.8538 104.823L81.0141 93.1203L76.2539 81.2905C74.6805 77.3163 73.1127 73.3422 71.579 69.3101Z" fill="#15252B"/>
<path d="M84.8541 85.1257L89.5006 95.9127L94.1131 106.746L103.287 128.517L112.387 150.416L116.909 161.411L121.396 172.465L116.75 161.689L112.137 150.844L102.963 129.073L93.8632 107.175L89.3416 96.1792L84.8541 85.1257Z" fill="#15252B"/>
<path d="M80.6051 58.1871C81.6844 60.6319 82.8091 63.0187 83.9452 65.3592L87.3932 72.3342C87.9499 73.7246 87.9328 75.59 88.4441 76.7255L90.1652 80.2015L93.6189 87.1533L93.6246 87.1649L93.6303 87.1765C95.8286 92.7149 97.9928 98.3111 100.242 103.757C102.486 109.214 104.826 114.497 107.28 119.538L107.286 119.549L107.292 119.561C110.813 128.471 114.409 137.242 118.005 146.024L128.889 172.21C125.145 163.682 121.424 155.12 117.772 146.43C114.102 137.775 110.524 128.957 106.974 120.094L106.985 120.128C104.497 115.1 102.174 109.747 99.9355 104.267C97.6974 98.7862 95.5332 93.1899 93.3633 87.6052L93.3746 87.6284L89.9664 80.5838L88.2623 77.0499C87.6829 75.6595 87.717 73.7941 87.2285 72.6007L83.8656 65.4982C82.7523 63.1114 81.6617 60.6898 80.6051 58.1871Z" fill="#15252B"/>
<path d="M43.8245 1.34406L46.9658 8.68989L50.0673 16.1052L56.2192 31.0054L62.2972 46.0447L65.3078 53.5991L68.2843 61.223L65.1487 53.8772L62.0416 46.4734L55.8897 31.5616L49.8173 16.5223L46.8067 8.96796L43.8245 1.34406Z" fill="#15252B"/>
<path d="M50.1923 1.22815L54.339 11.0651L58.4572 20.9599L66.6313 40.8308L74.7259 60.8406L78.7476 70.8861L82.7353 80.9895L78.5886 71.1642L74.476 61.2693L66.3019 41.3869L58.2073 21.3886L54.1799 11.3316L50.1923 1.22815Z" fill="#15252B"/>
<path d="M36.1163 0.799255C38.1442 5.45702 40.1096 10.2191 42.0636 14.9927L47.8747 29.4179C49.789 34.261 51.726 39.0694 53.663 43.8662C55.6 48.6746 57.5598 53.4366 59.5366 58.1871C57.4291 53.68 55.4069 49.0222 53.4131 44.3065C51.4193 39.5908 49.4879 34.7824 47.5452 29.974L41.8137 15.4214L36.1163 0.799255Z" fill="#15252B"/>
<path d="M57.7699 1.8653C58.1902 2.36351 58.514 3.03553 58.8151 3.7423C59.1048 4.47225 59.3661 5.23696 59.5308 6.17546C59.1105 5.67724 58.7867 5.00523 58.4856 4.29845C58.1959 3.56851 57.9346 2.8038 57.7699 1.8653Z" fill="#15252B"/>
<path d="M76.7766 48.802C77.5434 50.146 78.2137 51.6639 78.8556 53.2164C79.4918 54.7922 80.0996 56.4027 80.6051 58.1871C79.8383 56.843 79.168 55.3252 78.5261 53.7726C77.8956 52.1968 77.2821 50.5863 76.7766 48.802Z" fill="#15252B"/>
<path d="M60.5135 8.94452C61.8598 11.957 63.1663 15.039 64.4728 18.1326C65.7793 21.2146 67.0517 24.3545 68.3468 27.4597C69.6136 30.6112 70.8916 33.7396 72.1413 36.9143C73.391 40.089 74.6407 43.2753 75.8506 46.5195C74.5044 43.507 73.1979 40.425 71.8914 37.3314C70.5849 34.2378 69.3125 31.1095 68.0174 28.0043C66.7506 24.8528 65.4725 21.7244 64.2229 18.5381C62.9732 15.3866 61.7235 12.2003 60.5135 8.94452Z" fill="#15252B"/>
<path d="M104.446 169.255C104.787 169.545 105.031 169.997 105.247 170.495C105.457 171.016 105.639 171.573 105.724 172.303C105.383 172.013 105.139 171.561 104.923 171.063C104.713 170.541 104.531 169.985 104.446 169.255Z" fill="#15252B"/>
<path d="M84.269 118.831L88.9894 130.684L93.7212 142.502L98.4586 154.32C100.038 158.26 101.617 162.199 103.168 166.196C101.481 162.442 99.839 158.607 98.2087 154.749C96.5784 150.891 94.9879 146.975 93.3917 143.047C91.8239 139.084 90.2561 135.122 88.7338 131.089C87.2114 127.069 85.7118 122.99 84.269 118.831Z" fill="#15252B"/>
<path d="M59.5251 58.1871C60.5931 60.4581 61.6496 62.7522 62.6948 65.0811C63.723 67.4216 64.7398 69.7968 65.7509 72.1836C67.7617 76.9688 69.6931 81.8815 71.6358 86.7826L77.3843 101.59C78.3386 104.058 79.31 106.514 80.2813 108.948C81.247 111.404 82.224 113.837 83.2181 116.247C82.1729 113.93 81.1448 111.589 80.1223 109.214C79.1169 106.827 78.1171 104.417 77.1287 101.996C75.1576 97.1525 73.2433 92.205 71.3006 87.3155C69.3863 82.3797 67.4493 77.4786 65.5009 72.6007C64.5239 70.1676 63.5355 67.746 62.5414 65.3476C61.553 62.9376 60.5476 60.5508 59.5251 58.1871Z" fill="#15252B"/>
<path d="M91.3582 49.2424L95.3969 58.8939L99.3675 68.6729C102.003 75.2077 104.588 81.8236 107.189 88.4163L122.612 128.251L118.607 118.541L114.659 108.727C112.041 102.169 109.456 95.542 106.86 88.9493L91.3582 49.2424Z" fill="#15252B"/>
<path d="M73.0956 2.7923C74.652 6.2219 76.1516 9.77894 77.6229 13.3592C79.0998 16.9394 80.5255 20.6007 81.957 24.2505C83.3657 27.9466 84.7802 31.6195 86.1662 35.3387C87.5522 39.058 88.9382 42.7888 90.2958 46.5544C88.7962 43.009 87.3477 39.3824 85.9049 35.7558L81.6162 24.7834L77.3616 13.7763L73.0956 2.7923Z" fill="#15252B"/>
<path d="M145.123 162.002C146.06 163.74 146.895 165.64 147.708 167.587C148.509 169.545 149.287 171.549 149.968 173.728C149.031 171.99 148.196 170.09 147.384 168.143C146.583 166.185 145.805 164.18 145.123 162.002Z" fill="#15252B"/>
<path d="M134.518 136.315C135.393 138.157 136.239 140.069 137.074 141.992C137.909 143.904 138.721 145.874 139.545 147.809C140.34 149.79 141.153 151.748 141.936 153.764C142.72 155.769 143.499 157.785 144.243 159.87C143.362 158.028 142.522 156.116 141.686 154.204C140.851 152.293 140.039 150.323 139.221 148.388C138.426 146.407 137.614 144.449 136.83 142.433C136.04 140.417 135.262 138.401 134.518 136.315Z" fill="#15252B"/>
<path d="M112.927 83.7819C114.682 87.7792 116.403 91.8345 118.118 95.9013L123.225 108.171L128.252 120.569C129.917 124.728 131.57 128.888 133.194 133.117C131.439 129.12 129.718 125.064 128.002 120.998L122.896 108.728L117.869 96.33C116.204 92.1705 114.551 88.0109 112.927 83.7819Z" fill="#15252B"/>
<path d="M98.9244 49.3118C100.049 51.8029 101.14 54.3519 102.225 56.9126C103.31 59.4732 104.366 62.0801 105.434 64.6639C106.479 67.2941 107.536 69.8894 108.57 72.5427C109.598 75.196 110.626 77.8493 111.614 80.5722C110.49 78.0811 109.399 75.532 108.314 72.9714C107.229 70.4108 106.173 67.8039 105.105 65.2201C104.06 62.5899 103.003 59.9946 101.969 57.3413C100.935 54.688 99.9128 52.0231 98.9244 49.3118Z" fill="#15252B"/>
<path d="M84.8541 15.0623C85.7686 17.982 86.7911 20.7396 87.8704 23.3813C88.9553 26.0231 90.0744 28.6068 91.2388 31.1211C92.3749 33.6817 93.5508 36.1728 94.6812 38.7682C95.8116 41.352 96.9192 43.9937 97.9019 46.8208C96.7829 44.2138 95.6184 41.7112 94.4426 39.2201L90.9321 31.712C89.796 29.1398 88.6599 26.556 87.6204 23.7985C86.5809 21.0409 85.6152 18.1558 84.8541 15.0623Z" fill="#15252B"/>
<path d="M152.457 162.35C153.377 164.018 154.2 165.86 154.996 167.749C155.785 169.649 156.546 171.596 157.211 173.716C156.291 172.048 155.467 170.205 154.672 168.317C153.888 166.405 153.121 164.458 152.457 162.35Z" fill="#15252B"/>
<path d="M141.289 135.643C142.175 137.485 143.027 139.385 143.873 141.297C144.72 143.209 145.538 145.167 146.367 147.102C147.174 149.083 147.992 151.041 148.787 153.046C149.582 155.05 150.366 157.066 151.122 159.14C150.235 157.298 149.383 155.398 148.537 153.486C147.691 151.574 146.873 149.616 146.043 147.681C145.237 145.7 144.413 143.742 143.623 141.737C142.828 139.733 142.039 137.717 141.289 135.643Z" fill="#15252B"/>
<path d="M121.493 88.3353C123.095 91.8923 124.662 95.5073 126.23 99.1454L130.877 110.106L135.449 121.195C136.96 124.914 138.466 128.645 139.937 132.433C138.335 128.876 136.762 125.261 135.199 121.635L130.553 110.674L125.98 99.5857C124.469 95.8549 122.964 92.124 121.493 88.3353Z" fill="#15252B"/>
<path d="M160.284 162.442C161.221 164.25 162.062 166.231 162.874 168.247C163.675 170.286 164.459 172.36 165.135 174.608C164.198 172.801 163.357 170.819 162.545 168.803C161.738 166.764 160.96 164.69 160.284 162.442Z" fill="#15252B"/>
<path d="M149.202 135.805C150.116 137.589 150.985 139.466 151.843 141.367C152.701 143.255 153.524 145.225 154.354 147.16C155.16 149.141 155.973 151.122 156.751 153.15C157.529 155.178 158.302 157.217 159.034 159.326C158.165 157.449 157.33 155.514 156.501 153.579L154.03 147.727L151.599 141.807C150.792 139.825 149.986 137.844 149.202 135.805Z" fill="#15252B"/>
<path d="M143.425 123.419C144.288 124.763 145.066 126.292 145.816 127.868C146.56 129.456 147.282 131.101 147.901 132.92C147.032 131.576 146.259 130.046 145.509 128.471C144.771 126.872 144.05 125.238 143.425 123.419Z" fill="#15252B"/>
<path d="M123.231 130.255L128.025 141.007L132.848 151.713C134.438 155.317 136.04 158.885 137.608 162.547C139.17 166.196 140.715 169.892 142.186 173.704L132.535 152.304C130.945 148.701 129.343 145.121 127.787 141.459C126.224 137.786 124.691 134.079 123.231 130.255Z" fill="#15252B"/>
<path d="M108.683 56.9359C109.564 58.8129 110.405 60.7478 111.24 62.6828C112.08 64.6293 112.887 66.6222 113.711 68.5803C114.511 70.5847 115.324 72.5776 116.108 74.6052C116.892 76.6329 117.67 78.6837 118.414 80.7808C117.533 78.9038 116.693 76.9689 115.858 75.0339C115.023 73.0874 114.21 71.1061 113.387 69.1364C112.591 67.1204 111.773 65.1391 110.99 63.1114C110.206 61.0838 109.427 59.0446 108.683 56.9359Z" fill="#15252B"/>
<path d="M86.5469 3.08185L91.9262 15.7227L97.2715 28.4215C99.0324 32.6969 100.799 36.9491 102.537 41.2709C104.27 45.5927 105.985 49.9376 107.644 54.3752L102.287 41.6996L96.9534 28.9892C95.1981 24.7138 93.4202 20.4616 91.682 16.1514C89.9381 11.8412 88.2169 7.50788 86.5469 3.08185Z" fill="#15252B"/>
<path d="M79.5088 3.00067C80.1734 4.10139 80.7471 5.3759 81.2868 6.68517C81.8207 8.01762 82.332 9.38482 82.7409 10.9258C82.0707 9.82511 81.5026 8.5506 80.963 7.24132C80.4233 5.90888 79.9178 4.54167 79.5088 3.00067Z" fill="#15252B"/>
<path d="M127.741 84.1177C129.082 87.1417 130.394 90.2353 131.695 93.3289C132.995 96.4225 134.268 99.574 135.557 102.691C136.818 105.854 138.096 108.994 139.346 112.18C140.596 115.366 141.84 118.564 143.044 121.82C141.698 118.796 140.391 115.702 139.091 112.609C137.79 109.515 136.517 106.364 135.228 103.247C133.967 100.084 132.689 96.9439 131.439 93.7576C130.189 90.5713 128.945 87.3851 127.741 84.1177Z" fill="#15252B"/>
<path d="M116.738 57.017C117.573 58.8013 118.38 60.6436 119.175 62.4974C119.97 64.3513 120.737 66.2515 121.521 68.1285C122.277 70.0518 123.049 71.9404 123.793 73.8869C124.537 75.8335 125.276 77.78 125.98 79.796C125.14 78.0117 124.339 76.1695 123.543 74.3156C122.748 72.4618 121.976 70.5616 121.197 68.6846C120.442 66.7613 119.669 64.8727 118.925 62.9261C118.181 60.9796 117.443 59.0331 116.738 57.017Z" fill="#15252B"/>
<path d="M94.5618 2.72284C96.3852 6.91715 98.1746 11.1578 99.9639 15.4216L105.275 28.271L110.512 41.2479C112.245 45.5928 113.972 49.9493 115.659 54.3754C113.835 50.1927 112.04 45.9404 110.257 41.6766L104.946 28.8272L99.7083 15.8503C97.9814 11.4938 96.2546 7.13729 94.5618 2.72284Z" fill="#15252B"/>
<path d="M84.3485 48.9527L88.4725 58.7317L92.5624 68.5686L100.691 88.3236L108.74 108.218L112.739 118.205L116.704 128.262L112.58 118.483L108.49 108.646L100.362 88.8797L92.3124 68.9973L88.3134 58.9982L84.3485 48.9527Z" fill="#15252B"/>
<path d="M65.1431 2.21289L69.926 13.0115C71.5165 16.6149 73.0786 20.2646 74.6464 23.926C76.1858 27.622 77.7252 31.3181 79.2077 35.1301C80.6846 38.9305 82.1275 42.8003 83.468 46.8093C81.9798 43.0205 80.4802 39.2665 78.9521 35.5588C77.4241 31.8511 75.8904 28.155 74.3226 24.5053L69.676 13.4634C68.1423 9.7441 66.6143 6.03643 65.1431 2.21289Z" fill="#15252B"/>
<path d="M176.235 162.048C177.189 163.844 178.041 165.814 178.87 167.819C179.688 169.846 180.484 171.909 181.177 174.145C180.222 172.349 179.37 170.379 178.541 168.375C177.723 166.347 176.928 164.285 176.235 162.048Z" fill="#15252B"/>
<path d="M158.739 119.155C160.193 122.434 161.608 125.771 163.016 129.12C164.431 132.468 165.811 135.863 167.209 139.235L171.327 149.477C172.684 152.918 174.036 156.359 175.354 159.87C173.9 156.591 172.486 153.254 171.077 149.906L166.885 139.791C165.516 136.373 164.124 132.989 162.766 129.548C161.409 126.119 160.057 122.666 158.739 119.155Z" fill="#15252B"/>
<path d="M172.008 134.982C173.429 138.18 174.809 141.436 176.184 144.692C177.558 147.959 178.91 151.261 180.273 154.552L184.284 164.539C185.607 167.888 186.925 171.26 188.209 174.678C186.789 171.48 185.409 168.236 184.034 164.968L179.944 155.108C178.609 151.771 177.257 148.469 175.934 145.12C174.61 141.772 173.292 138.4 172.008 134.982Z" fill="#15252B"/>
<path d="M177.359 131.564C178.927 135.122 180.455 138.736 181.978 142.363L186.511 153.312L190.97 164.389C192.441 168.108 193.906 171.827 195.338 175.616C193.77 172.059 192.242 168.444 190.72 164.818L186.187 153.868L181.728 142.792C180.256 139.072 178.791 135.353 177.359 131.564Z" fill="#15252B"/>
<path d="M167.76 108.044C168.572 109.759 169.356 111.543 170.128 113.327C170.907 115.112 171.656 116.931 172.406 118.761C173.15 120.604 173.894 122.434 174.61 124.323C175.332 126.2 176.047 128.088 176.723 130.035C175.905 128.32 175.127 126.536 174.355 124.752C173.576 122.967 172.826 121.148 172.077 119.317C171.333 117.475 170.588 115.645 169.873 113.756C169.157 111.879 168.441 109.99 167.76 108.044Z" fill="#15252B"/>
<path d="M133.353 56.9475C135.245 61.3735 137.091 65.8807 138.926 70.3994L144.407 84.0019C146.214 88.567 148.054 93.0858 149.889 97.6045C151.724 102.123 153.581 106.607 155.444 111.08C153.451 106.839 151.531 102.459 149.639 98.0332C147.747 93.5956 145.913 89.0768 144.078 84.5581C142.272 79.993 140.454 75.428 138.676 70.8281C136.892 66.2051 135.114 61.5937 133.353 56.9475Z" fill="#15252B"/>
<path d="M122.788 31.0516C123.651 32.8823 124.475 34.7825 125.299 36.6827C126.122 38.5828 126.912 40.541 127.718 42.4643C128.502 44.434 129.298 46.3805 130.064 48.3734C130.831 50.3663 131.598 52.3708 132.32 54.4332C131.456 52.6025 130.632 50.7023 129.809 48.8021C128.991 46.9019 128.196 44.9438 127.389 43.0205C126.611 41.0508 125.81 39.1042 125.043 37.1114C124.282 35.1069 123.515 33.114 122.788 31.0516Z" fill="#15252B"/>
<path d="M126.929 25.525L129.593 32.1524L132.285 38.722C134.08 43.1017 135.887 47.4582 137.704 51.8031L148.639 77.8032C152.269 86.493 155.91 95.1829 159.466 104C161.244 108.415 163.005 112.852 164.755 117.313L167.345 124.056L169.901 130.846L167.26 124.184L164.59 117.568C162.806 113.165 161.017 108.774 159.21 104.417C155.598 95.6927 151.968 87.0144 148.31 78.3593C144.68 69.6695 141.028 61.0028 137.449 52.2202C135.66 47.8289 133.882 43.4145 132.121 38.9769L129.508 32.2683L126.929 25.525Z" fill="#15252B"/>
<path d="M117.624 2.73413C118.391 4.33307 119.118 5.98993 119.845 7.65839C120.573 9.31525 121.277 11.0185 121.976 12.7333C122.669 14.4481 123.362 16.1744 124.032 17.9356C124.702 19.6967 125.372 21.4579 126.003 23.2885C125.236 21.6896 124.509 20.0327 123.782 18.3643C123.055 16.7074 122.35 15.0042 121.652 13.2894C120.959 11.5746 120.266 9.84823 119.595 8.08708C118.925 6.32594 118.255 4.5648 117.624 2.73413Z" fill="#15252B"/>
<path d="M136.267 84.2684C137.171 86.1917 138.04 88.173 138.914 90.1427L141.522 96.075L144.112 102.03C144.975 104.023 145.845 106.005 146.691 108.021C145.714 106.248 144.788 104.382 143.873 102.482C142.959 100.582 142.084 98.6124 141.204 96.6427C140.352 94.6267 139.494 92.6338 138.67 90.5598C137.841 88.5206 137.034 86.4235 136.267 84.2684Z" fill="#15252B"/>
<path d="M125.441 57.3298C126.281 59.1373 127.082 61.0028 127.883 62.8913C128.684 64.7684 129.451 66.6917 130.235 68.5919C130.996 70.5384 131.769 72.4618 132.513 74.4199C133.257 76.3896 133.995 78.3593 134.7 80.3985C133.859 78.591 133.058 76.7256 132.257 74.837C131.462 72.96 130.689 71.0366 129.905 69.1365C129.15 67.1899 128.372 65.2666 127.628 63.3085C126.883 61.3388 126.145 59.3575 125.441 57.3298Z" fill="#15252B"/>
<path d="M112.751 25.9419C113.779 28.2128 114.773 30.5533 115.767 32.8938C116.755 35.2343 117.715 37.6327 118.692 39.9963C119.641 42.4063 120.607 44.7931 121.544 47.2263C122.481 49.6594 123.413 52.1042 124.304 54.6069C123.271 52.3359 122.277 49.9954 121.288 47.6434C120.3 45.3029 119.34 42.9045 118.363 40.5409C117.414 38.1309 116.448 35.7441 115.511 33.3109C114.58 30.8893 113.648 28.4446 112.751 25.9419Z" fill="#15252B"/>
<path d="M103.19 3.08185C103.946 4.61126 104.667 6.19861 105.377 7.78596C106.093 9.37331 106.786 11.007 107.479 12.6407C108.166 14.286 108.848 15.9428 109.507 17.6345C110.172 19.3261 110.825 21.0177 111.45 22.7789C110.694 21.2495 109.973 19.6621 109.263 18.0748C108.547 16.4874 107.854 14.8537 107.161 13.22C106.479 11.5747 105.792 9.91787 105.133 8.22625C104.469 6.54621 103.81 4.84299 103.19 3.08185Z" fill="#15252B"/>
<path d="M134.007 25.6873C135.092 28.1783 136.142 30.7158 137.199 33.2416L140.352 40.854C141.391 43.4146 142.453 45.9288 143.51 48.4547L146.691 56.0323C145.504 53.7381 144.373 51.3397 143.266 48.9066C142.158 46.4618 141.096 43.9475 140.028 41.4217C138.988 38.8611 137.949 36.3005 136.949 33.6703C135.938 31.0518 134.95 28.3985 134.007 25.6873Z" fill="#15252B"/>
<path d="M125.111 3.08185C125.821 4.59968 126.491 6.17544 127.162 7.7512C127.832 9.32696 128.48 10.9491 129.127 12.5712C129.763 14.2049 130.405 15.8386 131.013 17.5186C131.627 19.1871 132.24 20.8671 132.808 22.6167C132.098 21.0988 131.422 19.5231 130.757 17.9473C130.087 16.3715 129.44 14.7494 128.798 13.1273C128.161 11.4936 127.525 9.85994 126.912 8.1799C126.293 6.51144 125.685 4.83141 125.111 3.08185Z" fill="#15252B"/>
<path d="M147.674 58.8013C149.418 62.787 151.122 66.8423 152.82 70.8976L157.881 83.1445L162.869 95.5188C164.516 99.6668 166.158 103.826 167.765 108.044C166.021 104.058 164.317 100.003 162.619 95.9475L157.558 83.7006L152.576 71.3263C150.923 67.1783 149.281 63.0187 147.674 58.8013Z" fill="#15252B"/>
<path d="M111.274 2.8269C112.006 4.34473 112.705 5.93208 113.398 7.51943C114.097 9.10678 114.767 10.7289 115.437 12.3626C116.102 14.0079 116.761 15.6416 117.403 17.3332C118.045 19.0132 118.681 20.7049 119.277 22.4544C118.545 20.9366 117.846 19.3492 117.153 17.7619C116.454 16.1745 115.784 14.5524 115.114 12.9187C114.449 11.2734 113.79 9.63976 113.148 7.94813C112.512 6.26809 111.876 4.57646 111.274 2.8269Z" fill="#15252B"/>
<path d="M168.782 163.149C169.714 164.794 170.549 166.602 171.355 168.456C172.156 170.321 172.929 172.245 173.61 174.33C172.679 172.696 171.844 170.889 171.037 169.023C170.236 167.146 169.464 165.235 168.782 163.149Z" fill="#15252B"/>
<path d="M157.87 136.199C158.739 138.076 159.574 140.011 160.403 141.958C161.233 143.904 162.034 145.897 162.846 147.867C163.636 149.883 164.436 151.864 165.215 153.903C165.993 155.942 166.76 157.982 167.498 160.09C166.629 158.213 165.794 156.278 164.965 154.332C164.135 152.385 163.334 150.393 162.516 148.423C161.727 146.407 160.92 144.425 160.148 142.386C159.375 140.347 158.603 138.296 157.87 136.199Z" fill="#15252B"/>
<path d="M146.685 108.044C147.583 110.014 148.446 112.053 149.304 114.104C150.162 116.143 150.991 118.24 151.837 120.314C152.655 122.423 153.49 124.508 154.291 126.652C155.098 128.784 155.893 130.927 156.654 133.129C155.757 131.147 154.893 129.12 154.036 127.069C153.178 125.018 152.349 122.932 151.508 120.858C150.69 118.75 149.855 116.664 149.054 114.532C148.247 112.389 147.446 110.245 146.685 108.044Z" fill="#15252B"/>
<path d="M200.274 153.509C201.166 155.224 201.961 157.101 202.728 159.024C203.489 160.959 204.222 162.941 204.853 165.084C203.955 163.369 203.165 161.492 202.399 159.569C201.637 157.623 200.91 155.653 200.274 153.509Z" fill="#15252B"/>
<path d="M191.322 131.507C192.032 132.966 192.702 134.473 193.367 136.002C194.037 137.52 194.679 139.084 195.327 140.648C195.963 142.224 196.599 143.8 197.207 145.422C197.82 147.032 198.428 148.655 199.002 150.346C198.292 148.886 197.621 147.38 196.957 145.851C196.287 144.333 195.645 142.769 194.997 141.204C194.361 139.629 193.725 138.053 193.117 136.431C192.503 134.82 191.896 133.187 191.322 131.507Z" fill="#15252B"/>
<path d="M179.802 102.343C180.728 104.406 181.614 106.526 182.495 108.658C183.375 110.79 184.227 112.956 185.096 115.112C185.937 117.301 186.795 119.468 187.624 121.693C188.453 123.906 189.277 126.13 190.061 128.424C189.135 126.362 188.249 124.253 187.368 122.121C186.488 119.989 185.63 117.811 184.767 115.668C183.926 113.466 183.068 111.3 182.239 109.087C181.41 106.85 180.586 104.626 179.802 102.343Z" fill="#15252B"/>
<path d="M158.739 49.0919C160.489 53.2399 162.21 57.4458 163.92 61.6517L169.009 74.362L174.025 87.1999C175.684 91.4984 177.337 95.8086 178.95 100.177C177.195 96.0288 175.479 91.8229 173.769 87.617L168.68 74.9066L163.67 62.0688C162.005 57.7702 160.352 53.46 158.739 49.0919Z" fill="#15252B"/>
<path d="M198.462 131.958C199.059 133.152 199.627 134.392 200.183 135.655C200.746 136.906 201.28 138.204 201.814 139.501C202.342 140.811 202.87 142.12 203.37 143.475C203.876 144.819 204.375 146.175 204.836 147.6C204.233 146.407 203.671 145.167 203.114 143.904C202.552 142.653 202.018 141.355 201.484 140.057C200.956 138.748 200.428 137.439 199.928 136.083C199.428 134.728 198.928 133.372 198.462 131.958Z" fill="#15252B"/>
<path d="M186.868 102.552C187.8 104.637 188.692 106.769 189.578 108.913C190.464 111.056 191.322 113.246 192.197 115.413C193.043 117.626 193.906 119.804 194.736 122.04C195.571 124.277 196.4 126.513 197.19 128.818C196.264 126.744 195.366 124.601 194.48 122.457C193.594 120.314 192.736 118.113 191.861 115.946C191.015 113.733 190.152 111.543 189.317 109.307C188.487 107.094 187.658 104.846 186.868 102.552Z" fill="#15252B"/>
<path d="M172.008 64.9075C173.23 67.7114 174.417 70.5848 175.593 73.4583C176.774 76.3317 177.922 79.2631 179.092 82.1597C180.234 85.1027 181.387 88.0225 182.512 90.9886C183.636 93.9548 184.761 96.9209 185.84 99.9566C184.619 97.1527 183.432 94.2792 182.256 91.4058C181.074 88.5323 179.927 85.6009 178.757 82.7043C177.615 79.7613 176.462 76.8415 175.337 73.8754C174.218 70.9209 173.093 67.9431 172.008 64.9075Z" fill="#15252B"/>
<path d="M194.19 102.737C195.133 104.776 196.042 106.862 196.945 108.971C197.849 111.079 198.723 113.223 199.615 115.355C200.479 117.522 201.359 119.677 202.211 121.866C203.063 124.056 203.91 126.258 204.716 128.529C203.773 126.489 202.864 124.404 201.961 122.295C201.058 120.186 200.183 118.043 199.291 115.911C198.428 113.733 197.548 111.589 196.701 109.399C195.843 107.21 194.997 105.008 194.19 102.737Z" fill="#15252B"/>
<path d="M179.632 67.0624C180.802 69.6462 181.938 72.2995 183.063 74.9528C184.193 77.6061 185.295 80.3174 186.408 82.9939C187.499 85.7167 188.601 88.4163 189.68 91.1623C190.754 93.9083 191.827 96.6659 192.861 99.4814C191.691 96.8976 190.555 94.2443 189.425 91.591C188.294 88.9377 187.192 86.2265 186.079 83.55C184.988 80.8272 183.886 78.1275 182.807 75.3815C181.739 72.6355 180.671 69.8895 179.632 67.0624Z" fill="#15252B"/>
<path d="M168.947 40.877C169.822 42.7424 170.662 44.6658 171.497 46.6007C172.332 48.5357 173.139 50.517 173.957 52.4751C174.752 54.4795 175.559 56.4492 176.343 58.4769C177.127 60.5045 177.899 62.5322 178.638 64.6293C177.763 62.7639 176.922 60.8405 176.087 58.9056C175.252 56.9706 174.445 54.9893 173.627 53.0312C172.832 51.0268 172.026 49.0571 171.242 47.0294C170.463 45.0018 169.685 42.9742 168.947 40.877Z" fill="#15252B"/>
<path d="M139.483 1.88837C140.88 5.0283 142.243 8.23776 143.595 11.4588C144.953 14.6683 146.282 17.9356 147.623 21.1683L151.576 31.0168C152.877 34.3189 154.178 37.6327 155.439 41.0043C154.041 37.8644 152.678 34.6549 151.321 31.4339L147.293 21.7128C145.975 18.4339 144.646 15.1781 143.34 11.8643C142.044 8.58535 140.744 5.27162 139.483 1.88837Z" fill="#15252B"/>
<path d="M146.117 1.76099L149.168 9.01412L152.19 16.3136L158.171 30.9937L164.079 45.8128L167.004 53.2629L169.895 60.7825L166.845 53.541L163.823 46.2415L157.842 31.5498L151.934 16.7307L149.009 9.28061L146.117 1.76099Z" fill="#15252B"/>
<path d="M142.016 25.7799C142.982 27.4831 143.834 29.4065 144.629 31.4341C145.407 33.4733 146.134 35.6284 146.685 37.9689C145.85 35.9992 145.078 33.9831 144.294 31.9671C143.521 29.9395 142.732 27.935 142.016 25.7799Z" fill="#15252B"/>
<path d="M132.081 3.12811L134.285 8.12188L136.512 13.0577C137.25 14.7146 138 16.3483 138.727 18.0283C139.454 19.7084 140.181 21.4 140.863 23.1611C140.051 21.6317 139.272 20.0676 138.488 18.4802C137.705 16.9044 136.949 15.2823 136.199 13.6371C135.461 11.9802 134.728 10.3001 134.035 8.55059C133.348 6.81261 132.677 5.01671 132.081 3.12811Z" fill="#15252B"/>
<path d="M152.996 1.77264C154.376 4.51864 155.683 7.41526 156.95 10.3698C158.222 13.3244 159.438 16.3716 160.659 19.4073L164.232 28.6649L167.765 37.9804C166.459 35.0954 165.209 32.1061 163.976 29.082C162.744 26.0695 161.551 22.9875 160.33 19.9518C159.137 16.8698 157.921 13.8342 156.705 10.7985C155.484 7.76286 154.246 4.76196 152.996 1.77264Z" fill="#15252B"/>
<path d="M202.779 103.224C203.285 103.931 203.694 104.811 204.08 105.727C204.455 106.665 204.807 107.638 205.051 108.785C204.54 108.079 204.137 107.198 203.751 106.283C203.381 105.344 203.029 104.371 202.779 103.224Z" fill="#15252B"/>
<path d="M187.862 67.3636C189.061 69.9706 190.231 72.6355 191.39 75.3236C192.549 78 193.685 80.7345 194.832 83.4341C195.957 86.1801 197.093 88.9029 198.201 91.6721C199.308 94.4413 200.41 97.222 201.478 100.061C200.274 97.4537 199.11 94.7889 197.951 92.1008C196.792 89.4243 195.656 86.7015 194.509 83.9903C193.389 81.2443 192.253 78.5214 191.14 75.7523C190.032 72.9831 188.93 70.2023 187.862 67.3636Z" fill="#15252B"/>
<path d="M161.017 1.22815L164.317 9.02586L167.578 16.8815L174.059 32.6855L180.461 48.6053L183.636 56.6231L186.772 64.6873L183.471 56.8896L180.205 49.034L173.73 33.23L167.328 17.2986L164.152 9.29235L161.017 1.22815Z" fill="#15252B"/>
<path d="M184.806 131.321C186.38 134.901 187.914 138.54 189.447 142.189L193.997 153.208L198.473 164.354C199.95 168.097 201.427 171.839 202.859 175.651C201.285 172.071 199.752 168.433 198.218 164.783L193.668 153.764L189.192 142.618C187.715 138.876 186.244 135.133 184.806 131.321Z" fill="#15252B"/>
<path d="M173.054 102.598C174.031 104.695 174.968 106.862 175.9 109.04C176.837 111.207 177.74 113.432 178.66 115.633C179.558 117.869 180.467 120.082 181.347 122.353C182.228 124.613 183.102 126.884 183.943 129.224C182.966 127.127 182.029 124.96 181.097 122.782C180.166 120.604 179.257 118.391 178.336 116.189C177.445 113.953 176.53 111.74 175.65 109.469C174.769 107.21 173.894 104.939 173.054 102.598Z" fill="#15252B"/>
<path d="M146.685 37.969C147.719 40.5875 148.759 43.1829 149.809 45.7667L152.962 53.5181C155.075 58.6625 157.194 63.7953 159.335 68.8933L165.703 84.2802L168.856 92.0315L171.946 99.8872L165.453 84.7089L159.012 69.4495C156.893 64.3051 154.774 59.1723 152.712 53.9352C151.684 51.3166 150.662 48.6749 149.65 46.0332C148.651 43.3567 147.662 40.6686 146.685 37.969Z" fill="#15252B"/>
<path d="M203.609 67.6881C203.938 67.885 204.176 68.2788 204.398 68.719C204.608 69.1707 204.79 69.6688 204.881 70.3522C204.546 70.1437 204.307 69.7614 204.091 69.3213C203.887 68.8696 203.705 68.3715 203.609 67.6881Z" fill="#15252B"/>
<path d="M189.47 33.0213C190.623 35.5703 191.748 38.1889 192.861 40.8074C193.975 43.426 195.06 46.1024 196.162 48.7442C197.235 51.4322 198.326 54.0971 199.388 56.8084C200.45 59.5196 201.507 62.2424 202.524 65.0232C201.365 62.4741 200.246 59.8556 199.132 57.237C198.019 54.6185 196.934 51.942 195.832 49.3003C194.759 46.6122 193.668 43.9474 192.606 41.2361C191.543 38.5249 190.487 35.8021 189.47 33.0213Z" fill="#15252B"/>
<path d="M198.491 21.9099C199.433 23.6826 200.274 25.6292 201.092 27.6105C201.899 29.6149 202.683 31.6541 203.364 33.8672C202.421 32.0944 201.581 30.1479 200.763 28.1666C199.956 26.1622 199.178 24.1229 198.491 21.9099Z" fill="#15252B"/>
<path d="M176.53 1.3092C177.399 3.16304 178.234 5.07481 179.064 7.00975C179.893 8.93311 180.694 10.9028 181.512 12.8493C182.301 14.8422 183.108 16.8119 183.886 18.8164C184.664 20.8324 185.437 22.8485 186.17 24.934C185.301 23.0802 184.466 21.1684 183.631 19.2335C182.801 17.3101 182 15.3404 181.182 13.3939C180.393 11.401 179.586 9.43132 178.808 7.41528C178.035 5.4224 177.263 3.39477 176.53 1.3092Z" fill="#15252B"/>
<path d="M182.864 1.17023C184.426 4.65776 185.926 8.26115 187.408 11.8877C188.896 15.5143 190.339 19.1988 191.81 22.837C193.253 26.5215 194.719 30.1712 196.184 33.8325C197.65 37.4823 199.132 41.1088 200.621 44.7238C198.996 41.3522 197.451 37.8299 195.934 34.2612C194.418 30.6926 192.952 27.0313 191.481 23.3815L187.158 12.3048L182.864 1.17023Z" fill="#15252B"/>
<path d="M168.578 0.787842C169.378 2.43312 170.151 4.13633 170.912 5.85113C171.679 7.55435 172.417 9.31549 173.156 11.0651C173.889 12.8262 174.621 14.5989 175.326 16.4064C176.036 18.2139 176.74 20.0214 177.411 21.91C176.61 20.2647 175.843 18.5615 175.076 16.8467C174.309 15.1319 173.571 13.3823 172.832 11.6328C172.099 9.86006 171.367 8.09891 170.662 6.27983C169.952 4.48393 169.248 2.66485 168.578 0.787842Z" fill="#15252B"/>
<path d="M189.555 0C190.226 1.3672 190.862 2.79234 191.492 4.21748C192.123 5.64262 192.731 7.1141 193.338 8.58558C193.941 10.0687 194.537 11.5517 195.111 13.0811C195.69 14.599 196.258 16.14 196.792 17.7273C196.122 16.3601 195.486 14.935 194.855 13.5098C194.225 12.0847 193.617 10.6132 193.009 9.14173C192.413 7.65866 191.81 6.17559 191.237 4.64618C190.657 3.12835 190.089 1.59893 189.555 0Z" fill="#15252B"/>
<path d="M195.98 67.4216C196.883 69.3565 197.746 71.3494 198.61 73.3539C199.473 75.3583 200.303 77.4091 201.155 79.4252C201.978 81.4991 202.813 83.5384 203.62 85.6239C204.426 87.7211 205.233 89.8182 206 91.9733C205.097 90.0384 204.228 88.0455 203.37 86.0526C202.507 84.0482 201.677 81.9974 200.825 79.9813C200.001 77.9073 199.166 75.8681 198.36 73.771C197.553 71.6854 196.752 69.5767 195.98 67.4216Z" fill="#15252B"/>
<path d="M177.416 21.9099C178.939 25.3627 180.432 28.885 181.915 32.4189L186.329 43.0668L190.663 53.8538C192.094 57.4688 193.52 61.0954 194.912 64.7915C193.384 61.3387 191.896 57.8164 190.413 54.2825L186.005 43.623L181.671 32.836C180.228 29.221 178.802 25.5944 177.416 21.9099Z" fill="#15252B"/>
<path d="M197.241 0.440369C197.922 1.83075 198.564 3.27905 199.201 4.72736C199.842 6.17567 200.456 7.67033 201.069 9.16499C201.677 10.6712 202.285 12.1775 202.864 13.7301C203.449 15.2711 204.029 16.8237 204.568 18.4458C203.893 17.067 203.251 15.6187 202.609 14.1588C201.967 12.7104 201.353 11.2158 200.74 9.72114C200.132 8.2149 199.524 6.70866 198.945 5.15607C198.366 3.60348 197.786 2.05089 197.241 0.440369Z" fill="#15252B"/>
</g>
</svg>
