<svg width="205" height="176" viewBox="0 0 205 176" fill="none" xmlns="http://www.w3.org/2000/svg">
<g opacity="0.2">
<path d="M43.1426 162.512C43.8242 163.647 44.4036 164.945 44.9603 166.278C45.5056 167.633 46.0282 169.035 46.4486 170.599C45.7669 169.464 45.1875 168.166 44.6308 166.834C44.0855 165.478 43.5629 164.076 43.1426 162.512Z" fill="#15252B"/>
<path d="M34.6959 141.795C35.3548 143.139 35.9797 144.53 36.5989 145.943C37.2237 147.345 37.8201 148.794 38.4166 150.242C39.0073 151.702 39.5924 153.162 40.1605 154.668C40.7285 156.163 41.2909 157.669 41.8135 159.245C41.1545 157.912 40.5297 156.51 39.9105 155.097C39.2857 153.695 38.6892 152.246 38.0928 150.798C37.502 149.338 36.917 147.878 36.3546 146.372C35.7809 144.877 35.2185 143.371 34.6959 141.795Z" fill="#15252B"/>
<path d="M39.9161 139.768L43.0063 147.403C44.0458 149.929 45.0796 152.466 46.1362 154.969L49.2604 162.547C50.2942 165.096 51.3224 167.645 52.3051 170.275C51.1861 167.876 50.0954 165.443 49.0105 162.987C47.9255 160.53 46.869 158.028 45.8067 155.525C44.7729 152.976 43.7334 150.439 42.745 147.82C41.7623 145.202 40.8023 142.537 39.9161 139.768Z" fill="#15252B"/>
<path d="M26.9933 107.267C28.1691 109.353 29.2711 111.612 30.3334 113.941C31.3956 116.282 32.3897 118.726 33.3724 121.194C34.3267 123.709 35.2753 126.234 36.1785 128.818C37.0817 131.402 37.9678 134.021 38.8142 136.685C37.8258 134.229 36.8715 131.715 35.9172 129.212C34.9629 126.71 34.0199 124.184 33.0429 121.727C32.0886 119.225 31.1002 116.791 30.0948 114.37C29.0837 111.96 28.0442 109.608 26.9933 107.267Z" fill="#15252B"/>
<path d="M35.2922 162.767C35.9739 163.821 36.559 165.038 37.1213 166.312C37.6723 167.598 38.2006 168.919 38.6323 170.437C37.9507 169.394 37.3656 168.166 36.8032 166.892C36.2465 165.605 35.7183 164.273 35.2922 162.767Z" fill="#15252B"/>
<path d="M25.9935 139.976C26.6922 141.425 27.3625 142.942 28.0214 144.46C28.686 145.978 29.3222 147.531 29.9585 149.083C30.589 150.647 31.2138 152.223 31.8216 153.834C32.4294 155.444 33.0316 157.055 33.5939 158.746C32.8952 157.298 32.2306 155.792 31.5717 154.274C30.9071 152.756 30.2709 151.204 29.6347 149.639C29.0041 148.064 28.3736 146.5 27.7715 144.877C27.158 143.278 26.5559 141.656 25.9935 139.976Z" fill="#15252B"/>
<path d="M0.562317 75.7755C1.56775 78.3245 2.58454 80.8504 3.60133 83.3763L6.65739 90.9538L12.7979 106.051C14.8258 111.114 16.8764 116.154 18.8759 121.264L21.8525 128.969L24.7495 136.802L21.6877 129.236L18.6203 121.681L12.4684 106.596C10.4405 101.532 8.39559 96.4921 6.40177 91.3593L3.4366 83.6311C2.47093 81.0358 1.51094 78.4172 0.562317 75.7755Z" fill="#15252B"/>
<path d="M32.0715 101.799C33.219 104.429 34.3607 107.082 35.4911 109.747L38.8255 117.846C41.0295 123.268 43.1881 128.784 45.3637 134.252C47.5165 139.768 49.6921 145.225 51.8905 150.67C52.9868 153.393 54.0945 156.093 55.2135 158.781C56.3269 161.481 57.4516 164.146 58.5933 166.799C57.4004 164.25 56.2246 161.666 55.0544 159.071C53.9013 156.441 52.7652 153.787 51.6405 151.111C49.3911 145.758 47.2155 140.277 45.0342 134.809L38.5699 118.275L35.3321 110.025C34.2528 107.256 33.1679 104.521 32.0715 101.799Z" fill="#15252B"/>
<path d="M0.062439 23.7755L4.01032 33.0446L7.92412 42.3717L15.7006 61.1071C18.2624 67.3986 20.8527 73.6553 23.3918 79.9931L27.1977 89.5056L30.9695 99.076L27.0387 89.7836L23.1419 80.4218L15.3711 61.6632L7.67418 42.8005L3.85127 33.3227L0.062439 23.7755Z" fill="#15252B"/>
<path d="M0 41.1088L12.2413 69.8317C14.2521 74.6748 16.2687 79.5064 18.2171 84.4538C19.1884 86.9333 20.1484 89.4244 21.1027 91.9387C22.04 94.4761 22.9602 97.0367 23.8691 99.6089C22.9034 97.1178 21.9264 94.6499 20.938 92.2052C19.9553 89.7488 18.9669 87.3041 17.9671 84.8825C15.9676 80.0278 13.9567 75.1846 11.9232 70.3994C9.9123 65.5562 7.87304 60.771 5.87922 55.9047L2.90269 48.5705C1.92566 46.1025 0.959988 43.6114 0 41.1088Z" fill="#15252B"/>
<path d="M18.2625 101.521C19.4043 104.047 20.5176 106.63 21.6196 109.226C22.7216 111.821 23.8009 114.463 24.8915 117.081C25.9538 119.746 27.0331 122.376 28.0839 125.065C29.1348 127.753 30.18 130.441 31.1911 133.198C30.0437 130.672 28.936 128.089 27.834 125.493C26.732 122.898 25.6527 120.256 24.5678 117.638C23.5055 114.973 22.4262 112.343 21.3754 109.655C20.3131 106.966 19.2679 104.278 18.2625 101.521Z" fill="#15252B"/>
<path d="M0.567993 58.1523C2.0165 61.4197 3.43092 64.7566 4.83966 68.1051C6.2484 71.442 7.62873 74.8368 9.02611 78.1969L13.133 88.4278C14.4907 91.8574 15.8369 95.2985 17.1548 98.8093C15.7063 95.5419 14.2918 92.205 12.8831 88.8565L8.69665 78.753C7.32767 75.3466 5.94166 71.9634 4.58972 68.5222C3.2321 65.0926 1.88017 61.6514 0.567993 58.1523Z" fill="#15252B"/>
<path d="M70.6415 159.835C71.6015 161.573 72.4649 163.497 73.2999 165.455C74.1292 167.436 74.9359 169.452 75.6402 171.642C74.6802 169.893 73.8168 167.981 72.9818 166.023C72.1525 164.053 71.3515 162.037 70.6415 159.835Z" fill="#15252B"/>
<path d="M80.8491 151.621C81.4342 152.779 81.9852 153.984 82.5248 155.212C83.0702 156.429 83.5928 157.692 84.1154 158.955C84.6266 160.229 85.1435 161.504 85.632 162.825C86.1205 164.134 86.609 165.455 87.0578 166.845C86.4727 165.698 85.9217 164.482 85.3821 163.253C84.8368 162.037 84.3142 160.774 83.7916 159.511C83.2803 158.236 82.7634 156.962 82.2749 155.641C81.7864 154.332 81.2979 153.011 80.8491 151.621Z" fill="#15252B"/>
<path d="M46.744 101.266C48.7549 104.916 50.5953 108.936 52.3506 113.084C54.1058 117.244 55.7588 121.577 57.4061 125.91L62.2799 139.003C63.9159 143.348 65.5859 147.623 67.3468 151.771C65.4553 147.867 63.7171 143.684 62.0243 139.42C60.3315 135.156 58.7183 130.777 57.071 126.443C55.4521 122.075 53.8048 117.753 52.1063 113.524C50.4022 109.284 48.6299 105.171 46.744 101.266Z" fill="#15252B"/>
<path d="M35.9854 74.8949C36.8772 76.8067 37.7349 78.7764 38.587 80.7461C39.439 82.7274 40.2627 84.755 41.1034 86.7479C41.9157 88.7871 42.745 90.8147 43.5403 92.8771C44.3412 94.9511 45.1308 97.0251 45.892 99.157C45.0001 97.2452 44.1424 95.2755 43.2903 93.3058C42.4383 91.3245 41.6146 89.2969 40.7739 87.304C39.9616 85.2532 39.1323 83.2372 38.337 81.1748C37.5361 79.1124 36.7465 77.0384 35.9854 74.8949Z" fill="#15252B"/>
<path d="M42.8246 74.7327L47.4655 86.2149L52.0325 97.8246L61.1098 121.125C64.1318 128.9 67.1935 136.593 70.3064 144.217L72.6524 149.917L75.0268 155.572L77.4182 161.191L79.8438 166.741L77.3387 161.33L74.8677 155.85L72.4479 150.277L70.0564 144.646C66.8925 137.103 63.825 129.398 60.7803 121.658C57.7584 113.883 54.7591 106.074 51.7769 98.2301L42.8246 74.7327Z" fill="#15252B"/>
<path d="M28.6689 40.9002C29.8505 43.2754 30.9866 45.7318 32.1113 48.2229C33.236 50.714 34.3153 53.2746 35.4059 55.812C36.4681 58.4074 37.5417 60.9912 38.5756 63.6329C39.6094 66.2746 40.6319 68.9395 41.6089 71.6739C40.4955 69.1712 39.4106 66.6106 38.3256 64.0616L35.0878 56.3797L31.867 48.6631C30.7991 46.0909 29.7255 43.5188 28.6689 40.9002Z" fill="#15252B"/>
<path d="M39.4163 101.66C41.109 105.414 42.7677 109.237 44.415 113.072C46.0623 116.907 47.6756 120.812 49.2888 124.705C50.8793 128.645 52.4755 132.572 54.0263 136.57C55.577 140.567 57.1107 144.599 58.5876 148.724L48.9593 125.261L44.1594 113.501C42.5689 109.573 40.9727 105.645 39.4163 101.66Z" fill="#15252B"/>
<path d="M14.1612 39.8225L20.1256 54.5721C22.1251 59.4732 24.1133 64.3743 26.1355 69.2406L32.1567 83.8859L35.1616 91.2317L38.1325 98.6239L35.0026 91.5098L31.9068 84.3262C29.8505 79.5294 27.8282 74.6631 25.806 69.7967C23.8122 64.8841 21.8127 59.983 19.87 54.9892L16.9787 47.4696L14.1612 39.8225Z" fill="#15252B"/>
<path d="M0.391907 6.08289C1.53367 8.59715 2.64135 11.1809 3.73767 13.7647C4.83966 16.3485 5.90758 18.9902 6.99821 21.5972C8.06045 24.2505 9.13405 26.8806 10.1849 29.5571C11.2301 32.2336 12.2753 34.9216 13.2807 37.6676C12.139 35.1534 11.0313 32.5696 9.93498 29.9858C8.83299 27.402 7.76507 24.7603 6.67443 22.1533C5.6122 19.5 4.5386 16.8699 3.49341 14.1934C2.44253 11.5169 1.39734 8.82888 0.391907 6.08289Z" fill="#15252B"/>
<path d="M50.0728 75.2542C50.8964 76.8299 51.686 78.4868 52.4585 80.1784C53.2367 81.8584 53.9752 83.5964 54.7023 85.3807C55.418 87.1651 56.1167 88.9841 56.7643 90.8843C57.4175 92.7729 58.0367 94.7079 58.5877 96.7239C57.889 94.9048 57.2073 93.0742 56.503 91.2898C55.7986 89.5055 55.0942 87.7096 54.3728 85.9369L52.2143 80.6303C51.4929 78.846 50.7714 77.0732 50.0728 75.2542Z" fill="#15252B"/>
<path d="M35.6105 40.3903C36.6102 43.1363 37.6327 45.8359 38.6836 48.4776C39.7401 51.1193 40.8024 53.7495 41.91 56.2985C42.9893 58.9055 44.1084 61.4313 45.216 64.0035C46.318 66.5641 47.4314 69.1247 48.4993 71.7549C47.3007 69.3681 46.1306 66.9233 44.9718 64.4554C43.8187 61.9759 42.6996 59.4384 41.5863 56.8778C40.5013 54.2709 39.4277 51.6407 38.428 48.8947C37.4225 46.1487 36.4682 43.3332 35.6105 40.3903Z" fill="#15252B"/>
<path d="M19.3077 1.79596C20.6426 4.66941 21.9377 7.61238 23.2328 10.5553C24.528 13.4983 25.789 16.4992 27.0728 19.4653C28.3282 22.4778 29.5949 25.4671 30.8332 28.5028C32.0715 31.5385 33.3099 34.5857 34.5084 37.7025C33.1735 34.829 31.8784 31.8976 30.5833 28.9431C29.2881 26.0001 28.0271 22.9992 26.7433 20.0331C25.488 17.0206 24.2212 14.0313 22.9772 10.984C21.7446 7.94838 20.5062 4.90114 19.3077 1.79596Z" fill="#15252B"/>
<path d="M13.0024 2.90802C13.9738 5.01676 14.9111 7.18343 15.8426 9.35011C16.7742 11.5284 17.6774 13.753 18.5976 15.9428C19.4895 18.1906 20.3983 20.4036 21.2788 22.663C22.1593 24.9339 23.034 27.2049 23.8691 29.5338C22.8977 27.425 21.9604 25.2583 21.0232 23.0917C20.0916 20.9134 19.1884 18.6888 18.2682 16.499C17.3764 14.2512 16.4675 12.0382 15.587 9.7788C14.7122 7.50785 13.8375 5.2369 13.0024 2.90802Z" fill="#15252B"/>
<path d="M67.4207 118.715C68.5113 121.102 69.5622 123.546 70.6074 126.003C71.6526 128.459 72.675 130.962 73.7089 133.441C74.7143 135.967 75.7368 138.458 76.7308 141.007C77.7249 143.556 78.7133 146.105 79.6676 148.724C78.577 146.337 77.5261 143.892 76.4809 141.436C75.4357 138.98 74.4132 136.477 73.3794 133.997C72.374 131.472 71.3515 128.98 70.3574 126.431C69.3634 123.882 68.375 121.333 67.4207 118.715Z" fill="#15252B"/>
<path d="M59.576 99.4813C60.2066 100.756 60.803 102.077 61.3938 103.421C61.9902 104.753 62.5583 106.132 63.1263 107.511C63.6887 108.901 64.2453 110.292 64.785 111.728C65.3246 113.153 65.8586 114.59 66.3528 116.096C65.7222 114.833 65.1258 113.501 64.535 112.157C63.9386 110.824 63.3706 109.446 62.8025 108.067C62.2402 106.677 61.6835 105.286 61.1495 103.849C60.6042 102.424 60.0759 100.988 59.576 99.4813Z" fill="#15252B"/>
<path d="M21.7502 40.0082C22.6023 41.8157 23.4203 43.6927 24.2326 45.5813C25.0449 47.4583 25.8288 49.3932 26.6297 51.2934C27.4022 53.2399 28.1918 55.1633 28.953 57.133C29.7142 59.1027 30.4697 61.084 31.1854 63.1232C30.3333 61.3157 29.5154 59.4387 28.7031 57.5617C27.8908 55.6847 27.1069 53.7497 26.3059 51.8496C25.5334 49.903 24.7438 47.9797 23.9883 46.01C23.2271 44.0287 22.4717 42.0474 21.7502 40.0082Z" fill="#15252B"/>
<path d="M7.56628 5.237C8.72509 7.79761 9.84981 10.4277 10.9688 13.0579C12.0879 15.688 13.1785 18.3761 14.2862 21.0294C15.3655 23.729 16.4618 26.4055 17.5297 29.1283C18.5976 31.8511 19.6599 34.5856 20.6823 37.3779C19.5235 34.8173 18.3988 32.1872 17.2798 29.557C16.1607 26.9269 15.0701 24.2388 13.9624 21.5855C12.8831 18.8859 11.7868 16.2094 10.7246 13.4866C9.65099 10.7638 8.58876 8.02934 7.56628 5.237Z" fill="#15252B"/>
<path d="M75.4926 118.321C77.1171 122.191 78.7077 126.119 80.2868 130.058L84.9902 141.934L89.6197 153.938C91.1477 157.958 92.6701 161.991 94.1584 166.092C92.5338 162.222 90.9489 158.294 89.3641 154.355L84.6607 142.479L80.0312 130.475C78.5032 126.443 76.9808 122.411 75.4926 118.321Z" fill="#15252B"/>
<path d="M70.6415 106.364C71.4481 107.812 72.1525 109.423 72.8341 111.08C73.5044 112.748 74.152 114.463 74.6973 116.351C73.8907 114.903 73.1863 113.293 72.5047 111.636C71.8344 109.967 71.1868 108.252 70.6415 106.364Z" fill="#15252B"/>
<path d="M57.6106 74.4198C58.4911 76.2968 59.3318 78.2318 60.1725 80.1783C61.0132 82.1248 61.8198 84.1177 62.6434 86.0758C63.4444 88.0918 64.2567 90.0731 65.0406 92.1124C65.8245 94.1516 66.6084 96.1908 67.3468 98.288C66.4663 96.4109 65.6256 94.476 64.7849 92.5295C63.9499 90.5829 63.1376 88.5901 62.314 86.6204C61.5187 84.6043 60.7007 82.623 59.9168 80.5838C59.1329 78.5678 58.3547 76.5285 57.6106 74.4198Z" fill="#15252B"/>
<path d="M34.6959 18.2602C36.4568 22.8369 38.2973 27.2745 40.1889 31.6194C42.0804 35.9643 43.9947 40.2745 45.9147 44.5731C47.812 48.918 49.7149 53.263 51.5156 57.7817C53.3163 62.3004 55.0431 66.9582 56.5712 71.8709C54.9011 67.1552 53.1175 62.6248 51.2657 58.2104C49.4138 53.7959 47.5166 49.4626 45.5966 45.1524C43.705 40.8075 41.7794 36.4973 39.9389 32.0481C38.0985 27.6105 36.3148 23.057 34.6959 18.2602Z" fill="#15252B"/>
<path d="M27.9873 1.81891C28.6519 2.90804 29.2143 4.15938 29.7482 5.45706C30.2765 6.76634 30.7821 8.13354 31.1854 9.65137C30.5208 8.56224 29.9584 7.3109 29.4244 6.01321C28.8962 4.70394 28.3906 3.33674 27.9873 1.81891Z" fill="#15252B"/>
<path d="M58.5876 148.724C59.4056 150.508 60.1838 152.339 60.9564 154.181C61.7289 156.024 62.473 157.912 63.2342 159.778C63.967 161.689 64.7168 163.566 65.4382 165.501C66.1596 167.436 66.8754 169.371 67.5513 171.376C66.7333 169.603 65.9551 167.772 65.1826 165.918C64.4101 164.076 63.6602 162.176 62.8991 160.311C62.1663 158.399 61.4165 156.51 60.6951 154.575C59.985 152.663 59.2693 150.717 58.5876 148.724Z" fill="#15252B"/>
<path d="M1.10767 152.536C1.70979 153.695 2.27783 154.923 2.84019 156.151C3.40823 157.379 3.94787 158.654 4.48751 159.917C5.02146 161.203 5.55542 162.489 6.06098 163.821C6.57221 165.142 7.07777 166.475 7.54356 167.877C6.94144 166.718 6.3734 165.49 5.81104 164.262C5.243 163.033 4.70336 161.759 4.16372 160.496C3.62977 159.21 3.10149 157.924 2.59025 156.591C2.0847 155.259 1.57914 153.926 1.10767 152.536Z" fill="#15252B"/>
<path d="M1.03949 133.928C2.22101 136.547 3.36845 139.223 4.51021 141.9C5.65197 144.588 6.76533 147.322 7.89573 150.022C8.99773 152.768 10.1168 155.502 11.2074 158.271C12.298 161.052 13.383 163.833 14.4282 166.671C13.2467 164.053 12.0992 161.376 10.9518 158.7C9.81003 156.012 8.69667 153.277 7.56627 150.578C6.46427 147.82 5.34523 145.097 4.2546 142.328C3.16964 139.559 2.08468 136.767 1.03949 133.928Z" fill="#15252B"/>
<path d="M19.9722 162.593C20.438 163.196 20.8072 163.972 21.1481 164.794C21.4832 165.629 21.79 166.509 21.9945 167.552C21.5287 166.95 21.1594 166.173 20.8186 165.351C20.4891 164.505 20.1824 163.636 19.9722 162.593Z" fill="#15252B"/>
<path d="M10.3099 138.899C11.071 140.486 11.7981 142.143 12.5196 143.8C13.2466 145.457 13.9453 147.148 14.644 148.852C15.337 150.566 16.0244 152.27 16.6946 154.031C17.3649 155.78 18.0295 157.541 18.6544 159.36C17.8932 157.773 17.1661 156.116 16.4447 154.459C15.7176 152.803 15.0189 151.111 14.3202 149.408C13.6272 147.693 12.9399 145.99 12.2696 144.229C11.5993 142.479 10.9404 140.718 10.3099 138.899Z" fill="#15252B"/>
<path d="M1.06226 116.224C1.82911 117.823 2.5562 119.48 3.28329 121.137C4.01038 122.793 4.71475 124.497 5.41344 126.2C6.10645 127.915 6.79946 129.63 7.46975 131.391C8.14004 133.14 8.80465 134.913 9.43517 136.732C8.66832 135.133 7.94122 133.476 7.21413 131.819C6.48704 130.162 5.78267 128.459 5.08398 126.756C4.39097 125.041 3.69796 123.326 3.02768 121.565C2.35739 119.816 1.6871 118.055 1.06226 116.224Z" fill="#15252B"/>
<path d="M27.743 161.62C28.3338 162.547 28.828 163.636 29.2995 164.771C29.7596 165.918 30.1913 167.112 30.5264 168.479C29.9357 167.552 29.4415 166.463 28.97 165.327C28.5156 164.18 28.0782 162.987 27.743 161.62Z" fill="#15252B"/>
<path d="M18.6431 139.2C19.3986 140.776 20.1143 142.421 20.83 144.066C21.5458 145.711 22.2388 147.392 22.9318 149.083C23.6134 150.786 24.3007 152.478 24.954 154.228C25.6129 155.966 26.2718 157.715 26.891 159.523C26.1355 157.947 25.4198 156.302 24.7041 154.656C23.9883 153.011 23.2953 151.331 22.6023 149.639C21.9207 147.936 21.239 146.244 20.5801 144.495C19.9212 142.757 19.2622 141.007 18.6431 139.2Z" fill="#15252B"/>
<path d="M0.44873 94.3718C1.92563 97.7318 3.36278 101.138 4.79992 104.568L9.06022 114.915L13.2467 125.389C14.627 128.899 16.0074 132.422 17.3422 136.014C15.8653 132.665 14.4282 129.247 12.9911 125.817L8.73076 115.471L4.5443 104.997C3.16396 101.474 1.78931 97.952 0.44873 94.3718Z" fill="#15252B"/>
<path d="M90.7786 118.808L96.1749 132.329L101.594 145.804L107.025 159.256C108.831 163.752 110.649 168.224 112.432 172.766C110.512 168.467 108.638 164.088 106.775 159.685C104.911 155.282 103.088 150.821 101.265 146.349C99.4696 141.842 97.6689 137.323 95.9193 132.735C94.1698 128.158 92.4429 123.523 90.7786 118.808Z" fill="#15252B"/>
<path d="M70.579 69.3101C72.249 73.122 73.8793 76.9803 75.5039 80.8618L80.3436 92.5641L85.1038 104.394C86.6772 108.357 88.245 112.331 89.7787 116.374C88.1087 112.562 86.4784 108.704 84.8538 104.823L80.0141 93.1203L75.2539 81.2905C73.6805 77.3163 72.1127 73.3422 70.579 69.3101Z" fill="#15252B"/>
<path d="M83.8541 85.1257L88.5007 95.9127L93.1132 106.746L102.287 128.517L111.387 150.416L115.909 161.411L120.396 172.465L115.75 161.689L111.137 150.844L101.963 129.073L92.8632 107.175L88.3416 96.1792L83.8541 85.1257Z" fill="#15252B"/>
<path d="M79.6051 58.1871C80.6844 60.6319 81.8091 63.0187 82.9452 65.3592L86.3932 72.3342C86.9499 73.7246 86.9328 75.59 87.4441 76.7255L89.1652 80.2015L92.6189 87.1533L92.6246 87.1649L92.6303 87.1765C94.8286 92.7149 96.9928 98.3111 99.2423 103.757C101.486 109.214 103.826 114.497 106.28 119.538L106.286 119.549L106.292 119.561C109.813 128.471 113.409 137.242 117.005 146.024L127.889 172.21C124.145 163.682 120.424 155.12 116.772 146.43C113.102 137.775 109.524 128.957 105.974 120.094L105.985 120.128C103.497 115.1 101.174 109.747 98.9355 104.267C96.6974 98.7862 94.5332 93.1899 92.3633 87.6052L92.3746 87.6284L88.9664 80.5838L87.2623 77.0499C86.6829 75.6595 86.717 73.7941 86.2285 72.6007L82.8656 65.4982C81.7523 63.1114 80.6617 60.6898 79.6051 58.1871Z" fill="#15252B"/>
<path d="M42.8246 1.34406L45.9658 8.68989L49.0673 16.1052L55.2192 31.0054L61.2973 46.0447L64.3079 53.5991L67.2844 61.223L64.1488 53.8772L61.0416 46.4734L54.8898 31.5616L48.8174 16.5223L45.8068 8.96796L42.8246 1.34406Z" fill="#15252B"/>
<path d="M49.1923 1.22815L53.339 11.0651L57.4572 20.9599L65.6313 40.8308L73.7259 60.8406L77.7476 70.8861L81.7353 80.9895L77.5886 71.1642L73.476 61.2693L65.3019 41.3869L57.2073 21.3886L53.1799 11.3316L49.1923 1.22815Z" fill="#15252B"/>
<path d="M35.1162 0.799255C37.1441 5.45702 39.1095 10.2191 41.0636 14.9927L46.8746 29.4179C48.7889 34.261 50.726 39.0694 52.663 43.8662C54.6 48.6746 56.5597 53.4366 58.5365 58.1871C56.4291 53.68 54.4069 49.0222 52.413 44.3065C50.4192 39.5908 48.4879 34.7824 46.5452 29.974L40.8137 15.4214L35.1162 0.799255Z" fill="#15252B"/>
<path d="M56.7699 1.8653C57.1902 2.36351 57.514 3.03553 57.8151 3.7423C58.1048 4.47225 58.3661 5.23696 58.5308 6.17546C58.1105 5.67724 57.7867 5.00523 57.4856 4.29845C57.1959 3.56851 56.9346 2.8038 56.7699 1.8653Z" fill="#15252B"/>
<path d="M75.7765 48.802C76.5433 50.146 77.2136 51.6639 77.8555 53.2164C78.4917 54.7922 79.0995 56.4027 79.6051 58.1871C78.8382 56.843 78.1679 55.3252 77.5261 53.7726C76.8955 52.1968 76.282 50.5863 75.7765 48.802Z" fill="#15252B"/>
<path d="M59.5135 8.94452C60.8598 11.957 62.1663 15.039 63.4728 18.1326C64.7793 21.2146 66.0517 24.3545 67.3468 27.4597C68.6136 30.6112 69.8916 33.7396 71.1413 36.9143C72.391 40.089 73.6407 43.2753 74.8506 46.5195C73.5044 43.507 72.1979 40.425 70.8914 37.3314C69.5849 34.2378 68.3125 31.1095 67.0174 28.0043C65.7506 24.8528 64.4725 21.7244 63.2229 18.5381C61.9732 15.3866 60.7235 12.2003 59.5135 8.94452Z" fill="#15252B"/>
<path d="M103.446 169.255C103.787 169.545 104.031 169.997 104.247 170.495C104.457 171.016 104.639 171.573 104.724 172.303C104.383 172.013 104.139 171.561 103.923 171.063C103.713 170.541 103.531 169.985 103.446 169.255Z" fill="#15252B"/>
<path d="M83.269 118.831L87.9895 130.684L92.7212 142.502L97.4587 154.32C99.0378 158.26 100.617 162.199 102.168 166.196C100.481 162.442 98.839 158.607 97.2087 154.749C95.5785 150.891 93.988 146.975 92.3918 143.047C90.824 139.084 89.2562 135.122 87.7338 131.089C86.2115 127.069 84.7119 122.99 83.269 118.831Z" fill="#15252B"/>
<path d="M58.5251 58.1871C59.5931 60.4581 60.6496 62.7522 61.6948 65.0811C62.723 67.4216 63.7398 69.7968 64.7509 72.1836C66.7617 76.9688 68.6931 81.8815 70.6358 86.7826L76.3843 101.59C77.3386 104.058 78.31 106.514 79.2813 108.948C80.247 111.404 81.224 113.837 82.2181 116.247C81.1729 113.93 80.1448 111.589 79.1223 109.214C78.1169 106.827 77.1171 104.417 76.1287 101.996C74.1576 97.1525 72.2433 92.205 70.3006 87.3155C68.3863 82.3797 66.4493 77.4786 64.5009 72.6007C63.5239 70.1676 62.5355 67.746 61.5414 65.3476C60.553 62.9376 59.5476 60.5508 58.5251 58.1871Z" fill="#15252B"/>
<path d="M90.3582 49.2424L94.3969 58.8939L98.3675 68.6729C101.003 75.2077 103.588 81.8236 106.189 88.4163L121.612 128.251L117.607 118.541L113.659 108.727C111.041 102.169 108.456 95.542 105.86 88.9493L90.3582 49.2424Z" fill="#15252B"/>
<path d="M72.0956 2.7923C73.652 6.2219 75.1516 9.77894 76.6229 13.3592C78.0998 16.9394 79.5255 20.6007 80.957 24.2505C82.3657 27.9466 83.7802 31.6195 85.1662 35.3387C86.5522 39.058 87.9382 42.7888 89.2958 46.5544C87.7962 43.009 86.3477 39.3824 84.9049 35.7558L80.6162 24.7834L76.3616 13.7763L72.0956 2.7923Z" fill="#15252B"/>
<path d="M144.123 162.002C145.06 163.74 145.895 165.64 146.708 167.587C147.509 169.545 148.287 171.549 148.968 173.728C148.031 171.99 147.196 170.09 146.384 168.143C145.583 166.185 144.805 164.18 144.123 162.002Z" fill="#15252B"/>
<path d="M133.518 136.315C134.393 138.157 135.239 140.069 136.074 141.992C136.909 143.904 137.721 145.874 138.545 147.809C139.34 149.79 140.153 151.748 140.936 153.764C141.72 155.769 142.499 157.785 143.243 159.87C142.362 158.028 141.522 156.116 140.686 154.204C139.851 152.293 139.039 150.323 138.221 148.388C137.426 146.407 136.614 144.449 135.83 142.433C135.04 140.417 134.262 138.401 133.518 136.315Z" fill="#15252B"/>
<path d="M111.927 83.7819C113.682 87.7792 115.403 91.8345 117.119 95.9013L122.225 108.171L127.252 120.569C128.917 124.728 130.57 128.888 132.194 133.117C130.439 129.12 128.718 125.064 127.002 120.998L121.896 108.728L116.869 96.33C115.204 92.1705 113.551 88.0109 111.927 83.7819Z" fill="#15252B"/>
<path d="M97.9244 49.3118C99.0492 51.8029 100.14 54.3519 101.225 56.9126C102.31 59.4732 103.366 62.0801 104.434 64.6639C105.479 67.2941 106.536 69.8894 107.57 72.5427C108.598 75.196 109.626 77.8493 110.614 80.5722C109.49 78.0811 108.399 75.532 107.314 72.9714C106.229 70.4108 105.173 67.8039 104.105 65.2201C103.06 62.5899 102.003 59.9946 100.969 57.3413C99.9353 54.688 98.9128 52.0231 97.9244 49.3118Z" fill="#15252B"/>
<path d="M83.8541 15.0623C84.7687 17.982 85.7911 20.7396 86.8704 23.3813C87.9554 26.0231 89.0744 28.6068 90.2389 31.1211C91.375 33.6817 92.5508 36.1728 93.6812 38.7682C94.8116 41.352 95.9193 43.9937 96.902 46.8208C95.783 44.2138 94.6185 41.7112 93.4426 39.2201L89.9322 31.712C88.7961 29.1398 87.66 26.556 86.6205 23.7985C85.581 21.0409 84.6153 18.1558 83.8541 15.0623Z" fill="#15252B"/>
<path d="M151.457 162.35C152.377 164.018 153.2 165.86 153.996 167.749C154.785 169.649 155.546 171.596 156.211 173.716C155.291 172.048 154.467 170.205 153.672 168.317C152.888 166.405 152.121 164.458 151.457 162.35Z" fill="#15252B"/>
<path d="M140.289 135.643C141.175 137.485 142.027 139.385 142.873 141.297C143.72 143.209 144.538 145.167 145.367 147.102C146.174 149.083 146.992 151.041 147.787 153.046C148.582 155.05 149.366 157.066 150.122 159.14C149.235 157.298 148.383 155.398 147.537 153.486C146.691 151.574 145.873 149.616 145.043 147.681C144.237 145.7 143.413 143.742 142.623 141.737C141.828 139.733 141.039 137.717 140.289 135.643Z" fill="#15252B"/>
<path d="M120.493 88.3353C122.095 91.8923 123.662 95.5073 125.23 99.1454L129.877 110.106L134.449 121.195C135.96 124.914 137.466 128.645 138.937 132.433C137.335 128.876 135.762 125.261 134.199 121.635L129.553 110.674L124.98 99.5857C123.469 95.8549 121.964 92.124 120.493 88.3353Z" fill="#15252B"/>
<path d="M159.284 162.442C160.221 164.25 161.062 166.231 161.874 168.247C162.675 170.286 163.459 172.36 164.135 174.608C163.198 172.801 162.357 170.819 161.545 168.803C160.738 166.764 159.96 164.69 159.284 162.442Z" fill="#15252B"/>
<path d="M148.202 135.805C149.116 137.589 149.985 139.466 150.843 141.367C151.701 143.255 152.524 145.225 153.354 147.16C154.16 149.141 154.973 151.122 155.751 153.15C156.529 155.178 157.302 157.217 158.034 159.326C157.165 157.449 156.33 155.514 155.501 153.579L153.03 147.727L150.599 141.807C149.792 139.825 148.986 137.844 148.202 135.805Z" fill="#15252B"/>
<path d="M142.425 123.419C143.288 124.763 144.066 126.292 144.816 127.868C145.56 129.456 146.282 131.101 146.901 132.92C146.032 131.576 145.259 130.046 144.509 128.471C143.771 126.872 143.05 125.238 142.425 123.419Z" fill="#15252B"/>
<path d="M122.231 130.255L127.025 141.007L131.848 151.713C133.438 155.317 135.04 158.885 136.608 162.547C138.17 166.196 139.715 169.892 141.186 173.704L131.535 152.304C129.945 148.701 128.343 145.121 126.787 141.459C125.225 137.786 123.691 134.079 122.231 130.255Z" fill="#15252B"/>
<path d="M107.683 56.9359C108.564 58.8129 109.405 60.7478 110.24 62.6828C111.08 64.6293 111.887 66.6222 112.711 68.5803C113.511 70.5847 114.324 72.5776 115.108 74.6052C115.892 76.6329 116.67 78.6837 117.414 80.7808C116.533 78.9038 115.693 76.9689 114.858 75.0339C114.023 73.0874 113.21 71.1061 112.387 69.1364C111.591 67.1204 110.773 65.1391 109.99 63.1114C109.206 61.0838 108.427 59.0446 107.683 56.9359Z" fill="#15252B"/>
<path d="M85.5469 3.08185L90.9262 15.7227L96.2715 28.4215C98.0324 32.6969 99.799 36.9491 101.537 41.2709C103.27 45.5927 104.985 49.9376 106.644 54.3752L101.287 41.6996L95.9534 28.9892C94.1981 24.7138 92.4202 20.4616 90.682 16.1514C88.9381 11.8412 87.2169 7.50788 85.5469 3.08185Z" fill="#15252B"/>
<path d="M78.5088 3.00067C79.1734 4.10139 79.7471 5.3759 80.2868 6.68517C80.8207 8.01762 81.332 9.38482 81.7409 10.9258C81.0707 9.82511 80.5026 8.5506 79.963 7.24132C79.4233 5.90888 78.9178 4.54167 78.5088 3.00067Z" fill="#15252B"/>
<path d="M126.741 84.1177C128.082 87.1417 129.394 90.2353 130.695 93.3289C131.995 96.4225 133.268 99.574 134.557 102.691C135.818 105.854 137.096 108.994 138.346 112.18C139.596 115.366 140.84 118.564 142.044 121.82C140.698 118.796 139.391 115.702 138.091 112.609C136.79 109.515 135.517 106.364 134.228 103.247C132.967 100.084 131.689 96.9439 130.439 93.7576C129.189 90.5713 127.945 87.3851 126.741 84.1177Z" fill="#15252B"/>
<path d="M115.738 57.017C116.573 58.8013 117.38 60.6436 118.175 62.4974C118.97 64.3513 119.737 66.2515 120.521 68.1285C121.277 70.0518 122.049 71.9404 122.793 73.8869C123.537 75.8335 124.276 77.78 124.98 79.796C124.139 78.0117 123.339 76.1695 122.543 74.3156C121.748 72.4618 120.975 70.5616 120.197 68.6846C119.442 66.7613 118.669 64.8727 117.925 62.9261C117.181 60.9796 116.443 59.0331 115.738 57.017Z" fill="#15252B"/>
<path d="M93.5619 2.72284C95.3853 6.91715 97.1746 11.1578 98.964 15.4216L104.275 28.271L109.512 41.2479C111.245 45.5928 112.972 49.9493 114.659 54.3754C112.835 50.1927 111.04 45.9404 109.257 41.6766L103.946 28.8272L98.7083 15.8503C96.9815 11.4938 95.2546 7.13729 93.5619 2.72284Z" fill="#15252B"/>
<path d="M83.3485 48.9527L87.4725 58.7317L91.5624 68.5686L99.691 88.3236L107.74 108.218L111.739 118.205L115.704 128.262L111.58 118.483L107.49 108.646L99.3616 88.8797L91.3124 68.9973L87.3134 58.9982L83.3485 48.9527Z" fill="#15252B"/>
<path d="M64.1431 2.21289L68.926 13.0115C70.5165 16.6149 72.0786 20.2646 73.6464 23.926C75.1858 27.622 76.7252 31.3181 78.2077 35.1301C79.6846 38.9305 81.1275 42.8003 82.468 46.8093C80.9798 43.0205 79.4802 39.2665 77.9521 35.5588C76.4241 31.8511 74.8904 28.155 73.3226 24.5053L68.676 13.4634C67.1423 9.7441 65.6143 6.03643 64.1431 2.21289Z" fill="#15252B"/>
<path d="M175.235 162.048C176.189 163.844 177.041 165.814 177.87 167.819C178.688 169.846 179.484 171.909 180.177 174.145C179.222 172.349 178.37 170.379 177.541 168.375C176.723 166.347 175.928 164.285 175.235 162.048Z" fill="#15252B"/>
<path d="M157.739 119.155C159.193 122.434 160.608 125.771 162.016 129.12C163.431 132.468 164.811 135.863 166.208 139.235L170.327 149.477C171.684 152.918 173.036 156.359 174.354 159.87C172.9 156.591 171.486 153.254 170.077 149.906L165.885 139.791C164.516 136.373 163.124 132.989 161.766 129.548C160.409 126.119 159.057 122.666 157.739 119.155Z" fill="#15252B"/>
<path d="M171.008 134.982C172.429 138.18 173.809 141.436 175.184 144.692C176.558 147.959 177.91 151.261 179.273 154.552L183.284 164.539C184.607 167.888 185.925 171.26 187.209 174.678C185.789 171.48 184.408 168.236 183.034 164.968L178.944 155.108C177.609 151.771 176.257 148.469 174.934 145.12C173.61 141.772 172.292 138.4 171.008 134.982Z" fill="#15252B"/>
<path d="M176.359 131.564C177.927 135.122 179.455 138.736 180.978 142.363L185.51 153.312L189.97 164.389C191.441 168.108 192.906 171.827 194.338 175.616C192.77 172.059 191.242 168.444 189.72 164.818L185.187 153.868L180.728 142.792C179.256 139.072 177.791 135.353 176.359 131.564Z" fill="#15252B"/>
<path d="M166.76 108.044C167.572 109.759 168.356 111.543 169.128 113.327C169.906 115.112 170.656 116.931 171.406 118.761C172.15 120.604 172.894 122.434 173.61 124.323C174.331 126.2 175.047 128.088 175.723 130.035C174.905 128.32 174.127 126.536 173.354 124.752C172.576 122.967 171.826 121.148 171.077 119.317C170.332 117.475 169.588 115.645 168.873 113.756C168.157 111.879 167.441 109.99 166.76 108.044Z" fill="#15252B"/>
<path d="M132.353 56.9475C134.245 61.3735 136.091 65.8807 137.926 70.3994L143.407 84.0019C145.214 88.567 147.054 93.0858 148.889 97.6045C150.724 102.123 152.581 106.607 154.444 111.08C152.451 106.839 150.531 102.459 148.639 98.0332C146.747 93.5956 144.913 89.0768 143.078 84.5581C141.272 79.993 139.454 75.428 137.676 70.8281C135.892 66.2051 134.114 61.5937 132.353 56.9475Z" fill="#15252B"/>
<path d="M121.788 31.0516C122.651 32.8823 123.475 34.7825 124.299 36.6827C125.122 38.5828 125.912 40.541 126.718 42.4643C127.502 44.434 128.298 46.3805 129.064 48.3734C129.831 50.3663 130.598 52.3708 131.32 54.4332C130.456 52.6025 129.632 50.7023 128.809 48.8021C127.991 46.9019 127.196 44.9438 126.389 43.0205C125.611 41.0508 124.81 39.1042 124.043 37.1114C123.282 35.1069 122.515 33.114 121.788 31.0516Z" fill="#15252B"/>
<path d="M125.929 25.525L128.593 32.1524L131.285 38.722C133.08 43.1017 134.887 47.4582 136.704 51.8031L147.639 77.8032C151.269 86.493 154.91 95.1829 158.466 104C160.244 108.415 162.005 112.852 163.755 117.313L166.345 124.056L168.901 130.846L166.26 124.184L163.59 117.568C161.806 113.165 160.017 108.774 158.21 104.417C154.598 95.6927 150.968 87.0144 147.31 78.3593C143.68 69.6695 140.027 61.0028 136.449 52.2202C134.659 47.8289 132.882 43.4145 131.121 38.9769L128.508 32.2683L125.929 25.525Z" fill="#15252B"/>
<path d="M116.624 2.73413C117.391 4.33307 118.118 5.98993 118.845 7.65839C119.573 9.31525 120.277 11.0185 120.976 12.7333C121.669 14.4481 122.362 16.1744 123.032 17.9356C123.702 19.6967 124.372 21.4579 125.003 23.2885C124.236 21.6896 123.509 20.0327 122.782 18.3643C122.055 16.7074 121.35 15.0042 120.652 13.2894C119.959 11.5746 119.266 9.84823 118.595 8.08708C117.925 6.32594 117.255 4.5648 116.624 2.73413Z" fill="#15252B"/>
<path d="M135.267 84.2684C136.171 86.1917 137.04 88.173 137.914 90.1427L140.522 96.075L143.112 102.03C143.975 104.023 144.844 106.005 145.691 108.021C144.714 106.248 143.788 104.382 142.873 102.482C141.959 100.582 141.084 98.6124 140.204 96.6427C139.352 94.6267 138.494 92.6338 137.67 90.5598C136.841 88.5206 136.034 86.4235 135.267 84.2684Z" fill="#15252B"/>
<path d="M124.441 57.3298C125.281 59.1373 126.082 61.0028 126.883 62.8913C127.684 64.7684 128.451 66.6917 129.235 68.5919C129.996 70.5384 130.769 72.4618 131.513 74.4199C132.257 76.3896 132.995 78.3593 133.7 80.3985C132.859 78.591 132.058 76.7256 131.257 74.837C130.462 72.96 129.689 71.0366 128.905 69.1365C128.15 67.1899 127.372 65.2666 126.628 63.3085C125.883 61.3388 125.145 59.3575 124.441 57.3298Z" fill="#15252B"/>
<path d="M111.75 25.9419C112.779 28.2128 113.773 30.5533 114.767 32.8938C115.755 35.2343 116.715 37.6327 117.692 39.9963C118.641 42.4063 119.606 44.7931 120.544 47.2263C121.481 49.6594 122.413 52.1042 123.304 54.6069C122.271 52.3359 121.277 49.9954 120.288 47.6434C119.3 45.3029 118.34 42.9045 117.363 40.5409C116.414 38.1309 115.448 35.7441 114.511 33.3109C113.58 30.8893 112.648 28.4446 111.75 25.9419Z" fill="#15252B"/>
<path d="M102.19 3.08185C102.946 4.61126 103.667 6.19861 104.377 7.78596C105.093 9.37331 105.786 11.007 106.479 12.6407C107.166 14.286 107.848 15.9428 108.507 17.6345C109.172 19.3261 109.825 21.0177 110.45 22.7789C109.694 21.2495 108.973 19.6621 108.263 18.0748C107.547 16.4874 106.854 14.8537 106.161 13.22C105.479 11.5747 104.792 9.91787 104.133 8.22625C103.469 6.54621 102.81 4.84299 102.19 3.08185Z" fill="#15252B"/>
<path d="M133.007 25.6873C134.092 28.1783 135.142 30.7158 136.199 33.2416L139.352 40.854C140.391 43.4146 141.453 45.9288 142.51 48.4547L145.691 56.0323C144.504 53.7381 143.373 51.3397 142.266 48.9066C141.158 46.4618 140.096 43.9475 139.028 41.4217C137.988 38.8611 136.949 36.3005 135.949 33.6703C134.938 31.0518 133.95 28.3985 133.007 25.6873Z" fill="#15252B"/>
<path d="M124.111 3.08185C124.821 4.59968 125.491 6.17544 126.162 7.7512C126.832 9.32696 127.48 10.9491 128.127 12.5712C128.763 14.2049 129.405 15.8386 130.013 17.5186C130.627 19.1871 131.24 20.8671 131.808 22.6167C131.098 21.0988 130.422 19.5231 129.757 17.9473C129.087 16.3715 128.44 14.7494 127.798 13.1273C127.161 11.4936 126.525 9.85994 125.912 8.1799C125.293 6.51144 124.685 4.83141 124.111 3.08185Z" fill="#15252B"/>
<path d="M146.674 58.8013C148.417 62.787 150.122 66.8423 151.82 70.8976L156.881 83.1445L161.869 95.5188C163.516 99.6668 165.158 103.826 166.765 108.044C165.021 104.058 163.317 100.003 161.619 95.9475L156.557 83.7006L151.576 71.3263C149.923 67.1783 148.281 63.0187 146.674 58.8013Z" fill="#15252B"/>
<path d="M110.274 2.8269C111.006 4.34473 111.705 5.93208 112.398 7.51943C113.097 9.10678 113.767 10.7289 114.437 12.3626C115.102 14.0079 115.761 15.6416 116.403 17.3332C117.045 19.0132 117.681 20.7049 118.277 22.4544C117.545 20.9366 116.846 19.3492 116.153 17.7619C115.454 16.1745 114.784 14.5524 114.114 12.9187C113.449 11.2734 112.79 9.63976 112.148 7.94813C111.512 6.26809 110.876 4.57646 110.274 2.8269Z" fill="#15252B"/>
<path d="M167.782 163.149C168.714 164.794 169.549 166.602 170.355 168.456C171.156 170.321 171.929 172.245 172.61 174.33C171.679 172.696 170.844 170.889 170.037 169.023C169.236 167.146 168.464 165.235 167.782 163.149Z" fill="#15252B"/>
<path d="M156.87 136.199C157.739 138.076 158.574 140.011 159.403 141.958C160.233 143.904 161.034 145.897 161.846 147.867C162.635 149.883 163.436 151.864 164.215 153.903C164.993 155.942 165.76 157.982 166.498 160.09C165.629 158.213 164.794 156.278 163.965 154.332C163.135 152.385 162.334 150.393 161.516 148.423C160.727 146.407 159.92 144.425 159.148 142.386C158.375 140.347 157.603 138.296 156.87 136.199Z" fill="#15252B"/>
<path d="M145.685 108.044C146.583 110.014 147.446 112.053 148.304 114.104C149.162 116.143 149.991 118.24 150.837 120.314C151.655 122.423 152.49 124.508 153.291 126.652C154.098 128.784 154.893 130.927 155.654 133.129C154.757 131.147 153.893 129.12 153.036 127.069C152.178 125.018 151.349 122.932 150.508 120.858C149.69 118.75 148.855 116.664 148.054 114.532C147.247 112.389 146.446 110.245 145.685 108.044Z" fill="#15252B"/>
<path d="M199.274 153.509C200.166 155.224 200.961 157.101 201.728 159.024C202.489 160.959 203.222 162.941 203.853 165.084C202.955 163.369 202.165 161.492 201.399 159.569C200.637 157.623 199.91 155.653 199.274 153.509Z" fill="#15252B"/>
<path d="M190.322 131.507C191.032 132.966 191.702 134.473 192.367 136.002C193.037 137.52 193.679 139.084 194.327 140.648C194.963 142.224 195.599 143.8 196.207 145.422C196.82 147.032 197.428 148.655 198.002 150.346C197.292 148.886 196.621 147.38 195.957 145.851C195.287 144.333 194.645 142.769 193.997 141.204C193.361 139.629 192.725 138.053 192.117 136.431C191.503 134.82 190.896 133.187 190.322 131.507Z" fill="#15252B"/>
<path d="M178.802 102.343C179.728 104.406 180.614 106.526 181.495 108.658C182.375 110.79 183.227 112.956 184.096 115.112C184.937 117.301 185.795 119.468 186.624 121.693C187.453 123.906 188.277 126.13 189.061 128.424C188.135 126.362 187.249 124.253 186.368 122.121C185.488 119.989 184.63 117.811 183.767 115.668C182.926 113.466 182.068 111.3 181.239 109.087C180.41 106.85 179.586 104.626 178.802 102.343Z" fill="#15252B"/>
<path d="M157.739 49.0919C159.489 53.2399 161.21 57.4458 162.92 61.6517L168.009 74.362L173.025 87.1999C174.684 91.4984 176.337 95.8086 177.95 100.177C176.195 96.0288 174.479 91.8229 172.769 87.617L167.68 74.9066L162.67 62.0688C161.005 57.7702 159.352 53.46 157.739 49.0919Z" fill="#15252B"/>
<path d="M197.462 131.958C198.058 133.152 198.627 134.392 199.183 135.655C199.746 136.906 200.28 138.204 200.813 139.501C201.342 140.811 201.87 142.12 202.37 143.475C202.875 144.819 203.375 146.175 203.835 147.6C203.233 146.407 202.671 145.167 202.114 143.904C201.552 142.653 201.018 141.355 200.484 140.057C199.956 138.748 199.427 137.439 198.928 136.083C198.428 134.728 197.928 133.372 197.462 131.958Z" fill="#15252B"/>
<path d="M185.868 102.552C186.8 104.637 187.692 106.769 188.578 108.913C189.464 111.056 190.322 113.246 191.197 115.413C192.043 117.626 192.906 119.804 193.736 122.04C194.571 124.277 195.4 126.513 196.19 128.818C195.264 126.744 194.366 124.601 193.48 122.457C192.594 120.314 191.736 118.113 190.861 115.946C190.015 113.733 189.152 111.543 188.317 109.307C187.487 107.094 186.658 104.846 185.868 102.552Z" fill="#15252B"/>
<path d="M171.008 64.9075C172.23 67.7114 173.417 70.5848 174.593 73.4583C175.774 76.3317 176.922 79.2631 178.092 82.1597C179.234 85.1027 180.387 88.0225 181.511 90.9886C182.636 93.9548 183.761 96.9209 184.84 99.9566C183.619 97.1527 182.432 94.2792 181.256 91.4058C180.074 88.5323 178.927 85.6009 177.757 82.7043C176.615 79.7613 175.462 76.8415 174.337 73.8754C173.218 70.9209 172.093 67.9431 171.008 64.9075Z" fill="#15252B"/>
<path d="M193.19 102.737C194.133 104.776 195.042 106.862 195.945 108.971C196.849 111.079 197.723 113.223 198.615 115.355C199.479 117.522 200.359 119.677 201.211 121.866C202.063 124.056 202.91 126.258 203.716 128.529C202.773 126.489 201.864 124.404 200.961 122.295C200.058 120.186 199.183 118.043 198.291 115.911C197.428 113.733 196.548 111.589 195.701 109.399C194.843 107.21 193.997 105.008 193.19 102.737Z" fill="#15252B"/>
<path d="M178.632 67.0624C179.802 69.6462 180.938 72.2995 182.063 74.9528C183.193 77.6061 184.295 80.3174 185.408 82.9939C186.499 85.7167 187.601 88.4163 188.68 91.1623C189.754 93.9083 190.827 96.6659 191.861 99.4814C190.691 96.8976 189.555 94.2443 188.425 91.591C187.294 88.9377 186.192 86.2265 185.079 83.55C183.988 80.8272 182.886 78.1275 181.807 75.3815C180.739 72.6355 179.671 69.8895 178.632 67.0624Z" fill="#15252B"/>
<path d="M167.947 40.877C168.822 42.7424 169.662 44.6658 170.497 46.6007C171.332 48.5357 172.139 50.517 172.957 52.4751C173.752 54.4795 174.559 56.4492 175.343 58.4769C176.127 60.5045 176.899 62.5322 177.638 64.6293C176.763 62.7639 175.922 60.8405 175.087 58.9056C174.252 56.9706 173.445 54.9893 172.627 53.0312C171.832 51.0268 171.026 49.0571 170.242 47.0294C169.463 45.0018 168.685 42.9742 167.947 40.877Z" fill="#15252B"/>
<path d="M138.483 1.88837C139.88 5.0283 141.243 8.23776 142.595 11.4588C143.953 14.6683 145.282 17.9356 146.623 21.1683L150.576 31.0168C151.877 34.3189 153.178 37.6327 154.439 41.0043C153.041 37.8644 151.678 34.6549 150.321 31.4339L146.293 21.7128C144.975 18.4339 143.646 15.1781 142.34 11.8643C141.044 8.58535 139.744 5.27162 138.483 1.88837Z" fill="#15252B"/>
<path d="M145.117 1.76099L148.168 9.01412L151.19 16.3136L157.171 30.9937L163.079 45.8128L166.004 53.2629L168.895 60.7825L165.845 53.541L162.823 46.2415L156.842 31.5498L150.934 16.7307L148.009 9.28061L145.117 1.76099Z" fill="#15252B"/>
<path d="M141.016 25.7799C141.982 27.4831 142.834 29.4065 143.629 31.4341C144.407 33.4733 145.134 35.6284 145.685 37.9689C144.85 35.9992 144.078 33.9831 143.294 31.9671C142.521 29.9395 141.732 27.935 141.016 25.7799Z" fill="#15252B"/>
<path d="M131.081 3.12811L133.285 8.12188L135.512 13.0577C136.25 14.7146 137 16.3483 137.727 18.0283C138.454 19.7084 139.181 21.4 139.863 23.1611C139.051 21.6317 138.272 20.0676 137.488 18.4802C136.705 16.9044 135.949 15.2823 135.199 13.6371C134.461 11.9802 133.728 10.3001 133.035 8.55059C132.348 6.81261 131.677 5.01671 131.081 3.12811Z" fill="#15252B"/>
<path d="M151.996 1.77264C153.376 4.51864 154.683 7.41526 155.95 10.3698C157.222 13.3244 158.438 16.3716 159.659 19.4073L163.232 28.6649L166.765 37.9804C165.459 35.0954 164.209 32.1061 162.976 29.082C161.744 26.0695 160.551 22.9875 159.329 19.9518C158.137 16.8698 156.921 13.8342 155.705 10.7985C154.484 7.76286 153.246 4.76196 151.996 1.77264Z" fill="#15252B"/>
<path d="M201.779 103.224C202.285 103.931 202.694 104.811 203.08 105.727C203.455 106.665 203.807 107.638 204.051 108.785C203.54 108.079 203.137 107.198 202.751 106.283C202.381 105.344 202.029 104.371 201.779 103.224Z" fill="#15252B"/>
<path d="M186.862 67.3636C188.061 69.9706 189.231 72.6355 190.39 75.3236C191.549 78 192.685 80.7345 193.832 83.4341C194.957 86.1801 196.093 88.9029 197.201 91.6721C198.308 94.4413 199.41 97.222 200.478 100.061C199.274 97.4537 198.11 94.7889 196.951 92.1008C195.792 89.4243 194.656 86.7015 193.509 83.9903C192.389 81.2443 191.253 78.5214 190.14 75.7523C189.032 72.9831 187.93 70.2023 186.862 67.3636Z" fill="#15252B"/>
<path d="M160.017 1.22815L163.317 9.02586L166.578 16.8815L173.059 32.6855L179.461 48.6053L182.636 56.6231L185.772 64.6873L182.471 56.8896L179.205 49.034L172.73 33.23L166.328 17.2986L163.152 9.29235L160.017 1.22815Z" fill="#15252B"/>
<path d="M183.806 131.321C185.38 134.901 186.914 138.54 188.447 142.189L192.997 153.208L197.473 164.354C198.95 168.097 200.427 171.839 201.859 175.651C200.285 172.071 198.752 168.433 197.218 164.783L192.668 153.764L188.192 142.618C186.715 138.876 185.244 135.133 183.806 131.321Z" fill="#15252B"/>
<path d="M172.054 102.598C173.031 104.695 173.968 106.862 174.9 109.04C175.837 111.207 176.74 113.432 177.66 115.633C178.558 117.869 179.467 120.082 180.347 122.353C181.228 124.613 182.102 126.884 182.943 129.224C181.966 127.127 181.029 124.96 180.097 122.782C179.166 120.604 178.257 118.391 177.336 116.189C176.445 113.953 175.53 111.74 174.65 109.469C173.769 107.21 172.894 104.939 172.054 102.598Z" fill="#15252B"/>
<path d="M145.685 37.969C146.719 40.5875 147.759 43.1829 148.81 45.7667L151.962 53.5181C154.075 58.6625 156.194 63.7953 158.336 68.8933L164.703 84.2802L167.856 92.0315L170.946 99.8872L164.453 84.7089L158.012 69.4495C155.893 64.3051 153.774 59.1723 151.712 53.9352C150.684 51.3166 149.662 48.6749 148.65 46.0332C147.651 43.3567 146.662 40.6686 145.685 37.969Z" fill="#15252B"/>
<path d="M202.609 67.6881C202.938 67.885 203.176 68.2788 203.398 68.719C203.608 69.1707 203.79 69.6688 203.881 70.3522C203.545 70.1437 203.307 69.7614 203.091 69.3213C202.887 68.8696 202.705 68.3715 202.609 67.6881Z" fill="#15252B"/>
<path d="M188.47 33.0213C189.623 35.5703 190.748 38.1889 191.861 40.8074C192.975 43.426 194.06 46.1024 195.162 48.7442C196.235 51.4322 197.326 54.0971 198.388 56.8084C199.45 59.5196 200.507 62.2424 201.524 65.0232C200.365 62.4741 199.246 59.8556 198.132 57.237C197.019 54.6185 195.934 51.942 194.832 49.3003C193.759 46.6122 192.668 43.9474 191.606 41.2361C190.543 38.5249 189.487 35.8021 188.47 33.0213Z" fill="#15252B"/>
<path d="M197.49 21.9099C198.433 23.6826 199.274 25.6292 200.092 27.6105C200.899 29.6149 201.683 31.6541 202.364 33.8672C201.421 32.0944 200.581 30.1479 199.763 28.1666C198.956 26.1622 198.178 24.1229 197.49 21.9099Z" fill="#15252B"/>
<path d="M175.53 1.3092C176.399 3.16304 177.234 5.07481 178.063 7.00975C178.893 8.93311 179.694 10.9028 180.512 12.8493C181.301 14.8422 182.108 16.8119 182.886 18.8164C183.664 20.8324 184.437 22.8485 185.17 24.934C184.301 23.0802 183.466 21.1684 182.631 19.2335C181.801 17.3101 181 15.3404 180.182 13.3939C179.393 11.401 178.586 9.43132 177.808 7.41528C177.035 5.4224 176.263 3.39477 175.53 1.3092Z" fill="#15252B"/>
<path d="M181.864 1.17023C183.426 4.65776 184.926 8.26115 186.408 11.8877C187.896 15.5143 189.339 19.1988 190.81 22.837C192.253 26.5215 193.719 30.1712 195.184 33.8325C196.65 37.4823 198.132 41.1088 199.621 44.7238C197.996 41.3522 196.451 37.8299 194.934 34.2612C193.418 30.6926 191.952 27.0313 190.481 23.3815L186.158 12.3048L181.864 1.17023Z" fill="#15252B"/>
<path d="M167.578 0.787842C168.378 2.43312 169.151 4.13633 169.912 5.85113C170.679 7.55435 171.417 9.31549 172.156 11.0651C172.889 12.8262 173.621 14.5989 174.326 16.4064C175.036 18.2139 175.74 20.0214 176.411 21.91C175.61 20.2647 174.843 18.5615 174.076 16.8467C173.309 15.1319 172.571 13.3823 171.832 11.6328C171.099 9.86006 170.367 8.09891 169.662 6.27983C168.952 4.48393 168.248 2.66485 167.578 0.787842Z" fill="#15252B"/>
<path d="M188.555 0C189.226 1.3672 189.862 2.79234 190.492 4.21748C191.123 5.64262 191.731 7.1141 192.338 8.58558C192.941 10.0687 193.537 11.5517 194.111 13.0811C194.69 14.599 195.258 16.14 195.792 17.7273C195.122 16.3601 194.486 14.935 193.855 13.5098C193.225 12.0847 192.617 10.6132 192.009 9.14173C191.413 7.65866 190.81 6.17559 190.237 4.64618C189.657 3.12835 189.089 1.59893 188.555 0Z" fill="#15252B"/>
<path d="M194.98 67.4216C195.883 69.3565 196.746 71.3494 197.61 73.3539C198.473 75.3583 199.303 77.4091 200.155 79.4252C200.978 81.4991 201.813 83.5384 202.62 85.6239C203.426 87.7211 204.233 89.8182 205 91.9733C204.097 90.0384 203.228 88.0455 202.37 86.0526C201.507 84.0482 200.677 81.9974 199.825 79.9813C199.001 77.9073 198.166 75.8681 197.36 73.771C196.553 71.6854 195.752 69.5767 194.98 67.4216Z" fill="#15252B"/>
<path d="M176.416 21.9099C177.939 25.3627 179.433 28.885 180.915 32.4189L185.329 43.0668L189.663 53.8538C191.094 57.4688 192.52 61.0954 193.912 64.7915C192.384 61.3387 190.896 57.8164 189.413 54.2825L185.005 43.623L180.671 32.836C179.228 29.221 177.802 25.5944 176.416 21.9099Z" fill="#15252B"/>
<path d="M196.241 0.440369C196.922 1.83075 197.564 3.27905 198.201 4.72736C198.842 6.17567 199.456 7.67033 200.069 9.16499C200.677 10.6712 201.285 12.1775 201.864 13.7301C202.45 15.2711 203.029 16.8237 203.569 18.4458C202.893 17.067 202.251 15.6187 201.609 14.1588C200.967 12.7104 200.353 11.2158 199.74 9.72114C199.132 8.2149 198.524 6.70866 197.945 5.15607C197.366 3.60348 196.786 2.05089 196.241 0.440369Z" fill="#15252B"/>
</g>
<path d="M168.444 96.306C111.686 159.092 61.1155 111.464 47.5714 96.2374C45.5564 93.973 45.5564 89.9931 47.5714 87.7287C61.1155 72.5023 111.686 24.8742 168.444 87.6601C170.519 89.952 170.519 94.0073 168.444 96.306Z" stroke="#1D1D1B" stroke-width="4" stroke-miterlimit="10"/>
<path d="M107.249 105.213C99.8896 97.5755 100.123 85.4231 107.772 78.0741C113.187 72.8728 120.863 71.4867 127.501 73.8198C127.446 73.7649 127.398 73.7031 127.343 73.6414C117.2 63.1221 100.439 62.7996 89.9046 72.9277C79.3699 83.0558 79.0469 99.7919 89.1899 110.311C99.3329 120.83 116.094 121.153 126.628 111.025C127.006 110.661 127.364 110.29 127.714 109.913C120.774 112.452 112.699 110.867 107.249 105.213Z" fill="#E9005A"/>
<path d="M122.794 75.3431C114.307 74.7461 105.923 81.8481 105.703 91.7566C105.504 100.704 113.098 108.63 122.1 108.65C133.191 108.678 139.115 99.5791 139.122 92.4565C139.115 82.8843 132.208 75.4803 122.794 75.3431ZM122.237 106.763C114.864 107.059 107.256 100.156 107.559 91.6125C107.847 83.4675 114.273 77.0311 122.485 77.0517C130.786 77.0723 137.5 83.8106 137.411 92.0311C137.321 100.265 130.552 106.846 122.237 106.763Z" fill="#15252B"/>
<path d="M119.947 88.3421C120.218 86.8905 119.722 85.5156 119.861 84C120.946 85.1191 121.567 86.4173 122.573 87.4852C123.446 86.3149 124.299 85.1703 125.153 84.0256C125.119 85.4644 125.126 86.8201 125.126 88.2718C126.621 88.0352 127.918 87.4149 129.512 87.0759C128.533 88.2782 127.64 89.3653 126.694 90.5228C128.109 91.1175 129.538 91.3861 131 91.9041C129.618 92.518 128.182 92.7546 126.733 93.311C127.441 94.5068 128.519 95.4021 129.373 96.6683C127.845 96.5468 126.628 95.8177 125.126 95.5875C125.126 97.0136 125.133 98.4205 125.338 100C124.213 98.8553 123.578 97.5763 122.586 96.4508C121.534 97.4612 120.906 98.7722 119.867 99.9552C119.682 98.4269 120.185 97.0328 119.953 95.53C118.525 95.9648 117.142 96.3805 115.495 96.8793C116.56 95.5939 117.46 94.5132 118.412 93.3557C117.023 92.7418 115.568 92.5052 114 91.9233C115.627 91.4309 116.99 91.0152 118.452 90.5675C117.473 89.3717 116.58 88.2846 115.535 87.012C117.168 87.5108 118.531 87.9201 119.947 88.3421Z" fill="#F4005E"/>
<path opacity="0.4" d="M38.6485 133.895C38.6485 131.447 38.6485 128.731 38.6485 125C41.6483 128.395 39.4843 131.634 40.8723 134.305C43.3945 135.432 46.551 133.656 49.6925 135.768C46.5211 137.283 43.6482 136.037 40.8275 136.932C39.5888 139.521 41.3573 142.887 39.3201 146.245C37.768 142.782 39.0366 139.738 38.171 136.917C35.2906 136.007 32.2236 137.32 29 135.82C32.0371 133.432 35.4473 135.648 38.6485 133.895Z" fill="#15252B"/>
<path opacity="0.4" d="M172.649 134.895C172.649 132.447 172.649 129.731 172.649 126C175.648 129.395 173.484 132.634 174.872 135.305C177.394 136.432 180.551 134.656 183.693 136.768C180.521 138.283 177.648 137.037 174.827 137.932C173.589 140.521 175.357 143.887 173.32 147.245C171.768 143.782 173.037 140.738 172.171 137.917C169.291 137.007 166.224 138.32 163 136.82C166.037 134.432 169.447 136.648 172.649 134.895Z" fill="#15252B"/>
<path opacity="0.4" d="M39.6485 41.8949C39.6485 39.4473 39.6485 36.7311 39.6485 33C42.6483 36.3953 40.4843 39.6338 41.8723 42.3053C44.3945 43.4321 47.551 41.6561 50.6925 43.7679C47.5211 45.2827 44.6482 44.0365 41.8275 44.932C40.5888 47.5213 42.3573 50.8867 40.3201 54.2447C38.768 50.7823 40.0366 47.7377 39.171 44.917C36.2906 44.0067 33.2236 45.32 30 43.8201C33.0371 41.4322 36.4473 43.6485 39.6485 41.8949Z" fill="#15252B"/>
<path opacity="0.4" d="M173.649 42.8949C173.649 40.4473 173.649 37.7311 173.649 34C176.648 37.3953 174.484 40.6338 175.872 43.3053C178.394 44.4321 181.551 42.6561 184.693 44.7679C181.521 46.2827 178.648 45.0365 175.827 45.932C174.589 48.5213 176.357 51.8867 174.32 55.2447C172.768 51.7823 174.037 48.7377 173.171 45.917C170.291 45.0067 167.224 46.32 164 44.8201C167.037 42.4322 170.447 44.6485 173.649 42.8949Z" fill="#15252B"/>
</svg>
