<svg width="1445" height="947" viewBox="0 0 1445 947" fill="none" xmlns="http://www.w3.org/2000/svg">
<g style="mix-blend-mode:multiply">
<path d="M2 44L1442 44" stroke="#D9D9D9"/>
</g>
<g style="mix-blend-mode:multiply">
<path d="M3 358L1443 358" stroke="#D9D9D9"/>
</g>
<g style="mix-blend-mode:multiply">
<path d="M1223 672H1444" stroke="#D9D9D9"/>
</g>
<g style="mix-blend-mode:multiply">
<path d="M0 672H221" stroke="#D9D9D9"/>
</g>
<g style="mix-blend-mode:multiply">
<path d="M1349.5 202L1443 202" stroke="#D9D9D9"/>
</g>
<g style="mix-blend-mode:multiply">
<path d="M0 202L93.5 202" stroke="#D9D9D9"/>
</g>
<g style="mix-blend-mode:multiply">
<path d="M1224.5 516H1444" stroke="#D9D9D9"/>
</g>
<g style="mix-blend-mode:multiply">
<path d="M5 517H224.5" stroke="#D9D9D9"/>
</g>
<g style="mix-blend-mode:multiply">
<path d="M1138.5 830L1445 830" stroke="#D9D9D9"/>
</g>
<g style="mix-blend-mode:multiply">
<path d="M2 830L308.5 830" stroke="#D9D9D9"/>
</g>
<g style="mix-blend-mode:multiply">
<path d="M67 5V947" stroke="#D9D9D9"/>
<path d="M329 5L329 377" stroke="#D9D9D9"/>
<path d="M1377 5V947" stroke="#D9D9D9"/>
<g style="mix-blend-mode:multiply">
<path d="M197 5V947" stroke="#D9D9D9"/>
</g>
<g style="mix-blend-mode:multiply">
<path d="M459 5V376" stroke="#D9D9D9"/>
</g>
<g style="mix-blend-mode:multiply">
<path d="M982 4V375" stroke="#D9D9D9"/>
</g>
<g style="mix-blend-mode:multiply">
<path d="M1117 0V381.5" stroke="#D9D9D9"/>
</g>
<g style="mix-blend-mode:multiply">
<path d="M1117 831.5V946.5" stroke="#D9D9D9"/>
</g>
<path d="M588 5V63.5" stroke="#D9D9D9"/>
<path d="M723 5V63.5" stroke="#D9D9D9"/>
<path d="M854 5V63.5" stroke="#D9D9D9"/>
<g style="mix-blend-mode:multiply">
<path d="M1245 5V947" stroke="#D9D9D9"/>
</g>
</g>
<g style="mix-blend-mode:multiply">
<path d="M2 124H508.5" stroke="#D9D9D9"/>
</g>
<g style="mix-blend-mode:multiply">
<path d="M937 124H1443.5" stroke="#D9D9D9"/>
</g>
<g style="mix-blend-mode:multiply">
<path d="M936 282H1442.5" stroke="#D9D9D9"/>
</g>
<g style="mix-blend-mode:multiply">
<path d="M1213 438L1443 438" stroke="#D9D9D9"/>
</g>
<g style="mix-blend-mode:multiply">
<path d="M2 435L232 435" stroke="#D9D9D9"/>
</g>
<g style="mix-blend-mode:multiply">
<path d="M1204.5 752L1444 752" stroke="#D9D9D9"/>
</g>
<g style="mix-blend-mode:multiply">
<path d="M3 752L242.5 752" stroke="#D9D9D9"/>
</g>
<g style="mix-blend-mode:multiply">
<path d="M3 282H487.5" stroke="#D9D9D9"/>
</g>
<g style="mix-blend-mode:multiply">
<path d="M1229 596L1444 596" stroke="#D9D9D9"/>
</g>
<g style="mix-blend-mode:multiply">
<path d="M3 598L218 598" stroke="#D9D9D9"/>
</g>
<g style="mix-blend-mode:multiply">
<path d="M5 910L1445 910" stroke="#D9D9D9"/>
</g>
</svg>
