<svg width="7" height="8" viewBox="0 0 7 8" fill="none" xmlns="http://www.w3.org/2000/svg">
<path d="M3.5 0.984375C1.61328 0.984375 0.109375 2.50195 0.109375 4.375C0.109375 6.26172 1.61328 7.76562 3.5 7.76562C4.15625 7.76562 4.79883 7.57422 5.3457 7.21875C5.50977 7.10938 5.55078 6.89062 5.41406 6.74023L5.27734 6.5625C5.18164 6.43945 4.99023 6.41211 4.85352 6.49414C4.44336 6.75391 3.97852 6.89062 3.5 6.89062C2.10547 6.89062 0.984375 5.76953 0.984375 4.375C0.984375 2.99414 2.10547 1.85938 3.5 1.85938C4.86719 1.85938 6.01562 2.65234 6.01562 4.04688C6.01562 4.58008 5.71484 5.14062 5.20898 5.19531C4.97656 5.19531 4.97656 5.01758 5.03125 4.78516L5.3457 3.13086C5.38672 2.92578 5.23633 2.73438 5.03125 2.73438H4.41602C4.32031 2.73438 4.23828 2.81641 4.22461 2.89844V2.91211C4.0332 2.66602 3.67773 2.61133 3.4043 2.61133C2.39258 2.61133 1.53125 3.45898 1.53125 4.67578C1.53125 5.57812 2.02344 6.125 2.84375 6.125C3.19922 6.125 3.62305 5.91992 3.85547 5.60547C3.99219 6.07031 4.41602 6.07031 4.82617 6.07031C6.31641 6.07031 6.89062 5.08594 6.89062 4.04688C6.89062 2.1875 5.38672 0.984375 3.5 0.984375ZM3.19922 5.1543C2.89844 5.1543 2.70703 4.93555 2.70703 4.59375C2.70703 3.97852 3.13086 3.5957 3.5 3.5957C3.81445 3.5957 3.99219 3.81445 3.99219 4.15625C3.99219 4.77148 3.52734 5.1543 3.19922 5.1543Z" fill="#00EEF4"/>
</svg>
