<svg width="6" height="8" viewBox="0 0 6 8" fill="none" xmlns="http://www.w3.org/2000/svg">
<path d="M2.35156 7.73828C2.47461 7.92969 2.76172 7.92969 2.88477 7.73828C4.88086 4.86719 5.25 4.56641 5.25 3.5C5.25 2.05078 4.07422 0.875 2.625 0.875C1.16211 0.875 0 2.05078 0 3.5C0 4.56641 0.355469 4.86719 2.35156 7.73828ZM2.625 4.59375C2.00977 4.59375 1.53125 4.11523 1.53125 3.5C1.53125 2.89844 2.00977 2.40625 2.625 2.40625C3.22656 2.40625 3.71875 2.89844 3.71875 3.5C3.71875 4.11523 3.22656 4.59375 2.625 4.59375Z" fill="#00EEF4"/>
</svg>
