<svg width="7" height="8" viewBox="0 0 7 8" fill="none" xmlns="http://www.w3.org/2000/svg">
<path d="M6.79492 5.82422L5.26367 5.16797C5.22266 5.1543 5.18164 5.14062 5.12695 5.14062C5.03125 5.14062 4.93555 5.19531 4.88086 5.26367L4.19727 6.09766C3.13086 5.5918 2.2832 4.74414 1.77734 3.67773L2.61133 2.99414C2.67969 2.93945 2.73438 2.84375 2.73438 2.73438C2.73438 2.69336 2.7207 2.65234 2.70703 2.61133L2.05078 1.08008C1.99609 0.957031 1.87305 0.875 1.73633 0.875C1.72266 0.875 1.69531 0.888672 1.66797 0.888672L0.246094 1.2168C0.0957031 1.25781 0 1.38086 0 1.53125C0 5.04492 2.83008 7.875 6.34375 7.875C6.49414 7.875 6.61719 7.7793 6.6582 7.62891L6.98633 6.20703C6.98633 6.17969 6.98633 6.15234 6.98633 6.13867C6.98633 6.00195 6.9043 5.87891 6.79492 5.82422Z" fill="#00EEF4"/>
</svg>
