<svg width="22" height="19" viewBox="0 0 22 19" fill="none" xmlns="http://www.w3.org/2000/svg">
<path d="M18.1875 7.46875C17.6016 7.46875 17.0938 7.70312 16.7031 8.09375C15.2969 7.11719 13.4219 6.49219 11.3516 6.45312L12.4453 1.57031L15.8828 2.35156C15.8828 3.17188 16.5469 3.875 17.4062 3.875C18.2656 3.875 18.9688 3.17188 18.9688 2.3125C18.9688 1.45312 18.2656 0.75 17.4062 0.75C16.8203 0.75 16.2734 1.14062 16.0391 1.60938L12.2109 0.789062C12.0156 0.710938 11.8594 0.867188 11.7812 1.0625L10.6094 6.41406C8.53906 6.53125 6.66406 7.15625 5.29688 8.09375C4.90625 7.70312 4.35938 7.46875 3.77344 7.46875C1.625 7.46875 0.882812 10.3984 2.875 11.375C2.79688 11.6875 2.79688 12 2.79688 12.3516C2.79688 15.6328 6.46875 18.25 11 18.25C15.5312 18.25 19.2422 15.6328 19.2422 12.3516C19.2422 12 19.2031 11.6875 19.125 11.375C21.0781 10.3594 20.3359 7.46875 18.1875 7.46875ZM6.03906 11.5703C6.03906 10.7109 6.74219 10.0469 7.60156 10.0469C8.42188 10.0469 9.125 10.7109 9.125 11.5703C9.125 12.4297 8.42188 13.1328 7.60156 13.1328C6.74219 13.1328 6.03906 12.4297 6.03906 11.5703ZM14.3984 15.2422C12.9922 16.6484 8.96875 16.6484 7.5625 15.2422C7.40625 15.0859 7.40625 14.8516 7.5625 14.6953C7.67969 14.5781 7.91406 14.5781 8.07031 14.6953C9.16406 15.8281 12.7578 15.8281 13.8906 14.6953C14.0078 14.5781 14.2812 14.5781 14.3984 14.6953C14.5547 14.8516 14.5547 15.0859 14.3984 15.2422ZM14.3594 13.1328C13.5391 13.1328 12.8359 12.4297 12.8359 11.5703C12.8359 10.7109 13.5391 10.0469 14.3594 10.0469C15.2188 10.0469 15.9219 10.7109 15.9219 11.5703C15.9219 12.4297 15.2188 13.1328 14.3594 13.1328Z" fill="white"/>
</svg>
