<svg width="315" height="36" viewBox="0 0 315 36" fill="none" xmlns="http://www.w3.org/2000/svg">
<path d="M60.7955 16.6589C60.7955 15.1794 60.7955 13.5432 60.7955 11.2977C62.5995 13.343 61.2986 15.2925 62.1311 16.9026C63.6402 17.5815 65.5395 16.511 67.4301 17.7817C65.5221 18.6955 63.805 17.947 62.1051 18.4866C61.3593 20.0445 62.426 22.0724 61.2032 24.1002C60.2665 22.0114 61.0297 20.1838 60.5093 18.4779C58.7835 17.9296 56.9362 18.7216 55.0022 17.8165C56.8235 16.3804 58.8702 17.712 60.7955 16.6589Z" fill="#D1D1D1"/>
<path d="M245.645 16.6589C245.645 15.1794 245.645 13.5432 245.645 11.2977C247.449 13.343 246.148 15.2925 246.98 16.9026C248.489 17.5815 250.389 16.511 252.279 17.7817C250.371 18.6955 248.654 17.947 246.954 18.4866C246.208 20.0445 247.275 22.0724 246.052 24.1002C245.116 22.0114 245.879 20.1838 245.358 18.4779C243.633 17.9296 241.785 18.7216 239.851 17.8165C241.681 16.3804 243.719 17.712 245.645 16.6589Z" fill="#D1D1D1"/>
<path d="M94.0551 16.9982C62.1483 16.9982 30.5538 16.9895 0.294871 16.9808C0.190799 17.4405 0.0867267 17.9001 0 18.3685C30.311 18.3858 62.0443 18.3945 94.1158 18.4032C94.0984 17.9348 94.0811 17.4665 94.0551 16.9982Z" fill="#F1F1F1"/>
<path d="M314.939 16.9982C283.033 16.9982 251.438 16.9895 221.179 16.9808C221.075 17.4405 220.971 17.9001 220.884 18.3685C251.195 18.3858 282.929 18.3945 315 18.4032C314.983 17.9348 314.965 17.4665 314.939 16.9982Z" fill="#F1F1F1"/>
<path d="M97.3855 34.1185C97.9665 32.7259 98.5476 31.3246 99.1373 29.932C99.094 29.5578 99.12 29.2183 99.597 29.1574L99.6057 29.14C101.071 25.4844 102.537 21.8202 103.985 18.1907C105.85 18.0689 107.489 17.9818 109.206 18.243C108.989 19.5746 108.391 20.68 107.923 21.8202C107.09 23.883 106.301 25.9631 105.295 27.9389C104.887 28.7396 105.503 29.2618 105.373 29.9233C106.023 31.1418 106.292 32.5431 107.073 33.7007C107.55 33.8574 107.532 34.2142 107.437 34.5972H107.42C107.593 34.5798 107.758 34.5624 107.931 34.5363C108.643 32.8652 109.362 31.1941 110.074 29.5142C111.652 25.7368 113.23 21.9594 114.826 18.1472C116.561 18.1472 118.217 18.1472 120.143 18.1472C119.353 20.123 118.642 21.9681 117.888 23.7872C117.359 25.0754 116.821 26.3635 116.205 27.6168C115.91 28.2261 115.91 28.8267 115.91 29.4533C116.613 31.0026 117.307 32.5518 118.009 34.1011C118.261 34.2404 118.521 34.3796 118.772 34.5102C119.527 32.7172 120.29 30.9242 121.044 29.1313C122.571 25.4757 123.95 21.7505 125.702 18.1385C127.41 18.1385 129.067 18.1385 130.931 18.1385C129.752 21.002 128.616 23.7524 127.488 26.5028C127.089 27.4689 126.621 28.4176 126.751 29.5142C127.48 31.1854 128.199 32.8478 128.928 34.5189C129.179 34.3796 129.44 34.2317 129.691 34.0924C130.281 32.6998 130.879 31.3072 131.469 29.9146C131.408 29.5404 131.408 29.1922 131.903 29.1052L131.911 29.0965C133.247 25.3887 134.834 21.7767 136.412 18.1559C138.173 18.0428 139.812 17.947 141.512 18.2168C141.356 19.8009 140.463 21.0107 139.977 22.3685C139.326 24.1963 138.589 26.0067 137.713 27.73C137.297 28.5481 137.713 29.1835 137.705 29.9059C138.312 31.2985 138.919 32.6911 139.517 34.0837C139.595 34.2491 139.682 34.4144 139.777 34.5711C139.934 34.5537 140.098 34.5363 140.254 34.5189C140.974 32.8478 141.694 31.1767 142.423 29.5142C143.992 25.7455 145.562 21.9681 147.158 18.1472C148.875 18.1472 150.523 18.1472 152.353 18.1472C151.867 20.1752 150.913 21.9246 150.219 23.7611C149.734 25.0667 149.161 26.3374 148.554 27.5907C148.259 28.2 148.242 28.7918 148.268 29.4185C148.953 30.9765 149.647 32.5344 150.332 34.0924C150.61 34.0924 150.896 34.0924 151.173 34.0924C151.867 32.5431 152.561 30.9939 153.255 29.4446C154.772 25.6498 156.264 21.8376 158.033 18.1298C159.768 18.1298 161.424 18.1298 163.168 18.1298C162.691 20.1143 161.702 21.7941 161.017 23.5957C160.522 24.8926 160.037 26.1981 159.456 27.4602C159.144 28.1304 159.117 28.8005 159.1 29.4968C159.82 31.168 160.54 32.8391 161.26 34.5189C161.511 34.3709 161.754 34.2317 162.005 34.0837C162.604 32.6911 163.211 31.3072 163.809 29.9146C164.92 27.2339 166.012 24.5357 167.148 21.8637C167.66 20.6539 167.972 19.3396 168.866 18.1907C170.453 17.9122 172.092 18.1298 173.792 18.0776C173.844 19.4528 173.063 20.3405 172.673 21.3502C171.884 23.3607 171.155 25.3974 170.236 27.3383C169.811 28.2348 169.863 29.0268 170.054 29.8972C170.643 31.2985 171.233 32.6911 171.823 34.0924C171.918 34.2578 172.014 34.4231 172.109 34.5885C172.274 34.5711 172.43 34.545 172.595 34.5276C173.323 32.8565 174.043 31.1941 174.772 29.523C176.324 25.7542 177.885 21.9942 179.49 18.1037C181.224 18.0863 182.933 17.9557 184.763 18.2081C183.444 21.9594 181.614 25.3974 180.504 29.1139C181.259 30.9155 182.005 32.7172 182.759 34.5189C183.011 34.3883 183.262 34.2491 183.522 34.1185C184.216 32.5779 184.919 31.0287 185.612 29.4881C187.156 25.7107 188.7 21.9246 190.235 18.1472C192.074 18.1472 193.73 18.1472 195.603 18.1472C194.45 20.9498 193.357 23.6218 192.256 26.3026C191.831 27.3296 191.319 28.3305 191.467 29.5055C192.169 31.1854 192.88 32.8652 193.583 34.545C194.086 34.4928 193.93 33.7442 194.459 33.7181C195.126 32.282 195.803 30.8459 196.471 29.4098C197.069 27.8518 197.624 26.2852 198.266 24.7446C199.168 22.5687 200.131 20.4102 201.076 18.2168C202.802 18.0167 204.45 18.0254 206.037 18.1994C206.331 18.8348 205.993 19.2352 205.811 19.6704C204.744 22.238 203.738 24.8404 202.576 27.3644C202.169 28.2609 202.143 29.0443 202.403 29.9146C202.993 31.3159 203.574 32.7085 204.163 34.1098C204.424 34.2578 204.684 34.4057 204.944 34.5537C205.664 32.8826 206.375 31.2115 207.095 29.5404C208.664 25.763 210.234 21.9855 211.813 18.1733C213.556 18.1733 215.204 18.1733 217.129 18.1733C216.6 19.4963 216.149 20.6887 215.663 21.8637C214.839 23.8568 214.007 25.8587 213.131 27.8257C212.888 28.3741 212.94 28.9137 212.931 29.462C213.617 31.02 214.31 32.5692 214.995 34.1272C215.282 34.1272 215.577 34.1272 215.863 34.1272C216.557 32.5867 217.259 31.0374 217.953 29.4968C219.184 26.4854 220.407 23.4739 221.639 20.4537C221.951 19.6878 222.281 18.9218 222.601 18.1559C222.723 17.8774 222.844 17.5989 222.966 17.3204C222.107 16.9809 222.15 16.0844 221.864 15.423C220.529 12.2548 219.254 9.06925 217.962 5.8837C217.268 4.34315 216.574 2.79389 215.871 1.25333C215.577 1.25333 215.282 1.25333 214.987 1.25333C214.302 2.81129 213.617 4.36055 212.931 5.91852C212.853 6.93685 213.322 7.80722 213.686 8.7037C214.822 11.4628 215.949 14.2305 217.138 17.1115C215.386 17.5031 213.729 17.1724 211.865 17.3378C210.278 13.4994 208.699 9.66981 207.112 5.84018C206.384 4.17778 205.655 2.50667 204.935 0.844258C204.77 0.826851 204.614 0.80074 204.45 0.783333C204.354 0.948703 204.259 1.11407 204.163 1.27074C203.574 2.67204 202.993 4.06463 202.403 5.46592C202.212 6.25796 202.091 6.97166 202.481 7.82463C203.704 10.4793 204.77 13.2035 205.907 15.9017C206.071 16.2846 206.297 16.6502 206.045 17.1898C204.519 17.1898 202.932 17.1898 201.111 17.1898C199.463 13.5691 197.867 9.81777 196.479 5.97074C195.768 4.40407 195.057 2.84611 194.346 1.27944C194.094 1.13148 193.852 0.983518 193.6 0.844258C192.889 2.52407 192.169 4.19518 191.458 5.875C191.31 7.19796 191.935 8.31203 192.412 9.46092C193.296 11.5846 194.233 13.6822 195.118 15.8059C195.291 16.2324 195.378 16.6937 195.525 17.2333C193.739 17.2333 192.082 17.2333 190.244 17.2333C188.7 13.4646 187.156 9.67851 185.612 5.90111C184.919 4.35185 184.225 2.81129 183.531 1.26204C183.28 1.13148 183.028 1.00093 182.777 0.861666C182.013 2.65463 181.25 4.45629 180.487 6.24926C181.51 9.57407 183.106 12.6639 184.32 15.9104C184.459 16.2846 184.78 16.6241 184.632 17.1724C183.019 17.4161 181.363 17.2681 179.507 17.2681C177.946 13.4907 176.367 9.66111 174.789 5.84018C174.061 4.17778 173.332 2.50667 172.603 0.844258C172.447 0.826851 172.291 0.809444 172.135 0.800741C172.031 0.957407 171.936 1.12278 171.84 1.27944C171.251 2.68074 170.669 4.07333 170.08 5.47463C169.863 6.345 169.837 7.11963 170.253 8.02481C171.424 10.5489 172.43 13.1513 173.497 15.7189C173.679 16.1628 174.008 16.5718 173.714 17.1985C172.179 17.1985 170.6 17.1985 168.805 17.1985C167.018 13.395 165.466 9.4087 163.853 5.44852C163.246 4.05592 162.639 2.67204 162.032 1.27944C161.936 1.11407 161.849 0.948703 161.754 0.783333C161.607 0.809444 161.459 0.826851 161.303 0.852962C160.575 2.52407 159.855 4.19518 159.126 5.86629C159.091 8.05092 160.349 9.81777 161.069 11.75C161.737 13.5517 162.526 15.3098 163.315 17.2246C161.511 17.2246 159.924 17.2246 158.077 17.2246C156.325 13.6213 154.859 9.73944 153.289 5.90111C152.596 4.35185 151.902 2.80259 151.208 1.25333C150.922 1.25333 150.636 1.25333 150.349 1.26204C149.656 2.82 148.97 4.36926 148.277 5.92722C148.337 7.94648 149.482 9.60018 150.159 11.4018C150.861 13.2818 151.676 15.1183 152.492 17.1028C150.722 17.4596 149.075 17.2246 147.227 17.2768C145.649 13.4907 144.044 9.66981 142.449 5.84018C141.72 4.16907 141 2.50666 140.272 0.835554C140.116 0.818147 139.968 0.809444 139.812 0.792037C139.708 0.94 139.613 1.10537 139.535 1.27074C138.936 2.66333 138.329 4.05592 137.731 5.44852C137.479 6.39722 137.592 7.25018 138.026 8.19018C139.248 10.8448 140.315 13.5778 141.434 16.2846C141.538 16.5457 141.573 16.8155 141.373 17.1898C139.856 17.1898 138.277 17.1898 136.482 17.1898C134.678 13.4037 133.16 9.39129 131.512 5.43981C130.827 3.89055 130.151 2.3413 129.466 0.792037C129.301 0.809444 129.136 0.826851 128.971 0.844258C128.243 2.51537 127.514 4.17778 126.786 5.84889C126.768 7.95518 127.957 9.67852 128.642 11.5585C129.318 13.4385 130.316 15.1967 130.897 17.2246C129.145 17.2246 127.488 17.2246 125.736 17.2246C123.941 13.5343 122.51 9.69592 120.949 5.91852C120.229 4.23 119.501 2.55018 118.781 0.861666C118.538 1.00093 118.295 1.13148 118.052 1.27074C117.35 2.82 116.647 4.36055 115.945 5.90981C115.876 7.90296 117.159 9.43481 117.758 11.193C118.425 13.16 119.327 15.0487 120.177 17.1115C118.347 17.4596 116.647 17.2768 114.878 17.242C113.274 13.4124 111.687 9.635 110.108 5.85759C109.388 4.18648 108.669 2.51537 107.949 0.844258C107.793 0.826851 107.637 0.809444 107.472 0.792037C107.281 1.06185 107.368 1.44481 107.099 1.67981C106.535 2.94185 105.971 4.19518 105.408 5.45722C105.208 6.32759 105.174 7.11092 105.598 8.01611C106.865 10.7317 107.957 13.5256 109.111 16.2846C109.224 16.5457 109.241 16.8155 109.076 17.1898C107.541 17.1898 105.954 17.1898 104.107 17.1898C102.494 13.3428 100.829 9.4 99.172 5.44852C98.5823 4.05592 98.0012 2.66333 97.4115 1.27074C96.735 1.10537 97.2987 0.16537 96.6223 0C96.4662 0.30463 96.2753 0.600555 96.1453 0.922592C94.2199 5.53555 92.3033 10.1485 90.3779 14.7615C90.005 15.6493 89.7622 16.598 89.0684 17.3204C89.1811 17.625 89.2938 17.9296 89.4066 18.2343C90.2045 20.1665 90.9763 22.1074 91.7916 24.0396C93.3873 27.8257 95.0005 31.6118 96.6136 35.3979C97.2814 35.2326 96.709 34.2839 97.3855 34.1185Z" fill="#F1F1F1"/>
<path d="M21.7337 27.9213C27.3617 27.9213 31.9241 23.3426 31.9241 17.6946C31.9241 12.0466 27.3617 7.46802 21.7337 7.46802C16.1057 7.46802 11.5433 12.0466 11.5433 17.6946C11.5433 23.3426 16.1057 27.9213 21.7337 27.9213Z" fill="#00EEF4"/>
<path d="M291.003 29.0442C296.631 29.0442 301.193 24.4655 301.193 18.8174C301.193 13.1693 296.631 8.59058 291.003 8.59058C285.375 8.59058 280.812 13.1693 280.812 18.8174C280.812 24.4655 285.375 29.0442 291.003 29.0442Z" fill="#F4005E"/>
<path d="M42.5308 12.0459C39.2959 11.8196 36.113 14.5351 36.0263 18.3212C35.9483 21.7417 38.8449 24.7706 42.262 24.7793C46.4856 24.788 48.7405 21.3065 48.7405 18.5823C48.7491 14.9268 46.1126 12.0981 42.5308 12.0459ZM42.3227 24.0656C39.5127 24.1787 36.6161 21.5328 36.7375 18.269C36.8502 15.1531 39.2959 12.6899 42.4181 12.6987C45.5749 12.7074 48.1334 15.2836 48.0987 18.4256C48.064 21.5763 45.4882 24.0917 42.3227 24.0656Z" fill="#E7E7E7"/>
<path d="M266.971 12.0459C263.736 11.8196 260.553 14.5351 260.466 18.3212C260.388 21.7417 263.285 24.7706 266.702 24.7793C270.926 24.788 273.18 21.3065 273.18 18.5823C273.189 14.9268 270.561 12.0981 266.971 12.0459ZM266.763 24.0656C263.953 24.1787 261.056 21.5328 261.177 18.269C261.29 15.1531 263.736 12.6899 266.858 12.6987C270.015 12.7074 272.573 15.2836 272.539 18.4256C272.504 21.5763 269.928 24.0917 266.763 24.0656Z" fill="#E7E7E7"/>
</svg>
