<svg width="116" height="612" viewBox="0 0 116 612" fill="none" xmlns="http://www.w3.org/2000/svg">
<g opacity="0.4">
<path d="M111.531 236.202C114.59 239.199 115.725 242.317 115.725 246.711C115.612 358.002 115.644 469.301 115.644 580.592C115.644 589.195 115.676 597.798 115.604 606.402C115.588 608.114 116.32 610.142 114.348 611.37C113.535 611.523 113.012 611.208 112.601 610.699C112.795 610.505 112.988 610.311 113.181 610.117C113.736 608.34 113.6 606.498 113.6 604.673C113.6 485.304 113.583 365.927 113.68 246.558C113.68 242.939 112.658 240.402 110.203 237.939C103.377 231.08 96.849 223.899 90.0071 217.057C87.536 214.585 86.5379 212.048 86.5459 208.429C86.6506 157.53 86.5701 106.63 86.6988 55.7386C86.7069 51.5461 85.5478 48.6058 82.6903 45.6976C71.1315 33.936 59.7498 21.9886 48.4245 9.98468C46.2995 7.73089 44.1584 6.72119 41.0916 6.72924C27.3917 6.76159 13.6999 6.7616 -6.89408e-06 6.77771L-7.27477e-06 2.40753C0.152929 2.2298 0.297815 2.04401 0.434653 1.84204C1.48106 0.307251 3.05067 0.266845 4.67663 0.266845C17.6682 0.291075 30.6597 0.315305 43.6432 0.234554C45.7521 0.21838 47.2493 0.913082 48.7304 2.46405C62.3337 16.7541 75.9852 30.9875 89.6771 45.1887C91.1501 46.7155 91.9067 48.2584 91.8826 50.4718C91.786 58.8891 91.8423 67.3144 91.8584 75.7317C91.8584 77.2262 91.8906 78.761 90.6188 79.7385C88.4214 81.4187 88.6226 83.7855 88.6226 86.1847C88.6387 126.825 88.6629 167.458 88.5663 208.098C88.5582 211.313 89.5403 213.567 91.6975 215.748C98.3784 222.485 104.761 229.562 111.531 236.202Z" fill="#E5E5E5"/>
</g>
<g opacity="0.2">
<path d="M96.1105 567.613C97.2505 568.125 96.4505 568.787 96.2505 569.409C94.1705 570.965 92.5805 573.022 90.6705 574.758C89.7705 575.581 89.6505 576.615 89.6705 577.749C89.7105 580.218 89.6905 608.779 89.6905 611.328C88.4205 611.268 88.4305 610.586 88.4305 609.893C88.4305 607.214 88.4305 578.431 88.4305 575.842C86.1205 572.942 83.1205 570.874 81.1005 567.914C81.0405 567.834 81.2505 567.573 81.4805 567.071C84.1905 569.279 86.3605 571.948 89.0905 574.387C91.4605 572.099 93.7805 569.851 96.1105 567.613Z" fill="#CFCFCF"/>
<path d="M81.6805 376.121C80.5405 375.61 81.3405 374.947 81.5405 374.325C83.6205 372.769 85.2105 370.712 87.1205 368.976C88.0205 368.153 88.1405 367.119 88.1205 365.985C88.0805 363.517 88.1105 334.955 88.1105 332.416C89.3805 332.476 89.3705 333.159 89.3705 333.851C89.3705 336.531 89.3705 365.313 89.3705 367.902C91.6805 370.802 94.6805 372.87 96.7005 375.83C96.7605 375.911 96.5505 376.172 96.3205 376.673C93.6105 374.465 91.4405 371.796 88.7105 369.357C86.3305 371.635 84.0105 373.873 81.6805 376.121Z" fill="#CFCFCF"/>
<path d="M80.0305 492.977C79.8105 495.065 80.6205 496.56 82.0905 497.985C86.5905 502.371 90.9705 506.867 95.4305 511.303C96.0405 511.905 96.4805 512.788 97.6305 512.898C97.5105 510.54 98.0905 508.232 97.6305 505.662C92.0005 500.032 86.2605 494.292 80.0705 488.11C80.0605 490.087 80.1805 491.542 80.0305 492.977Z" fill="#CFCFCF"/>
<path d="M81.9005 500.976C81.4505 500.534 81.1306 499.731 80.1406 500.082C80.1406 502.33 80.1406 504.609 80.1406 507.268C85.7905 512.778 91.5905 518.448 97.8005 524.509C97.8005 522.542 97.7905 520.957 97.8005 519.381C97.8105 517.595 97.1505 516.19 95.8505 514.915C91.1505 510.309 86.5505 505.612 81.9005 500.976Z" fill="#CFCFCF"/>
<path d="M80.1506 484.648C85.8806 490.388 91.5506 496.058 97.2106 501.738C97.3906 501.648 97.5606 501.558 97.7406 501.477C96.8106 499.139 98.2306 496.851 97.8506 495.326C91.5606 489.053 85.8006 483.313 80.1506 477.673C80.1506 479.7 80.1506 482.048 80.1506 484.648Z" fill="#CFCFCF"/>
<path d="M80.1506 473.317C85.8506 479.028 91.5005 484.688 97.6105 490.799C97.6105 487.869 97.6105 485.641 97.6105 483.604C91.7305 477.753 85.9106 471.952 80.1506 466.212C80.1506 468.33 80.1506 470.678 80.1506 473.317Z" fill="#CFCFCF"/>
<path d="M80.1005 540.446C85.5705 545.926 90.8105 551.164 96.0605 556.423C96.5905 555.951 97.2705 555.379 97.7205 554.556C97.7205 553.392 97.7205 552.208 97.7205 551.746C91.5205 545.554 85.7205 539.764 80.1005 534.164C80.1005 536.01 80.1005 538.288 80.1005 540.446Z" fill="#CFCFCF"/>
<path d="M80.1305 551.365C83.8805 555.158 87.2005 558.52 90.5505 561.902C91.4605 560.989 92.5805 559.875 93.5605 558.902C88.9205 554.275 84.4505 549.82 80.1405 545.514C80.1305 547.471 80.1305 549.83 80.1305 551.365Z" fill="#CFCFCF"/>
<path d="M80.1606 518.167C83.4306 522.051 95.4105 533.823 97.3805 535.067C98.2505 532.829 97.3505 530.551 97.7205 528.885C91.7705 522.884 86.1005 517.173 80.1606 511.192C80.1606 513.641 80.1606 515.909 80.1606 518.167Z" fill="#CFCFCF"/>
<path d="M80.1606 454.952C80.1606 457.27 80.1606 459.538 80.1606 461.475C86.0906 467.416 91.8405 473.177 97.7305 479.068C97.7305 476.679 97.7305 474.301 97.7305 472.003C93.2905 466.794 82.1306 455.946 80.1606 454.952Z" fill="#CFCFCF"/>
<path d="M80.1105 522.352C80.1105 524.73 80.1105 527.109 80.1105 529.216C85.9405 535.067 91.6105 540.757 97.6005 546.779C97.8605 545.023 97.4205 543.497 97.6305 542.162C98.0505 539.583 96.5405 538.329 95.0805 536.873C90.6505 532.438 86.2305 527.992 81.7905 523.576C81.3205 523.094 80.9805 522.402 80.1105 522.352Z" fill="#CFCFCF"/>
<path d="M80.0405 390.593C80.0405 391.737 80.0405 392.821 80.0405 393.855C83.9105 398.351 95.4705 409.711 97.7905 411.176C97.7905 408.657 97.7905 406.489 97.7905 404.502C92.4505 399.143 87.1905 393.885 81.9105 388.586C81.2305 389.088 80.5005 389.74 80.0405 390.593Z" fill="#CFCFCF"/>
<path d="M84.1506 386.368C86.2406 389.218 95.3205 398.2 97.2705 399.384C98.3205 396.895 98.2705 393.353 96.8505 391.837C93.9505 388.746 90.9005 385.796 87.8305 382.715C86.3306 383.939 85.1706 385.103 84.1506 386.368Z" fill="#CFCFCF"/>
<path d="M80.0905 398.471C79.8805 400.759 80.0305 402.907 79.9905 404.603C86.0605 410.684 91.7205 416.355 97.3105 421.945C98.0505 420.489 98.0505 420.489 97.7605 415.632C93.1205 410.323 82.4205 399.856 80.0905 398.471Z" fill="#CFCFCF"/>
<path d="M81.8705 444.585C81.4305 444.154 81.1205 443.321 80.1305 443.762C80.1305 445.92 80.1305 448.098 80.1305 450.777C85.8406 456.447 91.6006 462.178 97.3706 467.908C97.2306 466.483 97.6306 465.178 97.7806 463.864C98.0206 461.776 97.4706 460.07 95.8406 458.515C91.1106 453.958 86.5306 449.222 81.8705 444.585Z" fill="#CFCFCF"/>
<path d="M74.0405 388.194C74.0405 393.634 74.0805 399.625 74.0005 405.606C73.9805 406.75 74.6005 407.353 75.2405 407.985C75.2405 409.069 75.2405 410.072 75.2405 411.066C75.2405 451.72 75.2505 492.375 75.2005 533.03C75.2005 534.766 76.0605 536.793 74.1205 538.198C73.9705 538.309 74.0505 538.77 74.0505 539.071C74.0505 544.952 74.0505 550.833 74.0505 556.343C79.3205 561.642 84.3105 566.659 89.7405 572.129C90.3705 571.286 90.9305 570.302 91.7005 569.55C95.6105 565.716 99.2605 561.622 103.391 558.019C103.531 557.447 103.781 556.875 103.781 556.303C103.811 550.241 103.801 544.179 103.801 538.248C103.431 537.606 102.561 537.596 102.601 537.154C102.601 528.765 102.591 520.716 102.611 512.657C102.621 508.382 102.681 504.107 102.721 499.842C102.691 498.848 102.621 497.855 102.621 496.851C102.611 468.279 102.611 439.718 102.611 411.146C102.611 410.052 102.611 408.958 102.611 407.895C103.621 407.413 103.831 406.65 103.821 405.667C103.791 399.976 103.801 394.286 103.801 388.756C98.5905 383.578 93.5105 378.53 88.6105 373.663C83.9205 378.319 79.1505 383.096 74.0405 388.194ZM100.181 389.901C100.181 394.788 100.151 399.675 100.201 404.563C100.211 405.657 99.7505 406.851 101.101 407.754C101.791 408.216 101.361 409.45 101.361 410.333C101.381 426.912 101.371 443.491 101.371 460.06C101.371 485.621 101.371 511.192 101.371 536.984C101.431 537.546 100.551 537.546 100.181 538.178C100.181 543.929 100.181 549.82 100.181 555.49C96.4305 559.203 92.8405 562.776 89.4305 566.148C85.7705 562.475 81.9905 558.691 77.6305 554.326C77.6305 550.974 77.6305 546.698 77.6305 542.413C77.6305 541.51 77.5405 540.607 77.6505 539.724C77.8105 538.519 77.3705 537.656 76.4305 537.114C76.4305 499.812 76.4305 462.659 76.4305 425.517C76.4305 420.921 76.3705 416.325 76.4605 411.738C76.4905 410.092 75.7405 408.236 77.4905 406.831C77.8405 406.55 77.6105 405.496 77.6105 404.804C77.6205 399.615 77.6105 394.427 77.6105 389.389C81.2705 385.756 84.7905 382.263 88.5905 378.5C92.5305 382.053 96.2105 386.047 100.181 389.901Z" fill="#CFCFCF"/>
<path d="M80.4405 409.922C79.7005 410.815 80.1105 411.738 79.9805 412.581C79.5105 415.512 80.6705 417.669 82.7905 419.676C86.9905 423.64 90.9705 427.825 95.0606 431.9C95.7406 432.582 96.2706 433.475 97.8806 433.947C97.8806 431.619 97.9506 429.551 97.8406 427.484C97.8006 426.741 97.4406 425.959 96.7106 425.507C95.2606 424.594 94.2106 423.239 93.0205 422.055C89.5505 418.623 86.1305 415.14 82.6705 411.708C82.0105 411.056 81.4705 410.152 80.4405 409.922Z" fill="#CFCFCF"/>
<path d="M79.9605 424.885C79.7505 427.143 80.4505 428.949 82.1805 430.415C83.0105 431.117 83.7305 431.95 84.5005 432.723C88.0806 436.316 91.6506 439.908 95.2306 443.481C95.8906 444.133 96.4806 445.147 97.7806 444.324C97.7806 442.387 97.7806 440.42 97.7806 439.296C91.5106 433.014 85.6705 427.153 79.9705 421.443C79.9805 422.316 80.0805 423.61 79.9605 424.885Z" fill="#CFCFCF"/>
<path d="M89.4105 440.591C86.6805 437.5 83.0005 435.473 80.2905 432.151C79.9705 434.569 79.9805 436.918 80.0105 439.226C85.3605 445.207 91.1305 450.727 97.0205 456.497C98.8805 452.925 97.8105 448.991 95.6205 446.843C93.5105 444.806 91.3505 442.789 89.4105 440.591Z" fill="#CFCFCF"/>
</g>
</svg>
