<svg width="796" height="612" viewBox="0 0 796 612" fill="none" xmlns="http://www.w3.org/2000/svg">
<path opacity="0.2" d="M252 405L252 451" stroke="white"/>
<path opacity="0.2" d="M383 405L383 451" stroke="white"/>
<path opacity="0.2" d="M513 395L513 451" stroke="white"/>
<path opacity="0.2" d="M644 395L644 451" stroke="white"/>
<path opacity="0.2" d="M774 395L774 451" stroke="white"/>
<path opacity="0.2" d="M30.1671 422.233L795.5 422.233" stroke="white"/>
<g opacity="0.2">
<path d="M111.531 375.387C114.59 372.39 115.725 369.272 115.725 364.878C115.612 253.587 115.644 142.288 115.644 30.9968C115.644 22.3937 115.676 13.7906 115.604 5.18754C115.588 3.475 116.32 1.44741 114.348 0.219554C113.535 0.0660718 113.012 0.381115 112.601 0.890031C112.795 1.0839 112.988 1.27778 113.181 1.47165C113.736 3.24881 113.6 5.0906 113.6 6.91624C113.6 126.285 113.584 245.662 113.68 365.031C113.68 368.65 112.658 371.187 110.203 373.651C103.377 380.509 96.849 387.69 90.0071 394.532C87.536 397.004 86.5379 399.541 86.5459 403.16C86.6506 454.059 86.5701 504.959 86.6989 555.851C86.7069 560.043 85.5478 562.983 82.6903 565.892C71.1316 577.653 59.7499 589.601 48.4245 601.605C46.2995 603.858 44.1584 604.868 41.0916 604.86C27.3917 604.828 13.6999 604.828 0 604.812V609.182C0.152936 609.359 0.297823 609.545 0.434661 609.747C1.48107 611.282 3.05068 611.322 4.67664 611.322C17.6682 611.298 30.6597 611.274 43.6432 611.355C45.7522 611.371 47.2493 610.676 48.7304 609.125C62.3337 594.835 75.9853 580.602 89.6771 566.401C91.1501 564.874 91.9068 563.331 91.8826 561.117C91.786 552.7 91.8424 544.275 91.8585 535.857C91.8585 534.363 91.8907 532.828 90.6189 531.851C88.4214 530.171 88.6227 527.804 88.6227 525.404C88.6388 484.764 88.6629 444.131 88.5663 403.491C88.5583 400.276 89.5403 398.022 91.6975 395.841C98.3784 389.104 104.761 382.028 111.531 375.387Z" fill="#E5E5E5"/>
</g>
</svg>
