<svg width="146" height="245" viewBox="0 0 146 245" fill="none" xmlns="http://www.w3.org/2000/svg">
<g opacity="0.4">
<path d="M108.685 203.584C112.833 200.692 117.103 197.958 120.822 194.506C124.517 191.078 127.974 187.439 130.943 183.34C133.964 179.171 136.532 174.751 138.618 170.04C140.704 165.341 142.226 160.46 143.33 155.434C144.416 150.478 144.678 145.469 144.736 140.42C144.794 135.301 144.068 130.257 143.213 125.19C144.335 125.161 144.41 125.779 144.509 126.327C148.024 145.755 144.829 163.9 134.144 180.588C128.253 189.789 120.595 197.206 111.317 202.937C110.294 203.573 110.294 203.573 108.685 203.584Z" fill="white"/>
<path d="M1.43859 140.175C2.53668 143.382 2.06607 146.752 2.59478 150.035C3.1351 153.388 3.69867 156.723 4.57598 160C5.45328 163.277 6.55718 166.478 7.93415 169.585C9.31111 172.687 10.8275 175.714 12.5996 178.617C14.3716 181.527 16.3354 184.296 18.5199 186.885C20.7103 189.474 22.9878 191.987 25.5674 194.214C28.1354 196.436 30.7441 198.593 33.5794 200.459C36.4089 202.325 39.3719 203.94 42.3931 205.491C45.3737 207.019 48.6214 207.893 51.8343 209.45C51.0674 210.278 50.4632 209.98 49.8764 209.776C37.1758 205.31 26.4273 198.004 17.7588 187.649C9.08452 177.288 3.87877 165.347 1.71746 152.047C1.08998 148.134 0.718159 144.175 1.43859 140.175Z" fill="white"/>
<path d="M110.108 78.9761C107.581 78.3406 105.571 76.8537 103.363 75.8742C100.981 74.813 98.5755 73.8101 96.1004 72.9996C93.7184 72.2183 91.3305 71.4312 88.8554 70.9939C86.3862 70.5566 83.9344 69.9677 81.4477 69.7053C78.8565 69.4312 76.2362 69.4079 73.6275 69.3904C71.1118 69.3788 68.5903 69.3846 66.092 69.6237C63.5995 69.8627 61.1302 70.3408 58.6668 70.8131C56.1104 71.3029 53.6122 72.0492 51.1313 72.8597C48.7434 73.641 46.402 74.5331 44.1187 75.5885C41.8412 76.6438 39.6043 77.7808 37.4314 79.0577C35.1713 80.3813 32.9868 81.7982 30.9068 83.3783C28.9488 84.8651 27.0432 86.4219 25.091 87.9729C24.4054 86.8709 25.2944 86.5794 25.7185 86.2004C31.1566 81.3026 37.2745 77.431 43.9386 74.4573C54.443 69.7636 65.4645 67.6704 76.9392 68.2476C88.2977 68.819 98.9938 71.851 108.917 77.5009C109.394 77.7808 110.01 77.9091 110.108 78.9761Z" fill="white"/>
<path d="M8.86373 187.952C8.86954 189.497 8.21301 189.835 7.76565 190.29C6.06916 192.022 4.41334 193.795 2.61808 195.421C1.43867 196.488 1.04359 197.654 1.0494 199.235C1.1075 213.217 1.09007 227.204 1.06683 241.187C1.06683 242.201 1.32829 243.274 0.822823 244.259C-0.321727 244.038 0.061727 243.186 0.0617271 242.609C0.0384886 228.044 0.0442885 213.473 0.0326695 198.908C0.0326696 197.818 0.0849701 196.774 0.915786 195.94C3.42567 193.421 5.93554 190.897 8.86373 187.952Z" fill="white"/>
<path d="M138.479 77.7789C138.827 76.3125 138.697 74.7374 138.697 73.2012C138.705 50.3435 138.697 27.4935 138.712 4.63584C138.712 3.26251 138.534 1.8116 138.92 0.391723C139.369 1.26072 139.206 2.30041 139.206 3.21596C139.213 27.1056 139.217 50.9875 139.202 74.8771C139.202 76.0875 139.45 77.5074 138.801 78.4384C138.475 78.6789 138.33 78.5393 138.479 77.7789Z" fill="white"/>
<path d="M138.199 77.6699C138.252 77.9556 138.409 78.1364 138.705 78.1714C135.614 81.8973 132.029 85.1392 128.584 88.5152C128.479 88.6143 128.224 88.5619 128.032 88.5793C127.968 88.5152 127.881 88.4511 127.84 88.3694C127.806 88.2936 127.782 88.1537 127.829 88.1012C131.007 84.3462 134.603 81.0051 138.199 77.6699Z" fill="white"/>
<path d="M28.9373 174.884C28.3098 174.797 27.8683 174.448 27.9031 173.803C27.938 173.176 28.397 172.781 29.0361 172.833C29.5241 172.874 29.9076 173.257 29.9308 173.757C29.9657 174.39 29.5822 174.779 28.9373 174.884Z" fill="white"/>
<path d="M114.489 104.908C114.716 104.321 115.111 103.856 115.732 104.019C116.278 104.158 116.743 104.612 116.522 105.274C116.377 105.704 116.046 106.134 115.494 106.035C114.89 105.93 114.524 105.541 114.489 104.908Z" fill="white"/>
<path d="M96.2399 191.849C96.1876 192.477 95.8448 192.872 95.2231 192.942C94.6712 193.006 94.34 192.576 94.218 192.146C94.0321 191.495 94.4853 191.042 95.043 190.926C95.6589 190.809 96.0539 191.245 96.2399 191.849Z" fill="white"/>
<path d="M121.136 167.396C121.211 166.815 121.484 166.385 122.03 166.437C122.501 166.478 122.948 166.797 122.954 167.355C122.96 168.029 122.547 168.43 121.885 168.383C121.304 168.343 121.182 167.837 121.136 167.396Z" fill="white"/>
<path d="M108.156 185.309C106.547 184.397 106.547 184.397 108.034 183.276C108.865 183.921 108.906 184.566 108.156 185.309Z" fill="white"/>
<path d="M19.6355 154.722C19.0313 154.658 18.6129 154.362 18.642 153.833C18.671 153.357 19.0313 152.933 19.5716 152.921C20.2281 152.91 20.6697 153.293 20.6116 153.967C20.5651 154.536 20.0771 154.693 19.6355 154.722Z" fill="white"/>
<path d="M104.159 96.0474C103.467 95.1526 103.752 94.6297 104.211 94.1707C104.978 94.1243 105.518 94.3508 105.536 95.0422C105.565 95.9021 104.99 96.1694 104.159 96.0474Z" fill="white"/>
<path d="M25.0155 168.512C24.3415 168.512 24.0162 168.093 24.0103 167.652C24.0045 167.21 24.3183 166.769 24.876 166.722C25.3931 166.682 25.8231 166.891 25.887 167.431C25.9683 168.093 25.5616 168.436 25.0155 168.512Z" fill="white"/>
<path d="M129.612 138.878C129.572 139.36 129.438 139.819 128.88 139.883C128.23 139.953 127.829 139.575 127.736 138.948C127.654 138.402 128.009 138.024 128.485 137.937C129.13 137.826 129.49 138.245 129.612 138.878Z" fill="white"/>
<path d="M98.4245 92.2287C97.8435 92.2694 97.4891 92.0021 97.431 91.456C97.3787 90.9331 97.6169 90.5264 98.1921 90.4741C98.7324 90.4218 99.1217 90.6949 99.1914 91.2352C99.2669 91.793 98.9125 92.0893 98.4245 92.2287Z" fill="white"/>
<path d="M20.4314 125.441C19.9259 125.319 19.5948 124.999 19.6587 124.447C19.7226 123.907 20.0944 123.599 20.6406 123.651C21.1925 123.703 21.4772 124.093 21.4249 124.633C21.3726 125.179 21.0066 125.452 20.4314 125.441Z" fill="white"/>
<path d="M87.2926 194.509C87.4262 194.003 87.6179 193.556 88.1931 193.527C88.7335 193.498 89.1576 193.759 89.1924 194.317C89.2273 194.857 88.8322 195.188 88.3268 195.281C87.7225 195.392 87.5134 194.915 87.2926 194.509Z" fill="white"/>
<path d="M118.039 174.686C117.574 174.535 117.185 174.297 117.167 173.751C117.15 173.228 117.388 172.804 117.934 172.798C118.562 172.786 118.986 173.152 118.963 173.826C118.945 174.378 118.498 174.564 118.039 174.686Z" fill="white"/>
<path d="M51.8518 191.177C52.3747 191.241 52.7814 191.479 52.7756 192.054C52.7756 192.594 52.427 192.978 51.8983 193.001C51.3521 193.03 51.0093 192.629 50.9745 192.106C50.9454 191.554 51.3057 191.258 51.8518 191.177Z" fill="white"/>
<path d="M25.9451 111.24C25.9393 110.711 26.1252 110.293 26.7004 110.24C27.2407 110.188 27.63 110.473 27.7055 111.013C27.7869 111.565 27.4557 111.925 26.9328 112.013C26.3634 112.106 26.0613 111.769 25.9451 111.24Z" fill="white"/>
<path d="M17.939 131.671C18.0203 131.183 18.3573 130.759 19.0313 130.834C19.589 130.898 19.7749 131.357 19.7401 131.868C19.6994 132.426 19.2579 132.763 18.8047 132.746C18.3747 132.728 17.9274 132.415 17.939 131.671Z" fill="white"/>
<path d="M49.3187 91.3978C49.3361 91.9207 49.0165 92.2577 48.4878 92.3042C47.9533 92.3506 47.5699 92.0718 47.5408 91.4908C47.5118 90.9388 47.8023 90.5554 48.3484 90.5147C48.8945 90.4682 49.2083 90.8226 49.3187 91.3978Z" fill="white"/>
<path d="M123.709 118.35C123.053 118.368 122.664 118.014 122.6 117.38C122.559 116.968 122.85 116.695 123.239 116.584C123.913 116.398 124.349 116.73 124.471 117.351C124.575 117.868 124.203 118.188 123.709 118.35Z" fill="white"/>
<path d="M17.3057 138.983C17.4103 138.472 17.7299 138.152 18.2876 138.222C18.8221 138.292 19.1475 138.652 19.0836 139.204C19.0197 139.744 18.6478 140.052 18.0959 139.994C17.5498 139.936 17.2767 139.57 17.3057 138.983Z" fill="white"/>
<path d="M126.022 160.801C125.906 161.312 125.58 161.643 125.034 161.579C124.494 161.521 124.174 161.155 124.232 160.609C124.29 160.069 124.674 159.767 125.214 159.819C125.76 159.871 126.028 160.237 126.022 160.801Z" fill="white"/>
<path d="M126.016 125.27C125.476 125.119 125.266 124.742 125.296 124.23C125.33 123.667 125.789 123.33 126.213 123.37C126.794 123.417 127.253 123.859 127.05 124.544C126.917 124.997 126.545 125.294 126.016 125.27Z" fill="white"/>
<path d="M110.532 100.665C110.044 100.538 109.597 100.34 109.58 99.759C109.562 99.2303 109.806 98.7829 110.37 98.7597C110.904 98.7364 111.247 99.1257 111.334 99.6312C111.439 100.23 110.968 100.45 110.532 100.665Z" fill="white"/>
<path d="M91.3479 89.3428C90.8367 89.2324 90.4881 88.9303 90.5462 88.3783C90.6043 87.8438 90.9645 87.5243 91.5164 87.5708C92.0742 87.6172 92.3589 88.0007 92.3182 88.5352C92.2833 89.0871 91.9057 89.3428 91.3479 89.3428Z" fill="white"/>
<path d="M62.1761 87.5176C61.6648 87.4072 61.3685 87.0528 61.415 86.5183C61.4672 85.9663 61.8449 85.67 62.3968 85.7339C62.9314 85.7978 63.2741 86.1464 63.1928 86.71C63.1231 87.2329 62.7745 87.535 62.1761 87.5176Z" fill="white"/>
<path d="M18.3457 147.516C17.8344 147.44 17.4684 147.074 17.4742 146.418C17.48 145.959 17.8692 145.744 18.2178 145.691C18.8744 145.593 19.3624 145.999 19.3798 146.621C19.3915 147.051 19.0545 147.498 18.3457 147.516Z" fill="white"/>
<path d="M42.0154 96.2226C41.5041 96.1413 41.1439 95.8275 41.1323 95.3221C41.1149 94.6539 41.5506 94.3344 42.2013 94.4099C42.7359 94.4738 43.0147 94.8457 42.945 95.3744C42.8811 95.8798 42.5441 96.182 42.0154 96.2226Z" fill="white"/>
<path d="M58.6842 195.339C58.1787 195.234 57.9172 194.874 57.9637 194.334C58.0102 193.759 58.4053 193.491 58.9398 193.561C59.4743 193.625 59.7997 193.997 59.7241 194.555C59.6428 195.083 59.3 195.38 58.6842 195.339Z" fill="white"/>
<path d="M77.8688 85.4917C77.8223 86.032 77.5492 86.4097 76.9857 86.4155C76.4453 86.4213 76.0677 86.1018 76.0503 85.5498C76.0328 84.9979 76.3989 84.6435 76.9276 84.6144C77.4911 84.5796 77.7816 84.9572 77.8688 85.4917Z" fill="white"/>
<path d="M73.4067 197.251C72.9071 197.187 72.5062 196.92 72.5701 196.38C72.6398 195.77 73.0465 195.386 73.7088 195.438C74.2434 195.479 74.6036 195.903 74.5745 196.345C74.5397 196.943 74.0981 197.327 73.4067 197.251Z" fill="white"/>
<path d="M128.061 132.443C127.474 132.484 127.126 132.199 127.068 131.665C127.009 131.136 127.271 130.741 127.835 130.689C128.375 130.636 128.758 130.904 128.822 131.455C128.886 132.007 128.555 132.321 128.061 132.443Z" fill="white"/>
<path d="M113.31 180.232C112.763 180.197 112.479 179.825 112.49 179.314C112.502 178.791 112.839 178.407 113.397 178.448C113.908 178.489 114.303 178.831 114.286 179.372C114.262 179.895 113.879 180.197 113.31 180.232Z" fill="white"/>
<path d="M69.514 86.4387C69.0667 86.4038 68.5844 86.0785 68.6774 85.4045C68.7413 84.9455 69.1248 84.5446 69.7058 84.6144C70.2519 84.6783 70.6005 85.0908 70.6354 85.5556C70.6818 86.0843 70.2868 86.4096 69.514 86.4387Z" fill="white"/>
<path d="M24.1556 117.723C24.0394 118.264 23.6618 118.479 23.1563 118.438C22.5869 118.391 22.3778 117.985 22.4417 117.479C22.5056 116.98 22.7903 116.596 23.3655 116.736C23.8477 116.852 24.1266 117.206 24.1556 117.723Z" fill="white"/>
<path d="M21.9304 161.713C21.4482 161.684 20.995 161.58 20.9427 160.987C20.8962 160.441 21.2332 160.104 21.7154 159.982C22.2964 159.837 22.5869 160.232 22.6625 160.731C22.7438 161.26 22.494 161.614 21.9304 161.713Z" fill="white"/>
<path d="M80.948 196.715C80.4948 196.657 80.0707 196.459 80.0823 195.878C80.0939 195.332 80.4948 195.001 80.977 194.943C81.5406 194.873 81.8369 195.297 81.8602 195.814C81.8776 196.355 81.558 196.669 80.948 196.715Z" fill="white"/>
<path d="M102.689 188.597C102.584 189.079 102.282 189.462 101.794 189.491C101.266 189.526 100.958 189.114 100.946 188.608C100.929 188.074 101.289 187.737 101.8 187.743C102.288 187.754 102.66 188.027 102.689 188.597Z" fill="white"/>
<path d="M120.834 111.036C120.723 111.524 120.462 111.942 119.91 111.855C119.439 111.78 119.061 111.437 119.079 110.891C119.096 110.31 119.532 110.101 120.026 110.124C120.555 110.141 120.851 110.473 120.834 111.036Z" fill="white"/>
<path d="M46.187 188.823C45.9895 189.288 45.7164 189.683 45.1354 189.596C44.5893 189.509 44.2871 189.102 44.3511 188.591C44.415 188.062 44.8217 187.731 45.3736 187.818C45.8907 187.894 46.187 188.26 46.187 188.823Z" fill="white"/>
<path d="M126.411 153.757C126.405 153.223 126.591 152.816 127.172 152.775C127.689 152.741 128.131 152.938 128.177 153.519C128.218 154.059 127.887 154.431 127.381 154.53C126.806 154.652 126.527 154.269 126.411 153.757Z" fill="white"/>
<path d="M39.9995 184.573C39.9007 185.066 39.6392 185.444 39.0757 185.339C38.5876 185.252 38.239 184.915 38.2623 184.369C38.2913 183.788 38.7271 183.585 39.2209 183.614C39.7496 183.655 40.0343 184.003 39.9995 184.573Z" fill="white"/>
<path d="M127.637 146.283C127.701 145.76 127.939 145.336 128.474 145.365C128.962 145.388 129.316 145.777 129.363 146.271C129.415 146.846 128.962 147.108 128.491 147.119C127.997 147.131 127.649 146.829 127.637 146.283Z" fill="white"/>
<path d="M35.3631 99.8646C35.3863 99.2895 35.7814 99.0338 36.2752 99.028C36.7981 99.0164 37.1642 99.3417 37.1467 99.8995C37.1293 100.422 36.804 100.841 36.2811 100.8C35.8104 100.759 35.4386 100.411 35.3631 99.8646Z" fill="white"/>
<path d="M32.8648 179.326C32.9635 178.844 33.2482 178.46 33.8118 178.57C34.3056 178.663 34.6484 179.035 34.6194 179.57C34.5903 180.162 34.1255 180.343 33.6317 180.319C33.0565 180.296 32.8415 179.901 32.8648 179.326Z" fill="white"/>
<path d="M55.1692 89.395C54.6057 89.3311 54.3152 88.9709 54.3558 88.4421C54.4023 87.9251 54.7161 87.5242 55.2854 87.6113C55.7851 87.6868 56.1511 88.0471 56.1337 88.5874C56.1163 89.1684 55.6921 89.3717 55.1692 89.395Z" fill="white"/>
<path d="M31.0869 106.106C30.6163 105.978 30.227 105.682 30.198 105.182C30.1689 104.625 30.6047 104.363 31.1043 104.346C31.6505 104.323 31.9874 104.7 31.9642 105.211C31.9468 105.694 31.6737 106.089 31.0869 106.106Z" fill="white"/>
<path d="M65.081 196.053C65.0636 195.449 65.3947 195.124 65.8653 194.99C66.4522 194.827 66.7252 195.24 66.824 195.728C66.9228 196.257 66.6904 196.658 66.121 196.698C65.6213 196.733 65.203 196.565 65.081 196.053Z" fill="white"/>
<path d="M84.1727 87.4653C83.6323 87.3839 83.4174 86.9772 83.4406 86.4718C83.4697 85.914 83.8357 85.6235 84.3876 85.6874C84.9105 85.7513 85.2998 86.0476 85.1952 86.6228C85.1081 87.1283 84.7537 87.442 84.1727 87.4653Z" fill="white"/>
<path d="M102.474 139.312C102.857 139.201 103.212 139.026 103.578 139.009C104.914 138.933 106.256 138.712 107.744 138.986C108.174 140.169 107.895 141.376 107.924 142.502C106.919 143.114 106.035 142.823 105.199 142.799C104.351 142.776 103.45 142.933 102.486 142.333C102.16 141.441 102.195 140.432 102.474 139.312Z" fill="white"/>
<path d="M70.2287 169.987C71.2454 169.766 72.1808 169.772 73.2556 170.168C73.703 171.818 73.5055 173.521 73.488 175.247C72.2099 175.772 71.0885 175.37 69.7813 175.445C69.4617 173.48 69.6244 171.731 70.2287 169.987Z" fill="white"/>
<path d="M54.4139 169.865C55.5527 168.157 56.4591 166.804 57.5049 165.236C58.4519 165.801 59.3118 166.308 60.3053 166.903C59.7533 168.617 58.9283 170.081 57.9755 171.591C56.5695 171.492 55.727 170.524 54.4139 169.865Z" fill="white"/>
<path d="M88.8031 109.85C88.0246 111.739 87.3564 113.325 86.3106 114.719C85.2707 114.497 84.3759 114.211 83.4406 113.459C83.6148 111.815 84.5851 110.34 84.9453 108.619C86.421 108.433 87.3506 109.418 88.8031 109.85Z" fill="white"/>
<path d="M63.4717 113.663C62.7513 111.733 62.1935 110.229 61.6125 108.666C62.5828 107.593 63.9714 107.914 64.9765 107.185C66.3535 108.777 65.9235 110.66 66.6788 112.135C65.8712 113.401 64.535 112.987 63.4717 113.663Z" fill="white"/>
<path d="M105.007 154.828C104.525 156.006 104.194 157.119 103.13 158C101.661 157.154 100.191 156.309 98.6104 155.405C99.0693 154.432 99.476 153.58 99.9931 152.484C101.794 153.009 103.526 153.586 105.007 154.828Z" fill="white"/>
<path d="M92.4402 169.76C91.4002 168.174 90.4706 166.757 89.541 165.335C90.2963 164.402 91.1446 163.83 92.1729 163.23C93.3117 164.542 94.4272 165.83 95.5659 167.148C94.8745 168.338 93.7706 168.909 92.4402 169.76Z" fill="white"/>
<path d="M77.3634 106.718C78.8042 106.666 80.0359 106.596 81.2328 107.511C80.9132 109.202 80.6344 110.87 79.8791 112.503C78.7345 112.625 77.7991 112.182 76.6836 111.873C76.9218 110.071 77.1426 108.404 77.3634 106.718Z" fill="white"/>
<path d="M40.3655 151.125C42.0968 150.064 43.8108 149.871 45.4434 149.393C46.1754 150.291 46.4834 151.265 46.5066 152.536C45.0251 153.212 43.497 153.912 41.94 154.624C40.9407 153.504 40.9813 152.21 40.3655 151.125Z" fill="white"/>
<path d="M57.4467 116.683C56.3893 115.068 55.4597 113.651 54.5011 112.182C55.4946 111.162 56.5752 110.643 57.9057 110.13C58.7075 111.663 59.457 113.097 60.1948 114.509C59.7823 115.756 58.5971 115.885 57.4467 116.683Z" fill="white"/>
<path d="M92.3705 111.984C93.4628 112.858 94.6015 113.249 95.2697 114.421C94.5027 115.978 93.2129 117.103 92.1381 118.368C91.0226 118.164 90.4125 117.406 89.541 116.689C89.9651 114.928 91.2666 113.674 92.3705 111.984Z" fill="white"/>
<path d="M101.451 149.166C101.48 148.006 101.446 146.968 102.242 145.959C103.874 146.222 105.536 146.496 107.203 146.764C107.465 148.245 106.814 149.317 106.471 150.547C104.647 150.343 103.049 149.813 101.451 149.166Z" fill="white"/>
<path d="M50.0043 158.425C48.5982 159.486 47.3142 160.454 45.9663 161.474C44.8391 160.722 44.3104 159.609 43.7062 158.35C45.089 157.236 46.6054 156.35 48.2496 155.703C49.0689 156.408 49.5453 157.213 50.0043 158.425Z" fill="white"/>
<path d="M88.8903 171.632C87.7747 172.641 86.6825 172.944 85.6309 173.241C84.7129 172.682 84.7536 171.708 84.4282 170.932C84.097 170.139 83.853 169.311 83.5334 168.408C84.3294 167.661 85.3462 167.44 86.206 167.002C87.095 167.562 87.3158 168.443 87.7166 169.189C88.1233 169.953 88.4661 170.74 88.8903 171.632Z" fill="white"/>
<path d="M77.0089 169.906C78.107 169.655 78.932 169.469 79.8849 169.253C80.9714 170.804 81.0004 172.606 81.4246 174.349C80.2567 175.148 79.1122 174.985 77.8804 175.148C76.9508 173.527 77.1948 171.795 77.0089 169.906Z" fill="white"/>
<path d="M106.518 131.167C106.832 132.45 107.076 133.458 107.331 134.508C105.704 135.546 103.874 135.132 102.306 135.837C101.382 134.858 101.539 133.779 101.37 132.689C102.921 131.744 104.537 131.272 106.518 131.167Z" fill="white"/>
<path d="M46.5472 129.54C46.3729 130.788 46.0418 131.662 45.4898 132.584C43.8108 132.065 42.1898 131.563 40.563 131.056C40.5572 129.61 41.2718 128.596 41.5972 127.219C43.4331 128.03 45.0773 128.432 46.5472 129.54Z" fill="white"/>
<path d="M65.3715 174.425C64.0527 174.582 63.1289 173.801 61.9785 173.573C61.7868 171.649 63.0999 170.302 63.2567 168.588C64.6511 168.314 65.6039 168.862 66.6555 169.41C66.2663 171.177 66.1152 172.88 65.3715 174.425Z" fill="white"/>
<path d="M48.5459 164.728C49.5568 163.253 50.9048 162.203 52.3457 160.973C53.1358 161.708 53.8737 162.39 54.7859 163.23C53.5948 164.664 52.5142 165.97 51.4219 167.282C50.1146 166.717 49.3593 165.754 48.5459 164.728Z" fill="white"/>
<path d="M70.0603 111.879C69.6594 110.048 69.4328 108.386 69.6594 106.62C70.8272 106.211 71.9194 106.211 73.1104 106.462C73.4125 108.24 73.3486 109.92 73.1627 111.593C72.1983 112.118 71.2629 111.972 70.0603 111.879Z" fill="white"/>
<path d="M98.651 164.67C97.1578 163.253 95.9029 162.069 94.5549 160.781C95.3335 159.924 96.0191 159.172 96.8267 158.285C98.2443 159.335 99.5516 160.303 100.94 161.329C100.609 162.664 99.5342 163.376 98.651 164.67Z" fill="white"/>
<path d="M96.8035 123.301C95.7054 122.718 95.3336 121.773 94.5667 121.103C95.6357 119.61 96.9719 118.531 98.2676 117.319C99.5515 117.843 99.9931 119.097 101.004 120.018C99.6968 121.423 98.1978 122.368 96.8035 123.301Z" fill="white"/>
<path d="M44.3337 142.892C44.7288 143.936 44.7694 144.869 44.601 145.936C43.0148 146.56 41.3242 146.566 39.5115 146.892C39.3197 145.592 39.157 144.472 38.9769 143.213C40.8012 142.717 42.5559 142.746 44.3337 142.892Z" fill="white"/>
<path d="M104.937 127.021C103.491 128.024 101.823 128.444 100.272 129.155C99.2785 128.456 99.1856 127.342 98.5291 126.497C99.9583 125.19 101.573 124.596 103.043 123.698C104.107 124.602 104.49 125.768 104.937 127.021Z" fill="white"/>
<path d="M39.5695 135.178C41.3125 135.149 42.887 135.406 44.5196 136.03C44.8392 137.015 44.6068 138.012 44.4325 139.184C42.6372 139.481 40.9814 138.939 39.1628 138.863C38.8956 137.551 39.2674 136.414 39.5695 135.178Z" fill="white"/>
<path d="M43.4506 123.616C44.3918 122.479 44.6648 121.284 45.792 120.543C47.3432 121.26 48.5691 122.427 49.9635 123.505C49.5859 124.601 49.0688 125.459 48.1101 126.281C46.6402 125.441 45.1819 124.607 43.4506 123.616Z" fill="white"/>
<path d="M51.2243 114.701C52.5431 115.873 53.5831 117.214 54.6289 118.596C53.955 119.523 53.2055 120.211 52.1887 120.923C50.9396 119.733 49.7137 118.573 48.3484 117.278C49.278 116.217 49.981 115.238 51.2243 114.701Z" fill="white"/>
<path d="M92.8004 140.98C92.6087 130.485 84.62 121.529 73.4009 121.535C62.6176 121.54 54.0769 129.954 54.1176 141.027C54.1582 152.356 63.2857 160.303 73.3021 160.326C84.0564 160.344 92.5273 151.889 92.8004 140.98ZM55.1169 140.945C55.1227 130.887 63.3613 122.631 73.3951 122.631C83.5335 122.631 91.6094 130.73 91.6268 140.91C91.6442 151.038 83.5044 159.236 73.4183 159.248C63.4019 159.259 55.1169 150.974 55.1169 140.945Z" fill="white"/>
</g>
</svg>
