<svg width="32" height="32" viewBox="0 0 32 32" fill="none" xmlns="http://www.w3.org/2000/svg">
<g clip-path="url(#clip0_1401_142)">
<path d="M32 16.0063C32.0074 12.8396 31.0785 9.74152 29.3305 7.10304C27.5825 4.46455 25.0936 2.40382 22.1779 1.18082C19.2622 -0.042185 16.0503 -0.372675 12.9473 0.231039C9.84438 0.834753 6.98938 2.34563 4.74252 4.57306C2.49566 6.80049 0.957592 9.6447 0.32234 12.7469C-0.312912 15.8491 -0.0168868 19.0702 1.17307 22.0041C2.36303 24.9379 4.39362 27.4529 7.00866 29.2319C9.62371 31.0109 12.7061 31.9741 15.8669 32C17.9764 32.0184 20.0688 31.6186 22.0234 30.8234C23.978 30.0283 25.7563 28.8536 27.2559 27.367C28.7555 25.8804 29.9467 24.1113 30.7609 22.1615C31.5751 20.2118 31.9962 18.1199 32 16.0063Z" fill="#00EEF4"/>
<path d="M16.0022 21.4942C23.0028 21.4942 28.6779 19.0334 28.6779 15.9978C28.6779 12.9623 23.0028 10.5015 16.0022 10.5015C9.00154 10.5015 3.32642 12.9623 3.32642 15.9978C3.32642 19.0334 9.00154 21.4942 16.0022 21.4942Z" fill="#15252B"/>
<path d="M16.0021 19.1654C17.7482 19.1654 19.1637 17.7473 19.1637 15.998C19.1637 14.2487 17.7482 12.8306 16.0021 12.8306C14.256 12.8306 12.8406 14.2487 12.8406 15.998C12.8406 17.7473 14.256 19.1654 16.0021 19.1654Z" fill="#00EEF4"/>
</g>
<defs>
<clipPath id="clip0_1401_142">
<rect width="32" height="32" fill="white"/>
</clipPath>
</defs>
</svg>
