<svg width="206" height="47" viewBox="0 0 206 47" fill="none" xmlns="http://www.w3.org/2000/svg">
<g clip-path="url(#clip0_1374_432)">
<path d="M181.021 0.0678101L180.304 1.78508H182.563L183.28 0.0678101H181.021Z" fill="white"/>
<path d="M44.6869 22.0099C43.0887 22.0592 41.5101 21.6483 40.1401 20.8266C38.8897 20.0344 37.8983 18.896 37.2874 17.5508C36.6089 16.0229 36.2752 14.3653 36.31 12.6948C36.2752 11.0244 36.6089 9.3667 37.2874 7.83884C37.8983 6.49364 38.8897 5.35523 40.1401 4.56304C41.5101 3.74132 43.0887 3.33048 44.6869 3.37971C46.527 3.30446 48.337 3.86242 49.813 4.95989C51.1715 6.03982 52.144 7.52776 52.5861 9.20255L50.3343 9.80143C50.0302 8.56877 49.3405 7.46447 48.365 6.6483C47.3149 5.84142 46.0115 5.43229 44.6869 5.49383C43.5081 5.44874 42.3436 5.76341 41.3492 6.39576C40.4414 7.02399 39.7429 7.90852 39.3436 8.93558C38.8597 10.1299 38.6138 11.4068 38.6196 12.6948C38.5862 13.9791 38.8102 15.2571 39.2785 16.454C39.6867 17.4782 40.3895 18.3592 41.2985 18.9867C42.2974 19.6218 43.4666 19.9389 44.6507 19.8958C45.9766 19.9585 47.2812 19.5464 48.3288 18.7341C49.3027 17.9195 49.9922 16.8181 50.2981 15.5882L52.5499 16.1871C52.1231 17.9244 51.0995 19.4579 49.6565 20.5216C48.2136 21.5852 46.4426 22.1118 44.6507 22.0099H44.6869Z" fill="white"/>
<path d="M62.2084 22.0099C60.6079 22.058 59.0273 21.6473 57.6542 20.8265C56.4043 20.0359 55.4149 18.8968 54.8088 17.5507C54.1303 16.0229 53.7966 14.3652 53.8314 12.6948C53.7966 11.0243 54.1303 9.36665 54.8088 7.83879C55.4149 6.49273 56.4043 5.35367 57.6542 4.56299C59.0471 3.78696 60.6162 3.37952 62.212 3.37952C63.8077 3.37952 65.3769 3.78696 66.7697 4.56299C68.0175 5.3541 69.0045 6.49324 69.6079 7.83879C70.2799 9.36848 70.6109 11.0252 70.5781 12.6948C70.6109 14.3643 70.2799 16.0211 69.6079 17.5507C69.0045 18.8963 68.0175 20.0354 66.7697 20.8265C65.3944 21.6483 63.8112 22.059 62.2084 22.0099V22.0099ZM62.2084 19.8958C63.3879 19.9479 64.5546 19.6327 65.5461 18.9938C66.4539 18.3656 67.1524 17.4811 67.5517 16.454C68.0215 15.2571 68.2503 13.9797 68.225 12.6948C68.2503 11.4098 68.0215 10.1324 67.5517 8.93553C67.1484 7.91465 66.4505 7.03582 65.5461 6.41014C64.5518 5.77608 63.3882 5.45664 62.2084 5.49378C61.0297 5.44043 59.8634 5.75305 58.8706 6.38849C57.9652 7.01747 57.2692 7.90199 56.8723 8.92832C56.389 10.1254 56.1432 11.4045 56.1483 12.6948C56.1164 13.9772 56.3429 15.2531 56.8144 16.4468C57.2181 17.4695 57.9189 18.3488 58.8272 18.9722C59.8332 19.6168 61.0131 19.9391 62.2084 19.8958Z" fill="white"/>
<path d="M72.5692 21.6347V3.75488H79.6429H80.2656C80.5086 3.76735 80.7505 3.79628 80.9896 3.84147C81.8793 3.95181 82.7238 4.2954 83.4368 4.8372C84.0938 5.34792 84.6075 6.01893 84.9283 6.78536C85.2685 7.60635 85.4385 8.48749 85.4279 9.37569C85.462 10.663 85.0814 11.9274 84.3418 12.9834C83.9653 13.4951 83.4903 13.9271 82.9446 14.2541C82.399 14.5811 81.7934 14.7967 81.1633 14.8883L80.3162 15.0254H74.7919V21.6275L72.5692 21.6347ZM74.7919 12.9329H79.585C79.7658 12.9426 79.9471 12.9426 80.128 12.9329C80.3231 12.9197 80.5168 12.8907 80.7072 12.8463C81.2319 12.7419 81.7164 12.4917 82.1046 12.1248C82.4593 11.7737 82.7291 11.3469 82.8938 10.8765C83.2341 9.94433 83.2341 8.9225 82.8938 7.99033C82.7291 7.5221 82.4591 7.0976 82.1046 6.74928C81.7161 6.38262 81.2318 6.13254 80.7072 6.02774C80.5162 5.98673 80.3227 5.95781 80.128 5.94115H79.585H74.7919V12.9329ZM83.263 21.6347L79.7153 14.3615L81.8874 13.6905L85.7754 21.6275L83.263 21.6347Z" fill="white"/>
<path d="M88.0344 21.6347V3.75488H95.1298H95.7525C95.9955 3.76735 96.2374 3.79628 96.4765 3.84147C97.3663 3.95181 98.2107 4.2954 98.9237 4.8372C99.5787 5.34997 100.092 6.02039 100.415 6.78536C100.755 7.60635 100.925 8.48749 100.915 9.37569C100.928 10.2695 100.755 11.1562 100.408 11.9805C100.086 12.7444 99.5728 13.4129 98.9165 13.9214C98.2013 14.4545 97.3615 14.7972 96.4765 14.9171C96.2521 14.9171 96.0204 14.9749 95.7525 14.9893C95.4846 15.0037 95.3036 14.9893 95.1298 14.9893H90.2571V21.5914L88.0344 21.6347ZM90.2571 12.9329H95.0502C95.2311 12.9426 95.4123 12.9426 95.5932 12.9329C95.7883 12.9197 95.982 12.8907 96.1724 12.8463C96.6961 12.7389 97.1798 12.4892 97.5698 12.1248C97.9245 11.7737 98.1944 11.3469 98.359 10.8765C98.6993 9.94433 98.6993 8.9225 98.359 7.99033C98.1943 7.5221 97.9244 7.0976 97.5698 6.74928C97.1798 6.38483 96.6961 6.1351 96.1724 6.02774C95.9814 5.98673 95.7879 5.95781 95.5932 5.94115H95.0502H90.2571V12.9329Z" fill="white"/>
<path d="M110.255 22.0099C108.656 22.0591 107.078 21.6483 105.708 20.8266C104.458 20.0359 103.469 18.8968 102.862 17.5508C102.178 16.0246 101.842 14.3661 101.878 12.6948C101.842 11.0235 102.178 9.36503 102.862 7.83882C103.469 6.49275 104.458 5.3537 105.708 4.56302C107.099 3.78695 108.667 3.37946 110.262 3.37946C111.857 3.37946 113.425 3.78695 114.816 4.56302C116.066 5.35183 117.053 6.49164 117.654 7.83882C118.333 9.36668 118.666 11.0244 118.632 12.6948C118.666 14.3652 118.333 16.0229 117.654 17.5508C117.053 18.8979 116.066 20.0378 114.816 20.8266C113.441 21.6491 111.858 22.0599 110.255 22.0099V22.0099ZM110.255 19.8958C111.434 19.9494 112.602 19.634 113.592 18.9939C114.5 18.3656 115.199 17.4811 115.598 16.454C116.068 15.2571 116.297 13.9798 116.271 12.6948C116.297 11.4098 116.068 10.1325 115.598 8.93556C115.195 7.91467 114.497 7.03585 113.592 6.41016C112.599 5.77485 111.435 5.4553 110.255 5.49381C109.078 5.44053 107.914 5.75321 106.924 6.38852C106.015 7.01512 105.316 7.90018 104.919 8.92834C104.458 10.1299 104.234 11.4088 104.26 12.6948C104.226 13.9768 104.45 15.2525 104.919 16.4468C105.325 17.4682 106.025 18.3469 106.931 18.9722C107.921 19.6056 109.079 19.9274 110.255 19.8958Z" fill="white"/>
<path d="M120.623 21.6347V3.75488H127.711H128.334C128.577 3.76767 128.819 3.7966 129.058 3.84147C129.947 3.95181 130.792 4.2954 131.505 4.8372C132.16 5.34836 132.671 6.01942 132.989 6.78536C133.329 7.60635 133.499 8.48749 133.489 9.37569C133.522 10.6618 133.144 11.9252 132.41 12.9834C132.033 13.4946 131.558 13.9261 131.012 14.2531C130.467 14.58 129.861 14.7959 129.231 14.8883L128.384 15.0254H122.86V21.6275L120.623 21.6347ZM122.838 12.9329H127.639C127.819 12.9426 128.001 12.9426 128.182 12.9329C128.377 12.9192 128.57 12.8903 128.761 12.8463C129.283 12.7402 129.765 12.4902 130.151 12.1248C130.508 11.7742 130.78 11.3473 130.947 10.8765C131.279 9.94276 131.279 8.92407 130.947 7.99033C130.78 7.52164 130.508 7.09718 130.151 6.74928C129.764 6.38413 129.283 6.13418 128.761 6.02774C128.57 5.98726 128.376 5.95835 128.182 5.94115H127.639H122.838V12.9329ZM131.302 21.6347L127.762 14.3615L129.934 13.6905L133.822 21.6275L131.302 21.6347Z" fill="white"/>
<path d="M134.843 21.6347L140.845 3.75488H143.936L149.939 21.6347H147.636L142.018 5.03923H142.742L137.174 21.6347H134.843ZM137.739 17.4497V15.3789H147.05V17.4497H137.739Z" fill="white"/>
<path d="M158.562 22.0099C156.964 22.0583 155.385 21.6475 154.015 20.8266C152.765 20.0359 151.776 18.8968 151.169 17.5508C150.491 16.0229 150.157 14.3652 150.192 12.6948C150.157 11.0243 150.491 9.36668 151.169 7.83881C151.776 6.49275 152.765 5.35369 154.015 4.56301C155.385 3.74205 156.964 3.33127 158.562 3.37968C160.404 3.30571 162.216 3.86345 163.695 4.95986C165.054 6.0398 166.026 7.52774 166.468 9.20253L164.209 9.80141C163.908 8.56928 163.221 7.46483 162.247 6.64827C161.194 5.84088 159.889 5.4318 158.562 5.4938C157.383 5.45191 156.22 5.76633 155.224 6.39573C154.316 7.02396 153.618 7.9085 153.218 8.93556C152.75 10.1329 152.518 11.4096 152.538 12.6948C152.501 13.9793 152.725 15.258 153.197 16.454C153.605 17.4781 154.308 18.3592 155.217 18.9866C156.212 19.6229 157.38 19.9402 158.562 19.8958C159.89 19.9589 161.197 19.5469 162.247 18.7341C163.219 17.9191 163.906 16.8175 164.209 15.5882L166.468 16.187C166.028 17.8627 165.055 19.3512 163.695 20.4297C162.216 21.5261 160.404 22.0839 158.562 22.0099V22.0099Z" fill="white"/>
<path d="M168.959 21.6347V3.75488H171.174V21.6347H168.959Z" fill="white"/>
<path d="M181.789 22.0099C180.19 22.0583 178.612 21.6475 177.242 20.8266C175.992 20.0359 175.002 18.8968 174.396 17.5508C173.718 16.0229 173.384 14.3652 173.419 12.6948C173.384 11.0244 173.718 9.36668 174.396 7.83882C175.002 6.49275 175.992 5.3537 177.242 4.56302C178.633 3.78695 180.201 3.37946 181.796 3.37946C183.39 3.37946 184.958 3.78695 186.35 4.56302C187.6 5.3537 188.589 6.49275 189.195 7.83882C189.867 9.3685 190.198 11.0253 190.166 12.6948C190.198 14.3643 189.867 16.0211 189.195 17.5508C188.589 18.8968 187.6 20.0359 186.35 20.8266C184.975 21.6491 183.391 22.0599 181.789 22.0099V22.0099ZM181.789 19.8958C182.971 19.949 184.14 19.6337 185.134 18.9939C186.04 18.3637 186.738 17.4798 187.139 16.454C187.609 15.2571 187.838 13.9798 187.812 12.6948C187.838 11.4098 187.609 10.1325 187.139 8.93556C186.733 7.91619 186.036 7.03806 185.134 6.41016C184.137 5.77512 182.971 5.45565 181.789 5.49381C180.612 5.44149 179.449 5.75409 178.458 6.38852C177.553 7.01749 176.857 7.90202 176.46 8.92834C175.989 10.1279 175.755 11.4069 175.772 12.6948C175.741 13.9765 175.965 15.2516 176.431 16.4468C176.837 17.4682 177.537 18.3469 178.444 18.9722C179.44 19.6077 180.606 19.9295 181.789 19.8958V19.8958Z" fill="white"/>
<path d="M192.157 21.6347V3.75488H194.401L203.763 17.7239V3.75488H206V21.6347H203.763L194.401 7.65121V21.6347H192.157Z" fill="white"/>
<path d="M60.5213 25.2136L60.0145 26.4258H62.2662L62.7731 25.2136H60.5213Z" fill="white"/>
<path d="M44.4408 46.2465C42.8204 46.2892 41.2203 45.8793 39.8215 45.0631C38.5442 44.2756 37.5212 43.1384 36.8747 41.7873C36.1646 40.2656 35.8129 38.6021 35.8466 36.9242C35.8131 35.2439 36.1647 33.5781 36.8747 32.0538C37.5212 30.7027 38.5442 29.5655 39.8215 28.778C41.2197 27.9682 42.817 27.5633 44.4335 27.6091C46.2807 27.5397 48.0987 28.0828 49.6031 29.1532C50.9936 30.1965 52.0093 31.6591 52.4992 33.3237L49.4728 34.1534C49.1833 33.0755 48.56 32.116 47.6916 31.4116C46.7475 30.7226 45.5952 30.3764 44.4263 30.4303C43.3667 30.3904 42.3197 30.6695 41.4216 31.2312C40.6036 31.7913 39.9731 32.583 39.6115 33.5041C38.8004 35.7125 38.8004 38.1358 39.6115 40.3443C39.9685 41.2758 40.6026 42.0764 41.4288 42.6388C42.3293 43.2019 43.3783 43.4834 44.4408 43.4469C45.612 43.5014 46.766 43.1495 47.7061 42.4512C48.5729 41.7483 49.1959 40.7916 49.4872 39.7165L52.5137 40.5535C52.0219 42.2152 51.0065 43.675 49.6176 44.7168C48.1094 45.7836 46.2887 46.3216 44.4408 46.2465Z" fill="white"/>
<path d="M53.0132 45.8641L58.6461 27.9771H63.041L68.7028 45.8641H65.6402L60.5069 29.817H61.1802L56.112 45.8641H53.0132ZM56.1699 41.9894V39.197H65.5823V41.9894H56.1699Z" fill="white"/>
<path d="M70.4695 45.8641V27.9771H77.8835H78.5569C78.7994 27.9917 79.041 28.0182 79.2809 28.0564C80.215 28.1731 81.1029 28.5286 81.8584 29.0882C82.5423 29.6083 83.0747 30.3007 83.4006 31.0941C83.737 31.9513 83.9042 32.8651 83.8929 33.7855C83.904 34.7018 83.7343 35.6113 83.3934 36.4624C83.0728 37.2509 82.5512 37.9424 81.8801 38.4683C81.131 39.0283 80.2469 39.3817 79.3171 39.4929C79.0854 39.4929 78.832 39.5506 78.5496 39.5722H77.8835H73.4742V45.8208L70.4695 45.8641ZM73.4742 36.8231H77.7604C77.9485 36.8329 78.137 36.8329 78.3252 36.8231C78.5186 36.8119 78.7103 36.7804 78.8971 36.7293C79.3477 36.629 79.7583 36.398 80.0773 36.0655C80.3578 35.7595 80.5657 35.3946 80.6855 34.9976C80.8005 34.6209 80.8614 34.2298 80.8665 33.836C80.8614 33.4374 80.8005 33.0416 80.6855 32.6599C80.5642 32.2614 80.3566 31.8944 80.0773 31.5848C79.7579 31.2542 79.3471 31.0257 78.8971 30.9282C78.7103 30.8771 78.5186 30.8456 78.3252 30.8344H77.7604H73.4742V36.8231Z" fill="white"/>
<path d="M92.5306 46.2465C91.3137 46.267 90.1057 46.0361 88.9828 45.5682C87.9706 45.1388 87.0804 44.4671 86.3908 43.6129C85.704 42.7343 85.2598 41.6921 85.1021 40.5896L88.2154 40.1134C88.4364 41.109 89.0225 41.9865 89.8589 42.5738C90.6945 43.1547 91.6929 43.4577 92.7116 43.4397C93.3276 43.4465 93.9401 43.3464 94.5216 43.1439C95.0442 42.9714 95.5165 42.6741 95.8973 42.278C96.251 41.8958 96.4407 41.3908 96.4258 40.871C96.4353 40.6246 96.3934 40.3789 96.3027 40.1495C96.2234 39.9346 96.0973 39.74 95.9335 39.5794C95.7502 39.3993 95.5402 39.2484 95.3108 39.1321C95.0329 38.9821 94.7391 38.8636 94.4348 38.7785L89.801 37.4076C89.3624 37.2798 88.932 37.1256 88.5122 36.9458C88.0387 36.7436 87.5973 36.4738 87.2017 36.1449C86.7764 35.7806 86.4334 35.3306 86.1953 34.8245C85.9104 34.2052 85.774 33.5283 85.7971 32.8475C85.765 31.8148 86.0755 30.8004 86.6804 29.9613C87.2906 29.1657 88.1138 28.5579 89.0552 28.208C90.1122 27.8114 91.2349 27.618 92.364 27.6379C93.4908 27.6259 94.6086 27.8393 95.6511 28.2657C96.5889 28.6579 97.4183 29.2692 98.0694 30.0479C98.7362 30.8715 99.2044 31.8367 99.4378 32.8691L96.2086 33.4247C96.0918 32.8328 95.8279 32.2796 95.4412 31.8157C95.0643 31.3774 94.5911 31.0317 94.0583 30.8055C93.5053 30.5738 92.9131 30.4489 92.3134 30.4375C91.7487 30.4204 91.1859 30.511 90.6553 30.7045C90.1802 30.8604 89.7536 31.1363 89.4173 31.5054C89.113 31.8356 88.9472 32.2693 88.9539 32.7176C88.9431 32.9144 88.9728 33.1113 89.0413 33.2962C89.1098 33.4811 89.2156 33.6501 89.3521 33.7927C89.6304 34.0815 89.969 34.3056 90.344 34.4493C90.7346 34.6119 91.1362 34.7469 91.5459 34.8533L94.7606 35.7481C95.2022 35.8635 95.6946 36.0222 96.2448 36.2243C96.8055 36.4301 97.3362 36.7091 97.8232 37.0541C98.3416 37.4202 98.7699 37.8988 99.0758 38.4538C99.4263 39.1384 99.5958 39.9009 99.5681 40.669C99.5837 41.5175 99.3845 42.3563 98.9889 43.1078C98.6085 43.8014 98.0735 44.3988 97.425 44.8539C96.741 45.3285 95.9789 45.6801 95.1733 45.8929C94.3124 46.129 93.4234 46.2479 92.5306 46.2465V46.2465Z" fill="white"/>
<path d="M109.002 46.2465C107.692 46.2747 106.396 45.9771 105.23 45.3806C104.166 44.8242 103.284 43.9754 102.689 42.9346C102.061 41.8031 101.746 40.5257 101.776 39.2331V28.0059H104.817V39.1465C104.804 39.7625 104.92 40.3744 105.158 40.9432C105.367 41.4402 105.677 41.8889 106.068 42.2613C106.459 42.6338 106.923 42.9219 107.431 43.1078C108.447 43.4974 109.572 43.4974 110.588 43.1078C111.086 42.9171 111.541 42.6302 111.927 42.2636C112.326 41.8853 112.642 41.4282 112.854 40.9215C113.084 40.3533 113.197 39.7448 113.187 39.1321V27.9771H116.228V39.2187C116.258 40.5113 115.944 41.7887 115.316 42.9202C114.717 43.9577 113.836 44.8056 112.774 45.3662C111.61 45.9668 110.313 46.2694 109.002 46.2465V46.2465Z" fill="white"/>
<path d="M119.464 45.8641V27.9771H122.469V43.0573H130.397V45.8641H119.464Z" fill="white"/>
<path d="M130.766 45.8641L136.428 27.9771H140.823L146.485 45.8641H143.393L138.289 29.817H138.962L133.894 45.8641H130.766ZM133.945 41.9894V39.197H143.357V41.9894H133.945Z" fill="white"/>
<path d="M27.2162 16.6633C27.2232 13.985 26.4345 11.3647 24.9495 9.13242C23.4645 6.90018 21.3496 5.15597 18.8715 4.11965C16.3933 3.08332 13.6628 2.80125 11.0241 3.30899C8.38534 3.81672 5.95647 5.09155 4.04359 6.97278C2.13071 8.85401 0.819442 11.2574 0.275052 13.8802C-0.269339 16.5029 -0.0224858 19.2276 0.984497 21.7107C1.99148 24.1938 3.71353 26.3243 5.93359 27.8337C8.15366 29.343 10.7724 30.1637 13.4597 30.1922C15.2569 30.2132 17.0403 29.8789 18.707 29.2087C20.3737 28.5384 21.8906 27.5456 23.1698 26.2875C24.4491 25.0294 25.4653 23.5311 26.1599 21.8791C26.8544 20.2272 27.2135 18.4544 27.2162 16.6633V16.6633Z" fill="#00EEF4"/>
<path d="M13.6117 21.31C19.5657 21.31 24.3924 19.2296 24.3924 16.6633C24.3924 14.097 19.5657 12.0165 13.6117 12.0165C7.65764 12.0165 2.83093 14.097 2.83093 16.6633C2.83093 19.2296 7.65764 21.31 13.6117 21.31Z" fill="#15252B"/>
<path d="M13.6117 19.3402C15.0952 19.3402 16.2978 18.1417 16.2978 16.6632C16.2978 15.1848 15.0952 13.9863 13.6117 13.9863C12.1282 13.9863 10.9255 15.1848 10.9255 16.6632C10.9255 18.1417 12.1282 19.3402 13.6117 19.3402Z" fill="#00EEF4"/>
</g>
<defs>
<clipPath id="clip0_1374_432">
<rect width="206" height="46.1642" fill="white" transform="translate(0 0.0678101)"/>
</clipPath>
</defs>
</svg>
