<svg width="364" height="37" viewBox="0 0 364 37" fill="none" xmlns="http://www.w3.org/2000/svg">
<path d="M82.0526 8.0952C88.1568 8.0952 93.1052 13.1353 93.1052 19.3525C93.1052 25.5697 88.1568 30.6097 82.0526 30.6097C75.9484 30.6097 71 25.5697 71 19.3525C71 13.1353 75.9484 8.0952 82.0526 8.0952Z" fill="white"/>
<g style="mix-blend-mode:multiply">
<path d="M20.4681 9.73254C25.894 9.73254 30.2926 14.1311 30.2926 19.5571C30.2926 24.983 25.894 29.3816 20.4681 29.3816C15.0421 29.3816 10.6436 24.983 10.6436 19.5571C10.6436 14.1311 15.0421 9.73254 20.4681 9.73254Z" fill="#D9D9D9"/>
</g>
<path opacity="0.3" d="M4.80583 19.0863C5.75963 19.0904 6.81577 19.0986 8.26488 19.1068C6.95085 17.9319 5.68595 18.7629 4.65028 18.2185C4.22045 17.236 4.91636 16.008 4.10174 14.784C3.50408 16.0161 3.97893 17.1337 3.62689 18.2308C2.61578 18.7056 1.30994 18.0097 0 18.7916C1.34269 19.4056 2.52982 18.9185 3.62689 19.2623C3.97075 20.384 3.45496 21.5752 4.03215 22.8319C4.96957 21.6571 4.11402 20.3267 4.80583 19.0863Z" fill="#1D1D1B"/>
<path opacity="0.3" d="M360.126 19.0863C361.08 19.0904 362.136 19.0986 363.585 19.1068C362.271 17.9319 361.006 18.7629 359.971 18.2185C359.541 17.236 360.237 16.008 359.422 14.784C358.824 16.0161 359.299 17.1337 358.947 18.2308C357.936 18.7056 356.63 18.0097 355.32 18.7916C356.663 19.4056 357.85 18.9185 358.947 19.2623C359.291 20.384 358.775 21.5752 359.352 22.8319C360.29 21.6571 359.434 20.3267 360.126 19.0863Z" fill="#1D1D1B"/>
<path d="M313.624 5.86755C316.071 5.87328 317.949 11.9061 317.82 19.3422C317.691 26.7783 315.602 32.8018 313.156 32.7961C310.709 32.7904 308.83 26.7575 308.96 19.3214C309.089 11.8853 311.178 5.86182 313.624 5.86755Z" stroke="#15252B" stroke-miterlimit="10"/>
<path d="M309.192 5.85748C311.638 5.86321 313.517 11.896 313.387 19.3321C313.258 26.7682 311.17 32.7917 308.723 32.786C306.276 32.7803 304.398 26.7475 304.527 19.3114C304.657 11.8753 306.745 5.85175 309.192 5.85748Z" stroke="#15252B" stroke-miterlimit="10"/>
<path d="M304.762 5.84741C307.209 5.85314 309.087 11.8859 308.958 19.3221C308.828 26.7582 306.74 32.7817 304.293 32.7759C301.847 32.7702 299.968 26.7374 300.098 19.3013C300.227 11.8652 302.315 5.84168 304.762 5.84741Z" stroke="#15252B" stroke-miterlimit="10"/>
<path d="M300.332 5.83636C302.779 5.84209 304.657 11.8749 304.528 19.311C304.399 26.7471 302.31 32.7706 299.864 32.7649C297.417 32.7592 295.538 26.7264 295.668 19.2903C295.797 11.8541 297.886 5.83063 300.332 5.83636Z" stroke="#15252B" stroke-miterlimit="10"/>
<path d="M295.899 5.82623C298.345 5.83196 300.224 11.8648 300.095 19.3009C299.965 26.737 297.877 32.7605 295.43 32.7548C292.983 32.749 291.105 26.7162 291.234 19.2801C291.364 11.844 293.452 5.8205 295.899 5.82623Z" stroke="#15252B" stroke-miterlimit="10"/>
<path d="M65.505 1.12001C67.6579 1.12739 69.311 8.90074 69.1971 18.4823C69.0833 28.0638 67.2457 35.8251 65.0927 35.8178C62.9397 35.8104 61.2866 28.037 61.4005 18.4555C61.5143 8.874 63.352 1.11263 65.505 1.12001Z" stroke="#15252B" stroke-miterlimit="10"/>
<path d="M61.6046 1.10701C63.7576 1.11439 65.4106 8.88774 65.2968 18.4693C65.1829 28.0508 63.3453 35.8121 61.1923 35.8048C59.0393 35.7974 57.3862 28.024 57.5001 18.4425C57.6139 8.861 59.4516 1.09963 61.6046 1.10701Z" stroke="#15252B" stroke-miterlimit="10"/>
<path d="M57.7051 1.09401C59.8581 1.10139 61.5112 8.87473 61.3973 18.4563C61.2835 28.0378 59.4459 35.7991 57.2929 35.7918C55.1399 35.7844 53.4868 28.011 53.6007 18.4295C53.7145 8.84799 55.5522 1.08663 57.7051 1.09401Z" stroke="#15252B" stroke-miterlimit="10"/>
<path d="M53.8077 1.07985C55.9607 1.08723 57.6137 8.86057 57.4999 18.4421C57.386 28.0236 55.5484 35.785 53.3954 35.7776C51.2424 35.7702 49.5894 27.9969 49.7032 18.4154C49.8171 8.83383 51.6547 1.07246 53.8077 1.07985Z" stroke="#15252B" stroke-miterlimit="10"/>
<path d="M49.9073 1.06685C52.0603 1.07423 53.7133 8.84757 53.5995 18.4291C53.4856 28.0106 51.648 35.772 49.495 35.7646C47.342 35.7572 45.689 27.9839 45.8028 18.4023C45.9167 8.82083 47.7543 1.05946 49.9073 1.06685Z" stroke="#15252B" stroke-miterlimit="10"/>
<path d="M46.0079 1.05385C48.1609 1.06123 49.8139 8.83457 49.7001 18.4161C49.5862 27.9976 47.7486 35.759 45.5956 35.7516C43.4426 35.7442 41.7896 27.9709 41.9034 18.3893C42.0173 8.80783 43.8549 1.04646 46.0079 1.05385Z" stroke="#15252B" stroke-miterlimit="10"/>
<path d="M42.1104 1.04085C44.2634 1.04823 45.9165 8.82157 45.8026 18.4031C45.6888 27.9846 43.8511 35.746 41.6981 35.7386C39.5451 35.7312 37.8921 27.9579 38.0059 18.3763C38.1198 8.79483 39.9574 1.03346 42.1104 1.04085Z" stroke="#15252B" stroke-miterlimit="10"/>
<path d="M38.2091 1.02644C40.362 1.03383 42.0151 8.80717 41.9012 18.3887C41.7874 27.9702 39.9498 35.7316 37.7968 35.7242C35.6438 35.7168 33.9907 27.9435 34.1046 18.3619C34.2184 8.78043 36.0561 1.01906 38.2091 1.02644Z" stroke="#15252B" stroke-miterlimit="10"/>
<path d="M34.3017 1.01362C36.4547 1.02117 38.1097 8.79467 37.9983 18.3762C37.887 27.9578 36.0513 35.719 33.8983 35.7115C31.7453 35.7039 30.0903 27.9304 30.2017 18.3489C30.3131 8.76734 32.1487 1.00608 34.3017 1.01362Z" stroke="#15252B" stroke-miterlimit="10"/>
<g style="mix-blend-mode:multiply">
<rect width="10.5158" height="10.5158" transform="matrix(0.707107 -0.707107 -0.707107 -0.707107 100.436 26.1924)" fill="#D9D9D9"/>
</g>
<g style="mix-blend-mode:multiply">
<rect width="10.5158" height="10.5158" transform="matrix(0.707107 -0.707107 -0.707107 -0.707107 115.312 26.1924)" fill="#D9D9D9"/>
</g>
<circle r="8.59646" transform="matrix(1 0 0 -1 278.596 19.5965)" fill="white"/>
<g style="mix-blend-mode:multiply">
<path d="M284.742 17.7178L280.078 18.3314L280.027 18.3004L282.788 14.6709L281.02 13.66L279.245 17.8555L279.194 17.8244L277.499 13.5441L275.625 14.649L278.377 18.2909L278.346 18.3419L273.711 17.9383L273.801 19.9568L278.386 19.2984L278.437 19.3294L275.745 22.895L277.513 23.9059L279.203 19.8015L279.254 19.8326L281.031 24.0898L282.846 23.022L280.152 19.343L280.183 19.292L284.732 19.7834L284.742 17.7178Z" fill="#BBBCBC"/>
</g>
<g style="mix-blend-mode:multiply">
<path d="M284.742 17.7178L280.078 18.3314L280.027 18.3004L282.788 14.6709L281.02 13.66L279.245 17.8555L279.194 17.8244L277.499 13.5441L275.625 14.649L278.377 18.2909L278.346 18.3419L273.711 17.9383L273.801 19.9568L278.386 19.2984L278.437 19.3294L275.745 22.895L277.513 23.9059L279.203 19.8015L279.254 19.8326L281.031 24.0898L282.846 23.022L280.152 19.343L280.183 19.292L284.732 19.7834L284.742 17.7178Z" fill="#BBBCBC"/>
</g>
<g style="mix-blend-mode:multiply">
<path d="M284.158 18.1665L279.494 18.7802L279.443 18.7491L282.204 15.1196L280.436 14.1088L278.661 18.3042L278.61 18.2731L276.915 13.9928L275.041 15.0978L277.793 18.7396L277.762 18.7906L273.127 18.3871L273.217 20.4056L277.802 19.7471L277.853 19.7781L275.161 23.3438L276.93 24.3546L278.619 20.2503L278.67 20.2813L280.447 24.5385L282.262 23.4708L279.568 19.7917L279.599 19.7407L284.148 20.2322L284.158 18.1665Z" fill="#BBBCBC"/>
</g>
<g style="mix-blend-mode:multiply">
<path d="M8.59668 18.7384H351.227" stroke="#15252B"/>
</g>
<g style="mix-blend-mode:multiply">
<path d="M266.582 26.0312L266.582 11.6036L257.735 18.8192L266.582 26.0312Z" fill="#BBBCBC"/>
<path d="M257.735 26.0312L257.735 11.6036L248.888 18.8192L257.735 26.0312Z" fill="#BBBCBC"/>
</g>
<path d="M181.596 10.142C186.344 10.142 190.193 13.9907 190.193 18.7384C190.193 23.4861 186.344 27.3349 181.596 27.3349C176.849 27.3349 173 23.4861 173 18.7384C173 13.9907 176.849 10.142 181.596 10.142Z" fill="#F4005E"/>
</svg>
