<svg width="205" height="176" viewBox="0 0 205 176" fill="none" xmlns="http://www.w3.org/2000/svg">
<g opacity="0.2">
<path d="M43.1426 162.512C43.8242 163.647 44.4036 164.945 44.9603 166.278C45.5056 167.633 46.0282 169.035 46.4486 170.599C45.7669 169.464 45.1875 168.166 44.6308 166.834C44.0855 165.478 43.5629 164.076 43.1426 162.512Z" fill="#15252B"/>
<path d="M34.6963 141.795C35.3552 143.139 35.9801 144.53 36.5992 145.943C37.2241 147.345 37.8205 148.794 38.417 150.242C39.0077 151.702 39.5928 153.162 40.1608 154.668C40.7289 156.163 41.2912 157.669 41.8138 159.245C41.1549 157.912 40.5301 156.51 39.9109 155.097C39.2861 153.695 38.6896 152.246 38.0932 150.798C37.5024 149.338 36.9173 147.878 36.355 146.372C35.7812 144.877 35.2189 143.371 34.6963 141.795Z" fill="#15252B"/>
<path d="M39.916 139.768L43.0062 147.403C44.0457 149.929 45.0795 152.466 46.1361 154.969L49.2603 162.547C50.2941 165.096 51.3223 167.645 52.305 170.275C51.1859 167.876 50.0953 165.443 49.0103 162.987C47.9254 160.53 46.8688 158.028 45.8066 155.525C44.7728 152.976 43.7332 150.439 42.7449 147.82C41.7621 145.202 40.8022 142.537 39.916 139.768Z" fill="#15252B"/>
<path d="M26.9932 107.267C28.169 109.353 29.271 111.612 30.3332 113.941C31.3955 116.282 32.3895 118.726 33.3723 121.194C34.3266 123.709 35.2752 126.234 36.1784 128.818C37.0816 131.402 37.9677 134.021 38.8141 136.685C37.8257 134.229 36.8714 131.715 35.9171 129.212C34.9628 126.71 34.0198 124.184 33.0428 121.727C32.0885 119.225 31.1001 116.791 30.0947 114.37C29.0836 111.96 28.044 109.608 26.9932 107.267Z" fill="#15252B"/>
<path d="M35.292 162.767C35.9736 163.821 36.5587 165.038 37.1211 166.312C37.6721 167.598 38.2004 168.919 38.6321 170.437C37.9504 169.394 37.3653 168.166 36.803 166.892C36.2463 165.605 35.718 164.273 35.292 162.767Z" fill="#15252B"/>
<path d="M25.9932 139.976C26.6919 141.425 27.3621 142.942 28.0211 144.46C28.6857 145.978 29.3219 147.531 29.9581 149.083C30.5886 150.647 31.2135 152.223 31.8213 153.834C32.4291 155.444 33.0312 157.055 33.5935 158.746C32.8949 157.298 32.2302 155.792 31.5713 154.274C30.9067 152.756 30.2705 151.204 29.6343 149.639C29.0038 148.064 28.3733 146.5 27.7711 144.877C27.1576 143.278 26.5555 141.656 25.9932 139.976Z" fill="#15252B"/>
<path d="M0.5625 75.7755C1.56793 78.3245 2.58472 80.8504 3.60151 83.3763L6.65757 90.9538L12.7981 106.051C14.826 111.114 16.8766 116.154 18.8761 121.264L21.8526 128.969L24.7497 136.802L21.6879 129.236L18.6205 121.681L12.4686 106.596C10.4407 101.532 8.39577 96.4921 6.40195 91.3593L3.43678 83.6311C2.47111 81.0358 1.51113 78.4172 0.5625 75.7755Z" fill="#15252B"/>
<path d="M32.0713 101.799C33.2187 104.429 34.3605 107.082 35.4909 109.747L38.8253 117.846C41.0293 123.268 43.1878 128.784 45.3634 134.252C47.5163 139.768 49.6919 145.225 51.8902 150.67C52.9865 153.393 54.0942 156.093 55.2132 158.781C56.3266 161.481 57.4513 164.146 58.5931 166.799C57.4002 164.25 56.2244 161.666 55.0542 159.071C53.9011 156.441 52.765 153.787 51.6403 151.111C49.3908 145.758 47.2152 140.277 45.034 134.809L38.5697 118.275L35.3318 110.025C34.2526 107.256 33.1676 104.521 32.0713 101.799Z" fill="#15252B"/>
<path d="M0.0625 23.7755L4.01038 33.0446L7.92418 42.3717L15.7006 61.1071C18.2625 67.3986 20.8528 73.6553 23.3919 79.9931L27.1978 89.5056L30.9696 99.076L27.0387 89.7836L23.142 80.4218L15.3712 61.6632L7.67424 42.8005L3.85133 33.3227L0.0625 23.7755Z" fill="#15252B"/>
<path d="M0 41.1088L12.2413 69.8317C14.2521 74.6748 16.2687 79.5064 18.2171 84.4538C19.1884 86.9333 20.1484 89.4244 21.1027 91.9387C22.04 94.4761 22.9602 97.0367 23.8691 99.6089C22.9034 97.1178 21.9264 94.6499 20.938 92.2052C19.9553 89.7488 18.9669 87.3041 17.9671 84.8825C15.9676 80.0278 13.9567 75.1846 11.9232 70.3994C9.9123 65.5562 7.87304 60.771 5.87922 55.9047L2.90269 48.5705C1.92566 46.1025 0.959988 43.6114 0 41.1088Z" fill="#15252B"/>
<path d="M18.2627 101.521C19.4045 104.047 20.5178 106.63 21.6198 109.226C22.7218 111.821 23.8011 114.463 24.8917 117.081C25.954 119.746 27.0332 122.376 28.0841 125.065C29.135 127.753 30.1802 130.441 31.1913 133.198C30.0439 130.672 28.9362 128.089 27.8342 125.493C26.7322 122.898 25.6529 120.256 24.5679 117.638C23.5057 114.973 22.4264 112.343 21.3756 109.655C20.3133 106.966 19.2681 104.278 18.2627 101.521Z" fill="#15252B"/>
<path d="M0.568359 58.1523C2.01686 61.4197 3.43128 64.7566 4.84002 68.1051C6.24876 71.442 7.6291 74.8368 9.02648 78.1969L13.1334 88.4278C14.491 91.8574 15.8373 95.2985 17.1551 98.8093C15.7066 95.5419 14.2922 92.205 12.8835 88.8565L8.69702 78.753C7.32804 75.3466 5.94202 71.9634 4.59009 68.5222C3.23247 65.0926 1.88053 61.6514 0.568359 58.1523Z" fill="#15252B"/>
<path d="M70.6416 159.835C71.6016 161.573 72.465 163.497 73.3 165.455C74.1294 167.436 74.936 169.452 75.6404 171.642C74.6804 169.893 73.8169 167.981 72.9819 166.023C72.1526 164.053 71.3517 162.037 70.6416 159.835Z" fill="#15252B"/>
<path d="M80.8496 151.621C81.4347 152.779 81.9857 153.984 82.5253 155.212C83.0706 156.429 83.5932 157.692 84.1158 158.955C84.6271 160.229 85.144 161.504 85.6325 162.825C86.121 164.134 86.6095 165.455 87.0583 166.845C86.4732 165.698 85.9222 164.482 85.3826 163.253C84.8372 162.037 84.3147 160.774 83.7921 159.511C83.2808 158.236 82.7639 156.962 82.2754 155.641C81.7869 154.332 81.2984 153.011 80.8496 151.621Z" fill="#15252B"/>
<path d="M46.7441 101.266C48.755 104.916 50.5955 108.936 52.3507 113.084C54.1059 117.244 55.7589 121.577 57.4063 125.91L62.28 139.003C63.916 143.348 65.586 147.623 67.347 151.771C65.4554 147.867 63.7172 143.684 62.0244 139.42C60.3317 135.156 58.7184 130.777 57.0711 126.443C55.4522 122.075 53.8049 117.753 52.1064 113.524C50.4023 109.284 48.63 105.171 46.7441 101.266Z" fill="#15252B"/>
<path d="M35.9854 74.8949C36.8772 76.8067 37.7349 78.7764 38.587 80.7461C39.439 82.7274 40.2627 84.755 41.1034 86.7479C41.9157 88.7871 42.745 90.8147 43.5403 92.8771C44.3412 94.9511 45.1308 97.0251 45.892 99.157C45.0001 97.2452 44.1424 95.2755 43.2903 93.3058C42.4383 91.3245 41.6146 89.2969 40.7739 87.304C39.9616 85.2532 39.1323 83.2372 38.337 81.1748C37.5361 79.1124 36.7465 77.0384 35.9854 74.8949Z" fill="#15252B"/>
<path d="M42.8242 74.7327L47.4651 86.2149L52.0322 97.8246L61.1094 121.125C64.1314 128.9 67.1931 136.593 70.306 144.217L72.652 149.917L75.0264 155.572L77.4179 161.191L79.8434 166.741L77.3383 161.33L74.8674 155.85L72.4475 150.277L70.0561 144.646C66.8921 137.103 63.8247 129.398 60.78 121.658C57.758 113.883 54.7587 106.074 51.7765 98.2301L42.8242 74.7327Z" fill="#15252B"/>
<path d="M28.6689 40.9002C29.8505 43.2754 30.9866 45.7318 32.1113 48.2229C33.236 50.714 34.3153 53.2746 35.4059 55.812C36.4681 58.4074 37.5417 60.9912 38.5756 63.6329C39.6094 66.2746 40.6319 68.9395 41.6089 71.6739C40.4955 69.1712 39.4106 66.6106 38.3256 64.0616L35.0878 56.3797L31.867 48.6631C30.7991 46.0909 29.7255 43.5188 28.6689 40.9002Z" fill="#15252B"/>
<path d="M39.416 101.66C41.1088 105.414 42.7675 109.237 44.4148 113.072C46.0621 116.907 47.6753 120.812 49.2886 124.705C50.8791 128.645 52.4753 132.572 54.026 136.57C55.5768 140.567 57.1105 144.599 58.5874 148.724L48.9591 125.261L44.1592 113.501C42.5686 109.573 40.9724 105.645 39.416 101.66Z" fill="#15252B"/>
<path d="M14.1611 39.8225L20.1256 54.5721C22.1251 59.4732 24.1132 64.3743 26.1354 69.2406L32.1566 83.8859L35.1616 91.2317L38.1324 98.6239L35.0025 91.5098L31.9067 84.3262C29.8504 79.5294 27.8282 74.6631 25.806 69.7967C23.8121 64.8841 21.8126 59.983 19.8699 54.9892L16.9786 47.4696L14.1611 39.8225Z" fill="#15252B"/>
<path d="M0.391602 6.08289C1.53336 8.59715 2.64104 11.1809 3.73736 13.7647C4.83936 16.3485 5.90727 18.9902 6.99791 21.5972C8.06014 24.2505 9.13374 26.8806 10.1846 29.5571C11.2298 32.2336 12.275 34.9216 13.2804 37.6676C12.1387 35.1534 11.031 32.5696 9.93468 29.9858C8.83268 27.402 7.76476 24.7603 6.67413 22.1533C5.61189 19.5 4.5383 16.8699 3.4931 14.1934C2.44223 11.5169 1.39703 8.82888 0.391602 6.08289Z" fill="#15252B"/>
<path d="M50.0723 75.2542C50.8959 76.8299 51.6855 78.4868 52.458 80.1784C53.2363 81.8584 53.9747 83.5964 54.7018 85.3807C55.4175 87.1651 56.1162 88.9841 56.7638 90.8843C57.417 92.7729 58.0362 94.7079 58.5872 96.7239C57.8885 94.9048 57.2069 93.0742 56.5025 91.2898C55.7981 89.5055 55.0937 87.7096 54.3723 85.9369L52.2138 80.6303C51.4924 78.846 50.771 77.0732 50.0723 75.2542Z" fill="#15252B"/>
<path d="M35.6104 40.3903C36.6101 43.1363 37.6326 45.8359 38.6835 48.4776C39.74 51.1193 40.8022 53.7495 41.9099 56.2985C42.9892 58.9055 44.1082 61.4313 45.2159 64.0035C46.3179 66.5641 47.4313 69.1247 48.4992 71.7549C47.3006 69.3681 46.1305 66.9233 44.9717 64.4554C43.8185 61.9759 42.6995 59.4384 41.5861 56.8778C40.5012 54.2709 39.4276 51.6407 38.4278 48.8947C37.4224 46.1487 36.4681 43.3332 35.6104 40.3903Z" fill="#15252B"/>
<path d="M19.3076 1.79596C20.6425 4.66941 21.9376 7.61238 23.2328 10.5553C24.5279 13.4983 25.789 16.4992 27.0727 19.4653C28.3281 22.4778 29.5948 25.4671 30.8332 28.5028C32.0715 31.5385 33.3098 34.5857 34.5084 37.7025C33.1735 34.829 31.8783 31.8976 30.5832 28.9431C29.2881 26.0001 28.027 22.9992 26.7433 20.0331C25.4879 17.0206 24.2212 14.0313 22.9772 10.984C21.7445 7.94838 20.5062 4.90114 19.3076 1.79596Z" fill="#15252B"/>
<path d="M13.002 2.90802C13.9733 5.01676 14.9106 7.18343 15.8422 9.35011C16.7737 11.5284 17.6769 13.753 18.5972 15.9428C19.489 18.1906 20.3978 20.4036 21.2783 22.663C22.1588 24.9339 23.0335 27.2049 23.8686 29.5338C22.8972 27.425 21.9599 25.2583 21.0227 23.0917C20.0911 20.9134 19.1879 18.6888 18.2677 16.499C17.3759 14.2512 16.467 12.0382 15.5865 9.7788C14.7118 7.50785 13.837 5.2369 13.002 2.90802Z" fill="#15252B"/>
<path d="M67.4209 118.715C68.5115 121.102 69.5624 123.546 70.6076 126.003C71.6528 128.459 72.6753 130.962 73.7091 133.441C74.7145 135.967 75.737 138.458 76.7311 141.007C77.7251 143.556 78.7135 146.105 79.6678 148.724C78.5772 146.337 77.5263 143.892 76.4811 141.436C75.4359 138.98 74.4135 136.477 73.3796 133.997C72.3742 131.472 71.3517 128.98 70.3577 126.431C69.3636 123.882 68.3752 121.333 67.4209 118.715Z" fill="#15252B"/>
<path d="M59.5762 99.4813C60.2067 100.756 60.8031 102.077 61.3939 103.421C61.9903 104.753 62.5584 106.132 63.1264 107.511C63.6888 108.901 64.2455 110.292 64.7851 111.728C65.3247 113.153 65.8587 114.59 66.3529 116.096C65.7224 114.833 65.1259 113.501 64.5352 112.157C63.9387 110.824 63.3707 109.446 62.8026 108.067C62.2403 106.677 61.6836 105.286 61.1496 103.849C60.6043 102.424 60.076 100.988 59.5762 99.4813Z" fill="#15252B"/>
<path d="M21.75 40.0082C22.6021 41.8157 23.42 43.6927 24.2323 45.5813C25.0446 47.4583 25.8285 49.3932 26.6295 51.2934C27.402 53.2399 28.1916 55.1633 28.9527 57.133C29.7139 59.1027 30.4694 61.084 31.1851 63.1232C30.3331 61.3157 29.5151 59.4387 28.7028 57.5617C27.8905 55.6847 27.1066 53.7497 26.3057 51.8496C25.5332 49.903 24.7436 47.9797 23.9881 46.01C23.2269 44.0287 22.4714 42.0474 21.75 40.0082Z" fill="#15252B"/>
<path d="M7.56641 5.237C8.72521 7.79761 9.84993 10.4277 10.969 13.0579C12.088 15.688 13.1786 18.3761 14.2863 21.0294C15.3656 23.729 16.4619 26.4055 17.5298 29.1283C18.5977 31.8511 19.66 34.5856 20.6825 37.3779C19.5237 34.8173 18.3989 32.1872 17.2799 29.557C16.1609 26.9269 15.0702 24.2388 13.9625 21.5855C12.8833 18.8859 11.7869 16.2094 10.7247 13.4866C9.65111 10.7638 8.58888 8.02934 7.56641 5.237Z" fill="#15252B"/>
<path d="M75.4922 118.321C77.1168 122.191 78.7073 126.119 80.2864 130.058L84.9898 141.934L89.6193 153.938C91.1474 157.958 92.6697 161.991 94.158 166.092C92.5334 162.222 90.9486 158.294 89.3637 154.355L84.6604 142.479L80.0308 130.475C78.5028 126.443 76.9805 122.411 75.4922 118.321Z" fill="#15252B"/>
<path d="M70.6416 106.364C71.4482 107.812 72.1526 109.423 72.8342 111.08C73.5045 112.748 74.1521 114.463 74.6974 116.351C73.8908 114.903 73.1864 113.293 72.5048 111.636C71.8345 109.967 71.1869 108.252 70.6416 106.364Z" fill="#15252B"/>
<path d="M57.6104 74.4198C58.4908 76.2968 59.3315 78.2318 60.1722 80.1783C61.0129 82.1248 61.8195 84.1177 62.6432 86.0758C63.4441 88.0918 64.2564 90.0731 65.0403 92.1124C65.8242 94.1516 66.6081 96.1908 67.3466 98.288C66.4661 96.4109 65.6254 94.476 64.7847 92.5295C63.9497 90.5829 63.1374 88.5901 62.3137 86.6204C61.5185 84.6043 60.7005 82.623 59.9166 80.5838C59.1327 78.5678 58.3545 76.5285 57.6104 74.4198Z" fill="#15252B"/>
<path d="M34.6963 18.2602C36.4572 22.8369 38.2977 27.2745 40.1892 31.6194C42.0808 35.9643 43.9951 40.2745 45.9151 44.5731C47.8123 48.918 49.7153 53.263 51.516 57.7817C53.3166 62.3004 55.0435 66.9582 56.5715 71.8709C54.9015 67.1552 53.1178 62.6248 51.266 58.2104C49.4142 53.7959 47.517 49.4626 45.597 45.1524C43.7054 40.8075 41.7798 36.4973 39.9393 32.0481C38.0989 27.6105 36.3152 23.057 34.6963 18.2602Z" fill="#15252B"/>
<path d="M27.9873 1.81891C28.6519 2.90804 29.2143 4.15938 29.7482 5.45706C30.2765 6.76634 30.7821 8.13354 31.1854 9.65137C30.5208 8.56224 29.9584 7.3109 29.4244 6.01321C28.8962 4.70394 28.3906 3.33674 27.9873 1.81891Z" fill="#15252B"/>
<path d="M58.5879 148.724C59.4059 150.508 60.1841 152.339 60.9566 154.181C61.7292 156.024 62.4733 157.912 63.2345 159.778C63.9672 161.689 64.717 163.566 65.4385 165.501C66.1599 167.436 66.8756 169.371 67.5516 171.376C66.7336 169.603 65.9554 167.772 65.1828 165.918C64.4103 164.076 63.6605 162.176 62.8993 160.311C62.1665 158.399 61.4167 156.51 60.6953 154.575C59.9853 152.663 59.2695 150.717 58.5879 148.724Z" fill="#15252B"/>
<path d="M1.10742 152.536C1.70954 153.695 2.27758 154.923 2.83994 156.151C3.40798 157.379 3.94762 158.654 4.48726 159.917C5.02122 161.203 5.55518 162.489 6.06073 163.821C6.57197 165.142 7.07752 166.475 7.54332 167.877C6.94119 166.718 6.37315 165.49 5.81079 164.262C5.24275 163.033 4.70312 161.759 4.16348 160.496C3.62952 159.21 3.10124 157.924 2.59001 156.591C2.08445 155.259 1.5789 153.926 1.10742 152.536Z" fill="#15252B"/>
<path d="M1.03906 133.928C2.22059 136.547 3.36803 139.223 4.50979 141.9C5.65155 144.588 6.76491 147.322 7.89531 150.022C8.99731 152.768 10.1163 155.502 11.207 158.271C12.2976 161.052 13.3826 163.833 14.4278 166.671C13.2462 164.053 12.0988 161.376 10.9514 158.7C9.8096 156.012 8.69624 153.277 7.56584 150.578C6.46385 147.82 5.34481 145.097 4.25417 142.328C3.16921 139.559 2.08426 136.767 1.03906 133.928Z" fill="#15252B"/>
<path d="M19.9727 162.593C20.4384 163.196 20.8077 163.972 21.1485 164.794C21.4836 165.629 21.7904 166.509 21.9949 167.552C21.5291 166.95 21.1599 166.173 20.819 165.351C20.4896 164.505 20.1828 163.636 19.9727 162.593Z" fill="#15252B"/>
<path d="M10.3096 138.899C11.0707 140.486 11.7978 142.143 12.5192 143.8C13.2463 145.457 13.945 147.148 14.6437 148.852C15.3367 150.566 16.0241 152.27 16.6943 154.031C17.3646 155.78 18.0292 157.541 18.6541 159.36C17.8929 157.773 17.1658 156.116 16.4444 154.459C15.7173 152.803 15.0186 151.111 14.3199 149.408C13.6269 147.693 12.9396 145.99 12.2693 144.229C11.599 142.479 10.9401 140.718 10.3096 138.899Z" fill="#15252B"/>
<path d="M1.0625 116.224C1.82935 117.823 2.55645 119.48 3.28354 121.137C4.01063 122.793 4.715 124.497 5.41369 126.2C6.1067 127.915 6.79971 129.63 7.47 131.391C8.14028 133.14 8.80489 134.913 9.43541 136.732C8.66856 135.133 7.94147 133.476 7.21438 131.819C6.48729 130.162 5.78292 128.459 5.08423 126.756C4.39122 125.041 3.69821 123.326 3.02792 121.565C2.35763 119.816 1.68734 118.055 1.0625 116.224Z" fill="#15252B"/>
<path d="M27.7432 161.62C28.3339 162.547 28.8281 163.636 29.2996 164.771C29.7597 165.918 30.1914 167.112 30.5266 168.479C29.9358 167.552 29.4416 166.463 28.9701 165.327C28.5157 164.18 28.0783 162.987 27.7432 161.62Z" fill="#15252B"/>
<path d="M18.6426 139.2C19.3981 140.776 20.1138 142.421 20.8295 144.066C21.5453 145.711 22.2383 147.392 22.9313 149.083C23.6129 150.786 24.3003 152.478 24.9535 154.228C25.6124 155.966 26.2714 157.715 26.8905 159.523C26.135 157.947 25.4193 156.302 24.7036 154.656C23.9878 153.011 23.2948 151.331 22.6018 149.639C21.9202 147.936 21.2385 146.244 20.5796 144.495C19.9207 142.757 19.2617 141.007 18.6426 139.2Z" fill="#15252B"/>
<path d="M0.448242 94.3718C1.92515 97.7318 3.36229 101.138 4.79943 104.568L9.05973 114.915L13.2462 125.389C14.6265 128.899 16.0069 132.422 17.3418 136.014C15.8649 132.665 14.4277 129.247 12.9906 125.817L8.73027 115.471L4.54381 104.997C3.16347 101.474 1.78882 97.952 0.448242 94.3718Z" fill="#15252B"/>
<path d="M90.7783 118.808L96.1747 132.329L101.594 145.804L107.024 159.256C108.831 163.752 110.648 168.224 112.432 172.766C110.512 168.467 108.638 164.088 106.774 159.685C104.911 155.282 103.088 150.821 101.264 146.349C99.4693 141.842 97.6686 137.323 95.9191 132.735C94.1695 128.158 92.4427 123.523 90.7783 118.808Z" fill="#15252B"/>
<path d="M70.5791 69.3101C72.2491 73.122 73.8794 76.9803 75.504 80.8618L80.3437 92.5641L85.1039 104.394C86.6774 108.357 88.2452 112.331 89.7789 116.374C88.1088 112.562 86.4785 108.704 84.8539 104.823L80.0143 93.1203L75.2541 81.2905C73.6806 77.3163 72.1128 73.3422 70.5791 69.3101Z" fill="#15252B"/>
<path d="M83.8545 85.1257L88.5011 95.9127L93.1135 106.746L102.287 128.517L111.387 150.416L115.909 161.411L120.397 172.465L115.75 161.689L111.137 150.844L101.964 129.073L92.8636 107.175L88.342 96.1792L83.8545 85.1257Z" fill="#15252B"/>
<path d="M79.6055 58.1871C80.6847 60.6319 81.8095 63.0187 82.9455 65.3592L86.3935 72.3342C86.9502 73.7246 86.9332 75.59 87.4444 76.7255L89.1656 80.2015L92.6193 87.1533L92.625 87.1649L92.6306 87.1765C94.8289 92.7149 96.9932 98.3111 99.2426 103.757C101.486 109.214 103.827 114.497 106.281 119.538L106.286 119.549L106.292 119.561C109.814 128.471 113.41 137.242 117.005 146.024L127.889 172.21C124.146 163.682 120.425 155.12 116.772 146.43C113.103 137.775 109.524 128.957 105.974 120.094L105.985 120.128C103.497 115.1 101.174 109.747 98.9359 104.267C96.6978 98.7862 94.5336 93.1899 92.3636 87.6052L92.375 87.6284L88.9668 80.5838L87.2626 77.0499C86.6832 75.6595 86.7173 73.7941 86.2288 72.6007L82.866 65.4982C81.7527 63.1114 80.662 60.6898 79.6055 58.1871Z" fill="#15252B"/>
<path d="M42.8242 1.34406L45.9655 8.68989L49.067 16.1052L55.2189 31.0054L61.2969 46.0447L64.3075 53.5991L67.284 61.223L64.1484 53.8772L61.0413 46.4734L54.8894 31.5616L48.817 16.5223L45.8064 8.96796L42.8242 1.34406Z" fill="#15252B"/>
<path d="M49.1924 1.22815L53.3391 11.0651L57.4574 20.9599L65.6315 40.8308L73.726 60.8406L77.7478 70.8861L81.7354 80.9895L77.5887 71.1642L73.4761 61.2693L65.302 41.3869L57.2074 21.3886L53.18 11.3316L49.1924 1.22815Z" fill="#15252B"/>
<path d="M35.1162 0.799255C37.1441 5.45702 39.1095 10.2191 41.0636 14.9927L46.8746 29.4179C48.7889 34.261 50.726 39.0694 52.663 43.8662C54.6 48.6746 56.5597 53.4366 58.5365 58.1871C56.4291 53.68 54.4069 49.0222 52.413 44.3065C50.4192 39.5908 48.4879 34.7824 46.5452 29.974L40.8137 15.4214L35.1162 0.799255Z" fill="#15252B"/>
<path d="M56.7695 1.8653C57.1899 2.36351 57.5137 3.03553 57.8147 3.7423C58.1044 4.47225 58.3657 5.23696 58.5305 6.17546C58.1101 5.67724 57.7863 5.00523 57.4853 4.29845C57.1956 3.56851 56.9343 2.8038 56.7695 1.8653Z" fill="#15252B"/>
<path d="M75.7764 48.802C76.5432 50.146 77.2135 51.6639 77.8554 53.2164C78.4916 54.7922 79.0994 56.4027 79.605 58.1871C78.8381 56.843 78.1678 55.3252 77.5259 53.7726C76.8954 52.1968 76.2819 50.5863 75.7764 48.802Z" fill="#15252B"/>
<path d="M59.5137 8.94452C60.8599 11.957 62.1664 15.039 63.4729 18.1326C64.7794 21.2146 66.0518 24.3545 67.347 27.4597C68.6137 30.6112 69.8918 33.7396 71.1415 36.9143C72.3911 40.089 73.6408 43.2753 74.8508 46.5195C73.5045 43.507 72.198 40.425 70.8915 37.3314C69.585 34.2378 68.3126 31.1095 67.0175 28.0043C65.7508 24.8528 64.4727 21.7244 63.223 18.5381C61.9733 15.3866 60.7236 12.2003 59.5137 8.94452Z" fill="#15252B"/>
<path d="M103.445 169.255C103.786 169.545 104.03 169.997 104.246 170.495C104.456 171.016 104.638 171.573 104.723 172.303C104.383 172.013 104.138 171.561 103.922 171.063C103.712 170.541 103.531 169.985 103.445 169.255Z" fill="#15252B"/>
<path d="M83.2686 118.831L87.989 130.684L92.7207 142.502L97.4582 154.32C99.0373 158.26 100.617 162.199 102.167 166.196C100.48 162.442 98.8385 158.607 97.2083 154.749C95.578 150.891 93.9875 146.975 92.3913 143.047C90.8235 139.084 89.2557 135.122 87.7334 131.089C86.211 127.069 84.7114 122.99 83.2686 118.831Z" fill="#15252B"/>
<path d="M58.5254 58.1871C59.5933 60.4581 60.6499 62.7522 61.6951 65.0811C62.7232 67.4216 63.74 69.7968 64.7511 72.1836C66.762 76.9688 68.6933 81.8815 70.636 86.7826L76.3846 101.59C77.3389 104.058 78.3102 106.514 79.2816 108.948C80.2472 111.404 81.2243 113.837 82.2183 116.247C81.1732 113.93 80.145 111.589 79.1225 109.214C78.1171 106.827 77.1173 104.417 76.129 101.996C74.1579 97.1525 72.2436 92.205 70.3009 87.3155C68.3866 82.3797 66.4496 77.4786 64.5012 72.6007C63.5241 70.1676 62.5358 67.746 61.5417 65.3476C60.5533 62.9376 59.5479 60.5508 58.5254 58.1871Z" fill="#15252B"/>
<path d="M90.3584 49.2424L94.3972 58.8939L98.3678 68.6729C101.003 75.2077 103.588 81.8236 106.19 88.4163L121.612 128.251L117.607 118.541L113.659 108.727C111.041 102.169 108.456 95.542 105.86 88.9493L90.3584 49.2424Z" fill="#15252B"/>
<path d="M72.0957 2.7923C73.6521 6.2219 75.1518 9.77894 76.623 13.3592C78.0999 16.9394 79.5257 20.6007 80.9571 24.2505C82.3659 27.9466 83.7803 31.6195 85.1663 35.3387C86.5523 39.058 87.9383 42.7888 89.296 46.5544C87.7963 43.009 86.3478 39.3824 84.905 35.7558L80.6163 24.7834L76.3617 13.7763L72.0957 2.7923Z" fill="#15252B"/>
<path d="M144.123 162.002C145.06 163.74 145.895 165.64 146.708 167.587C147.509 169.545 148.287 171.549 148.968 173.728C148.031 171.99 147.196 170.09 146.384 168.143C145.583 166.185 144.805 164.18 144.123 162.002Z" fill="#15252B"/>
<path d="M133.518 136.315C134.392 138.157 135.239 140.069 136.074 141.992C136.909 143.904 137.721 145.874 138.545 147.809C139.34 149.79 140.152 151.748 140.936 153.764C141.72 155.769 142.498 157.785 143.242 159.87C142.362 158.028 141.521 156.116 140.686 154.204C139.851 152.293 139.039 150.323 138.221 148.388C137.426 146.407 136.613 144.449 135.83 142.433C135.04 140.417 134.262 138.401 133.518 136.315Z" fill="#15252B"/>
<path d="M111.927 83.7819C113.682 87.7792 115.403 91.8345 117.119 95.9013L122.225 108.171L127.252 120.569C128.917 124.728 130.57 128.888 132.194 133.117C130.439 129.12 128.718 125.064 127.003 120.998L121.896 108.728L116.869 96.33C115.204 92.1705 113.551 88.0109 111.927 83.7819Z" fill="#15252B"/>
<path d="M97.9248 49.3118C99.0495 51.8029 100.14 54.3519 101.225 56.9126C102.31 59.4732 103.367 62.0801 104.435 64.6639C105.48 67.2941 106.536 69.8894 107.57 72.5427C108.598 75.196 109.626 77.8493 110.615 80.5722C109.49 78.0811 108.399 75.532 107.315 72.9714C106.23 70.4108 105.173 67.8039 104.105 65.2201C103.06 62.5899 102.003 59.9946 100.97 57.3413C99.9357 54.688 98.9132 52.0231 97.9248 49.3118Z" fill="#15252B"/>
<path d="M83.8545 15.0623C84.769 17.982 85.7915 20.7396 86.8708 23.3813C87.9557 26.0231 89.0748 28.6068 90.2393 31.1211C91.3753 33.6817 92.5512 36.1728 93.6816 38.7682C94.812 41.352 95.9197 43.9937 96.9024 46.8208C95.7833 44.2138 94.6189 41.7112 93.443 39.2201L89.9325 31.712C88.7964 29.1398 87.6604 26.556 86.6208 23.7985C85.5813 21.0409 84.6157 18.1558 83.8545 15.0623Z" fill="#15252B"/>
<path d="M151.457 162.35C152.377 164.018 153.201 165.86 153.996 167.749C154.786 169.649 155.547 171.596 156.212 173.716C155.291 172.048 154.468 170.205 153.672 168.317C152.888 166.405 152.122 164.458 151.457 162.35Z" fill="#15252B"/>
<path d="M140.289 135.643C141.175 137.485 142.027 139.385 142.874 141.297C143.72 143.209 144.538 145.167 145.367 147.102C146.174 149.083 146.992 151.041 147.787 153.046C148.582 155.05 149.366 157.066 150.122 159.14C149.236 157.298 148.384 155.398 147.537 153.486C146.691 151.574 145.873 149.616 145.044 147.681C144.237 145.7 143.413 143.742 142.624 141.737C141.828 139.733 141.039 137.717 140.289 135.643Z" fill="#15252B"/>
<path d="M120.492 88.3353C122.094 91.8923 123.662 95.5073 125.23 99.1454L129.876 110.106L134.449 121.195C135.96 124.914 137.465 128.645 138.936 132.433C137.335 128.876 135.761 125.261 134.199 121.635L129.552 110.674L124.98 99.5857C123.469 95.8549 121.963 92.124 120.492 88.3353Z" fill="#15252B"/>
<path d="M159.284 162.442C160.221 164.25 161.062 166.231 161.874 168.247C162.675 170.286 163.459 172.36 164.135 174.608C163.198 172.801 162.357 170.819 161.545 168.803C160.738 166.764 159.96 164.69 159.284 162.442Z" fill="#15252B"/>
<path d="M148.202 135.805C149.117 137.589 149.986 139.466 150.844 141.367C151.701 143.255 152.525 145.225 153.354 147.16C154.161 149.141 154.973 151.122 155.751 153.15C156.53 155.178 157.302 157.217 158.035 159.326C157.166 157.449 156.331 155.514 155.501 153.579L153.03 147.727L150.599 141.807C149.793 139.825 148.986 137.844 148.202 135.805Z" fill="#15252B"/>
<path d="M142.425 123.419C143.288 124.763 144.066 126.292 144.816 127.868C145.56 129.456 146.282 131.101 146.901 132.92C146.032 131.576 145.259 130.046 144.51 128.471C143.771 126.872 143.05 125.238 142.425 123.419Z" fill="#15252B"/>
<path d="M122.23 130.255L127.025 141.007L131.847 151.713C133.438 155.317 135.04 158.885 136.608 162.547C138.17 166.196 139.715 169.892 141.186 173.704L131.535 152.304C129.944 148.701 128.343 145.121 126.786 141.459C125.224 137.786 123.69 134.079 122.23 130.255Z" fill="#15252B"/>
<path d="M107.684 56.9359C108.564 58.8129 109.405 60.7478 110.24 62.6828C111.08 64.6293 111.887 66.6222 112.711 68.5803C113.512 70.5847 114.324 72.5776 115.108 74.6052C115.892 76.6329 116.67 78.6837 117.414 80.7808C116.534 78.9038 115.693 76.9689 114.858 75.0339C114.023 73.0874 113.211 71.1061 112.387 69.1364C111.592 67.1204 110.774 65.1391 109.99 63.1114C109.206 61.0838 108.428 59.0446 107.684 56.9359Z" fill="#15252B"/>
<path d="M85.5469 3.08185L90.9262 15.7227L96.2715 28.4215C98.0324 32.6969 99.799 36.9491 101.537 41.2709C103.27 45.5927 104.985 49.9376 106.644 54.3752L101.287 41.6996L95.9534 28.9892C94.1981 24.7138 92.4202 20.4616 90.682 16.1514C88.9381 11.8412 87.2169 7.50788 85.5469 3.08185Z" fill="#15252B"/>
<path d="M78.5088 3.00067C79.1734 4.10139 79.7471 5.3759 80.2868 6.68517C80.8207 8.01762 81.332 9.38482 81.7409 10.9258C81.0707 9.82511 80.5026 8.5506 79.963 7.24132C79.4233 5.90888 78.9178 4.54167 78.5088 3.00067Z" fill="#15252B"/>
<path d="M126.741 84.1177C128.082 87.1417 129.394 90.2353 130.695 93.3289C131.996 96.4225 133.268 99.574 134.557 102.691C135.818 105.854 137.097 108.994 138.346 112.18C139.596 115.366 140.84 118.564 142.044 121.82C140.698 118.796 139.391 115.702 138.091 112.609C136.79 109.515 135.517 106.364 134.228 103.247C132.967 100.084 131.689 96.9439 130.439 93.7576C129.189 90.5713 127.945 87.3851 126.741 84.1177Z" fill="#15252B"/>
<path d="M115.738 57.017C116.573 58.8013 117.38 60.6436 118.175 62.4974C118.97 64.3513 119.737 66.2515 120.521 68.1285C121.277 70.0518 122.049 71.9404 122.793 73.8869C123.537 75.8335 124.276 77.78 124.98 79.796C124.14 78.0117 123.339 76.1695 122.543 74.3156C121.748 72.4618 120.976 70.5616 120.197 68.6846C119.442 66.7613 118.669 64.8727 117.925 62.9261C117.181 60.9796 116.443 59.0331 115.738 57.017Z" fill="#15252B"/>
<path d="M93.5615 2.72284C95.3849 6.91715 97.1743 11.1578 98.9636 15.4216L104.275 28.271L109.512 41.2479C111.245 45.5928 112.971 49.9493 114.659 54.3754C112.835 50.1927 111.04 45.9404 109.256 41.6766L103.945 28.8272L98.708 15.8503C96.9811 11.4938 95.2543 7.13729 93.5615 2.72284Z" fill="#15252B"/>
<path d="M83.3486 48.9527L87.4726 58.7317L91.5625 68.5686L99.6912 88.3236L107.74 108.218L111.739 118.205L115.704 128.262L111.58 118.483L107.49 108.646L99.3617 88.8797L91.3126 68.9973L87.3136 58.9982L83.3486 48.9527Z" fill="#15252B"/>
<path d="M64.1426 2.21289L68.9255 13.0115C70.516 16.6149 72.0781 20.2646 73.6459 23.926C75.1853 27.622 76.7247 31.3181 78.2073 35.1301C79.6842 38.9305 81.127 42.8003 82.4676 46.8093C80.9793 43.0205 79.4797 39.2665 77.9516 35.5588C76.4236 31.8511 74.8899 28.155 73.3221 24.5053L68.6755 13.4634C67.1418 9.7441 65.6138 6.03643 64.1426 2.21289Z" fill="#15252B"/>
<path d="M175.234 162.048C176.189 163.844 177.041 165.814 177.87 167.819C178.688 169.846 179.483 171.909 180.176 174.145C179.222 172.349 178.37 170.379 177.541 168.375C176.723 166.347 175.927 164.285 175.234 162.048Z" fill="#15252B"/>
<path d="M157.739 119.155C159.193 122.434 160.608 125.771 162.017 129.12C163.431 132.468 164.811 135.863 166.209 139.235L170.327 149.477C171.685 152.918 173.037 156.359 174.354 159.87C172.9 156.591 171.486 153.254 170.077 149.906L165.885 139.791C164.516 136.373 163.124 132.989 161.767 129.548C160.409 126.119 159.057 122.666 157.739 119.155Z" fill="#15252B"/>
<path d="M171.009 134.982C172.429 138.18 173.809 141.436 175.184 144.692C176.559 147.959 177.91 151.261 179.274 154.552L183.284 164.539C184.608 167.888 185.926 171.26 187.209 174.678C185.789 171.48 184.409 168.236 183.034 164.968L178.944 155.108C177.609 151.771 176.257 148.469 174.934 145.12C173.61 141.772 172.293 138.4 171.009 134.982Z" fill="#15252B"/>
<path d="M176.359 131.564C177.927 135.122 179.455 138.736 180.978 142.363L185.51 153.312L189.97 164.389C191.441 168.108 192.906 171.827 194.338 175.616C192.77 172.059 191.242 168.444 189.72 164.818L185.187 153.868L180.728 142.792C179.256 139.072 177.791 135.353 176.359 131.564Z" fill="#15252B"/>
<path d="M166.76 108.044C167.572 109.759 168.356 111.543 169.128 113.327C169.907 115.112 170.657 116.931 171.406 118.761C172.15 120.604 172.895 122.434 173.61 124.323C174.332 126.2 175.047 128.088 175.723 130.035C174.905 128.32 174.127 126.536 173.355 124.752C172.576 122.967 171.827 121.148 171.077 119.317C170.333 117.475 169.589 115.645 168.873 113.756C168.157 111.879 167.441 109.99 166.76 108.044Z" fill="#15252B"/>
<path d="M132.354 56.9475C134.245 61.3735 136.091 65.8807 137.926 70.3994L143.408 84.0019C145.214 88.567 147.054 93.0858 148.889 97.6045C150.724 102.123 152.581 106.607 154.445 111.08C152.451 106.839 150.531 102.459 148.639 98.0332C146.748 93.5956 144.913 89.0768 143.078 84.5581C141.272 79.993 139.454 75.428 137.676 70.8281C135.892 66.2051 134.114 61.5937 132.354 56.9475Z" fill="#15252B"/>
<path d="M121.788 31.0516C122.652 32.8823 123.475 34.7825 124.299 36.6827C125.122 38.5828 125.912 40.541 126.719 42.4643C127.503 44.434 128.298 46.3805 129.065 48.3734C129.832 50.3663 130.598 52.3708 131.32 54.4332C130.456 52.6025 129.633 50.7023 128.809 48.8021C127.991 46.9019 127.196 44.9438 126.389 43.0205C125.611 41.0508 124.81 39.1042 124.043 37.1114C123.282 35.1069 122.515 33.114 121.788 31.0516Z" fill="#15252B"/>
<path d="M125.929 25.525L128.593 32.1524L131.285 38.722C133.08 43.1017 134.887 47.4582 136.704 51.8031L147.639 77.8032C151.269 86.493 154.91 95.1829 158.466 104C160.244 108.415 162.005 112.852 163.755 117.313L166.345 124.056L168.901 130.846L166.26 124.184L163.59 117.568C161.806 113.165 160.017 108.774 158.21 104.417C154.598 95.6927 150.968 87.0144 147.31 78.3593C143.68 69.6695 140.027 61.0028 136.449 52.2202C134.659 47.8289 132.882 43.4145 131.121 38.9769L128.508 32.2683L125.929 25.525Z" fill="#15252B"/>
<path d="M116.624 2.73413C117.391 4.33307 118.118 5.98993 118.845 7.65839C119.572 9.31525 120.277 11.0185 120.975 12.7333C121.668 14.4481 122.361 16.1744 123.032 17.9356C123.702 19.6967 124.372 21.4579 125.003 23.2885C124.236 21.6896 123.509 20.0327 122.782 18.3643C122.054 16.7074 121.35 15.0042 120.651 13.2894C119.958 11.5746 119.265 9.84823 118.595 8.08708C117.925 6.32594 117.255 4.5648 116.624 2.73413Z" fill="#15252B"/>
<path d="M135.268 84.2684C136.171 86.1917 137.04 88.173 137.915 90.1427L140.522 96.075L143.112 102.03C143.976 104.023 144.845 106.005 145.691 108.021C144.714 106.248 143.788 104.382 142.874 102.482C141.959 100.582 141.084 98.6124 140.204 96.6427C139.352 94.6267 138.494 92.6338 137.67 90.5598C136.841 88.5206 136.034 86.4235 135.268 84.2684Z" fill="#15252B"/>
<path d="M124.44 57.3298C125.281 59.1373 126.082 61.0028 126.883 62.8913C127.684 64.7684 128.451 66.6917 129.235 68.5919C129.996 70.5384 130.768 72.4618 131.513 74.4199C132.257 76.3896 132.995 78.3593 133.699 80.3985C132.859 78.591 132.058 76.7256 131.257 74.837C130.462 72.96 129.689 71.0366 128.905 69.1365C128.15 67.1899 127.372 65.2666 126.627 63.3085C125.883 61.3388 125.145 59.3575 124.44 57.3298Z" fill="#15252B"/>
<path d="M111.751 25.9419C112.779 28.2128 113.773 30.5533 114.767 32.8938C115.756 35.2343 116.716 37.6327 117.693 39.9963C118.641 42.4063 119.607 44.7931 120.544 47.2263C121.482 49.6594 122.413 52.1042 123.305 54.6069C122.271 52.3359 121.277 49.9954 120.289 47.6434C119.3 45.3029 118.34 42.9045 117.363 40.5409C116.415 38.1309 115.449 35.7441 114.512 33.3109C113.58 30.8893 112.648 28.4446 111.751 25.9419Z" fill="#15252B"/>
<path d="M102.19 3.08185C102.946 4.61126 103.667 6.19861 104.377 7.78596C105.093 9.37331 105.786 11.007 106.479 12.6407C107.166 14.286 107.848 15.9428 108.507 17.6345C109.172 19.3261 109.825 21.0177 110.45 22.7789C109.694 21.2495 108.973 19.6621 108.263 18.0748C107.547 16.4874 106.854 14.8537 106.161 13.22C105.479 11.5747 104.792 9.91787 104.133 8.22625C103.469 6.54621 102.81 4.84299 102.19 3.08185Z" fill="#15252B"/>
<path d="M133.007 25.6873C134.092 28.1783 135.143 30.7158 136.199 33.2416L139.352 40.854C140.391 43.4146 141.454 45.9288 142.51 48.4547L145.691 56.0323C144.504 53.7381 143.374 51.3397 142.266 48.9066C141.158 46.4618 140.096 43.9475 139.028 41.4217C137.989 38.8611 136.949 36.3005 135.949 33.6703C134.938 31.0518 133.95 28.3985 133.007 25.6873Z" fill="#15252B"/>
<path d="M124.111 3.08185C124.821 4.59968 125.492 6.17544 126.162 7.7512C126.832 9.32696 127.48 10.9491 128.127 12.5712C128.764 14.2049 129.405 15.8386 130.013 17.5186C130.627 19.1871 131.24 20.8671 131.808 22.6167C131.098 21.0988 130.422 19.5231 129.758 17.9473C129.087 16.3715 128.44 14.7494 127.798 13.1273C127.162 11.4936 126.526 9.85994 125.912 8.1799C125.293 6.51144 124.685 4.83141 124.111 3.08185Z" fill="#15252B"/>
<path d="M146.674 58.8013C148.418 62.787 150.122 66.8423 151.82 70.8976L156.882 83.1445L161.869 95.5188C163.516 99.6668 165.158 103.826 166.765 108.044C165.022 104.058 163.317 100.003 161.619 95.9475L156.558 83.7006L151.576 71.3263C149.923 67.1783 148.281 63.0187 146.674 58.8013Z" fill="#15252B"/>
<path d="M110.273 2.8269C111.006 4.34473 111.705 5.93208 112.398 7.51943C113.097 9.10678 113.767 10.7289 114.437 12.3626C115.102 14.0079 115.761 15.6416 116.403 17.3332C117.044 19.0132 117.681 20.7049 118.277 22.4544C117.544 20.9366 116.846 19.3492 116.153 17.7619C115.454 16.1745 114.784 14.5524 114.113 12.9187C113.449 11.2734 112.79 9.63976 112.148 7.94813C111.512 6.26809 110.876 4.57646 110.273 2.8269Z" fill="#15252B"/>
<path d="M167.782 163.149C168.714 164.794 169.549 166.602 170.355 168.456C171.156 170.321 171.929 172.245 172.611 174.33C171.679 172.696 170.844 170.889 170.037 169.023C169.236 167.146 168.464 165.235 167.782 163.149Z" fill="#15252B"/>
<path d="M156.87 136.199C157.739 138.076 158.574 140.011 159.404 141.958C160.233 143.904 161.034 145.897 161.846 147.867C162.636 149.883 163.437 151.864 164.215 153.903C164.993 155.942 165.76 157.982 166.498 160.09C165.629 158.213 164.794 156.278 163.965 154.332C163.136 152.385 162.335 150.393 161.517 148.423C160.727 146.407 159.92 144.425 159.148 142.386C158.375 140.347 157.603 138.296 156.87 136.199Z" fill="#15252B"/>
<path d="M145.686 108.044C146.583 110.014 147.446 112.053 148.304 114.104C149.162 116.143 149.991 118.24 150.838 120.314C151.656 122.423 152.491 124.508 153.292 126.652C154.098 128.784 154.893 130.927 155.655 133.129C154.757 131.147 153.894 129.12 153.036 127.069C152.178 125.018 151.349 122.932 150.508 120.858C149.69 118.75 148.855 116.664 148.054 114.532C147.248 112.389 146.447 110.245 145.686 108.044Z" fill="#15252B"/>
<path d="M199.274 153.509C200.166 155.224 200.961 157.101 201.728 159.024C202.49 160.959 203.222 162.941 203.853 165.084C202.955 163.369 202.166 161.492 201.399 159.569C200.638 157.623 199.911 155.653 199.274 153.509Z" fill="#15252B"/>
<path d="M190.322 131.507C191.032 132.966 191.703 134.473 192.367 136.002C193.038 137.52 193.679 139.084 194.327 140.648C194.963 142.224 195.599 143.8 196.207 145.422C196.821 147.032 197.428 148.655 198.002 150.346C197.292 148.886 196.622 147.38 195.957 145.851C195.287 144.333 194.645 142.769 193.997 141.204C193.361 139.629 192.725 138.053 192.117 136.431C191.504 134.82 190.896 133.187 190.322 131.507Z" fill="#15252B"/>
<path d="M178.802 102.343C179.728 104.406 180.614 106.526 181.494 108.658C182.375 110.79 183.227 112.956 184.096 115.112C184.937 117.301 185.794 119.468 186.624 121.693C187.453 123.906 188.277 126.13 189.061 128.424C188.135 126.362 187.249 124.253 186.368 122.121C185.488 119.989 184.63 117.811 183.766 115.668C182.926 113.466 182.068 111.3 181.239 109.087C180.409 106.85 179.586 104.626 178.802 102.343Z" fill="#15252B"/>
<path d="M157.739 49.0919C159.489 53.2399 161.21 57.4458 162.92 61.6517L168.009 74.362L173.025 87.1999C174.684 91.4984 176.337 95.8086 177.95 100.177C176.195 96.0288 174.479 91.8229 172.77 87.617L167.68 74.9066L162.67 62.0688C161.005 57.7702 159.352 53.46 157.739 49.0919Z" fill="#15252B"/>
<path d="M197.462 131.958C198.058 133.152 198.626 134.392 199.183 135.655C199.745 136.906 200.279 138.204 200.813 139.501C201.342 140.811 201.87 142.12 202.37 143.475C202.875 144.819 203.375 146.175 203.835 147.6C203.233 146.407 202.671 145.167 202.114 143.904C201.552 142.653 201.018 141.355 200.484 140.057C199.956 138.748 199.427 137.439 198.927 136.083C198.428 134.728 197.928 133.372 197.462 131.958Z" fill="#15252B"/>
<path d="M185.868 102.552C186.8 104.637 187.692 106.769 188.578 108.913C189.464 111.056 190.322 113.246 191.196 115.413C192.043 117.626 192.906 119.804 193.736 122.04C194.571 124.277 195.4 126.513 196.189 128.818C195.264 126.744 194.366 124.601 193.48 122.457C192.594 120.314 191.736 118.113 190.861 115.946C190.015 113.733 189.151 111.543 188.316 109.307C187.487 107.094 186.658 104.846 185.868 102.552Z" fill="#15252B"/>
<path d="M171.009 64.9075C172.23 67.7114 173.417 70.5848 174.593 73.4583C175.775 76.3317 176.922 79.2631 178.092 82.1597C179.234 85.1027 180.387 88.0225 181.512 90.9886C182.637 93.9548 183.761 96.9209 184.841 99.9566C183.619 97.1527 182.432 94.2792 181.256 91.4058C180.075 88.5323 178.927 85.6009 177.757 82.7043C176.615 79.7613 175.462 76.8415 174.338 73.8754C173.218 70.9209 172.094 67.9431 171.009 64.9075Z" fill="#15252B"/>
<path d="M193.19 102.737C194.133 104.776 195.042 106.862 195.945 108.971C196.849 111.079 197.723 113.223 198.615 115.355C199.479 117.522 200.359 119.677 201.211 121.866C202.063 124.056 202.91 126.258 203.716 128.529C202.773 126.489 201.864 124.404 200.961 122.295C200.058 120.186 199.183 118.043 198.291 115.911C197.428 113.733 196.548 111.589 195.701 109.399C194.843 107.21 193.997 105.008 193.19 102.737Z" fill="#15252B"/>
<path d="M178.632 67.0624C179.802 69.6462 180.938 72.2995 182.063 74.9528C183.193 77.6061 184.295 80.3174 185.409 82.9939C186.499 85.7167 187.601 88.4163 188.68 91.1623C189.754 93.9083 190.828 96.6659 191.861 99.4814C190.691 96.8976 189.555 94.2443 188.425 91.591C187.294 88.9377 186.192 86.2265 185.079 83.55C183.988 80.8272 182.886 78.1275 181.807 75.3815C180.739 72.6355 179.671 69.8895 178.632 67.0624Z" fill="#15252B"/>
<path d="M167.947 40.877C168.822 42.7424 169.663 44.6658 170.498 46.6007C171.333 48.5357 172.139 50.517 172.957 52.4751C173.753 54.4795 174.559 56.4492 175.343 58.4769C176.127 60.5045 176.9 62.5322 177.638 64.6293C176.763 62.7639 175.923 60.8405 175.088 58.9056C174.253 56.9706 173.446 54.9893 172.628 53.0312C171.833 51.0268 171.026 49.0571 170.242 47.0294C169.464 45.0018 168.686 42.9742 167.947 40.877Z" fill="#15252B"/>
<path d="M138.482 1.88837C139.88 5.0283 141.243 8.23776 142.595 11.4588C143.953 14.6683 145.282 17.9356 146.622 21.1683L150.576 31.0168C151.877 34.3189 153.178 37.6327 154.439 41.0043C153.041 37.8644 151.678 34.6549 150.32 31.4339L146.293 21.7128C144.975 18.4339 143.646 15.1781 142.339 11.8643C141.044 8.58535 139.743 5.27162 138.482 1.88837Z" fill="#15252B"/>
<path d="M145.117 1.76099L148.168 9.01412L151.19 16.3136L157.171 30.9937L163.079 45.8128L166.004 53.2629L168.895 60.7825L165.845 53.541L162.823 46.2415L156.842 31.5498L150.934 16.7307L148.009 9.28061L145.117 1.76099Z" fill="#15252B"/>
<path d="M141.016 25.7799C141.981 27.4831 142.833 29.4065 143.629 31.4341C144.407 33.4733 145.134 35.6284 145.685 37.9689C144.85 35.9992 144.077 33.9831 143.293 31.9671C142.521 29.9395 141.731 27.935 141.016 25.7799Z" fill="#15252B"/>
<path d="M131.081 3.12811L133.285 8.12188L135.512 13.0577C136.25 14.7146 137 16.3483 137.727 18.0283C138.454 19.7084 139.181 21.4 139.863 23.1611C139.051 21.6317 138.272 20.0676 137.489 18.4802C136.705 16.9044 135.949 15.2823 135.199 13.6371C134.461 11.9802 133.728 10.3001 133.035 8.55059C132.348 6.81261 131.677 5.01671 131.081 3.12811Z" fill="#15252B"/>
<path d="M151.996 1.77264C153.376 4.51864 154.683 7.41526 155.95 10.3698C157.222 13.3244 158.438 16.3716 159.659 19.4073L163.232 28.6649L166.765 37.9804C165.459 35.0954 164.209 32.1061 162.976 29.082C161.744 26.0695 160.551 22.9875 159.329 19.9518C158.137 16.8698 156.921 13.8342 155.705 10.7985C154.484 7.76286 153.246 4.76196 151.996 1.77264Z" fill="#15252B"/>
<path d="M201.779 103.224C202.285 103.931 202.694 104.811 203.08 105.727C203.455 106.665 203.807 107.638 204.051 108.785C203.54 108.079 203.137 107.198 202.751 106.283C202.381 105.344 202.029 104.371 201.779 103.224Z" fill="#15252B"/>
<path d="M186.862 67.3636C188.061 69.9706 189.231 72.6355 190.39 75.3236C191.549 78 192.685 80.7345 193.832 83.4341C194.957 86.1801 196.093 88.9029 197.201 91.6721C198.308 94.4413 199.41 97.222 200.478 100.061C199.274 97.4537 198.11 94.7889 196.951 92.1008C195.792 89.4243 194.656 86.7015 193.508 83.9903C192.389 81.2443 191.253 78.5214 190.14 75.7523C189.032 72.9831 187.93 70.2023 186.862 67.3636Z" fill="#15252B"/>
<path d="M160.017 1.22815L163.317 9.02586L166.577 16.8815L173.059 32.6855L179.461 48.6053L182.636 56.6231L185.772 64.6873L182.471 56.8896L179.205 49.034L172.729 33.23L166.328 17.2986L163.152 9.29235L160.017 1.22815Z" fill="#15252B"/>
<path d="M183.807 131.321C185.38 134.901 186.914 138.54 188.448 142.189L192.998 153.208L197.474 164.354C198.951 168.097 200.427 171.839 201.859 175.651C200.285 172.071 198.752 168.433 197.218 164.783L192.668 153.764L188.192 142.618C186.715 138.876 185.244 135.133 183.807 131.321Z" fill="#15252B"/>
<path d="M172.054 102.598C173.031 104.695 173.968 106.862 174.9 109.04C175.837 111.207 176.74 113.432 177.66 115.633C178.558 117.869 179.467 120.082 180.347 122.353C181.228 124.613 182.102 126.884 182.943 129.224C181.966 127.127 181.029 124.96 180.097 122.782C179.166 120.604 178.257 118.391 177.336 116.189C176.445 113.953 175.53 111.74 174.65 109.469C173.769 107.21 172.894 104.939 172.054 102.598Z" fill="#15252B"/>
<path d="M145.686 37.969C146.719 40.5875 147.759 43.1829 148.81 45.7667L151.962 53.5181C154.075 58.6625 156.194 63.7953 158.336 68.8933L164.704 84.2802L167.856 92.0315L170.946 99.8872L164.454 84.7089L158.012 69.4495C155.893 64.3051 153.774 59.1723 151.712 53.9352C150.684 51.3166 149.662 48.6749 148.651 46.0332C147.651 43.3567 146.663 40.6686 145.686 37.969Z" fill="#15252B"/>
<path d="M202.608 67.6881C202.938 67.885 203.176 68.2788 203.398 68.719C203.608 69.1707 203.79 69.6688 203.88 70.3522C203.545 70.1437 203.307 69.7614 203.091 69.3213C202.887 68.8696 202.705 68.3715 202.608 67.6881Z" fill="#15252B"/>
<path d="M188.47 33.0213C189.623 35.5703 190.748 38.1889 191.861 40.8074C192.974 43.426 194.059 46.1024 195.161 48.7442C196.235 51.4322 197.325 54.0971 198.388 56.8084C199.45 59.5196 200.506 62.2424 201.523 65.0232C200.364 62.4741 199.245 59.8556 198.132 57.237C197.019 54.6185 195.934 51.942 194.832 49.3003C193.758 46.6122 192.668 43.9474 191.605 41.2361C190.543 38.5249 189.487 35.8021 188.47 33.0213Z" fill="#15252B"/>
<path d="M197.49 21.9099C198.433 23.6826 199.274 25.6292 200.092 27.6105C200.898 29.6149 201.682 31.6541 202.364 33.8672C201.421 32.0944 200.58 30.1479 199.762 28.1666C198.956 26.1622 198.178 24.1229 197.49 21.9099Z" fill="#15252B"/>
<path d="M175.53 1.3092C176.399 3.16304 177.234 5.07481 178.064 7.00975C178.893 8.93311 179.694 10.9028 180.512 12.8493C181.302 14.8422 182.108 16.8119 182.886 18.8164C183.665 20.8324 184.437 22.8485 185.17 24.934C184.301 23.0802 183.466 21.1684 182.631 19.2335C181.801 17.3101 181 15.3404 180.183 13.3939C179.393 11.401 178.586 9.43132 177.808 7.41528C177.036 5.4224 176.263 3.39477 175.53 1.3092Z" fill="#15252B"/>
<path d="M181.863 1.17023C183.425 4.65776 184.925 8.26115 186.408 11.8877C187.896 15.5143 189.339 19.1988 190.81 22.837C192.253 26.5215 193.718 30.1712 195.184 33.8325C196.649 37.4823 198.132 41.1088 199.62 44.7238C197.996 41.3522 196.451 37.8299 194.934 34.2612C193.417 30.6926 191.952 27.0313 190.48 23.3815L186.158 12.3048L181.863 1.17023Z" fill="#15252B"/>
<path d="M167.577 0.787842C168.378 2.43312 169.151 4.13633 169.912 5.85113C170.679 7.55435 171.417 9.31549 172.156 11.0651C172.888 12.8262 173.621 14.5989 174.325 16.4064C175.036 18.2139 175.74 20.0214 176.41 21.91C175.609 20.2647 174.842 18.5615 174.076 16.8467C173.309 15.1319 172.57 13.3823 171.832 11.6328C171.099 9.86006 170.366 8.09891 169.662 6.27983C168.952 4.48393 168.247 2.66485 167.577 0.787842Z" fill="#15252B"/>
<path d="M188.556 0C189.226 1.3672 189.862 2.79234 190.493 4.21748C191.123 5.64262 191.731 7.1141 192.339 8.58558C192.941 10.0687 193.537 11.5517 194.111 13.0811C194.69 14.599 195.259 16.14 195.792 17.7273C195.122 16.3601 194.486 14.935 193.855 13.5098C193.225 12.0847 192.617 10.6132 192.009 9.14173C191.413 7.65866 190.811 6.17559 190.237 4.64618C189.658 3.12835 189.09 1.59893 188.556 0Z" fill="#15252B"/>
<path d="M194.979 67.4216C195.883 69.3565 196.746 71.3494 197.61 73.3539C198.473 75.3583 199.302 77.4091 200.154 79.4252C200.978 81.4991 201.813 83.5384 202.62 85.6239C203.426 87.7211 204.233 89.8182 205 91.9733C204.097 90.0384 203.227 88.0455 202.37 86.0526C201.506 84.0482 200.677 81.9974 199.825 79.9813C199.001 77.9073 198.166 75.8681 197.36 73.771C196.553 71.6854 195.752 69.5767 194.979 67.4216Z" fill="#15252B"/>
<path d="M176.416 21.9099C177.938 25.3627 179.432 28.885 180.915 32.4189L185.329 43.0668L189.663 53.8538C191.094 57.4688 192.52 61.0954 193.912 64.7915C192.384 61.3387 190.895 57.8164 189.413 54.2825L185.005 43.623L180.671 32.836C179.228 29.221 177.802 25.5944 176.416 21.9099Z" fill="#15252B"/>
<path d="M196.241 0.440369C196.923 1.83075 197.565 3.27905 198.201 4.72736C198.843 6.17567 199.456 7.67033 200.07 9.16499C200.678 10.6712 201.285 12.1775 201.865 13.7301C202.45 15.2711 203.029 16.8237 203.569 18.4458C202.893 17.067 202.251 15.6187 201.609 14.1588C200.967 12.7104 200.354 11.2158 199.74 9.72114C199.133 8.2149 198.525 6.70866 197.945 5.15607C197.366 3.60348 196.787 2.05089 196.241 0.440369Z" fill="#15252B"/>
</g>
<path d="M168.444 96.306C111.687 159.092 61.1158 111.464 47.5718 96.2374C45.5568 93.973 45.5568 89.9931 47.5718 87.7287C61.1158 72.5023 111.687 24.8742 168.444 87.6601C170.519 89.952 170.519 94.0073 168.444 96.306Z" stroke="#1D1D1B" stroke-width="4" stroke-miterlimit="10"/>
<path d="M107.249 105.213C99.8895 97.5755 100.123 85.4231 107.772 78.0741C113.187 72.8728 120.863 71.4867 127.501 73.8198C127.446 73.7649 127.398 73.7031 127.343 73.6414C117.2 63.1221 100.439 62.7996 89.9045 72.9277C79.3697 83.0558 79.0468 99.7919 89.1898 110.311C99.3328 120.83 116.094 121.153 126.628 111.025C127.006 110.661 127.364 110.29 127.714 109.913C120.773 112.452 112.699 110.867 107.249 105.213Z" fill="#E9005A"/>
<path d="M122.794 75.3431C114.307 74.7461 105.923 81.8481 105.703 91.7566C105.504 100.704 113.097 108.63 122.1 108.65C133.191 108.678 139.115 99.5791 139.121 92.4565C139.115 82.8843 132.208 75.4803 122.794 75.3431ZM122.237 106.763C114.863 107.059 107.256 100.156 107.558 91.6125C107.847 83.4675 114.272 77.0311 122.484 77.0517C130.786 77.0723 137.5 83.8106 137.41 92.0311C137.321 100.265 130.552 106.846 122.237 106.763Z" fill="#15252B"/>
<path d="M119.947 88.3421C120.218 86.8905 119.722 85.5156 119.861 84C120.946 85.1191 121.567 86.4173 122.573 87.4852C123.446 86.3149 124.299 85.1703 125.153 84.0256C125.119 85.4644 125.126 86.8201 125.126 88.2718C126.621 88.0352 127.918 87.4149 129.512 87.0759C128.533 88.2782 127.64 89.3653 126.694 90.5228C128.109 91.1175 129.538 91.3861 131 91.9041C129.618 92.518 128.182 92.7546 126.733 93.311C127.441 94.5068 128.519 95.4021 129.373 96.6683C127.845 96.5468 126.628 95.8177 125.126 95.5875C125.126 97.0136 125.133 98.4205 125.338 100C124.213 98.8553 123.578 97.5763 122.586 96.4508C121.534 97.4612 120.906 98.7722 119.867 99.9552C119.682 98.4269 120.185 97.0328 119.953 95.53C118.525 95.9648 117.142 96.3805 115.495 96.8793C116.56 95.5939 117.46 94.5132 118.412 93.3557C117.023 92.7418 115.568 92.5052 114 91.9233C115.627 91.4309 116.99 91.0152 118.452 90.5675C117.473 89.3717 116.58 88.2846 115.535 87.012C117.168 87.5108 118.531 87.9201 119.947 88.3421Z" fill="#F4005E"/>
<path opacity="0.4" d="M38.6485 133.895C38.6485 131.447 38.6485 128.731 38.6485 125C41.6483 128.395 39.4843 131.634 40.8723 134.305C43.3945 135.432 46.551 133.656 49.6925 135.768C46.5211 137.283 43.6482 136.037 40.8275 136.932C39.5888 139.521 41.3573 142.887 39.3201 146.245C37.768 142.782 39.0366 139.738 38.171 136.917C35.2906 136.007 32.2236 137.32 29 135.82C32.0371 133.432 35.4473 135.648 38.6485 133.895Z" fill="#15252B"/>
<path opacity="0.4" d="M172.649 134.895C172.649 132.447 172.649 129.731 172.649 126C175.648 129.395 173.484 132.634 174.872 135.305C177.394 136.432 180.551 134.656 183.693 136.768C180.521 138.283 177.648 137.037 174.827 137.932C173.589 140.521 175.357 143.887 173.32 147.245C171.768 143.782 173.037 140.738 172.171 137.917C169.291 137.007 166.224 138.32 163 136.82C166.037 134.432 169.447 136.648 172.649 134.895Z" fill="#15252B"/>
<path opacity="0.4" d="M39.6485 41.8949C39.6485 39.4473 39.6485 36.7311 39.6485 33C42.6483 36.3953 40.4843 39.6338 41.8723 42.3053C44.3945 43.4321 47.551 41.6561 50.6925 43.7679C47.5211 45.2827 44.6482 44.0365 41.8275 44.932C40.5888 47.5213 42.3573 50.8867 40.3201 54.2447C38.768 50.7823 40.0366 47.7377 39.171 44.917C36.2906 44.0067 33.2236 45.32 30 43.8201C33.0371 41.4322 36.4473 43.6485 39.6485 41.8949Z" fill="#15252B"/>
<path opacity="0.4" d="M173.649 42.8949C173.649 40.4473 173.649 37.7311 173.649 34C176.648 37.3953 174.484 40.6338 175.872 43.3053C178.394 44.4321 181.551 42.6561 184.693 44.7679C181.521 46.2827 178.648 45.0365 175.827 45.932C174.589 48.5213 176.357 51.8867 174.32 55.2447C172.768 51.7823 174.037 48.7377 173.171 45.917C170.291 45.0067 167.224 46.32 164 44.8201C167.037 42.4322 170.447 44.6485 173.649 42.8949Z" fill="#15252B"/>
</svg>
