<svg width="198" height="23" viewBox="0 0 198 23" fill="none" xmlns="http://www.w3.org/2000/svg">
<path d="M38.2138 10.4713C38.2138 9.54134 38.2138 8.51286 38.2138 7.10144C39.3477 8.38704 38.53 9.61245 39.0533 10.6245C40.0018 11.0512 41.1957 10.3783 42.3841 11.177C41.1848 11.7515 40.1054 11.281 39.037 11.6202C38.5681 12.5994 39.2387 13.8741 38.47 15.1487C37.8813 13.8358 38.361 12.6869 38.0339 11.6147C36.9491 11.27 35.7879 11.7679 34.5723 11.1989C35.7171 10.2963 37.0036 11.1333 38.2138 10.4713Z" fill="#D1D1D1"/>
<path d="M154.405 10.4713C154.405 9.54134 154.405 8.51286 154.405 7.10144C155.539 8.38704 154.721 9.61245 155.245 10.6245C156.193 11.0512 157.387 10.3783 158.576 11.177C157.376 11.7515 156.297 11.281 155.228 11.6202C154.76 12.5994 155.43 13.8741 154.661 15.1487C154.073 13.8358 154.552 12.6869 154.225 11.6147C153.14 11.27 151.979 11.7679 150.764 11.1989C151.914 10.2963 153.195 11.1333 154.405 10.4713Z" fill="#D1D1D1"/>
<path d="M59.1203 10.6846C39.0647 10.6846 19.2052 10.6791 0.185347 10.6737C0.119931 10.9626 0.0545139 11.2515 0 11.5459C19.0526 11.5568 38.9992 11.5623 59.1585 11.5677C59.1476 11.2733 59.1367 10.979 59.1203 10.6846Z" fill="#F1F1F1"/>
<path d="M197.962 10.6846C177.906 10.6846 158.047 10.6791 139.027 10.6737C138.962 10.9626 138.896 11.2515 138.842 11.5459C157.894 11.5568 177.841 11.5623 198 11.5677C197.989 11.2733 197.978 10.979 197.962 10.6846Z" fill="#F1F1F1"/>
<path d="M61.2132 21.4459C61.5785 20.5706 61.9437 19.6898 62.3144 18.8144C62.2872 18.5792 62.3035 18.3658 62.6033 18.3275L62.6088 18.3166C63.5301 16.0188 64.4514 13.7155 65.3617 11.4342C66.5338 11.3576 67.5641 11.3029 68.6435 11.467C68.5072 12.304 68.1311 12.9988 67.8367 13.7155C67.3133 15.0121 66.8173 16.3197 66.1849 17.5616C65.9287 18.0649 66.3157 18.3932 66.234 18.8089C66.6428 19.5749 66.8118 20.4557 67.3024 21.1833C67.6023 21.2818 67.5914 21.5061 67.5314 21.7468H67.5205C67.6295 21.7359 67.7331 21.7249 67.8421 21.7085C68.2891 20.6581 68.7416 19.6077 69.1886 18.5518C70.1808 16.1774 71.1729 13.8031 72.176 11.4068C73.2663 11.4068 74.3075 11.4068 75.5177 11.4068C75.0216 12.6487 74.5746 13.8085 74.1003 14.952C73.7678 15.7617 73.4298 16.5713 73.0428 17.3592C72.8574 17.7421 72.8574 18.1196 72.8574 18.5135C73.299 19.4873 73.7351 20.4612 74.1766 21.435C74.3347 21.5225 74.4983 21.61 74.6564 21.6921C75.1306 20.5651 75.6104 19.4381 76.0846 18.3111C77.0441 16.0133 77.9108 13.6718 79.012 11.4013C80.086 11.4013 81.1272 11.4013 82.2992 11.4013C81.5578 13.2013 80.8437 14.9301 80.135 16.6589C79.8842 17.2662 79.5899 17.8625 79.6716 18.5518C80.1296 19.6022 80.582 20.6472 81.0399 21.6976C81.198 21.61 81.3616 21.517 81.5197 21.4295C81.8904 20.5542 82.2665 19.6788 82.6372 18.8035C82.599 18.5682 82.599 18.3494 82.9098 18.2947L82.9152 18.2892C83.7547 15.9586 84.7523 13.6882 85.7445 11.4123C86.8511 11.3412 87.8814 11.281 88.9499 11.4506C88.8518 12.4463 88.2903 13.2067 87.985 14.0602C87.5762 15.2091 87.1128 16.347 86.5622 17.4303C86.3005 17.9445 86.5622 18.3439 86.5567 18.798C86.9383 19.6733 87.3199 20.5487 87.6961 21.424C87.7452 21.528 87.7997 21.6319 87.8596 21.7304C87.9578 21.7195 88.0613 21.7085 88.1595 21.6976C88.6119 20.6472 89.0644 19.5968 89.5223 18.5518C90.509 16.1829 91.4957 13.8085 92.4988 11.4068C93.5781 11.4068 94.6139 11.4068 95.7641 11.4068C95.4589 12.6815 94.8592 13.7812 94.4231 14.9355C94.1178 15.7562 93.758 16.5549 93.3764 17.3427C93.1911 17.7257 93.1802 18.0977 93.1965 18.4916C93.6272 19.4709 94.0633 20.4502 94.494 21.4295C94.6684 21.4295 94.8483 21.4295 95.0228 21.4295C95.4589 20.4557 95.895 19.4819 96.3311 18.508C97.2851 16.1227 98.2227 13.7265 99.3348 11.3959C100.425 11.3959 101.466 11.3959 102.562 11.3959C102.262 12.6432 101.641 13.6991 101.21 14.8316C100.899 15.6468 100.594 16.4674 100.229 17.2607C100.033 17.6819 100.016 18.1032 100.005 18.5409C100.458 19.5913 100.91 20.6417 101.363 21.6976C101.521 21.6046 101.673 21.517 101.832 21.424C102.208 20.5487 102.589 19.6788 102.965 18.8035C103.663 17.1184 104.35 15.4225 105.064 13.7429C105.386 12.9824 105.582 12.1563 106.144 11.4342C107.141 11.2591 108.172 11.3959 109.24 11.3631C109.273 12.2275 108.782 12.7855 108.537 13.4201C108.041 14.6839 107.583 15.9641 107.005 17.1841C106.738 17.7476 106.771 18.2454 106.89 18.7925C107.261 19.6733 107.632 20.5487 108.003 21.4295C108.062 21.5334 108.122 21.6374 108.182 21.7413C108.286 21.7304 108.384 21.714 108.488 21.703C108.946 20.6526 109.398 19.6077 109.856 18.5573C110.832 16.1884 111.813 13.825 112.822 11.3795C113.912 11.3685 114.986 11.2865 116.136 11.4451C115.307 13.8031 114.157 15.9641 113.459 18.3001C113.934 19.4326 114.402 20.5651 114.877 21.6976C115.035 21.6155 115.193 21.528 115.356 21.4459C115.793 20.4776 116.234 19.5037 116.67 18.5354C117.641 16.161 118.611 13.7812 119.576 11.4068C120.732 11.4068 121.773 11.4068 122.95 11.4068C122.225 13.1684 121.538 14.848 120.846 16.5331C120.579 17.1786 120.257 17.8078 120.35 18.5463C120.791 19.6022 121.238 20.6581 121.68 21.714C121.996 21.6812 121.898 21.2107 122.231 21.1943C122.65 20.2916 123.076 19.3889 123.495 18.4862C123.872 17.5069 124.22 16.5221 124.624 15.5538C125.191 14.186 125.796 12.8293 126.39 11.4506C127.475 11.3248 128.511 11.3302 129.508 11.4396C129.694 11.839 129.481 12.0907 129.367 12.3642C128.696 13.9781 128.064 15.6139 127.333 17.2005C127.077 17.764 127.061 18.2564 127.224 18.8035C127.595 19.6843 127.96 20.5596 128.331 21.4404C128.494 21.5335 128.658 21.6265 128.821 21.7195C129.274 20.669 129.721 19.6186 130.173 18.5682C131.16 16.1939 132.147 13.8195 133.139 11.4232C134.235 11.4232 135.27 11.4232 136.481 11.4232C136.148 12.2548 135.865 13.0043 135.559 13.7429C135.041 14.9957 134.518 16.254 133.967 17.4905C133.815 17.8351 133.848 18.1743 133.842 18.519C134.273 19.4983 134.709 20.4721 135.14 21.4514C135.319 21.4514 135.505 21.4514 135.685 21.4514C136.121 20.483 136.562 19.5092 136.998 18.5409C137.773 16.6479 138.541 14.755 139.315 12.8566C139.512 12.3752 139.719 11.8937 139.92 11.4123C139.997 11.2372 140.073 11.0622 140.149 10.8871C139.61 10.6737 139.637 10.1102 139.457 9.69443C138.618 7.70302 137.816 5.70067 137.004 3.69833C136.568 2.72998 136.132 1.75616 135.69 0.787808C135.505 0.787808 135.319 0.787808 135.134 0.787808C134.703 1.7671 134.273 2.74092 133.842 3.72021C133.793 4.3603 134.087 4.90739 134.316 5.4709C135.031 7.20517 135.739 8.94492 136.486 10.7558C135.385 11.002 134.344 10.7941 133.172 10.898C132.174 8.48536 131.182 6.07817 130.184 3.67097C129.726 2.62603 129.268 1.57562 128.816 0.530677C128.712 0.519735 128.614 0.503322 128.511 0.492381C128.451 0.596328 128.391 0.700274 128.331 0.79875C127.96 1.67956 127.595 2.55491 127.224 3.43572C127.104 3.93357 127.028 4.38219 127.273 4.91834C128.042 6.58696 128.712 8.29935 129.426 9.99533C129.53 10.236 129.672 10.4658 129.514 10.805C128.554 10.805 127.557 10.805 126.412 10.805C125.376 8.52913 124.373 6.17117 123.501 3.75303C123.054 2.76827 122.607 1.78898 122.16 0.804221C122.002 0.711216 121.849 0.618211 121.691 0.530677C121.244 1.58656 120.791 2.63697 120.344 3.69286C120.252 4.52443 120.644 5.22471 120.944 5.94687C121.5 7.28176 122.089 8.60025 122.645 9.93515C122.754 10.2032 122.808 10.4932 122.901 10.8324C121.778 10.8324 120.737 10.8324 119.581 10.8324C118.611 8.46348 117.641 6.08364 116.67 3.70927C116.234 2.73545 115.798 1.7671 115.362 0.793279C115.204 0.711216 115.046 0.629153 114.888 0.541619C114.408 1.66862 113.928 2.8011 113.448 3.9281C114.092 6.01799 115.095 7.96016 115.858 10.0008C115.945 10.236 116.147 10.4494 116.054 10.7941C115.04 10.9473 113.999 10.8543 112.832 10.8543C111.851 8.47989 110.859 6.0727 109.867 3.67097C109.409 2.62603 108.951 1.57562 108.493 0.530677C108.395 0.519735 108.297 0.508793 108.199 0.503323C108.133 0.601799 108.073 0.705745 108.013 0.804221C107.643 1.68504 107.277 2.56038 106.907 3.44119C106.771 3.98828 106.754 4.47519 107.016 5.04417C107.752 6.63073 108.384 8.26652 109.055 9.88044C109.169 10.1595 109.376 10.4166 109.191 10.8105C108.226 10.8105 107.234 10.8105 106.105 10.8105C104.982 8.41971 104.007 5.91404 102.993 3.42478C102.611 2.54944 102.229 1.67957 101.848 0.804221C101.788 0.700274 101.733 0.596328 101.673 0.492381C101.581 0.508793 101.488 0.519735 101.39 0.536148C100.932 1.58656 100.48 2.63697 100.022 3.68738C99.9999 5.06058 100.79 6.17117 101.243 7.38571C101.663 8.51819 102.159 9.62331 102.655 10.8269C101.521 10.8269 100.523 10.8269 99.3621 10.8269C98.2609 8.56195 97.3396 6.12193 96.3529 3.70927C95.9168 2.73545 95.4807 1.76163 95.0446 0.787808C94.8647 0.787808 94.6848 0.787809 94.5049 0.793279C94.0688 1.77257 93.6381 2.74639 93.202 3.72568C93.2402 4.99493 93.9597 6.0344 94.3849 7.16688C94.8265 8.34859 95.3389 9.50295 95.8514 10.7503C94.7393 10.9746 93.7035 10.8269 92.5424 10.8597C91.5502 8.47989 90.5417 6.07817 89.5387 3.67097C89.0807 2.62056 88.6283 1.57562 88.1704 0.525206C88.0722 0.514264 87.9796 0.508793 87.8814 0.497852C87.816 0.590857 87.7561 0.694803 87.707 0.79875C87.3308 1.67409 86.9492 2.54944 86.5731 3.42478C86.415 4.02111 86.4859 4.55726 86.7585 5.14811C87.5271 6.81674 88.1976 8.5346 88.9008 10.236C88.9663 10.4002 88.9881 10.5698 88.8627 10.805C87.9087 10.805 86.9165 10.805 85.7881 10.805C84.6542 8.42518 83.7002 5.9031 82.6645 3.41931C82.2338 2.44549 81.8086 1.47167 81.3779 0.497852C81.2744 0.508793 81.1708 0.519735 81.0672 0.530677C80.6093 1.58109 80.1514 2.62603 79.6935 3.67644C79.6825 5.0004 80.4294 6.08364 80.86 7.26535C81.2853 8.44707 81.9122 9.55219 82.2774 10.8269C81.1762 10.8269 80.135 10.8269 79.0338 10.8269C77.9054 8.50724 77.0059 6.09458 76.0247 3.72021C75.5722 2.65886 75.1143 1.60297 74.6618 0.541619C74.5092 0.629153 74.3565 0.711216 74.2039 0.79875C73.7623 1.77257 73.3208 2.74092 72.8792 3.71474C72.8356 4.96757 73.6424 5.93045 74.0186 7.03557C74.4383 8.272 75.0053 9.45918 75.5395 10.7558C74.3893 10.9746 73.3208 10.8597 72.2087 10.8378C71.2002 8.43065 70.2026 6.05628 69.2104 3.68191C68.758 2.6315 68.3055 1.58109 67.853 0.530677C67.7549 0.519735 67.6568 0.508793 67.5532 0.497852C67.4333 0.667449 67.4878 0.908168 67.3188 1.05588C66.9645 1.84916 66.6101 2.63697 66.2558 3.43025C66.1304 3.97734 66.1086 4.46972 66.3757 5.0387C67.1716 6.74562 67.8585 8.50177 68.5835 10.236C68.6544 10.4002 68.6653 10.5698 68.5617 10.805C67.5968 10.805 66.5992 10.805 65.4381 10.805C64.4241 8.38688 63.3774 5.90857 62.3362 3.42478C61.9655 2.54944 61.6003 1.67409 61.2296 0.79875C60.8044 0.694803 61.1587 0.103947 60.7335 0C60.6354 0.191481 60.5155 0.377492 60.4337 0.579915C59.2235 3.47949 58.0187 6.37907 56.8085 9.27864C56.5741 9.83667 56.4215 10.433 55.9854 10.8871C56.0562 11.0786 56.1271 11.27 56.198 11.4615C56.6995 12.6761 57.1847 13.8961 57.6971 15.1106C58.7001 17.4905 59.7141 19.8703 60.7281 22.2501C61.1478 22.1462 60.788 21.5499 61.2132 21.4459Z" fill="#F1F1F1"/>
<path d="M13.6612 17.5505C17.1988 17.5505 20.0666 14.6725 20.0666 11.1223C20.0666 7.57217 17.1988 4.69418 13.6612 4.69418C10.1236 4.69418 7.25586 7.57217 7.25586 11.1223C7.25586 14.6725 10.1236 17.5505 13.6612 17.5505Z" fill="#00EEF4"/>
<path d="M182.916 18.2563C186.454 18.2563 189.322 15.3783 189.322 11.8281C189.322 8.27782 186.454 5.39978 182.916 5.39978C179.379 5.39978 176.511 8.27782 176.511 11.8281C176.511 15.3783 179.379 18.2563 182.916 18.2563Z" fill="#F4005E"/>
<path d="M26.7331 7.57169C24.6997 7.42945 22.699 9.13635 22.6445 11.5162C22.5955 13.6662 24.4162 15.5701 26.5641 15.5755C29.2189 15.581 30.6363 13.3927 30.6363 11.6803C30.6417 9.38254 28.9845 7.60452 26.7331 7.57169ZM26.6022 15.1269C24.836 15.1981 23.0152 13.5349 23.0915 11.4833C23.1624 9.52478 24.6997 7.97653 26.6622 7.982C28.6465 7.98747 30.2547 9.60685 30.2329 11.5818C30.2111 13.5623 28.592 15.1433 26.6022 15.1269Z" fill="#E7E7E7"/>
<path d="M167.81 7.57169C165.777 7.42945 163.776 9.13635 163.722 11.5162C163.673 13.6662 165.493 15.5701 167.641 15.5755C170.296 15.581 171.713 13.3927 171.713 11.6803C171.719 9.38254 170.067 7.60452 167.81 7.57169ZM167.679 15.1269C165.913 15.1981 164.092 13.5349 164.169 11.4833C164.24 9.52478 165.777 7.97653 167.739 7.982C169.724 7.98747 171.332 9.60685 171.31 11.5818C171.288 13.5623 169.669 15.1433 167.679 15.1269Z" fill="#E7E7E7"/>
</svg>
