<svg width="306" height="218" viewBox="0 0 306 218" fill="none" xmlns="http://www.w3.org/2000/svg">
<g opacity="0.6">
<path d="M76.4648 182.75C77.3603 183.89 78.1214 185.192 78.8527 186.53C79.5691 187.89 80.2556 189.297 80.8078 190.867C79.9123 189.727 79.1512 188.425 78.4199 187.088C77.7036 185.727 77.017 184.32 76.4648 182.75Z" fill="white"/>
<path d="M65.3691 161.96C66.2347 163.308 67.0556 164.704 67.8689 166.122C68.6898 167.529 69.4733 168.983 70.2568 170.436C71.0329 171.901 71.8015 173.366 72.5477 174.878C73.2939 176.378 74.0327 177.889 74.7192 179.471C73.8536 178.134 73.0327 176.727 72.2194 175.308C71.3985 173.901 70.615 172.448 69.8315 170.994C69.0554 169.529 68.2868 168.064 67.5481 166.553C66.7944 165.053 66.0557 163.541 65.3691 161.96Z" fill="white"/>
<path d="M72.2266 159.925L76.286 167.588C77.6515 170.123 79.0096 172.669 80.3976 175.181L84.5018 182.785C85.8599 185.343 87.2105 187.901 88.5015 190.541C87.0314 188.134 85.5987 185.692 84.1734 183.227C82.7482 180.762 81.3602 178.25 79.9648 175.739C78.6067 173.181 77.2411 170.634 75.9427 168.007C74.6518 165.379 73.3907 162.704 72.2266 159.925Z" fill="white"/>
<path d="M55.25 127.309C56.7947 129.402 58.2423 131.669 59.6377 134.006C61.0331 136.355 62.339 138.808 63.63 141.285C64.8836 143.808 66.1298 146.343 67.3163 148.936C68.5027 151.529 69.6668 154.157 70.7787 156.831C69.4803 154.366 68.2266 151.843 66.973 149.331C65.7194 146.82 64.4807 144.285 63.1972 141.82C61.9435 139.308 60.6451 136.867 59.3243 134.436C57.9961 132.018 56.6305 129.657 55.25 127.309Z" fill="white"/>
<path d="M66.1523 183.006C67.0478 184.064 67.8164 185.285 68.5552 186.564C69.279 187.855 69.973 189.18 70.5401 190.704C69.6446 189.657 68.876 188.425 68.1373 187.145C67.406 185.855 66.712 184.517 66.1523 183.006Z" fill="white"/>
<path d="M53.9365 160.134C54.8544 161.588 55.7349 163.111 56.6005 164.634C57.4736 166.158 58.3094 167.716 59.1451 169.274C59.9734 170.844 60.7943 172.425 61.5927 174.041C62.3912 175.657 63.1821 177.274 63.9209 178.971C63.0031 177.518 62.13 176.006 61.2644 174.483C60.3913 172.96 59.5555 171.402 58.7198 169.832C57.8915 168.251 57.0632 166.681 56.2722 165.053C55.4663 163.448 54.6753 161.82 53.9365 160.134Z" fill="white"/>
<path d="M20.5293 95.7037C21.8501 98.2619 23.1858 100.797 24.5215 103.332L28.5362 110.936L36.6027 126.088C39.2667 131.169 41.9605 136.227 44.5872 141.355L48.4973 149.088L52.303 156.948L48.2809 149.355L44.2514 141.774L36.1699 126.634C33.5059 121.553 30.8196 116.495 28.2004 111.343L24.3051 103.588C23.0366 100.983 21.7755 98.3549 20.5293 95.7037Z" fill="white"/>
<path d="M61.9209 121.82C63.4282 124.46 64.9281 127.122 66.4131 129.797L70.7934 137.925C73.6887 143.367 76.5243 148.901 79.3823 154.39C82.2104 159.925 85.0684 165.401 87.9563 170.866C89.3965 173.599 90.8516 176.308 92.3216 179.006C93.7842 181.715 95.2617 184.39 96.7616 187.052C95.1945 184.494 93.6499 181.901 92.1127 179.297C90.5979 176.657 89.1054 173.994 87.6279 171.308C84.6729 165.936 81.8149 160.436 78.9495 154.948L70.4576 138.355L66.2042 130.076C64.7864 127.297 63.3611 124.553 61.9209 121.82Z" fill="white"/>
<path d="M19.8721 43.5187L25.0583 52.8208L30.1997 62.1811L40.4153 80.9831C43.7808 87.2969 47.1835 93.5759 50.5191 99.9362L55.5187 109.483L60.4736 119.087L55.3098 109.762L50.1907 100.366L39.9825 81.5412L29.8713 62.6113L24.8493 53.0999L19.8721 43.5187Z" fill="white"/>
<path d="M19.79 60.9137L35.871 89.7394C38.5126 94.5998 41.1616 99.4487 43.7212 104.414C44.9972 106.902 46.2583 109.402 47.5119 111.925C48.7432 114.472 49.9521 117.042 51.146 119.623C49.8774 117.123 48.5939 114.646 47.2955 112.193C46.0046 109.728 44.7062 107.274 43.3928 104.844C40.7661 99.972 38.1245 95.1115 35.4531 90.3091C32.8115 85.4487 30.1326 80.6463 27.5134 75.7626L23.6032 68.4021C22.3197 65.9253 21.0511 63.4253 19.79 60.9137Z" fill="white"/>
<path d="M43.7812 121.542C45.2811 124.076 46.7437 126.669 48.1914 129.274C49.639 131.879 51.0568 134.53 52.4896 137.158C53.885 139.832 55.3028 142.472 56.6833 145.169C58.0638 147.867 59.4368 150.565 60.7651 153.332C59.2577 150.797 57.8026 148.204 56.355 145.599C54.9073 142.995 53.4895 140.344 52.0642 137.716C50.6688 135.041 49.251 132.402 47.8705 129.704C46.4751 127.007 45.102 124.309 43.7812 121.542Z" fill="white"/>
<path d="M20.5361 78.0189C22.439 81.2979 24.297 84.6467 26.1477 88.0071C27.9983 91.3559 29.8116 94.7628 31.6472 98.1348L37.0424 108.402C38.8258 111.844 40.5943 115.297 42.3256 118.82C40.4227 115.541 38.5646 112.193 36.714 108.832L31.2144 98.6929C29.4161 95.2744 27.5953 91.8791 25.8193 88.4257C24.0359 84.9839 22.2599 81.5305 20.5361 78.0189Z" fill="white"/>
<path d="M112.589 180.064C113.85 181.808 114.984 183.739 116.081 185.704C117.171 187.692 118.23 189.715 119.156 191.913C117.894 190.157 116.76 188.238 115.663 186.273C114.574 184.297 113.522 182.274 112.589 180.064Z" fill="white"/>
<path d="M125.999 171.82C126.768 172.983 127.491 174.192 128.2 175.425C128.917 176.646 129.603 177.913 130.29 179.181C130.961 180.46 131.64 181.739 132.282 183.065C132.924 184.379 133.566 185.704 134.155 187.1C133.386 185.948 132.663 184.727 131.954 183.495C131.237 182.274 130.551 181.006 129.864 179.739C129.193 178.46 128.514 177.181 127.872 175.855C127.23 174.541 126.589 173.215 125.999 171.82Z" fill="white"/>
<path d="M81.1963 121.286C83.8379 124.949 86.2556 128.983 88.5614 133.146C90.8672 137.32 93.0387 141.669 95.2027 146.018L101.605 159.157C103.754 163.517 105.948 167.807 108.261 171.97C105.777 168.052 103.493 163.854 101.269 159.575C99.0457 155.296 96.9265 150.901 94.7625 146.552C92.6358 142.169 90.4717 137.832 88.2406 133.588C86.0019 129.332 83.6737 125.204 81.1963 121.286Z" fill="white"/>
<path d="M67.0625 94.8202C68.2341 96.7389 69.3608 98.7157 70.4802 100.692C71.5995 102.681 72.6815 104.716 73.7859 106.716C74.853 108.762 75.9424 110.797 76.9871 112.867C78.0393 114.949 79.0765 117.03 80.0765 119.17C78.9049 117.251 77.7781 115.274 76.6588 113.298C75.5395 111.309 74.4575 109.274 73.3531 107.274C72.286 105.216 71.1965 103.193 70.1518 101.123C69.0997 99.0529 68.0624 96.9714 67.0625 94.8202Z" fill="white"/>
<path d="M76.0469 94.6578L82.1434 106.181L88.143 117.832L100.067 141.216C104.037 149.018 108.059 156.739 112.149 164.39L115.231 170.111L118.35 175.785L121.491 181.425L124.678 186.995L121.387 181.564L118.141 176.064L114.962 170.471L111.82 164.82C107.664 157.25 103.634 149.518 99.6347 141.751C95.6648 133.948 91.7248 126.111 87.8072 118.239L76.0469 94.6578Z" fill="white"/>
<path d="M57.4512 60.7042C59.0033 63.088 60.4957 65.5532 61.9732 68.0533C63.4507 70.5533 64.8685 73.1232 66.3012 75.6697C67.6967 78.2745 69.107 80.8675 70.4651 83.5188C71.8232 86.17 73.1664 88.8445 74.4499 91.5887C72.9873 89.0771 71.562 86.5072 70.1368 83.949L65.8834 76.2395L61.6523 68.4951C60.2495 65.9137 58.8391 63.3322 57.4512 60.7042Z" fill="white"/>
<path d="M71.5703 121.681C73.794 125.448 75.973 129.285 78.137 133.134C80.301 136.983 82.4203 140.901 84.5395 144.808C86.6289 148.762 88.7258 152.704 90.763 156.715C92.8001 160.727 94.8149 164.773 96.7551 168.913L84.1067 145.367L77.8012 133.564C75.7118 129.622 73.6149 125.681 71.5703 121.681Z" fill="white"/>
<path d="M38.3936 59.6232L46.2288 74.4253C48.8555 79.3439 51.4672 84.2624 54.1237 89.1461L62.0336 103.844L65.9811 111.216L69.8838 118.634L65.7721 111.495L61.7053 104.285C59.004 99.4716 56.3475 94.5879 53.6909 89.7042C51.0717 84.7741 48.4451 79.8555 45.893 74.8439L42.0948 67.2975L38.3936 59.6232Z" fill="white"/>
<path d="M20.3047 25.7627C21.8046 28.2859 23.2597 30.879 24.6999 33.472C26.1475 36.065 27.5504 38.7162 28.9831 41.3324C30.3786 43.9952 31.7889 46.6348 33.1694 49.3208C34.5424 52.0068 35.9155 54.7045 37.2363 57.4603C35.7364 54.9371 34.2813 52.3441 32.8411 49.751C31.3934 47.158 29.9905 44.5069 28.5578 41.8906C27.1624 39.2278 25.752 36.5883 24.379 33.9022C22.9985 31.2162 21.6255 28.5185 20.3047 25.7627Z" fill="white"/>
<path d="M85.5684 95.181C86.6504 96.7624 87.6876 98.4252 88.7025 100.123C89.7248 101.809 90.6948 103.553 91.65 105.344C92.5902 107.134 93.5081 108.96 94.3587 110.867C95.2169 112.762 96.0303 114.704 96.7541 116.727C95.8362 114.902 94.9408 113.065 94.0155 111.274C93.0902 109.483 92.1649 107.681 91.2172 105.902L88.3816 100.576C87.4339 98.7857 86.4862 97.0066 85.5684 95.181Z" fill="white"/>
<path d="M66.5703 60.1923C67.8836 62.9481 69.2268 65.6574 70.6073 68.3086C71.9953 70.9597 73.3907 73.5993 74.8458 76.1574C76.2636 78.7737 77.7337 81.3086 79.1888 83.89C80.6364 86.4598 82.099 89.0295 83.5019 91.6691C81.9274 89.2737 80.3902 86.8202 78.8679 84.3435C77.3531 81.8551 75.8831 79.3086 74.4205 76.7388C72.9952 74.1225 71.5849 71.483 70.2715 68.7272C68.9507 65.9713 67.6971 63.1458 66.5703 60.1923Z" fill="white"/>
<path d="M45.1543 21.4607C46.9079 24.3444 48.6093 27.2979 50.3106 30.2513C52.012 33.2048 53.6686 36.2164 55.355 39.1931C57.0041 42.2163 58.6682 45.2163 60.2949 48.2628C61.9217 51.3093 63.5484 54.3674 65.1229 57.4952C63.3693 54.6115 61.668 51.6697 59.9666 48.7046C58.2652 45.7512 56.6086 42.7396 54.9222 39.7629C53.2731 36.7396 51.609 33.7396 49.9748 30.6815C48.3555 27.6351 46.7288 24.5769 45.1543 21.4607Z" fill="white"/>
<path d="M36.8711 22.5765C38.1471 24.6928 39.3784 26.8672 40.6022 29.0416C41.8259 31.2277 43.0124 33.4602 44.2213 35.6579C45.3928 37.9137 46.5868 40.1346 47.7434 42.402C48.9 44.6811 50.0492 46.9602 51.1461 49.2974C49.8701 47.1811 48.6388 45.0067 47.4076 42.8323C46.1838 40.6462 44.9973 38.4137 43.7885 36.216C42.6169 33.9602 41.423 31.7393 40.2664 29.4719C39.1172 27.1928 37.968 24.9137 36.8711 22.5765Z" fill="white"/>
<path d="M108.358 138.797C109.791 141.193 111.172 143.646 112.545 146.111C113.918 148.576 115.261 151.088 116.619 153.576C117.94 156.111 119.283 158.611 120.589 161.169C121.895 163.727 123.193 166.285 124.447 168.913C123.014 166.517 121.634 164.064 120.261 161.599C118.887 159.134 117.544 156.622 116.186 154.134C114.865 151.599 113.522 149.099 112.216 146.541C110.91 143.983 109.612 141.425 108.358 138.797Z" fill="white"/>
<path d="M98.0527 119.494C98.881 120.773 99.6646 122.099 100.441 123.448C101.224 124.785 101.97 126.169 102.717 127.552C103.455 128.948 104.187 130.343 104.896 131.785C105.604 133.215 106.306 134.657 106.955 136.169C106.127 134.901 105.343 133.564 104.567 132.215C103.784 130.878 103.037 129.494 102.291 128.111C101.552 126.715 100.821 125.32 100.12 123.878C99.4034 122.448 98.7094 121.006 98.0527 119.494Z" fill="white"/>
<path d="M48.3623 59.809C49.4816 61.6229 50.5562 63.5067 51.6233 65.4021C52.6903 67.2858 53.7201 69.2277 54.7723 71.1347C55.7871 73.0882 56.8244 75.0185 57.8243 76.9952C58.8242 78.972 59.8167 80.9604 60.7569 83.007C59.6376 81.193 58.563 79.3092 57.496 77.4255C56.4289 75.5417 55.3991 73.5998 54.3469 71.6928C53.3321 69.7393 52.2948 67.8091 51.3024 65.8323C50.3025 63.8439 49.31 61.8555 48.3623 59.809Z" fill="white"/>
<path d="M29.7295 24.9138C31.2518 27.4836 32.7293 30.1231 34.1993 32.7626C35.6694 35.4021 37.1021 38.0997 38.5572 40.7625C39.975 43.4718 41.4152 46.1578 42.8181 48.8903C44.221 51.6229 45.6164 54.367 46.9596 57.1693C45.4373 54.5996 43.9598 51.9601 42.4898 49.3206C41.0197 46.681 39.587 43.9834 38.1319 41.3206C36.7141 38.6114 35.2739 35.9253 33.8784 33.1928C32.4681 30.4603 31.0727 27.7161 29.7295 24.9138Z" fill="white"/>
<path d="M118.962 138.403C121.096 142.286 123.185 146.228 125.26 150.182L131.439 162.1L137.52 174.146C139.528 178.181 141.527 182.228 143.482 186.344C141.348 182.46 139.266 178.518 137.184 174.565L131.006 162.647L124.924 150.6C122.917 146.554 120.917 142.507 118.962 138.403Z" fill="white"/>
<path d="M112.589 126.402C113.648 127.855 114.574 129.472 115.469 131.134C116.35 132.809 117.2 134.53 117.917 136.425C116.857 134.971 115.932 133.355 115.036 131.693C114.156 130.018 113.305 128.297 112.589 126.402Z" fill="white"/>
<path d="M95.4707 94.3439C96.6273 96.2276 97.7317 98.1694 98.8361 100.123C99.9405 102.076 101 104.076 102.082 106.041C103.134 108.065 104.201 110.053 105.231 112.1C106.261 114.146 107.291 116.193 108.261 118.297C107.104 116.414 106 114.472 104.895 112.518C103.798 110.565 102.731 108.565 101.649 106.588C100.605 104.565 99.5301 102.576 98.5003 100.53C97.4706 98.5066 96.4482 96.4601 95.4707 94.3439Z" fill="white"/>
<path d="M65.3691 37.9836C67.6824 42.5766 70.1001 47.0301 72.585 51.3905C75.0699 55.7509 77.5847 60.0765 80.1069 64.3904C82.5992 68.7508 85.099 73.1113 87.4645 77.6461C89.83 82.181 92.0985 86.8553 94.1058 91.7855C91.912 87.053 89.5689 82.5065 87.1362 78.0763C84.7035 73.6461 82.2112 69.2973 79.689 64.9718C77.2041 60.6114 74.6744 56.2858 72.2567 51.8207C69.839 47.3673 67.4958 42.7976 65.3691 37.9836Z" fill="white"/>
<path d="M56.5557 21.4836C57.4287 22.5767 58.1675 23.8324 58.8689 25.1348C59.5629 26.4487 60.227 27.8208 60.7568 29.344C59.8838 28.251 59.145 26.9952 58.4436 25.6929C57.7496 24.3789 57.0855 23.0069 56.5557 21.4836Z" fill="white"/>
<path d="M96.7549 168.913C97.8294 170.704 98.8517 172.541 99.8666 174.39C100.881 176.239 101.859 178.134 102.859 180.006C103.822 181.925 104.807 183.809 105.754 185.75C106.702 187.692 107.642 189.634 108.53 191.646C107.456 189.867 106.433 188.03 105.418 186.169C104.404 184.32 103.419 182.413 102.419 180.541C101.456 178.622 100.471 176.727 99.5233 174.785C98.5906 172.867 97.6503 170.913 96.7549 168.913Z" fill="white"/>
<path d="M21.2451 172.738C22.0361 173.901 22.7823 175.134 23.5211 176.366C24.2673 177.599 24.9762 178.878 25.6851 180.145C26.3865 181.436 27.088 182.727 27.7521 184.064C28.4237 185.39 29.0878 186.727 29.6997 188.134C28.9087 186.971 28.1625 185.739 27.4238 184.506C26.6775 183.273 25.9686 181.994 25.2597 180.727C24.5583 179.436 23.8643 178.145 23.1927 176.808C22.5286 175.471 21.8645 174.134 21.2451 172.738Z" fill="white"/>
<path d="M21.1553 154.064C22.7074 156.692 24.2147 159.378 25.7146 162.064C27.2145 164.762 28.6771 167.506 30.1621 170.215C31.6097 172.971 33.0798 175.715 34.5125 178.494C35.9452 181.285 37.3705 184.076 38.7435 186.925C37.1914 184.297 35.6841 181.611 34.1767 178.925C32.6768 176.227 31.2142 173.483 29.7293 170.774C28.2816 168.006 26.8116 165.274 25.3788 162.495C23.9536 159.715 22.5283 156.913 21.1553 154.064Z" fill="white"/>
<path d="M46.0273 182.831C46.6392 183.436 47.1243 184.215 47.572 185.041C48.0123 185.878 48.4152 186.762 48.6838 187.808C48.0719 187.203 47.5869 186.424 47.1392 185.599C46.7064 184.75 46.3034 183.878 46.0273 182.831Z" fill="white"/>
<path d="M33.334 159.053C34.3339 160.646 35.2891 162.309 36.2368 163.972C37.1919 165.635 38.1098 167.332 39.0276 169.041C39.938 170.762 40.8409 172.472 41.7215 174.239C42.602 175.995 43.4751 177.762 44.2959 179.588C43.296 177.995 42.3408 176.332 41.3931 174.669C40.438 173.007 39.5201 171.309 38.6023 169.6C37.6919 167.879 36.789 166.169 35.9084 164.402C35.0279 162.646 34.1623 160.879 33.334 159.053Z" fill="white"/>
<path d="M21.1855 136.297C22.1929 137.902 23.1481 139.565 24.1032 141.227C25.0584 142.89 25.9837 144.6 26.9016 146.309C27.8119 148.03 28.7223 149.751 29.6029 151.518C30.4834 153.274 31.3565 155.053 32.1848 156.879C31.1774 155.274 30.2222 153.611 29.2671 151.948C28.3119 150.286 27.3866 148.576 26.4687 146.867C25.5584 145.146 24.648 143.425 23.7675 141.658C22.8869 139.902 22.0064 138.134 21.1855 136.297Z" fill="white"/>
<path d="M56.2354 181.855C57.0114 182.785 57.6606 183.878 58.28 185.018C58.8844 186.169 59.4515 187.367 59.8918 188.739C59.1157 187.808 58.4665 186.715 57.8472 185.576C57.2502 184.425 56.6756 183.227 56.2354 181.855Z" fill="white"/>
<path d="M44.2812 159.355C45.2737 160.936 46.2139 162.588 47.1542 164.239C48.0944 165.89 49.0048 167.576 49.9152 169.274C50.8106 170.983 51.7135 172.68 52.5717 174.436C53.4373 176.18 54.3029 177.936 55.1163 179.75C54.1238 178.169 53.1836 176.518 52.2434 174.866C51.3031 173.215 50.3927 171.529 49.4824 169.832C48.5869 168.122 47.6914 166.425 46.8258 164.669C45.9602 162.925 45.0946 161.169 44.2812 159.355Z" fill="white"/>
<path d="M20.3799 114.367C22.32 117.739 24.208 121.158 26.0959 124.6L31.6925 134.983L37.1921 145.495C39.0054 149.018 40.8187 152.553 42.5723 156.158C40.6321 152.797 38.7442 149.367 36.8563 145.925L31.2597 135.541L25.7601 125.03C23.9468 121.495 22.1409 117.96 20.3799 114.367Z" fill="white"/>
<path d="M139.043 138.891L146.132 152.46L153.251 165.983L160.385 179.483C162.758 183.995 165.146 188.483 167.489 193.041C164.966 188.727 162.504 184.332 160.056 179.913C157.609 175.495 155.213 171.018 152.818 166.53C150.46 162.007 148.095 157.472 145.796 152.867C143.498 148.274 141.229 143.623 139.043 138.891Z" fill="white"/>
<path d="M112.507 89.2155C114.701 93.041 116.842 96.913 118.977 100.808L125.334 112.552L131.588 124.424C133.655 128.401 135.714 132.389 137.729 136.447C135.535 132.622 133.393 128.75 131.259 124.854L124.901 113.11L118.648 101.238C116.581 97.2502 114.522 93.2619 112.507 89.2155Z" fill="white"/>
<path d="M129.946 105.087L136.05 115.913L142.11 126.785L154.161 148.634L166.115 170.611L172.055 181.646L177.95 192.739L171.846 181.925L165.787 171.041L153.736 149.192L141.781 127.215L135.841 116.18L129.946 105.087Z" fill="white"/>
<path d="M124.364 78.0526C125.782 80.5061 127.26 82.9015 128.752 85.2503L133.282 92.2503C134.013 93.6457 133.99 95.5178 134.662 96.6573L136.923 100.146L141.46 107.122L141.467 107.134L141.475 107.146C144.363 112.704 147.206 118.32 150.161 123.785C153.108 129.262 156.183 134.564 159.406 139.622L159.414 139.634L159.421 139.646C164.048 148.588 168.771 157.39 173.495 166.204L187.792 192.483C182.875 183.925 177.987 175.332 173.189 166.611C168.368 157.925 163.667 149.076 159.004 140.181L159.018 140.216C155.75 135.169 152.698 129.797 149.758 124.297C146.818 118.797 143.975 113.181 141.124 107.576L141.139 107.599L136.662 100.529L134.423 96.9829C133.662 95.5875 133.707 93.7154 133.065 92.5178L128.648 85.3898C127.185 82.9945 125.752 80.5642 124.364 78.0526Z" fill="white"/>
<path d="M76.0469 21.0071L80.1734 28.3791L84.2478 35.8208L92.3293 50.7741L100.314 65.8669L104.269 73.4482L108.179 81.0992L104.06 73.7273L99.9779 66.2971L91.8964 51.3322L83.9194 36.2394L79.9645 28.6581L76.0469 21.0071Z" fill="white"/>
<path d="M84.4121 20.8909L89.8595 30.7629L95.2695 40.6931L106.008 60.6349L116.641 80.7163L121.924 90.7976L127.163 100.937L121.715 91.0767L116.313 81.1465L105.575 61.1931L94.9412 41.1234L89.6505 31.0304L84.4121 20.8909Z" fill="white"/>
<path d="M65.9209 20.4604C68.5849 25.1348 71.1668 29.9138 73.7338 34.7044L81.3675 49.1809C83.8823 54.0413 86.4269 58.8669 88.9715 63.6807C91.5161 68.5062 94.0905 73.2852 96.6873 78.0526C93.9189 73.5294 91.2623 68.8551 88.6431 64.1226C86.0239 59.3901 83.4868 54.5646 80.9347 49.7391L73.4054 35.1346L65.9209 20.4604Z" fill="white"/>
<path d="M94.3662 21.5302C94.9184 22.0302 95.3437 22.7046 95.7392 23.4139C96.1198 24.1465 96.463 24.914 96.6794 25.8558C96.1273 25.3558 95.7019 24.6814 95.3064 23.9721C94.9259 23.2395 94.5826 22.472 94.3662 21.5302Z" fill="white"/>
<path d="M119.335 68.6349C120.342 69.9836 121.223 71.5067 122.066 73.0647C122.902 74.646 123.7 76.2621 124.364 78.0526C123.357 76.7039 122.477 75.1808 121.633 73.6228C120.805 72.0415 119.999 70.4254 119.335 68.6349Z" fill="white"/>
<path d="M97.9707 28.6346C99.7392 31.6579 101.456 34.751 103.172 37.8556C104.888 40.9487 106.56 44.0998 108.261 47.2161C109.925 50.3789 111.604 53.5185 113.246 56.7045C114.887 59.8906 116.529 63.0883 118.118 66.3441C116.35 63.3208 114.634 60.2278 112.917 57.1231C111.201 54.0185 109.53 50.8789 107.828 47.7626C106.164 44.5998 104.485 41.4603 102.843 38.2626C101.202 35.0998 99.5601 31.9021 97.9707 28.6346Z" fill="white"/>
<path d="M155.683 189.518C156.13 189.808 156.451 190.26 156.735 190.758C157.011 191.28 157.25 191.836 157.362 192.566C156.914 192.277 156.593 191.824 156.309 191.326C156.033 190.805 155.795 190.248 155.683 189.518Z" fill="white"/>
<path d="M129.178 138.913L135.379 150.809L141.595 162.669L147.818 174.53C149.893 178.483 151.967 182.437 154.004 186.448C151.788 182.681 149.631 178.832 147.49 174.96C145.348 171.088 143.259 167.158 141.162 163.216C139.102 159.239 137.043 155.262 135.043 151.216C133.043 147.181 131.073 143.088 129.178 138.913Z" fill="white"/>
<path d="M96.6729 78.0526C98.0757 80.3317 99.4637 82.634 100.837 84.9712C102.187 87.32 103.523 89.7038 104.851 92.0991C107.493 96.9014 110.03 101.832 112.582 106.75L120.134 121.611C121.387 124.087 122.663 126.553 123.94 128.994C125.208 131.459 126.492 133.901 127.797 136.32C126.424 133.994 125.074 131.646 123.731 129.262C122.41 126.866 121.096 124.448 119.798 122.018C117.209 117.157 114.694 112.192 112.142 107.285C109.627 102.332 107.083 97.413 104.523 92.5177C103.24 90.0758 101.941 87.6456 100.635 85.2386C99.3368 82.82 98.016 80.4247 96.6729 78.0526Z" fill="white"/>
<path d="M138.49 69.0768L143.796 78.7627L149.012 88.5766C152.474 95.1346 155.87 101.774 159.287 108.39L179.547 148.367L174.286 138.622L169.1 128.774C165.66 122.192 162.265 115.541 158.854 108.925L138.49 69.0768Z" fill="white"/>
<path d="M114.499 22.4604C116.544 25.9023 118.514 29.4721 120.446 33.0652C122.386 36.6582 124.259 40.3326 126.14 43.9954C127.991 47.7048 129.849 51.3908 131.669 55.1234C133.49 58.856 135.311 62.6002 137.094 66.3793C135.124 62.8211 133.222 59.1816 131.326 55.542L125.692 44.5303L120.103 33.4838L114.499 22.4604Z" fill="white"/>
<path d="M209.119 182.238C210.35 183.982 211.447 185.89 212.514 187.843C213.567 189.808 214.589 191.82 215.484 194.006C214.253 192.262 213.156 190.355 212.089 188.401C211.037 186.436 210.015 184.424 209.119 182.238Z" fill="white"/>
<path d="M195.188 156.461C196.337 158.309 197.449 160.228 198.545 162.158C199.642 164.077 200.709 166.053 201.791 167.995C202.836 169.983 203.903 171.948 204.933 173.972C205.963 175.983 206.985 178.006 207.963 180.099C206.806 178.25 205.702 176.332 204.605 174.413C203.508 172.495 202.441 170.518 201.366 168.576C200.321 166.588 199.254 164.623 198.225 162.6C197.187 160.577 196.165 158.554 195.188 156.461Z" fill="white"/>
<path d="M166.824 103.739C169.13 107.751 171.391 111.821 173.645 115.902L180.353 128.216L186.957 140.658C189.143 144.832 191.315 149.006 193.449 153.251C191.143 149.239 188.882 145.169 186.629 141.088L179.92 128.774L173.316 116.332C171.13 112.158 168.958 107.983 166.824 103.739Z" fill="white"/>
<path d="M148.43 69.1459C149.907 71.6459 151.34 74.204 152.765 76.7737C154.19 79.3435 155.578 81.9597 156.981 84.5527C158.354 87.1922 159.742 89.7969 161.1 92.4596C162.451 95.1224 163.802 97.7852 165.1 100.518C163.623 98.0177 162.19 95.4596 160.765 92.8899C159.339 90.3201 157.951 87.7039 156.548 85.1109C155.175 82.4713 153.788 79.8667 152.429 77.2039C151.071 74.5412 149.728 71.8668 148.43 69.1459Z" fill="white"/>
<path d="M129.946 34.7743C131.148 37.7046 132.491 40.4722 133.909 43.1234C135.334 45.7747 136.804 48.3678 138.334 50.8912C139.826 53.461 141.371 55.9611 142.856 58.5659C144.341 61.159 145.796 63.8103 147.087 66.6476C145.617 64.0312 144.087 61.5195 142.542 59.0194L137.931 51.4842C136.438 48.9027 134.946 46.3096 133.58 43.5421C132.215 40.7745 130.946 37.8791 129.946 34.7743Z" fill="white"/>
<path d="M218.753 182.588C219.962 184.262 221.044 186.111 222.089 188.006C223.126 189.913 224.126 191.867 224.999 193.995C223.79 192.32 222.708 190.471 221.663 188.576C220.633 186.657 219.626 184.704 218.753 182.588Z" fill="white"/>
<path d="M204.082 155.786C205.246 157.635 206.365 159.542 207.477 161.46C208.589 163.379 209.664 165.344 210.753 167.285C211.813 169.274 212.887 171.239 213.932 173.25C214.977 175.262 216.007 177.285 216.999 179.366C215.835 177.518 214.716 175.611 213.604 173.692C212.492 171.774 211.417 169.809 210.328 167.867C209.268 165.879 208.186 163.914 207.149 161.902C206.104 159.89 205.067 157.867 204.082 155.786Z" fill="white"/>
<path d="M178.077 108.309C180.181 111.879 182.241 115.507 184.301 119.158L190.405 130.158L196.412 141.285C198.397 145.018 200.374 148.762 202.307 152.564C200.202 148.995 198.135 145.367 196.083 141.727L189.979 130.727L183.972 119.6C181.987 115.856 180.01 112.111 178.077 108.309Z" fill="white"/>
<path d="M229.036 182.681C230.267 184.494 231.372 186.483 232.439 188.506C233.491 190.552 234.521 192.634 235.409 194.889C234.178 193.075 233.073 191.087 232.006 189.064C230.946 187.018 229.924 184.936 229.036 182.681Z" fill="white"/>
<path d="M214.478 155.948C215.679 157.739 216.821 159.622 217.947 161.529C219.074 163.425 220.156 165.402 221.246 167.344C222.305 169.332 223.372 171.32 224.395 173.355C225.417 175.39 226.432 177.437 227.395 179.553C226.253 177.669 225.156 175.727 224.066 173.786L220.82 167.913L217.627 161.971C216.567 159.983 215.507 157.994 214.478 155.948Z" fill="white"/>
<path d="M206.889 143.518C208.023 144.866 209.045 146.401 210.03 147.983C211.008 149.576 211.955 151.227 212.769 153.052C211.627 151.703 210.612 150.169 209.627 148.587C208.657 146.983 207.71 145.343 206.889 143.518Z" fill="white"/>
<path d="M180.36 150.378L186.658 161.169L192.994 171.913C195.083 175.529 197.187 179.111 199.247 182.785C201.299 186.448 203.329 190.157 205.261 193.983L192.583 172.506C190.494 168.89 188.39 165.297 186.345 161.622C184.293 157.936 182.278 154.215 180.36 150.378Z" fill="white"/>
<path d="M161.25 76.797C162.407 78.6807 163.511 80.6225 164.608 82.5644C165.712 84.5178 166.772 86.5178 167.854 88.4829C168.906 90.4945 169.973 92.4945 171.003 94.5293C172.033 96.5642 173.055 98.6223 174.033 100.727C172.876 98.8432 171.772 96.9014 170.675 94.9596C169.578 93.0061 168.511 91.0178 167.429 89.041C166.384 87.0178 165.309 85.0295 164.28 82.9946C163.25 80.9597 162.228 78.9132 161.25 76.797Z" fill="white"/>
<path d="M132.17 22.7511L139.237 35.4372L146.258 48.1814C148.572 52.4721 150.892 56.7395 153.176 61.0767C155.452 65.4139 157.705 69.7744 159.884 74.2279L152.847 61.507L145.841 48.7511C143.535 44.4604 141.199 40.193 138.916 35.8674C136.625 31.5418 134.364 27.193 132.17 22.7511Z" fill="white"/>
<path d="M122.924 22.6697C123.797 23.7743 124.551 25.0534 125.259 26.3674C125.961 27.7046 126.633 29.0767 127.17 30.6232C126.289 29.5185 125.543 28.2394 124.834 26.9255C124.125 25.5883 123.461 24.2162 122.924 22.6697Z" fill="white"/>
<path d="M186.285 104.077C188.046 107.111 189.77 110.216 191.479 113.321C193.188 116.425 194.859 119.588 196.553 122.716C198.21 125.89 199.889 129.041 201.53 132.239C203.172 135.437 204.806 138.646 206.388 141.913C204.62 138.879 202.903 135.774 201.195 132.669C199.486 129.565 197.814 126.402 196.12 123.274C194.464 120.1 192.785 116.949 191.143 113.751C189.501 110.553 187.867 107.356 186.285 104.077Z" fill="white"/>
<path d="M171.831 76.8788C172.928 78.6695 173.988 80.5183 175.032 82.3788C176.077 84.2392 177.084 86.1462 178.114 88.0299C179.107 89.9601 180.121 91.8555 181.099 93.8089C182.077 95.7624 183.047 97.7159 183.972 99.7391C182.868 97.9484 181.815 96.0996 180.771 94.2392C179.726 92.3787 178.711 90.4717 177.689 88.588C176.696 86.6578 175.682 84.7625 174.704 82.809C173.726 80.8555 172.756 78.902 171.831 76.8788Z" fill="white"/>
<path d="M142.699 22.3907C145.095 26.6 147.445 30.8559 149.796 35.1349L156.773 48.0303L163.653 61.0535C165.929 65.414 168.197 69.786 170.414 74.2279C168.018 70.0302 165.66 65.7628 163.317 61.4837L156.34 48.5884L149.46 35.5652C147.191 31.1931 144.923 26.821 142.699 22.3907Z" fill="white"/>
<path d="M129.282 68.7855L134.7 78.5995L140.072 88.4716L150.751 108.297L161.325 128.262L166.578 138.286L171.787 148.379L166.369 138.565L160.996 128.693L150.318 108.855L139.744 88.9018L134.491 78.8669L129.282 68.7855Z" fill="white"/>
<path d="M104.053 21.879L110.336 32.7161C112.425 36.3323 114.477 39.995 116.537 43.6694C118.559 47.3786 120.581 51.0879 122.529 54.9134C124.469 58.7273 126.365 62.611 128.126 66.6342C126.171 62.8319 124.201 59.0645 122.193 55.3436C120.186 51.6228 118.171 47.9135 116.112 44.2508L110.008 33.1696C107.993 29.4371 105.985 25.7162 104.053 21.879Z" fill="white"/>
<path d="M249.989 182.286C251.243 184.088 252.362 186.065 253.452 188.076C254.526 190.111 255.571 192.181 256.481 194.425C255.228 192.623 254.108 190.646 253.019 188.634C251.944 186.6 250.9 184.53 249.989 182.286Z" fill="white"/>
<path d="M227.006 139.239C228.916 142.53 230.774 145.878 232.625 149.239C234.483 152.599 236.296 156.006 238.132 159.39L243.542 169.669C245.325 173.123 247.101 176.576 248.833 180.099C246.922 176.809 245.064 173.46 243.214 170.099L237.707 159.948C235.908 156.518 234.08 153.123 232.297 149.669C230.513 146.227 228.737 142.762 227.006 139.239Z" fill="white"/>
<path d="M244.438 155.123C246.303 158.332 248.116 161.6 249.922 164.867C251.728 168.146 253.504 171.46 255.295 174.762L260.563 184.785C262.302 188.146 264.033 191.529 265.72 194.96C263.854 191.75 262.041 188.495 260.235 185.216L254.862 175.32C253.109 171.972 251.333 168.658 249.594 165.297C247.855 161.937 246.124 158.553 244.438 155.123Z" fill="white"/>
<path d="M251.467 151.693C253.526 155.262 255.534 158.89 257.534 162.53L263.488 173.518L269.346 184.634C271.279 188.367 273.204 192.099 275.084 195.902C273.025 192.332 271.018 188.704 269.018 185.065L263.063 174.076L257.205 162.96C255.272 159.228 253.347 155.495 251.467 151.693Z" fill="white"/>
<path d="M238.856 128.089C239.924 129.809 240.953 131.6 241.968 133.391C242.99 135.181 243.975 137.007 244.96 138.844C245.938 140.693 246.916 142.53 247.856 144.425C248.803 146.309 249.744 148.204 250.632 150.158C249.557 148.437 248.535 146.646 247.52 144.856C246.498 143.065 245.513 141.239 244.528 139.402C243.55 137.553 242.573 135.716 241.632 133.821C240.692 131.937 239.752 130.042 238.856 128.089Z" fill="white"/>
<path d="M193.658 76.809C196.143 81.2508 198.568 85.7741 200.979 90.3089L208.179 103.96C210.552 108.541 212.97 113.076 215.38 117.611C217.791 122.146 220.231 126.646 222.678 131.134C220.059 126.879 217.537 122.483 215.052 118.041C212.567 113.588 210.157 109.053 207.747 104.518C205.374 99.9368 202.986 95.3554 200.65 90.7392C198.307 86.0996 195.971 81.4717 193.658 76.809Z" fill="white"/>
<path d="M179.778 50.8209C180.913 52.6581 181.995 54.5649 183.077 56.4718C184.159 58.3787 185.196 60.3438 186.255 62.2739C187.285 64.2506 188.33 66.204 189.337 68.2039C190.345 70.2038 191.352 72.2154 192.3 74.285C191.166 72.4479 190.084 70.541 189.002 68.6341C187.927 66.7272 186.882 64.7622 185.823 62.832C184.8 60.8554 183.748 58.902 182.741 56.9021C181.741 54.8905 180.733 52.8906 179.778 50.8209Z" fill="white"/>
<path d="M185.218 45.2743L188.718 51.9254L192.255 58.5184C194.613 62.9138 196.986 67.2858 199.373 71.6463L213.738 97.7392C218.506 106.46 223.29 115.181 227.961 124.03C230.297 128.46 232.61 132.913 234.908 137.39L238.311 144.158L241.669 150.972L238.199 144.286L234.692 137.646C232.349 133.227 229.998 128.82 227.625 124.448C222.879 115.693 218.111 106.983 213.305 98.2973C208.537 89.5764 203.739 80.8788 199.038 72.0649C196.687 67.6579 194.351 63.2277 192.038 58.7742L188.606 52.0417L185.218 45.2743Z" fill="white"/>
<path d="M172.995 22.4021C174.003 24.0067 174.958 25.6695 175.913 27.3439C176.868 29.0067 177.793 30.716 178.711 32.4369C179.621 34.1579 180.532 35.8904 181.412 37.6578C182.293 39.4253 183.173 41.1927 184.002 43.0299C182.994 41.4253 182.039 39.7625 181.084 38.0881C180.129 36.4253 179.204 34.716 178.286 32.9951C177.375 31.2741 176.465 29.5416 175.584 27.7742C174.704 26.0067 173.823 24.2393 172.995 22.4021Z" fill="white"/>
<path d="M197.486 104.227C198.673 106.158 199.815 108.146 200.964 110.123L204.389 116.076L207.792 122.053C208.926 124.053 210.068 126.041 211.179 128.064C209.896 126.285 208.68 124.413 207.478 122.506C206.277 120.599 205.128 118.623 203.971 116.646C202.852 114.623 201.725 112.623 200.643 110.541C199.553 108.495 198.494 106.39 197.486 104.227Z" fill="white"/>
<path d="M183.263 77.193C184.367 79.0069 185.419 80.879 186.471 82.7744C187.524 84.6581 188.531 86.5883 189.561 88.4953C190.561 90.4488 191.576 92.379 192.553 94.3441C193.531 96.3209 194.501 98.2976 195.426 100.344C194.322 98.5302 193.269 96.6581 192.217 94.7627C191.173 92.879 190.158 90.9488 189.128 89.0418C188.135 87.0883 187.113 85.1581 186.136 83.193C185.158 81.2162 184.188 79.2279 183.263 77.193Z" fill="white"/>
<path d="M166.593 45.6929C167.943 47.9719 169.249 50.3207 170.555 52.6694C171.854 55.0182 173.115 57.4251 174.398 59.7972C175.644 62.2157 176.913 64.611 178.144 67.0528C179.375 69.4946 180.599 71.948 181.771 74.4596C180.413 72.1806 179.107 69.8318 177.808 67.4714C176.51 65.1226 175.249 62.7157 173.965 60.3437C172.719 57.9251 171.451 55.5298 170.219 53.088C168.996 50.6579 167.772 48.2044 166.593 45.6929Z" fill="white"/>
<path d="M154.034 22.7511C155.027 24.286 155.974 25.879 156.907 27.472C157.847 29.0651 158.758 30.7046 159.668 32.3441C160.571 33.9953 161.466 35.6581 162.332 37.3558C163.205 39.0534 164.063 40.7511 164.884 42.5186C163.892 40.9837 162.944 39.3906 162.011 37.7976C161.071 36.2046 160.161 34.5651 159.25 32.9255C158.355 31.2744 157.452 29.6116 156.586 27.9139C155.713 26.2278 154.848 24.5185 154.034 22.7511Z" fill="white"/>
<path d="M194.516 45.4373C195.941 47.9372 197.321 50.4837 198.709 53.0186L202.851 60.6581C204.216 63.2278 205.612 65.751 207 68.2859L211.179 75.8905C209.619 73.5882 208.134 71.1812 206.679 68.7394C205.224 66.2859 203.828 63.7627 202.425 61.2278C201.06 58.6581 199.694 56.0883 198.381 53.4488C197.053 50.8209 195.754 48.1582 194.516 45.4373Z" fill="white"/>
<path d="M182.83 22.7511C183.763 24.2743 184.643 25.8557 185.524 27.4371C186.404 29.0185 187.255 30.6464 188.106 32.2743C188.942 33.9138 189.785 35.5533 190.583 37.2394C191.389 38.9138 192.195 40.5998 192.941 42.3556C192.009 40.8323 191.121 39.251 190.247 37.6696C189.367 36.0882 188.516 34.4603 187.673 32.8324C186.837 31.1929 186.001 29.5534 185.196 27.8673C184.382 26.1929 183.584 24.5069 182.83 22.7511Z" fill="white"/>
<path d="M212.47 78.6693C214.761 82.6694 216.999 86.7392 219.23 90.809L225.879 103.1L232.431 115.519C234.595 119.681 236.751 123.856 238.863 128.089C236.572 124.088 234.334 120.019 232.103 115.949L225.454 103.658L218.91 91.2392C216.738 87.0764 214.582 82.9019 212.47 78.6693Z" fill="white"/>
<path d="M164.652 22.4954C165.615 24.0186 166.533 25.6116 167.443 27.2046C168.361 28.7976 169.242 30.4255 170.122 32.065C170.995 33.7162 171.861 35.3557 172.704 37.0534C173.547 38.7394 174.383 40.4371 175.167 42.1929C174.204 40.6696 173.286 39.0766 172.376 37.4836C171.458 35.8906 170.577 34.2627 169.697 32.6232C168.824 30.972 167.958 29.3325 167.115 27.6349C166.279 25.9488 165.443 24.2512 164.652 22.4954Z" fill="white"/>
<path d="M240.199 183.39C241.423 185.041 242.52 186.855 243.58 188.716C244.632 190.588 245.647 192.518 246.542 194.611C245.318 192.972 244.221 191.158 243.162 189.286C242.11 187.402 241.095 185.483 240.199 183.39Z" fill="white"/>
<path d="M225.864 156.343C227.006 158.227 228.103 160.169 229.192 162.123C230.282 164.076 231.334 166.076 232.401 168.053C233.438 170.076 234.49 172.065 235.513 174.111C236.535 176.158 237.542 178.204 238.513 180.32C237.371 178.437 236.274 176.495 235.184 174.541C234.095 172.588 233.043 170.588 231.968 168.611C230.931 166.588 229.871 164.599 228.857 162.553C227.842 160.506 226.827 158.448 225.864 156.343Z" fill="white"/>
<path d="M211.172 128.089C212.351 130.065 213.485 132.112 214.612 134.17C215.739 136.216 216.828 138.321 217.94 140.402C219.015 142.518 220.112 144.611 221.164 146.762C222.223 148.902 223.268 151.053 224.268 153.262C223.089 151.274 221.955 149.239 220.828 147.181C219.701 145.123 218.612 143.03 217.507 140.949C216.433 138.832 215.336 136.739 214.284 134.6C213.224 132.449 212.172 130.298 211.172 128.089Z" fill="white"/>
<path d="M281.569 173.715C282.741 175.436 283.786 177.32 284.793 179.251C285.793 181.193 286.756 183.181 287.584 185.332C286.405 183.611 285.368 181.728 284.36 179.797C283.36 177.844 282.405 175.867 281.569 173.715Z" fill="white"/>
<path d="M269.809 151.635C270.741 153.1 271.622 154.611 272.495 156.146C273.375 157.669 274.219 159.239 275.069 160.809C275.905 162.39 276.741 163.972 277.539 165.6C278.345 167.216 279.144 168.844 279.897 170.541C278.965 169.076 278.084 167.565 277.211 166.03C276.331 164.507 275.487 162.937 274.637 161.367C273.801 159.786 272.965 158.204 272.167 156.576C271.361 154.96 270.562 153.321 269.809 151.635Z" fill="white"/>
<path d="M254.676 122.367C255.892 124.437 257.056 126.564 258.213 128.704C259.369 130.843 260.489 133.018 261.63 135.181C262.735 137.378 263.862 139.553 264.951 141.785C266.041 144.006 267.123 146.239 268.152 148.541C266.936 146.471 265.772 144.355 264.615 142.215C263.459 140.076 262.332 137.89 261.198 135.739C260.093 133.529 258.966 131.355 257.877 129.134C256.788 126.89 255.706 124.657 254.676 122.367Z" fill="white"/>
<path d="M227.006 68.9261C229.304 73.0888 231.565 77.3097 233.811 81.5305L240.497 94.286L247.086 107.169C249.265 111.483 251.437 115.809 253.556 120.192C251.25 116.03 248.997 111.809 246.751 107.588L240.065 94.8324L233.483 81.9491C231.297 77.6352 229.125 73.3098 227.006 68.9261Z" fill="white"/>
<path d="M279.188 152.088C279.972 153.285 280.718 154.53 281.449 155.797C282.188 157.053 282.89 158.355 283.591 159.657C284.285 160.971 284.979 162.285 285.636 163.646C286.3 164.994 286.957 166.355 287.561 167.785C286.77 166.587 286.031 165.343 285.3 164.076C284.561 162.82 283.86 161.518 283.158 160.215C282.464 158.902 281.77 157.588 281.114 156.227C280.457 154.867 279.8 153.506 279.188 152.088Z" fill="white"/>
<path d="M263.959 122.577C265.183 124.669 266.354 126.809 267.518 128.96C268.683 131.111 269.809 133.309 270.959 135.483C272.07 137.704 273.205 139.89 274.294 142.134C275.391 144.378 276.481 146.622 277.518 148.936C276.301 146.855 275.122 144.704 273.958 142.552C272.794 140.401 271.667 138.192 270.518 136.018C269.406 133.797 268.272 131.599 267.175 129.355C266.086 127.134 264.996 124.879 263.959 122.577Z" fill="white"/>
<path d="M244.438 84.7975C246.042 87.6115 247.601 90.4952 249.146 93.3789C250.698 96.2626 252.206 99.2045 253.743 102.112C255.243 105.065 256.758 107.995 258.235 110.972C259.713 113.949 261.19 116.926 262.608 119.972C261.003 117.158 259.444 114.274 257.899 111.391C256.347 108.507 254.84 105.565 253.303 102.658C251.803 99.7045 250.288 96.7743 248.81 93.7975C247.34 90.8324 245.863 87.844 244.438 84.7975Z" fill="white"/>
<path d="M273.577 122.762C274.816 124.808 276.01 126.901 277.196 129.018C278.383 131.134 279.532 133.285 280.703 135.425C281.838 137.599 282.994 139.762 284.114 141.96C285.233 144.157 286.345 146.367 287.404 148.646C286.166 146.599 284.972 144.506 283.785 142.39C282.599 140.274 281.45 138.122 280.278 135.983C279.144 133.797 277.987 131.646 276.875 129.448C275.749 127.25 274.637 125.041 273.577 122.762Z" fill="white"/>
<path d="M254.452 86.9598C255.989 89.5528 257.482 92.2156 258.959 94.8784C260.444 97.5412 261.892 100.262 263.354 102.948C264.787 105.681 266.235 108.39 267.653 111.146C269.063 113.902 270.473 116.669 271.831 119.495C270.294 116.902 268.802 114.239 267.317 111.576C265.832 108.913 264.384 106.192 262.922 103.506C261.489 100.774 260.041 98.0644 258.623 95.3086C257.221 92.5528 255.818 89.797 254.452 86.9598Z" fill="white"/>
<path d="M240.416 60.681C241.565 62.5531 242.67 64.4834 243.766 66.4253C244.863 68.3671 245.923 70.3555 246.998 72.3207C248.042 74.3323 249.102 76.3091 250.132 78.344C251.161 80.3789 252.176 82.4138 253.146 84.5184C251.997 82.6463 250.893 80.7161 249.796 78.7742C248.699 76.8323 247.639 74.8439 246.565 72.8788C245.52 70.8672 244.46 68.8904 243.431 66.8555C242.408 64.8206 241.386 62.7857 240.416 60.681Z" fill="white"/>
<path d="M201.71 21.5533C203.546 24.7045 205.337 27.9254 207.113 31.1579C208.896 34.3789 210.642 37.6579 212.403 40.9021L217.597 50.7858C219.306 54.0997 221.014 57.4253 222.671 60.809C220.835 57.6578 219.044 54.4369 217.261 51.2044L211.97 41.4486C210.239 38.1579 208.493 34.8905 206.777 31.5649C205.075 28.2742 203.367 24.9487 201.71 21.5533Z" fill="white"/>
<path d="M210.426 21.4254L214.433 28.7045L218.403 36.03L226.26 50.7625L234.021 65.6346L237.864 73.1113L241.662 80.6578L237.655 73.3904L233.685 66.0648L225.828 51.3207L218.067 36.4486L214.224 28.9719L210.426 21.4254Z" fill="white"/>
<path d="M205.037 45.5302C206.306 47.2395 207.425 49.1697 208.47 51.2046C209.492 53.2512 210.447 55.414 211.171 57.7628C210.074 55.7861 209.059 53.7628 208.029 51.7395C207.015 49.7046 205.977 47.693 205.037 45.5302Z" fill="white"/>
<path d="M191.986 22.7976L194.882 27.8092L197.807 32.7626C198.777 34.4254 199.762 36.0649 200.717 37.7509C201.672 39.4369 202.627 41.1346 203.523 42.902C202.456 41.3671 201.433 39.7974 200.404 38.2044C199.374 36.623 198.381 34.9951 197.396 33.344C196.426 31.6812 195.464 29.9952 194.553 28.2394C193.65 26.4952 192.77 24.6929 191.986 22.7976Z" fill="white"/>
<path d="M219.462 21.4373C221.275 24.1931 222.992 27.1001 224.656 30.0652C226.327 33.0303 227.924 36.0884 229.528 39.135L234.222 48.4257L238.863 57.7745C237.147 54.8792 235.506 51.8792 233.886 48.8443C232.267 45.821 230.7 42.728 229.096 39.6815C227.528 36.5884 225.932 33.5419 224.335 30.4954C222.73 27.4489 221.104 24.4373 219.462 21.4373Z" fill="white"/>
<path d="M284.86 123.25C285.524 123.96 286.062 124.844 286.569 125.762C287.062 126.704 287.524 127.681 287.845 128.832C287.174 128.123 286.644 127.239 286.136 126.32C285.651 125.378 285.189 124.402 284.86 123.25Z" fill="white"/>
<path d="M265.265 87.2623C266.839 89.8786 268.376 92.553 269.899 95.2506C271.421 97.9367 272.913 100.681 274.421 103.39C275.898 106.146 277.391 108.878 278.846 111.658C280.301 114.437 281.749 117.227 283.151 120.076C281.569 117.46 280.04 114.785 278.517 112.088C276.995 109.402 275.503 106.669 273.995 103.948C272.525 101.192 271.033 98.4599 269.57 95.6809C268.115 92.9018 266.668 90.1111 265.265 87.2623Z" fill="white"/>
<path d="M229.998 20.8909L234.334 28.7164L238.617 36.6001L247.131 52.4605L255.541 68.4371L259.712 76.4836L263.831 84.5765L259.496 76.751L255.205 68.8673L246.698 53.007L238.288 37.0187L234.117 28.9838L229.998 20.8909Z" fill="white"/>
<path d="M261.25 151.448C263.317 155.041 265.332 158.692 267.347 162.355L273.324 173.413L279.204 184.599C281.144 188.355 283.084 192.111 284.965 195.936C282.898 192.343 280.883 188.692 278.868 185.029L272.891 173.971L267.011 162.785C265.071 159.029 263.138 155.273 261.25 151.448Z" fill="white"/>
<path d="M245.811 122.623C247.094 124.727 248.325 126.902 249.549 129.088C250.78 131.262 251.967 133.495 253.176 135.704C254.355 137.948 255.549 140.169 256.705 142.448C257.862 144.715 259.011 146.994 260.115 149.343C258.832 147.239 257.601 145.064 256.377 142.878C255.153 140.692 253.959 138.471 252.75 136.262C251.579 134.018 250.377 131.797 249.221 129.518C248.064 127.25 246.915 124.971 245.811 122.623Z" fill="white"/>
<path d="M211.172 57.7628C212.53 60.3907 213.896 62.9953 215.276 65.5883L219.418 73.3674C222.193 78.5301 224.977 83.6813 227.79 88.7975L236.155 104.239L240.297 112.018L244.356 119.902L235.827 104.67L227.365 89.3556C224.581 84.1929 221.798 79.0418 219.089 73.786C217.739 71.1581 216.395 68.5069 215.067 65.8558C213.754 63.1698 212.455 60.4721 211.172 57.7628Z" fill="white"/>
<path d="M285.949 87.588C286.382 87.7849 286.695 88.1787 286.986 88.6189C287.262 89.0706 287.501 89.5687 287.62 90.2521C287.18 90.0436 286.867 89.6614 286.583 89.2212C286.315 88.7695 286.076 88.2714 285.949 87.588Z" fill="white"/>
<path d="M267.376 52.7975C268.891 55.3557 270.368 57.9836 271.831 60.6115C273.293 63.2395 274.719 65.9256 276.166 68.5768C277.577 71.2745 279.009 73.9489 280.405 76.6699C281.8 79.3909 283.188 82.1235 284.524 84.9142C283.002 82.356 281.532 79.7281 280.069 77.1001C278.606 74.4722 277.181 71.7861 275.734 69.1349C274.323 66.4372 272.89 63.7627 271.495 61.0418C270.1 58.3208 268.712 55.5882 267.376 52.7975Z" fill="white"/>
<path d="M279.227 41.6464C280.465 43.4254 281.57 45.3789 282.644 47.3673C283.704 49.3789 284.734 51.4254 285.629 53.6464C284.39 51.8673 283.286 49.9138 282.211 47.9254C281.152 45.9138 280.129 43.8673 279.227 41.6464Z" fill="white"/>
<path d="M250.378 20.972C251.52 22.8325 252.617 24.7511 253.706 26.693C254.796 28.6232 255.848 30.5999 256.922 32.5534C257.959 34.5534 259.019 36.5301 260.041 38.5418C261.064 40.565 262.079 42.5883 263.041 44.6813C261.899 42.8208 260.803 40.9022 259.706 38.9604C258.616 37.0301 257.564 35.0534 256.489 33.0999C255.452 31.0999 254.393 29.1232 253.37 27.0999C252.355 25.0999 251.341 23.0651 250.378 20.972Z" fill="white"/>
<path d="M258.698 20.8328C260.75 24.3328 262.72 27.9491 264.668 31.5886C266.623 35.2282 268.518 38.9259 270.451 42.5771C272.346 46.2748 274.272 49.9376 276.197 53.6121C278.122 57.2749 280.07 60.9144 282.025 64.5424C279.891 61.1586 277.861 57.6237 275.869 54.0423C273.876 50.4609 271.951 46.7864 270.018 43.1236L264.34 32.0073L258.698 20.8328Z" fill="white"/>
<path d="M239.931 20.4489C240.983 22.1 241.998 23.8093 242.998 25.5302C244.005 27.2395 244.975 29.0069 245.945 30.7627C246.908 32.5302 247.87 34.3092 248.796 36.1231C249.728 37.9371 250.654 39.751 251.534 41.6464C250.482 39.9952 249.475 38.2859 248.467 36.565C247.46 34.8441 246.49 33.0883 245.52 31.3325C244.557 29.5534 243.595 27.786 242.669 25.9604C241.736 24.1581 240.811 22.3326 239.931 20.4489Z" fill="white"/>
<path d="M267.488 19.6583C268.369 21.0304 269.205 22.4606 270.033 23.8908C270.861 25.321 271.66 26.7978 272.458 28.2745C273.249 29.7629 274.033 31.2513 274.786 32.7861C275.547 34.3094 276.294 35.8559 276.995 37.4489C276.115 36.0768 275.279 34.6466 274.45 33.2164C273.622 31.7861 272.824 30.3094 272.025 28.8327C271.242 27.3443 270.451 25.8559 269.697 24.321C268.936 22.7978 268.19 21.2629 267.488 19.6583Z" fill="white"/>
<path d="M275.928 87.3212C277.114 89.263 278.248 91.2629 279.383 93.2745C280.517 95.2861 281.606 97.3442 282.726 99.3674C283.808 101.449 284.905 103.495 285.964 105.588C287.024 107.693 288.084 109.797 289.091 111.96C287.904 110.018 286.763 108.018 285.636 106.018C284.502 104.007 283.412 101.949 282.293 99.9255C281.211 97.8442 280.114 95.7977 279.054 93.6931C277.995 91.6001 276.943 89.4839 275.928 87.3212Z" fill="white"/>
<path d="M251.542 41.6464C253.542 45.1115 255.504 48.6463 257.452 52.1928L263.25 62.8788L268.944 73.7043C270.824 77.3322 272.697 80.9717 274.525 84.681C272.518 81.2159 270.563 77.6811 268.615 74.1346L262.825 63.4369L257.131 52.6114C255.236 48.9835 253.363 45.344 251.542 41.6464Z" fill="white"/>
<path d="M277.585 20.1002C278.48 21.4956 279.324 22.949 280.159 24.4025C281.003 25.856 281.808 27.356 282.614 28.8559C283.413 30.3676 284.211 31.8792 284.972 33.4373C285.741 34.9838 286.502 36.5419 287.211 38.1698C286.323 36.7861 285.48 35.3326 284.637 33.8675C283.793 32.414 282.988 30.9141 282.182 29.4141C281.383 27.9025 280.585 26.3909 279.824 24.8327C279.062 23.2746 278.301 21.7165 277.585 20.1002Z" fill="white"/>
</g>
<path opacity="0.4" d="M9.99913 8.92663C9.99913 6.47031 9.99913 3.74439 9.99913 0C12.9989 3.4074 10.8349 6.65753 12.2228 9.33851C14.745 10.4693 17.9015 8.68699 21.0431 10.8063C17.8717 12.3265 14.9988 11.0759 12.1781 11.9746C10.9394 14.5732 12.7079 17.9506 10.6707 21.3206C9.1186 17.8458 10.3872 14.7903 9.52155 11.9596C6.64117 11.046 3.57423 12.364 0.350586 10.8587C3.38768 8.46232 6.79787 10.6865 9.99913 8.92663Z" fill="white"/>
<path opacity="0.4" d="M294.956 8.92663C294.956 6.47031 294.956 3.74439 294.956 0C297.956 3.4074 295.792 6.65753 297.18 9.33851C299.702 10.4693 302.859 8.68699 306 10.8063C302.829 12.3265 299.956 11.0759 297.135 11.9746C295.896 14.5732 297.665 17.9506 295.628 21.3206C294.076 17.8458 295.344 14.7903 294.479 11.9596C291.598 11.046 288.531 12.364 285.308 10.8587C288.352 8.46232 291.755 10.6865 294.956 8.92663Z" fill="white"/>
<path opacity="0.4" d="M9.64854 204.863C9.64854 202.406 9.64854 199.681 9.64854 195.936C12.6483 199.344 10.4843 202.594 11.8723 205.275C14.3945 206.406 17.5509 204.623 20.6925 206.743C17.5211 208.263 14.6482 207.012 11.8275 207.911C10.5888 210.51 12.3573 213.887 10.3201 217.257C8.76801 213.782 10.0366 210.727 9.17097 207.896C6.29058 206.982 3.22364 208.3 0 206.795C3.04455 204.399 6.44729 206.623 9.64854 204.863Z" fill="white"/>
<path opacity="0.4" d="M294.612 204.863C294.612 202.406 294.612 199.681 294.612 195.936C297.612 199.344 295.448 202.594 296.836 205.275C299.358 206.406 302.515 204.623 305.656 206.743C302.485 208.263 299.612 207.012 296.791 207.911C295.553 210.51 297.321 213.887 295.284 217.257C293.732 213.782 295 210.727 294.135 207.896C291.254 206.982 288.188 208.3 284.964 206.795C288.001 204.399 291.411 206.623 294.612 204.863Z" fill="white"/>
<path opacity="0.8" d="M210.497 104.672C173.335 104.672 136.547 104.665 101.302 104.657C101.177 105.048 101.059 105.438 100.964 105.835C136.26 105.85 173.217 105.857 210.571 105.865C210.541 105.467 210.519 105.07 210.497 104.672Z" fill="#F1F1F1"/>
<path d="M117.689 104.196C118.019 102.558 119.062 101.919 119.841 101.094C137.673 82.3579 155.557 63.6622 173.31 44.8334C176.042 41.9438 178.682 39.9864 182.971 41.5576C183.882 44.8467 183.301 47.723 180.477 50.6525C164.229 67.4573 148.139 84.4352 132.076 101.44C130.242 103.384 128.473 104.529 125.754 104.249C123.127 103.996 120.448 104.196 117.689 104.196Z" fill="#00EEF4"/>
<path d="M197.699 101.996C197.369 103.603 196.326 104.23 195.548 105.04C177.716 123.422 159.831 141.765 142.079 160.239C139.347 163.074 136.707 164.994 132.417 163.453C131.507 160.226 132.087 157.404 134.912 154.53C151.16 138.042 167.249 121.384 183.312 104.701C185.147 102.793 186.916 101.67 189.635 101.944C192.261 102.205 194.941 101.996 197.699 101.996Z" fill="#00EEF4"/>
<path d="M194.116 102.269C193.186 102.009 192.19 101.927 191.063 101.927C168.421 102.009 145.779 102.068 123.136 101.903C119.192 101.88 116.86 103.306 115.301 105.959C117.253 109.766 120.424 110.285 124.276 110.261C145.556 110.155 166.836 110.179 188.115 110.179C190.094 107.538 192.138 104.921 194.116 102.269Z" fill="#00EEF4"/>
<path opacity="0.8" d="M91.0626 105.264L65.5312 79.6826L39.9999 105.264L65.5312 130.846L91.0626 105.264Z" fill="#D9D9D9"/>
<g style="mix-blend-mode:multiply">
<path d="M91.0599 111.452C94.4725 111.452 97.239 108.68 97.239 105.261C97.239 101.842 94.4725 99.0699 91.0599 99.0699C87.6473 99.0699 84.8809 101.842 84.8809 105.261C84.8809 108.68 87.6473 111.452 91.0599 111.452Z" fill="#595959"/>
</g>
<path opacity="0.8" d="M243 128C255.703 128 266 117.703 266 105C266 92.2975 255.703 82 243 82C230.297 82 220 92.2975 220 105C220 117.703 230.297 128 243 128Z" fill="#D9D9D9"/>
<g style="mix-blend-mode:multiply">
<path d="M219.079 112.056C222.492 112.056 225.259 109.284 225.259 105.865C225.259 102.445 222.492 99.6736 219.079 99.6736C215.667 99.6736 212.9 102.445 212.9 105.865C212.9 109.284 215.667 112.056 219.079 112.056Z" fill="#595959"/>
</g>
</svg>
