<svg width="320" height="135" viewBox="0 0 320 135" fill="none" xmlns="http://www.w3.org/2000/svg">
<g opacity="0.3">
<path d="M67.3447 124.42C68.4088 125.289 69.3132 126.283 70.1821 127.303C71.0334 128.341 71.8491 129.414 72.5053 130.612C71.4413 129.742 70.5368 128.749 69.6679 127.729C68.8166 126.691 68.0009 125.617 67.3447 124.42Z" fill="#CAEAE9"/>
<path d="M54.1592 108.559C55.1878 109.588 56.1631 110.653 57.1296 111.735C58.105 112.808 59.036 113.917 59.9671 115.025C60.8892 116.143 61.8025 117.261 62.6892 118.414C63.5759 119.558 64.4538 120.711 65.2695 121.917C64.241 120.897 63.2656 119.824 62.2991 118.742C61.3237 117.669 60.3927 116.56 59.4616 115.451C58.5395 114.334 57.6262 113.216 56.7483 112.063C55.8528 110.919 54.9749 109.766 54.1592 108.559Z" fill="#CAEAE9"/>
<path d="M62.3086 107.006L67.1322 112.852C68.7549 114.786 70.3687 116.728 72.0179 118.644L76.8948 124.446C78.5086 126.398 80.1135 128.349 81.6475 130.363C79.9007 128.527 78.1982 126.664 76.5046 124.783C74.811 122.902 73.1618 120.986 71.5037 119.07C69.8899 117.119 68.2672 115.176 66.7244 113.171C65.1904 111.166 63.6918 109.126 62.3086 107.006Z" fill="#CAEAE9"/>
<path d="M42.1357 82.1238C43.9712 83.7205 45.6914 85.4503 47.3495 87.2334C49.0076 89.0253 50.5594 90.897 52.0934 92.7865C53.583 94.7114 55.0638 96.6453 56.4736 98.6235C57.8835 100.602 59.2667 102.606 60.5879 104.647C59.0451 102.766 57.5554 100.841 56.0658 98.9251C54.5761 97.009 53.1042 95.0751 51.5791 93.1945C50.0894 91.2784 48.5466 89.4156 46.9771 87.5616C45.3988 85.7165 43.7761 83.9157 42.1357 82.1238Z" fill="#CAEAE9"/>
<path d="M55.0898 124.614C56.1539 125.421 57.0672 126.352 57.945 127.328C58.8051 128.313 59.6297 129.324 60.3036 130.487C59.2396 129.688 58.3263 128.748 57.4485 127.772C56.5795 126.787 55.7549 125.767 55.0898 124.614Z" fill="#CAEAE9"/>
<path d="M40.5752 107.165C41.6658 108.274 42.7121 109.436 43.7407 110.598C44.7781 111.76 45.7712 112.949 46.7643 114.138C47.7486 115.335 48.7239 116.542 49.6727 117.775C50.6215 119.008 51.5614 120.241 52.4392 121.536C51.3486 120.427 50.3111 119.274 49.2826 118.112C48.2451 116.95 47.252 115.761 46.2589 114.564C45.2747 113.357 44.2905 112.16 43.3506 110.918C42.3929 109.693 41.453 108.452 40.5752 107.165Z" fill="#CAEAE9"/>
<path d="M0.87793 58.0139C2.44738 59.9654 4.03457 61.8992 5.62176 63.8329L10.3922 69.6342L19.9774 81.1924C23.1429 85.0688 26.3439 88.9275 29.465 92.8393L34.1113 98.7382L38.6335 104.735L33.8542 98.9422L29.066 93.1587L19.4631 81.6093C16.2976 77.7329 13.1055 73.8743 9.99317 69.9447L5.36461 64.0281C3.85723 62.0411 2.35871 60.0364 0.87793 58.0139Z" fill="#CAEAE9"/>
<path d="M50.0625 77.9375C51.8536 79.9511 53.6359 81.9824 55.4004 84.0226L60.6053 90.2231C64.0457 94.3744 67.4152 98.5968 70.8112 102.784C74.1718 107.006 77.5678 111.184 80.9994 115.353C82.7107 117.438 84.4397 119.504 86.1865 121.562C87.9245 123.629 89.6801 125.669 91.4624 127.701C89.6003 125.749 87.7649 123.771 85.9383 121.784C84.1383 119.771 82.3649 117.739 80.6092 115.69C77.0979 111.592 73.7018 107.396 70.2969 103.209L60.2063 90.5513L55.1521 84.2355C53.4674 82.1155 51.7738 80.0221 50.0625 77.9375Z" fill="#CAEAE9"/>
<path d="M0.0976562 18.2021L6.2602 25.2986L12.3695 32.4395L24.5084 46.7833C28.5074 51.6 32.5508 56.3902 36.5143 61.2424L42.4552 68.5252L48.3428 75.8523L42.2069 68.7381L36.1241 61.5706L23.9941 47.2091L11.9794 32.7677L6.01192 25.5115L0.0976562 18.2021Z" fill="#CAEAE9"/>
<path d="M0 31.4734L19.1083 53.4637C22.2472 57.1716 25.395 60.8707 28.4364 64.6584C29.9526 66.5568 31.4511 68.4639 32.9408 70.3889C34.4038 72.3315 35.8403 74.2919 37.259 76.2612C35.7516 74.354 34.2265 72.4646 32.6837 70.5929C31.1497 68.7123 29.6068 66.8406 28.0462 64.9867C24.9251 61.2699 21.7861 57.5619 18.6118 53.8984C15.4729 50.1904 12.2896 46.5269 9.17731 42.8012L4.53102 37.1861C3.0059 35.2966 1.49852 33.3894 0 31.4734Z" fill="#CAEAE9"/>
<path d="M28.5078 77.7241C30.2901 79.6579 32.028 81.6359 33.7482 83.6229C35.4684 85.6098 37.1531 87.6323 38.8556 89.637C40.5137 91.6771 42.1984 93.6907 43.8388 95.7486C45.4792 97.8065 47.1107 99.8644 48.689 101.976C46.8979 100.042 45.1689 98.0638 43.4487 96.0768C41.7285 94.0899 40.0437 92.0674 38.3502 90.0627C36.692 88.0226 35.0073 86.009 33.3669 83.9511C31.7088 81.8932 30.0773 79.8353 28.5078 77.7241Z" fill="#CAEAE9"/>
<path d="M0.886719 44.5212C3.1478 47.0228 5.35568 49.5775 7.55469 52.1412C9.7537 54.6959 11.9084 57.295 14.0896 59.8675L20.5005 67.7003C22.6197 70.326 24.7212 72.9606 26.7783 75.6484C24.5172 73.1469 22.3093 70.5921 20.1103 68.0285L13.5754 60.2933C11.4384 57.6853 9.27488 55.0951 7.16454 52.4605C5.04533 49.8348 2.93499 47.2002 0.886719 44.5212Z" fill="#CAEAE9"/>
<path d="M110.27 122.37C111.768 123.7 113.116 125.173 114.419 126.672C115.714 128.189 116.973 129.732 118.072 131.409C116.574 130.069 115.226 128.606 113.923 127.107C112.628 125.599 111.378 124.055 110.27 122.37Z" fill="#CAEAE9"/>
<path d="M126.203 116.08C127.116 116.967 127.977 117.889 128.819 118.83C129.67 119.761 130.486 120.728 131.302 121.695C132.1 122.671 132.907 123.647 133.669 124.659C134.432 125.661 135.194 126.672 135.895 127.737C134.981 126.859 134.121 125.927 133.279 124.987C132.428 124.055 131.612 123.088 130.796 122.121C129.998 121.145 129.191 120.169 128.429 119.158C127.666 118.156 126.904 117.144 126.203 116.08Z" fill="#CAEAE9"/>
<path d="M72.9658 77.5295C76.1047 80.3237 78.9776 83.4017 81.7175 86.5773C84.4574 89.7618 87.0377 93.0793 89.6091 96.3968L97.217 106.42C99.7707 109.747 102.378 113.02 105.126 116.196C102.174 113.206 99.4603 110.004 96.818 106.74C94.1756 103.475 91.6574 100.122 89.086 96.8049C86.5589 93.4608 83.9875 90.1521 81.3362 86.9144C78.6761 83.6678 75.9097 80.5189 72.9658 77.5295Z" fill="#CAEAE9"/>
<path d="M56.1719 57.3389C57.564 58.8025 58.9029 60.3106 60.2329 61.8186C61.563 63.3355 62.8487 64.8879 64.161 66.4137C65.429 67.9749 66.7235 69.5273 67.9649 71.1063C69.2152 72.6942 70.4477 74.2821 71.6358 75.9143C70.2437 74.4506 68.9048 72.9426 67.5748 71.4346C66.2447 69.9177 64.959 68.3653 63.6467 66.8395C62.3787 65.2694 61.0842 63.7258 59.8428 62.1468C58.5926 60.5678 57.36 58.98 56.1719 57.3389Z" fill="#CAEAE9"/>
<path d="M66.8477 57.2161L74.092 66.0067L81.221 74.8949L95.3904 92.7333C100.108 98.6854 104.887 104.575 109.746 110.412L113.408 114.776L117.115 119.105L120.847 123.407L124.634 127.656L120.723 123.514L116.866 119.318L113.089 115.051L109.356 110.74C104.417 104.966 99.6288 99.0668 94.8762 93.1414C90.1589 87.1893 85.4772 81.2106 80.822 75.2053L66.8477 57.2161Z" fill="#CAEAE9"/>
<path d="M44.752 31.313C46.5963 33.1315 48.3697 35.0121 50.1253 36.9194C51.881 38.8266 53.5657 40.7871 55.2682 42.7298C56.9263 44.7169 58.6021 46.6951 60.2159 48.7176C61.8297 50.7402 63.4258 52.7805 64.9509 54.874C63.213 52.9579 61.5194 50.9975 59.8258 49.0459L54.7716 43.1645L49.7441 37.2565C48.0771 35.2871 46.4012 33.3178 44.752 31.313Z" fill="#CAEAE9"/>
<path d="M61.5283 77.8303C64.1707 80.7044 66.7598 83.6318 69.3312 86.568C71.9027 89.5042 74.4209 92.4937 76.9391 95.4742C79.4218 98.4903 81.9135 101.497 84.3341 104.558C86.7548 107.618 89.1489 110.705 91.4543 113.863L76.4248 95.9L68.9322 86.8962C66.4495 83.889 63.9579 80.8819 61.5283 77.8303Z" fill="#CAEAE9"/>
<path d="M22.1055 30.4883L31.4158 41.7807C34.537 45.533 37.6404 49.2853 40.7971 53.011L50.1961 64.2235L54.8867 69.8476L59.5241 75.5071L54.6384 70.0605L49.8059 64.5606C46.5961 60.8882 43.4394 57.1625 40.2828 53.4368C37.1705 49.6756 34.0493 45.9233 31.0168 42.1L26.5035 36.3429L22.1055 30.4883Z" fill="#CAEAE9"/>
<path d="M0.611328 4.65674C2.39359 6.58169 4.12266 8.55987 5.83398 10.538C7.55418 12.5162 9.22117 14.5387 10.9236 16.5347C12.5818 18.5661 14.2576 20.5797 15.898 22.6289C17.5295 24.678 19.1611 26.736 20.7305 28.8384C18.9482 26.9134 17.2192 24.9353 15.5079 22.9571C13.7877 20.9789 12.1207 18.9564 10.4182 16.9605C8.76009 14.9291 7.08423 12.9154 5.4527 10.8663C3.81231 8.81712 2.18078 6.7591 0.611328 4.65674Z" fill="#CAEAE9"/>
<path d="M78.1621 57.6147C79.4478 58.8211 80.6803 60.0895 81.8862 61.3846C83.101 62.6708 84.2537 64.0013 85.3887 65.3673C86.5059 66.7333 87.5966 68.126 88.6074 69.5807C89.6271 71.0265 90.5936 72.5079 91.4537 74.0513C90.3631 72.6586 89.299 71.2571 88.1995 69.8911C87.1 68.5251 86.0005 67.1502 84.8744 65.7931L81.505 61.7305C80.3789 60.3645 79.2527 59.0074 78.1621 57.6147Z" fill="#CAEAE9"/>
<path d="M55.5869 30.9229C57.1475 33.0251 58.7436 35.0919 60.3839 37.1144C62.0332 39.1369 63.6913 41.1504 65.4204 43.1019C67.1051 45.0978 68.8519 47.0315 70.5809 49.0008C72.3011 50.9611 74.0391 52.9215 75.706 54.9351C73.8351 53.1078 72.0085 51.2361 70.1997 49.3467C68.3997 47.4484 66.6529 45.5058 64.915 43.5455C63.2214 41.5496 61.5455 39.536 59.9849 37.4337C58.4155 35.3315 56.9258 33.1759 55.5869 30.9229Z" fill="#CAEAE9"/>
<path d="M30.1387 1.37524C32.2224 3.57517 34.2441 5.82833 36.2658 8.08148C38.2874 10.3346 40.2559 12.6321 42.2598 14.903C44.2194 17.2094 46.1968 19.498 48.1298 21.8222C50.0628 24.1463 51.9958 26.4793 53.8667 28.8655C51.783 26.6656 49.7613 24.4213 47.7396 22.1592C45.718 19.9061 43.7495 17.6086 41.7456 15.3377C39.786 13.0313 37.8086 10.7427 35.8667 8.40969C33.9426 6.08558 32.0096 3.75259 30.1387 1.37524Z" fill="#CAEAE9"/>
<path d="M20.2969 2.22607C21.8131 3.84053 23.2762 5.49935 24.7304 7.15816C26.1845 8.82584 27.5944 10.529 29.0308 12.2056C30.423 13.9265 31.8417 15.6208 33.2161 17.3505C34.5904 19.0892 35.956 20.8278 37.2594 22.6108C35.7431 20.9964 34.2801 19.3376 32.817 17.6788C31.3629 16.0111 29.953 14.3079 28.5166 12.6314C27.1244 10.9104 25.7057 9.21615 24.3313 7.48637C22.9658 5.74772 21.6003 4.00908 20.2969 2.22607Z" fill="#CAEAE9"/>
<path d="M105.242 90.8879C106.945 92.7153 108.585 94.5871 110.217 96.4677C111.848 98.3483 113.444 100.264 115.058 102.163C116.627 104.097 118.223 106.004 119.775 107.955C121.327 109.907 122.87 111.858 124.359 113.863C122.657 112.036 121.016 110.164 119.385 108.284C117.753 106.403 116.157 104.487 114.544 102.589C112.974 100.655 111.378 98.7475 109.826 96.7959C108.275 94.8443 106.732 92.8927 105.242 90.8879Z" fill="#CAEAE9"/>
<path d="M92.9971 76.1628C93.9813 77.1386 94.9123 78.1498 95.8345 79.1787C96.7655 80.1988 97.6522 81.2544 98.5389 82.3099C99.4168 83.3744 100.286 84.4388 101.128 85.5387C101.97 86.6298 102.804 87.7297 103.575 88.8828C102.591 87.916 101.66 86.8959 100.738 85.8669C99.8069 84.8468 98.9202 83.7913 98.0335 82.7357C97.1557 81.6713 96.2867 80.6069 95.4532 79.5069C94.602 78.4159 93.7774 77.316 92.9971 76.1628Z" fill="#CAEAE9"/>
<path d="M33.9512 30.6299C35.2812 32.0138 36.5581 33.4509 37.826 34.8969C39.094 36.334 40.3177 37.8155 41.5679 39.2704C42.7738 40.7608 44.0063 42.2334 45.1945 43.7415C46.3827 45.2496 47.562 46.7666 48.6792 48.3279C47.3492 46.944 46.0723 45.5068 44.8043 44.0697C43.5364 42.6326 42.3127 41.1511 41.0625 39.6962C39.8566 38.2059 38.6241 36.7333 37.4448 35.2252C36.2566 33.7082 35.0773 32.1912 33.9512 30.6299Z" fill="#CAEAE9"/>
<path d="M11.8105 4.00977C13.6194 5.97014 15.3751 7.98374 17.1219 9.99733C18.8686 12.0109 20.5711 14.0689 22.3002 16.1002C23.9849 18.167 25.6962 20.2161 27.3632 22.3007C29.0302 24.3852 30.6883 26.4787 32.2843 28.6165C30.4755 26.6561 28.7198 24.6425 26.973 22.6289C25.2262 20.6153 23.5238 18.5573 21.7947 16.526C20.11 14.4592 18.3987 12.4101 16.7406 10.3255C15.0647 8.24098 13.4066 6.14755 11.8105 4.00977Z" fill="#CAEAE9"/>
<path d="M117.842 90.5867C120.378 93.5494 122.861 96.5565 125.326 99.5725L132.667 108.665L139.894 117.855C142.279 120.933 144.656 124.02 146.979 127.16C144.443 124.197 141.969 121.19 139.495 118.174L132.153 109.082L124.927 99.8919C122.541 96.8049 120.165 93.718 117.842 90.5867Z" fill="#CAEAE9"/>
<path d="M110.27 81.4319C111.529 82.5409 112.628 83.7741 113.692 85.0428C114.739 86.3204 115.749 87.6334 116.601 89.0796C115.341 87.9706 114.242 86.7374 113.178 85.4687C112.132 84.1911 111.121 82.878 110.27 81.4319Z" fill="#CAEAE9"/>
<path d="M89.9287 56.9753C91.3031 58.4124 92.6154 59.8938 93.9277 61.3841C95.24 62.8745 96.4991 64.4002 97.7848 65.8994C99.0351 67.4429 100.303 68.9598 101.527 70.5211C102.75 72.0824 103.974 73.6436 105.127 75.2493C103.752 73.8122 102.44 72.3308 101.128 70.8405C99.8242 69.3502 98.5563 67.8244 97.2706 66.3163C96.0292 64.7728 94.7523 63.2559 93.5287 61.6946C92.3051 60.1511 91.0903 58.5898 89.9287 56.9753Z" fill="#CAEAE9"/>
<path d="M54.1592 13.9802C56.9079 17.4841 59.7808 20.8815 62.7336 24.208C65.6863 27.5345 68.6744 30.8343 71.6715 34.1253C74.633 37.4518 77.6035 40.7783 80.4143 44.2378C83.2251 47.6973 85.9207 51.2633 88.3059 55.0244C85.699 51.4141 82.9148 47.9457 80.0242 44.566C77.1335 41.1863 74.1719 37.8687 71.1749 34.5688C68.2222 31.2424 65.2163 27.9425 62.3434 24.5362C59.4705 21.1388 56.6863 17.6526 54.1592 13.9802Z" fill="#CAEAE9"/>
<path d="M43.6875 1.39307C44.7249 2.22691 45.6028 3.18494 46.4363 4.17846C47.2609 5.18085 48.0501 6.22759 48.6796 7.38965C47.6422 6.5558 46.7643 5.59777 45.9308 4.60425C45.1062 3.60187 44.3171 2.55513 43.6875 1.39307Z" fill="#CAEAE9"/>
<path d="M91.4541 113.863C92.7309 115.229 93.9457 116.631 95.1516 118.041C96.3575 119.452 97.5191 120.898 98.7073 122.326C99.8511 123.789 101.022 125.226 102.148 126.708C103.274 128.189 104.391 129.67 105.446 131.205C104.169 129.848 102.955 128.446 101.749 127.027C100.543 125.617 99.3723 124.162 98.1841 122.734C97.0403 121.27 95.8699 119.824 94.7437 118.343C93.6354 116.879 92.5181 115.389 91.4541 113.863Z" fill="#CAEAE9"/>
<path d="M1.72852 116.781C2.66841 117.668 3.5551 118.609 4.43293 119.549C5.31962 120.489 6.16199 121.465 7.00434 122.432C7.83784 123.417 8.67133 124.401 9.46049 125.422C10.2585 126.433 11.0477 127.453 11.7748 128.526C10.8349 127.639 9.94817 126.699 9.07034 125.759C8.18365 124.818 7.34129 123.843 6.49893 122.876C5.66544 121.891 4.84081 120.906 4.04279 119.886C3.25363 118.866 2.46447 117.846 1.72852 116.781Z" fill="#CAEAE9"/>
<path d="M1.62305 102.535C3.46737 104.54 5.2585 106.589 7.04076 108.638C8.82302 110.696 10.5609 112.79 12.3255 114.857C14.0457 116.959 15.7924 119.052 17.4949 121.173C19.1974 123.302 20.891 125.43 22.5225 127.604C20.6781 125.599 18.887 123.55 17.0959 121.501C15.3136 119.443 13.5757 117.349 11.8112 115.282C10.091 113.171 8.3442 111.087 6.64175 108.967C4.94816 106.847 3.25457 104.709 1.62305 102.535Z" fill="#CAEAE9"/>
<path d="M31.1758 124.481C31.9029 124.942 32.4792 125.536 33.0113 126.166C33.5344 126.804 34.0132 127.478 34.3324 128.276C33.6053 127.815 33.029 127.221 32.497 126.591C31.9827 125.944 31.5039 125.279 31.1758 124.481Z" fill="#CAEAE9"/>
<path d="M16.0938 106.341C17.2819 107.556 18.4169 108.825 19.543 110.093C20.678 111.362 21.7686 112.657 22.8593 113.961C23.941 115.274 25.014 116.578 26.0603 117.927C27.1066 119.266 28.144 120.615 29.1194 122.008C27.9312 120.792 26.7962 119.524 25.6701 118.255C24.5351 116.986 23.4445 115.691 22.3538 114.387C21.2721 113.074 20.1992 111.77 19.1529 110.422C18.1066 109.082 17.078 107.734 16.0938 106.341Z" fill="#CAEAE9"/>
<path d="M1.6582 88.9812C2.85524 90.2053 3.99021 91.4738 5.12519 92.7423C6.26016 94.0108 7.35966 95.3148 8.4503 96.6188C9.53207 97.9316 10.6138 99.2445 11.6601 100.593C12.7064 101.932 13.7439 103.289 14.7281 104.682C13.5311 103.458 12.3961 102.189 11.2611 100.921C10.1262 99.6525 9.02665 98.3485 7.93601 97.0446C6.85424 95.7317 5.77248 94.4189 4.72617 93.0705C3.67987 91.7311 2.63357 90.3828 1.6582 88.9812Z" fill="#CAEAE9"/>
<path d="M43.3066 123.736C44.2288 124.445 45.0002 125.279 45.7362 126.149C46.4544 127.027 47.1283 127.941 47.6514 128.987C46.7293 128.278 45.9579 127.444 45.2219 126.574C44.5125 125.696 43.8298 124.783 43.3066 123.736Z" fill="#CAEAE9"/>
<path d="M29.1016 106.571C30.2809 107.777 31.3981 109.037 32.5153 110.297C33.6326 111.556 34.7144 112.843 35.7961 114.138C36.8602 115.442 37.9331 116.737 38.9528 118.076C39.9813 119.407 41.0099 120.746 41.9764 122.13C40.7971 120.924 39.6799 119.664 38.5626 118.404C37.4454 117.145 36.3636 115.859 35.2818 114.563C34.2178 113.26 33.1538 111.964 32.1252 110.625C31.0966 109.294 30.0681 107.955 29.1016 106.571Z" fill="#CAEAE9"/>
<path d="M0.700195 72.2515C3.00561 74.8239 5.24895 77.4318 7.4923 80.0574L14.1425 87.9786L20.6775 95.9975C22.8322 98.6852 24.9868 101.382 27.0706 104.132C24.7652 101.568 22.5218 98.9513 20.2785 96.3257L13.6282 88.4044L7.09328 80.3856C4.93861 77.689 2.7928 74.9924 0.700195 72.2515Z" fill="#CAEAE9"/>
<path d="M141.703 90.9587L150.127 101.311L158.586 111.628L167.063 121.927C169.882 125.369 172.72 128.793 175.504 132.27C172.507 128.979 169.581 125.626 166.672 122.255C163.764 118.884 160.918 115.469 158.072 112.045C155.27 108.594 152.459 105.134 149.728 101.621C146.997 98.1175 144.301 94.5692 141.703 90.9587Z" fill="#CAEAE9"/>
<path d="M110.172 53.064C112.779 55.9824 115.324 58.9363 117.86 61.908L125.414 70.8673L132.845 79.9242C135.301 82.958 137.748 86.0006 140.142 89.0964C137.535 86.178 134.991 83.2241 132.455 80.2524L124.9 71.2931L117.469 62.2362C115.013 59.1936 112.566 56.1509 110.172 53.064Z" fill="#CAEAE9"/>
<path d="M130.895 65.1721L138.148 73.4307L145.348 81.7247L159.668 98.3926L173.873 115.158L180.931 123.576L187.936 132.039L180.683 123.789L173.483 115.486L159.162 98.8184L144.958 82.0529L137.899 73.6347L130.895 65.1721Z" fill="#CAEAE9"/>
<path d="M124.262 44.5486C125.946 46.4203 127.702 48.2476 129.475 50.0395L134.858 55.3796C135.727 56.4441 135.7 57.8723 136.498 58.7416L139.185 61.4028L144.576 66.7252L144.585 66.734L144.594 66.7429C148.025 70.9831 151.404 75.2676 154.915 79.4368C158.417 83.6149 162.07 87.6599 165.901 91.5186L165.91 91.5275L165.919 91.5363C171.416 98.3578 177.029 105.073 182.642 111.797L199.631 131.844C193.788 125.316 187.98 118.76 182.278 112.107C176.55 105.481 170.964 98.7304 165.422 91.9444L165.44 91.971C161.556 88.1211 157.93 84.0229 154.436 79.8271C150.942 75.6313 147.564 71.3468 144.177 67.0711L144.195 67.0889L138.874 61.6955L136.214 58.99C135.31 57.9255 135.363 56.4973 134.601 55.5837L129.351 50.146C127.613 48.3186 125.911 46.4646 124.262 44.5486Z" fill="#CAEAE9"/>
<path d="M66.8477 1.02905L71.7511 6.65295L76.5925 12.3301L86.1954 23.7375L95.6831 35.2515L100.383 41.035L105.029 46.8718L100.134 41.2479L95.284 35.5797L85.6811 24.1633L76.2023 12.6494L71.5028 6.86584L66.8477 1.02905Z" fill="#CAEAE9"/>
<path d="M76.7881 0.940674L83.261 8.47184L89.6895 16.0474L102.449 31.2605L115.084 46.5801L121.362 54.2709L127.587 62.0061L121.114 54.4838L114.694 46.9083L101.935 31.6863L89.2994 16.3756L83.0127 8.67587L76.7881 0.940674Z" fill="#CAEAE9"/>
<path d="M54.8154 0.612549C57.9809 4.17853 61.0489 7.82434 64.0991 11.479L73.1701 22.5229C76.1582 26.2308 79.1819 29.9121 82.2055 33.5845C85.2291 37.2658 88.2883 40.9116 91.374 44.5486C88.0843 41.0979 84.9277 37.532 81.8154 33.9216C78.7031 30.3113 75.6883 26.63 72.6558 22.9487L63.709 11.8072L54.8154 0.612549Z" fill="#CAEAE9"/>
<path d="M88.6162 1.42798C89.2724 1.80876 89.7778 2.32237 90.2477 2.86254C90.6999 3.42043 91.1078 4.00488 91.365 4.72217C90.7088 4.34139 90.2034 3.82778 89.7334 3.2876C89.2812 2.72971 88.8734 2.14526 88.6162 1.42798Z" fill="#CAEAE9"/>
<path d="M118.285 37.3625C119.482 38.3917 120.529 39.5538 121.53 40.7426C122.524 41.9492 123.472 43.1824 124.262 44.5486C123.064 43.5195 122.018 42.3573 121.016 41.1685C120.032 39.9619 119.074 38.7288 118.285 37.3625Z" fill="#CAEAE9"/>
<path d="M92.8994 6.8479C95.0009 9.15427 97.0403 11.5139 99.0797 13.8823C101.119 16.2419 103.105 18.6459 105.127 21.0232C107.104 23.4361 109.099 25.8311 111.05 28.2617C113.001 30.6923 114.952 33.1317 116.84 35.6155C114.739 33.3091 112.699 30.9495 110.66 28.581C108.621 26.2126 106.634 23.8175 104.613 21.4402C102.635 19.0273 100.64 16.6322 98.6896 14.1928C96.7388 11.78 94.7881 9.34056 92.8994 6.8479Z" fill="#CAEAE9"/>
<path d="M161.477 129.582C162.009 129.803 162.39 130.148 162.727 130.528C163.055 130.926 163.339 131.351 163.472 131.908C162.94 131.687 162.558 131.342 162.221 130.962C161.893 130.564 161.61 130.139 161.477 129.582Z" fill="#CAEAE9"/>
<path d="M129.98 90.9766L137.349 100.051L144.735 109.099L152.13 118.147C154.595 121.163 157.06 124.179 159.481 127.24C156.847 124.365 154.285 121.429 151.74 118.475C149.195 115.521 146.712 112.523 144.221 109.516C141.774 106.482 139.326 103.449 136.95 100.362C134.574 97.2835 132.233 94.1611 129.98 90.9766Z" fill="#CAEAE9"/>
<path d="M91.3564 44.5486C93.0234 46.2872 94.6727 48.0436 96.3042 49.8265C97.9091 51.6184 99.4963 53.4368 101.075 55.2641C104.214 58.9276 107.228 62.6887 110.261 66.4409L119.234 77.7774C120.724 79.6668 122.24 81.5473 123.756 83.4101C125.264 85.2907 126.789 87.1535 128.341 88.9985C126.709 87.2244 125.104 85.4326 123.508 83.6142C121.939 81.7868 120.378 79.9418 118.835 78.0878C115.758 74.38 112.77 70.5923 109.738 66.849C106.749 63.0701 103.726 59.3179 100.684 55.5835C99.1594 53.7207 97.6165 51.8667 96.0648 50.0305C94.5219 48.1855 92.9525 46.3582 91.3564 44.5486Z" fill="#CAEAE9"/>
<path d="M141.047 37.6997L147.351 45.089L153.549 52.5758C157.664 57.5789 161.698 62.644 165.759 67.6914L189.833 98.1887L183.582 90.7551L177.419 83.2417C173.332 78.2209 169.297 73.1469 165.245 68.0995L141.047 37.6997Z" fill="#CAEAE9"/>
<path d="M112.54 2.13818C114.97 4.76387 117.31 7.48714 119.607 10.2281C121.912 12.9692 124.138 15.7723 126.372 18.5665C128.571 21.3962 130.779 24.2082 132.943 27.0556C135.106 29.9031 137.27 32.7594 139.389 35.6423C137.048 32.9279 134.787 30.1515 132.535 27.375L125.84 18.9745L119.199 10.5475L112.54 2.13818Z" fill="#CAEAE9"/>
<path d="M224.973 124.029C226.436 125.36 227.739 126.814 229.007 128.305C230.257 129.804 231.472 131.339 232.536 133.006C231.073 131.676 229.77 130.221 228.502 128.731C227.251 127.231 226.037 125.697 224.973 124.029Z" fill="#CAEAE9"/>
<path d="M208.418 104.363C209.783 105.773 211.105 107.237 212.408 108.71C213.712 110.173 214.98 111.681 216.265 113.163C217.507 114.68 218.775 116.179 219.998 117.722C221.222 119.257 222.437 120.8 223.598 122.397C222.224 120.987 220.912 119.523 219.608 118.059C218.305 116.596 217.037 115.088 215.76 113.606C214.518 112.089 213.25 110.59 212.027 109.047C210.794 107.503 209.58 105.96 208.418 104.363Z" fill="#CAEAE9"/>
<path d="M174.715 64.1431C177.455 67.2035 180.141 70.3082 182.819 73.4219L190.791 82.816L198.638 92.3078C201.236 95.4924 203.816 98.677 206.352 101.915C203.612 98.8544 200.926 95.7496 198.248 92.636L190.276 83.2418L182.429 73.7501C179.831 70.5655 177.251 67.3809 174.715 64.1431Z" fill="#CAEAE9"/>
<path d="M152.857 37.7539C154.613 39.661 156.316 41.6125 158.009 43.5728C159.703 45.5332 161.352 47.529 163.019 49.5071C164.65 51.5206 166.3 53.5076 167.914 55.5389C169.518 57.5702 171.123 59.6015 172.666 61.686C170.911 59.7789 169.208 57.8274 167.515 55.8671C165.821 53.9068 164.172 51.9109 162.505 49.9329C160.873 47.9193 159.224 45.9323 157.61 43.901C155.996 41.8697 154.4 39.8296 152.857 37.7539Z" fill="#CAEAE9"/>
<path d="M130.895 11.532C132.322 13.7673 133.918 15.8785 135.603 17.9009C137.296 19.9234 139.043 21.9015 140.861 23.8263C142.634 25.7867 144.47 27.6938 146.234 29.6808C147.999 31.6589 149.728 33.6813 151.262 35.8457C149.515 33.8499 147.697 31.9339 145.862 30.0267L140.382 24.2787C138.609 22.3095 136.835 20.3314 135.213 18.2203C133.59 16.1091 132.083 13.9004 130.895 11.532Z" fill="#CAEAE9"/>
<path d="M236.42 124.296C237.856 125.573 239.142 126.983 240.383 128.429C241.616 129.884 242.804 131.374 243.842 132.997C242.405 131.72 241.119 130.309 239.878 128.864C238.654 127.4 237.457 125.91 236.42 124.296Z" fill="#CAEAE9"/>
<path d="M218.987 103.848C220.371 105.259 221.701 106.713 223.022 108.177C224.343 109.641 225.62 111.14 226.914 112.621C228.174 114.138 229.45 115.637 230.692 117.172C231.933 118.706 233.157 120.25 234.336 121.838C232.953 120.427 231.623 118.972 230.302 117.509C228.98 116.045 227.704 114.546 226.409 113.065C225.15 111.548 223.864 110.049 222.632 108.514C221.39 106.979 220.158 105.436 218.987 103.848Z" fill="#CAEAE9"/>
<path d="M188.086 67.6289C190.586 70.3522 193.034 73.1199 195.481 75.9053L202.734 84.2971L209.872 92.7865C212.231 95.634 214.58 98.4904 216.877 101.391C214.377 98.6678 211.92 95.9001 209.482 93.1235L202.229 84.7318L195.091 76.2424C192.732 73.386 190.382 70.5297 188.086 67.6289Z" fill="#CAEAE9"/>
<path d="M248.639 124.365C250.102 125.749 251.414 127.266 252.682 128.809C253.932 130.37 255.156 131.958 256.211 133.679C254.748 132.295 253.436 130.778 252.168 129.235C250.909 127.674 249.694 126.086 248.639 124.365Z" fill="#CAEAE9"/>
<path d="M231.339 103.972C232.766 105.338 234.123 106.775 235.462 108.23C236.801 109.676 238.087 111.184 239.381 112.665C240.64 114.182 241.908 115.699 243.123 117.252C244.338 118.804 245.544 120.365 246.688 121.98C245.331 120.543 244.027 119.061 242.733 117.58L238.876 113.1L235.081 108.567C233.822 107.05 232.563 105.533 231.339 103.972Z" fill="#CAEAE9"/>
<path d="M222.321 94.4895C223.669 95.5185 224.884 96.6894 226.054 97.8958C227.216 99.1111 228.342 100.371 229.308 101.763C227.952 100.734 226.746 99.5635 225.575 98.3571C224.423 97.133 223.297 95.8822 222.321 94.4895Z" fill="#CAEAE9"/>
<path d="M190.8 99.7227L198.284 107.954L205.812 116.151C208.294 118.91 210.795 121.642 213.242 124.445C215.681 127.239 218.092 130.069 220.389 132.987L205.324 116.603C202.841 113.845 200.341 111.104 197.911 108.3C195.473 105.488 193.079 102.65 190.8 99.7227Z" fill="#CAEAE9"/>
<path d="M168.091 43.5898C169.465 45.0269 170.778 46.5083 172.081 47.9896C173.393 49.4799 174.652 51.0056 175.938 52.5048C177.188 54.0394 178.456 55.5651 179.68 57.1174C180.904 58.6698 182.118 60.2399 183.28 61.8455C181.906 60.4084 180.593 58.927 179.29 57.4457C177.986 55.9554 176.718 54.4385 175.433 52.9305C174.191 51.3871 172.914 49.8702 171.691 48.3179C170.467 46.7655 169.252 45.2043 168.091 43.5898Z" fill="#CAEAE9"/>
<path d="M133.537 2.35962L141.934 12.0371L150.278 21.7588C153.027 25.032 155.784 28.2873 158.498 31.5959C161.202 34.9045 163.88 38.2309 166.469 41.6282L158.107 31.9241L149.781 22.1935C147.042 18.9204 144.266 15.665 141.553 12.3652C138.831 9.06552 136.144 5.74805 133.537 2.35962Z" fill="#CAEAE9"/>
<path d="M122.55 2.29688C123.587 3.1395 124.483 4.11517 125.325 5.11745C126.159 6.13747 126.957 7.1841 127.595 8.36377C126.549 7.52115 125.662 6.54548 124.82 5.5432C123.977 4.52318 123.188 3.47655 122.55 2.29688Z" fill="#CAEAE9"/>
<path d="M197.84 64.4006C199.932 66.7158 201.981 69.0842 204.011 71.4526C206.042 73.821 208.028 76.2337 210.041 78.6199C212.009 81.0415 214.004 83.4454 215.955 85.8847C217.906 88.3241 219.848 90.7723 221.727 93.2649C219.626 90.9497 217.587 88.5813 215.556 86.2129C213.526 83.8445 211.539 81.4318 209.527 79.0457C207.558 76.624 205.563 74.2202 203.612 71.7808C201.662 69.3414 199.72 66.9021 197.84 64.4006Z" fill="#CAEAE9"/>
<path d="M180.665 43.6523C181.968 45.0184 183.228 46.4287 184.469 47.848C185.71 49.2672 186.907 50.722 188.131 52.1589C189.31 53.6314 190.516 55.0773 191.678 56.5675C192.839 58.0577 193.992 59.5479 195.092 61.0913C193.779 59.7253 192.529 58.3149 191.288 56.8957C190.046 55.4764 188.84 54.0217 187.626 52.5847C186.446 51.1122 185.24 49.6664 184.079 48.1762C182.917 46.686 181.765 45.1958 180.665 43.6523Z" fill="#CAEAE9"/>
<path d="M146.048 2.08374C148.894 5.29484 151.687 8.54142 154.48 11.8057L162.771 21.6431L170.946 31.578C173.651 34.9044 176.346 38.2397 178.98 41.6282C176.133 38.4259 173.332 35.1705 170.547 31.9062L162.257 22.0689L154.081 12.134C151.386 8.79867 148.69 5.46338 146.048 2.08374Z" fill="#CAEAE9"/>
<path d="M130.104 37.4778L136.542 44.9646L142.926 52.4957L155.615 67.6201L168.179 82.8509L174.422 90.4973L180.611 98.197L174.173 90.7102L167.789 83.1791L155.101 68.0459L142.536 52.8239L136.294 45.1686L130.104 37.4778Z" fill="#CAEAE9"/>
<path d="M100.126 1.69458L107.592 9.96183C110.075 12.7205 112.513 15.5147 114.96 18.3178C117.363 21.1475 119.766 23.9771 122.081 26.8955C124.386 29.805 126.638 32.7677 128.731 35.8369C126.408 32.9363 124.067 30.0623 121.682 27.2237C119.296 24.3852 116.902 21.5555 114.455 18.7613L107.202 10.3078C104.808 7.46037 102.423 4.62183 100.126 1.69458Z" fill="#CAEAE9"/>
<path d="M273.537 124.064C275.027 125.439 276.357 126.948 277.651 128.482C278.928 130.035 280.17 131.614 281.251 133.326C279.762 131.951 278.432 130.443 277.137 128.908C275.86 127.356 274.619 125.777 273.537 124.064Z" fill="#CAEAE9"/>
<path d="M246.227 91.2256C248.497 93.736 250.704 96.2908 252.903 98.8544C255.111 101.418 257.266 104.017 259.447 106.599L265.876 114.44C267.995 117.075 270.105 119.709 272.162 122.397C269.892 119.887 267.685 117.332 265.486 114.768L258.942 107.024C256.805 104.407 254.632 101.817 252.513 99.1826C250.394 96.5569 248.284 93.9134 246.227 91.2256Z" fill="#CAEAE9"/>
<path d="M266.94 103.342C269.157 105.791 271.312 108.283 273.458 110.776C275.603 113.277 277.714 115.805 279.842 118.325L286.102 125.971C288.168 128.535 290.225 131.116 292.229 133.733C290.012 131.285 287.858 128.801 285.712 126.299L279.328 118.75C277.244 116.196 275.134 113.668 273.068 111.104C271.002 108.54 268.944 105.959 266.94 103.342Z" fill="#CAEAE9"/>
<path d="M275.293 100.726C277.74 103.449 280.125 106.216 282.502 108.993L289.578 117.375L296.538 125.855C298.835 128.703 301.122 131.55 303.357 134.451C300.91 131.728 298.524 128.96 296.148 126.184L289.072 117.801L282.112 109.321C279.815 106.474 277.527 103.626 275.293 100.726Z" fill="#CAEAE9"/>
<path d="M260.308 82.7185C261.576 84.0313 262.799 85.3974 264.005 86.7634C265.22 88.1294 266.39 89.5221 267.561 90.9236C268.722 92.334 269.884 93.7355 271.001 95.1814C272.127 96.6184 273.245 98.0642 274.3 99.5544C273.023 98.2416 271.808 96.8756 270.602 95.5096C269.387 94.1435 268.217 92.7509 267.047 91.3494C265.885 89.939 264.723 88.5375 263.606 87.0916C262.489 85.6546 261.372 84.2087 260.308 82.7185Z" fill="#CAEAE9"/>
<path d="M206.601 43.5981C209.553 46.9868 212.435 50.4376 215.299 53.8973L223.856 64.3117C226.675 67.8068 229.548 71.2665 232.412 74.7261C235.276 78.1858 238.176 81.6188 241.084 85.043C237.972 81.7962 234.975 78.443 232.022 75.0543C229.069 71.6568 226.205 68.1971 223.341 64.7375C220.522 61.2424 217.684 57.7472 214.909 54.2255C212.125 50.686 209.349 47.1554 206.601 43.5981Z" fill="#CAEAE9"/>
<path d="M190.107 23.7729C191.455 25.1745 192.741 26.6294 194.027 28.0842C195.312 29.539 196.545 31.0382 197.804 32.5107C199.028 34.0188 200.269 35.5091 201.466 37.0349C202.663 38.5606 203.86 40.0953 204.986 41.6743C203.638 40.2727 202.353 38.8179 201.067 37.3631C199.79 35.9083 198.549 34.4091 197.29 32.9365C196.075 31.4285 194.825 29.9382 193.628 28.4124C192.439 26.8777 191.242 25.352 190.107 23.7729Z" fill="#CAEAE9"/>
<path d="M196.571 19.542L200.73 24.616L204.933 29.6456C207.735 32.9987 210.554 36.3341 213.392 39.6606L230.461 59.5663C236.127 66.2192 241.811 72.8722 247.361 79.6228C250.137 83.0025 252.885 86.3999 255.616 89.8151L259.66 94.9778L263.65 100.176L259.527 95.0754L255.359 90.0103C252.575 86.6394 249.782 83.2775 246.962 79.9421C241.323 73.2625 235.657 66.6184 229.947 59.9921C224.281 53.3391 218.579 46.7039 212.993 39.9799C210.2 36.618 207.424 33.2382 204.676 29.8408L200.597 24.7047L196.571 19.542Z" fill="#CAEAE9"/>
<path d="M182.048 2.09229C183.245 3.31659 184.38 4.58525 185.515 5.86279C186.65 7.13145 187.749 8.4356 188.84 9.74862C189.922 11.0616 191.003 12.3835 192.05 13.7321C193.096 15.0806 194.142 16.4291 195.127 17.8308C193.93 16.6065 192.795 15.3378 191.66 14.0603C190.525 12.7916 189.425 11.4875 188.335 10.1745C187.253 8.86145 186.171 7.53955 185.125 6.19104C184.078 4.84253 183.032 3.49403 182.048 2.09229Z" fill="#CAEAE9"/>
<path d="M211.149 64.5156C212.559 65.9881 213.916 67.505 215.281 69.013L219.351 73.5547L223.395 78.1141C224.742 79.6399 226.099 81.1567 227.42 82.7002C225.895 81.343 224.45 79.9149 223.022 78.4601C221.595 77.0053 220.229 75.4973 218.855 73.9893C217.525 72.4459 216.186 70.9201 214.9 69.3323C213.606 67.7711 212.346 66.1655 211.149 64.5156Z" fill="#CAEAE9"/>
<path d="M194.249 43.8914C195.561 45.2752 196.812 46.7033 198.062 48.1493C199.312 49.5863 200.509 51.0588 201.733 52.5136C202.921 54.0039 204.127 55.4764 205.288 56.9755C206.45 58.4835 207.603 59.9915 208.702 61.5527C207.39 60.1689 206.14 58.7408 204.889 57.2948C203.648 55.8578 202.442 54.3853 201.218 52.9305C200.039 51.4402 198.824 49.9677 197.663 48.4686C196.501 46.9606 195.349 45.4437 194.249 43.8914Z" fill="#CAEAE9"/>
<path d="M174.439 19.8613C176.044 21.6 177.596 23.3918 179.148 25.1837C180.691 26.9755 182.189 28.8117 183.714 30.6213C185.195 32.4664 186.702 34.2938 188.166 36.1566C189.629 38.0194 191.083 39.8911 192.475 41.8071C190.861 40.0685 189.309 38.2766 187.767 36.4759C186.224 34.6841 184.725 32.8479 183.2 31.0383C181.719 29.1932 180.212 27.3658 178.749 25.503C177.295 23.6491 175.84 21.7774 174.439 19.8613Z" fill="#CAEAE9"/>
<path d="M159.517 2.35962C160.696 3.53051 161.822 4.74574 162.93 5.96098C164.048 7.17622 165.129 8.42694 166.211 9.67766C167.284 10.9372 168.348 12.2057 169.377 13.5008C170.414 14.7958 171.434 16.0909 172.409 17.4392C171.23 16.2683 170.104 15.0531 168.995 13.8378C167.878 12.6226 166.796 11.3719 165.715 10.1212C164.651 8.86158 163.578 7.59312 162.549 6.29805C161.512 5.01185 160.483 3.70791 159.517 2.35962Z" fill="#CAEAE9"/>
<path d="M207.62 19.666C209.314 21.5732 210.954 23.5159 212.603 25.4497L217.525 31.2778C219.147 33.2382 220.805 35.1632 222.455 37.097L227.42 42.8984C225.567 41.142 223.802 39.3058 222.073 37.4429C220.344 35.5712 218.686 33.6463 217.019 31.7125C215.396 29.752 213.774 27.7916 212.213 25.7779C210.635 23.7732 209.092 21.7418 207.62 19.666Z" fill="#CAEAE9"/>
<path d="M193.734 2.35962C194.843 3.52163 195.889 4.72799 196.935 5.93435C197.982 7.14071 198.993 8.38255 200.003 9.62439C200.996 10.8751 201.998 12.1258 202.947 13.412C203.905 14.6893 204.862 15.9755 205.749 17.3149C204.641 16.1529 203.586 14.9466 202.548 13.7402C201.502 12.5338 200.491 11.292 199.489 10.0502C198.496 8.79945 197.503 7.54874 196.545 6.26255C195.579 4.98523 194.63 3.69903 193.734 2.35962Z" fill="#CAEAE9"/>
<path d="M228.954 45.02C231.676 48.0713 234.336 51.1758 236.988 54.2804L244.888 63.656L252.673 73.1292C255.245 76.3047 257.807 79.4891 260.317 82.7178C257.594 79.6665 254.934 76.562 252.283 73.4574L244.383 64.0818L236.606 54.6086C234.026 51.4331 231.463 48.2487 228.954 45.02Z" fill="#CAEAE9"/>
<path d="M172.135 2.16455C173.279 3.32649 174.369 4.54165 175.451 5.75681C176.542 6.97196 177.588 8.21373 178.634 9.46437C179.672 10.7239 180.7 11.9745 181.702 13.2695C182.704 14.5556 183.697 15.8506 184.628 17.1899C183.485 16.028 182.394 14.8128 181.312 13.5977C180.221 12.3825 179.175 11.1408 178.129 9.89012C177.091 8.63061 176.063 7.37998 175.061 6.08499C174.068 4.79887 173.075 3.50389 172.135 2.16455Z" fill="#CAEAE9"/>
<path d="M261.903 124.907C263.358 126.167 264.661 127.55 265.92 128.97C267.17 130.398 268.376 131.87 269.44 133.467C267.986 132.216 266.683 130.832 265.424 129.404C264.173 127.967 262.967 126.504 261.903 124.907Z" fill="#CAEAE9"/>
<path d="M244.87 104.272C246.227 105.709 247.53 107.191 248.825 108.681C250.119 110.172 251.37 111.698 252.638 113.206C253.87 114.749 255.12 116.266 256.335 117.828C257.55 119.389 258.747 120.951 259.9 122.565C258.543 121.128 257.24 119.646 255.945 118.156C254.65 116.666 253.4 115.14 252.123 113.632C250.891 112.088 249.632 110.571 248.426 109.01C247.22 107.448 246.014 105.878 244.87 104.272Z" fill="#CAEAE9"/>
<path d="M227.411 82.7185C228.812 84.2265 230.16 85.7878 231.499 87.3579C232.838 88.9192 234.132 90.5248 235.453 92.1127C236.73 93.7272 238.034 95.3239 239.284 96.965C240.543 98.5973 241.784 100.238 242.973 101.924C241.572 100.407 240.224 98.8545 238.885 97.2844C237.546 95.7142 236.251 94.1175 234.939 92.5296C233.662 90.9151 232.359 89.3184 231.109 87.6862C229.85 86.0451 228.599 84.404 227.411 82.7185Z" fill="#CAEAE9"/>
<path d="M311.062 117.527C312.455 118.84 313.696 120.277 314.893 121.749C316.081 123.23 317.225 124.747 318.209 126.388C316.808 125.075 315.576 123.639 314.379 122.166C313.191 120.676 312.056 119.168 311.062 117.527Z" fill="#CAEAE9"/>
<path d="M297.088 100.681C298.196 101.799 299.243 102.952 300.28 104.123C301.326 105.285 302.328 106.483 303.339 107.68C304.332 108.887 305.325 110.093 306.274 111.335C307.232 112.568 308.18 113.81 309.076 115.105C307.968 113.987 306.921 112.834 305.884 111.663C304.838 110.501 303.836 109.303 302.825 108.106C301.832 106.9 300.839 105.693 299.89 104.451C298.932 103.218 297.983 101.968 297.088 100.681Z" fill="#CAEAE9"/>
<path d="M279.105 78.3542C280.551 79.9332 281.934 81.5565 283.308 83.1887C284.683 84.8209 286.013 86.4796 287.369 88.1296C288.682 89.8061 290.021 91.4649 291.315 93.168C292.61 94.8623 293.896 96.5654 295.119 98.3218C293.674 96.7428 292.291 95.1284 290.916 93.4962C289.542 91.8641 288.203 90.1964 286.855 88.5553C285.543 86.8699 284.204 85.2112 282.909 83.5169C281.615 81.8049 280.329 80.1017 279.105 78.3542Z" fill="#CAEAE9"/>
<path d="M246.227 37.585C248.958 40.7607 251.644 43.9807 254.313 47.2008L262.258 56.9319L270.088 66.7606C272.677 70.0517 275.257 73.3516 277.775 76.6958C275.035 73.5201 272.357 70.3 269.689 67.08L261.744 57.3488L253.923 47.5201C251.325 44.2291 248.745 40.9292 246.227 37.585Z" fill="#CAEAE9"/>
<path d="M308.233 101.028C309.164 101.941 310.051 102.891 310.92 103.857C311.798 104.815 312.631 105.809 313.465 106.802C314.29 107.805 315.114 108.807 315.894 109.845C316.684 110.874 317.464 111.912 318.182 113.003C317.242 112.089 316.364 111.14 315.495 110.173C314.618 109.215 313.784 108.222 312.951 107.228C312.126 106.226 311.301 105.223 310.521 104.186C309.741 103.148 308.96 102.11 308.233 101.028Z" fill="#CAEAE9"/>
<path d="M290.136 78.5142C291.59 80.1108 292.982 81.7428 294.365 83.3838C295.749 85.0248 297.087 86.7012 298.453 88.3599C299.774 90.0541 301.122 91.7217 302.416 93.4336C303.72 95.1455 305.014 96.8574 306.247 98.6226C304.802 97.0348 303.401 95.3939 302.017 93.7529C300.634 92.1119 299.295 90.4266 297.93 88.7679C296.609 87.0738 295.261 85.3973 293.957 83.6854C292.663 81.9912 291.368 80.2704 290.136 78.5142Z" fill="#CAEAE9"/>
<path d="M266.94 49.6936C268.847 51.8403 270.7 54.0401 272.535 56.24C274.38 58.4399 276.171 60.6841 277.998 62.9018C279.78 65.1549 281.58 67.3902 283.335 69.6611C285.091 71.9319 286.847 74.2028 288.531 76.5269C286.625 74.3802 284.772 72.1803 282.936 69.9804C281.092 67.7805 279.301 65.5363 277.474 63.3187C275.692 61.0656 273.892 58.8302 272.136 56.5594C270.39 54.2974 268.634 52.0177 266.94 49.6936Z" fill="#CAEAE9"/>
<path d="M301.565 78.6562C303.037 80.2174 304.456 81.8141 305.866 83.4285C307.276 85.0429 308.641 86.6839 310.033 88.316C311.381 89.9748 312.756 91.6247 314.086 93.3012C315.416 94.9777 316.737 96.663 317.996 98.4016C316.524 96.8404 315.105 95.2438 313.695 93.6294C312.286 92.015 310.92 90.374 309.528 88.7418C308.18 87.0742 306.806 85.4332 305.485 83.7567C304.146 82.0802 302.825 80.3948 301.565 78.6562Z" fill="#CAEAE9"/>
<path d="M278.84 51.344C280.666 53.322 282.44 55.3533 284.195 57.3845C285.96 59.4158 287.68 61.4914 289.418 63.5404C291.121 65.6249 292.841 67.6916 294.526 69.7938C296.201 71.8961 297.877 74.0072 299.491 76.1626C297.664 74.1846 295.891 72.1533 294.126 70.122C292.362 68.0908 290.642 66.0152 288.904 63.9662C287.201 61.8817 285.481 59.815 283.796 57.7127C282.129 55.6105 280.462 53.5083 278.84 51.344Z" fill="#CAEAE9"/>
<path d="M262.161 31.2952C263.527 32.7233 264.839 34.1959 266.142 35.6773C267.446 37.1587 268.705 38.6755 269.982 40.1747C271.223 41.7093 272.482 43.2173 273.706 44.7697C274.93 46.322 276.135 47.8744 277.288 49.48C275.923 48.0518 274.61 46.5793 273.307 45.0979C272.003 43.6165 270.744 42.0996 269.468 40.6005C268.226 39.0658 266.967 37.5578 265.743 36.0055C264.529 34.4531 263.314 32.9008 262.161 31.2952Z" fill="#CAEAE9"/>
<path d="M216.168 1.44556C218.349 3.84952 220.477 6.3067 222.588 8.77276C224.707 11.2299 226.782 13.7315 228.874 16.2064L235.046 23.7465C237.076 26.2747 239.107 28.8117 241.075 31.3931C238.894 28.9891 236.766 26.5319 234.647 24.0659L228.36 16.6233C226.303 14.1129 224.228 11.6203 222.189 9.08323C220.167 6.57282 218.136 4.0358 216.168 1.44556Z" fill="#CAEAE9"/>
<path d="M226.524 1.34814L231.286 6.9011L236.003 12.4895L245.34 23.7285L254.562 35.0739L259.128 40.7777L263.642 46.5347L258.88 40.9906L254.163 35.4021L244.826 24.1543L235.604 12.8089L231.038 7.10512L226.524 1.34814Z" fill="#CAEAE9"/>
<path d="M220.122 19.7358C221.629 21.0399 222.96 22.5126 224.201 24.0651C225.416 25.6265 226.551 27.2766 227.411 29.0686C226.107 27.5605 224.901 26.0168 223.678 24.4732C222.472 22.9207 221.239 21.3859 220.122 19.7358Z" fill="#CAEAE9"/>
<path d="M204.614 2.39453L208.055 6.21785L211.53 9.99682C212.683 11.2654 213.854 12.5161 214.989 13.8024C216.124 15.0887 217.259 16.3838 218.323 17.7322C217.055 16.5612 215.84 15.3637 214.616 14.1484C213.393 12.9419 212.213 11.7 211.043 10.4404C209.89 9.17184 208.746 7.88557 207.664 6.54608C206.592 5.21545 205.545 3.84048 204.614 2.39453Z" fill="#CAEAE9"/>
<path d="M237.263 1.35718C239.417 3.45948 241.457 5.6771 243.434 7.93907C245.42 10.201 247.318 12.534 249.224 14.858L254.802 21.9455L260.317 29.0774C258.277 26.8686 256.327 24.5801 254.403 22.2649C252.478 19.9586 250.616 17.599 248.71 15.2749C246.848 12.9154 244.95 10.5913 243.053 8.26727C241.146 5.94321 239.213 3.64576 237.263 1.35718Z" fill="#CAEAE9"/>
<path d="M314.973 79.0288C315.762 79.5699 316.4 80.244 317.003 80.9447C317.588 81.6632 318.138 82.4083 318.519 83.2864C317.721 82.7453 317.092 82.0712 316.489 81.3705C315.913 80.652 315.363 79.9069 314.973 79.0288Z" fill="#CAEAE9"/>
<path d="M291.688 51.5737C293.558 53.5696 295.385 55.6098 297.194 57.6677C299.003 59.7168 300.776 61.8103 302.567 63.8771C304.323 65.9794 306.096 68.0639 307.825 70.184C309.554 72.304 311.275 74.4329 312.942 76.6062C311.062 74.6103 309.244 72.5701 307.435 70.5122C305.626 68.4631 303.853 66.3786 302.062 64.3029C300.315 62.2006 298.542 60.116 296.804 57.996C295.075 55.8759 293.354 53.747 291.688 51.5737Z" fill="#CAEAE9"/>
<path d="M249.782 0.940674L254.934 6.91055L260.024 12.9248L270.141 25.0242L280.134 37.2123L285.09 43.3508L289.985 49.5247L284.833 43.5548L279.735 37.5406L269.626 25.4411L259.633 13.2441L254.677 7.11458L249.782 0.940674Z" fill="#CAEAE9"/>
<path d="M286.918 100.539C289.374 103.28 291.768 106.066 294.162 108.86L301.265 117.295L308.252 125.829C310.557 128.694 312.863 131.559 315.097 134.477C312.641 131.736 310.247 128.951 307.853 126.157L300.75 117.721L293.763 109.188C291.458 106.323 289.161 103.458 286.918 100.539Z" fill="#CAEAE9"/>
<path d="M268.571 78.5491C270.096 80.1547 271.559 81.8135 273.014 83.4812C274.477 85.14 275.887 86.8431 277.323 88.5286C278.724 90.2406 280.143 91.9349 281.517 93.6735C282.891 95.4033 284.257 97.142 285.569 98.9338C284.044 97.3282 282.581 95.6694 281.127 94.0018C279.673 92.3341 278.254 90.6398 276.818 88.9543C275.425 87.2423 273.998 85.548 272.623 83.8094C271.249 82.0796 269.884 80.3409 268.571 78.5491Z" fill="#CAEAE9"/>
<path d="M227.411 29.0686C229.025 31.0734 230.648 33.0604 232.288 35.0386L237.209 40.9731C240.508 44.9117 243.815 48.8414 247.158 52.7445L257.098 64.5248L262.019 70.4593L266.843 76.4736L256.708 64.853L246.652 53.1703C243.345 49.2317 240.038 45.302 236.819 41.2924C235.214 39.2877 233.618 37.2651 232.04 35.2426C230.479 33.1935 228.936 31.1355 227.411 29.0686Z" fill="#CAEAE9"/>
<path d="M316.267 51.8215C316.781 51.9718 317.153 52.2722 317.499 52.608C317.827 52.9526 318.11 53.3325 318.252 53.8539C317.729 53.6948 317.357 53.4032 317.02 53.0675C316.701 52.7228 316.417 52.3429 316.267 51.8215Z" fill="#CAEAE9"/>
<path d="M294.197 25.2808C295.997 27.2323 297.753 29.2371 299.491 31.2418C301.229 33.2466 302.922 35.2957 304.643 37.3182C306.318 39.3762 308.021 41.4165 309.679 43.4922C311.337 45.5679 312.986 47.6525 314.574 49.7815C312.765 47.83 311.018 45.8252 309.28 43.8204C307.542 41.8157 305.848 39.7665 304.128 37.744C302.452 35.686 300.75 33.6458 299.092 31.5701C297.434 29.4943 295.784 27.4097 294.197 25.2808Z" fill="#CAEAE9"/>
<path d="M308.277 16.7747C309.749 18.1318 311.062 19.622 312.338 21.1388C313.598 22.6733 314.821 24.2345 315.885 25.9287C314.413 24.5716 313.101 23.0814 311.824 21.5646C310.565 20.03 309.35 18.4689 308.277 16.7747Z" fill="#CAEAE9"/>
<path d="M273.998 1.00244C275.355 2.42174 276.658 3.88539 277.953 5.36678C279.247 6.8393 280.498 8.3473 281.774 9.83756C283.007 11.3633 284.266 12.8713 285.481 14.4059C286.696 15.9494 287.901 17.4929 289.045 19.0896C287.689 17.6703 286.385 16.2067 285.082 14.7253C283.787 13.2527 282.537 11.7447 281.26 10.2545C280.028 8.72873 278.768 7.22073 277.554 5.67725C276.348 4.1515 275.142 2.59915 273.998 1.00244Z" fill="#CAEAE9"/>
<path d="M283.885 0.89624C286.323 3.56626 288.664 6.32499 290.978 9.10146C293.301 11.8779 295.554 14.6987 297.85 17.4841C300.102 20.3049 302.39 23.0991 304.678 25.9022C306.965 28.6964 309.28 31.4729 311.603 34.2405C309.067 31.6592 306.655 28.9625 304.288 26.2304C301.92 23.4983 299.632 20.6952 297.336 17.901L290.588 9.4208L283.885 0.89624Z" fill="#CAEAE9"/>
<path d="M261.585 0.60376C262.835 1.86337 264.041 3.16733 265.229 4.48016C266.426 5.78412 267.579 7.13244 268.732 8.47188C269.876 9.8202 271.019 11.1774 272.119 12.5612C273.227 13.945 274.327 15.3288 275.373 16.7747C274.123 15.515 272.926 14.2111 271.729 12.8983C270.532 11.5854 269.379 10.246 268.226 8.90654C267.082 7.54935 265.939 6.20104 264.839 4.80837C263.731 3.43344 262.631 2.04078 261.585 0.60376Z" fill="#CAEAE9"/>
<path d="M294.33 0C295.376 1.04671 296.369 2.13778 297.354 3.22884C298.338 4.31991 299.287 5.44645 300.236 6.573C301.175 7.70842 302.106 8.84383 303.002 10.0147C303.906 11.1768 304.793 12.3565 305.627 13.5718C304.58 12.5251 303.587 11.434 302.603 10.3429C301.619 9.25187 300.67 8.12533 299.721 6.99878C298.79 5.86336 297.85 4.72794 296.955 3.55705C296.05 2.39502 295.164 1.22412 294.33 0Z" fill="#CAEAE9"/>
<path d="M304.358 51.6179C305.768 53.0993 307.116 54.6251 308.464 56.1597C309.812 57.6943 311.106 59.2644 312.436 60.8079C313.722 62.3957 315.025 63.957 316.284 65.5537C317.544 67.1593 318.803 68.7649 320 70.4148C318.59 68.9334 317.233 67.4076 315.894 65.8819C314.547 64.3473 313.252 62.7772 311.922 61.2337C310.636 59.6458 309.333 58.0846 308.074 56.479C306.815 54.8823 305.564 53.2679 304.358 51.6179Z" fill="#CAEAE9"/>
<path d="M275.382 16.7747C277.758 19.4181 280.09 22.1147 282.404 24.8202L289.294 32.9721L296.06 41.2305C298.294 43.9981 300.52 46.7746 302.692 49.6042C300.307 46.9608 297.984 44.2642 295.669 41.5587L288.789 33.3979L282.023 25.1395C279.771 22.3719 277.545 19.5955 275.382 16.7747Z" fill="#CAEAE9"/>
<path d="M306.327 0.336914C307.391 1.40141 308.393 2.51025 309.386 3.61909C310.388 4.72794 311.346 5.87227 312.303 7.01659C313.252 8.16979 314.201 9.32299 315.105 10.5117C316.019 11.6915 316.923 12.8802 317.766 14.1221C316.71 13.0665 315.708 11.9576 314.706 10.8399C313.704 9.73104 312.747 8.58672 311.789 7.44239C310.84 6.28919 309.892 5.13599 308.987 3.94731C308.083 2.75863 307.178 1.56995 306.327 0.336914Z" fill="#CAEAE9"/>
</g>
<path d="M285.372 39.9487C206.492 39.9607 115.436 39.9607 34.605 39.9727C34.5085 39.6606 34.4121 39.3485 34.3379 39.0305C114.338 38.9945 205.037 39.0065 283.294 39.0065C284.897 39.0065 286.492 38.9885 288.087 39.0125C289.193 39.0305 290.536 38.8925 291.381 39.4326C290.179 40.2487 287.442 39.9427 285.372 39.9487Z" fill="white"/>
<path d="M46.3581 47.1675C50.4219 47.1675 53.7162 43.7976 53.7162 39.6406C53.7162 35.4837 50.4219 32.1138 46.3581 32.1138C42.2943 32.1138 39 35.4837 39 39.6406C39 43.7976 42.2943 47.1675 46.3581 47.1675Z" fill="#00EEF4"/>
<path d="M66.3581 47.1675C70.4219 47.1675 73.7162 43.7976 73.7162 39.6406C73.7162 35.4837 70.4219 32.1138 66.3581 32.1138C62.2943 32.1138 59 35.4837 59 39.6406C59 43.7976 62.2943 47.1675 66.3581 47.1675Z" fill="#95EDF0"/>
<path d="M85.3581 47.1675C89.4219 47.1675 92.7162 43.7976 92.7162 39.6406C92.7162 35.4837 89.4219 32.1138 85.3581 32.1138C81.2943 32.1138 78 35.4837 78 39.6406C78 43.7976 81.2943 47.1675 85.3581 47.1675Z" fill="#95EDF0"/>
<path d="M105.467 46.1643C109.53 46.1643 112.825 42.7945 112.825 38.6376C112.825 34.4807 109.53 31.1108 105.467 31.1108C101.403 31.1108 98.1084 34.4807 98.1084 38.6376C98.1084 42.7945 101.403 46.1643 105.467 46.1643Z" fill="#CAEAE9"/>
<path d="M256.358 47.1675C260.422 47.1675 263.716 43.7976 263.716 39.6406C263.716 35.4837 260.422 32.1138 256.358 32.1138C252.294 32.1138 249 35.4837 249 39.6406C249 43.7976 252.294 47.1675 256.358 47.1675Z" fill="#95EDF0"/>
<path d="M277.358 47.1675C281.422 47.1675 284.716 43.7976 284.716 39.6406C284.716 35.4837 281.422 32.1138 277.358 32.1138C273.294 32.1138 270 35.4837 270 39.6406C270 43.7976 273.294 47.1675 277.358 47.1675Z" fill="#00EEF4"/>
<path d="M286.33 59.1508C207.149 59.1627 115.746 59.1627 34.606 59.1747C34.5092 58.864 34.4124 58.5533 34.3379 58.2367C114.644 58.2008 205.689 58.2128 284.245 58.2128C285.853 58.2128 287.455 58.1948 289.056 58.2187C290.165 58.2367 291.513 58.0992 292.362 58.637C291.156 59.4555 288.415 59.1508 286.33 59.1508Z" fill="white"/>
<path d="M46.3581 66.2349C50.4219 66.2349 53.7162 62.8653 53.7162 58.7086C53.7162 54.552 50.4219 51.1824 46.3581 51.1824C42.2943 51.1824 39 54.552 39 58.7086C39 62.8653 42.2943 66.2349 46.3581 66.2349Z" fill="#00EEF4"/>
<path d="M66.3581 66.2349C70.4219 66.2349 73.7162 62.8653 73.7162 58.7086C73.7162 54.552 70.4219 51.1824 66.3581 51.1824C62.2943 51.1824 59 54.552 59 58.7086C59 62.8653 62.2943 66.2349 66.3581 66.2349Z" fill="#95EDF0"/>
<path d="M85.3581 66.2349C89.4219 66.2349 92.7162 62.8653 92.7162 58.7086C92.7162 54.552 89.4219 51.1824 85.3581 51.1824C81.2943 51.1824 78 54.552 78 58.7086C78 62.8653 81.2943 66.2349 85.3581 66.2349Z" fill="#95EDF0"/>
<path d="M235.95 66.2349C240.014 66.2349 243.308 62.8653 243.308 58.7086C243.308 54.552 240.014 51.1824 235.95 51.1824C231.886 51.1824 228.592 54.552 228.592 58.7086C228.592 62.8653 231.886 66.2349 235.95 66.2349Z" fill="#CAEAE9"/>
<path d="M256.358 66.2349C260.422 66.2349 263.716 62.8653 263.716 58.7086C263.716 54.552 260.422 51.1824 256.358 51.1824C252.294 51.1824 249 54.552 249 58.7086C249 62.8653 252.294 66.2349 256.358 66.2349Z" fill="#95EDF0"/>
<path d="M277.358 66.2349C281.422 66.2349 284.716 62.8653 284.716 58.7086C284.716 54.552 281.422 51.1824 277.358 51.1824C273.294 51.1824 270 54.552 270 58.7086C270 62.8653 273.294 66.2349 277.358 66.2349Z" fill="#00EEF4"/>
<path d="M286.314 77.218C206.829 77.23 115.076 77.23 33.6256 77.2419C33.5284 76.9307 33.4312 76.6194 33.3564 76.3021C113.963 76.2722 205.357 76.2782 284.213 76.2782C285.828 76.2782 287.435 76.2602 289.043 76.2842C290.157 76.3021 291.51 76.1645 292.362 76.7032C291.158 77.5173 288.4 77.218 286.314 77.218Z" fill="white"/>
<path d="M46.3581 85.304C50.4219 85.304 53.7162 81.9339 53.7162 77.7767C53.7162 73.6196 50.4219 70.2495 46.3581 70.2495C42.2943 70.2495 39 73.6196 39 77.7767C39 81.9339 42.2943 85.304 46.3581 85.304Z" fill="#00EEF4"/>
<path d="M66.3581 85.304C70.4219 85.304 73.7162 81.9339 73.7162 77.7767C73.7162 73.6196 70.4219 70.2495 66.3581 70.2495C62.2943 70.2495 59 73.6196 59 77.7767C59 81.9339 62.2943 85.304 66.3581 85.304Z" fill="#95EDF0"/>
<path d="M256.358 85.304C260.422 85.304 263.716 81.9339 263.716 77.7767C263.716 73.6196 260.422 70.2495 256.358 70.2495C252.294 70.2495 249 73.6196 249 77.7767C249 81.9339 252.294 85.304 256.358 85.304Z" fill="#95EDF0"/>
<path d="M277.358 85.304C281.422 85.304 284.716 81.9339 284.716 77.7767C284.716 73.6196 281.422 70.2495 277.358 70.2495C273.294 70.2495 270 73.6196 270 77.7767C270 81.9339 273.294 85.304 277.358 85.304Z" fill="#00EEF4"/>
<path d="M285.034 95.9445C206.154 95.9564 115.099 95.9564 34.2671 95.9684C34.1706 95.6577 34.0742 95.347 34 95.0304C114.001 94.9945 204.7 95.0065 282.957 95.0065C284.559 95.0065 286.154 94.9885 287.749 95.0124C288.855 95.0304 290.198 94.8929 291.043 95.4307C289.842 96.2492 287.111 95.9445 285.034 95.9445Z" fill="white"/>
<path d="M46.3581 105.375C50.4219 105.375 53.7162 102.005 53.7162 97.848C53.7162 93.6911 50.4219 90.3213 46.3581 90.3213C42.2943 90.3213 39 93.6911 39 97.848C39 102.005 42.2943 105.375 46.3581 105.375Z" fill="#00EEF4"/>
<path d="M66.3581 105.375C70.4219 105.375 73.7162 102.005 73.7162 97.848C73.7162 93.6911 70.4219 90.3213 66.3581 90.3213C62.2943 90.3213 59 93.6911 59 97.848C59 102.005 62.2943 105.375 66.3581 105.375Z" fill="#95EDF0"/>
<path d="M85.3581 105.375C89.4219 105.375 92.7162 102.005 92.7162 97.848C92.7162 93.6911 89.4219 90.3213 85.3581 90.3213C81.2943 90.3213 78 93.6911 78 97.848C78 102.005 81.2943 105.375 85.3581 105.375Z" fill="#95EDF0"/>
<path d="M236.44 105.375C240.775 105.375 244.289 102.005 244.289 97.848C244.289 93.6911 240.775 90.3213 236.44 90.3213C232.106 90.3213 228.592 93.6911 228.592 97.848C228.592 102.005 232.106 105.375 236.44 105.375Z" fill="#CAEAE9"/>
<path d="M256.358 105.375C260.422 105.375 263.716 102.005 263.716 97.848C263.716 93.6911 260.422 90.3213 256.358 90.3213C252.294 90.3213 249 93.6911 249 97.848C249 102.005 252.294 105.375 256.358 105.375Z" fill="#95EDF0"/>
<path d="M276.849 105.375C281.183 105.375 284.697 102.005 284.697 97.848C284.697 93.6911 281.183 90.3213 276.849 90.3213C272.514 90.3213 269 93.6911 269 97.848C269 102.005 272.514 105.375 276.849 105.375Z" fill="#00EEF4"/>
<path d="M118.887 42.4122C120.364 42.4234 121.571 41.2254 121.583 39.7365C121.594 38.2475 120.405 37.0314 118.927 37.0202C117.45 37.0091 116.243 38.207 116.232 39.696C116.22 41.1849 117.409 42.401 118.887 42.4122Z" fill="white"/>
<path d="M100.676 61.4122C102.153 61.4234 103.36 60.2254 103.372 58.7365C103.383 57.2475 102.194 56.0314 100.717 56.0202C99.2389 56.0091 98.0319 57.207 98.0206 58.696C98.0094 60.1849 99.1981 61.401 100.676 61.4122Z" fill="white"/>
<path d="M80.6758 79.4122C82.1534 79.4234 83.3604 78.2254 83.3717 76.7365C83.3829 75.2475 82.1942 74.0314 80.7165 74.0202C79.2389 74.0091 78.0319 75.207 78.0206 76.696C78.0094 78.1849 79.1981 79.401 80.6758 79.4122Z" fill="white"/>
<path d="M100.676 98.4122C102.153 98.4234 103.36 97.2254 103.372 95.7365C103.383 94.2475 102.194 93.0314 100.717 93.0202C99.2389 93.0091 98.0319 94.207 98.0206 95.696C98.0094 97.1849 99.1981 98.401 100.676 98.4122Z" fill="white"/>
<path d="M241.676 42.4146C243.153 42.4271 244.361 41.2303 244.374 39.7413C244.387 38.2524 243.199 37.0352 241.721 37.0227C240.244 37.0102 239.036 38.207 239.023 39.696C239.01 41.1849 240.198 42.4021 241.676 42.4146Z" fill="white"/>
<path d="M290.641 41.3212C291.548 41.3289 292.289 40.5948 292.297 39.6815C292.304 38.7682 291.576 38.0216 290.669 38.0139C289.763 38.0062 289.022 38.7404 289.014 39.6537C289.007 40.567 289.735 41.3136 290.641 41.3212Z" fill="white"/>
<path d="M290.641 60.3212C291.548 60.3289 292.289 59.5948 292.297 58.6815C292.304 57.7682 291.576 57.0216 290.669 57.0139C289.763 57.0062 289.022 57.7404 289.014 58.6537C289.007 59.567 289.735 60.3136 290.641 60.3212Z" fill="white"/>
<path d="M290.641 78.3212C291.548 78.3289 292.289 77.5948 292.297 76.6815C292.304 75.7682 291.576 75.0216 290.669 75.0139C289.763 75.0062 289.022 75.7404 289.014 76.6537C289.007 77.567 289.735 78.3136 290.641 78.3212Z" fill="white"/>
<path d="M33.6414 78.3212C34.5478 78.3289 35.2888 77.5948 35.2965 76.6815C35.3043 75.7682 34.5758 75.0216 33.6694 75.0139C32.7631 75.0062 32.022 75.7404 32.0143 76.6537C32.0066 77.567 32.735 78.3136 33.6414 78.3212Z" fill="white"/>
<path d="M33.6414 60.3212C34.5478 60.3289 35.2888 59.5948 35.2965 58.6815C35.3043 57.7682 34.5758 57.0216 33.6694 57.0139C32.7631 57.0062 32.022 57.7404 32.0143 58.6537C32.0066 59.567 32.735 60.3136 33.6414 60.3212Z" fill="white"/>
<path d="M33.6414 41.3212C34.5478 41.3289 35.2888 40.5948 35.2965 39.6815C35.3043 38.7682 34.5758 38.0216 33.6694 38.0139C32.7631 38.0062 32.022 38.7404 32.0143 39.6537C32.0066 40.567 32.735 41.3136 33.6414 41.3212Z" fill="white"/>
<path d="M33.6414 97.3212C34.5478 97.3289 35.2888 96.5948 35.2965 95.6815C35.3043 94.7682 34.5758 94.0216 33.6694 94.0139C32.7631 94.0062 32.022 94.7404 32.0143 95.6537C32.0066 96.567 32.735 97.3136 33.6414 97.3212Z" fill="white"/>
<path d="M290.641 97.3212C291.548 97.3289 292.289 96.5948 292.297 95.6815C292.304 94.7682 291.576 94.0216 290.669 94.0139C289.763 94.0062 289.022 94.7404 289.014 95.6537C289.007 96.567 289.735 97.3136 290.641 97.3212Z" fill="white"/>
<path d="M221.676 61.4146C223.153 61.4271 224.361 60.2303 224.374 58.7413C224.387 57.2524 223.199 56.0352 221.721 56.0227C220.244 56.0102 219.036 57.207 219.023 58.696C219.01 60.1849 220.198 61.4021 221.676 61.4146Z" fill="white"/>
<path d="M242.676 79.4146C244.153 79.4271 245.361 78.2303 245.374 76.7413C245.387 75.2524 244.199 74.0352 242.721 74.0227C241.244 74.0102 240.036 75.207 240.023 76.696C240.01 78.1849 241.198 79.4021 242.676 79.4146Z" fill="white"/>
<path d="M223.676 98.4146C225.153 98.4271 226.361 97.2303 226.374 95.7413C226.387 94.2524 225.199 93.0352 223.721 93.0227C222.244 93.0102 221.036 94.207 221.023 95.696C221.01 97.1849 222.198 98.4021 223.676 98.4146Z" fill="white"/>
</svg>
