<svg width="319" height="130" viewBox="0 0 319 130" fill="none" xmlns="http://www.w3.org/2000/svg">
<g opacity="0.3">
<path d="M67.1342 119.776C68.1949 120.613 69.0965 121.569 69.9627 122.552C70.8113 123.551 71.6245 124.584 72.2786 125.737C71.2179 124.9 70.3163 123.944 69.45 122.961C68.6015 121.962 67.7883 120.929 67.1342 119.776Z" fill="#F9BBDE"/>
<path d="M53.9901 104.508C55.0155 105.498 55.9878 106.523 56.9513 107.565C57.9236 108.598 58.8517 109.666 59.7798 110.733C60.6991 111.809 61.6096 112.885 62.4935 113.995C63.3774 115.097 64.2525 116.207 65.0657 117.368C64.0403 116.386 63.068 115.353 62.1046 114.311C61.1322 113.278 60.2041 112.21 59.276 111.143C58.3567 110.067 57.4463 108.991 56.5712 107.881C55.6784 106.779 54.8033 105.669 53.9901 104.508Z" fill="#F9BBDE"/>
<path d="M62.1135 103.013L66.9221 108.641C68.5397 110.502 70.1484 112.373 71.7925 114.217L76.6541 119.802C78.2628 121.681 79.8627 123.56 81.3919 125.498C79.6506 123.731 77.9535 121.937 76.2652 120.127C74.5769 118.316 72.9328 116.472 71.2798 114.627C69.6711 112.748 68.0535 110.878 66.5155 108.948C64.9863 107.018 63.4924 105.054 62.1135 103.013Z" fill="#F9BBDE"/>
<path d="M42.0042 79.0594C43.8339 80.5966 45.5487 82.2618 47.2016 83.9783C48.8546 85.7033 50.4015 87.5051 51.9306 89.3241C53.4156 91.1772 54.8918 93.0388 56.2972 94.9432C57.7027 96.8475 59.0816 98.7775 60.3987 100.742C58.8606 98.9312 57.3756 97.0781 55.8906 95.2335C54.4056 93.389 52.9383 91.5273 51.418 89.7169C49.933 87.8723 48.3949 86.079 46.8304 84.2942C45.257 82.518 43.6394 80.7845 42.0042 79.0594Z" fill="#F9BBDE"/>
<path d="M54.9182 119.965C55.9789 120.742 56.8894 121.638 57.7645 122.578C58.6219 123.526 59.4439 124.499 60.1157 125.618C59.055 124.849 58.1445 123.944 57.2695 123.005C56.4032 122.057 55.5812 121.075 54.9182 119.965Z" fill="#F9BBDE"/>
<path d="M40.4485 103.166C41.5357 104.234 42.5787 105.353 43.6041 106.471C44.6383 107.59 45.6283 108.734 46.6183 109.879C47.5994 111.031 48.5718 112.193 49.5176 113.38C50.4634 114.567 51.4003 115.754 52.2754 117.001C51.1882 115.933 50.154 114.823 49.1286 113.704C48.0944 112.586 47.1045 111.441 46.1145 110.288C45.1333 109.127 44.1521 107.974 43.2152 106.779C42.2605 105.6 41.3236 104.405 40.4485 103.166Z" fill="#F9BBDE"/>
<path d="M0.875122 55.8485C2.43967 57.7272 4.0219 59.5889 5.60412 61.4505L10.3596 67.0355L19.9149 78.1627C23.0705 81.8945 26.2615 85.6093 29.3729 89.3753L34.0047 95.0542L38.5127 100.827L33.7483 95.2506L28.9751 89.6827L19.4022 78.5641C16.2466 74.8322 13.0645 71.1175 9.96188 67.3344L5.34779 61.6384C3.84511 59.7255 2.35128 57.7956 0.875122 55.8485Z" fill="#F9BBDE"/>
<path d="M49.9065 75.0289C51.692 76.9674 53.4687 78.923 55.2277 80.8871L60.4164 86.8564C63.846 90.8529 67.2049 94.9178 70.5904 98.9485C73.9404 103.013 77.3259 107.036 80.7467 111.049C82.4526 113.056 84.1763 115.046 85.9176 117.027C87.6501 119.017 89.4003 120.981 91.177 122.936C89.3207 121.058 87.491 119.153 85.6701 117.24C83.8758 115.302 82.1079 113.346 80.3577 111.374C76.8574 107.428 73.472 103.389 70.0777 99.3584L60.0186 87.1723L54.9802 81.0921C53.3008 79.0511 51.6125 77.0357 49.9065 75.0289Z" fill="#F9BBDE"/>
<path d="M0.097168 17.5231L6.24045 24.3548L12.3307 31.2292L24.4316 45.0379C28.4182 49.6749 32.4489 54.2863 36.4 58.9575L42.3223 65.9686L48.1916 73.0223L42.0748 66.1735L36.0111 59.2735L23.919 45.4478L11.9418 31.5452L5.99295 24.5598L0.097168 17.5231Z" fill="#F9BBDE"/>
<path d="M0 30.2987L19.0486 51.4685C22.1777 55.0381 25.3156 58.5991 28.3475 62.2455C29.859 64.073 31.3528 65.9091 32.8378 67.7622C34.2963 69.6323 35.7283 71.5196 37.1426 73.4154C35.6399 71.5794 34.1195 69.7604 32.5815 67.9586C31.0523 66.1482 29.5143 64.3463 27.9586 62.5615C24.8472 58.9834 21.7181 55.4138 18.5536 51.8869C15.4245 48.3174 12.2512 44.7905 9.14863 41.2038L4.51686 35.7982C2.99651 33.9793 1.49383 32.1433 0 30.2987Z" fill="#F9BBDE"/>
<path d="M28.4183 74.8236C30.195 76.6854 31.9275 78.5898 33.6423 80.5028C35.3572 82.4158 37.0366 84.363 38.7338 86.2931C40.3867 88.2573 42.0662 90.1959 43.7014 92.1773C45.3367 94.1586 46.9631 96.1399 48.5365 98.1725C46.751 96.3107 45.0273 94.4063 43.3125 92.4933C41.5977 90.5802 39.9182 88.6331 38.2299 86.703C36.577 84.7388 34.8975 82.8001 33.2623 80.8188C31.6093 78.8375 29.9829 76.8562 28.4183 74.8236Z" fill="#F9BBDE"/>
<path d="M0.884033 42.86C3.13804 45.2682 5.33902 47.7276 7.53116 50.1956C9.72329 52.655 11.8712 55.1572 14.0457 57.6337L20.4365 65.1742C22.5491 67.702 24.644 70.2383 26.6947 72.8258C24.4407 70.4176 22.2397 67.9582 20.0475 65.4902L13.533 58.0436C11.4028 55.5329 9.24597 53.0393 7.14223 50.503C5.02965 47.9753 2.9259 45.439 0.884033 42.86Z" fill="#F9BBDE"/>
<path d="M109.925 117.804C111.419 119.085 112.762 120.503 114.062 121.946C115.352 123.406 116.607 124.892 117.703 126.506C116.21 125.216 114.866 123.807 113.567 122.364C112.276 120.913 111.03 119.427 109.925 117.804Z" fill="#F9BBDE"/>
<path d="M125.809 111.749C126.72 112.603 127.577 113.491 128.417 114.397C129.265 115.293 130.078 116.224 130.892 117.155C131.687 118.094 132.492 119.034 133.252 120.007C134.012 120.972 134.772 121.946 135.47 122.971C134.56 122.125 133.703 121.228 132.863 120.323C132.014 119.427 131.201 118.496 130.388 117.565C129.592 116.625 128.788 115.686 128.028 114.712C127.268 113.747 126.507 112.774 125.809 111.749Z" fill="#F9BBDE"/>
<path d="M72.7383 74.6366C75.8674 77.3264 78.7313 80.2895 81.4626 83.3465C84.194 86.4121 86.7662 89.6057 89.3296 92.7994L96.9137 102.449C99.4594 105.651 102.058 108.802 104.798 111.859C101.855 108.981 99.15 105.898 96.5159 102.756C93.8818 99.6136 91.3714 96.3858 88.8081 93.1922C86.2889 89.9729 83.7255 86.7878 81.0825 83.671C78.4308 80.5457 75.6729 77.5143 72.7383 74.6366Z" fill="#F9BBDE"/>
<path d="M55.9967 55.1993C57.3845 56.6084 58.7192 58.0602 60.0451 59.512C61.371 60.9723 62.6527 62.4668 63.9609 63.9357C65.2249 65.4387 66.5154 66.9332 67.7529 68.4533C68.9993 69.9819 70.2279 71.5106 71.4124 73.0819C70.0246 71.6728 68.6899 70.221 67.364 68.7693C66.0381 67.3089 64.7564 65.8145 63.4482 64.3456C62.1842 62.834 60.8937 61.3481 59.6562 59.828C58.4098 58.3079 57.1812 56.7792 55.9967 55.1993Z" fill="#F9BBDE"/>
<path d="M66.6393 55.0802L73.861 63.5429L80.9677 72.0996L95.0929 89.2727C99.7953 95.0027 104.56 100.673 109.404 106.292L113.054 110.493L116.749 114.661L120.47 118.802L124.245 122.893L120.347 118.905L116.502 114.866L112.736 110.758L109.015 106.608C104.091 101.049 99.318 95.3699 94.5802 89.6655C89.8777 83.9354 85.2106 78.1797 80.57 72.3985L66.6393 55.0802Z" fill="#F9BBDE"/>
<path d="M44.6117 30.1449C46.4503 31.8955 48.2181 33.7058 49.9683 35.5417C51.7185 37.3777 53.3979 39.2649 55.0951 41.135C56.748 43.0478 58.4186 44.9521 60.0274 46.899C61.6361 48.846 63.2272 50.81 64.7475 52.8253C63.015 50.9808 61.3267 49.0936 59.6384 47.215L54.6001 41.5534L49.5882 35.8662C47.9264 33.9705 46.2558 32.0748 44.6117 30.1449Z" fill="#F9BBDE"/>
<path d="M61.3357 74.9266C63.9698 77.6934 66.5509 80.5114 69.1142 83.3379C71.6776 86.1645 74.188 89.0423 76.6983 91.9115C79.1733 94.8149 81.6571 97.7097 84.0703 100.656C86.4834 103.602 88.87 106.574 91.1682 109.614L76.1856 92.3214L68.7165 83.6539C66.2415 80.759 63.7576 77.8642 61.3357 74.9266Z" fill="#F9BBDE"/>
<path d="M22.0361 29.351L31.3174 40.2218C34.4288 43.8341 37.5225 47.4463 40.6693 51.0329L50.0389 61.827L54.7149 67.2411L59.3378 72.6893L54.4674 67.446L49.65 62.1515C46.4502 58.6161 43.3034 55.0295 40.1566 51.4429C37.054 47.8221 33.9426 44.2098 30.9196 40.5293L26.4204 34.9871L22.0361 29.351Z" fill="#F9BBDE"/>
<path d="M0.609863 4.48328C2.38655 6.33632 4.11021 8.2406 5.81619 10.1449C7.531 12.0492 9.19278 13.9961 10.8899 15.9175C12.5429 17.873 14.2135 19.8114 15.8487 21.784C17.4752 23.7566 19.1016 25.7378 20.6661 27.7616C18.8894 25.9086 17.1658 24.0043 15.4598 22.1C13.745 20.1957 12.0832 18.2487 10.3861 16.3274C8.73314 14.3719 7.06252 12.4334 5.4361 10.4608C3.80084 8.48824 2.17441 6.50711 0.609863 4.48328Z" fill="#F9BBDE"/>
<path d="M77.9181 55.465C79.1998 56.6263 80.4284 57.8475 81.6306 59.0943C82.8416 60.3325 83.9907 61.6134 85.1221 62.9285C86.2358 64.2436 87.3231 65.5843 88.3307 66.9848C89.3473 68.3767 90.3107 69.8028 91.1681 71.2887C90.0809 69.948 89.0202 68.5987 87.9241 67.2837C86.8281 65.9686 85.732 64.645 84.6094 63.3384L81.2505 59.4273C80.1279 58.1122 79.0053 56.8057 77.9181 55.465Z" fill="#F9BBDE"/>
<path d="M55.4133 29.7689C56.969 31.7929 58.5601 33.7827 60.1954 35.7298C61.8395 37.6768 63.4924 39.6154 65.2161 41.4942C66.8955 43.4156 68.6369 45.2773 70.3605 47.1732C72.0753 49.0605 73.8078 50.9478 75.4696 52.8864C73.6045 51.1271 71.7836 49.3252 69.9804 47.5062C68.1861 45.6787 66.4447 43.8085 64.7122 41.9212C63.0239 39.9997 61.3533 38.0611 59.7976 36.0372C58.2331 34.0132 56.7481 31.938 55.4133 29.7689Z" fill="#F9BBDE"/>
<path d="M30.0447 1.3241C32.1219 3.44185 34.1373 5.61084 36.1526 7.77983C38.168 9.94882 40.1303 12.1605 42.1279 14.3466C44.0814 16.5668 46.0526 18.7699 47.9795 21.0073C49.9065 23.2446 51.8335 25.4904 53.6985 27.7875C51.6213 25.6697 49.606 23.5093 47.5906 21.3317C45.5753 19.1628 43.6129 16.9511 41.6153 14.765C39.6618 12.5448 37.6906 10.3416 35.7548 8.09579C33.8367 5.85848 31.9098 3.61264 30.0447 1.3241Z" fill="#F9BBDE"/>
<path d="M20.233 2.14392C21.7445 3.69811 23.203 5.295 24.6527 6.89189C26.1023 8.49731 27.5077 10.1369 28.9397 11.7509C30.3275 13.4075 31.7418 15.0386 33.1118 16.7038C34.4819 18.3775 35.8432 20.0513 37.1425 21.7677C35.631 20.2135 34.1725 18.6166 32.7141 17.0197C31.2644 15.4143 29.859 13.7747 28.427 12.1608C27.0393 10.5041 25.625 8.87305 24.2549 7.20785C22.8936 5.5341 21.5324 3.86036 20.233 2.14392Z" fill="#F9BBDE"/>
<path d="M104.913 87.4967C106.61 89.2558 108.245 91.0576 109.872 92.868C111.498 94.6783 113.089 96.5228 114.698 98.3502C116.263 100.212 117.854 102.048 119.401 103.926C120.947 105.805 122.486 107.684 123.971 109.614C122.273 107.855 120.638 106.053 119.012 104.242C117.385 102.432 115.794 100.588 114.185 98.7601C112.621 96.8985 111.03 95.0626 109.483 93.1839C107.936 91.3053 106.398 89.4266 104.913 87.4967Z" fill="#F9BBDE"/>
<path d="M92.7062 73.3207C93.6873 74.2601 94.6155 75.2336 95.5347 76.2243C96.4629 77.2064 97.3468 78.2226 98.2307 79.2389C99.1058 80.2637 99.9721 81.2885 100.812 82.3475C101.652 83.3979 102.482 84.4568 103.251 85.567C102.27 84.6362 101.342 83.6541 100.423 82.6634C99.4947 81.6813 98.6108 80.6651 97.7269 79.6488C96.8518 78.624 95.9855 77.5992 95.1547 76.5403C94.3061 75.4898 93.484 74.4309 92.7062 73.3207Z" fill="#F9BBDE"/>
<path d="M33.8455 29.4879C35.1713 30.8201 36.4442 32.2035 37.7082 33.5955C38.9722 34.9789 40.1921 36.405 41.4384 37.8055C42.6405 39.2402 43.8692 40.6578 45.0536 42.1095C46.2381 43.5613 47.4137 45.0216 48.5275 46.5245C47.2016 45.1923 45.9287 43.8089 44.6647 42.4255C43.4007 41.0421 42.1809 39.6159 40.9346 38.2154C39.7324 36.7808 38.5038 35.3632 37.3281 33.9115C36.1437 32.4512 34.968 30.9909 33.8455 29.4879Z" fill="#F9BBDE"/>
<path d="M11.7739 3.8595C13.5771 5.74676 15.3273 7.68526 17.0686 9.62376C18.81 11.5623 20.5071 13.5434 22.2308 15.499C23.9102 17.4888 25.6162 19.4614 27.278 21.4682C28.9398 23.475 30.5927 25.4904 32.1838 27.5485C30.3806 25.6612 28.6304 23.7227 26.8891 21.7842C25.1477 19.8457 23.4506 17.8645 21.7269 15.9089C20.0475 13.9192 18.3415 11.9465 16.6886 9.93972C15.0179 7.93291 13.365 5.91755 11.7739 3.8595Z" fill="#F9BBDE"/>
<path d="M117.474 87.2062C120.002 90.0583 122.477 92.9532 124.934 95.8566L132.253 104.609L139.457 113.456C141.835 116.42 144.204 119.391 146.52 122.414C143.992 119.562 141.526 116.667 139.059 113.764L131.74 105.011L124.536 96.164C122.159 93.1923 119.79 90.2206 117.474 87.2062Z" fill="#F9BBDE"/>
<path d="M109.925 78.3939C111.18 79.4613 112.276 80.6481 113.337 81.8692C114.38 83.0987 115.387 84.3625 116.236 85.7543C114.981 84.6869 113.885 83.5001 112.824 82.279C111.781 81.0495 110.773 79.7857 109.925 78.3939Z" fill="#F9BBDE"/>
<path d="M89.6478 54.851C91.0179 56.2343 92.3261 57.6602 93.6343 59.0948C94.9425 60.5293 96.1977 61.998 97.4794 63.4411C98.7257 64.9268 99.9898 66.387 101.21 67.8898C102.429 69.3927 103.649 70.8955 104.798 72.441C103.428 71.0577 102.12 69.6317 100.812 68.1972C99.5124 66.7627 98.2484 65.294 96.9667 63.8424C95.7292 62.3566 94.4564 60.8965 93.2366 59.3936C92.0167 57.9079 90.8058 56.405 89.6478 54.851Z" fill="#F9BBDE"/>
<path d="M53.9901 13.4586C56.7303 16.8318 59.5942 20.1025 62.5377 23.3049C65.4812 26.5073 68.46 29.684 71.4476 32.8523C74.4 36.0547 77.3611 39.257 80.1632 42.5875C82.9652 45.918 85.6523 49.351 88.0301 52.9718C85.4314 49.4961 82.6558 46.1571 79.7742 42.9035C76.8926 39.6499 73.9403 36.456 70.9527 33.2793C68.0092 30.0769 65.0127 26.9001 62.1487 23.6209C59.2848 20.3502 56.5093 16.9941 53.9901 13.4586Z" fill="#F9BBDE"/>
<path d="M43.5509 1.33997C44.5851 2.14278 45.4602 3.06516 46.2911 4.02171C47.1131 4.9868 47.8998 5.99459 48.5274 7.1134C47.4932 6.31059 46.6181 5.3882 45.7872 4.43166C44.9652 3.46657 44.1785 2.45878 43.5509 1.33997Z" fill="#F9BBDE"/>
<path d="M91.1682 109.614C92.4411 110.93 93.652 112.279 94.8542 113.637C96.0563 114.994 97.2143 116.386 98.3987 117.761C99.539 119.17 100.706 120.554 101.828 121.98C102.951 123.406 104.065 124.832 105.117 126.31C103.844 125.003 102.633 123.654 101.431 122.287C100.228 120.93 99.0617 119.529 97.8772 118.154C96.7369 116.745 95.5702 115.353 94.4476 113.927C93.3427 112.518 92.2289 111.083 91.1682 109.614Z" fill="#F9BBDE"/>
<path d="M1.72351 112.424C2.66047 113.278 3.5444 114.183 4.41949 115.088C5.30341 115.994 6.14314 116.933 6.98287 117.864C7.81376 118.812 8.64465 119.76 9.43135 120.742C10.2269 121.715 11.0136 122.697 11.7384 123.73C10.8014 122.876 9.91751 121.971 9.04242 121.066C8.15849 120.161 7.31877 119.222 6.47903 118.291C5.64814 117.343 4.82609 116.395 4.03056 115.413C3.24386 114.431 2.45717 113.449 1.72351 112.424Z" fill="#F9BBDE"/>
<path d="M1.61768 98.7094C3.45624 100.639 5.24177 102.612 7.01846 104.585C8.79515 106.566 10.5276 108.581 12.2867 110.571C14.0015 112.595 15.7428 114.61 17.4399 116.651C19.1371 118.701 20.8254 120.75 22.4518 122.843C20.6132 120.913 18.8277 118.94 17.0422 116.967C15.2655 114.986 13.533 112.971 11.774 110.981C10.0592 108.949 8.31783 106.942 6.62069 104.901C4.9324 102.86 3.2441 100.802 1.61768 98.7094Z" fill="#F9BBDE"/>
<path d="M31.0789 119.836C31.8037 120.28 32.3782 120.852 32.9086 121.457C33.4301 122.072 33.9074 122.72 34.2256 123.488C33.5008 123.044 32.9263 122.473 32.3959 121.867C31.8832 121.244 31.4059 120.604 31.0789 119.836Z" fill="#F9BBDE"/>
<path d="M16.0433 102.372C17.2278 103.542 18.3592 104.763 19.4818 105.985C20.6132 107.206 21.7005 108.453 22.7877 109.708C23.8661 110.972 24.9356 112.227 25.9787 113.525C27.0217 114.815 28.0559 116.113 29.0282 117.453C27.8437 116.284 26.7123 115.062 25.5897 113.841C24.4583 112.62 23.3711 111.373 22.2838 110.118C21.2055 108.854 20.1359 107.599 19.0929 106.3C18.0498 105.011 17.0245 103.713 16.0433 102.372Z" fill="#F9BBDE"/>
<path d="M1.65295 85.6608C2.84625 86.8392 3.97768 88.0604 5.1091 89.2815C6.24053 90.5027 7.33659 91.758 8.42382 93.0133C9.50221 94.2772 10.5806 95.541 11.6236 96.839C12.6667 98.1285 13.7009 99.435 14.682 100.776C13.4887 99.5973 12.3573 98.3761 11.2259 97.155C10.0944 95.9338 8.99838 94.6785 7.91115 93.4232C6.83276 92.1594 5.75437 90.8955 4.71134 89.5975C3.66831 88.308 2.62527 87.01 1.65295 85.6608Z" fill="#F9BBDE"/>
<path d="M43.1709 119.119C44.0902 119.802 44.8592 120.604 45.5929 121.441C46.3088 122.287 46.9806 123.166 47.5021 124.174C46.5829 123.491 45.8138 122.688 45.0802 121.851C44.373 121.006 43.6924 120.126 43.1709 119.119Z" fill="#F9BBDE"/>
<path d="M29.0104 102.595C30.186 103.756 31.2997 104.969 32.4135 106.181C33.5272 107.394 34.6056 108.632 35.684 109.879C36.7447 111.134 37.8143 112.381 38.8308 113.671C39.8561 114.951 40.8815 116.241 41.845 117.573C40.6693 116.412 39.5556 115.199 38.4419 113.987C37.3281 112.774 36.2497 111.536 35.1713 110.289C34.1106 109.034 33.0499 107.787 32.0246 106.497C30.9992 105.216 29.9739 103.927 29.0104 102.595Z" fill="#F9BBDE"/>
<path d="M0.698364 69.5546C2.99657 72.031 5.2329 74.5417 7.46924 77.0694L14.0987 84.6952L20.6132 92.415C22.7612 95.0024 24.9091 97.5985 26.9863 100.246C24.6881 97.7778 22.4518 95.2586 20.2154 92.7309L13.586 85.1051L7.07147 77.3853C4.92353 74.7893 2.78443 72.1933 0.698364 69.5546Z" fill="#F9BBDE"/>
<path d="M141.26 87.5648L149.657 97.5306L158.09 107.462L166.54 117.377C169.351 120.69 172.18 123.987 174.955 127.334C171.968 124.166 169.051 120.938 166.151 117.693C163.252 114.448 160.415 111.16 157.577 107.864C154.784 104.542 151.982 101.211 149.26 97.8295C146.537 94.4563 143.85 91.0405 141.26 87.5648Z" fill="#F9BBDE"/>
<path d="M109.828 51.0856C112.427 53.895 114.963 56.7385 117.491 59.5992L125.022 68.2238L132.43 76.9423C134.878 79.8627 137.318 82.7917 139.704 85.7719C137.106 82.9625 134.569 80.1189 132.041 77.2583L124.51 68.6337L117.102 59.9151C114.654 56.9862 112.214 54.0572 109.828 51.0856Z" fill="#F9BBDE"/>
<path d="M130.485 62.7396L137.716 70.6901L144.893 78.6747L159.168 94.7208L173.329 110.861L180.365 118.965L187.348 127.112L180.118 119.17L172.94 111.177L158.665 95.1307L144.504 78.9907L137.468 70.8865L130.485 62.7396Z" fill="#F9BBDE"/>
<path d="M123.873 42.8851C125.553 44.687 127.303 46.4462 129.071 48.1712L134.436 53.312C135.302 54.3368 135.276 55.7117 136.071 56.5486L138.75 59.1104L144.124 64.2342L144.133 64.2428L144.142 64.2513C147.563 68.3333 150.93 72.4579 154.431 76.4715C157.922 80.4937 161.564 84.3878 165.382 88.1025L165.391 88.1111L165.4 88.1196C170.88 94.6866 176.476 101.151 182.071 107.624L199.007 126.924C193.182 120.639 187.392 114.328 181.709 107.923C175.998 101.544 170.43 95.0452 164.905 88.5124L164.923 88.538C161.051 84.8318 157.436 80.8865 153.953 76.8473C150.471 72.808 147.103 68.6834 143.726 64.5673L143.744 64.5844L138.44 59.3923L135.789 56.7877C134.887 55.7629 134.94 54.388 134.18 53.5084L128.947 48.2736C127.215 46.5145 125.517 44.7297 123.873 42.8851Z" fill="#F9BBDE"/>
<path d="M66.6393 0.991089L71.5274 6.40513L76.3536 11.8704L85.9265 22.8522L95.3846 33.9364L100.069 39.5042L104.701 45.1232L99.8219 39.7091L94.9868 34.2524L85.4139 23.2621L75.9647 12.1778L71.2799 6.61007L66.6393 0.991089Z" fill="#F9BBDE"/>
<path d="M76.548 0.905151L83.0006 8.15525L89.4091 15.448L102.129 30.0934L114.725 44.8412L120.983 52.245L127.188 59.6915L120.735 52.45L114.336 45.1572L101.616 30.5033L89.0202 15.764L82.7531 8.35166L76.548 0.905151Z" fill="#F9BBDE"/>
<path d="M54.6443 0.588745C57.7999 4.0217 60.8583 7.53152 63.899 11.0499L72.9415 21.6818C75.9204 25.2514 78.9346 28.7954 81.9488 32.3308C84.9629 35.8748 88.0125 39.3846 91.0885 42.8859C87.8092 39.5639 84.6624 36.131 81.5598 32.6553C78.4572 29.1797 75.4519 25.6357 72.4289 22.0917L63.5101 11.3658L54.6443 0.588745Z" fill="#F9BBDE"/>
<path d="M88.3395 1.37463C88.9936 1.74068 89.4974 2.23442 89.9659 2.7537C90.4167 3.29001 90.8233 3.85185 91.0796 4.54138C90.4255 4.17533 89.9217 3.68159 89.4532 3.16231C89.0024 2.62601 88.5958 2.06417 88.3395 1.37463Z" fill="#F9BBDE"/>
<path d="M117.916 35.9684C119.109 36.9589 120.152 38.0776 121.151 39.2218C122.141 40.3831 123.087 41.5701 123.873 42.8851C122.68 41.8946 121.637 40.776 120.638 39.6317C119.657 38.4704 118.702 37.2834 117.916 35.9684Z" fill="#F9BBDE"/>
<path d="M92.6089 6.59265C94.7038 8.81292 96.7368 11.0844 98.7698 13.3645C100.803 15.636 102.783 17.9502 104.798 20.2388C106.769 22.5615 108.758 24.8672 110.703 27.207C112.647 29.5468 114.592 31.8952 116.475 34.2863C114.38 32.066 112.347 29.7945 110.314 27.5144C108.281 25.2344 106.301 22.9287 104.286 20.6401C102.314 18.3174 100.326 16.0117 98.3809 13.6634C96.4363 11.3406 94.4916 8.99225 92.6089 6.59265Z" fill="#F9BBDE"/>
<path d="M160.972 124.747C161.502 124.96 161.882 125.292 162.218 125.658C162.545 126.041 162.828 126.449 162.961 126.985C162.43 126.772 162.05 126.441 161.714 126.075C161.387 125.692 161.104 125.283 160.972 124.747Z" fill="#F9BBDE"/>
<path d="M129.575 87.5824L136.92 96.3185L144.283 105.029L151.655 113.739C154.112 116.643 156.57 119.546 158.983 122.493C156.358 119.726 153.803 116.899 151.266 114.055C148.729 111.212 146.254 108.325 143.771 105.43C141.331 102.51 138.891 99.5892 136.522 96.6174C134.153 93.6541 131.82 90.6481 129.575 87.5824Z" fill="#F9BBDE"/>
<path d="M91.0708 42.8851C92.7326 44.5589 94.3767 46.2498 96.0031 47.9663C97.603 49.6913 99.1852 51.4419 100.759 53.2011C103.888 56.728 106.893 60.3488 109.916 63.9611L118.861 74.8749C120.346 76.6938 121.858 78.5043 123.369 80.2976C124.872 82.108 126.392 83.9014 127.939 85.6776C126.313 83.9697 124.713 82.2447 123.122 80.494C121.557 78.7348 120.002 76.9586 118.464 75.1738C115.396 71.6042 112.418 67.9577 109.395 64.354C106.416 60.716 103.402 57.1037 100.37 53.5085C98.8493 51.7152 97.3113 49.9304 95.7644 48.1627C94.2264 46.3864 92.6619 44.6272 91.0708 42.8851Z" fill="#F9BBDE"/>
<path d="M140.606 36.2931L146.891 43.4066L153.069 50.6141C157.171 55.4305 161.193 60.3066 165.241 65.1657L189.24 94.525L183.008 87.3688L176.865 80.1357C172.79 75.3022 168.768 70.4176 164.728 65.5585L140.606 36.2931Z" fill="#F9BBDE"/>
<path d="M112.188 2.05872C114.61 4.58639 116.943 7.20799 119.233 9.84667C121.531 12.4854 123.75 15.1838 125.977 17.8737C128.169 20.5978 130.37 23.3048 132.527 26.046C134.684 28.7871 136.841 31.5368 138.953 34.3121C136.62 31.6991 134.366 29.0262 132.12 26.3534L125.447 18.2666L118.826 10.1541L112.188 2.05872Z" fill="#F9BBDE"/>
<path d="M224.27 119.401C225.728 120.682 227.027 122.083 228.291 123.517C229.538 124.96 230.749 126.438 231.809 128.043C230.351 126.762 229.052 125.362 227.788 123.927C226.541 122.484 225.33 121.007 224.27 119.401Z" fill="#F9BBDE"/>
<path d="M207.767 100.469C209.128 101.826 210.445 103.235 211.745 104.653C213.044 106.062 214.308 107.514 215.59 108.94C216.827 110.4 218.091 111.843 219.311 113.329C220.531 114.806 221.742 116.292 222.9 117.829C221.53 116.472 220.221 115.063 218.922 113.654C217.623 112.245 216.359 110.793 215.086 109.367C213.848 107.907 212.584 106.463 211.364 104.977C210.136 103.492 208.925 102.006 207.767 100.469Z" fill="#F9BBDE"/>
<path d="M174.169 61.7489C176.9 64.6951 179.578 67.6841 182.248 70.6816L190.194 79.7252L198.017 88.8628C200.607 91.9286 203.179 94.9944 205.707 98.1115C202.976 95.1652 200.298 92.1763 197.628 89.1788L189.682 80.1351L181.859 70.9975C179.269 67.9317 176.697 64.8659 174.169 61.7489Z" fill="#F9BBDE"/>
<path d="M152.38 36.3441C154.13 38.1801 155.827 40.0588 157.515 41.9461C159.204 43.8333 160.848 45.7547 162.51 47.6591C164.136 49.5976 165.78 51.5104 167.389 53.466C168.989 55.4215 170.589 57.3771 172.127 59.3839C170.377 57.5479 168.679 55.6692 166.991 53.7819C165.303 51.8947 163.659 49.9733 161.997 48.069C160.371 46.1305 158.726 44.2176 157.118 42.262C155.509 40.3065 153.918 38.3424 152.38 36.3441Z" fill="#F9BBDE"/>
<path d="M130.485 11.1022C131.908 13.2541 133.499 15.2865 135.179 17.2335C136.867 19.1805 138.608 21.0848 140.42 22.9379C142.188 24.8251 144.018 26.6611 145.777 28.574C147.536 30.4783 149.26 32.4253 150.789 34.5089C149.048 32.5875 147.236 30.743 145.406 28.907L139.943 23.3734C138.175 21.4777 136.407 19.5733 134.79 17.5409C133.172 15.5085 131.67 13.3822 130.485 11.1022Z" fill="#F9BBDE"/>
<path d="M235.681 119.657C237.113 120.887 238.395 122.244 239.632 123.636C240.861 125.037 242.045 126.471 243.08 128.034C241.648 126.804 240.366 125.447 239.128 124.055C237.909 122.646 236.715 121.211 235.681 119.657Z" fill="#F9BBDE"/>
<path d="M218.303 99.9733C219.682 101.331 221.008 102.732 222.325 104.141C223.642 105.55 224.915 106.993 226.205 108.419C227.461 109.879 228.733 111.323 229.971 112.8C231.208 114.277 232.428 115.763 233.604 117.292C232.225 115.934 230.899 114.534 229.582 113.124C228.265 111.715 226.992 110.272 225.702 108.846C224.446 107.386 223.165 105.943 221.936 104.465C220.699 102.988 219.47 101.502 218.303 99.9733Z" fill="#F9BBDE"/>
<path d="M187.498 65.1058C189.991 67.7275 192.431 70.3919 194.87 73.0734L202.101 81.152L209.216 89.3245C211.568 92.0658 213.91 94.8155 216.199 97.608C213.707 94.9863 211.258 92.3219 208.827 89.649L201.597 81.5704L194.481 73.3979C192.13 70.6481 189.788 67.8983 187.498 65.1058Z" fill="#F9BBDE"/>
<path d="M247.862 119.725C249.32 121.057 250.628 122.517 251.892 124.003C253.139 125.506 254.359 127.035 255.41 128.692C253.952 127.359 252.644 125.899 251.38 124.413C250.125 122.91 248.914 121.382 247.862 119.725Z" fill="#F9BBDE"/>
<path d="M230.616 100.093C232.039 101.408 233.392 102.791 234.726 104.192C236.061 105.584 237.343 107.035 238.633 108.461C239.889 109.922 241.153 111.382 242.364 112.876C243.575 114.371 244.777 115.874 245.917 117.428C244.565 116.045 243.265 114.619 241.975 113.192L238.13 108.88L234.346 104.516C233.091 103.056 231.836 101.596 230.616 100.093Z" fill="#F9BBDE"/>
<path d="M221.627 90.9637C222.97 91.9543 224.181 93.0814 225.348 94.2427C226.506 95.4125 227.628 96.6251 228.592 97.9657C227.239 96.9752 226.037 95.848 224.871 94.6867C223.721 93.5084 222.599 92.3044 221.627 90.9637Z" fill="#F9BBDE"/>
<path d="M190.203 96.0026L197.663 103.927L205.168 111.818C207.643 114.474 210.136 117.104 212.575 119.802C215.006 122.492 217.41 125.216 219.7 128.026L204.682 112.253C202.207 109.597 199.714 106.959 197.292 104.26C194.861 101.553 192.475 98.8206 190.203 96.0026Z" fill="#F9BBDE"/>
<path d="M167.566 41.9633C168.936 43.3467 170.244 44.7729 171.543 46.199C172.852 47.6337 174.107 49.1025 175.389 50.5458C176.635 52.0232 177.899 53.492 179.119 54.9865C180.339 56.481 181.55 57.9925 182.707 59.5382C181.337 58.1548 180.029 56.7286 178.73 55.3025C177.43 53.8678 176.166 52.4075 174.885 50.9557C173.647 49.4698 172.374 48.0095 171.155 46.515C169.935 45.0205 168.724 43.5175 167.566 41.9633Z" fill="#F9BBDE"/>
<path d="M133.119 2.27087L141.49 11.5878L149.808 20.9474C152.548 24.0986 155.297 27.2327 158.002 30.418C160.698 33.6034 163.367 36.8058 165.948 40.0765L157.613 30.734L149.313 21.3659C146.582 18.2147 143.815 15.0806 141.11 11.9038C138.396 8.72696 135.718 5.53308 133.119 2.27087Z" fill="#F9BBDE"/>
<path d="M122.167 2.2113C123.201 3.02249 124.094 3.96177 124.934 4.92666C125.765 5.90863 126.56 6.91621 127.197 8.05188C126.154 7.24069 125.27 6.30141 124.43 5.33652C123.59 4.35456 122.804 3.34697 122.167 2.2113Z" fill="#F9BBDE"/>
<path d="M197.221 61.9967C199.308 64.2256 201.349 66.5057 203.374 68.7858C205.398 71.0659 207.378 73.3887 209.384 75.6859C211.347 78.0173 213.335 80.3315 215.28 82.68C217.225 85.0284 219.16 87.3854 221.034 89.785C218.94 87.5562 216.906 85.2761 214.882 82.9959C212.858 80.7158 210.878 78.393 208.872 76.0958C206.909 73.7645 204.92 71.4502 202.976 69.1018C201.031 66.7533 199.095 64.4049 197.221 61.9967Z" fill="#F9BBDE"/>
<path d="M180.1 42.0228C181.399 43.338 182.655 44.6958 183.892 46.0622C185.13 47.4286 186.323 48.8292 187.543 50.2126C188.718 51.6303 189.92 53.0223 191.078 54.457C192.236 55.8917 193.385 57.3264 194.481 58.8124C193.173 57.4972 191.927 56.1394 190.689 54.773C189.452 53.4066 188.25 52.006 187.039 50.6226C185.863 49.2049 184.661 47.8129 183.503 46.3782C182.345 44.9435 181.196 43.5088 180.1 42.0228Z" fill="#F9BBDE"/>
<path d="M145.591 2.00842C148.429 5.09964 151.213 8.22502 153.997 11.3675L162.262 20.8375L170.412 30.4015C173.108 33.6038 175.795 36.8145 178.42 40.0765C175.583 36.9939 172.79 33.8599 170.014 30.7175L161.749 21.2474L153.6 11.6834C150.913 8.47266 148.225 5.26189 145.591 2.00842Z" fill="#F9BBDE"/>
<path d="M129.698 36.0797L136.116 43.2871L142.48 50.5373L155.129 65.0973L167.654 79.7598L173.877 87.121L180.047 94.5333L173.63 87.3259L167.265 80.0758L154.616 65.5072L142.091 50.8532L135.868 43.4836L129.698 36.0797Z" fill="#F9BBDE"/>
<path d="M99.8129 1.63123L107.256 9.59019C109.731 12.246 112.161 14.936 114.601 17.6345C116.996 20.3587 119.392 23.0828 121.699 25.8924C123.997 28.6934 126.242 31.5456 128.328 34.5004C126.012 31.7079 123.679 28.941 121.301 26.2084C118.923 23.4757 116.537 20.7515 114.097 18.0615L106.867 9.92323C104.48 7.182 102.102 4.44931 99.8129 1.63123Z" fill="#F9BBDE"/>
<path d="M272.682 119.435C274.167 120.759 275.493 122.211 276.784 123.688C278.057 125.183 279.294 126.703 280.373 128.351C278.888 127.027 277.562 125.576 276.271 124.098C274.998 122.604 273.761 121.084 272.682 119.435Z" fill="#F9BBDE"/>
<path d="M245.457 87.8212C247.72 90.2379 249.921 92.6973 252.113 95.1653C254.314 97.6332 256.462 100.135 258.637 102.62L265.045 110.169C267.158 112.706 269.262 115.242 271.312 117.829C269.049 115.413 266.848 112.953 264.656 110.485L258.133 103.03C256.003 100.511 253.837 98.0175 251.724 95.4812C249.612 92.9535 247.508 90.4087 245.457 87.8212Z" fill="#F9BBDE"/>
<path d="M266.106 99.486C268.316 101.843 270.464 104.243 272.603 106.642C274.742 109.05 276.846 111.484 278.967 113.909L285.207 121.271C287.267 123.739 289.318 126.224 291.315 128.743C289.106 126.386 286.958 123.995 284.819 121.587L278.454 114.319C276.377 111.86 274.273 109.426 272.214 106.958C270.154 104.49 268.104 102.005 266.106 99.486Z" fill="#F9BBDE"/>
<path d="M274.432 96.9672C276.872 99.5888 279.25 102.253 281.619 104.926L288.672 112.996L295.611 121.16C297.901 123.901 300.181 126.642 302.409 129.435C299.969 126.813 297.591 124.149 295.222 121.476L288.169 113.406L281.23 105.242C278.94 102.501 276.66 99.7596 274.432 96.9672Z" fill="#F9BBDE"/>
<path d="M259.494 79.6315C260.758 80.8953 261.978 82.2104 263.18 83.5255C264.391 84.8406 265.558 86.1813 266.725 87.5305C267.882 88.8883 269.04 90.2376 270.154 91.6295C271.277 93.0129 272.391 94.4048 273.442 95.8395C272.17 94.5756 270.959 93.2605 269.756 91.9455C268.545 90.6304 267.379 89.2897 266.212 87.9404C265.054 86.5826 263.896 85.2334 262.782 83.8415C261.668 82.4581 260.555 81.0661 259.494 79.6315Z" fill="#F9BBDE"/>
<path d="M205.955 41.972C208.898 45.2342 211.771 48.5561 214.626 51.8866L223.156 61.9121C225.967 65.2767 228.831 68.6072 231.686 71.9377C234.541 75.2681 237.431 78.573 240.331 81.8693C237.228 78.7438 234.24 75.5158 231.297 72.2536C228.353 68.9829 225.498 65.6525 222.643 62.322C219.832 58.9574 217.004 55.5928 214.237 52.2025C211.462 48.7952 208.695 45.3964 205.955 41.972Z" fill="#F9BBDE"/>
<path d="M189.514 22.8864C190.857 24.2356 192.139 25.636 193.421 27.0364C194.702 28.4369 195.931 29.88 197.186 31.2975C198.406 32.7492 199.644 34.1838 200.837 35.6525C202.03 37.1213 203.223 38.5985 204.346 40.1185C203.003 38.7693 201.721 37.3689 200.439 35.9685C199.166 34.568 197.929 33.1249 196.674 31.7074C195.463 30.2557 194.216 28.8211 193.023 27.3524C191.839 25.8751 190.645 24.4063 189.514 22.8864Z" fill="#F9BBDE"/>
<path d="M195.957 18.8129L200.103 23.6975L204.293 28.5395C207.086 31.7674 209.897 34.9783 212.725 38.1807L229.741 57.3436C235.389 63.7483 241.055 70.153 246.589 76.6516C249.355 79.9052 252.096 83.1759 254.818 86.4636L258.849 91.4337L262.826 96.4379L258.716 91.5276L254.562 86.6515C251.786 83.4064 249.002 80.1699 246.191 76.959C240.569 70.5287 234.921 64.1325 229.228 57.7535C223.58 51.3488 217.896 44.9611 212.328 38.4881C209.543 35.2516 206.777 31.998 204.036 28.7273L199.97 23.7829L195.957 18.8129Z" fill="#F9BBDE"/>
<path d="M181.479 2.01453C182.672 3.19312 183.803 4.41441 184.935 5.64425C186.066 6.86554 187.162 8.121 188.25 9.38499C189.328 10.649 190.406 11.9215 191.449 13.2197C192.492 14.5178 193.536 15.816 194.517 17.1654C193.323 15.9868 192.192 14.7655 191.061 13.5357C189.929 12.3144 188.833 11.0589 187.746 9.79494C186.667 8.53094 185.589 7.2584 184.546 5.96025C183.503 4.66209 182.46 3.36393 181.479 2.01453Z" fill="#F9BBDE"/>
<path d="M210.489 62.1088C211.895 63.5263 213.247 64.9866 214.608 66.4383L218.666 70.8105L222.696 75.1997C224.04 76.6685 225.392 78.1288 226.709 79.6146C225.189 78.3081 223.748 76.9332 222.325 75.5328C220.902 74.1323 219.541 72.6806 218.171 71.2289C216.845 69.743 215.51 68.2742 214.228 66.7457C212.938 65.2427 211.683 63.6971 210.489 62.1088Z" fill="#F9BBDE"/>
<path d="M193.642 42.2538C194.95 43.586 196.196 44.9609 197.443 46.3529C198.689 47.7363 199.882 49.1539 201.102 50.5544C202.287 51.9891 203.489 53.4067 204.647 54.8499C205.805 56.3017 206.954 57.7535 208.05 59.2565C206.742 57.9243 205.495 56.5494 204.249 55.1574C203.011 53.7739 201.809 52.3563 200.589 50.9558C199.414 49.5211 198.203 48.1035 197.045 46.6603C195.887 45.2085 194.738 43.7482 193.642 42.2538Z" fill="#F9BBDE"/>
<path d="M173.895 19.1202C175.495 20.794 177.042 22.519 178.588 24.2441C180.126 25.9691 181.62 27.7368 183.141 29.4789C184.617 31.2551 186.119 33.0143 187.578 34.8077C189.036 36.601 190.486 38.4029 191.874 40.2474C190.265 38.5737 188.718 36.8486 187.18 35.1151C185.642 33.3901 184.148 31.6224 182.628 29.8803C181.152 28.104 179.649 26.3448 178.191 24.5515C176.741 22.7667 175.291 20.9648 173.895 19.1202Z" fill="#F9BBDE"/>
<path d="M159.018 2.27087C160.194 3.39816 161.317 4.56814 162.421 5.73813C163.535 6.90811 164.614 8.11226 165.692 9.31641C166.762 10.5291 167.822 11.7503 168.848 12.9972C169.882 14.244 170.898 15.4909 171.871 16.7889C170.695 15.6617 169.572 14.4917 168.467 13.3217C167.354 12.1517 166.275 10.9476 165.197 9.74341C164.136 8.53072 163.067 7.3095 162.041 6.06265C161.007 4.82434 159.982 3.56896 159.018 2.27087Z" fill="#F9BBDE"/>
<path d="M206.971 18.9327C208.659 20.7688 210.295 22.639 211.939 24.5007L216.845 30.1113C218.462 31.9986 220.115 33.8518 221.759 35.7134L226.709 41.2985C224.862 39.6076 223.103 37.8398 221.379 36.0465C219.656 34.2446 218.003 32.3915 216.341 30.5298C214.723 28.6425 213.106 26.7552 211.55 24.8167C209.977 22.8867 208.439 20.9311 206.971 18.9327Z" fill="#F9BBDE"/>
<path d="M193.129 2.27087C194.234 3.38963 195.277 4.55109 196.32 5.71255C197.363 6.87401 198.371 8.06963 199.378 9.26525C200.368 10.4694 201.367 11.6736 202.313 12.9119C203.268 14.1417 204.222 15.38 205.106 16.6696C204.001 15.5508 202.949 14.3893 201.915 13.2279C200.872 12.0664 199.864 10.8708 198.866 9.67518C197.876 8.47102 196.886 7.26686 195.931 6.02853C194.967 4.79875 194.022 3.56044 193.129 2.27087Z" fill="#F9BBDE"/>
<path d="M228.239 43.3385C230.952 46.2761 233.604 49.265 236.247 52.2538L244.123 61.2802L251.884 70.4004C254.447 73.4576 257.001 76.5233 259.503 79.6317C256.789 76.6941 254.138 73.7052 251.495 70.7164L243.619 61.6901L235.867 52.5698C233.295 49.5126 230.74 46.4469 228.239 43.3385Z" fill="#F9BBDE"/>
<path d="M171.597 2.08313C172.737 3.20183 173.824 4.37178 174.902 5.54172C175.99 6.71166 177.033 7.90723 178.076 9.11133C179.11 10.324 180.135 11.5281 181.134 12.7749C182.133 14.0131 183.123 15.2599 184.051 16.5494C182.911 15.4307 181.824 14.2608 180.745 13.0908C179.658 11.9209 178.615 10.7253 177.572 9.52124C176.538 8.30859 175.512 7.10449 174.514 5.85769C173.524 4.61943 172.534 3.37263 171.597 2.08313Z" fill="#F9BBDE"/>
<path d="M261.085 120.246C262.535 121.459 263.834 122.791 265.089 124.157C266.336 125.532 267.538 126.949 268.599 128.486C267.149 127.282 265.85 125.95 264.594 124.576C263.348 123.192 262.146 121.783 261.085 120.246Z" fill="#F9BBDE"/>
<path d="M244.105 100.383C245.457 101.766 246.757 103.192 248.047 104.627C249.338 106.062 250.584 107.531 251.848 108.982C253.077 110.468 254.323 111.929 255.534 113.432C256.745 114.935 257.938 116.438 259.087 117.992C257.735 116.609 256.436 115.182 255.145 113.748C253.855 112.313 252.608 110.844 251.335 109.392C250.107 107.906 248.852 106.446 247.65 104.943C246.447 103.44 245.245 101.928 244.105 100.383Z" fill="#F9BBDE"/>
<path d="M226.7 79.6315C228.097 81.0832 229.441 82.5862 230.775 84.0977C232.11 85.6007 233.401 87.1463 234.718 88.6749C235.991 90.2291 237.29 91.7663 238.536 93.3461C239.791 94.9174 241.029 96.4972 242.213 98.1198C240.817 96.6595 239.473 95.165 238.138 93.6535C236.804 92.142 235.513 90.6049 234.205 89.0763C232.932 87.5221 231.633 85.985 230.386 84.4137C229.131 82.8338 227.885 81.254 226.7 79.6315Z" fill="#F9BBDE"/>
<path d="M310.09 113.141C311.478 114.405 312.715 115.788 313.909 117.206C315.093 118.632 316.233 120.092 317.214 121.672C315.818 120.408 314.589 119.025 313.396 117.607C312.211 116.173 311.08 114.721 310.09 113.141Z" fill="#F9BBDE"/>
<path d="M296.159 96.9247C297.264 98.0006 298.307 99.1107 299.342 100.238C300.385 101.356 301.383 102.509 302.391 103.662C303.381 104.823 304.371 105.985 305.317 107.18C306.272 108.367 307.217 109.563 308.11 110.809C307.005 109.733 305.962 108.623 304.928 107.496C303.885 106.377 302.886 105.225 301.878 104.072C300.888 102.911 299.898 101.749 298.953 100.554C297.998 99.3669 297.052 98.1628 296.159 96.9247Z" fill="#F9BBDE"/>
<path d="M278.233 75.4303C279.674 76.9503 281.053 78.5131 282.423 80.0844C283.793 81.6557 285.119 83.2526 286.472 84.841C287.78 86.4549 289.115 88.0518 290.405 89.6914C291.696 91.3225 292.977 92.9621 294.197 94.653C292.756 93.1329 291.377 91.5787 290.007 90.0074C288.637 88.4361 287.302 86.8307 285.959 85.2508C284.651 83.6283 283.316 82.0314 282.025 80.4004C280.735 78.7522 279.453 77.1126 278.233 75.4303Z" fill="#F9BBDE"/>
<path d="M245.457 36.1825C248.18 39.2396 250.858 42.3394 253.519 45.4392L261.439 54.8069L269.244 64.2685C271.825 67.4366 274.397 70.6133 276.907 73.8326C274.176 70.7755 271.507 67.6757 268.846 64.5759L260.926 55.2082L253.13 45.7466C250.54 42.5785 247.968 39.4018 245.457 36.1825Z" fill="#F9BBDE"/>
<path d="M307.27 97.2582C308.198 98.1377 309.082 99.0514 309.949 99.9822C310.824 100.904 311.655 101.861 312.485 102.817C313.307 103.782 314.13 104.747 314.907 105.746C315.694 106.737 316.472 107.736 317.188 108.786C316.251 107.907 315.376 106.993 314.51 106.062C313.635 105.14 312.804 104.184 311.973 103.227C311.151 102.262 310.329 101.297 309.551 100.298C308.773 99.2991 307.995 98.3 307.27 97.2582Z" fill="#F9BBDE"/>
<path d="M289.229 75.5831C290.679 77.1203 292.067 78.6917 293.446 80.2716C294.825 81.8515 296.159 83.4656 297.521 85.0626C298.838 86.6938 300.181 88.2993 301.472 89.9475C302.771 91.5958 304.062 93.244 305.29 94.9435C303.85 93.4148 302.453 91.8349 301.074 90.255C299.695 88.6751 298.36 87.0525 296.999 85.4555C295.682 83.8243 294.339 82.2102 293.039 80.562C291.749 78.9308 290.458 77.2741 289.229 75.5831Z" fill="#F9BBDE"/>
<path d="M266.106 47.839C268.006 49.9056 269.854 52.0233 271.683 54.1411C273.522 56.2589 275.308 58.4194 277.128 60.5543C278.905 62.7234 280.699 64.8753 282.45 67.0614C284.2 69.2476 285.95 71.4337 287.629 73.671C285.729 71.6045 283.882 69.4867 282.052 67.3689C280.213 65.2511 278.428 63.0906 276.607 60.9557C274.83 58.7866 273.036 56.6347 271.286 54.4486C269.544 52.271 267.794 50.0763 266.106 47.839Z" fill="#F9BBDE"/>
<path d="M300.623 75.7211C302.091 77.224 303.505 78.7611 304.91 80.3152C306.316 81.8694 307.677 83.4492 309.065 85.0204C310.408 86.6172 311.778 88.2056 313.104 89.8195C314.43 91.4334 315.747 93.0559 317.002 94.7296C315.535 93.2267 314.121 91.6896 312.715 90.1355C311.31 88.5813 309.949 87.0015 308.561 85.4303C307.217 83.8249 305.847 82.2451 304.53 80.6312C303.195 79.0172 301.878 77.3948 300.623 75.7211Z" fill="#F9BBDE"/>
<path d="M277.968 49.4271C279.789 51.3314 281.557 53.287 283.307 55.2425C285.066 57.1981 286.781 59.1963 288.513 61.169C290.211 63.1757 291.925 65.1654 293.605 67.1893C295.276 69.2132 296.946 71.2456 298.555 73.3207C296.734 71.4164 294.966 69.4608 293.207 67.5053C291.448 65.5497 289.733 63.5515 288.001 61.5788C286.304 59.5721 284.589 57.5824 282.909 55.5585C281.248 53.5346 279.586 51.5108 277.968 49.4271Z" fill="#F9BBDE"/>
<path d="M261.342 30.1278C262.703 31.5026 264.011 32.9201 265.31 34.3461C266.61 35.7721 267.865 37.2323 269.138 38.6754C270.375 40.1527 271.63 41.6043 272.85 43.0987C274.07 44.593 275.272 46.0874 276.421 47.6329C275.06 46.2581 273.752 44.8407 272.453 43.4146C271.153 41.9886 269.898 40.5284 268.625 39.0853C267.388 37.608 266.132 36.1564 264.913 34.6621C263.702 33.1677 262.491 31.6734 261.342 30.1278Z" fill="#F9BBDE"/>
<path d="M215.492 1.39246C217.667 3.70666 219.788 6.0721 221.892 8.44608C224.005 10.8115 226.073 13.2197 228.159 15.6022L234.311 22.8608C236.335 25.2945 238.36 27.7368 240.322 30.2218C238.147 27.9076 236.026 25.5422 233.913 23.1682L227.646 16.0035C225.596 13.5869 223.527 11.1873 221.494 8.74496C219.479 6.32828 217.455 3.88599 215.492 1.39246Z" fill="#F9BBDE"/>
<path d="M225.817 1.29797L230.563 6.64379L235.266 12.0238L244.573 22.8435L253.766 33.7657L258.318 39.2567L262.818 44.799L258.071 39.4617L253.368 34.0817L244.061 23.2534L234.868 12.3312L230.316 6.8402L225.817 1.29797Z" fill="#F9BBDE"/>
<path d="M219.435 19.0011C220.937 20.2564 222.263 21.6739 223.501 23.1683C224.712 24.6712 225.843 26.2595 226.7 27.9845C225.401 26.5328 224.199 25.047 222.979 23.5611C221.777 22.0667 220.548 20.5894 219.435 19.0011Z" fill="#F9BBDE"/>
<path d="M203.975 2.30579L207.404 5.98621L210.869 9.62394C212.018 10.8451 213.185 12.0491 214.317 13.2873C215.448 14.5255 216.58 15.7722 217.64 17.0702C216.376 15.943 215.165 14.7902 213.945 13.6203C212.726 12.459 211.55 11.2635 210.383 10.0509C209.234 8.82979 208.094 7.5916 207.015 6.30217C205.946 5.02128 204.903 3.69769 203.975 2.30579Z" fill="#F9BBDE"/>
<path d="M236.521 1.30652C238.669 3.33041 240.702 5.46531 242.673 7.64291C244.653 9.82051 246.545 12.0664 248.445 14.3038L254.005 21.127L259.503 27.9928C257.47 25.8664 255.525 23.6632 253.607 21.4344C251.689 19.2141 249.833 16.9425 247.932 14.7052C246.076 12.4336 244.185 10.1963 242.293 7.95887C240.392 5.7215 238.466 3.50974 236.521 1.30652Z" fill="#F9BBDE"/>
<path d="M313.988 76.079C314.775 76.5999 315.411 77.249 316.012 77.9237C316.596 78.6155 317.144 79.3329 317.524 80.1783C316.728 79.6574 316.101 79.0083 315.5 78.3336C314.925 77.6419 314.377 76.9245 313.988 76.079Z" fill="#F9BBDE"/>
<path d="M290.776 49.649C292.641 51.5705 294.462 53.5346 296.265 55.5158C298.069 57.4884 299.836 59.5038 301.622 61.4935C303.372 63.5174 305.14 65.5243 306.864 67.5652C308.587 69.6062 310.302 71.6557 311.964 73.7479C310.09 71.8265 308.278 69.8624 306.475 67.8812C304.671 65.9085 302.904 63.9017 301.118 61.9034C299.377 59.8795 297.609 57.8727 295.876 55.8318C294.153 53.7908 292.438 51.7413 290.776 49.649Z" fill="#F9BBDE"/>
<path d="M249.002 0.905151L254.138 6.65241L259.211 12.4424L269.297 24.0906L279.259 35.8242L284.2 41.7337L289.079 47.6774L283.944 41.9301L278.861 36.1402L268.784 24.4919L258.822 12.7498L253.881 6.84882L249.002 0.905151Z" fill="#F9BBDE"/>
<path d="M286.021 96.7882C288.469 99.4269 290.856 102.108 293.242 104.798L300.323 112.919L307.288 121.134C309.586 123.893 311.884 126.651 314.112 129.46C311.663 126.822 309.277 124.14 306.89 121.45L299.81 113.329L292.845 105.114C290.546 102.356 288.257 99.5977 286.021 96.7882Z" fill="#F9BBDE"/>
<path d="M267.732 75.6185C269.253 77.1641 270.711 78.7608 272.161 80.3661C273.619 81.9629 275.025 83.6024 276.457 85.2248C277.853 86.8728 279.268 88.5037 280.638 90.1773C282.008 91.8424 283.369 93.516 284.677 95.2408C283.157 93.6953 281.698 92.0985 280.249 90.4932C278.799 88.8879 277.385 87.257 275.953 85.6346C274.565 83.9866 273.142 82.3557 271.772 80.6821C270.402 79.017 269.041 77.3434 267.732 75.6185Z" fill="#F9BBDE"/>
<path d="M226.7 27.9845C228.309 29.9144 229.927 31.8273 231.562 33.7316L236.468 39.4445C239.756 43.2361 243.053 47.0191 246.385 50.7765L256.294 62.117L261.2 67.8299L266.009 73.6198L255.905 62.433L245.882 51.1864C242.585 47.3948 239.288 43.6118 236.079 39.752C234.479 37.822 232.888 35.875 231.315 33.928C229.759 31.9554 228.221 29.9742 226.7 27.9845Z" fill="#F9BBDE"/>
<path d="M315.279 49.8885C315.791 50.0332 316.162 50.3224 316.507 50.6456C316.834 50.9774 317.117 51.3432 317.258 51.8451C316.737 51.6919 316.365 51.4112 316.03 51.088C315.712 50.7562 315.429 50.3904 315.279 49.8885Z" fill="#F9BBDE"/>
<path d="M293.278 24.338C295.072 26.2167 296.822 28.1466 298.555 30.0765C300.287 32.0064 301.976 33.979 303.69 35.926C305.361 37.9072 307.058 39.8713 308.711 41.8695C310.364 43.8677 312.008 45.8745 313.59 47.924C311.787 46.0453 310.046 44.1154 308.313 42.1854C306.581 40.2555 304.892 38.2829 303.178 36.3359C301.507 34.3548 299.81 32.3907 298.157 30.3925C296.504 28.3943 294.86 26.3875 293.278 24.338Z" fill="#F9BBDE"/>
<path d="M307.314 16.1483C308.782 17.4549 310.09 18.8896 311.363 20.3499C312.618 21.8272 313.838 23.3302 314.899 24.9613C313.431 23.6547 312.123 22.2201 310.85 20.7598C309.595 19.2824 308.384 17.7794 307.314 16.1483Z" fill="#F9BBDE"/>
<path d="M273.142 0.96521C274.494 2.33154 275.794 3.74056 277.084 5.16666C278.375 6.58422 279.621 8.03594 280.894 9.47058C282.123 10.9394 283.378 12.3911 284.589 13.8684C285.8 15.3543 287.002 16.8402 288.142 18.3773C286.79 17.011 285.491 15.602 284.191 14.1759C282.901 12.7583 281.654 11.3066 280.381 9.87194C279.153 8.40314 277.898 6.95142 276.687 5.46554C275.484 3.99674 274.282 2.50233 273.142 0.96521Z" fill="#F9BBDE"/>
<path d="M282.998 0.862427C285.428 3.43281 287.762 6.08858 290.069 8.76143C292.385 11.4343 294.63 14.1498 296.92 16.8312C299.165 19.5468 301.445 22.2367 303.726 24.9352C306.006 27.6251 308.313 30.298 310.629 32.9623C308.101 30.4773 305.697 27.8813 303.337 25.2511C300.977 22.621 298.696 19.9225 296.407 17.2326L289.68 9.06885L282.998 0.862427Z" fill="#F9BBDE"/>
<path d="M260.767 0.5802C262.013 1.79288 263.216 3.04825 264.4 4.31216C265.593 5.56754 266.742 6.86561 267.892 8.15515C269.032 9.45323 270.172 10.7598 271.268 12.0921C272.373 13.4243 273.469 14.7565 274.512 16.1486C273.266 14.9359 272.072 13.6805 270.879 12.4166C269.686 11.1527 268.537 9.86314 267.388 8.57361C266.247 7.26699 265.107 5.96892 264.011 4.62814C262.906 3.30445 261.81 1.96367 260.767 0.5802Z" fill="#F9BBDE"/>
<path d="M293.41 -0.00012207C294.453 1.00758 295.443 2.05797 296.424 3.10837C297.406 4.15877 298.351 5.24332 299.297 6.32788C300.234 7.42098 301.162 8.51408 302.055 9.64133C302.957 10.76 303.841 11.8958 304.671 13.0658C303.628 12.0581 302.638 11.0077 301.657 9.9573C300.676 8.90691 299.73 7.82235 298.785 6.73779C297.856 5.6447 296.919 4.5516 296.027 3.42434C295.125 2.30563 294.241 1.17837 293.41 -0.00012207Z" fill="#F9BBDE"/>
<path d="M303.408 49.6918C304.813 51.1178 306.157 52.5866 307.5 54.0639C308.844 55.5412 310.134 57.0526 311.46 58.5385C312.742 60.067 314.041 61.5699 315.296 63.107C316.552 64.6526 317.807 66.1982 319 67.7865C317.595 66.3604 316.242 64.8917 314.907 63.4229C313.564 61.9456 312.273 60.4342 310.947 58.9484C309.666 57.4198 308.366 55.9169 307.111 54.3713C305.856 52.8342 304.61 51.2801 303.408 49.6918Z" fill="#F9BBDE"/>
<path d="M274.521 16.1483C276.89 18.6931 279.215 21.2892 281.522 23.8938L288.39 31.7418L295.134 39.6923C297.362 42.3567 299.58 45.0296 301.746 47.7538C299.368 45.209 297.052 42.6129 294.745 40.0083L287.886 32.1517L281.141 24.2013C278.896 21.5369 276.678 18.8639 274.521 16.1483Z" fill="#F9BBDE"/>
<path d="M305.37 0.324585C306.43 1.34926 307.429 2.41663 308.419 3.484C309.418 4.55136 310.373 5.65289 311.327 6.75442C312.273 7.86448 313.219 8.97454 314.121 10.1188C315.031 11.2544 315.933 12.3987 316.772 13.5941C315.721 12.578 314.722 11.5106 313.723 10.4347C312.724 9.36733 311.769 8.26581 310.815 7.16429C309.869 6.05422 308.923 4.94416 308.022 3.79994C307.12 2.65572 306.218 1.5115 305.37 0.324585Z" fill="#F9BBDE"/>
</g>
</svg>
