<svg width="319" height="130" viewBox="0 0 319 130" fill="none" xmlns="http://www.w3.org/2000/svg">
<g opacity="0.3">
<path d="M67.1342 119.776C68.1949 120.613 69.0965 121.57 69.9627 122.552C70.8113 123.551 71.6245 124.584 72.2786 125.737C71.2179 124.9 70.3163 123.944 69.45 122.962C68.6015 121.962 67.7883 120.929 67.1342 119.776Z" fill="#F9BBDE"/>
<path d="M53.9901 104.508C55.0155 105.498 55.9878 106.523 56.9513 107.565C57.9236 108.598 58.8517 109.666 59.7798 110.733C60.6991 111.809 61.6096 112.885 62.4935 113.995C63.3774 115.097 64.2525 116.207 65.0657 117.368C64.0403 116.386 63.068 115.353 62.1046 114.311C61.1322 113.278 60.2041 112.211 59.276 111.143C58.3567 110.067 57.4463 108.991 56.5712 107.881C55.6784 106.779 54.8033 105.669 53.9901 104.508Z" fill="#F9BBDE"/>
<path d="M62.1135 103.013L66.9221 108.641C68.5397 110.503 70.1484 112.373 71.7925 114.217L76.6541 119.802C78.2628 121.681 79.8627 123.56 81.3919 125.499C79.6506 123.731 77.9535 121.937 76.2652 120.127C74.5769 118.317 72.9328 116.472 71.2798 114.627C69.6711 112.749 68.0535 110.878 66.5155 108.948C64.9863 107.018 63.4924 105.054 62.1135 103.013Z" fill="#F9BBDE"/>
<path d="M42.0042 79.0596C43.8339 80.5967 45.5487 82.2619 47.2016 83.9784C48.8546 85.7034 50.4015 87.5053 51.9306 89.3242C53.4156 91.1773 54.8918 93.039 56.2972 94.9433C57.7027 96.8476 59.0816 98.7776 60.3987 100.742C58.8606 98.9313 57.3756 97.0782 55.8906 95.2336C54.4056 93.3891 52.9383 91.5274 51.418 89.717C49.933 87.8725 48.3949 86.0792 46.8304 84.2944C45.257 82.5181 43.6394 80.7846 42.0042 79.0596Z" fill="#F9BBDE"/>
<path d="M54.9182 119.965C55.9789 120.742 56.8894 121.639 57.7645 122.578C58.6219 123.526 59.4439 124.499 60.1157 125.618C59.055 124.849 58.1445 123.944 57.2695 123.005C56.4032 122.057 55.5812 121.075 54.9182 119.965Z" fill="#F9BBDE"/>
<path d="M40.4485 103.167C41.5357 104.234 42.5787 105.353 43.6041 106.471C44.6383 107.59 45.6283 108.734 46.6183 109.879C47.5994 111.032 48.5718 112.193 49.5176 113.38C50.4634 114.567 51.4003 115.754 52.2754 117.001C51.1882 115.933 50.154 114.823 49.1286 113.704C48.0944 112.586 47.1045 111.441 46.1145 110.289C45.1333 109.127 44.1521 107.974 43.2152 106.779C42.2605 105.6 41.3236 104.405 40.4485 103.167Z" fill="#F9BBDE"/>
<path d="M0.875122 55.8486C2.43967 57.7274 4.0219 59.589 5.60412 61.4507L10.3596 67.0356L19.9149 78.1628C23.0705 81.8947 26.2615 85.6094 29.3729 89.3754L34.0047 95.0543L38.5127 100.827L33.7483 95.2507L28.9751 89.6829L19.4022 78.5642C16.2466 74.8323 13.0645 71.1176 9.96188 67.3345L5.34779 61.6385C3.84511 59.7256 2.35128 57.7957 0.875122 55.8486Z" fill="#F9BBDE"/>
<path d="M49.9065 75.0291C51.692 76.9676 53.4687 78.9231 55.2277 80.8873L60.4164 86.8565C63.846 90.853 67.2049 94.9179 70.5904 98.9486C73.9404 103.014 77.3259 107.036 80.7467 111.049C82.4526 113.056 84.1763 115.046 85.9176 117.027C87.6501 119.017 89.4003 120.981 91.177 122.937C89.3207 121.058 87.491 119.153 85.6701 117.241C83.8758 115.302 82.1079 113.346 80.3577 111.374C76.8574 107.429 73.472 103.389 70.0777 99.3585L60.0186 87.1724L54.9802 81.0922C53.3008 79.0512 51.6125 77.0359 49.9065 75.0291Z" fill="#F9BBDE"/>
<path d="M0.097168 17.5232L6.24045 24.3549L12.3307 31.2293L24.4316 45.038C28.4182 49.675 32.4489 54.2864 36.4 58.9576L42.3223 65.9687L48.1916 73.0225L42.0748 66.1737L36.0111 59.2736L23.919 45.4479L11.9418 31.5453L5.99295 24.5599L0.097168 17.5232Z" fill="#F9BBDE"/>
<path d="M0 30.2988L19.0486 51.4686C22.1777 55.0382 25.3156 58.5992 28.3475 62.2457C29.859 64.0731 31.3528 65.9092 32.8378 67.7623C34.2963 69.6325 35.7283 71.5197 37.1426 73.4155C35.6399 71.5795 34.1195 69.7606 32.5815 67.9587C31.0523 66.1483 29.5143 64.3464 27.9586 62.5616C24.8472 58.9835 21.7181 55.4139 18.5536 51.8871C15.4245 48.3175 12.2512 44.7906 9.14863 41.204L4.51686 35.7984C2.99651 33.9794 1.49383 32.1434 0 30.2988Z" fill="#F9BBDE"/>
<path d="M28.4183 74.8237C30.195 76.6855 31.9275 78.5899 33.6423 80.503C35.3572 82.416 37.0366 84.3631 38.7338 86.2932C40.3867 88.2574 42.0662 90.1961 43.7014 92.1774C45.3367 94.1587 46.9631 96.14 48.5365 98.1726C46.751 96.3108 45.0273 94.4064 43.3125 92.4934C41.5977 90.5804 39.9182 88.6332 38.2299 86.7031C36.577 84.7389 34.8975 82.8003 33.2623 80.8189C31.6093 78.8376 29.9829 76.8563 28.4183 74.8237Z" fill="#F9BBDE"/>
<path d="M0.884033 42.8601C3.13804 45.2683 5.33902 47.7277 7.53116 50.1957C9.72329 52.6552 11.8712 55.1573 14.0457 57.6338L20.4365 65.1743C22.5491 67.7021 24.644 70.2384 26.6947 72.8259C24.4407 70.4177 22.2397 67.9583 20.0475 65.4903L13.533 58.0437C11.4028 55.533 9.24597 53.0394 7.14223 50.5031C5.02965 47.9754 2.9259 45.4391 0.884033 42.8601Z" fill="#F9BBDE"/>
<path d="M109.925 117.804C111.419 119.085 112.762 120.503 114.062 121.946C115.352 123.406 116.607 124.892 117.703 126.506C116.21 125.216 114.866 123.807 113.567 122.364C112.276 120.913 111.03 119.427 109.925 117.804Z" fill="#F9BBDE"/>
<path d="M125.809 111.749C126.72 112.603 127.577 113.491 128.417 114.397C129.265 115.293 130.078 116.224 130.892 117.155C131.687 118.094 132.492 119.034 133.252 120.007C134.012 120.972 134.772 121.946 135.47 122.971C134.56 122.125 133.703 121.229 132.863 120.323C132.014 119.427 131.201 118.496 130.388 117.565C129.592 116.626 128.788 115.686 128.028 114.713C127.268 113.748 126.507 112.774 125.809 111.749Z" fill="#F9BBDE"/>
<path d="M72.7383 74.6367C75.8674 77.3266 78.7313 80.2896 81.4626 83.3467C84.194 86.4122 86.7662 89.6058 89.3296 92.7995L96.9137 102.449C99.4594 105.651 102.058 108.802 104.798 111.859C101.855 108.981 99.15 105.899 96.5159 102.756C93.8818 99.6137 91.3714 96.3859 88.8081 93.1923C86.2889 89.973 83.7255 86.7879 81.0825 83.6711C78.4308 80.5458 75.6729 77.5144 72.7383 74.6367Z" fill="#F9BBDE"/>
<path d="M55.9967 55.1995C57.3845 56.6085 58.7192 58.0603 60.0451 59.5121C61.371 60.9724 62.6527 62.4669 63.9609 63.9358C65.2249 65.4388 66.5154 66.9333 67.7529 68.4534C68.9993 69.982 70.2279 71.5107 71.4124 73.082C70.0246 71.6729 68.6899 70.2212 67.364 68.7694C66.0381 67.3091 64.7564 65.8146 63.4482 64.3457C62.1842 62.8341 60.8937 61.3482 59.6562 59.8281C58.4098 58.308 57.1812 56.7793 55.9967 55.1995Z" fill="#F9BBDE"/>
<path d="M66.6393 55.0803L73.861 63.543L80.9677 72.0997L95.0929 89.2728C99.7953 95.0028 104.56 100.673 109.404 106.292L113.054 110.494L116.749 114.661L120.47 118.803L124.245 122.893L120.347 118.905L116.502 114.866L112.736 110.758L109.015 106.608C104.091 101.049 99.318 95.37 94.5802 89.6656C89.8777 83.9355 85.2106 78.1799 80.57 72.3986L66.6393 55.0803Z" fill="#F9BBDE"/>
<path d="M44.6117 30.145C46.4503 31.8956 48.2181 33.7059 49.9683 35.5419C51.7185 37.3778 53.3979 39.265 55.0951 41.1351C56.748 43.0479 58.4186 44.9522 60.0274 46.8992C61.6361 48.8461 63.2272 50.8102 64.7475 52.8254C63.015 50.9809 61.3267 49.0938 59.6384 47.2151L54.6001 41.5535L49.5882 35.8664C47.9264 33.9706 46.2558 32.0749 44.6117 30.145Z" fill="#F9BBDE"/>
<path d="M61.3357 74.9268C63.9698 77.6935 66.5509 80.5115 69.1142 83.3381C71.6776 86.1646 74.188 89.0424 76.6983 91.9116C79.1733 94.815 81.6571 97.7099 84.0703 100.656C86.4834 103.602 88.87 106.574 91.1682 109.614L76.1856 92.3215L68.7165 83.654C66.2415 80.7592 63.7576 77.8643 61.3357 74.9268Z" fill="#F9BBDE"/>
<path d="M22.0361 29.3511L31.3174 40.222C34.4288 43.8342 37.5225 47.4464 40.6693 51.0331L50.0389 61.8271L54.7149 67.2412L59.3378 72.6895L54.4674 67.4461L49.65 62.1516C46.4502 58.6162 43.3034 55.0296 40.1566 51.443C37.054 47.8222 33.9426 44.21 30.9196 40.5294L26.4204 34.9872L22.0361 29.3511Z" fill="#F9BBDE"/>
<path d="M0.609863 4.4834C2.38655 6.33644 4.11021 8.24072 5.81619 10.145C7.531 12.0493 9.19278 13.9963 10.8899 15.9176C12.5429 17.8731 14.2135 19.8116 15.8487 21.7842C17.4752 23.7568 19.1016 25.7379 20.6661 27.7617C18.8894 25.9087 17.1658 24.0044 15.4598 22.1001C13.745 20.1958 12.0832 18.2489 10.3861 16.3275C8.73314 14.372 7.06252 12.4336 5.4361 10.461C3.80084 8.48836 2.17441 6.50723 0.609863 4.4834Z" fill="#F9BBDE"/>
<path d="M77.9181 55.4651C79.1998 56.6265 80.4284 57.8476 81.6306 59.0944C82.8416 60.3326 83.9907 61.6135 85.1221 62.9286C86.2358 64.2437 87.3231 65.5844 88.3307 66.9849C89.3473 68.3768 90.3107 69.8029 91.1681 71.2888C90.0809 69.9481 89.0202 68.5989 87.9241 67.2838C86.8281 65.9687 85.732 64.6451 84.6094 63.3385L81.2505 59.4274C80.1279 58.1123 79.0053 56.8058 77.9181 55.4651Z" fill="#F9BBDE"/>
<path d="M55.4133 29.769C56.969 31.793 58.5601 33.7828 60.1954 35.7299C61.8395 37.677 63.4924 39.6155 65.2161 41.4943C66.8955 43.4158 68.6369 45.2775 70.3605 47.1733C72.0753 49.0606 73.8078 50.9479 75.4696 52.8865C73.6045 51.1273 71.7836 49.3254 69.9804 47.5064C68.1861 45.6788 66.4447 43.8086 64.7122 41.9213C63.0239 39.9998 61.3533 38.0613 59.7976 36.0373C58.2331 34.0134 56.7481 31.9382 55.4133 29.769Z" fill="#F9BBDE"/>
<path d="M30.0447 1.32422C32.1219 3.44197 34.1373 5.61096 36.1526 7.77995C38.168 9.94894 40.1303 12.1606 42.1279 14.3467C44.0814 16.5669 46.0526 18.7701 47.9795 21.0074C49.9065 23.2447 51.8335 25.4905 53.6985 27.7876C51.6213 25.6698 49.606 23.5094 47.5906 21.3319C45.5753 19.1629 43.6129 16.9512 41.6153 14.7651C39.6618 12.5449 37.6906 10.3418 35.7548 8.09591C33.8367 5.8586 31.9098 3.61276 30.0447 1.32422Z" fill="#F9BBDE"/>
<path d="M20.233 2.14404C21.7445 3.69823 23.203 5.29512 24.6527 6.89201C26.1023 8.49743 27.5077 10.137 28.9397 11.751C30.3275 13.4076 31.7418 15.0387 33.1118 16.7039C34.4819 18.3776 35.8432 20.0514 37.1425 21.7678C35.631 20.2136 34.1725 18.6167 32.7141 17.0199C31.2644 15.4144 29.859 13.7748 28.427 12.1609C27.0393 10.5042 25.625 8.87317 24.2549 7.20797C22.8936 5.53423 21.5324 3.86048 20.233 2.14404Z" fill="#F9BBDE"/>
<path d="M104.913 87.4968C106.61 89.2559 108.245 91.0577 109.872 92.8681C111.498 94.6784 113.089 96.5229 114.698 98.3503C116.263 100.212 117.854 102.048 119.401 103.927C120.947 105.805 122.486 107.684 123.971 109.614C122.273 107.855 120.638 106.053 119.012 104.243C117.385 102.432 115.794 100.588 114.185 98.7602C112.621 96.8987 111.03 95.0627 109.483 93.184C107.936 91.3054 106.398 89.4267 104.913 87.4968Z" fill="#F9BBDE"/>
<path d="M92.7062 73.3208C93.6873 74.2602 94.6155 75.2338 95.5347 76.2244C96.4629 77.2065 97.3468 78.2228 98.2307 79.239C99.1058 80.2638 99.9721 81.2886 100.812 82.3476C101.652 83.398 102.482 84.4569 103.251 85.5671C102.27 84.6363 101.342 83.6542 100.423 82.6635C99.4947 81.6814 98.6108 80.6652 97.7269 79.6489C96.8518 78.6241 95.9855 77.5993 95.1547 76.5404C94.3061 75.49 93.484 74.431 92.7062 73.3208Z" fill="#F9BBDE"/>
<path d="M33.8455 29.488C35.1713 30.8202 36.4442 32.2036 37.7082 33.5956C38.9722 34.979 40.1921 36.4052 41.4384 37.8057C42.6405 39.2403 43.8692 40.6579 45.0536 42.1097C46.2381 43.5614 47.4137 45.0217 48.5275 46.5247C47.2016 45.1925 45.9287 43.809 44.6647 42.4256C43.4007 41.0422 42.1809 39.6161 40.9346 38.2156C39.7324 36.7809 38.5038 35.3633 37.3281 33.9116C36.1437 32.4513 34.968 30.991 33.8455 29.488Z" fill="#F9BBDE"/>
<path d="M11.7739 3.85962C13.5771 5.74688 15.3273 7.68538 17.0686 9.62388C18.81 11.5624 20.5071 13.5436 22.2308 15.4991C23.9102 17.4889 25.6162 19.4615 27.278 21.4684C28.9398 23.4752 30.5927 25.4905 32.1838 27.5486C30.3806 25.6613 28.6304 23.7228 26.8891 21.7843C25.1477 19.8458 23.4506 17.8646 21.7269 15.9091C20.0475 13.9193 18.3415 11.9467 16.6886 9.93984C15.0179 7.93303 13.365 5.91767 11.7739 3.85962Z" fill="#F9BBDE"/>
<path d="M117.474 87.2063C120.002 90.0585 122.477 92.9533 124.934 95.8567L132.253 104.61L139.457 113.456C141.835 116.42 144.204 119.391 146.52 122.414C143.992 119.562 141.526 116.667 139.059 113.764L131.74 105.011L124.536 96.1641C122.159 93.1924 119.79 90.2207 117.474 87.2063Z" fill="#F9BBDE"/>
<path d="M109.925 78.394C111.18 79.4614 112.276 80.6483 113.337 81.8693C114.38 83.0989 115.387 84.3626 116.236 85.7544C114.981 84.6871 113.885 83.5002 112.824 82.2792C111.781 81.0496 110.773 79.7859 109.925 78.394Z" fill="#F9BBDE"/>
<path d="M89.6478 54.8511C91.0179 56.2344 92.3261 57.6604 93.6343 59.0949C94.9425 60.5294 96.1977 61.9981 97.4794 63.4412C98.7257 64.9269 99.9898 66.3871 101.21 67.8899C102.429 69.3928 103.649 70.8956 104.798 72.4412C103.428 71.0579 102.12 69.6319 100.812 68.1973C99.5124 66.7628 98.2484 65.2941 96.9667 63.8425C95.7292 62.3567 94.4564 60.8966 93.2366 59.3938C92.0167 57.908 90.8058 56.4052 89.6478 54.8511Z" fill="#F9BBDE"/>
<path d="M53.9901 13.4587C56.7303 16.8319 59.5942 20.1026 62.5377 23.305C65.4812 26.5074 68.46 29.6842 71.4476 32.8524C74.4 36.0548 77.3611 39.2572 80.1632 42.5876C82.9652 45.9181 85.6523 49.3511 88.0301 52.9719C85.4314 49.4963 82.6558 46.1572 79.7742 42.9036C76.8926 39.65 73.9403 36.4561 70.9527 33.2794C68.0092 30.077 65.0127 26.9002 62.1487 23.621C59.2848 20.3503 56.5093 16.9942 53.9901 13.4587Z" fill="#F9BBDE"/>
<path d="M43.5509 1.34009C44.5851 2.1429 45.4602 3.06529 46.2911 4.02183C47.1131 4.98692 47.8998 5.99471 48.5274 7.11353C47.4932 6.31071 46.6181 5.38833 45.7872 4.43178C44.9652 3.46669 44.1785 2.45891 43.5509 1.34009Z" fill="#F9BBDE"/>
<path d="M91.1682 109.615C92.4411 110.93 93.652 112.279 94.8542 113.637C96.0563 114.995 97.2143 116.387 98.3987 117.761C99.539 119.171 100.706 120.554 101.828 121.98C102.951 123.406 104.065 124.832 105.117 126.31C103.844 125.003 102.633 123.654 101.431 122.288C100.228 120.93 99.0617 119.529 97.8772 118.154C96.7369 116.745 95.5702 115.353 94.4476 113.927C93.3427 112.518 92.2289 111.083 91.1682 109.615Z" fill="#F9BBDE"/>
<path d="M1.72351 112.424C2.66047 113.278 3.5444 114.183 4.41949 115.089C5.30341 115.994 6.14314 116.933 6.98287 117.864C7.81376 118.812 8.64465 119.76 9.43135 120.742C10.2269 121.715 11.0136 122.697 11.7384 123.73C10.8014 122.877 9.91751 121.971 9.04242 121.066C8.15849 120.161 7.31877 119.222 6.47903 118.291C5.64814 117.343 4.82609 116.395 4.03056 115.413C3.24386 114.431 2.45717 113.449 1.72351 112.424Z" fill="#F9BBDE"/>
<path d="M1.61768 98.7095C3.45624 100.639 5.24177 102.612 7.01846 104.585C8.79515 106.566 10.5276 108.581 12.2867 110.571C14.0015 112.595 15.7428 114.61 17.4399 116.651C19.1371 118.701 20.8254 120.751 22.4518 122.843C20.6132 120.913 18.8277 118.94 17.0422 116.967C15.2655 114.986 13.533 112.971 11.774 110.981C10.0592 108.949 8.31783 106.942 6.62069 104.901C4.9324 102.86 3.2441 100.802 1.61768 98.7095Z" fill="#F9BBDE"/>
<path d="M31.0789 119.836C31.8037 120.28 32.3782 120.852 32.9086 121.457C33.4301 122.072 33.9074 122.72 34.2256 123.488C33.5008 123.044 32.9263 122.473 32.3959 121.867C31.8832 121.244 31.4059 120.604 31.0789 119.836Z" fill="#F9BBDE"/>
<path d="M16.0433 102.372C17.2278 103.542 18.3592 104.763 19.4818 105.985C20.6132 107.206 21.7005 108.453 22.7877 109.708C23.8661 110.972 24.9356 112.227 25.9787 113.525C27.0217 114.815 28.0559 116.113 29.0282 117.454C27.8437 116.284 26.7123 115.062 25.5897 113.841C24.4583 112.62 23.3711 111.373 22.2838 110.118C21.2055 108.854 20.1359 107.599 19.0929 106.301C18.0498 105.011 17.0245 103.713 16.0433 102.372Z" fill="#F9BBDE"/>
<path d="M1.65295 85.6609C2.84625 86.8393 3.97768 88.0605 5.1091 89.2817C6.24053 90.5028 7.33659 91.7581 8.42382 93.0134C9.50221 94.2773 10.5806 95.5411 11.6236 96.8392C12.6667 98.1286 13.7009 99.4352 14.682 100.776C13.4887 99.5974 12.3573 98.3763 11.2259 97.1551C10.0944 95.934 8.99838 94.6786 7.91115 93.4233C6.83276 92.1595 5.75437 90.8956 4.71134 89.5976C3.66831 88.3081 2.62527 87.0101 1.65295 85.6609Z" fill="#F9BBDE"/>
<path d="M43.1709 119.119C44.0902 119.802 44.8592 120.605 45.5929 121.442C46.3088 122.287 46.9806 123.167 47.5021 124.174C46.5829 123.491 45.8138 122.688 45.0802 121.851C44.373 121.006 43.6924 120.126 43.1709 119.119Z" fill="#F9BBDE"/>
<path d="M29.0104 102.595C30.186 103.756 31.2997 104.969 32.4135 106.182C33.5272 107.394 34.6056 108.632 35.684 109.879C36.7447 111.134 37.8143 112.381 38.8308 113.671C39.8561 114.952 40.8815 116.241 41.845 117.573C40.6693 116.412 39.5556 115.199 38.4419 113.987C37.3281 112.774 36.2497 111.536 35.1713 110.289C34.1106 109.034 33.0499 107.787 32.0246 106.498C30.9992 105.217 29.9739 103.927 29.0104 102.595Z" fill="#F9BBDE"/>
<path d="M0.698364 69.5547C2.99657 72.0312 5.2329 74.5418 7.46924 77.0695L14.0987 84.6953L20.6132 92.4151C22.7612 95.0026 24.9091 97.5986 26.9863 100.246C24.6881 97.7779 22.4518 95.2587 20.2154 92.731L13.586 85.1052L7.07147 77.3855C4.92353 74.7894 2.78443 72.1934 0.698364 69.5547Z" fill="#F9BBDE"/>
<path d="M141.26 87.5649L149.657 97.5307L158.09 107.462L166.54 117.377C169.351 120.69 172.18 123.987 174.955 127.334C171.968 124.166 169.051 120.938 166.151 117.693C163.252 114.448 160.415 111.16 157.577 107.864C154.784 104.542 151.982 101.211 149.26 97.8296C146.537 94.4565 143.85 91.0406 141.26 87.5649Z" fill="#F9BBDE"/>
<path d="M109.828 51.0857C112.427 53.8951 114.963 56.7387 117.491 59.5993L125.022 68.2239L132.43 76.9424C134.878 79.8628 137.318 82.7918 139.704 85.772C137.106 82.9626 134.569 80.119 132.041 77.2584L124.51 68.6338L117.102 59.9152C114.654 56.9863 112.214 54.0573 109.828 51.0857Z" fill="#F9BBDE"/>
<path d="M130.485 62.7397L137.716 70.6902L144.893 78.6748L159.168 94.7209L173.329 110.861L180.365 118.965L187.348 127.112L180.118 119.17L172.94 111.177L158.665 95.1309L144.504 78.9908L137.468 70.8866L130.485 62.7397Z" fill="#F9BBDE"/>
<path d="M123.873 42.8853C125.553 44.6871 127.303 46.4463 129.071 48.1713L134.436 53.3122C135.302 54.3369 135.276 55.7118 136.071 56.5487L138.75 59.1106L144.124 64.2343L144.133 64.2429L144.142 64.2514C147.563 68.3334 150.93 72.458 154.431 76.4716C157.922 80.4938 161.564 84.3879 165.382 88.1026L165.391 88.1112L165.4 88.1197C170.88 94.6867 176.476 101.151 182.071 107.624L199.007 126.924C193.182 120.639 187.392 114.328 181.709 107.923C175.998 101.544 170.43 95.0454 164.905 88.5125L164.923 88.5382C161.051 84.832 157.436 80.8866 153.953 76.8474C150.471 72.8081 147.103 68.6835 143.726 64.5674L143.744 64.5845L138.44 59.3924L135.789 56.7878C134.887 55.763 134.94 54.3881 134.18 53.5086L128.947 48.2738C127.215 46.5146 125.517 44.7298 123.873 42.8853Z" fill="#F9BBDE"/>
<path d="M66.6393 0.991211L71.5274 6.40525L76.3536 11.8705L85.9265 22.8523L95.3846 33.9366L100.069 39.5043L104.701 45.1233L99.8219 39.7093L94.9868 34.2525L85.4139 23.2622L75.9647 12.1779L71.2799 6.61019L66.6393 0.991211Z" fill="#F9BBDE"/>
<path d="M76.548 0.905273L83.0006 8.15537L89.4091 15.4482L102.129 30.0935L114.725 44.8413L120.983 52.2451L127.188 59.6917L120.735 52.4501L114.336 45.1573L101.616 30.5034L89.0202 15.7641L82.7531 8.35178L76.548 0.905273Z" fill="#F9BBDE"/>
<path d="M54.6443 0.588867C57.7999 4.02183 60.8583 7.53164 63.899 11.05L72.9415 21.6819C75.9204 25.2515 78.9346 28.7955 81.9488 32.3309C84.9629 35.8749 88.0125 39.3847 91.0885 42.886C87.8092 39.564 84.6624 36.1311 81.5598 32.6554C78.4572 29.1798 75.4519 25.6358 72.4289 22.0918L63.5101 11.366L54.6443 0.588867Z" fill="#F9BBDE"/>
<path d="M88.3395 1.37476C88.9936 1.7408 89.4974 2.23454 89.9659 2.75382C90.4167 3.29013 90.8233 3.85197 91.0796 4.5415C90.4255 4.17545 89.9217 3.68172 89.4532 3.16244C89.0024 2.62613 88.5958 2.06429 88.3395 1.37476Z" fill="#F9BBDE"/>
<path d="M117.916 35.9685C119.109 36.9591 120.152 38.0777 121.151 39.2219C122.141 40.3833 123.087 41.5702 123.873 42.8853C122.68 41.8947 121.637 40.7761 120.638 39.6318C119.657 38.4705 118.702 37.2835 117.916 35.9685Z" fill="#F9BBDE"/>
<path d="M92.6089 6.59277C94.7038 8.81304 96.7368 11.0846 98.7698 13.3646C100.803 15.6361 102.783 17.9503 104.798 20.2389C106.769 22.5616 108.758 24.8673 110.703 27.2071C112.647 29.547 114.592 31.8953 116.475 34.2864C114.38 32.0661 112.347 29.7946 110.314 27.5146C108.281 25.2345 106.301 22.9288 104.286 20.6403C102.314 18.3175 100.326 16.0118 98.3809 13.6635C96.4363 11.3407 94.4916 8.99237 92.6089 6.59277Z" fill="#F9BBDE"/>
<path d="M160.972 124.747C161.502 124.96 161.882 125.292 162.218 125.658C162.545 126.041 162.828 126.449 162.961 126.985C162.43 126.773 162.05 126.441 161.714 126.075C161.387 125.692 161.104 125.283 160.972 124.747Z" fill="#F9BBDE"/>
<path d="M129.575 87.5825L136.92 96.3186L144.283 105.029L151.655 113.74C154.112 116.643 156.57 119.546 158.983 122.493C156.358 119.726 153.803 116.899 151.266 114.055C148.729 111.212 146.254 108.325 143.771 105.43C141.331 102.51 138.891 99.5893 136.522 96.6175C134.153 93.6542 131.82 90.6483 129.575 87.5825Z" fill="#F9BBDE"/>
<path d="M91.0708 42.8853C92.7326 44.559 94.3767 46.2499 96.0031 47.9664C97.603 49.6914 99.1852 51.442 100.759 53.2012C103.888 56.7281 106.893 60.349 109.916 63.9613L118.861 74.875C120.346 76.694 121.858 78.5044 123.369 80.2977C124.872 82.1081 126.392 83.9015 127.939 85.6777C126.313 83.9698 124.713 82.2448 123.122 80.4941C121.557 78.735 120.002 76.9587 118.464 75.1739C115.396 71.6043 112.418 67.9578 109.395 64.3541C106.416 60.7162 103.402 57.1039 100.37 53.5087C98.8493 51.7153 97.3113 49.9305 95.7644 48.1628C94.2264 46.3865 92.6619 44.6274 91.0708 42.8853Z" fill="#F9BBDE"/>
<path d="M140.606 36.2932L146.891 43.4068L153.069 50.6142C157.171 55.4306 161.193 60.3067 165.241 65.1658L189.24 94.5251L183.008 87.3689L176.865 80.1358C172.79 75.3024 168.768 70.4177 164.728 65.5586L140.606 36.2932Z" fill="#F9BBDE"/>
<path d="M112.188 2.05884C114.61 4.58651 116.943 7.20811 119.233 9.8468C121.531 12.4855 123.75 15.1839 125.977 17.8739C128.169 20.5979 130.37 23.3049 132.527 26.0461C134.684 28.7872 136.841 31.5369 138.953 34.3123C136.62 31.6992 134.366 29.0264 132.12 26.3535L125.447 18.2667L118.826 10.1542L112.188 2.05884Z" fill="#F9BBDE"/>
<path d="M224.27 119.402C225.728 120.682 227.027 122.083 228.291 123.517C229.538 124.96 230.749 126.438 231.809 128.043C230.351 126.762 229.052 125.362 227.788 123.927C226.541 122.484 225.33 121.007 224.27 119.402Z" fill="#F9BBDE"/>
<path d="M207.767 100.469C209.128 101.827 210.445 103.236 211.745 104.653C213.044 106.062 214.308 107.514 215.59 108.94C216.827 110.4 218.091 111.843 219.311 113.329C220.531 114.807 221.742 116.292 222.9 117.83C221.53 116.472 220.221 115.063 218.922 113.654C217.623 112.245 216.359 110.793 215.086 109.367C213.848 107.907 212.584 106.463 211.364 104.978C210.136 103.492 208.925 102.006 207.767 100.469Z" fill="#F9BBDE"/>
<path d="M174.169 61.749C176.9 64.6953 179.578 67.6842 182.248 70.6817L190.194 79.7253L198.017 88.8629C200.607 91.9287 203.179 94.9945 205.707 98.1116C202.976 95.1653 200.298 92.1764 197.628 89.1789L189.682 80.1352L181.859 70.9976C179.269 67.9318 176.697 64.8661 174.169 61.749Z" fill="#F9BBDE"/>
<path d="M152.38 36.3442C154.13 38.1802 155.827 40.059 157.515 41.9462C159.204 43.8335 160.848 45.7549 162.51 47.6592C164.136 49.5977 165.78 51.5105 167.389 53.4661C168.989 55.4217 170.589 57.3772 172.127 59.384C170.377 57.548 168.679 55.6693 166.991 53.7821C165.303 51.8948 163.659 49.9734 161.997 48.0691C160.371 46.1306 158.726 44.2177 157.118 42.2622C155.509 40.3066 153.918 38.3425 152.38 36.3442Z" fill="#F9BBDE"/>
<path d="M130.485 11.1023C131.908 13.2542 133.499 15.2866 135.179 17.2336C136.867 19.1807 138.608 21.085 140.42 22.938C142.188 24.8253 144.018 26.6612 145.777 28.5741C147.536 30.4784 149.26 32.4254 150.789 34.509C149.048 32.5876 147.236 30.7431 145.406 28.9071L139.943 23.3735C138.175 21.4778 136.407 19.5735 134.79 17.5411C133.172 15.5087 131.67 13.3823 130.485 11.1023Z" fill="#F9BBDE"/>
<path d="M235.681 119.657C237.113 120.887 238.395 122.244 239.632 123.636C240.861 125.037 242.045 126.471 243.08 128.034C241.648 126.804 240.366 125.447 239.128 124.055C237.909 122.646 236.715 121.211 235.681 119.657Z" fill="#F9BBDE"/>
<path d="M218.303 99.9734C219.682 101.331 221.008 102.732 222.325 104.141C223.642 105.55 224.915 106.993 226.205 108.419C227.461 109.879 228.733 111.323 229.971 112.8C231.208 114.277 232.428 115.763 233.604 117.292C232.225 115.934 230.899 114.534 229.582 113.125C228.265 111.716 226.992 110.272 225.702 108.846C224.446 107.386 223.165 105.943 221.936 104.465C220.699 102.988 219.47 101.502 218.303 99.9734Z" fill="#F9BBDE"/>
<path d="M187.498 65.106C189.991 67.7277 192.431 70.392 194.87 73.0735L202.101 81.1521L209.216 89.3246C211.568 92.0659 213.91 94.8157 216.199 97.6082C213.707 94.9865 211.258 92.3221 208.827 89.6491L201.597 81.5705L194.481 73.398C192.13 70.6482 189.788 67.8984 187.498 65.106Z" fill="#F9BBDE"/>
<path d="M247.862 119.725C249.32 121.057 250.628 122.518 251.892 124.003C253.139 125.506 254.359 127.035 255.41 128.692C253.952 127.359 252.644 125.899 251.38 124.413C250.125 122.91 248.914 121.382 247.862 119.725Z" fill="#F9BBDE"/>
<path d="M230.616 100.093C232.039 101.408 233.392 102.791 234.726 104.192C236.061 105.584 237.343 107.035 238.633 108.462C239.889 109.922 241.153 111.382 242.364 112.877C243.575 114.371 244.777 115.874 245.917 117.428C244.565 116.045 243.265 114.619 241.975 113.193L238.13 108.88L234.346 104.516C233.091 103.056 231.836 101.596 230.616 100.093Z" fill="#F9BBDE"/>
<path d="M221.627 90.9639C222.97 91.9544 224.181 93.0815 225.348 94.2428C226.506 95.4127 227.628 96.6252 228.592 97.9658C227.239 96.9753 226.037 95.8482 224.871 94.6869C223.721 93.5085 222.599 92.3045 221.627 90.9639Z" fill="#F9BBDE"/>
<path d="M190.203 96.0027L197.663 103.927L205.168 111.818C207.643 114.474 210.136 117.104 212.575 119.802C215.006 122.492 217.41 125.216 219.7 128.026L204.682 112.253C202.207 109.598 199.714 106.959 197.292 104.26C194.861 101.553 192.475 98.8207 190.203 96.0027Z" fill="#F9BBDE"/>
<path d="M167.566 41.9634C168.936 43.3468 170.244 44.773 171.543 46.1991C172.852 47.6338 174.107 49.1027 175.389 50.5459C176.635 52.0233 177.899 53.4921 179.119 54.9866C180.339 56.4811 181.55 57.9926 182.707 59.5383C181.337 58.1549 180.029 56.7287 178.73 55.3026C177.43 53.8679 176.166 52.4076 174.885 50.9558C173.647 49.4699 172.374 48.0096 171.155 46.5151C169.935 45.0206 168.724 43.5176 167.566 41.9634Z" fill="#F9BBDE"/>
<path d="M133.119 2.271L141.49 11.5879L149.808 20.9475C152.548 24.0987 155.297 27.2328 158.002 30.4182C160.698 33.6035 163.367 36.8059 165.948 40.0767L157.613 30.7341L149.313 21.366C146.582 18.2148 143.815 15.0807 141.11 11.9039C138.396 8.72708 135.718 5.5332 133.119 2.271Z" fill="#F9BBDE"/>
<path d="M122.167 2.21143C123.201 3.02262 124.094 3.96189 124.934 4.92678C125.765 5.90875 126.56 6.91633 127.197 8.052C126.154 7.24081 125.27 6.30154 124.43 5.33665C123.59 4.35468 122.804 3.34709 122.167 2.21143Z" fill="#F9BBDE"/>
<path d="M197.221 61.9968C199.308 64.2257 201.349 66.5058 203.374 68.7859C205.398 71.066 207.378 73.3888 209.384 75.686C211.347 78.0174 213.335 80.3317 215.28 82.6801C217.225 85.0285 219.16 87.3855 221.034 89.7852C218.94 87.5563 216.906 85.2762 214.882 82.9961C212.858 80.7159 210.878 78.3931 208.872 76.0959C206.909 73.7646 204.92 71.4503 202.976 69.1019C201.031 66.7535 199.095 64.405 197.221 61.9968Z" fill="#F9BBDE"/>
<path d="M180.1 42.0229C181.399 43.3381 182.655 44.696 183.892 46.0623C185.13 47.4287 186.323 48.8293 187.543 50.2128C188.718 51.6304 189.92 53.0224 191.078 54.4571C192.236 55.8918 193.385 57.3265 194.481 58.8125C193.173 57.4973 191.927 56.1395 190.689 54.7731C189.452 53.4067 188.25 52.0062 187.039 50.6227C185.863 49.2051 184.661 47.813 183.503 46.3783C182.345 44.9436 181.196 43.5089 180.1 42.0229Z" fill="#F9BBDE"/>
<path d="M145.591 2.00854C148.429 5.09976 151.213 8.22514 153.997 11.3676L162.262 20.8377L170.412 30.4017C173.108 33.6039 175.795 36.8147 178.42 40.0767C175.583 36.994 172.79 33.8601 170.014 30.7176L161.749 21.2475L153.6 11.6836C150.913 8.47278 148.225 5.26201 145.591 2.00854Z" fill="#F9BBDE"/>
<path d="M129.698 36.0798L136.116 43.2873L142.48 50.5374L155.129 65.0974L167.654 79.7599L173.877 87.1211L180.047 94.5334L173.63 87.326L167.265 80.0759L154.616 65.5073L142.091 50.8534L135.868 43.4837L129.698 36.0798Z" fill="#F9BBDE"/>
<path d="M99.8129 1.63135L107.256 9.59031C109.731 12.2461 112.161 14.9361 114.601 17.6347C116.996 20.3588 119.392 23.083 121.699 25.8925C123.997 28.6935 126.242 31.5458 128.328 34.5005C126.012 31.708 123.679 28.9412 121.301 26.2085C118.923 23.4758 116.537 20.7516 114.097 18.0616L106.867 9.92335C104.48 7.18212 102.102 4.44943 99.8129 1.63135Z" fill="#F9BBDE"/>
<path d="M272.682 119.436C274.167 120.759 275.493 122.211 276.784 123.688C278.057 125.183 279.294 126.703 280.373 128.351C278.888 127.027 277.562 125.576 276.271 124.098C274.998 122.604 273.761 121.084 272.682 119.436Z" fill="#F9BBDE"/>
<path d="M245.457 87.8213C247.72 90.238 249.921 92.6974 252.113 95.1654C254.314 97.6333 256.462 100.135 258.637 102.62L265.045 110.17C267.158 112.706 269.262 115.242 271.312 117.83C269.049 115.413 266.848 112.953 264.656 110.486L258.133 103.03C256.003 100.511 253.837 98.0176 251.724 95.4813C249.612 92.9536 247.508 90.4088 245.457 87.8213Z" fill="#F9BBDE"/>
<path d="M266.106 99.4861C268.316 101.843 270.464 104.243 272.603 106.642C274.742 109.05 276.846 111.484 278.967 113.91L285.207 121.271C287.267 123.739 289.318 126.224 291.315 128.743C289.106 126.386 286.958 123.995 284.819 121.587L278.454 114.319C276.377 111.86 274.273 109.426 272.214 106.958C270.154 104.49 268.104 102.005 266.106 99.4861Z" fill="#F9BBDE"/>
<path d="M274.432 96.9673C276.872 99.5889 279.25 102.253 281.619 104.926L288.672 112.996L295.611 121.16C297.901 123.901 300.181 126.642 302.409 129.435C299.969 126.813 297.591 124.149 295.222 121.476L288.169 113.406L281.23 105.242C278.94 102.501 276.66 99.7597 274.432 96.9673Z" fill="#F9BBDE"/>
<path d="M259.494 79.6316C260.758 80.8954 261.978 82.2105 263.18 83.5256C264.391 84.8407 265.558 86.1814 266.725 87.5306C267.882 88.8884 269.04 90.2377 270.154 91.6296C271.277 93.013 272.391 94.405 273.442 95.8396C272.17 94.5758 270.959 93.2607 269.756 91.9456C268.545 90.6305 267.379 89.2898 266.212 87.9405C265.054 86.5828 263.896 85.2335 262.782 83.8416C261.668 82.4582 260.555 81.0662 259.494 79.6316Z" fill="#F9BBDE"/>
<path d="M205.955 41.9722C208.898 45.2343 211.771 48.5562 214.626 51.8867L223.156 61.9122C225.967 65.2768 228.831 68.6073 231.686 71.9378C234.541 75.2682 237.431 78.5731 240.331 81.8694C237.228 78.7439 234.24 75.5159 231.297 72.2537C228.353 68.9831 225.498 65.6526 222.643 62.3221C219.832 58.9575 217.004 55.5929 214.237 52.2027C211.462 48.7953 208.695 45.3966 205.955 41.9722Z" fill="#F9BBDE"/>
<path d="M189.514 22.8865C190.857 24.2357 192.139 25.6361 193.421 27.0365C194.702 28.437 195.931 29.8801 197.186 31.2976C198.406 32.7493 199.644 34.1839 200.837 35.6526C202.03 37.1214 203.223 38.5987 204.346 40.1187C203.003 38.7695 201.721 37.369 200.439 35.9686C199.166 34.5681 197.929 33.125 196.674 31.7075C195.463 30.2558 194.216 28.8212 193.023 27.3525C191.839 25.8752 190.645 24.4065 189.514 22.8865Z" fill="#F9BBDE"/>
<path d="M195.957 18.813L200.103 23.6976L204.293 28.5396C207.086 31.7676 209.897 34.9785 212.725 38.1808L229.741 57.3437C235.389 63.7484 241.055 70.1531 246.589 76.6517C249.355 79.9053 252.096 83.176 254.818 86.4637L258.849 91.4338L262.826 96.438L258.716 91.5277L254.562 86.6516C251.786 83.4065 249.002 80.17 246.191 76.9592C240.569 70.5288 234.921 64.1327 229.228 57.7536C223.58 51.3489 217.896 44.9613 212.328 38.4882C209.543 35.2517 206.777 31.9981 204.036 28.7275L199.97 23.783L195.957 18.813Z" fill="#F9BBDE"/>
<path d="M181.479 2.01465C182.672 3.19324 183.803 4.41453 184.935 5.64437C186.066 6.86566 187.162 8.12112 188.25 9.38511C189.328 10.6491 190.406 11.9216 191.449 13.2198C192.492 14.518 193.536 15.8161 194.517 17.1655C193.323 15.9869 192.192 14.7656 191.061 13.5358C189.929 12.3145 188.833 11.0591 187.746 9.79506C186.667 8.53106 185.589 7.25853 184.546 5.96037C183.503 4.66221 182.46 3.36405 181.479 2.01465Z" fill="#F9BBDE"/>
<path d="M210.489 62.1089C211.895 63.5264 213.247 64.9867 214.608 66.4384L218.666 70.8106L222.696 75.1999C224.04 76.6686 225.392 78.1289 226.709 79.6147C225.189 78.3082 223.748 76.9334 222.325 75.5329C220.902 74.1324 219.541 72.6807 218.171 71.229C216.845 69.7432 215.51 68.2744 214.228 66.7458C212.938 65.2429 211.683 63.6972 210.489 62.1089Z" fill="#F9BBDE"/>
<path d="M193.642 42.2539C194.95 43.5861 196.196 44.961 197.443 46.353C198.689 47.7364 199.882 49.154 201.102 50.5546C202.287 51.9892 203.489 53.4068 204.647 54.8501C205.805 56.3018 206.954 57.7536 208.05 59.2566C206.742 57.9244 205.495 56.5495 204.249 55.1575C203.011 53.7741 201.809 52.3565 200.589 50.9559C199.414 49.5213 198.203 48.1036 197.045 46.6604C195.887 45.2087 194.738 43.7484 193.642 42.2539Z" fill="#F9BBDE"/>
<path d="M173.895 19.1204C175.495 20.7941 177.042 22.5192 178.588 24.2442C180.126 25.9692 181.62 27.7369 183.141 29.479C184.617 31.2553 186.119 33.0144 187.578 34.8078C189.036 36.6011 190.486 38.403 191.874 40.2476C190.265 38.5738 188.718 36.8488 187.18 35.1152C185.642 33.3902 184.148 31.6225 182.628 29.8804C181.152 28.1041 179.649 26.3449 178.191 24.5516C176.741 22.7668 175.291 20.9649 173.895 19.1204Z" fill="#F9BBDE"/>
<path d="M159.018 2.271C160.194 3.39828 161.317 4.56826 162.421 5.73825C163.535 6.90824 164.614 8.11238 165.692 9.31653C166.762 10.5292 167.822 11.7504 168.848 12.9973C169.882 14.2441 170.898 15.491 171.871 16.7891C170.695 15.6618 169.572 14.4918 168.467 13.3218C167.354 12.1518 166.275 10.9477 165.197 9.74353C164.136 8.53084 163.067 7.30962 162.041 6.06277C161.007 4.82447 159.982 3.56908 159.018 2.271Z" fill="#F9BBDE"/>
<path d="M206.971 18.9329C208.659 20.7689 210.295 22.6391 211.939 24.5008L216.845 30.1115C218.462 31.9987 220.115 33.8519 221.759 35.7136L226.709 41.2986C224.862 39.6077 223.103 37.84 221.379 36.0466C219.656 34.2447 218.003 32.3916 216.341 30.5299C214.723 28.6426 213.106 26.7553 211.55 24.8168C209.977 22.8868 208.439 20.9312 206.971 18.9329Z" fill="#F9BBDE"/>
<path d="M193.129 2.271C194.234 3.38975 195.277 4.55121 196.32 5.71267C197.363 6.87413 198.371 8.06975 199.378 9.26537C200.368 10.4695 201.367 11.6737 202.313 12.912C203.268 14.1418 204.222 15.3801 205.106 16.6697C204.001 15.5509 202.949 14.3895 201.915 13.228C200.872 12.0665 199.864 10.8709 198.866 9.6753C197.876 8.47114 196.886 7.26698 195.931 6.02866C194.967 4.79888 194.022 3.56056 193.129 2.271Z" fill="#F9BBDE"/>
<path d="M228.239 43.3386C230.952 46.2762 233.604 49.2651 236.247 52.2539L244.123 61.2803L251.884 70.4006C254.447 73.4577 257.001 76.5234 259.503 79.6318C256.789 76.6942 254.138 73.7054 251.495 70.7165L243.619 61.6902L235.867 52.5699C233.295 49.5127 230.74 46.447 228.239 43.3386Z" fill="#F9BBDE"/>
<path d="M171.597 2.08325C172.737 3.20196 173.824 4.3719 174.902 5.54184C175.99 6.71179 177.033 7.90735 178.076 9.11145C179.11 10.3241 180.135 11.5282 181.134 12.775C182.133 14.0133 183.123 15.2601 184.051 16.5496C182.911 15.4309 181.824 14.2609 180.745 13.091C179.658 11.921 178.615 10.7255 177.572 9.52136C176.538 8.30872 175.512 7.10462 174.514 5.85782C173.524 4.61955 172.534 3.37275 171.597 2.08325Z" fill="#F9BBDE"/>
<path d="M261.085 120.246C262.535 121.459 263.834 122.791 265.089 124.157C266.336 125.532 267.538 126.95 268.599 128.487C267.149 127.283 265.85 125.95 264.594 124.576C263.348 123.192 262.146 121.783 261.085 120.246Z" fill="#F9BBDE"/>
<path d="M244.105 100.383C245.457 101.766 246.757 103.192 248.047 104.627C249.338 106.062 250.584 107.531 251.848 108.983C253.077 110.469 254.323 111.929 255.534 113.432C256.745 114.935 257.938 116.438 259.087 117.992C257.735 116.609 256.436 115.183 255.145 113.748C253.855 112.313 252.608 110.844 251.335 109.392C250.107 107.907 248.852 106.446 247.65 104.943C246.447 103.44 245.245 101.929 244.105 100.383Z" fill="#F9BBDE"/>
<path d="M226.7 79.6316C228.097 81.0833 229.441 82.5863 230.775 84.0978C232.11 85.6008 233.401 87.1465 234.718 88.675C235.991 90.2293 237.29 91.7664 238.536 93.3462C239.791 94.9175 241.029 96.4973 242.213 98.1199C240.817 96.6596 239.473 95.1652 238.138 93.6536C236.804 92.1421 235.513 90.605 234.205 89.0764C232.932 87.5222 231.633 85.9851 230.386 84.4138C229.131 82.834 227.885 81.2541 226.7 79.6316Z" fill="#F9BBDE"/>
<path d="M310.09 113.142C311.478 114.405 312.715 115.789 313.909 117.206C315.093 118.632 316.233 120.092 317.214 121.672C315.818 120.408 314.589 119.025 313.396 117.607C312.211 116.173 311.08 114.721 310.09 113.142Z" fill="#F9BBDE"/>
<path d="M296.159 96.9248C297.264 98.0007 298.307 99.1108 299.342 100.238C300.385 101.357 301.383 102.509 302.391 103.662C303.381 104.823 304.371 105.985 305.317 107.18C306.272 108.367 307.217 109.563 308.11 110.809C307.005 109.733 305.962 108.623 304.928 107.496C303.885 106.378 302.886 105.225 301.878 104.072C300.888 102.911 299.898 101.749 298.953 100.554C297.998 99.367 297.052 98.163 296.159 96.9248Z" fill="#F9BBDE"/>
<path d="M278.233 75.4304C279.674 76.9505 281.053 78.5132 282.423 80.0845C283.793 81.6558 285.119 83.2527 286.472 84.8411C287.78 86.4551 289.115 88.052 290.405 89.6916C291.696 91.3226 292.977 92.9622 294.197 94.6531C292.756 93.133 291.377 91.5788 290.007 90.0075C288.637 88.4363 287.302 86.8308 285.959 85.251C284.651 83.6284 283.316 82.0315 282.025 80.4005C280.735 78.7523 279.453 77.1127 278.233 75.4304Z" fill="#F9BBDE"/>
<path d="M245.457 36.1826C248.18 39.2397 250.858 42.3395 253.519 45.4393L261.439 54.807L269.244 64.2687C271.825 67.4368 274.397 70.6134 276.907 73.8328C274.176 70.7757 271.507 67.6759 268.846 64.5761L260.926 55.2084L253.13 45.7467C250.54 42.5786 247.968 39.402 245.457 36.1826Z" fill="#F9BBDE"/>
<path d="M307.27 97.2583C308.198 98.1379 309.082 99.0516 309.949 99.9823C310.824 100.905 311.655 101.861 312.485 102.817C313.307 103.782 314.13 104.747 314.907 105.746C315.694 106.737 316.472 107.736 317.188 108.786C316.251 107.907 315.376 106.993 314.51 106.062C313.635 105.14 312.804 104.184 311.973 103.227C311.151 102.262 310.329 101.297 309.551 100.298C308.773 99.2992 307.995 98.3001 307.27 97.2583Z" fill="#F9BBDE"/>
<path d="M289.229 75.5833C290.679 77.1205 292.067 78.6918 293.446 80.2717C294.825 81.8517 296.159 83.4657 297.521 85.0627C298.838 86.6939 300.181 88.2994 301.472 89.9477C302.771 91.5959 304.062 93.2441 305.29 94.9436C303.85 93.4149 302.453 91.835 301.074 90.2551C299.695 88.6752 298.36 87.0526 296.999 85.4556C295.682 83.8244 294.339 82.2103 293.039 80.5621C291.749 78.931 290.458 77.2742 289.229 75.5833Z" fill="#F9BBDE"/>
<path d="M266.106 47.8391C268.006 49.9057 269.854 52.0235 271.683 54.1413C273.522 56.2591 275.308 58.4196 277.128 60.5544C278.905 62.7235 280.699 64.8754 282.45 67.0616C284.2 69.2477 285.95 71.4338 287.629 73.6711C285.729 71.6046 283.882 69.4868 282.052 67.369C280.213 65.2512 278.428 63.0907 276.607 60.9558C274.83 58.7868 273.036 56.6348 271.286 54.4487C269.544 52.2711 267.794 50.0765 266.106 47.8391Z" fill="#F9BBDE"/>
<path d="M300.623 75.7212C302.091 77.2241 303.505 78.7612 304.91 80.3154C306.316 81.8695 307.677 83.4493 309.065 85.0205C310.408 86.6174 311.778 88.2057 313.104 89.8196C314.43 91.4336 315.747 93.056 317.002 94.7297C315.535 93.2268 314.121 91.6897 312.715 90.1356C311.31 88.5814 309.949 87.0016 308.561 85.4304C307.217 83.825 305.847 82.2452 304.53 80.6313C303.195 79.0174 301.878 77.3949 300.623 75.7212Z" fill="#F9BBDE"/>
<path d="M277.968 49.4272C279.789 51.3316 281.557 53.2871 283.307 55.2427C285.066 57.1982 286.781 59.1964 288.513 61.1691C290.211 63.1759 291.925 65.1656 293.605 67.1894C295.276 69.2133 296.946 71.2457 298.555 73.3208C296.734 71.4165 294.966 69.4609 293.207 67.5054C291.448 65.5498 289.733 63.5516 288.001 61.579C286.304 59.5722 284.589 57.5825 282.909 55.5586C281.248 53.5348 279.586 51.5109 277.968 49.4272Z" fill="#F9BBDE"/>
<path d="M261.342 30.1279C262.703 31.5027 264.011 32.9202 265.31 34.3462C266.61 35.7723 267.865 37.2324 269.138 38.6756C270.375 40.1528 271.63 41.6045 272.85 43.0988C274.07 44.5931 275.272 46.0875 276.421 47.6331C275.06 46.2583 273.752 44.8408 272.453 43.4147C271.153 41.9887 269.898 40.5285 268.625 39.0854C267.388 37.6082 266.132 36.1565 264.913 34.6622C263.702 33.1678 262.491 31.6735 261.342 30.1279Z" fill="#F9BBDE"/>
<path d="M215.492 1.39258C217.667 3.70678 219.788 6.07222 221.892 8.4462C224.005 10.8116 226.073 13.2198 228.159 15.6023L234.311 22.8609C236.335 25.2946 238.36 27.7369 240.322 30.2219C238.147 27.9077 236.026 25.5423 233.913 23.1683L227.646 16.0037C225.596 13.587 223.527 11.1874 221.494 8.74508C219.479 6.32841 217.455 3.88611 215.492 1.39258Z" fill="#F9BBDE"/>
<path d="M225.817 1.2981L230.563 6.64391L235.266 12.0239L244.573 22.8436L253.766 33.7658L258.318 39.2568L262.818 44.7991L258.071 39.4618L253.368 34.0818L244.061 23.2535L234.868 12.3313L230.316 6.84033L225.817 1.2981Z" fill="#F9BBDE"/>
<path d="M219.435 19.0012C220.937 20.2565 222.263 21.674 223.501 23.1684C224.712 24.6714 225.843 26.2597 226.7 27.9846C225.401 26.5329 224.199 25.0471 222.979 23.5612C221.777 22.0668 220.548 20.5895 219.435 19.0012Z" fill="#F9BBDE"/>
<path d="M203.975 2.30591L207.404 5.98633L210.869 9.62407C212.018 10.8452 213.185 12.0492 214.317 13.2874C215.448 14.5256 216.58 15.7723 217.64 17.0703C216.376 15.9431 215.165 14.7903 213.945 13.6204C212.726 12.4591 211.55 11.2636 210.383 10.051C209.234 8.82991 208.094 7.59172 207.015 6.30229C205.946 5.0214 204.903 3.69781 203.975 2.30591Z" fill="#F9BBDE"/>
<path d="M236.521 1.30664C238.669 3.33053 240.702 5.46543 242.673 7.64303C244.653 9.82063 246.545 12.0665 248.445 14.3039L254.005 21.1271L259.503 27.9929C257.47 25.8666 255.525 23.6633 253.607 21.4345C251.689 19.2142 249.833 16.9427 247.932 14.7053C246.076 12.4337 244.185 10.1964 242.293 7.959C240.392 5.72162 238.466 3.50986 236.521 1.30664Z" fill="#F9BBDE"/>
<path d="M313.988 76.0791C314.775 76.6001 315.411 77.2491 316.012 77.9238C316.596 78.6156 317.144 79.333 317.524 80.1785C316.728 79.6575 316.101 79.0084 315.5 78.3338C314.925 77.642 314.377 76.9246 313.988 76.0791Z" fill="#F9BBDE"/>
<path d="M290.776 49.6492C292.641 51.5706 294.462 53.5347 296.265 55.5159C298.069 57.4886 299.836 59.5039 301.622 61.4937C303.372 63.5176 305.14 65.5244 306.864 67.5653C308.587 69.6063 310.302 71.6558 311.964 73.748C310.09 71.8266 308.278 69.8625 306.475 67.8813C304.671 65.9087 302.904 63.9018 301.118 61.9036C299.377 59.8797 297.609 57.8729 295.876 55.8319C294.153 53.7909 292.438 51.7414 290.776 49.6492Z" fill="#F9BBDE"/>
<path d="M249.002 0.905273L254.138 6.65253L259.211 12.4425L269.297 24.0907L279.259 35.8243L284.2 41.7338L289.079 47.6775L283.944 41.9302L278.861 36.1403L268.784 24.4921L258.822 12.7499L253.881 6.84894L249.002 0.905273Z" fill="#F9BBDE"/>
<path d="M286.021 96.7883C288.469 99.427 290.856 102.108 293.242 104.798L300.323 112.919L307.288 121.134C309.586 123.893 311.884 126.651 314.112 129.46C311.663 126.822 309.277 124.14 306.89 121.45L299.81 113.329L292.845 105.114C290.546 102.356 288.257 99.5978 286.021 96.7883Z" fill="#F9BBDE"/>
<path d="M267.732 75.6187C269.253 77.1642 270.711 78.761 272.161 80.3663C273.619 81.963 275.025 83.6025 276.457 85.2249C277.853 86.8729 279.268 88.5038 280.638 90.1774C282.008 91.8425 283.369 93.5161 284.677 95.241C283.157 93.6954 281.698 92.0987 280.249 90.4934C278.799 88.8881 277.385 87.2571 275.953 85.6347C274.565 83.9867 273.142 82.3558 271.772 80.6822C270.402 79.0171 269.041 77.3435 267.732 75.6187Z" fill="#F9BBDE"/>
<path d="M226.7 27.9846C228.309 29.9146 229.927 31.8274 231.562 33.7317L236.468 39.4447C239.756 43.2362 243.053 47.0192 246.385 50.7766L256.294 62.1171L261.2 67.8301L266.009 73.6199L255.905 62.4331L245.882 51.1865C242.585 47.395 239.288 43.612 236.079 39.7521C234.479 37.8222 232.888 35.8751 231.315 33.9281C229.759 31.9555 228.221 29.9743 226.7 27.9846Z" fill="#F9BBDE"/>
<path d="M315.279 49.8887C315.791 50.0333 316.162 50.3225 316.507 50.6458C316.834 50.9775 317.117 51.3433 317.258 51.8452C316.737 51.6921 316.365 51.4114 316.03 51.0881C315.712 50.7563 315.429 50.3906 315.279 49.8887Z" fill="#F9BBDE"/>
<path d="M293.278 24.3381C295.072 26.2168 296.822 28.1467 298.555 30.0766C300.287 32.0066 301.976 33.9792 303.69 35.9262C305.361 37.9073 307.058 39.8714 308.711 41.8696C310.364 43.8678 312.008 45.8746 313.59 47.9241C311.787 46.0454 310.046 44.1155 308.313 42.1856C306.581 40.2557 304.892 38.283 303.178 36.3361C301.507 34.3549 299.81 32.3908 298.157 30.3926C296.504 28.3944 294.86 26.3876 293.278 24.3381Z" fill="#F9BBDE"/>
<path d="M307.314 16.1484C308.782 17.455 310.09 18.8897 311.363 20.35C312.618 21.8273 313.838 23.3303 314.899 24.9614C313.431 23.6548 312.123 22.2202 310.85 20.7599C309.595 19.2825 308.384 17.7795 307.314 16.1484Z" fill="#F9BBDE"/>
<path d="M273.142 0.965332C274.494 2.33166 275.794 3.74068 277.084 5.16678C278.375 6.58434 279.621 8.03607 280.894 9.47071C282.123 10.9395 283.378 12.3912 284.589 13.8686C285.8 15.3544 287.002 16.8403 288.142 18.3774C286.79 17.0111 285.491 15.6021 284.191 14.176C282.901 12.7584 281.654 11.3067 280.381 9.87206C279.153 8.40326 277.898 6.95154 276.687 5.46566C275.484 3.99686 274.282 2.50245 273.142 0.965332Z" fill="#F9BBDE"/>
<path d="M282.998 0.862549C285.428 3.43293 287.762 6.0887 290.069 8.76155C292.385 11.4344 294.63 14.15 296.92 16.8313C299.165 19.5469 301.445 22.2368 303.726 24.9353C306.006 27.6252 308.313 30.2981 310.629 32.9624C308.101 30.4774 305.697 27.8814 303.337 25.2513C300.977 22.6211 298.696 19.9226 296.407 17.2327L289.68 9.06898L282.998 0.862549Z" fill="#F9BBDE"/>
<path d="M260.767 0.580322C262.013 1.793 263.216 3.04837 264.4 4.31229C265.593 5.56766 266.742 6.86574 267.892 8.15527C269.032 9.45335 270.172 10.76 271.268 12.0922C272.373 13.4244 273.469 14.7567 274.512 16.1487C273.266 14.936 272.072 13.6806 270.879 12.4167C269.686 11.1528 268.537 9.86327 267.388 8.57373C266.247 7.26712 265.107 5.96904 264.011 4.62826C262.906 3.30457 261.81 1.9638 260.767 0.580322Z" fill="#F9BBDE"/>
<path d="M293.41 0C294.453 1.0077 295.443 2.0581 296.424 3.10849C297.406 4.15889 298.351 5.24345 299.297 6.328C300.234 7.4211 301.162 8.5142 302.055 9.64145C302.957 10.7602 303.841 11.896 304.671 13.0659C303.628 12.0582 302.638 11.0078 301.657 9.95743C300.676 8.90703 299.73 7.82247 298.785 6.73791C297.856 5.64482 296.919 4.55172 296.027 3.42446C295.125 2.30575 294.241 1.17849 293.41 0Z" fill="#F9BBDE"/>
<path d="M303.408 49.6919C304.813 51.118 306.157 52.5867 307.5 54.064C308.844 55.5413 310.134 57.0528 311.46 58.5386C312.742 60.0671 314.041 61.57 315.296 63.1071C316.552 64.6527 317.807 66.1983 319 67.7866C317.595 66.3606 316.242 64.8918 314.907 63.4231C313.564 61.9458 312.273 60.4343 310.947 58.9485C309.666 57.4199 308.366 55.917 307.111 54.3714C305.856 52.8344 304.61 51.2802 303.408 49.6919Z" fill="#F9BBDE"/>
<path d="M274.521 16.1484C276.89 18.6933 279.215 21.2893 281.522 23.894L288.39 31.742L295.134 39.6924C297.362 42.3568 299.58 45.0297 301.746 47.7539C299.368 45.2091 297.052 42.613 294.745 40.0084L287.886 32.1519L281.141 24.2014C278.896 21.537 276.678 18.8641 274.521 16.1484Z" fill="#F9BBDE"/>
<path d="M305.37 0.324707C306.43 1.34938 307.429 2.41675 308.419 3.48412C309.418 4.55149 310.373 5.65301 311.327 6.75454C312.273 7.8646 313.219 8.97466 314.121 10.1189C315.031 11.2546 315.933 12.3988 316.772 13.5942C315.721 12.5781 314.722 11.5107 313.723 10.4348C312.724 9.36746 311.769 8.26593 310.815 7.16441C309.869 6.05434 308.923 4.94428 308.022 3.80006C307.12 2.65584 306.218 1.51162 305.37 0.324707Z" fill="#F9BBDE"/>
</g>
<path d="M145 54.9531C142.709 58.019 143.36 62.9208 147.059 65.4163C150.401 67.6711 155.249 66.7264 157.442 63.3308C160.151 59.142 158.146 54.6858 155.454 52.9478C151.827 50.6217 147.344 51.4327 145 54.9531ZM156.764 62.8228C155.08 65.6837 150.615 66.8779 147.451 64.6855C144.438 62.5911 143.565 58.5983 145.57 55.4968C147.593 52.3596 151.782 51.4684 154.875 53.5004C157.967 55.5324 158.814 59.6945 156.764 62.8228Z" fill="white"/>
<path d="M151.194 64.4181C154.098 64.4181 156.452 62.0639 156.452 59.1598C156.452 56.2557 154.098 53.9015 151.194 53.9015C148.29 53.9015 145.936 56.2557 145.936 59.1598C145.936 62.0639 148.29 64.4181 151.194 64.4181Z" fill="#F98AC1"/>
<path d="M272.75 35.8896C270.594 39.0535 271.458 43.9196 275.264 46.2547C278.695 48.3669 283.499 47.2083 285.549 43.7236C288.071 39.4189 285.878 35.0518 283.107 33.4387C279.381 31.264 274.934 32.2711 272.75 35.8896ZM284.845 43.2423C283.285 46.1745 278.873 47.5559 275.62 45.506C272.519 43.5453 271.467 39.5882 273.339 36.4065C275.228 33.1891 279.372 32.1107 282.545 34.0091C285.736 35.9074 286.761 40.0338 284.845 43.2423Z" fill="white"/>
<path d="M279.123 45.0783C282.027 45.0783 284.381 42.7241 284.381 39.82C284.381 36.9159 282.027 34.5616 279.123 34.5616C276.219 34.5616 273.865 36.9159 273.865 39.82C273.865 42.7241 276.219 45.0783 279.123 45.0783Z" fill="#F9BBDE"/>
<path d="M291.092 58.5449C288.935 61.7088 289.8 66.575 293.605 68.91C297.037 71.0223 301.84 69.8637 303.89 66.3789C306.413 62.0742 304.22 57.7072 301.448 56.094C297.723 53.9194 293.285 54.9176 291.092 58.5449ZM303.186 65.8976C301.627 68.8298 297.215 70.2113 293.962 68.1614C290.86 66.2007 289.809 62.2436 291.68 59.0618C293.57 55.8445 297.714 54.7661 300.887 56.6644C304.078 58.5627 305.102 62.6803 303.186 65.8976Z" fill="white"/>
<path d="M297.473 67.7336C300.378 67.7336 302.732 65.3793 302.732 62.4752C302.732 59.5711 300.378 57.2169 297.473 57.2169C294.569 57.2169 292.215 59.5711 292.215 62.4752C292.215 65.3793 294.569 67.7336 297.473 67.7336Z" fill="#F9BBDE"/>
<path d="M55.9384 94.2659C52.9884 96.7079 52.4625 101.619 55.4749 104.916C58.1932 107.893 63.1218 108.125 66.0629 105.335C69.6813 101.904 68.7811 97.1 66.5709 94.7739C63.5941 91.6545 59.0399 91.3872 55.9384 94.2659ZM65.5192 104.676C63.2109 107.055 58.5854 107.171 56.0364 104.292C53.6033 101.547 53.6924 97.4565 56.3662 94.9165C59.0755 92.3497 63.3535 92.4656 65.8757 95.166C68.4068 97.8843 68.2464 102.127 65.5192 104.676Z" fill="white"/>
<path d="M60.9739 105.068C63.878 105.068 66.2322 102.714 66.2322 99.8095C66.2322 96.9054 63.878 94.5511 60.9739 94.5511C58.0698 94.5511 55.7156 96.9054 55.7156 99.8095C55.7156 102.714 58.0698 105.068 60.9739 105.068Z" fill="white"/>
<path d="M63.4605 56.0584C60.5105 58.5004 59.9846 63.4111 62.997 66.7087C65.7153 69.6854 70.6439 69.9171 73.585 67.1276C77.2034 63.6963 76.3032 58.8925 74.093 56.5664C71.1162 53.447 66.562 53.1797 63.4605 56.0584ZM73.0413 66.468C70.733 68.8477 66.1075 68.9635 63.5585 66.0848C61.1254 63.3398 61.2145 59.249 63.8883 56.709C66.5976 54.1422 70.8756 54.2581 73.3978 56.9585C75.9289 59.6768 75.7685 63.9191 73.0413 66.468Z" fill="white"/>
<path d="M68.4959 66.8603C71.4 66.8603 73.7542 64.506 73.7542 61.6019C73.7542 58.6979 71.4 56.3436 68.4959 56.3436C65.5918 56.3436 63.2375 58.6979 63.2375 61.6019C63.2375 64.506 65.5918 66.8603 68.4959 66.8603Z" fill="#BBBCBC"/>
<path d="M95.0372 82.5102C92.0872 84.9522 91.5614 89.8629 94.5738 93.1605C97.2921 96.1373 102.221 96.369 105.162 93.5794C108.78 90.1481 107.88 85.3443 105.67 83.0182C102.693 79.9078 98.1477 79.6404 95.0372 82.5102ZM104.627 92.9288C102.319 95.3084 97.6931 95.4243 95.1442 92.5456C92.7111 89.8005 92.8002 85.7098 95.474 83.1697C98.1833 80.603 102.461 80.7188 104.983 83.4193C107.515 86.1286 107.354 90.3709 104.627 92.9288Z" fill="white"/>
<path d="M100.082 93.312C102.986 93.312 105.34 90.9578 105.34 88.0537C105.34 85.1496 102.986 82.7954 100.082 82.7954C97.1775 82.7954 94.8232 85.1496 94.8232 88.0537C94.8232 90.9578 97.1775 93.312 100.082 93.312Z" fill="#F3F3F3"/>
<path d="M224.525 85.2376C221.575 87.6796 221.049 92.5903 224.062 95.8879C226.78 98.8647 231.709 99.0964 234.65 96.3068C238.268 92.8755 237.368 88.0718 235.158 85.7456C232.181 82.6352 227.636 82.3678 224.525 85.2376ZM234.115 95.6562C231.807 98.0358 227.181 98.1517 224.632 95.273C222.199 92.528 222.288 88.4372 224.962 85.8971C227.671 83.3304 231.949 83.4462 234.472 86.1467C237.003 88.8561 236.842 93.0984 234.115 95.6562Z" fill="white"/>
<path d="M229.57 96.0394C232.474 96.0394 234.828 93.6852 234.828 90.7811C234.828 87.8771 232.474 85.5228 229.57 85.5228C226.666 85.5228 224.311 87.8771 224.311 90.7811C224.311 93.6852 226.666 96.0394 229.57 96.0394Z" fill="white"/>
<path d="M169.616 96.5296C170.842 96.5296 171.835 95.536 171.835 94.3104C171.835 93.0848 170.842 92.0912 169.616 92.0912C168.39 92.0912 167.397 93.0848 167.397 94.3104C167.397 95.536 168.39 96.5296 169.616 96.5296Z" fill="white"/>
<path d="M191.211 70.6303C192.437 70.6303 193.43 69.6367 193.43 68.4111C193.43 67.1855 192.437 66.1919 191.211 66.1919C189.985 66.1919 188.992 67.1855 188.992 68.4111C188.992 69.6367 189.985 70.6303 191.211 70.6303Z" fill="white"/>
<path d="M237.092 65.3183C238.317 65.3183 239.311 64.3247 239.311 63.0991C239.311 61.8735 238.317 60.8799 237.092 60.8799C235.866 60.8799 234.873 61.8735 234.873 63.0991C234.873 64.3247 235.866 65.3183 237.092 65.3183Z" fill="white"/>
<path d="M109.003 67.1721C110.229 67.1721 111.222 66.1786 111.222 64.953C111.222 63.7273 110.229 62.7338 109.003 62.7338C107.777 62.7338 106.784 63.7273 106.784 64.953C106.784 66.1786 107.777 67.1721 109.003 67.1721Z" fill="white"/>
<path d="M64.0129 83.464C65.2385 83.464 66.2321 82.4705 66.2321 81.2448C66.2321 80.0192 65.2385 79.0256 64.0129 79.0256C62.7873 79.0256 61.7937 80.0192 61.7937 81.2448C61.7937 82.4705 62.7873 83.464 64.0129 83.464Z" fill="white"/>
<path d="M186.247 92.7595C183.297 95.2015 182.771 100.112 185.783 103.41C188.501 106.387 193.43 106.618 196.371 103.829C199.99 100.397 199.089 95.5937 196.879 93.2675C193.902 90.1482 189.357 89.8808 186.247 92.7595ZM195.827 103.169C193.519 105.549 188.894 105.665 186.345 102.786C183.912 100.041 184.001 95.9502 186.674 93.4101C189.384 90.8434 193.662 90.9592 196.184 93.6597C198.715 96.3691 198.555 100.62 195.827 103.169Z" fill="white"/>
<path d="M191.282 103.561C194.186 103.561 196.54 101.207 196.54 98.303C196.54 95.3989 194.186 93.0447 191.282 93.0447C188.378 93.0447 186.024 95.3989 186.024 98.303C186.024 101.207 188.378 103.561 191.282 103.561Z" fill="white"/>
<path d="M146.185 82.439C143.235 84.881 142.71 89.7918 145.722 93.0893C148.44 96.0661 153.369 96.2978 156.31 93.5082C159.928 90.077 159.028 85.2732 156.818 82.947C153.841 79.8366 149.296 79.5692 146.185 82.439ZM155.766 92.8576C153.458 95.2372 148.832 95.3531 146.283 92.4744C143.85 89.7294 143.94 85.6386 146.613 83.0986C149.323 80.5318 153.601 80.6476 156.123 83.3481C158.663 86.0575 158.502 90.2998 155.766 92.8576Z" fill="white"/>
<path d="M151.221 93.2409C154.125 93.2409 156.479 90.8866 156.479 87.9826C156.479 85.0785 154.125 82.7242 151.221 82.7242C148.317 82.7242 145.963 85.0785 145.963 87.9826C145.963 90.8866 148.317 93.2409 151.221 93.2409Z" fill="#F98AC1"/>
<path d="M26.4829 74.9971C23.5329 77.4391 23.0071 82.3498 26.0195 85.6474C28.7378 88.6241 33.6663 88.8559 36.6074 86.0663C40.2259 82.635 39.3257 77.8312 37.1154 75.5051C34.1387 72.3857 29.5844 72.1184 26.4829 74.9971ZM36.0638 85.4068C33.7554 87.7864 29.1299 87.9022 26.581 85.0235C24.1479 82.2785 24.237 78.1877 26.9107 75.6477C29.6201 73.0809 33.898 73.1968 36.4203 75.8972C38.9514 78.6155 38.791 82.8578 36.0638 85.4068Z" fill="white"/>
<path d="M31.5184 85.799C34.4225 85.799 36.7768 83.4447 36.7768 80.5407C36.7768 77.6366 34.4225 75.2823 31.5184 75.2823C28.6144 75.2823 26.2601 77.6366 26.2601 80.5407C26.2601 83.4447 28.6144 85.799 31.5184 85.799Z" fill="#D9D9D9"/>
<path d="M120.812 42.1283C123.583 46.736 126.364 51.3348 129.136 55.9425C133.565 63.2863 137.995 70.6391 142.424 77.9829C143.449 79.6851 144.474 81.3785 145.499 83.0808C145.624 83.2857 146.248 83.0718 146.096 82.8134C143.324 78.2057 140.544 73.6069 137.772 68.9992C133.343 61.6554 128.913 54.3026 124.484 46.9588C123.459 45.2565 122.434 43.5632 121.409 41.8609C121.275 41.647 120.651 41.8698 120.812 42.1283Z" fill="white"/>
<path d="M151.141 80.5229L151.23 65.8085" stroke="white" stroke-width="0.5" stroke-miterlimit="10"/>
<path d="M121.106 41.5399L144.403 56.1652" stroke="white" stroke-width="0.5" stroke-miterlimit="10"/>
<path d="M36.5986 86.0663L56.3663 94.9163" stroke="white" stroke-width="0.5" stroke-miterlimit="10"/>
<path d="M37.1155 75.514L61.7939 64.9528" stroke="white" stroke-width="0.5" stroke-miterlimit="10"/>
<path d="M66.2323 68.7406L62.0702 92.3585" stroke="white" stroke-width="0.5" stroke-miterlimit="10"/>
<path d="M73.4601 65.6393L95.4737 83.17" stroke="white" stroke-width="0.5" stroke-miterlimit="10"/>
<path d="M68.496 98.9091L93.1655 90.9592" stroke="white" stroke-width="0.25" stroke-miterlimit="10"/>
<path d="M157.531 91.1998L183.814 97.4207" stroke="white" stroke-width="0.5" stroke-miterlimit="10"/>
<path d="M197.984 97.4386L222.654 93.0359" stroke="white" stroke-width="0.5" stroke-miterlimit="10"/>
<path d="M184.892 27.8774C186.71 31.2463 191.434 32.7169 195.248 30.4085C198.697 28.323 199.883 23.5282 197.717 20.1058C195.052 15.8902 190.168 15.8368 187.459 17.5479C183.822 19.8563 182.673 24.2679 184.892 27.8774ZM196.968 20.498C198.858 23.2251 198.064 27.7794 194.74 29.7312C191.576 31.585 187.574 30.7026 185.605 27.5833C183.617 24.4283 184.553 20.2484 187.708 18.2966C190.863 16.3448 194.999 17.3251 196.968 20.498Z" fill="white"/>
<path d="M191.309 29.268C194.213 29.268 196.567 26.9137 196.567 24.0097C196.567 21.1056 194.213 18.7513 191.309 18.7513C188.405 18.7513 186.05 21.1056 186.05 24.0097C186.05 26.9137 188.405 29.268 191.309 29.268Z" fill="#FC56A1"/>
<path d="M191.22 68.7406L191.211 30.658" stroke="white" stroke-width="0.5" stroke-miterlimit="10"/>
<path d="M236.272 63.1436L289.978 63.099" stroke="white" stroke-width="0.5" stroke-miterlimit="10"/>
<path d="M256.503 56.7712L272.412 43.1709" stroke="white" stroke-width="0.5" stroke-miterlimit="10"/>
<path d="M284.844 43.2423L294.907 57.8854" stroke="white" stroke-width="0.5" stroke-miterlimit="10"/>
<path d="M112.194 33.9288C109.903 36.9947 110.554 41.8965 114.252 44.392C117.594 46.6468 122.443 45.7021 124.635 42.3065C127.345 38.1177 125.339 33.6615 122.648 31.9236C119.02 29.5974 114.538 30.4084 112.194 33.9288ZM123.958 41.7985C122.273 44.6594 117.808 45.8536 114.644 43.6612C111.632 41.5668 110.759 37.574 112.764 34.4725C114.787 31.3353 118.976 30.4441 122.068 32.4761C125.17 34.5082 126.008 38.6702 123.958 41.7985Z" fill="white"/>
<path d="M118.397 43.394C121.301 43.394 123.655 41.0397 123.655 38.1356C123.655 35.2315 121.301 32.8773 118.397 32.8773C115.492 32.8773 113.138 35.2315 113.138 38.1356C113.138 41.0397 115.492 43.394 118.397 43.394Z" fill="#F98AC1"/>
<path d="M105.34 88.1517H144.786" stroke="white" stroke-width="0.5" stroke-miterlimit="10"/>
<path d="M116.882 43.1709L102.203 83.241" stroke="white" stroke-width="0.75" stroke-miterlimit="10"/>
<path d="M198.804 24.0093H212.984" stroke="white" stroke-width="0.75" stroke-miterlimit="10"/>
<path d="M213.296 27.8595C215.114 31.2284 219.837 32.6989 223.652 30.3906C227.101 28.3051 228.286 23.5102 226.121 20.0879C223.456 15.8723 218.572 15.8188 215.863 17.53C212.235 19.8472 211.085 24.25 213.296 27.8595ZM225.381 20.4889C227.27 23.2161 226.477 27.7703 223.153 29.7222C219.989 31.5759 215.987 30.6936 214.018 27.5743C212.03 24.4193 212.966 20.2394 216.121 18.2876C219.276 16.3357 223.411 17.3161 225.381 20.4889Z" fill="white"/>
<path d="M219.713 29.2586C222.617 29.2586 224.971 26.9043 224.971 24.0003C224.971 21.0962 222.617 18.7419 219.713 18.7419C216.809 18.7419 214.454 21.0962 214.454 24.0003C214.454 26.9043 216.809 29.2586 219.713 29.2586Z" fill="#FC56A1"/>
<path d="M195.328 51.6288L217.03 30.658" stroke="white" stroke-width="0.75" stroke-miterlimit="10"/>
<path d="M184.892 56.495C186.71 59.8639 191.434 61.3344 195.248 59.0261C198.697 56.9406 199.883 52.1457 197.717 48.7234C195.052 44.5078 190.168 44.4543 187.459 46.1655C183.822 48.4827 182.673 52.8854 184.892 56.495ZM196.968 49.1244C198.858 51.8516 198.064 56.4058 194.74 58.3577C191.576 60.2114 187.574 59.3291 185.605 56.2098C183.617 53.0548 184.553 48.8749 187.708 46.9231C190.863 44.9623 194.999 45.9516 196.968 49.1244Z" fill="white"/>
<path d="M191.309 57.8943C194.213 57.8943 196.567 55.5401 196.567 52.636C196.567 49.7319 194.213 47.3777 191.309 47.3777C188.405 47.3777 186.05 49.7319 186.05 52.636C186.05 55.5401 188.405 57.8943 191.309 57.8943Z" fill="#FC56A1"/>
<path d="M246.147 59.2222C243.99 62.3861 244.855 67.2523 248.66 69.5873C252.091 71.6996 256.895 70.541 258.945 67.0562C261.467 62.7515 259.275 58.3844 256.503 56.7713C252.778 54.5878 248.33 55.5949 246.147 59.2222ZM258.241 66.566C256.681 69.4982 252.27 70.8796 249.017 68.8298C245.915 66.8691 244.863 62.9119 246.735 59.7302C248.624 56.5128 252.769 55.4344 255.942 57.3328C259.132 59.2311 260.157 63.3576 258.241 66.566Z" fill="white"/>
<path d="M252.519 68.4021C255.423 68.4021 257.778 66.0479 257.778 63.1438C257.778 60.2397 255.423 57.8855 252.519 57.8855C249.615 57.8855 247.261 60.2397 247.261 63.1438C247.261 66.0479 249.615 68.4021 252.519 68.4021Z" fill="#F9BBDE"/>
</svg>
