<svg width="623" height="612" viewBox="0 0 623 612" fill="none" xmlns="http://www.w3.org/2000/svg">
<g opacity="0.7">
<path opacity="0.2" d="M543.333 384L543.333 167" stroke="white"/>
<path opacity="0.2" d="M412.333 384L412.333 167" stroke="white"/>
<path opacity="0.2" d="M282.333 384L282.333 167" stroke="white"/>
<path opacity="0.2" d="M151.333 384L151.333 167" stroke="white"/>
<path opacity="0.2" d="M21.3328 384L21.3327 167" stroke="white"/>
<path opacity="0.2" d="M608.333 195.767L-9.06466e-05 195.767" stroke="white"/>
<path opacity="0.2" d="M609.333 277.391L0.999917 277.391" stroke="white"/>
<path opacity="0.2" d="M622.333 363.391L13.9999 363.391" stroke="white"/>
</g>
<g opacity="0.4">
<path d="M457.531 375.818C460.59 372.821 461.725 369.703 461.725 365.309C461.612 254.018 461.644 142.719 461.644 31.4274C461.644 22.8243 461.676 14.2212 461.604 5.61809C461.588 3.90554 462.32 1.87796 460.348 0.650096C459.535 0.496614 459.012 0.811657 458.601 1.32057C458.795 1.51445 458.988 1.70832 459.181 1.90219C459.736 3.67936 459.6 5.52115 459.6 7.34679C459.6 126.716 459.584 246.093 459.68 365.462C459.68 369.081 458.658 371.618 456.203 374.082C449.377 380.94 442.849 388.121 436.007 394.963C433.536 397.435 432.538 399.972 432.546 403.591C432.651 454.49 432.57 505.39 432.699 556.282C432.707 560.474 431.548 563.415 428.69 566.323C417.132 578.084 405.75 590.032 394.425 602.036C392.3 604.289 390.158 605.299 387.092 605.291C373.392 605.259 359.7 605.259 346 605.243V609.613C346.153 609.791 346.298 609.976 346.435 610.178C347.481 611.713 349.051 611.754 350.677 611.754C363.668 611.729 376.66 611.705 389.643 611.786C391.752 611.802 393.249 611.107 394.73 609.556C408.334 595.266 421.985 581.033 435.677 566.832C437.15 565.305 437.907 563.762 437.883 561.549C437.786 553.131 437.842 544.706 437.858 536.289C437.858 534.794 437.891 533.259 436.619 532.282C434.421 530.602 434.623 528.235 434.623 525.836C434.639 485.195 434.663 444.562 434.566 403.922C434.558 400.707 435.54 398.453 437.697 396.272C444.378 389.535 450.761 382.458 457.531 375.818Z" fill="#E5E5E5"/>
</g>
<path opacity="0.2" d="M315.827 610.663C317.732 610.663 319.469 610.663 320.011 610.663C321.125 610.663 321.894 610.354 322.686 609.56C336.021 596.124 349.401 582.733 362.723 569.291C363.734 568.269 364.752 567.879 366.13 567.908C369.523 567.967 380.734 567.46 384.126 567.467C384.61 567.467 385.218 567.305 385.394 568.033C385.02 568.504 384.566 568.335 384.17 568.335C380.675 568.349 369.347 568.835 365.852 568.791C364.87 568.776 364.166 569.026 363.448 569.754C350.002 583.299 336.512 596.801 323.067 610.346C322.231 611.185 321.396 611.516 320.231 611.516C319.681 611.516 317.842 611.516 315.834 611.516V610.663H315.827Z" fill="white"/>
<path opacity="0.2" d="M357.029 568.305C331.09 568.305 305.144 568.313 279.204 568.327V569.206C304.902 569.184 330.599 569.177 356.297 569.177C356.538 568.884 356.78 568.591 357.029 568.305Z" fill="white"/>
<path d="M385.101 562.407C382.287 562.209 379.51 564.57 379.437 567.872C379.371 570.85 381.884 573.49 384.866 573.498C388.545 573.505 390.501 570.475 390.508 568.107C390.508 564.915 388.222 562.452 385.101 562.407ZM384.917 572.873C382.477 572.968 379.949 570.674 380.052 567.828C380.147 565.114 382.28 562.974 384.998 562.981C387.746 562.988 389.973 565.231 389.944 567.967C389.915 570.703 387.673 572.895 384.917 572.873Z" fill="white"/>
<path opacity="0.2" d="M279.124 536.707C262.578 536.721 247.081 550.002 247 568.886C246.92 587.946 262.666 601.551 279.124 601.264C296.028 601.595 311.357 587.505 311.379 569.018C311.387 551.083 296.636 536.699 279.124 536.707ZM279.117 600.095C261.633 600.021 247.975 585.402 248.268 568.945C247.997 553.62 260.358 537.92 279.256 537.949C296.666 537.971 310.192 551.759 310.141 569.084C310.09 587.579 294.966 600.161 279.117 600.095Z" fill="white"/>
<path opacity="0.2" d="M261.582 549.281C263.678 551.649 265.671 553.899 267.73 556.215C261.509 563.223 260.16 570.864 265.341 578.695C269.444 584.894 275.856 586.983 282.495 585.637C289.331 584.247 295.12 579.431 296.343 569.29C299.384 569.29 302.447 569.29 305.503 569.29C306.067 578.695 299.384 590.064 288.276 594.042C276.024 598.432 262.439 593.491 255.977 581.968C249.924 571.165 252.379 557.127 261.582 549.281Z" fill="white"/>
<path opacity="0.2" d="M279.424 557.429C273.518 557.01 267.686 561.974 267.532 568.909C267.393 575.166 272.676 580.704 278.933 580.718C286.649 580.733 290.775 574.38 290.775 569.394C290.782 562.702 285.975 557.525 279.424 557.429ZM279.036 579.402C273.907 579.608 268.609 574.777 268.821 568.806C269.027 563.106 273.489 558.613 279.204 558.628C284.979 558.643 289.646 563.357 289.587 569.1C289.529 574.858 284.817 579.454 279.036 579.402Z" fill="white"/>
<g opacity="0.2">
<path d="M282.099 565.326L279.798 568.371V568.423L283.462 567.937V569.592L279.798 569.151V569.202L282.128 572.122L280.604 572.997L279.153 569.592H279.102L277.526 573.027L276.142 572.151L278.442 569.18V569.129L274.852 569.592V567.937L278.413 568.401V568.349L276.134 565.378L277.614 564.525L279.116 567.908H279.168L280.648 564.503L282.099 565.326Z" fill="white"/>
</g>
<g opacity="0.1">
<path d="M339.77 547.436C340.043 546.829 339.191 545.498 340.662 545.533C342.133 545.569 341.233 546.869 341.439 547.581C341.557 547.985 341.452 548.446 341.461 548.885C341.474 549.487 341.263 549.856 340.591 549.848C339.906 549.834 339.753 549.417 339.766 548.837C339.779 548.398 339.77 547.958 339.77 547.436Z" fill="white"/>
<path d="M394.836 490.674C395.389 490.906 396.553 490.096 396.641 491.353C396.742 492.754 395.438 492.163 394.713 492.338C394.305 492.438 393.853 492.368 393.418 492.373C392.9 492.381 392.395 492.408 392.32 491.681C392.228 490.788 392.865 490.823 393.435 490.762C393.866 490.722 394.296 490.709 394.836 490.674Z" fill="white"/>
<path d="M287.142 494.591C286.777 494.591 286.413 494.582 286.053 494.591C285.442 494.609 285.078 494.381 285.104 493.711C285.126 493.195 285.372 492.91 285.903 492.915C286.847 492.923 287.796 492.91 288.74 492.963C289.223 492.989 289.557 493.274 289.535 493.803C289.513 494.337 289.166 494.552 288.674 494.565C288.165 494.578 287.655 494.569 287.146 494.569C287.142 494.574 287.142 494.582 287.142 494.591Z" fill="white"/>
<path d="M341.882 440.287C341.882 440.862 341.913 441.442 341.874 442.018C341.843 442.466 341.478 442.567 341.092 442.576C340.671 442.584 340.354 442.374 340.337 441.974C340.297 440.964 340.315 439.953 340.332 438.938C340.341 438.416 340.635 438.148 341.158 438.17C341.672 438.192 341.948 438.451 341.944 438.982C341.94 439.417 341.944 439.848 341.944 440.283C341.926 440.287 341.904 440.287 341.882 440.287Z" fill="white"/>
<path d="M293.513 465.366C294.484 465.989 295.524 466.629 296.53 467.325C296.802 467.514 296.653 467.842 296.491 468.092C296.289 468.408 296.047 468.728 295.639 468.509C294.686 468 293.75 467.452 292.824 466.896C292.473 466.686 292.389 466.379 292.617 465.984C292.806 465.656 293.026 465.406 293.513 465.366Z" fill="white"/>
<path d="M339.112 440.862C339.011 441.267 339.801 442.554 338.418 442.593C337.092 442.633 337.689 441.315 337.526 440.568C337.439 440.151 337.491 439.703 337.465 439.272C337.43 438.71 337.518 438.284 338.229 438.266C338.91 438.253 339.098 438.644 339.112 439.219C339.116 439.654 339.112 440.089 339.112 440.862Z" fill="white"/>
<path d="M316.958 539.572C317.318 539.757 317.942 539.88 317.744 540.407C317.34 541.492 316.804 542.537 316.255 543.561C316.049 543.943 315.627 543.838 315.289 543.631C315.048 543.486 314.67 543.324 314.824 543.003C315.364 541.892 315.961 540.807 316.558 539.721C316.611 539.634 316.813 539.625 316.958 539.572Z" fill="white"/>
<path d="M352.883 547.748C352.975 548.253 352.83 548.583 352.268 548.684C351.758 548.78 351.385 548.657 351.267 548.139C351.051 547.216 350.871 546.285 350.7 545.354C350.612 544.875 350.753 544.488 351.288 544.361C351.815 544.234 352.127 544.488 352.25 544.98C352.47 545.898 352.667 546.825 352.883 547.748Z" fill="white"/>
<path d="M371.273 535.61C371.659 535.478 371.831 535.781 371.993 535.983C372.577 536.725 373.117 537.507 373.692 538.254C374.048 538.715 373.899 539.049 373.495 539.343C373.104 539.629 372.731 539.73 372.393 539.234C371.822 538.39 371.194 537.582 370.658 536.717C370.245 536.058 370.856 535.856 371.273 535.61Z" fill="white"/>
<path d="M320.945 546.144C320.475 545.96 319.9 545.863 320.102 545.283C320.484 544.189 320.958 543.126 321.441 542.076C321.582 541.768 321.938 541.861 322.223 541.957C322.513 542.054 322.86 542.252 322.768 542.533C322.377 543.693 321.92 544.835 321.446 545.964C321.397 546.083 321.081 546.1 320.945 546.144Z" fill="white"/>
<path d="M369.481 446.551C368.893 447.5 368.265 448.56 367.584 449.579C367.395 449.86 367.075 449.711 366.816 449.544C366.482 449.329 366.227 449.034 366.434 448.652C366.952 447.694 367.501 446.753 368.08 445.831C368.318 445.448 368.686 445.518 369.02 445.756C369.257 445.918 369.508 446.081 369.481 446.551Z" fill="white"/>
<path d="M390.173 476.265C389.387 476.449 389.202 476.217 389.075 475.959C388.904 475.613 388.851 475.175 389.237 475.004C390.3 474.54 391.38 474.12 392.487 473.774C392.851 473.661 393.115 474.068 393.211 474.422C393.286 474.689 393.348 475.044 393.009 475.179C391.934 475.613 390.845 476.011 390.173 476.265Z" fill="white"/>
<path d="M320.238 541.699C319.839 542.652 319.435 543.737 318.93 544.77C318.679 545.279 318.205 545.064 317.797 544.862C317.41 544.673 317.261 544.405 317.45 544.001C317.911 543.025 318.363 542.041 318.859 541.083C319.061 540.701 319.439 540.728 319.799 540.912C320.071 541.053 320.278 541.233 320.238 541.699Z" fill="white"/>
<path d="M390.647 519.259C390.502 519.754 390.335 520.345 389.655 520.047C388.658 519.609 387.709 519.061 386.756 518.535C386.335 518.303 386.471 517.944 386.629 517.602C386.761 517.322 386.998 517.032 387.279 517.155C388.407 517.637 389.562 518.093 390.542 518.855C390.629 518.921 390.616 519.114 390.647 519.259Z" fill="white"/>
<path d="M379.326 528.375C379.853 528.366 382.462 530.533 382.514 530.94C382.576 531.414 381.711 532.125 381.36 531.831C380.477 531.103 379.616 530.331 378.874 529.467C378.413 528.936 378.949 528.598 379.326 528.375Z" fill="white"/>
<path d="M311.205 451.854C311.052 451.999 310.863 452.214 310.639 452.377C310.354 452.579 310.068 452.456 309.888 452.218C309.234 451.357 308.562 450.501 307.982 449.587C307.706 449.152 308.36 448.406 308.869 448.489C309.282 448.559 311.263 451.322 311.205 451.854Z" fill="white"/>
<path d="M363.531 442.941C364.023 443.134 364.493 443.367 364.286 443.894C363.882 444.909 363.386 445.888 362.894 446.868C362.754 447.149 362.455 447.215 362.139 447.123C361.836 447.031 361.533 446.811 361.577 446.534C361.779 445.3 362.354 444.197 363.004 443.147C363.092 443.007 363.382 442.994 363.531 442.941Z" fill="white"/>
<path d="M320.695 446.212C320.677 446.69 320.401 446.778 320.15 446.919C319.764 447.134 319.426 447.051 319.25 446.695C318.776 445.729 318.341 444.745 317.911 443.762C317.722 443.331 318.007 443.103 318.346 442.932C318.675 442.765 319.118 442.615 319.303 442.993C319.83 444.078 320.269 445.206 320.695 446.212Z" fill="white"/>
<path d="M350.463 440.252C350.344 440.924 350.213 441.781 350.028 442.629C349.918 443.121 349.572 443.336 349.058 443.213C348.623 443.107 348.487 442.787 348.531 442.4C348.627 441.539 348.768 440.687 348.891 439.826C348.961 439.312 349.009 438.789 349.752 438.86C350.542 438.939 350.683 439.404 350.463 440.252Z" fill="white"/>
<path d="M356.694 542.981C357.151 542.937 357.344 543.17 357.445 543.438C357.796 544.391 358.139 545.349 358.446 546.319C358.622 546.873 358.24 547.114 357.792 547.246C357.304 547.387 356.98 547.255 356.835 546.697C356.597 545.783 356.277 544.892 356.022 543.982C355.838 543.328 356.207 543.051 356.694 542.981Z" fill="white"/>
<path d="M293.93 514.982C293.913 515.123 293.93 515.276 293.878 515.398C293.785 515.609 290.589 517.084 290.351 517.023C290.048 516.944 289.886 516.703 289.767 516.432C289.649 516.152 289.583 515.784 289.851 515.644C290.94 515.066 292.042 514.492 293.258 514.247C293.636 514.168 293.799 514.645 293.93 514.982Z" fill="white"/>
<path d="M345.883 440.805C345.922 440.48 345.988 439.834 346.085 439.197C346.16 438.714 346.423 438.432 346.954 438.459C347.521 438.485 347.705 438.859 347.666 439.324C347.596 440.181 347.468 441.034 347.354 441.89C347.288 442.391 347.262 442.927 346.52 442.857C345.813 442.791 345.778 442.308 345.817 441.772C345.835 441.552 345.848 441.337 345.883 440.805Z" fill="white"/>
<path d="M389.778 512.248C390.603 512.572 391.688 512.966 392.742 513.421C393.194 513.614 392.974 514.021 392.891 514.358C392.781 514.782 392.474 514.979 392.087 514.835C391.073 514.454 390.072 514.047 389.088 513.596C388.702 513.417 388.728 513.018 388.869 512.655C388.983 512.357 389.18 512.169 389.778 512.248Z" fill="white"/>
<path d="M392.065 504.38C392.935 504.577 393.918 504.796 394.902 505.023C395.46 505.15 395.521 505.553 395.425 506.017C395.31 506.564 394.915 506.656 394.441 506.547C393.528 506.341 392.61 506.131 391.705 505.899C391.196 505.768 391.042 505.404 391.152 504.905C391.244 504.476 391.547 504.358 392.065 504.38Z" fill="white"/>
<path d="M394.792 503.688C393.945 503.534 393.093 503.399 392.254 503.219C391.885 503.14 391.587 502.913 391.639 502.475C391.696 501.998 391.947 501.648 392.474 501.709C393.33 501.81 394.173 502.002 395.025 502.094C395.714 502.169 396.118 502.436 395.969 503.18C395.824 503.876 395.306 503.81 394.792 503.688Z" fill="white"/>
<path d="M394.823 500.855C394.186 500.758 393.545 500.662 392.908 500.561C392.381 500.478 391.903 500.36 392.03 499.642C392.153 498.942 392.671 498.972 393.185 499.025C393.971 499.104 394.757 499.204 395.543 499.292C396.101 499.353 396.522 499.506 396.386 500.22C396.259 500.903 395.802 500.933 395.262 500.863C395.117 500.846 394.977 500.833 394.832 500.815C394.827 500.828 394.827 500.842 394.823 500.855Z" fill="white"/>
<path d="M364.357 539.879C364.699 539.822 364.91 540.046 365.046 540.292C365.498 541.123 365.898 541.98 366.359 542.806C366.631 543.302 366.478 543.606 366.052 543.887C365.591 544.19 365.213 544.124 364.971 543.641C364.51 542.736 364.054 541.822 363.659 540.886C363.439 540.385 363.847 539.866 364.357 539.879Z" fill="white"/>
<path d="M295.248 470.299C295.129 470.633 294.874 471.093 294.225 470.799C293.302 470.383 292.398 469.918 291.502 469.445C291.01 469.182 291.045 468.796 291.318 468.362C291.533 468.016 291.774 467.788 292.183 468.007C293.14 468.52 294.084 469.046 295.024 469.585C295.199 469.682 295.379 469.848 295.248 470.299Z" fill="white"/>
<path d="M389.611 466.74C389.615 467.077 389.435 467.279 389.167 467.428C388.285 467.92 387.398 468.402 386.515 468.898C386.085 469.139 385.856 468.906 385.659 468.564C385.47 468.235 385.312 467.871 385.716 467.621C386.638 467.056 387.56 466.49 388.526 466.016C389.172 465.7 389.352 466.349 389.611 466.74Z" fill="white"/>
<path d="M304.68 530.737C304.658 531.168 302.19 533.696 301.821 533.621C301.29 533.516 300.943 533.152 300.987 532.568C301.009 532.261 303.56 529.908 303.833 529.943C304.302 530.004 304.588 530.298 304.68 530.737Z" fill="white"/>
<path d="M302.801 528.664C302.739 529.217 300.232 531.521 299.832 531.517C299.305 531.513 298.796 530.639 299.16 530.266C299.911 529.498 300.75 528.809 301.575 528.111C301.799 527.922 302.107 527.883 302.353 528.124C302.55 528.313 302.809 528.475 302.801 528.664Z" fill="white"/>
<path d="M359.377 542.081C359.737 542.028 359.913 542.261 360.023 542.533C360.413 543.469 360.791 544.414 361.16 545.358C361.393 545.951 360.927 546.1 360.536 546.285C360.119 546.487 359.803 546.302 359.663 545.938C359.267 544.923 358.872 543.908 358.578 542.863C358.433 542.323 358.903 542.138 359.377 542.081Z" fill="white"/>
<path d="M383.555 529.731C383.138 529.753 380.552 527.557 380.494 527.144C380.446 526.797 380.705 526.626 380.898 526.419C381.14 526.165 381.425 526.222 381.667 526.406C382.471 527.021 383.265 527.653 384.056 528.286C384.381 528.545 384.46 528.857 384.214 529.221C384.051 529.471 383.88 529.7 383.555 529.731Z" fill="white"/>
<path d="M297.86 529.333C297.439 529.096 296.877 528.688 297.224 528.219C297.953 527.231 298.985 526.489 300.065 525.918C300.618 525.624 300.952 526.243 300.991 526.774C301.022 527.174 298.291 529.364 297.86 529.333Z" fill="white"/>
<path d="M386.115 526.654C385.882 527.092 385.619 527.746 385.044 527.395C384.065 526.798 383.191 526.022 382.304 525.285C382.053 525.074 382.154 524.75 382.334 524.5C382.506 524.263 382.773 523.969 383.037 524.144C384.06 524.816 385.044 525.544 386.027 526.267C386.106 526.32 386.089 526.513 386.115 526.654Z" fill="white"/>
<path d="M330.5 545.402C330.32 546.298 330.149 547.075 330.013 547.857C329.903 548.477 329.591 548.754 328.964 548.578C328.467 548.442 328.261 548.125 328.388 547.607C328.599 546.768 328.823 545.929 329.003 545.081C329.122 544.519 329.31 544.123 329.995 544.303C330.729 544.492 330.536 545.033 330.5 545.402Z" fill="white"/>
<path d="M350.037 548.301C350.169 548.67 350.033 549.1 349.229 549.192C348.474 549.276 348.452 548.775 348.39 548.261C348.285 547.405 348.149 546.552 348.052 545.691C347.995 545.182 348.21 544.901 348.768 544.861C349.242 544.826 349.409 545.068 349.488 545.45C349.659 546.293 349.817 547.141 350.037 548.301Z" fill="white"/>
<path d="M335.858 546.825C335.801 547.48 335.757 548.134 335.682 548.789C335.625 549.289 335.357 549.579 334.808 549.518C334.145 549.447 333.97 549.052 334.062 548.45C334.18 547.655 334.308 546.86 334.382 546.061C334.439 545.459 334.646 545.081 335.322 545.182C335.91 545.27 335.919 545.718 335.897 546.171C335.888 546.39 335.862 546.605 335.845 546.825C335.849 546.825 335.853 546.825 335.858 546.825Z" fill="white"/>
<path d="M345.409 547.172C345.373 546.461 345.343 546.171 345.347 545.881C345.356 545.455 345.571 545.222 346.01 545.218C346.419 545.213 346.722 545.345 346.779 545.789C346.915 546.799 347.055 547.809 347.156 548.819C347.196 549.223 346.968 549.473 346.533 549.544C346.001 549.636 345.672 549.443 345.597 548.92C345.496 548.2 345.444 547.475 345.409 547.172Z" fill="white"/>
<path d="M383.248 464.368C382.76 464.25 382.51 463.939 382.554 463.443C382.576 463.193 385.294 460.996 385.566 461.027C386.146 461.088 386.467 461.483 386.51 462.022C386.541 462.391 383.674 464.395 383.248 464.368Z" fill="white"/>
<path d="M289.746 503.836C290.035 503.801 290.417 503.866 290.545 504.431C290.663 504.965 290.444 505.258 289.943 505.372C289.03 505.582 288.116 505.797 287.199 505.985C286.685 506.09 286.347 505.832 286.233 505.355C286.083 504.737 286.386 504.427 287.005 504.33C287.857 504.203 288.709 504.028 289.746 503.836Z" fill="white"/>
<path d="M379.801 460.125C379.643 459.998 379.401 459.84 379.208 459.638C378.966 459.393 379.001 459.125 379.252 458.892C380.051 458.156 380.815 457.379 381.658 456.699C382.075 456.362 382.923 456.897 382.896 457.419C382.883 457.792 380.314 460.107 379.801 460.125Z" fill="white"/>
<path d="M388.482 522.632C388.148 522.65 385.338 520.933 385.215 520.631C385.088 520.324 385.233 520.079 385.404 519.847C385.597 519.584 385.896 519.493 386.164 519.633C387.116 520.136 388.056 520.67 388.983 521.218C389.237 521.367 389.395 521.629 389.215 521.936C389.044 522.234 388.921 522.602 388.482 522.632Z" fill="white"/>
<path d="M380.982 455.275C380.938 455.732 378.334 458.182 377.992 458.099C377.737 458.038 377.487 457.831 377.302 457.625C377.065 457.366 377.197 457.071 377.407 456.852C378.114 456.119 378.848 455.407 379.546 454.669C379.88 454.318 380.192 454.406 380.486 454.669C380.697 454.854 380.846 455.104 380.982 455.275Z" fill="white"/>
<path d="M302.076 454.024C302.26 454.116 302.48 454.165 302.616 454.301C303.336 455.008 304.048 455.728 304.737 456.467C305.014 456.761 305.031 457.099 304.737 457.424C304.39 457.806 304.03 457.894 303.631 457.503C302.906 456.796 302.133 456.137 301.479 455.368C300.868 454.661 301.681 454.428 302.076 454.024Z" fill="white"/>
<path d="M391.262 507.02C392.298 507.301 393.348 507.546 394.371 507.874C394.907 508.045 394.836 508.518 394.691 508.952C394.551 509.363 394.27 509.481 393.857 509.363C392.891 509.083 391.916 508.838 390.963 508.527C390.603 508.409 390.423 508.08 390.542 507.668C390.643 507.305 390.766 506.968 391.262 507.02Z" fill="white"/>
<path d="M373.785 454.347C373.372 454.167 372.88 453.868 373.13 453.425C373.736 452.358 374.479 451.366 375.405 450.549C375.655 450.329 375.945 450.567 376.174 450.738C376.406 450.913 376.709 451.221 376.551 451.432C375.809 452.406 374.997 453.328 374.193 454.255C374.118 454.334 373.925 454.316 373.785 454.347Z" fill="white"/>
<path d="M330.935 442.299C331.049 443.191 330.962 443.573 330.382 443.63C329.987 443.669 329.653 443.555 329.548 443.142C329.302 442.171 329.069 441.196 328.867 440.212C328.757 439.681 329.091 439.426 329.57 439.334C330.083 439.233 330.386 439.439 330.483 439.962C330.659 440.876 330.839 441.789 330.935 442.299Z" fill="white"/>
<path d="M374.285 449.776C373.583 450.663 372.836 451.647 372.037 452.583C371.822 452.833 371.492 452.618 371.255 452.46C370.913 452.227 370.777 451.902 371.031 451.537C371.655 450.641 372.296 449.758 372.942 448.876C373.157 448.586 373.411 448.621 373.688 448.818C373.987 449.034 374.298 449.218 374.285 449.776Z" fill="white"/>
<path d="M288.687 486.305C288.042 486.195 287.264 486.051 286.478 485.933C285.969 485.854 285.728 485.618 285.776 485.07C285.837 484.374 286.233 484.265 286.825 484.374C287.607 484.519 288.393 484.624 289.175 484.773C289.666 484.865 290.215 484.926 290.136 485.657C290.035 486.546 289.39 486.34 288.687 486.305Z" fill="white"/>
<path d="M369.595 451.133C369.02 451.217 368.506 450.509 368.809 449.969C369.306 449.086 369.885 448.247 370.452 447.404C370.777 446.916 371.194 447.044 371.572 447.329C371.883 447.562 372.046 447.883 371.795 448.26C371.189 449.165 370.584 450.07 369.96 450.962C369.89 451.063 369.71 451.085 369.595 451.133Z" fill="white"/>
<path d="M311.28 446.842C311.412 446.951 311.605 447.052 311.71 447.21C312.264 448.049 312.813 448.888 313.322 449.749C313.594 450.21 313.357 450.557 312.927 450.798C312.523 451.027 312.224 450.812 312.018 450.513C311.447 449.687 310.85 448.871 310.384 447.988C309.967 447.197 310.687 447.052 311.28 446.842Z" fill="white"/>
<path d="M366.021 444.175C366.456 444.373 367.15 444.504 366.864 445.163C366.407 446.222 365.797 447.215 365.209 448.212C365.037 448.497 364.704 448.396 364.44 448.238C364.194 448.093 363.83 447.948 363.984 447.619C364.497 446.503 365.064 445.414 365.635 444.324C365.674 444.232 365.876 444.223 366.021 444.175Z" fill="white"/>
<path d="M287.396 481.523C288.209 481.716 289.135 481.93 290.053 482.162C290.584 482.294 290.698 482.67 290.597 483.165C290.501 483.624 290.18 483.738 289.789 483.668C288.854 483.502 287.923 483.314 286.997 483.121C286.487 483.016 286.246 482.683 286.351 482.171C286.452 481.676 286.742 481.392 287.396 481.523Z" fill="white"/>
<path d="M391.798 481.512C391.108 481.573 390.73 481.455 390.656 480.903C390.603 480.505 390.739 480.216 391.161 480.098C392.127 479.831 393.093 479.56 394.059 479.297C394.467 479.188 394.757 479.354 394.898 479.739C395.069 480.194 394.999 480.641 394.502 480.794C393.545 481.092 392.566 481.311 391.798 481.512Z" fill="white"/>
<path d="M353.366 440.418C353.133 441.433 352.957 442.286 352.733 443.125C352.606 443.604 352.272 443.814 351.745 443.691C351.183 443.564 351.108 443.221 351.218 442.729C351.407 441.881 351.552 441.029 351.745 440.181C351.864 439.658 352.066 439.206 352.768 439.399C353.431 439.579 353.436 440.054 353.366 440.418Z" fill="white"/>
<path d="M292.082 475.822C291.12 475.463 290.092 475.113 289.1 474.688C288.722 474.526 288.7 474.123 288.867 473.751C289.021 473.418 289.214 473.037 289.653 473.199C290.672 473.571 291.673 473.996 292.67 474.421C293.065 474.592 293.158 474.92 292.977 475.31C292.815 475.66 292.569 475.901 292.082 475.822Z" fill="white"/>
<path d="M373.706 533.927C373.811 534.02 373.987 534.138 374.114 534.292C374.724 535.012 375.322 535.746 375.932 536.471C376.279 536.879 376.27 537.248 375.835 537.578C375.466 537.854 375.111 538.048 374.733 537.547C374.123 536.734 373.442 535.97 372.863 535.135C372.564 534.696 373.135 533.866 373.706 533.927Z" fill="white"/>
<path d="M315.364 539.309C314.85 540.183 314.27 541.255 313.599 542.269C313.344 542.656 312.962 542.348 312.663 542.151C312.312 541.913 312.215 541.606 312.435 541.233C312.944 540.363 313.454 539.489 313.994 538.637C314.205 538.308 314.538 538.193 314.92 538.431C315.166 538.58 315.412 538.734 315.364 539.309Z" fill="white"/>
<path d="M286.834 500.284C286.052 500.315 285.433 500.416 285.354 499.566C285.28 498.726 285.872 498.669 286.47 498.63C287.33 498.577 288.187 498.525 289.047 498.494C289.486 498.476 289.68 498.774 289.719 499.159C289.763 499.553 289.618 499.868 289.183 499.938C288.332 500.07 287.48 500.188 286.834 500.284Z" fill="white"/>
<path d="M392.175 471.966C392.131 472.347 391.982 472.548 391.675 472.671C390.796 473.017 389.918 473.363 389.057 473.748C388.548 473.976 388.236 473.827 388.017 473.359C387.841 472.982 387.881 472.619 388.263 472.43C389.242 471.957 390.225 471.467 391.249 471.112C391.986 470.858 391.969 471.611 392.175 471.966Z" fill="white"/>
<path d="M290.892 470.555C291.766 470.997 292.868 471.5 293.917 472.104C294.277 472.31 294.084 472.765 293.886 473.063C293.733 473.295 293.504 473.483 293.166 473.33C292.191 472.883 291.199 472.468 290.233 471.991C289.838 471.798 289.908 471.408 290.044 471.054C290.154 470.769 290.303 470.542 290.892 470.555Z" fill="white"/>
<path d="M313.037 537.199C313.08 537.959 311.267 540.846 310.96 540.846C310.7 540.85 310.419 540.697 310.178 540.556C309.906 540.398 309.77 540.108 309.95 539.818C310.538 538.895 311.14 537.981 311.772 537.089C311.939 536.856 312.242 536.747 312.545 536.944C312.799 537.111 313.037 537.278 313.037 537.199Z" fill="white"/>
<path d="M380.74 532.882C380.411 533.325 380.27 533.576 380.073 533.773C379.867 533.976 379.581 534.151 379.318 533.892C378.545 533.141 377.772 532.381 377.043 531.59C376.683 531.203 376.828 530.812 377.219 530.483C377.574 530.184 377.86 530.294 378.154 530.562C379.006 531.335 379.867 532.1 380.74 532.882Z" fill="white"/>
<path d="M299.34 524.503C299.336 524.889 299.081 525.043 298.853 525.214C298.163 525.74 297.461 526.248 296.78 526.783C296.376 527.099 296.034 527.134 295.669 526.713C295.331 526.318 295.252 525.941 295.696 525.612C296.565 524.968 297.417 524.28 298.365 523.767C298.967 523.443 299.209 524.039 299.34 524.503Z" fill="white"/>
<path d="M386.901 525.043C386.488 525.048 383.762 523.191 383.77 522.832C383.779 522.294 384.073 521.659 384.662 521.939C385.702 522.429 386.642 523.134 387.595 523.8C387.832 523.966 387.806 524.312 387.595 524.579C387.411 524.807 387.226 525.026 386.901 525.043Z" fill="white"/>
<path d="M294.567 524.584C294.211 524.619 294.093 524.339 293.922 524.111C293.649 523.752 293.715 523.423 294.058 523.2C294.962 522.608 295.88 522.043 296.807 521.491C297.083 521.329 297.356 521.434 297.549 521.706C297.711 521.942 297.887 522.179 297.777 522.486C297.672 522.797 294.914 524.584 294.567 524.584Z" fill="white"/>
<path d="M295.375 519.137C295.902 519.132 296.122 519.299 296.258 519.575C296.438 519.939 296.425 520.311 296.069 520.526C295.142 521.087 294.194 521.609 293.25 522.134C292.934 522.31 292.723 522.121 292.547 521.872C292.336 521.569 292.068 521.126 292.389 520.912C293.395 520.228 294.479 519.658 295.375 519.137Z" fill="white"/>
<path d="M291.875 519.627C291.37 519.622 291.212 519.381 291.067 519.136C290.865 518.795 290.804 518.414 291.195 518.2C292.143 517.683 293.114 517.197 294.093 516.733C294.501 516.536 294.778 516.799 294.949 517.145C295.072 517.394 295.248 517.731 294.94 517.915C293.895 518.532 292.815 519.106 291.875 519.627Z" fill="white"/>
<path d="M391.894 516.683C391.723 517.169 391.521 517.721 390.853 517.454C389.905 517.077 388.996 516.6 388.069 516.166C387.643 515.965 387.635 515.637 387.788 515.26C387.902 514.984 388.087 514.682 388.412 514.77C389.611 515.089 390.726 515.623 391.78 516.276C391.868 516.328 391.859 516.534 391.894 516.683Z" fill="white"/>
<path d="M291.335 480.201C291.247 480.792 290.993 481.138 290.461 481.006C289.416 480.753 288.384 480.451 287.352 480.144C287.032 480.048 286.997 479.737 287.014 479.444C287.032 479.146 287.133 478.796 287.445 478.796C288.757 478.783 289.969 479.247 291.164 479.728C291.282 479.776 291.296 480.092 291.335 480.201Z" fill="white"/>
<path d="M288.828 475.949C289.684 476.251 290.633 476.593 291.585 476.93C291.959 477.061 292.248 477.302 292.126 477.718C292.003 478.139 291.748 478.555 291.199 478.393C290.167 478.086 289.135 477.762 288.13 477.377C287.721 477.219 287.787 476.79 287.914 476.44C288.046 476.072 288.292 475.84 288.828 475.949Z" fill="white"/>
<path d="M288.411 489.016C287.541 488.964 287.106 488.942 286.676 488.911C286.017 488.859 285.284 488.859 285.416 487.878C285.526 487.06 286.136 487.13 286.733 487.213C287.449 487.313 288.16 487.418 288.88 487.497C289.451 487.559 289.864 487.738 289.763 488.421C289.658 489.134 289.144 489.077 288.621 489.021C288.406 488.999 288.187 489.016 288.411 489.016Z" fill="white"/>
<path d="M393.945 489.525C393.73 489.543 393.514 489.56 393.299 489.587C392.676 489.67 392.109 489.657 392.07 488.825C392.035 488.077 392.592 488.116 393.102 488.063C393.962 487.98 394.819 487.871 395.675 487.77C396.123 487.718 396.342 487.967 396.399 488.361C396.47 488.808 396.435 489.267 395.877 489.355C395.24 489.455 394.59 489.473 393.945 489.525Z" fill="white"/>
<path d="M299.67 463.158C299.406 463.535 299.231 464.242 298.611 463.873C297.623 463.289 296.706 462.579 295.819 461.846C295.502 461.582 295.757 461.179 295.994 460.893C296.187 460.661 296.447 460.485 296.732 460.687C297.667 461.359 298.589 462.056 299.503 462.758C299.595 462.837 299.613 463.013 299.67 463.158Z" fill="white"/>
<path d="M377.566 535.997C377.386 535.918 377.144 535.883 377.017 535.742C376.332 534.996 375.677 534.219 375.01 533.46C374.716 533.127 374.768 532.802 375.032 532.495C375.374 532.091 375.796 532.065 376.152 532.429C376.863 533.149 377.583 533.873 378.198 534.667C378.742 535.365 378.084 535.659 377.566 535.997Z" fill="white"/>
<path d="M318.192 447.233C318.214 447.799 317.928 447.984 317.568 448.107C317.155 448.247 316.892 448.063 316.703 447.698C316.273 446.868 315.838 446.038 315.403 445.212C315.223 444.87 315.122 444.523 315.531 444.285C315.9 444.07 316.396 443.802 316.677 444.272C317.261 445.256 317.731 446.31 318.192 447.233Z" fill="white"/>
<path d="M383.95 458.75C384.433 458.799 384.886 459.713 384.53 460.033C383.74 460.758 382.879 461.404 382.036 462.063C381.786 462.257 381.491 462.239 381.259 462.02C381.061 461.831 380.815 461.655 380.894 461.299C381.004 460.842 383.533 458.706 383.95 458.75Z" fill="white"/>
<path d="M300.517 461.795C300.1 461.755 297.558 459.715 297.474 459.382C297.395 459.07 297.558 458.833 297.746 458.614C297.935 458.386 298.177 458.18 298.466 458.39C299.463 459.097 300.517 459.785 301.202 460.803C301.554 461.33 301 461.667 300.517 461.795Z" fill="white"/>
<path d="M361.652 442.844C361.261 443.753 360.822 444.825 360.343 445.875C360.198 446.196 359.891 446.143 359.597 446.046C359.215 445.923 358.881 445.677 359.013 445.282C359.382 444.193 359.816 443.121 360.277 442.066C360.409 441.768 360.752 441.829 361.041 441.93C361.41 442.053 361.7 442.22 361.652 442.844Z" fill="white"/>
<path d="M321.419 441.71C321.762 441.693 321.99 441.842 322.096 442.137C322.438 443.081 322.772 444.026 323.101 444.975C323.237 445.37 323.123 445.7 322.724 445.836C322.302 445.981 321.894 446.016 321.692 445.449C321.354 444.509 320.963 443.582 320.616 442.642C320.326 441.855 321.033 441.908 321.419 441.71Z" fill="white"/>
<path d="M358.938 441.741C358.6 442.769 358.314 443.749 357.941 444.698C357.752 445.186 357.287 445.208 356.826 445.032C356.36 444.856 356.4 444.505 356.514 444.14C356.791 443.231 357.054 442.321 357.357 441.42C357.533 440.889 357.95 440.867 358.424 441.007C358.837 441.126 359.026 441.363 358.938 441.741Z" fill="white"/>
<path d="M325.679 443.964C325.78 444.491 325.679 444.82 325.275 444.965C324.801 445.137 324.432 445.036 324.26 444.5C323.975 443.599 323.694 442.699 323.387 441.807C323.193 441.245 323.527 441.003 323.953 440.823C324.511 440.59 324.744 440.924 324.884 441.385C325.17 442.286 325.442 443.186 325.679 443.964Z" fill="white"/>
<path d="M309.019 453.413C308.803 453.848 308.452 454.423 307.943 453.966C307.095 453.207 306.375 452.289 305.681 451.375C305.387 450.988 306.059 450.141 306.546 450.198C306.915 450.251 309.041 452.965 309.019 453.413Z" fill="white"/>
<path d="M303.121 458.913C302.836 459.387 302.577 459.9 301.94 459.51C301.009 458.935 300.232 458.172 299.516 457.352C299.217 457.01 299.353 456.698 299.643 456.413C299.933 456.124 300.258 456.01 300.587 456.308C301.338 456.992 302.072 457.69 302.796 458.396C302.946 458.536 303.02 458.747 303.121 458.913Z" fill="white"/>
<path d="M331.73 439.888C331.756 439.47 331.633 438.974 332.248 438.847C332.863 438.719 333.241 438.948 333.328 439.58C333.456 440.446 333.574 441.316 333.68 442.185C333.737 442.651 333.662 443.068 333.087 443.156C332.56 443.235 332.266 443.016 332.182 442.48C332.046 441.614 331.884 440.753 331.73 439.888Z" fill="white"/>
<path d="M343.147 440.832C343.187 440.05 343.217 439.549 343.231 439.044C343.244 438.481 343.582 438.301 344.074 438.319C344.583 438.341 344.855 438.587 344.803 439.136C344.728 439.922 344.684 440.713 344.605 441.495C344.557 441.97 344.675 442.572 343.916 442.603C342.993 442.642 343.143 441.974 343.147 441.412C343.147 441.126 343.147 440.841 343.147 440.832Z" fill="white"/>
<path d="M387.705 471.361C387.169 471.365 387.02 471.116 386.884 470.862C386.682 470.494 386.721 470.179 387.125 469.969C388.021 469.5 388.921 469.041 389.813 468.568C390.212 468.358 390.493 468.476 390.708 468.84C390.888 469.142 391.205 469.544 390.805 469.776C389.747 470.389 388.636 470.892 387.705 471.361Z" fill="white"/>
<path d="M394.217 496.31C394.797 496.337 395.376 496.341 395.947 496.398C396.443 496.446 396.724 496.731 396.663 497.269C396.601 497.759 396.351 498.092 395.829 498.057C394.819 497.991 393.813 497.886 392.807 497.781C392.342 497.733 392.276 497.37 392.28 496.989C392.285 496.577 392.465 496.31 392.917 496.31C393.348 496.31 393.782 496.31 394.217 496.31Z" fill="white"/>
<path d="M304.193 452.079C304.447 452.017 304.588 452.197 304.724 452.351C305.405 453.101 306.094 453.851 306.748 454.622C307.113 455.052 306.889 455.412 306.524 455.736C306.156 456.061 305.866 455.885 305.602 455.605C304.904 454.868 304.188 454.144 303.543 453.364C303.218 452.965 303.688 452.105 304.193 452.079Z" fill="white"/>
<path d="M292.863 512.491C292.885 512.863 292.679 513.056 292.402 513.17C291.471 513.551 290.54 513.927 289.601 514.282C289.21 514.43 288.907 514.299 288.762 513.883C288.639 513.537 288.503 513.104 288.88 512.92C289.97 512.391 291.094 511.896 292.306 511.752C292.727 511.699 292.789 512.18 292.863 512.491Z" fill="white"/>
<path d="M369.126 537.06C369.336 537.2 369.552 537.279 369.657 537.433C370.237 538.263 370.803 539.107 371.352 539.963C371.651 540.429 371.479 540.767 371.009 541.009C370.667 541.184 370.32 541.334 370.065 540.938C369.477 540.025 368.858 539.124 368.37 538.158C368.037 537.499 368.682 537.336 369.126 537.06Z" fill="white"/>
<path d="M308.408 539.252C307.934 539.12 307.319 538.799 307.574 538.29C308.123 537.196 308.817 536.128 309.827 535.395C310.204 535.118 310.661 535.518 310.779 535.983C310.894 536.436 308.896 539.177 308.408 539.252Z" fill="white"/>
<path d="M298.019 465.381C297.896 465.906 297.637 466.401 297.013 466.073C296.06 465.574 295.169 464.956 294.273 464.361C293.904 464.115 293.944 463.765 294.189 463.432C294.405 463.143 294.673 462.767 295.046 463.003C296.016 463.612 296.938 464.299 297.865 464.969C297.961 465.044 297.966 465.232 298.019 465.381Z" fill="white"/>
<path d="M366.75 538.544C366.917 538.628 367.185 538.667 367.281 538.817C367.865 539.735 368.436 540.657 368.954 541.61C369.249 542.151 368.748 542.344 368.405 542.59C367.988 542.884 367.712 542.656 367.527 542.335C367.022 541.457 366.539 540.565 366.078 539.665C365.731 538.997 366.227 538.777 366.75 538.544Z" fill="white"/>
<path d="M305.984 537.473C305.554 537.162 304.829 536.956 305.431 536.201C306.063 535.411 306.731 534.647 307.389 533.875C307.688 533.524 308.035 533.59 308.338 533.831C308.544 533.993 308.9 534.213 308.676 534.52C307.947 535.503 307.174 536.455 306.401 537.403C306.336 537.482 306.138 537.451 305.984 537.473Z" fill="white"/>
<path d="M325.174 544.009C324.994 544.58 324.686 545.542 324.383 546.513C324.212 547.062 323.808 547.084 323.347 546.974C322.789 546.838 322.715 546.473 322.89 545.99C323.207 545.103 323.523 544.215 323.835 543.328C323.979 542.911 324.282 542.81 324.682 542.889C325.077 542.963 325.358 543.13 325.174 544.009Z" fill="white"/>
<path d="M327.009 543.605C327.475 543.666 327.94 543.842 327.874 544.211C327.664 545.345 327.356 546.465 327.009 547.567C326.878 547.993 326.43 547.884 326.074 547.813C325.754 547.747 325.53 547.532 325.613 547.216C325.903 546.096 326.223 544.984 326.57 543.886C326.614 543.741 326.895 543.671 327.009 543.605Z" fill="white"/>
<path d="M355.508 546.657C355.728 547.584 355.526 547.905 355.012 548.037C354.468 548.177 354.209 547.914 354.086 547.413C353.862 546.495 353.611 545.581 353.396 544.659C353.308 544.277 353.396 543.956 353.84 543.816C354.358 543.653 354.7 543.825 354.85 544.325C355.122 545.234 355.368 546.148 355.508 546.657Z" fill="white"/>
<path d="M333.131 546.351C333.034 546.887 332.894 547.664 332.758 548.442C332.665 548.973 332.332 549.149 331.835 549.074C331.256 548.991 331.207 548.56 331.273 548.112C331.392 547.33 331.541 546.553 331.677 545.775C331.765 545.283 331.783 544.703 332.512 544.787C333.385 544.884 333.175 545.547 333.131 546.351Z" fill="white"/>
<path d="M334.659 440.23C334.659 439.799 334.606 439.364 334.672 438.946C334.742 438.516 335.12 438.45 335.511 438.454C335.84 438.459 336.095 438.573 336.126 438.916C336.222 440.001 336.31 441.086 336.367 442.172C336.389 442.616 336.069 442.787 335.66 442.804C335.23 442.822 334.979 442.598 334.931 442.185C334.852 441.535 334.799 440.884 334.738 440.234C334.712 440.23 334.685 440.23 334.659 440.23Z" fill="white"/>
<path d="M354.604 444.373C354.086 444.245 353.712 444.043 353.849 443.481C354.086 442.501 354.354 441.53 354.608 440.555C354.722 440.112 355.043 440.05 355.434 440.094C355.833 440.142 356.211 440.353 356.158 440.74C355.992 441.948 355.658 443.121 355.113 444.219C355.017 444.403 354.775 444.469 354.604 444.373Z" fill="white"/>
<path d="M315.812 448.52C315.799 449.012 315.597 449.196 315.333 449.341C314.96 449.548 314.613 449.499 314.393 449.139C313.867 448.269 313.362 447.391 312.87 446.499C312.663 446.116 312.835 445.809 313.173 445.576C313.423 445.4 313.779 445.251 313.95 445.506C314.631 446.525 315.245 447.593 315.812 448.52Z" fill="white"/>
<path d="M378.738 452.847C378.852 453.589 378.619 453.773 378.422 453.984C377.877 454.559 377.324 455.126 376.797 455.714C376.411 456.149 376.033 456.351 375.528 455.881C375.093 455.477 375.287 455.135 375.581 454.775C376.125 454.103 376.652 453.418 377.197 452.75C377.434 452.456 377.741 452.254 378.128 452.456C378.439 452.623 378.725 452.838 378.738 452.847Z" fill="white"/>
<path d="M392.829 484.099C391.903 484.222 391.49 484.217 391.376 483.64C391.275 483.136 391.455 482.817 391.973 482.707C392.886 482.515 393.804 482.331 394.718 482.125C395.139 482.029 395.416 482.143 395.504 482.58C395.587 483.001 395.701 483.482 395.113 483.622C394.199 483.837 393.282 484.007 392.829 484.099Z" fill="white"/>
<path d="M286.786 503.121C286.219 503.147 285.771 503.099 285.736 502.368C285.71 501.782 286.066 501.65 286.531 501.585C287.462 501.458 288.389 501.296 289.324 501.195C289.724 501.151 290.005 501.37 290.062 501.799C290.114 502.206 289.996 502.517 289.557 502.605C288.635 502.789 287.708 502.951 286.786 503.121Z" fill="white"/>
<path d="M291.919 509.873C291.893 510.009 291.893 510.158 291.827 510.271C291.656 510.569 288.56 511.655 288.222 511.545C287.901 511.445 287.827 511.16 287.77 510.884C287.717 510.609 287.647 510.245 287.985 510.136C289.074 509.781 290.167 509.435 291.282 509.173C291.713 509.072 291.853 509.505 291.919 509.873Z" fill="white"/>
<path d="M390.515 509.665C391.573 509.997 392.531 510.295 393.488 510.611C394.019 510.79 394.024 511.154 393.857 511.631C393.672 512.17 393.365 512.262 392.873 512.082C391.995 511.767 391.108 511.478 390.234 511.154C389.764 510.978 389.575 510.667 389.786 510.151C389.953 509.757 390.208 509.616 390.515 509.665Z" fill="white"/>
<path d="M328.362 443.34C328.401 443.744 328.327 444.052 327.888 444.17C327.514 444.271 327.115 444.271 326.983 443.863C326.649 442.844 326.368 441.803 326.105 440.762C325.995 440.314 326.342 440.164 326.711 440.046C327.137 439.91 327.44 440.041 327.558 440.432C327.852 441.399 328.098 442.374 328.362 443.34Z" fill="white"/>
<path d="M391.319 478.754C390.287 479.021 390.041 478.697 389.914 478.237C389.791 477.786 390.059 477.602 390.449 477.48C391.345 477.191 392.228 476.871 393.124 476.577C393.642 476.411 393.94 476.665 394.094 477.142C394.261 477.659 394.077 477.944 393.55 478.084C392.641 478.334 391.749 478.623 391.319 478.754Z" fill="white"/>
<path d="M363.896 544.396C363.839 544.827 363.654 545.029 363.373 545.156C363 545.332 362.618 545.323 362.433 544.932C361.972 543.944 361.551 542.933 361.147 541.919C361.028 541.624 361.182 541.348 361.467 541.203C361.819 541.023 362.258 540.965 362.447 541.326C362.987 542.358 363.448 543.43 363.896 544.396Z" fill="white"/>
<path d="M303.767 535.561C303.371 535.32 302.726 535.074 303.178 534.472C303.828 533.606 304.605 532.833 305.365 532.051C305.659 531.752 306.028 531.84 306.327 532.121C306.647 532.424 306.621 532.754 306.358 533.075C305.756 533.8 305.15 534.52 304.531 535.232C304.342 535.443 304.131 535.662 303.767 535.561Z" fill="white"/>
<path d="M287.857 508.766C287.313 508.888 287.041 508.652 286.944 508.131C286.869 507.719 286.97 507.399 287.392 507.286C288.371 507.023 289.355 506.773 290.343 506.541C290.76 506.445 291.001 506.668 291.142 507.067C291.34 507.627 291.05 507.877 290.584 508.013C289.68 508.271 288.766 508.512 287.857 508.766Z" fill="white"/>
<path d="M388.065 464.196C388.162 464.585 387.933 464.76 387.692 464.918C386.91 465.426 386.128 465.934 385.338 466.424C384.925 466.678 384.552 466.687 384.245 466.223C383.946 465.768 384.043 465.448 384.486 465.163C385.272 464.66 386.045 464.143 386.822 463.631C387.591 463.123 387.801 463.745 388.065 464.196Z" fill="white"/>
<path d="M394.494 493.565C394.639 493.565 394.788 493.539 394.924 493.569C395.587 493.709 396.76 493.07 396.694 494.401C396.632 495.648 395.491 495.036 394.814 495.136C394.252 495.219 393.664 495.136 393.093 495.11C392.566 495.084 392.346 494.777 392.351 494.27C392.355 493.696 392.72 493.569 393.198 493.569C393.629 493.569 394.063 493.569 394.494 493.569C394.494 493.569 394.494 493.565 394.494 493.565Z" fill="white"/>
<path d="M338.576 547.211C338.541 547.791 338.484 548.375 338.47 548.955C338.462 549.548 338.119 549.671 337.623 549.645C337.184 549.623 336.982 549.403 337.004 548.964C337.043 548.09 337.074 547.216 337.105 546.341C337.127 545.744 337.386 545.322 338.023 545.397C338.725 545.476 338.716 546.008 338.615 546.557C338.576 546.772 338.576 546.992 338.558 547.207C338.567 547.211 338.571 547.211 338.576 547.211Z" fill="white"/>
<path d="M287.506 491.693C286.935 491.662 286.36 491.658 285.789 491.592C285.354 491.544 285.245 491.207 285.236 490.817C285.227 490.384 285.438 490.143 285.864 490.156C286.865 490.183 287.87 490.218 288.872 490.288C289.39 490.323 289.596 490.664 289.552 491.172C289.508 491.645 289.175 491.723 288.801 491.736C288.371 491.75 287.941 491.741 287.51 491.741C287.506 491.723 287.506 491.706 287.506 491.693Z" fill="white"/>
<path d="M393.018 486.854C392.522 486.846 391.956 487.034 391.833 486.285C391.718 485.602 392.179 485.445 392.724 485.366C393.58 485.248 394.432 485.112 395.284 484.99C395.745 484.92 395.916 485.204 395.995 485.585C396.075 485.975 396.013 486.32 395.561 486.408C394.722 486.574 393.87 486.706 393.018 486.854Z" fill="white"/>
<path d="M287.019 497.368C286.803 497.368 286.588 497.385 286.373 497.363C285.916 497.32 285.31 497.56 285.218 496.786C285.122 495.971 285.622 495.845 286.272 495.845C287.058 495.845 287.848 495.805 288.635 495.801C289.087 495.801 289.495 495.893 289.526 496.471C289.552 497.022 289.227 497.223 288.736 497.25C288.165 497.28 287.589 497.307 287.019 497.337C287.019 497.346 287.019 497.355 287.019 497.368Z" fill="white"/>
<path d="M344.113 548.006C343.924 548.393 344.93 549.566 343.56 549.645C342.273 549.719 342.84 548.538 342.717 547.87C342.629 547.383 342.669 546.869 342.651 546.368C342.638 545.902 342.73 545.516 343.31 545.489C343.863 545.463 344.087 545.766 344.104 546.262C344.131 546.768 344.113 547.268 344.113 548.006Z" fill="white"/>
<path d="M340.407 445.177C312.264 445.309 291.924 468.13 292.134 494.057C292.029 520.665 313.217 542.024 338.967 542.871C367.628 543.812 389.712 521.091 389.799 494.18C389.883 467.998 369.459 445.036 340.407 445.177ZM385.496 509.96C385.237 510.913 384.785 511.067 383.893 510.702C383.046 510.355 382.132 509.507 381.298 509.946C380.508 510.364 380.411 511.559 379.994 512.402C379.388 513.636 378.286 514.915 378.36 516.118C378.435 517.305 380.486 517.384 381.368 518.535C377.68 524.698 372.77 529.697 366.776 533.651C363.839 535.592 360.681 537.099 357.419 538.417C356.422 538.817 355.899 538.804 355.495 537.622C354.608 535.052 354.538 535.078 351.815 535.821C351.464 535.917 351.104 535.988 350.748 536.071C349.756 536.313 348.478 536.265 347.85 536.88C347.143 537.569 347.824 538.808 347.991 539.796C348.118 540.561 347.784 540.851 347.077 540.947C345.189 541.202 343.296 541.316 341.391 541.325C340.583 541.33 340.13 541.084 340.223 540.196C340.262 539.836 340.236 539.467 340.24 539.098C340.275 537.191 340.473 537.288 338.369 537.147C329.451 536.546 321.437 533.488 314.328 528.058C313.924 527.751 313.52 527.43 313.146 527.083C312.558 526.525 312.057 526.49 311.508 527.167C310.911 527.9 310.244 528.572 309.488 529.398C307.464 527.58 305.743 525.809 304.21 523.854C304.957 522.655 306.327 522.211 307.165 521.021C305.94 519.426 304.742 517.779 303.745 516.004C303.253 515.126 302.787 515.205 301.988 515.635C299.393 517.032 299.393 516.988 298.115 514.265C294.031 505.54 292.727 496.407 294.106 486.883C294.207 486.172 294.194 485.421 294.637 484.814C295.968 484.595 297.443 485.913 298.396 485.056C299.178 484.353 299.178 482.785 299.529 481.603C299.551 481.533 299.582 481.467 299.599 481.397C299.832 480.421 300.666 479.424 300.315 478.528C299.981 477.68 298.708 477.654 297.839 477.32C297.061 477.021 296.776 476.666 297.175 475.866C298.023 474.166 298.857 472.457 299.67 470.739C300.052 469.936 300.478 469.949 301.22 470.357C302.067 470.823 302.849 472.005 303.833 471.513C304.579 471.139 304.965 470.045 305.514 469.268C310.547 462.142 317.112 456.972 325.222 453.769C327.159 453.005 327.159 453.01 326.522 451.033C325.903 449.104 325.894 449.078 327.822 448.559C329.302 448.164 330.817 447.883 332.292 447.47C333.223 447.211 333.574 447.47 333.763 448.423C333.943 449.319 333.592 450.545 334.461 451.05C335.252 451.507 336.314 451.033 337.254 450.971C338.277 450.905 339.296 450.76 340.315 450.782C341.254 450.8 341.536 450.484 341.562 449.526C341.641 446.622 341.694 446.578 344.513 446.811C354.332 447.624 363.11 451.081 370.781 457.293C372.23 458.466 372.213 458.488 370.992 459.946C370.851 460.113 370.72 460.297 370.557 460.438C369.631 461.229 369.653 461.918 370.619 462.722C372.076 463.939 373.451 465.261 374.983 466.65C375.581 466.404 376.301 465.657 377.082 465.011C377.702 464.501 378.097 464.62 378.496 465.218C379.599 466.856 380.688 468.499 381.812 470.12C382.295 470.818 381.939 471.117 381.368 471.482C380.53 472.013 379.098 472.172 378.993 473.142C378.896 474.012 379.726 474.983 380.143 475.91C383.748 483.927 384.908 492.278 383.56 500.976C383.287 502.72 383.331 502.724 384.978 503.067C385.334 503.142 385.689 503.256 386.049 503.291C386.941 503.379 387.362 503.722 387.051 504.706C386.497 506.445 385.975 508.198 385.496 509.96Z" fill="white"/>
<path d="M311.438 468.095C311.508 468.121 311.588 468.13 311.64 468.174C313.638 469.659 313.638 469.659 312.167 471.601C302.581 484.239 301.857 500.682 310.336 513.883C311.759 516.101 313.432 518.126 315.32 519.976C316.927 521.548 316.826 521.184 315.425 522.879C315.285 523.046 315.144 523.218 315.013 523.38C299.586 510.952 296.17 484.81 311.438 468.095Z" fill="white"/>
<path d="M380.275 494.399C380.227 503.177 377.276 511.554 371.422 518.903C370.461 520.112 369.143 519.879 368.485 518.455C368.177 517.788 368.779 517.533 369.055 517.195C371.181 514.563 372.915 511.708 374.29 508.619C380.249 495.238 377.416 479.318 367.185 468.749C366.829 468.38 366.495 467.984 366.104 467.659C365.283 466.987 365.174 466.456 365.951 465.538C366.829 464.501 367.281 464.712 368.142 465.529C375.73 472.729 380.02 482.653 380.275 494.399Z" fill="white"/>
<path d="M341.206 467.098C326.254 466.966 314.108 478.989 314.038 493.991C313.968 508.716 325.956 520.819 340.714 520.929C355.557 521.039 367.69 509.046 367.795 494.149C367.9 479.411 355.921 467.225 341.206 467.098ZM359.746 495.252C359.083 504.552 352.105 511.708 342.998 512.71C342.853 512.727 342.708 512.758 342.568 512.784C341.5 512.982 340.113 512.411 339.419 513.153C338.598 514.032 338.94 515.512 338.831 516.738C338.598 519.396 338.624 519.396 336.09 518.899C323.936 516.514 315.482 506.182 315.535 492.111C315.812 485.271 319.307 478.436 326.122 473.336C327.598 472.233 327.629 472.268 328.568 473.775C329.069 474.579 329.552 475.4 330.048 476.209C331.014 477.786 331.023 477.803 332.643 477.052C337.061 475 341.623 474.544 346.3 475.941C355.429 478.669 360.326 487.143 359.746 495.252Z" fill="white"/>
<path d="M349.374 493.934C349.409 498.647 345.65 502.486 340.965 502.521C336.275 502.556 332.38 498.744 332.349 494.092C332.318 489.431 336.108 485.566 340.802 485.473C345.422 485.386 349.339 489.247 349.374 493.934Z" fill="white"/>
</g>
</svg>
