<svg width="226" height="237" viewBox="0 0 226 237" fill="none" xmlns="http://www.w3.org/2000/svg">
<g opacity="0.2">
<path d="M7.96375 139.682C34.0085 139.698 60.0533 139.694 86.1021 139.714C87.1709 139.714 87.9644 139.429 88.7301 138.589C92.0401 134.967 95.4098 131.409 98.7556 127.823C111.086 114.62 123.425 101.43 135.727 88.1986C136.597 87.2621 137.47 86.9179 138.67 86.9379C142.53 87.0059 146.395 86.9739 150.259 86.9539C150.857 86.9499 151.495 87.15 152.061 86.7298C152.177 85.6852 151.463 85.9054 150.961 85.9014C146.849 85.8894 142.738 85.9614 138.626 85.8613C137.123 85.8253 136.082 86.3616 135.037 87.4782C119.648 104.011 104.211 120.496 88.8258 137.032C87.777 138.161 86.7561 138.633 85.2567 138.633C59.1441 138.585 33.0275 138.597 6.91493 138.597C7.26587 138.957 7.62079 139.313 7.96375 139.682Z" fill="#BDBDBD"/>
<path d="M5.52318 54.9974C9.44724 55.0134 13.3753 54.9533 17.2994 55.0294C18.8945 55.0574 20.0749 54.5771 21.2434 53.3205C36.6645 36.7195 52.1494 20.1906 67.5864 3.6057C68.4997 2.62517 69.3969 2.24496 70.681 2.24496C88.0043 2.28898 105.324 2.27297 122.647 2.27297C130.814 2.27297 138.985 2.27297 147.152 2.26497C146.734 1.92078 146.323 1.57259 145.908 1.2204C120.749 1.2204 95.5893 1.22442 70.4298 1.1924C69.0819 1.1924 68.1168 1.5926 67.1478 2.63317C51.5831 19.3542 35.9666 36.0271 20.4019 52.7481C19.5685 53.6446 18.7509 53.9568 17.6184 53.9408C13.5707 53.8848 9.51903 53.9088 5.46735 53.9288C5.00874 53.9328 4.47836 53.7167 4.04767 54.301C4.25902 55.1975 4.96487 54.9934 5.52318 54.9974Z" fill="#C1C1C1"/>
<path d="M1.05678 133.102C1.10862 133.102 1.15248 133.102 1.20433 133.102C1.23224 117.154 1.22426 101.209 1.22426 85.261C1.22425 75.8401 1.22824 66.4233 1.21229 57.0024C1.21229 56.342 1.40371 55.6297 1.05278 55.0574C0.514414 54.9373 0.330974 55.1974 0.295083 55.5296C0.239253 56.0339 0.239247 56.5501 0.239247 57.0624C0.235261 82.1594 0.239252 107.256 0.215327 132.353C0.498467 132.606 0.777624 132.854 1.05678 133.102Z" fill="#C1C1C1"/>
<path d="M155.87 32.4286C155.87 25.0726 155.87 17.7206 155.866 10.3647C155.551 9.96445 155.224 9.57225 154.889 9.19605C154.889 35.134 154.893 61.068 154.861 87.006C154.861 87.054 154.865 87.0981 154.865 87.1421L155.854 87.1421C155.846 87.014 155.842 86.8819 155.842 86.7459C155.882 68.6401 155.87 50.5343 155.87 32.4286Z" fill="#C1C1C1"/>
<path d="M128.154 3.91384C127.991 2.56111 127.919 1.6326 128.186 0.572028C134.639 0.572027 141.043 0.572027 147.547 0.572026C150.395 3.70172 153.314 6.91546 156.448 10.3653C156.448 19.2021 156.448 28.4711 156.448 37.8962C155.443 38.1884 154.518 38.1484 153.39 37.8802C153.39 29.0715 153.39 20.2907 153.39 11.626C150.929 9.08464 148.62 6.69535 145.932 3.91784C140.421 3.91384 134.371 3.91384 128.154 3.91384Z" fill="white"/>
<path d="M127.775 6.38667e-06L147.775 4.62579e-06L156.987 10.1333L156.987 38.3361L156.588 38.4522C155.551 38.7523 154.562 38.7483 153.274 38.4402L152.851 38.3401L152.851 11.8702L145.713 4.49036L127.68 4.49036L127.62 3.98609C127.46 2.64139 127.369 1.59684 127.668 0.424227L127.775 6.38667e-06ZM147.32 1.14861L128.617 1.14861C128.505 1.83296 128.541 2.50932 128.629 3.33776L146.148 3.33775L153.924 11.378L153.924 37.4076C154.674 37.5517 155.292 37.5597 155.906 37.4356L155.906 10.5976L147.32 1.14861Z" fill="white"/>
<path d="M28.8323 137.184C28.9958 138.537 29.0675 139.465 28.8003 140.526C22.348 140.526 15.9434 140.526 9.43923 140.526C6.59189 137.396 3.67276 134.182 0.538297 130.733C0.538296 121.896 0.538295 112.627 0.538294 103.203C1.54324 102.91 2.46843 102.951 3.597 103.219C3.597 112.027 3.597 120.808 3.597 129.472C6.05752 132.013 8.36649 134.403 11.0543 137.18C16.5695 137.184 22.6191 137.184 28.8323 137.184Z" fill="white"/>
<path d="M29.2112 141.103L9.21199 141.103L2.93195e-06 130.969L4.75111e-07 102.766L0.398787 102.65C1.43563 102.349 2.42462 102.353 3.71271 102.662L4.13542 102.762L4.13542 129.232L11.2737 136.612L29.3069 136.612L29.3667 137.116C29.5262 138.461 29.6179 139.506 29.3188 140.678L29.2112 141.103ZM9.67059 139.95L28.3737 139.95C28.4854 139.266 28.4495 138.589 28.3617 137.761L10.843 137.761L3.06668 129.72L3.06667 103.69C2.31695 103.546 1.69883 103.538 1.0847 103.662L1.0847 130.501L9.67059 139.95Z" fill="white"/>
</g>
<g opacity="0.2">
<path d="M76.9771 234.818C103.022 234.834 129.067 234.83 155.116 234.85C156.184 234.85 156.978 234.566 157.744 233.726C161.053 230.104 164.423 226.546 167.769 222.96C180.1 209.757 192.438 196.566 204.741 183.335C205.61 182.399 206.483 182.055 207.684 182.075C211.544 182.143 215.408 182.111 219.272 182.091C219.871 182.087 220.509 182.287 221.075 181.867C221.191 180.822 220.477 181.042 219.974 181.038C215.863 181.026 211.751 181.098 207.64 180.998C206.136 180.962 205.096 181.498 204.051 182.615C188.661 199.148 173.224 215.632 157.839 232.169C156.79 233.298 155.77 233.77 154.27 233.77C128.157 233.722 102.041 233.734 75.9283 233.734C76.2793 234.094 76.6342 234.45 76.9771 234.818Z" fill="#BDBDBD"/>
<path d="M74.5366 150.133C78.4606 150.149 82.3887 150.089 86.3128 150.165C87.9079 150.193 89.0883 149.713 90.2568 148.456C105.678 131.856 121.163 115.327 136.6 98.7424C137.513 97.7619 138.41 97.3817 139.694 97.3817C157.018 97.4257 174.337 97.4097 191.66 97.4097C199.828 97.4097 207.999 97.4097 216.166 97.4017C215.747 97.0575 215.336 96.7093 214.922 96.3571C189.762 96.3571 164.603 96.3611 139.443 96.3291C138.095 96.3291 137.13 96.7293 136.161 97.7699C120.597 114.491 104.98 131.163 89.4153 147.884C88.5819 148.781 87.7644 149.093 86.6318 149.077C82.5841 149.021 78.5324 149.045 74.4807 149.065C74.0221 149.069 73.4918 148.853 73.0611 149.437C73.2724 150.333 73.9783 150.129 74.5366 150.133Z" fill="#C1C1C1"/>
<path d="M70.0702 228.237C70.122 228.237 70.1659 228.237 70.2178 228.237C70.2457 212.289 70.2377 196.345 70.2377 180.397C70.2377 170.977 70.2417 161.56 70.2257 152.139C70.2257 151.479 70.4171 150.767 70.0662 150.194C69.5278 150.074 69.3444 150.334 69.3085 150.667C69.2527 151.171 69.2527 151.687 69.2527 152.199C69.2487 177.296 69.2527 202.392 69.2288 227.489C69.5119 227.741 69.7911 227.989 70.0702 228.237Z" fill="#C1C1C1"/>
<path d="M224.883 127.566C224.883 120.21 224.883 112.858 224.879 105.502C224.564 105.102 224.237 104.71 223.902 104.334C223.902 130.271 223.906 156.205 223.875 182.142C223.875 182.191 223.879 182.235 223.879 182.279L224.867 182.279C224.86 182.15 224.856 182.018 224.856 181.882C224.895 163.777 224.883 145.671 224.883 127.566Z" fill="#C1C1C1"/>
<path d="M197.168 99.0501C197.004 97.6974 196.932 96.7688 197.2 95.7083C203.652 95.7083 210.057 95.7083 216.561 95.7083C219.408 98.838 222.327 102.052 225.462 105.502C225.462 114.338 225.462 123.608 225.462 133.033C224.457 133.325 223.532 133.285 222.403 133.017C222.403 124.208 222.403 115.427 222.403 106.762C219.942 104.221 217.633 101.832 214.946 99.0541C209.434 99.0501 203.385 99.0501 197.168 99.0501Z" fill="white"/>
<path d="M196.789 95.137L216.788 95.137L226 105.27L226 133.472L225.601 133.588C224.564 133.889 223.575 133.885 222.287 133.576L221.865 133.476L221.865 107.007L214.726 99.6272L196.693 99.6272L196.633 99.123C196.474 97.7783 196.382 96.7338 196.681 95.5612L196.789 95.137ZM216.333 96.2855L197.63 96.2855C197.519 96.9699 197.555 97.6462 197.642 98.4747L215.161 98.4747L222.937 106.515L222.937 132.544C223.687 132.688 224.305 132.696 224.919 132.572L224.919 105.734L216.333 96.2855Z" fill="white"/>
<path d="M97.8457 232.321C98.0092 233.673 98.081 234.602 97.8138 235.662C91.3614 235.662 84.9569 235.662 78.4527 235.662C75.6053 232.533 72.6862 229.319 69.5517 225.869C69.5517 217.033 69.5517 207.764 69.5517 198.339C70.5567 198.047 71.4819 198.087 72.6104 198.355C72.6104 207.164 72.6104 215.944 72.6104 224.609C75.071 227.15 77.3799 229.539 80.0678 232.317C85.583 232.321 91.6326 232.321 97.8457 232.321Z" fill="white"/>
<path d="M98.2246 236.239L78.2254 236.239L69.0134 226.105L69.0134 197.902L69.4122 197.786C70.4491 197.486 71.4381 197.49 72.7261 197.798L73.1488 197.898L73.1489 224.368L80.2872 231.748L98.3203 231.748L98.3801 232.253C98.5396 233.597 98.6314 234.642 98.3323 235.815L98.2246 236.239ZM78.684 235.086L97.3871 235.086C97.4988 234.402 97.4629 233.725 97.3752 232.897L79.8565 232.897L72.0801 224.857L72.0801 198.827C71.3304 198.683 70.7123 198.675 70.0981 198.799L70.0981 225.637L78.684 235.086Z" fill="white"/>
</g>
<g opacity="0.4">
<path d="M89.94 156.926C86.9879 160.54 84.0788 164.097 81.1697 167.658C80.8487 168.05 80.5641 168.462 79.1708 168.269C78.767 167.987 79.0417 167.781 79.2138 167.571C81.9905 164.194 84.7804 160.816 87.5274 157.431C87.8881 156.986 88.2124 156.634 89.94 156.926Z" fill="white"/>
<path d="M101.126 156.923C100.382 157.857 99.6634 158.777 98.9188 159.69C96.7444 162.36 94.537 165.028 92.3924 167.701C92.0283 168.153 91.5981 168.449 90.0989 168.223C90.5788 167.173 91.6146 166.207 92.4056 165.22C94.4939 162.62 96.6749 160.025 98.7798 157.428C99.1339 156.99 99.5013 156.654 101.126 156.923Z" fill="white"/>
<path d="M82.4968 168.189C84.3932 165.864 86.2531 163.589 88.1065 161.311C89.149 160.029 90.1816 158.743 91.2141 157.458C91.5418 157.052 91.8893 156.664 93.319 156.84C93.8518 157.185 93.223 157.434 93.0079 157.703C90.4993 160.806 87.9774 163.905 85.4622 167.007C85.2007 167.329 84.9757 167.655 84.6613 167.967C84.3204 168.306 83.6717 168.402 82.4968 168.189Z" fill="white"/>
<path d="M101.179 168.209C103.592 165.247 105.968 162.327 108.351 159.411C108.933 158.7 109.516 157.986 110.122 157.278C110.419 156.93 110.879 156.661 112.025 156.873C112.432 157.036 112.197 157.219 112.058 157.388C109.377 160.663 106.686 163.941 103.996 167.216C103.79 167.465 103.612 167.718 103.367 167.963C103.033 168.296 102.397 168.395 101.179 168.209Z" fill="white"/>
<path d="M93.7427 168.246C96.7047 164.397 99.9116 160.66 102.894 156.953C103.569 156.777 104.082 156.737 104.614 156.936C104.803 157.351 104.254 157.727 103.953 158.105C101.434 161.241 98.8625 164.373 96.2513 167.496C95.9667 167.841 96.0263 168.396 93.7427 168.246Z" fill="white"/>
<path d="M97.436 168.226C98.5513 166.851 99.5839 165.572 100.626 164.293C102.486 162.014 104.366 159.736 106.193 157.451C106.541 157.019 106.845 156.647 108.619 156.896C107.745 157.972 106.865 159.055 105.985 160.138C103.956 162.632 101.934 165.127 99.895 167.621C99.5839 168 99.3556 168.448 97.436 168.226Z" fill="white"/>
<path d="M86.3062 168.156C87.2163 167.017 88.0768 165.911 88.9803 164.808C91.0024 162.344 93.0543 159.883 95.0632 157.418C95.4206 156.98 95.8144 156.644 97.4129 156.917C96.1553 158.464 94.9142 159.989 93.6732 161.513C92.0747 163.48 90.4762 165.442 88.8677 167.409C88.6625 167.658 88.4871 167.92 88.1529 168.143C87.8087 168.378 87.213 168.355 86.3062 168.156Z" fill="white"/>
<path d="M104.982 168.179C108.033 164.382 111.058 160.596 114.599 156.85C115.46 157.358 115.344 157.869 114.924 158.384C112.746 161.054 110.555 163.725 108.371 166.395C107.878 167 107.381 167.604 106.925 168.166C106.296 168.371 105.776 168.332 104.982 168.179Z" fill="white"/>
<path d="M86.1903 156.903C83.086 160.739 80.071 164.529 76.7217 168.428C75.805 167.631 75.6792 167.315 76.1591 166.731C78.6909 163.632 81.2459 160.533 83.8041 157.438C84.0921 157.092 84.2774 156.667 86.1903 156.903Z" fill="white"/>
<path d="M114.924 160.792C115.251 161.649 115.394 162.483 114.619 163.337C113.302 164.785 112.193 166.263 111.048 167.731C110.734 168.133 110.38 168.442 108.708 168.213C110.555 165.721 112.746 163.267 114.924 160.792Z" fill="white"/>
<path d="M76.4967 164.25C75.7686 163.274 75.8745 162.37 76.7151 161.46C77.9827 160.092 79.0417 158.693 80.1636 157.302C80.5145 156.87 81.1002 156.681 82.4737 156.926C80.4747 159.378 78.4857 161.812 76.4967 164.25Z" fill="white"/>
<path d="M114.881 165.333C115.311 166.283 115.314 167.24 115.122 168.137C114.702 168.322 114.298 168.312 113.924 168.306C113.55 168.299 113.183 168.266 112.547 168.23C112.908 167.193 114.199 166.309 114.881 165.333Z" fill="white"/>
<path d="M78.8365 156.813C77.9396 157.895 77.185 158.804 76.2418 159.938C75.656 158.81 76.0333 157.911 75.891 157.026C76.6886 156.628 77.6219 156.853 78.8365 156.813Z" fill="white"/>
<path d="M79.2634 184.185C78.618 184.185 78.0786 184.078 77.6484 183.869C77.2181 183.66 76.8706 183.371 76.6092 183.005C76.3477 182.64 76.1624 182.218 76.0465 181.74C75.934 181.265 75.8678 180.763 75.848 180.238C75.848 179.983 75.8447 179.72 75.8413 179.455C75.838 179.189 75.838 178.92 75.8413 178.647C75.8447 178.375 75.848 178.106 75.848 177.84C75.8579 177.315 75.9208 176.817 76.0399 176.342C76.1591 175.867 76.3477 175.445 76.6092 175.077C76.8706 174.711 77.2148 174.422 77.6484 174.213C78.0786 174.004 78.618 173.897 79.2634 173.897C79.9088 173.897 80.4482 174.004 80.8785 174.213C81.3087 174.422 81.6562 174.711 81.9176 175.077C82.1791 175.442 82.3677 175.864 82.4869 176.342C82.606 176.82 82.6689 177.319 82.6788 177.84C82.6888 178.106 82.6921 178.375 82.6921 178.647C82.6921 178.92 82.6921 179.189 82.6921 179.455C82.6921 179.72 82.6855 179.983 82.6788 180.238C82.6689 180.763 82.606 181.262 82.4869 181.74C82.3677 182.218 82.1791 182.637 81.9176 183.005C81.6562 183.371 81.312 183.66 80.8785 183.869C80.4449 184.082 79.9088 184.185 79.2634 184.185ZM79.2634 183.328C80.1073 183.328 80.7328 183.049 81.1432 182.484C81.5536 181.919 81.7654 181.152 81.7853 180.169C81.7952 179.893 81.7985 179.634 81.7985 179.391C81.7985 179.149 81.7985 178.906 81.7985 178.664C81.7985 178.422 81.7919 178.172 81.7853 177.913C81.7654 176.953 81.5536 176.186 81.1432 175.615C80.7328 175.043 80.1106 174.758 79.2634 174.758C78.4294 174.758 77.8039 175.043 77.3935 175.615C76.9831 176.186 76.7647 176.953 76.7449 177.913C76.7449 178.169 76.7415 178.422 76.7382 178.664C76.7349 178.906 76.7349 179.149 76.7382 179.391C76.7415 179.634 76.7449 179.893 76.7449 180.169C76.7647 181.149 76.9798 181.923 77.3935 182.484C77.8072 183.045 78.4294 183.328 79.2634 183.328Z" fill="white"/>
<path d="M84.701 184.042C84.605 184.042 84.5289 184.012 84.4726 183.955C84.4164 183.899 84.3866 183.822 84.3866 183.726V183.513C84.3866 183.417 84.4131 183.324 84.466 183.234C84.519 183.145 84.6116 183.038 84.744 182.912L88.4308 179.212C88.7916 178.88 89.0663 178.588 89.2549 178.342C89.4436 178.093 89.5759 177.85 89.6454 177.608C89.7183 177.365 89.7513 177.096 89.7513 176.801C89.7513 176.163 89.5693 175.661 89.202 175.299C88.8379 174.937 88.3183 174.758 87.6432 174.758C87.2162 174.758 86.8456 174.844 86.5345 175.014C86.2201 175.186 85.9752 175.425 85.7931 175.734C85.6144 176.043 85.4953 176.402 85.4357 176.814C85.4258 176.927 85.3828 177.01 85.3066 177.063C85.2305 177.116 85.1643 177.143 85.1081 177.143H84.8235C84.7275 177.143 84.6547 177.116 84.6017 177.063C84.5488 177.01 84.5223 176.947 84.5223 176.87C84.5322 176.548 84.5984 176.213 84.7209 175.864C84.8433 175.515 85.032 175.196 85.2835 174.901C85.535 174.605 85.856 174.366 86.2432 174.18C86.6305 173.994 87.0971 173.901 87.6366 173.901C88.358 173.901 88.9372 174.04 89.3807 174.316C89.8208 174.592 90.1419 174.95 90.3404 175.389C90.539 175.827 90.6383 176.299 90.6383 176.804C90.6383 177.196 90.582 177.555 90.4662 177.883C90.3537 178.212 90.1816 178.531 89.9532 178.84C89.7249 179.149 89.4369 179.468 89.0861 179.79L85.7567 183.188H90.5225C90.6284 183.188 90.7078 183.218 90.7641 183.274C90.8203 183.331 90.8501 183.414 90.8501 183.517V183.729C90.8501 183.826 90.8203 183.902 90.7641 183.959C90.7078 184.015 90.6251 184.045 90.5225 184.045H84.701V184.042Z" fill="white"/>
<path d="M95.5992 184.185C94.9075 184.185 94.3217 184.055 93.8419 183.799C93.362 183.544 92.9946 183.211 92.7398 182.806C92.4849 182.401 92.3459 181.979 92.3261 181.541C92.3162 181.454 92.3393 181.388 92.3956 181.342C92.4519 181.295 92.5247 181.272 92.6074 181.272H92.8788C92.9549 181.272 93.0244 181.292 93.084 181.328C93.1469 181.368 93.1965 181.458 93.2329 181.601C93.3355 182.009 93.5109 182.345 93.7525 182.6C93.9941 182.856 94.2754 183.042 94.5997 183.158C94.9208 183.271 95.255 183.331 95.5959 183.331C96.0592 183.331 96.4862 183.235 96.8701 183.045C97.254 182.856 97.5585 182.574 97.7868 182.202C98.0152 181.83 98.1277 181.378 98.1277 180.847C98.1277 180.352 98.0152 179.93 97.7868 179.581C97.5585 179.233 97.254 178.967 96.8701 178.781C96.4862 178.595 96.0625 178.502 95.5959 178.502C95.2451 178.502 94.9572 178.545 94.7288 178.631C94.5004 178.718 94.3118 178.817 94.1596 178.93C94.0073 179.043 93.8683 179.143 93.7459 179.229C93.6234 179.316 93.4844 179.359 93.3322 179.359H93.0774C92.9913 179.359 92.9152 179.329 92.849 179.266C92.7828 179.203 92.753 179.13 92.7629 179.043L93.1899 174.373C93.1998 174.271 93.2296 174.187 93.2825 174.131C93.3355 174.075 93.4083 174.045 93.5043 174.045H98.1442C98.2402 174.045 98.3163 174.075 98.3726 174.131C98.4289 174.187 98.4587 174.264 98.4587 174.36V174.589C98.4587 174.686 98.4289 174.762 98.3726 174.819C98.3163 174.875 98.2402 174.905 98.1442 174.905H94.0636L93.7657 178.133C93.8716 178.067 94.0702 177.967 94.3648 177.841C94.6593 177.715 95.073 177.648 95.6025 177.648C96.0758 177.648 96.5193 177.718 96.933 177.854C97.3466 177.994 97.7107 178.196 98.0284 178.469C98.3461 178.741 98.5943 179.073 98.7697 179.468C98.9451 179.864 99.0345 180.322 99.0345 180.847C99.0345 181.591 98.879 182.208 98.5712 182.703C98.2634 183.198 97.8497 183.57 97.3334 183.816C96.8138 184.062 96.2346 184.185 95.5992 184.185Z" fill="white"/>
<path d="M103.996 184.185C103.238 184.185 102.602 184.022 102.089 183.7C101.576 183.378 101.189 182.956 100.931 182.444C100.669 181.929 100.54 181.388 100.54 180.817C100.54 180.541 100.57 180.275 100.633 180.023C100.696 179.771 100.772 179.535 100.868 179.316C100.964 179.096 101.06 178.9 101.159 178.724C101.259 178.548 101.351 178.402 101.437 178.289L104.24 174.334C104.287 174.287 104.343 174.227 104.403 174.154C104.462 174.081 104.558 174.048 104.681 174.048H104.952C105.038 174.048 105.104 174.078 105.157 174.141C105.21 174.204 105.237 174.277 105.237 174.364C105.237 174.403 105.23 174.437 105.217 174.47C105.204 174.503 105.187 174.53 105.167 174.55L103.032 177.579C103.165 177.542 103.32 177.512 103.502 177.492C103.681 177.472 103.85 177.462 104.002 177.462C104.571 177.462 105.071 177.555 105.505 177.741C105.935 177.927 106.296 178.176 106.587 178.492C106.875 178.807 107.093 179.166 107.242 179.571C107.388 179.977 107.464 180.392 107.464 180.82C107.464 181.391 107.335 181.933 107.073 182.448C106.812 182.962 106.425 183.381 105.915 183.703C105.392 184.025 104.757 184.185 103.996 184.185ZM103.996 183.328C104.442 183.328 104.859 183.231 105.247 183.042C105.634 182.853 105.951 182.567 106.193 182.192C106.435 181.817 106.557 181.355 106.557 180.813C106.557 180.272 106.435 179.814 106.193 179.442C105.951 179.07 105.637 178.791 105.247 178.598C104.856 178.406 104.439 178.313 103.996 178.313C103.549 178.313 103.132 178.409 102.745 178.598C102.354 178.788 102.04 179.07 101.798 179.442C101.556 179.814 101.434 180.269 101.434 180.813C101.434 181.358 101.556 181.817 101.798 182.192C102.04 182.567 102.354 182.853 102.745 183.042C103.132 183.235 103.549 183.328 103.996 183.328Z" fill="white"/>
<path d="M110.899 184.042C110.813 184.042 110.744 184.012 110.694 183.949C110.641 183.886 110.615 183.813 110.615 183.726C110.615 183.68 110.625 183.64 110.644 183.613C110.664 183.583 110.678 183.56 110.687 183.544L112.935 180.371C112.65 180.448 112.342 180.484 112.011 180.484C111.442 180.484 110.946 180.388 110.525 180.199C110.102 180.009 109.751 179.754 109.473 179.435C109.192 179.116 108.983 178.764 108.847 178.378C108.708 177.993 108.642 177.601 108.642 177.199C108.642 176.797 108.712 176.405 108.847 176.013C108.986 175.625 109.195 175.269 109.473 174.951C109.754 174.632 110.105 174.376 110.525 174.187C110.946 173.997 111.442 173.901 112.011 173.901C112.581 173.901 113.077 173.997 113.497 174.187C113.918 174.376 114.272 174.632 114.556 174.951C114.841 175.269 115.053 175.625 115.188 176.013C115.327 176.405 115.394 176.801 115.394 177.199C115.394 177.571 115.347 177.91 115.251 178.212C115.155 178.518 115.046 178.784 114.917 179.013C114.788 179.242 114.669 179.438 114.553 179.597L111.621 183.753C111.581 183.799 111.531 183.859 111.472 183.932C111.409 184.002 111.313 184.038 111.181 184.038H110.899V184.042ZM112.008 179.631C112.455 179.631 112.865 179.531 113.246 179.332C113.626 179.132 113.928 178.85 114.156 178.488C114.384 178.126 114.497 177.697 114.497 177.203C114.497 176.698 114.384 176.266 114.156 175.904C113.928 175.542 113.623 175.259 113.246 175.06C112.865 174.861 112.455 174.761 112.008 174.761C111.561 174.761 111.151 174.861 110.777 175.06C110.403 175.259 110.102 175.542 109.873 175.904C109.645 176.266 109.532 176.698 109.532 177.203C109.532 177.697 109.645 178.126 109.873 178.488C110.102 178.85 110.403 179.129 110.777 179.332C111.151 179.531 111.561 179.631 112.008 179.631Z" fill="white"/>
<path d="M120.576 184.185C120.093 184.185 119.633 184.121 119.203 183.992C118.773 183.862 118.395 183.673 118.071 183.421C117.747 183.168 117.495 182.859 117.31 182.494C117.125 182.129 117.032 181.707 117.032 181.229C117.032 180.621 117.177 180.103 117.472 179.678C117.767 179.253 118.154 178.927 118.64 178.698C118.26 178.479 117.959 178.19 117.73 177.828C117.502 177.466 117.389 177.034 117.389 176.529C117.389 175.948 117.532 175.467 117.816 175.081C118.101 174.696 118.485 174.404 118.968 174.205C119.451 174.005 119.987 173.906 120.576 173.906C121.165 173.906 121.702 174.005 122.185 174.205C122.668 174.404 123.052 174.696 123.337 175.081C123.621 175.467 123.763 175.952 123.763 176.529C123.763 177.034 123.651 177.466 123.423 177.828C123.194 178.19 122.89 178.479 122.512 178.698C122.996 178.927 123.386 179.253 123.681 179.678C123.975 180.103 124.121 180.618 124.121 181.229C124.121 181.866 123.962 182.404 123.644 182.843C123.327 183.281 122.9 183.613 122.364 183.842C121.824 184.072 121.228 184.185 120.576 184.185ZM120.576 183.328C121.069 183.328 121.516 183.241 121.913 183.072C122.311 182.899 122.628 182.657 122.867 182.345C123.105 182.029 123.224 181.661 123.224 181.232C123.224 180.794 123.105 180.422 122.867 180.11C122.628 179.801 122.311 179.562 121.913 179.396C121.516 179.229 121.069 179.146 120.576 179.146C120.093 179.146 119.65 179.229 119.246 179.396C118.842 179.562 118.521 179.801 118.286 180.11C118.048 180.418 117.929 180.794 117.929 181.232C117.929 181.661 118.048 182.032 118.286 182.345C118.524 182.66 118.842 182.903 119.246 183.072C119.646 183.245 120.093 183.328 120.576 183.328ZM120.576 178.286C120.983 178.276 121.361 178.2 121.708 178.057C122.056 177.914 122.334 177.715 122.549 177.456C122.764 177.2 122.87 176.888 122.87 176.529C122.87 176.157 122.767 175.842 122.565 175.58C122.36 175.317 122.086 175.115 121.741 174.972C121.394 174.829 121.01 174.756 120.583 174.756C120.166 174.756 119.782 174.826 119.431 174.972C119.08 175.115 118.802 175.317 118.597 175.58C118.392 175.842 118.293 176.157 118.293 176.529C118.293 176.901 118.395 177.217 118.597 177.479C118.802 177.742 119.08 177.941 119.431 178.08C119.782 178.22 120.159 178.286 120.576 178.286Z" fill="white"/>
<path d="M129.214 184.185C128.456 184.185 127.821 184.022 127.308 183.7C126.795 183.378 126.408 182.956 126.15 182.444C125.888 181.929 125.759 181.388 125.759 180.817C125.759 180.541 125.789 180.275 125.852 180.023C125.915 179.771 125.991 179.535 126.087 179.316C126.183 179.096 126.279 178.9 126.378 178.724C126.477 178.548 126.57 178.402 126.656 178.289L129.459 174.334C129.506 174.287 129.562 174.227 129.621 174.154C129.681 174.081 129.777 174.048 129.899 174.048H130.171C130.257 174.048 130.323 174.078 130.376 174.141C130.429 174.204 130.455 174.277 130.455 174.364C130.455 174.403 130.449 174.437 130.436 174.47C130.422 174.503 130.406 174.53 130.386 174.55L128.251 177.579C128.384 177.542 128.539 177.512 128.721 177.492C128.9 177.472 129.069 177.462 129.221 177.462C129.79 177.462 130.29 177.555 130.723 177.741C131.154 177.927 131.514 178.176 131.806 178.492C132.094 178.807 132.312 179.166 132.461 179.571C132.607 179.977 132.683 180.392 132.683 180.82C132.683 181.391 132.554 181.933 132.292 182.448C132.031 182.962 131.643 183.381 131.134 183.703C130.608 184.025 129.972 184.185 129.214 184.185ZM129.214 183.328C129.661 183.328 130.078 183.231 130.465 183.042C130.853 182.853 131.17 182.567 131.412 182.192C131.653 181.817 131.776 181.355 131.776 180.813C131.776 180.272 131.653 179.814 131.412 179.442C131.17 179.07 130.856 178.791 130.465 178.598C130.075 178.406 129.658 178.313 129.214 178.313C128.768 178.313 128.351 178.409 127.963 178.598C127.573 178.788 127.258 179.07 127.017 179.442C126.775 179.814 126.653 180.269 126.653 180.813C126.653 181.358 126.775 181.817 127.017 182.192C127.258 182.567 127.573 182.853 127.963 183.042C128.351 183.235 128.768 183.328 129.214 183.328Z" fill="white"/>
<path d="M136.115 184.042C136.028 184.042 135.959 184.012 135.909 183.949C135.856 183.886 135.83 183.813 135.83 183.726C135.83 183.68 135.84 183.64 135.86 183.613C135.88 183.583 135.893 183.56 135.903 183.544L138.15 180.371C137.865 180.448 137.557 180.484 137.227 180.484C136.657 180.484 136.161 180.388 135.741 180.199C135.317 180.009 134.966 179.754 134.688 179.435C134.407 179.116 134.198 178.764 134.063 178.378C133.924 177.993 133.857 177.601 133.857 177.199C133.857 176.797 133.927 176.405 134.063 176.013C134.202 175.625 134.41 175.269 134.688 174.951C134.969 174.632 135.32 174.376 135.741 174.187C136.161 173.997 136.657 173.901 137.227 173.901C137.796 173.901 138.292 173.997 138.713 174.187C139.133 174.376 139.487 174.632 139.772 174.951C140.056 175.269 140.268 175.625 140.404 176.013C140.543 176.405 140.609 176.801 140.609 177.199C140.609 177.571 140.563 177.91 140.467 178.212C140.371 178.518 140.261 178.784 140.132 179.013C140.003 179.242 139.884 179.438 139.768 179.597L136.836 183.753C136.796 183.799 136.747 183.859 136.687 183.932C136.624 184.002 136.528 184.038 136.396 184.038H136.115V184.042ZM137.227 179.631C137.673 179.631 138.084 179.531 138.464 179.332C138.845 179.132 139.146 178.85 139.374 178.488C139.603 178.126 139.715 177.697 139.715 177.203C139.715 176.698 139.603 176.266 139.374 175.904C139.146 175.542 138.842 175.259 138.464 175.06C138.084 174.861 137.673 174.761 137.227 174.761C136.78 174.761 136.369 174.861 135.995 175.06C135.621 175.259 135.32 175.542 135.092 175.904C134.864 176.266 134.751 176.698 134.751 177.203C134.751 177.697 134.864 178.126 135.092 178.488C135.32 178.85 135.621 179.129 135.995 179.332C136.369 179.531 136.78 179.631 137.227 179.631Z" fill="white"/>
<path d="M145.196 184.185C144.663 184.185 144.19 184.115 143.773 183.979C143.356 183.839 143.002 183.656 142.714 183.427C142.422 183.198 142.201 182.939 142.045 182.65C141.89 182.361 141.807 182.059 141.797 181.743C141.797 181.657 141.827 181.591 141.883 181.544C141.939 181.498 142.012 181.474 142.095 181.474H142.293C142.37 181.474 142.442 181.494 142.515 181.531C142.585 181.571 142.641 181.66 142.677 181.803C142.783 182.212 142.969 182.531 143.24 182.753C143.511 182.976 143.819 183.128 144.163 183.211C144.511 183.291 144.852 183.334 145.196 183.334C145.927 183.334 146.526 183.158 146.996 182.806C147.466 182.454 147.701 181.926 147.701 181.222C147.701 180.518 147.489 180.013 147.069 179.707C146.645 179.402 146.07 179.249 145.342 179.249H144.09C143.995 179.249 143.918 179.219 143.862 179.163C143.806 179.106 143.776 179.03 143.776 178.934V178.718C143.776 178.641 143.789 178.578 143.812 178.525C143.836 178.472 143.869 178.422 143.905 178.376L146.837 174.905H142.538C142.442 174.905 142.366 174.875 142.31 174.819C142.254 174.762 142.224 174.686 142.224 174.589V174.373C142.224 174.271 142.254 174.187 142.31 174.131C142.366 174.075 142.442 174.045 142.538 174.045H147.847C147.953 174.045 148.032 174.075 148.088 174.131C148.145 174.187 148.174 174.271 148.174 174.373V174.589C148.174 174.646 148.161 174.696 148.138 174.739C148.115 174.782 148.088 174.822 148.059 174.862L145.054 178.389H145.338C145.993 178.389 146.566 178.492 147.053 178.694C147.542 178.9 147.92 179.213 148.191 179.631C148.462 180.05 148.598 180.578 148.598 181.215C148.598 181.843 148.449 182.378 148.158 182.823C147.863 183.265 147.46 183.603 146.947 183.836C146.434 184.068 145.851 184.185 145.196 184.185Z" fill="white"/>
</g>
<g opacity="0.2">
<path d="M186 83.5286H162V59.4426H186V83.5286ZM162.919 82.6066H185.081V60.3646H162.919V82.6066Z" fill="white"/>
<path d="M162.624 59.7378L162.299 60.0637L185.379 83.2263L185.703 82.9003L162.624 59.7378Z" fill="white"/>
<path d="M185.375 59.7412L162.296 82.9038L162.62 83.2298L185.7 60.0672L185.375 59.7412Z" fill="white"/>
<path d="M185.541 85.0957H162.459V87.1627H185.541V85.0957Z" fill="white"/>
</g>
</svg>
