<svg width="215" height="612" viewBox="0 0 215 612" fill="none" xmlns="http://www.w3.org/2000/svg">
<g opacity="0.4">
<path d="M210.531 375.818C213.59 372.821 214.725 369.703 214.725 365.309C214.612 254.018 214.644 142.719 214.644 31.4274C214.644 22.8243 214.676 14.2212 214.604 5.61809C214.588 3.90554 215.32 1.87796 213.348 0.650096C212.535 0.496614 212.012 0.811657 211.601 1.32057C211.795 1.51445 211.988 1.70832 212.181 1.90219C212.736 3.67936 212.6 5.52115 212.6 7.34679C212.6 126.716 212.584 246.093 212.68 365.462C212.68 369.081 211.658 371.618 209.203 374.082C202.377 380.94 195.849 388.121 189.007 394.963C186.536 397.435 185.538 399.972 185.546 403.591C185.651 454.49 185.57 505.39 185.699 556.282C185.707 560.474 184.548 563.415 181.69 566.323C170.132 578.084 158.75 590.032 147.425 602.036C145.3 604.289 143.158 605.299 140.092 605.291C126.392 605.259 112.7 605.259 99 605.243V609.613C99.1529 609.791 99.2978 609.976 99.4347 610.178C100.481 611.713 102.051 611.754 103.677 611.754C116.668 611.729 129.66 611.705 142.643 611.786C144.752 611.802 146.249 611.107 147.73 609.556C161.334 595.266 174.985 581.033 188.677 566.832C190.15 565.305 190.907 563.762 190.883 561.549C190.786 553.131 190.842 544.706 190.858 536.289C190.858 534.794 190.891 533.259 189.619 532.282C187.421 530.602 187.623 528.235 187.623 525.836C187.639 485.195 187.663 444.562 187.566 403.922C187.558 400.707 188.54 398.453 190.697 396.272C197.378 389.535 203.761 382.458 210.531 375.818Z" fill="#E5E5E5"/>
</g>
<path opacity="0.2" d="M68.827 610.663C70.7322 610.663 72.4688 610.663 73.011 610.663C74.1248 610.663 74.8942 610.354 75.6855 609.56C89.0215 596.124 102.401 582.733 115.723 569.291C116.734 568.269 117.752 567.879 119.13 567.908C122.523 567.967 133.734 567.46 137.126 567.467C137.61 567.467 138.218 567.305 138.394 568.033C138.02 568.504 137.566 568.335 137.17 568.335C133.675 568.349 122.347 568.835 118.852 568.791C117.87 568.776 117.166 569.026 116.448 569.754C103.002 583.299 89.5124 596.801 76.0665 610.346C75.2312 611.185 74.3959 611.516 73.2308 611.516C72.6813 611.516 70.8421 611.516 68.8344 611.516V610.663H68.827Z" fill="white"/>
<path opacity="0.2" d="M110.029 568.305C84.0901 568.305 58.1436 568.313 32.2045 568.327V569.206C57.9018 569.184 83.5992 569.177 109.297 569.177C109.538 568.884 109.78 568.591 110.029 568.305Z" fill="white"/>
<path d="M138.101 562.407C135.287 562.209 132.51 564.57 132.437 567.872C132.371 570.85 134.884 573.49 137.866 573.498C141.545 573.505 143.501 570.475 143.508 568.107C143.508 564.915 141.222 562.452 138.101 562.407ZM137.917 572.873C135.477 572.968 132.949 570.674 133.052 567.828C133.147 565.114 135.28 562.974 137.998 562.981C140.746 562.988 142.973 565.231 142.944 567.967C142.915 570.703 140.673 572.895 137.917 572.873Z" fill="white"/>
<path opacity="0.2" d="M32.1238 536.707C15.5785 536.721 0.08091 550.002 0.000308105 568.886C-0.0802938 587.946 15.6664 601.551 32.1238 601.264C49.0283 601.595 64.3573 587.505 64.3793 569.018C64.3866 551.083 49.6364 536.699 32.1238 536.707ZM32.1165 600.095C14.6332 600.021 0.974858 585.402 1.26796 568.945C0.996841 553.62 13.3582 537.92 32.2557 537.949C49.6657 537.971 63.1922 551.759 63.1409 569.084C63.0896 587.579 47.9658 600.161 32.1165 600.095Z" fill="white"/>
<path opacity="0.2" d="M14.582 549.281C16.6777 551.649 18.6707 553.899 20.7298 556.215C14.5087 563.223 13.1605 570.864 18.341 578.695C22.4444 584.894 28.8559 586.983 35.4946 585.637C42.3311 584.247 48.1198 579.431 49.3435 569.29C52.3844 569.29 55.4472 569.29 58.5028 569.29C59.067 578.695 52.3844 590.064 41.2759 594.042C29.0244 598.432 15.4393 593.491 8.97652 581.968C2.92404 571.165 5.37874 557.127 14.582 549.281Z" fill="white"/>
<path opacity="0.2" d="M32.4243 557.429C26.5184 557.01 20.6857 561.974 20.5319 568.909C20.3926 575.166 25.6757 580.704 31.9334 580.718C39.6492 580.733 43.7745 574.38 43.7745 569.394C43.7819 562.702 38.9751 557.525 32.4243 557.429ZM32.036 579.402C26.9067 579.608 21.609 574.777 21.8215 568.806C22.0267 563.106 26.4891 558.613 32.2045 558.628C37.9785 558.643 42.6461 563.357 42.5875 569.1C42.5289 574.858 37.8173 579.454 32.036 579.402Z" fill="white"/>
<g opacity="0.2">
<path d="M35.0988 565.326L32.798 568.371V568.423L36.4617 567.937V569.592L32.798 569.151V569.202L35.1281 572.122L33.604 572.997L32.1531 569.592H32.1018L30.5264 573.027L29.1416 572.151L31.4424 569.18V569.129L27.8519 569.592V567.937L31.4131 568.401V568.349L29.1342 565.378L30.6144 564.525L32.1165 567.908H32.1678L33.6479 564.503L35.0988 565.326Z" fill="white"/>
</g>
<g opacity="0.1">
<path d="M92.7703 547.436C93.0425 546.829 92.1906 545.498 93.6617 545.533C95.1327 545.569 94.2325 546.869 94.4389 547.581C94.5575 547.985 94.4521 548.446 94.4609 548.885C94.4741 549.487 94.2633 549.856 93.5914 549.848C92.9064 549.834 92.7527 549.417 92.7659 548.837C92.7791 548.398 92.7703 547.958 92.7703 547.436Z" fill="white"/>
<path d="M147.836 490.674C148.389 490.906 149.553 490.096 149.641 491.353C149.742 492.754 148.438 492.163 147.713 492.338C147.305 492.438 146.853 492.368 146.418 492.373C145.9 492.381 145.395 492.408 145.32 491.681C145.228 490.788 145.865 490.823 146.435 490.762C146.866 490.722 147.296 490.709 147.836 490.674Z" fill="white"/>
<path d="M40.1415 494.591C39.7771 494.591 39.4126 494.582 39.0525 494.591C38.4421 494.609 38.0777 494.381 38.104 493.711C38.126 493.195 38.3719 492.91 38.9032 492.915C39.8473 492.923 40.7958 492.91 41.7399 492.963C42.223 492.989 42.5567 493.274 42.5347 493.803C42.5128 494.337 42.1659 494.552 41.6741 494.565C41.1647 494.578 40.6553 494.569 40.1459 494.569C40.1415 494.574 40.1415 494.582 40.1415 494.591Z" fill="white"/>
<path d="M94.8825 440.287C94.8825 440.862 94.9132 441.442 94.8737 442.018C94.843 442.466 94.4785 442.567 94.0921 442.576C93.6705 442.584 93.3543 442.374 93.3368 441.974C93.2973 440.964 93.3148 439.953 93.3324 438.938C93.3412 438.416 93.6354 438.148 94.1579 438.17C94.6717 438.192 94.9483 438.451 94.9439 438.982C94.9396 439.417 94.9439 439.848 94.9439 440.283C94.9264 440.287 94.9044 440.287 94.8825 440.287Z" fill="white"/>
<path d="M46.5132 465.366C47.4837 465.989 48.5244 466.629 49.53 467.325C49.8023 467.514 49.653 467.842 49.4905 468.092C49.2885 468.408 49.047 468.728 48.6386 468.509C47.6857 468 46.7504 467.452 45.8238 466.896C45.4725 466.686 45.3891 466.379 45.6174 465.984C45.8062 465.656 46.0258 465.406 46.5132 465.366Z" fill="white"/>
<path d="M92.1116 440.862C92.0106 441.267 92.8011 442.554 91.4178 442.593C90.0916 442.633 90.6888 441.315 90.5263 440.568C90.4385 440.151 90.4912 439.703 90.4649 439.272C90.4297 438.71 90.5176 438.284 91.229 438.266C91.9096 438.253 92.0984 438.644 92.1116 439.219C92.116 439.654 92.1116 440.089 92.1116 440.862Z" fill="white"/>
<path d="M69.9579 539.572C70.318 539.757 70.9415 539.88 70.7439 540.407C70.3399 541.492 69.8042 542.537 69.2553 543.561C69.0489 543.943 68.6274 543.838 68.2892 543.631C68.0477 543.486 67.6701 543.324 67.8238 543.003C68.3639 541.892 68.9611 540.807 69.5583 539.721C69.611 539.634 69.813 539.625 69.9579 539.572Z" fill="white"/>
<path d="M105.883 547.748C105.975 548.253 105.83 548.583 105.268 548.684C104.758 548.78 104.385 548.657 104.267 548.139C104.051 547.216 103.871 546.285 103.7 545.354C103.612 544.875 103.753 544.488 104.288 544.361C104.815 544.234 105.127 544.488 105.25 544.98C105.47 545.898 105.667 546.825 105.883 547.748Z" fill="white"/>
<path d="M124.273 535.61C124.659 535.478 124.831 535.781 124.993 535.983C125.577 536.725 126.117 537.507 126.692 538.254C127.048 538.715 126.899 539.049 126.495 539.343C126.104 539.629 125.731 539.73 125.393 539.234C124.822 538.39 124.194 537.582 123.658 536.717C123.245 536.058 123.856 535.856 124.273 535.61Z" fill="white"/>
<path d="M73.9451 546.144C73.4753 545.96 72.9 545.863 73.102 545.283C73.484 544.189 73.9583 543.126 74.4414 542.076C74.5819 541.768 74.9376 541.861 75.223 541.957C75.5129 542.054 75.8598 542.252 75.7676 542.533C75.3767 543.693 74.92 544.835 74.4458 545.964C74.3974 546.083 74.0813 546.1 73.9451 546.144Z" fill="white"/>
<path d="M122.481 446.551C121.893 447.5 121.265 448.56 120.584 449.579C120.395 449.86 120.075 449.711 119.816 449.544C119.482 449.329 119.227 449.034 119.434 448.652C119.952 447.694 120.501 446.753 121.08 445.831C121.318 445.448 121.686 445.518 122.02 445.756C122.257 445.918 122.508 446.081 122.481 446.551Z" fill="white"/>
<path d="M143.173 476.265C142.387 476.449 142.202 476.217 142.075 475.959C141.904 475.613 141.851 475.175 142.237 475.004C143.3 474.54 144.38 474.12 145.487 473.774C145.851 473.661 146.115 474.068 146.211 474.422C146.286 474.689 146.348 475.044 146.009 475.179C144.934 475.613 143.845 476.011 143.173 476.265Z" fill="white"/>
<path d="M73.2382 541.699C72.8386 542.652 72.4346 543.737 71.9296 544.77C71.6793 545.279 71.205 545.064 70.7966 544.862C70.4102 544.673 70.2609 544.405 70.4497 544.001C70.9108 543.025 71.3631 542.041 71.8593 541.083C72.0613 540.701 72.439 540.728 72.7991 540.912C73.0713 541.053 73.2777 541.233 73.2382 541.699Z" fill="white"/>
<path d="M143.647 519.259C143.502 519.754 143.335 520.345 142.655 520.047C141.658 519.609 140.709 519.061 139.756 518.535C139.335 518.303 139.471 517.944 139.629 517.602C139.761 517.322 139.998 517.032 140.279 517.155C141.407 517.637 142.562 518.093 143.542 518.855C143.629 518.921 143.616 519.114 143.647 519.259Z" fill="white"/>
<path d="M132.326 528.375C132.853 528.366 135.462 530.533 135.514 530.94C135.576 531.414 134.711 532.125 134.36 531.831C133.477 531.103 132.616 530.331 131.874 529.467C131.413 528.936 131.949 528.598 132.326 528.375Z" fill="white"/>
<path d="M64.2055 451.854C64.0518 451.999 63.8629 452.214 63.639 452.377C63.3535 452.579 63.0681 452.456 62.8881 452.218C62.2338 451.357 61.5619 450.501 60.9822 449.587C60.7056 449.152 61.3599 448.406 61.8693 448.489C62.2821 448.559 64.2625 451.322 64.2055 451.854Z" fill="white"/>
<path d="M116.531 442.941C117.023 443.134 117.493 443.367 117.286 443.894C116.882 444.909 116.386 445.888 115.894 446.868C115.754 447.149 115.455 447.215 115.139 447.123C114.836 447.031 114.533 446.811 114.577 446.534C114.779 445.3 115.354 444.197 116.004 443.147C116.092 443.007 116.382 442.994 116.531 442.941Z" fill="white"/>
<path d="M73.6948 446.212C73.6773 446.69 73.4006 446.778 73.1503 446.919C72.7639 447.134 72.4258 447.051 72.2501 446.695C71.7759 445.729 71.3412 444.745 70.9108 443.762C70.722 443.331 71.0074 443.103 71.3456 442.932C71.6749 442.765 72.1184 442.615 72.3028 442.993C72.8298 444.078 73.2689 445.206 73.6948 446.212Z" fill="white"/>
<path d="M103.463 440.252C103.344 440.924 103.213 441.781 103.028 442.629C102.918 443.121 102.572 443.336 102.058 443.213C101.623 443.107 101.487 442.787 101.531 442.4C101.627 441.539 101.768 440.687 101.891 439.826C101.961 439.312 102.009 438.789 102.752 438.86C103.542 438.939 103.683 439.404 103.463 440.252Z" fill="white"/>
<path d="M109.694 542.981C110.151 542.937 110.344 543.17 110.445 543.438C110.796 544.391 111.139 545.349 111.446 546.319C111.622 546.873 111.24 547.114 110.792 547.246C110.304 547.387 109.98 547.255 109.835 546.697C109.597 545.783 109.277 544.892 109.022 543.982C108.838 543.328 109.207 543.051 109.694 542.981Z" fill="white"/>
<path d="M46.9303 514.982C46.9127 515.123 46.9303 515.276 46.8776 515.398C46.7854 515.609 43.5886 517.084 43.3515 517.023C43.0485 516.944 42.886 516.703 42.7675 516.432C42.6489 516.152 42.583 515.784 42.8509 515.644C43.9399 515.066 45.0421 514.492 46.2584 514.247C46.6361 514.168 46.7986 514.645 46.9303 514.982Z" fill="white"/>
<path d="M98.8829 440.805C98.9225 440.48 98.9883 439.834 99.0849 439.197C99.1596 438.714 99.4231 438.432 99.9544 438.459C100.521 438.485 100.705 438.859 100.666 439.324C100.596 440.181 100.468 441.034 100.354 441.89C100.288 442.391 100.262 442.927 99.5197 442.857C98.8127 442.791 98.7775 442.308 98.8171 441.772C98.8346 441.552 98.8478 441.337 98.8829 440.805Z" fill="white"/>
<path d="M142.778 512.248C143.603 512.572 144.688 512.966 145.742 513.421C146.194 513.614 145.974 514.021 145.891 514.358C145.781 514.782 145.474 514.979 145.087 514.835C144.073 514.454 143.072 514.047 142.088 513.596C141.702 513.417 141.728 513.018 141.869 512.655C141.983 512.357 142.18 512.169 142.778 512.248Z" fill="white"/>
<path d="M145.065 504.38C145.935 504.577 146.918 504.796 147.902 505.023C148.46 505.15 148.521 505.553 148.425 506.017C148.31 506.564 147.915 506.656 147.441 506.547C146.528 506.341 145.61 506.131 144.705 505.899C144.196 505.768 144.042 505.404 144.152 504.905C144.244 504.476 144.547 504.358 145.065 504.38Z" fill="white"/>
<path d="M147.792 503.688C146.945 503.534 146.093 503.399 145.254 503.219C144.885 503.14 144.587 502.913 144.639 502.475C144.696 501.998 144.947 501.648 145.474 501.709C146.33 501.81 147.173 502.002 148.025 502.094C148.714 502.169 149.118 502.436 148.969 503.18C148.824 503.876 148.306 503.81 147.792 503.688Z" fill="white"/>
<path d="M147.823 500.855C147.186 500.758 146.545 500.662 145.908 500.561C145.381 500.478 144.903 500.36 145.03 499.642C145.153 498.942 145.671 498.972 146.185 499.025C146.971 499.104 147.757 499.204 148.543 499.292C149.101 499.353 149.522 499.506 149.386 500.22C149.259 500.903 148.802 500.933 148.262 500.863C148.117 500.846 147.977 500.833 147.832 500.815C147.827 500.828 147.827 500.842 147.823 500.855Z" fill="white"/>
<path d="M117.357 539.879C117.699 539.822 117.91 540.046 118.046 540.292C118.498 541.123 118.898 541.98 119.359 542.806C119.631 543.302 119.478 543.606 119.052 543.887C118.591 544.19 118.213 544.124 117.971 543.641C117.51 542.736 117.054 541.822 116.659 540.886C116.439 540.385 116.847 539.866 117.357 539.879Z" fill="white"/>
<path d="M48.2477 470.299C48.1292 470.633 47.8745 471.093 47.2246 470.799C46.3024 470.383 45.3978 469.918 44.502 469.445C44.0102 469.182 44.0453 468.796 44.3176 468.362C44.5327 468.016 44.7743 467.788 45.1826 468.007C46.1399 468.52 47.0841 469.046 48.0238 469.585C48.1994 469.682 48.3795 469.848 48.2477 470.299Z" fill="white"/>
<path d="M142.611 466.74C142.615 467.077 142.435 467.279 142.167 467.428C141.285 467.92 140.398 468.402 139.515 468.898C139.085 469.139 138.856 468.906 138.659 468.564C138.47 468.235 138.312 467.871 138.716 467.621C139.638 467.056 140.56 466.49 141.526 466.016C142.172 465.7 142.352 466.349 142.611 466.74Z" fill="white"/>
<path d="M57.6801 530.737C57.6581 531.168 55.1902 533.696 54.8214 533.621C54.29 533.516 53.9431 533.152 53.987 532.568C54.009 532.261 56.5603 529.908 56.8325 529.943C57.3024 530.004 57.5878 530.298 57.6801 530.737Z" fill="white"/>
<path d="M55.8006 528.664C55.7391 529.217 53.2317 531.521 52.8321 531.517C52.3052 531.513 51.7958 530.639 52.1603 530.266C52.9112 529.498 53.7499 528.809 54.5754 528.111C54.7994 527.922 55.1068 527.883 55.3527 528.124C55.5503 528.313 55.8093 528.475 55.8006 528.664Z" fill="white"/>
<path d="M112.377 542.081C112.737 542.028 112.913 542.261 113.023 542.533C113.413 543.469 113.791 544.414 114.16 545.358C114.393 545.951 113.927 546.1 113.536 546.285C113.119 546.487 112.803 546.302 112.663 545.938C112.267 544.923 111.872 543.908 111.578 542.863C111.433 542.323 111.903 542.138 112.377 542.081Z" fill="white"/>
<path d="M136.555 529.731C136.138 529.753 133.552 527.557 133.494 527.144C133.446 526.797 133.705 526.626 133.898 526.419C134.14 526.165 134.425 526.222 134.667 526.406C135.471 527.021 136.265 527.653 137.056 528.286C137.381 528.545 137.46 528.857 137.214 529.221C137.051 529.471 136.88 529.7 136.555 529.731Z" fill="white"/>
<path d="M50.8605 529.333C50.4389 529.096 49.8768 528.688 50.2238 528.219C50.9527 527.231 51.9846 526.489 53.0649 525.918C53.6182 525.624 53.9519 526.243 53.9914 526.774C54.0222 527.174 51.2908 529.364 50.8605 529.333Z" fill="white"/>
<path d="M139.115 526.654C138.882 527.092 138.619 527.746 138.044 527.395C137.065 526.798 136.191 526.022 135.304 525.285C135.053 525.074 135.154 524.75 135.334 524.5C135.506 524.263 135.773 523.969 136.037 524.144C137.06 524.816 138.044 525.544 139.027 526.267C139.106 526.32 139.089 526.513 139.115 526.654Z" fill="white"/>
<path d="M83.5004 545.402C83.3204 546.298 83.1491 547.075 83.013 547.857C82.9032 548.477 82.5915 548.754 81.9635 548.578C81.4674 548.442 81.261 548.125 81.3883 547.607C81.5991 546.768 81.823 545.929 82.0031 545.081C82.1216 544.519 82.3104 544.123 82.9954 544.303C83.7288 544.492 83.5355 545.033 83.5004 545.402Z" fill="white"/>
<path d="M103.037 548.301C103.169 548.67 103.033 549.1 102.229 549.192C101.474 549.276 101.452 548.775 101.39 548.261C101.285 547.405 101.149 546.552 101.052 545.691C100.995 545.182 101.21 544.901 101.768 544.861C102.242 544.826 102.409 545.068 102.488 545.45C102.659 546.293 102.817 547.141 103.037 548.301Z" fill="white"/>
<path d="M88.8577 546.825C88.8006 547.48 88.7567 548.134 88.6821 548.789C88.625 549.289 88.3571 549.579 87.8082 549.518C87.1452 549.447 86.9695 549.052 87.0617 548.45C87.1803 547.655 87.3076 546.86 87.3823 546.061C87.4394 545.459 87.6458 545.081 88.322 545.182C88.9104 545.27 88.9192 545.718 88.8972 546.171C88.8885 546.39 88.8621 546.605 88.8445 546.825C88.8489 546.825 88.8533 546.825 88.8577 546.825Z" fill="white"/>
<path d="M98.4086 547.172C98.3734 546.461 98.3427 546.171 98.3471 545.881C98.3559 545.455 98.5711 545.222 99.0102 545.218C99.4186 545.213 99.7216 545.345 99.7787 545.789C99.9148 546.799 100.055 547.809 100.156 548.819C100.196 549.223 99.9675 549.473 99.5328 549.544C99.0014 549.636 98.6721 549.443 98.5974 548.92C98.4964 548.2 98.4437 547.475 98.4086 547.172Z" fill="white"/>
<path d="M136.248 464.368C135.76 464.25 135.51 463.939 135.554 463.443C135.576 463.193 138.294 460.996 138.566 461.027C139.146 461.088 139.467 461.483 139.51 462.022C139.541 462.391 136.674 464.395 136.248 464.368Z" fill="white"/>
<path d="M42.7455 503.836C43.0353 503.801 43.4174 503.866 43.5447 504.431C43.6633 504.965 43.4437 505.258 42.9431 505.372C42.0298 505.582 41.1164 505.797 40.1986 505.985C39.6848 506.09 39.3467 505.832 39.2325 505.355C39.0832 504.737 39.3862 504.427 40.0054 504.33C40.8573 504.203 41.7092 504.028 42.7455 503.836Z" fill="white"/>
<path d="M132.801 460.125C132.643 459.998 132.401 459.84 132.208 459.638C131.966 459.393 132.001 459.125 132.252 458.892C133.051 458.156 133.815 457.379 134.658 456.699C135.075 456.362 135.923 456.897 135.896 457.419C135.883 457.792 133.314 460.107 132.801 460.125Z" fill="white"/>
<path d="M141.482 522.632C141.148 522.65 138.338 520.933 138.215 520.631C138.088 520.324 138.233 520.079 138.404 519.847C138.597 519.584 138.896 519.493 139.164 519.633C140.116 520.136 141.056 520.67 141.983 521.218C142.237 521.367 142.395 521.629 142.215 521.936C142.044 522.234 141.921 522.602 141.482 522.632Z" fill="white"/>
<path d="M133.982 455.275C133.938 455.732 131.334 458.182 130.992 458.099C130.737 458.038 130.487 457.831 130.302 457.625C130.065 457.366 130.197 457.071 130.407 456.852C131.114 456.119 131.848 455.407 132.546 454.669C132.88 454.318 133.192 454.406 133.486 454.669C133.697 454.854 133.846 455.104 133.982 455.275Z" fill="white"/>
<path d="M55.076 454.024C55.2605 454.116 55.48 454.165 55.6162 454.301C56.3363 455.008 57.0477 455.728 57.7372 456.467C58.0138 456.761 58.0314 457.099 57.7372 457.424C57.3903 457.806 57.0302 457.894 56.6306 457.503C55.906 456.796 55.1331 456.137 54.4788 455.368C53.8684 454.661 54.6808 454.428 55.076 454.024Z" fill="white"/>
<path d="M144.262 507.02C145.298 507.301 146.348 507.546 147.371 507.874C147.907 508.045 147.836 508.518 147.691 508.952C147.551 509.363 147.27 509.481 146.857 509.363C145.891 509.083 144.916 508.838 143.963 508.527C143.603 508.409 143.423 508.08 143.542 507.668C143.643 507.305 143.766 506.968 144.262 507.02Z" fill="white"/>
<path d="M126.785 454.347C126.372 454.167 125.88 453.868 126.13 453.425C126.736 452.358 127.479 451.366 128.405 450.549C128.655 450.329 128.945 450.567 129.174 450.738C129.406 450.913 129.709 451.221 129.551 451.432C128.809 452.406 127.997 453.328 127.193 454.255C127.118 454.334 126.925 454.316 126.785 454.347Z" fill="white"/>
<path d="M83.9352 442.299C84.0494 443.191 83.9616 443.573 83.3819 443.63C82.9867 443.669 82.653 443.555 82.5476 443.142C82.3017 442.171 82.0689 441.196 81.8669 440.212C81.7572 439.681 82.0909 439.426 82.5695 439.334C83.0833 439.233 83.3863 439.439 83.4829 439.962C83.6586 440.876 83.8386 441.789 83.9352 442.299Z" fill="white"/>
<path d="M127.285 449.776C126.583 450.663 125.836 451.647 125.037 452.583C124.822 452.833 124.492 452.618 124.255 452.46C123.913 452.227 123.777 451.902 124.031 451.537C124.655 450.641 125.296 449.758 125.942 448.876C126.157 448.586 126.411 448.621 126.688 448.818C126.987 449.034 127.298 449.218 127.285 449.776Z" fill="white"/>
<path d="M41.6872 486.305C41.0417 486.195 40.2645 486.051 39.4784 485.933C38.969 485.854 38.7275 485.618 38.7758 485.07C38.8373 484.374 39.2325 484.265 39.8253 484.374C40.607 484.519 41.393 484.624 42.1746 484.773C42.6664 484.865 43.2154 484.926 43.1363 485.657C43.0353 486.546 42.3898 486.34 41.6872 486.305Z" fill="white"/>
<path d="M122.595 451.133C122.02 451.217 121.506 450.509 121.809 449.969C122.306 449.086 122.885 448.247 123.452 447.404C123.777 446.916 124.194 447.044 124.572 447.329C124.883 447.562 125.046 447.883 124.795 448.26C124.189 449.165 123.584 450.07 122.96 450.962C122.89 451.063 122.71 451.085 122.595 451.133Z" fill="white"/>
<path d="M64.28 446.842C64.4118 446.951 64.605 447.052 64.7104 447.21C65.2637 448.049 65.8126 448.888 66.322 449.749C66.5943 450.21 66.3572 450.557 65.9268 450.798C65.5228 451.027 65.2242 450.812 65.0178 450.513C64.4469 449.687 63.8497 448.871 63.3842 447.988C62.967 447.197 63.6872 447.052 64.28 446.842Z" fill="white"/>
<path d="M119.021 444.175C119.456 444.373 120.15 444.504 119.864 445.163C119.407 446.222 118.797 447.215 118.209 448.212C118.037 448.497 117.704 448.396 117.44 448.238C117.194 448.093 116.83 447.948 116.984 447.619C117.497 446.503 118.064 445.414 118.635 444.324C118.674 444.232 118.876 444.223 119.021 444.175Z" fill="white"/>
<path d="M40.3962 481.523C41.2086 481.716 42.1351 481.93 43.0529 482.162C43.5842 482.294 43.6984 482.67 43.5974 483.165C43.5008 483.624 43.1802 483.738 42.7894 483.668C41.8541 483.502 40.9231 483.314 39.9966 483.121C39.4872 483.016 39.2457 482.683 39.3511 482.171C39.4521 481.676 39.7419 481.392 40.3962 481.523Z" fill="white"/>
<path d="M144.798 481.512C144.108 481.573 143.73 481.455 143.656 480.903C143.603 480.505 143.739 480.216 144.161 480.098C145.127 479.831 146.093 479.56 147.059 479.297C147.467 479.188 147.757 479.354 147.898 479.739C148.069 480.194 147.999 480.641 147.502 480.794C146.545 481.092 145.566 481.311 144.798 481.512Z" fill="white"/>
<path d="M106.366 440.418C106.133 441.433 105.957 442.286 105.733 443.125C105.606 443.604 105.272 443.814 104.745 443.691C104.183 443.564 104.108 443.221 104.218 442.729C104.407 441.881 104.552 441.029 104.745 440.181C104.864 439.658 105.066 439.206 105.768 439.399C106.431 439.579 106.436 440.054 106.366 440.418Z" fill="white"/>
<path d="M45.0816 475.822C44.1199 475.463 43.0924 475.113 42.1 474.688C41.7223 474.526 41.7004 474.123 41.8672 473.751C42.0209 473.418 42.2141 473.037 42.6533 473.199C43.672 473.571 44.6732 473.996 45.6701 474.421C46.0653 474.592 46.1575 474.92 45.9775 475.31C45.815 475.66 45.5691 475.901 45.0816 475.822Z" fill="white"/>
<path d="M126.706 533.927C126.811 534.02 126.987 534.138 127.114 534.292C127.724 535.012 128.322 535.746 128.932 536.471C129.279 536.879 129.27 537.248 128.835 537.578C128.466 537.854 128.111 538.048 127.733 537.547C127.123 536.734 126.442 535.97 125.863 535.135C125.564 534.696 126.135 533.866 126.706 533.927Z" fill="white"/>
<path d="M68.3639 539.309C67.8501 540.183 67.2705 541.255 66.5986 542.269C66.3439 542.656 65.9619 542.348 65.6633 542.151C65.312 541.913 65.2154 541.606 65.4349 541.233C65.9443 540.363 66.4537 539.489 66.9938 538.637C67.2046 538.308 67.5383 538.193 67.9204 538.431C68.1663 538.58 68.4122 538.734 68.3639 539.309Z" fill="white"/>
<path d="M39.8341 500.284C39.0525 500.315 38.4333 500.416 38.3543 499.566C38.2796 498.726 38.8724 498.669 39.4697 498.63C40.3303 498.577 41.1866 498.525 42.0473 498.494C42.4864 498.476 42.6796 498.774 42.7192 499.159C42.7631 499.553 42.6182 499.868 42.1834 499.938C41.3315 500.07 40.4796 500.188 39.8341 500.284Z" fill="white"/>
<path d="M145.175 471.966C145.131 472.347 144.982 472.548 144.675 472.671C143.796 473.017 142.918 473.363 142.057 473.748C141.548 473.976 141.236 473.827 141.017 473.359C140.841 472.982 140.881 472.619 141.263 472.43C142.242 471.957 143.225 471.467 144.249 471.112C144.986 470.858 144.969 471.611 145.175 471.966Z" fill="white"/>
<path d="M43.8917 470.555C44.7655 470.997 45.8677 471.5 46.9172 472.104C47.2773 472.31 47.0841 472.765 46.8865 473.063C46.7328 473.295 46.5044 473.483 46.1663 473.33C45.1915 472.883 44.1991 472.468 43.233 471.991C42.8378 471.798 42.908 471.408 43.0442 471.054C43.1539 470.769 43.3032 470.542 43.8917 470.555Z" fill="white"/>
<path d="M66.0366 537.199C66.0805 537.959 64.2669 540.846 63.9595 540.846C63.7005 540.85 63.4194 540.697 63.1779 540.556C62.9057 540.398 62.7695 540.108 62.9496 539.818C63.538 538.895 64.1396 537.981 64.7719 537.089C64.9388 536.856 65.2418 536.747 65.5448 536.944C65.7994 537.111 66.0366 537.278 66.0366 537.199Z" fill="white"/>
<path d="M133.74 532.882C133.411 533.325 133.27 533.576 133.073 533.773C132.867 533.976 132.581 534.151 132.318 533.892C131.545 533.141 130.772 532.381 130.043 531.59C129.683 531.203 129.828 530.812 130.219 530.483C130.574 530.184 130.86 530.294 131.154 530.562C132.006 531.335 132.867 532.1 133.74 532.882Z" fill="white"/>
<path d="M52.3403 524.503C52.3359 524.889 52.0813 525.043 51.8529 525.214C51.1635 525.74 50.4609 526.248 49.7803 526.783C49.3763 527.099 49.0338 527.134 48.6693 526.713C48.3312 526.318 48.2521 525.941 48.6957 525.612C49.5651 524.968 50.417 524.28 51.3655 523.767C51.9671 523.443 52.2086 524.039 52.3403 524.503Z" fill="white"/>
<path d="M139.901 525.043C139.488 525.048 136.762 523.191 136.77 522.832C136.779 522.294 137.073 521.659 137.662 521.939C138.702 522.429 139.642 523.134 140.595 523.8C140.832 523.966 140.806 524.312 140.595 524.579C140.411 524.807 140.226 525.026 139.901 525.043Z" fill="white"/>
<path d="M47.5671 524.584C47.2114 524.619 47.0929 524.339 46.9216 524.111C46.6493 523.752 46.7152 523.423 47.0577 523.2C47.9623 522.608 48.8801 522.043 49.8066 521.491C50.0833 521.329 50.3555 521.434 50.5487 521.706C50.7112 521.942 50.8869 522.179 50.7771 522.486C50.6717 522.797 47.914 524.584 47.5671 524.584Z" fill="white"/>
<path d="M48.3751 519.137C48.902 519.132 49.1216 519.299 49.2577 519.575C49.4377 519.939 49.4246 520.311 49.0689 520.526C48.1423 521.087 47.1938 521.609 46.2497 522.134C45.9336 522.31 45.7228 522.121 45.5471 521.872C45.3364 521.569 45.0685 521.126 45.389 520.912C46.3946 520.228 47.4793 519.658 48.3751 519.137Z" fill="white"/>
<path d="M44.8753 519.627C44.3703 519.622 44.2122 519.381 44.0673 519.136C43.8653 518.795 43.8038 518.414 44.1946 518.2C45.1431 517.683 46.1136 517.197 47.0928 516.733C47.5012 516.536 47.7779 516.799 47.9491 517.145C48.0721 517.394 48.2477 517.731 47.9403 517.915C46.8952 518.532 45.815 519.106 44.8753 519.627Z" fill="white"/>
<path d="M144.894 516.683C144.723 517.169 144.521 517.721 143.853 517.454C142.905 517.077 141.996 516.6 141.069 516.166C140.643 515.965 140.635 515.637 140.788 515.26C140.902 514.984 141.087 514.682 141.412 514.77C142.611 515.089 143.726 515.623 144.78 516.276C144.868 516.328 144.859 516.534 144.894 516.683Z" fill="white"/>
<path d="M44.3351 480.201C44.2473 480.792 43.9926 481.138 43.4613 481.006C42.4162 480.753 41.3842 480.451 40.3523 480.144C40.0317 480.048 39.9966 479.737 40.0142 479.444C40.0317 479.146 40.1327 478.796 40.4445 478.796C41.7575 478.783 42.9695 479.247 44.1639 479.728C44.2824 479.776 44.2956 480.092 44.3351 480.201Z" fill="white"/>
<path d="M41.8277 475.949C42.684 476.251 43.6325 476.593 44.5854 476.93C44.9586 477.061 45.2485 477.302 45.1255 477.718C45.0026 478.139 44.7479 478.555 44.199 478.393C43.167 478.086 42.1351 477.762 41.1295 477.377C40.7212 477.219 40.787 476.79 40.9144 476.44C41.0461 476.072 41.292 475.84 41.8277 475.949Z" fill="white"/>
<path d="M41.4106 489.016C40.5411 488.964 40.1064 488.942 39.676 488.911C39.0174 488.859 38.284 488.859 38.4158 487.878C38.5255 487.06 39.1359 487.13 39.7331 487.213C40.4489 487.313 41.1603 487.418 41.8804 487.497C42.4513 487.559 42.8641 487.738 42.7631 488.421C42.6577 489.134 42.1439 489.077 41.6213 489.021C41.4062 488.999 41.1866 489.016 41.4106 489.016Z" fill="white"/>
<path d="M146.945 489.525C146.73 489.543 146.514 489.56 146.299 489.587C145.676 489.67 145.109 489.657 145.07 488.825C145.035 488.077 145.592 488.116 146.102 488.063C146.962 487.98 147.819 487.871 148.675 487.77C149.123 487.718 149.342 487.967 149.399 488.361C149.47 488.808 149.435 489.267 148.877 489.355C148.24 489.455 147.59 489.473 146.945 489.525Z" fill="white"/>
<path d="M52.6697 463.158C52.4062 463.535 52.2306 464.242 51.6114 463.873C50.6234 463.289 49.7056 462.579 48.8186 461.846C48.5024 461.582 48.7571 461.179 48.9942 460.893C49.1874 460.661 49.4465 460.485 49.7319 460.687C50.6673 461.359 51.5894 462.056 52.5028 462.758C52.595 462.837 52.6126 463.013 52.6697 463.158Z" fill="white"/>
<path d="M130.566 535.997C130.386 535.918 130.144 535.883 130.017 535.742C129.332 534.996 128.677 534.219 128.01 533.46C127.716 533.127 127.768 532.802 128.032 532.495C128.374 532.091 128.796 532.065 129.152 532.429C129.863 533.149 130.583 533.873 131.198 534.667C131.742 535.365 131.084 535.659 130.566 535.997Z" fill="white"/>
<path d="M71.1918 447.233C71.2138 447.799 70.9283 447.984 70.5683 448.107C70.1555 448.247 69.892 448.063 69.7032 447.698C69.2729 446.868 68.8382 446.038 68.4034 445.212C68.2234 444.87 68.1224 444.523 68.5308 444.285C68.8996 444.07 69.3958 443.802 69.6769 444.272C70.2609 445.256 70.7307 446.31 71.1918 447.233Z" fill="white"/>
<path d="M136.95 458.75C137.433 458.799 137.886 459.713 137.53 460.033C136.74 460.758 135.879 461.404 135.036 462.063C134.786 462.257 134.491 462.239 134.259 462.02C134.061 461.831 133.815 461.655 133.894 461.299C134.004 460.842 136.533 458.706 136.95 458.75Z" fill="white"/>
<path d="M53.5172 461.795C53.1 461.755 50.5575 459.715 50.4741 459.382C50.395 459.07 50.5575 458.833 50.7463 458.614C50.9352 458.386 51.1767 458.18 51.4665 458.39C52.4633 459.097 53.5172 459.785 54.2022 460.803C54.5535 461.33 54.0002 461.667 53.5172 461.795Z" fill="white"/>
<path d="M114.652 442.844C114.261 443.753 113.822 444.825 113.343 445.875C113.198 446.196 112.891 446.143 112.597 446.046C112.215 445.923 111.881 445.677 112.013 445.282C112.382 444.193 112.816 443.121 113.277 442.066C113.409 441.768 113.752 441.829 114.041 441.93C114.41 442.053 114.7 442.22 114.652 442.844Z" fill="white"/>
<path d="M74.4194 441.71C74.7619 441.693 74.9903 441.842 75.0957 442.137C75.4382 443.081 75.7719 444.026 76.1013 444.975C76.2374 445.37 76.1232 445.7 75.7236 445.836C75.3021 445.981 74.8937 446.016 74.6917 445.449C74.3536 444.509 73.9627 443.582 73.6158 442.642C73.326 441.855 74.033 441.908 74.4194 441.71Z" fill="white"/>
<path d="M111.938 441.741C111.6 442.769 111.314 443.749 110.941 444.698C110.752 445.186 110.287 445.208 109.826 445.032C109.36 444.856 109.4 444.505 109.514 444.14C109.791 443.231 110.054 442.321 110.357 441.42C110.533 440.889 110.95 440.867 111.424 441.007C111.837 441.126 112.026 441.363 111.938 441.741Z" fill="white"/>
<path d="M78.6789 443.964C78.7799 444.491 78.6789 444.82 78.2749 444.965C77.8006 445.137 77.4318 445.036 77.2605 444.5C76.9751 443.599 76.694 442.699 76.3866 441.807C76.1934 441.245 76.5271 441.003 76.9531 440.823C77.5108 440.59 77.7435 440.924 77.8841 441.385C78.1695 442.286 78.4418 443.186 78.6789 443.964Z" fill="white"/>
<path d="M62.0186 453.413C61.8035 453.848 61.4521 454.423 60.9427 453.966C60.0952 453.207 59.375 452.289 58.6812 451.375C58.387 450.988 59.0589 450.141 59.5463 450.198C59.9152 450.251 62.0406 452.965 62.0186 453.413Z" fill="white"/>
<path d="M56.1212 458.913C55.8358 459.387 55.5767 459.9 54.94 459.51C54.009 458.935 53.2317 458.172 52.516 457.352C52.2173 457.01 52.3535 456.698 52.6433 456.413C52.9331 456.124 53.2581 456.01 53.5874 456.308C54.3383 456.992 55.0717 457.69 55.7963 458.396C55.9456 458.536 56.0202 458.747 56.1212 458.913Z" fill="white"/>
<path d="M84.73 439.888C84.7563 439.47 84.6334 438.974 85.2481 438.847C85.8629 438.719 86.2405 438.948 86.3284 439.58C86.4557 440.446 86.5743 441.316 86.6797 442.185C86.7368 442.651 86.6621 443.068 86.0869 443.156C85.5599 443.235 85.2657 443.016 85.1823 442.48C85.0461 441.614 84.8837 440.753 84.73 439.888Z" fill="white"/>
<path d="M96.1472 440.832C96.1867 440.05 96.2174 439.549 96.2306 439.044C96.2438 438.481 96.5819 438.301 97.0737 438.319C97.583 438.341 97.8553 438.587 97.8026 439.136C97.7279 439.922 97.684 440.713 97.605 441.495C97.5567 441.97 97.6752 442.572 96.9156 442.603C95.9935 442.642 96.1428 441.974 96.1472 441.412C96.1472 441.126 96.1472 440.841 96.1472 440.832Z" fill="white"/>
<path d="M140.705 471.361C140.169 471.365 140.02 471.116 139.884 470.862C139.682 470.494 139.721 470.179 140.125 469.969C141.021 469.5 141.921 469.041 142.813 468.568C143.212 468.358 143.493 468.476 143.708 468.84C143.888 469.142 144.205 469.544 143.805 469.776C142.747 470.389 141.636 470.892 140.705 471.361Z" fill="white"/>
<path d="M147.217 496.31C147.797 496.337 148.376 496.341 148.947 496.398C149.443 496.446 149.724 496.731 149.663 497.269C149.601 497.759 149.351 498.092 148.829 498.057C147.819 497.991 146.813 497.886 145.807 497.781C145.342 497.733 145.276 497.37 145.28 496.989C145.285 496.577 145.465 496.31 145.917 496.31C146.348 496.31 146.782 496.31 147.217 496.31Z" fill="white"/>
<path d="M57.1926 452.079C57.4473 452.017 57.5879 452.197 57.724 452.351C58.4046 453.101 59.094 453.851 59.7483 454.622C60.1128 455.052 59.8889 455.412 59.5244 455.736C59.1555 456.061 58.8657 455.885 58.6022 455.605C57.904 454.868 57.1883 454.144 56.5427 453.364C56.2178 452.965 56.6877 452.105 57.1926 452.079Z" fill="white"/>
<path d="M45.8633 512.491C45.8853 512.863 45.6789 513.056 45.4022 513.17C44.4713 513.551 43.5404 513.927 42.6006 514.282C42.2098 514.43 41.9068 514.299 41.7619 513.883C41.639 513.537 41.5028 513.104 41.8805 512.92C42.9695 512.391 44.0937 511.896 45.3056 511.752C45.7272 511.699 45.7887 512.18 45.8633 512.491Z" fill="white"/>
<path d="M122.126 537.06C122.336 537.2 122.552 537.279 122.657 537.433C123.237 538.263 123.803 539.107 124.352 539.963C124.651 540.429 124.479 540.767 124.009 541.009C123.667 541.184 123.32 541.334 123.065 540.938C122.477 540.025 121.858 539.124 121.37 538.158C121.037 537.499 121.682 537.336 122.126 537.06Z" fill="white"/>
<path d="M61.4082 539.252C60.934 539.12 60.3192 538.799 60.5739 538.29C61.1228 537.196 61.8166 536.128 62.8266 535.395C63.2042 535.118 63.6609 535.518 63.7795 535.983C63.8936 536.436 61.8957 539.177 61.4082 539.252Z" fill="white"/>
<path d="M51.0186 465.381C50.8956 465.906 50.6365 466.401 50.013 466.073C49.0601 465.574 48.1687 464.956 47.2729 464.361C46.9041 464.115 46.9436 463.765 47.1895 463.432C47.4046 463.143 47.6725 462.767 48.0458 463.003C49.0162 463.612 49.9383 464.299 50.8649 464.969C50.9615 465.044 50.9659 465.232 51.0186 465.381Z" fill="white"/>
<path d="M119.75 538.544C119.917 538.628 120.185 538.667 120.281 538.817C120.865 539.735 121.436 540.657 121.954 541.61C122.249 542.151 121.748 542.344 121.405 542.59C120.988 542.884 120.712 542.656 120.527 542.335C120.022 541.457 119.539 540.565 119.078 539.665C118.731 538.997 119.227 538.777 119.75 538.544Z" fill="white"/>
<path d="M58.9843 537.473C58.5539 537.162 57.8293 536.956 58.431 536.201C59.0633 535.411 59.7308 534.647 60.3895 533.875C60.6881 533.524 61.035 533.59 61.338 533.831C61.5444 533.993 61.9001 534.213 61.6761 534.52C60.9472 535.503 60.1743 536.455 59.4014 537.403C59.3356 537.482 59.138 537.451 58.9843 537.473Z" fill="white"/>
<path d="M78.1739 544.009C77.9939 544.58 77.6865 545.542 77.3835 546.513C77.2122 547.062 76.8082 547.084 76.3471 546.974C75.7894 546.838 75.7148 546.473 75.8904 545.99C76.2066 545.103 76.5228 544.215 76.8346 543.328C76.9795 542.911 77.2825 542.81 77.6821 542.889C78.0773 542.963 78.3583 543.13 78.1739 544.009Z" fill="white"/>
<path d="M80.0094 543.605C80.4749 543.666 80.9403 543.842 80.8745 544.211C80.6637 545.345 80.3563 546.465 80.0094 547.567C79.8777 547.993 79.4298 547.884 79.0741 547.813C78.7535 547.747 78.5296 547.532 78.613 547.216C78.9028 546.096 79.2234 544.984 79.5703 543.886C79.6142 543.741 79.8952 543.671 80.0094 543.605Z" fill="white"/>
<path d="M108.508 546.657C108.728 547.584 108.526 547.905 108.012 548.037C107.468 548.177 107.209 547.914 107.086 547.413C106.862 546.495 106.611 545.581 106.396 544.659C106.308 544.277 106.396 543.956 106.84 543.816C107.358 543.653 107.7 543.825 107.85 544.325C108.122 545.234 108.368 546.148 108.508 546.657Z" fill="white"/>
<path d="M86.1308 546.351C86.0342 546.887 85.8936 547.664 85.7575 548.442C85.6653 548.973 85.3316 549.149 84.8353 549.074C84.2557 548.991 84.2074 548.56 84.2733 548.112C84.3918 547.33 84.5411 546.553 84.6773 545.775C84.7651 545.283 84.7826 544.703 85.5116 544.787C86.3855 544.884 86.1747 545.547 86.1308 546.351Z" fill="white"/>
<path d="M87.6589 440.23C87.6589 439.799 87.6062 439.364 87.6721 438.946C87.7424 438.516 88.12 438.45 88.5109 438.454C88.8402 438.459 89.0949 438.573 89.1256 438.916C89.2222 440.001 89.3101 441.086 89.3672 442.172C89.3891 442.616 89.0686 442.787 88.6602 442.804C88.2298 442.822 87.9795 442.598 87.9312 442.185C87.8521 441.535 87.7995 440.884 87.738 440.234C87.7116 440.23 87.6853 440.23 87.6589 440.23Z" fill="white"/>
<path d="M107.604 444.373C107.086 444.245 106.712 444.043 106.849 443.481C107.086 442.501 107.354 441.53 107.608 440.555C107.722 440.112 108.043 440.05 108.434 440.094C108.833 440.142 109.211 440.353 109.158 440.74C108.992 441.948 108.658 443.121 108.113 444.219C108.017 444.403 107.775 444.469 107.604 444.373Z" fill="white"/>
<path d="M68.8118 448.52C68.7986 449.012 68.5966 449.196 68.3331 449.341C67.9599 449.548 67.613 449.499 67.3934 449.139C66.8665 448.269 66.3616 447.391 65.8698 446.499C65.6634 446.116 65.8346 445.809 66.1727 445.576C66.423 445.4 66.7787 445.251 66.95 445.506C67.6306 446.525 68.2453 447.593 68.8118 448.52Z" fill="white"/>
<path d="M131.738 452.847C131.852 453.589 131.619 453.773 131.422 453.984C130.877 454.559 130.324 455.126 129.797 455.714C129.411 456.149 129.033 456.351 128.528 455.881C128.093 455.477 128.287 455.135 128.581 454.775C129.125 454.103 129.652 453.418 130.197 452.75C130.434 452.456 130.741 452.254 131.128 452.456C131.439 452.623 131.725 452.838 131.738 452.847Z" fill="white"/>
<path d="M145.829 484.099C144.903 484.222 144.49 484.217 144.376 483.64C144.275 483.136 144.455 482.817 144.973 482.707C145.886 482.515 146.804 482.331 147.718 482.125C148.139 482.029 148.416 482.143 148.504 482.58C148.587 483.001 148.701 483.482 148.113 483.622C147.199 483.837 146.282 484.007 145.829 484.099Z" fill="white"/>
<path d="M39.7859 503.121C39.2194 503.147 38.7715 503.099 38.7364 502.368C38.71 501.782 39.0657 501.65 39.5312 501.585C40.4621 501.458 41.3887 501.296 42.324 501.195C42.7236 501.151 43.0046 501.37 43.0617 501.799C43.1144 502.206 42.9958 502.517 42.5567 502.605C41.6346 502.789 40.708 502.951 39.7859 503.121Z" fill="white"/>
<path d="M44.9192 509.873C44.8929 510.009 44.8929 510.158 44.827 510.271C44.6557 510.569 41.5599 511.655 41.2218 511.545C40.9012 511.445 40.8266 511.16 40.7695 510.884C40.7168 510.609 40.6466 510.245 40.9847 510.136C42.0737 509.781 43.1671 509.435 44.2825 509.173C44.7128 509.072 44.8533 509.505 44.9192 509.873Z" fill="white"/>
<path d="M143.515 509.665C144.573 509.997 145.531 510.295 146.488 510.611C147.019 510.79 147.024 511.154 146.857 511.631C146.672 512.17 146.365 512.262 145.873 512.082C144.995 511.767 144.108 511.478 143.234 511.154C142.764 510.978 142.575 510.667 142.786 510.151C142.953 509.757 143.208 509.616 143.515 509.665Z" fill="white"/>
<path d="M81.3619 443.34C81.4014 443.744 81.3267 444.052 80.8876 444.17C80.5144 444.271 80.1148 444.271 79.9831 443.863C79.6493 442.844 79.3683 441.803 79.1048 440.762C78.9951 440.314 79.342 440.164 79.7108 440.046C80.1367 439.91 80.4397 440.041 80.5583 440.432C80.8525 441.399 81.0984 442.374 81.3619 443.34Z" fill="white"/>
<path d="M144.319 478.754C143.287 479.021 143.041 478.697 142.914 478.237C142.791 477.786 143.059 477.602 143.449 477.48C144.345 477.191 145.228 476.871 146.124 476.577C146.642 476.411 146.94 476.665 147.094 477.142C147.261 477.659 147.077 477.944 146.55 478.084C145.641 478.334 144.749 478.623 144.319 478.754Z" fill="white"/>
<path d="M116.896 544.396C116.839 544.827 116.654 545.029 116.373 545.156C116 545.332 115.618 545.323 115.433 544.932C114.972 543.944 114.551 542.933 114.147 541.919C114.028 541.624 114.182 541.348 114.467 541.203C114.819 541.023 115.258 540.965 115.447 541.326C115.987 542.358 116.448 543.43 116.896 544.396Z" fill="white"/>
<path d="M56.7667 535.561C56.3715 535.32 55.726 535.074 56.1783 534.472C56.8282 533.606 57.6054 532.833 58.3651 532.051C58.6593 531.752 59.0282 531.84 59.3268 532.121C59.6473 532.424 59.621 532.754 59.3575 533.075C58.7559 533.8 58.1499 534.52 57.5308 535.232C57.3419 535.443 57.1312 535.662 56.7667 535.561Z" fill="white"/>
<path d="M40.8573 508.766C40.3128 508.888 40.0406 508.652 39.9439 508.131C39.8693 507.719 39.9703 507.399 40.3919 507.286C41.3711 507.023 42.3547 506.773 43.3428 506.541C43.7599 506.445 44.0015 506.668 44.142 507.067C44.3396 507.627 44.0498 507.877 43.5843 508.013C42.6797 508.271 41.7663 508.512 40.8573 508.766Z" fill="white"/>
<path d="M141.065 464.196C141.162 464.585 140.933 464.76 140.692 464.918C139.91 465.426 139.128 465.934 138.338 466.424C137.925 466.678 137.552 466.687 137.245 466.223C136.946 465.768 137.043 465.448 137.486 465.163C138.272 464.66 139.045 464.143 139.822 463.631C140.591 463.123 140.801 463.745 141.065 464.196Z" fill="white"/>
<path d="M147.494 493.565C147.639 493.565 147.788 493.539 147.924 493.569C148.587 493.709 149.76 493.07 149.694 494.401C149.632 495.648 148.491 495.036 147.814 495.136C147.252 495.219 146.664 495.136 146.093 495.11C145.566 495.084 145.346 494.777 145.351 494.27C145.355 493.696 145.72 493.569 146.198 493.569C146.629 493.569 147.063 493.569 147.494 493.569V493.565Z" fill="white"/>
<path d="M91.5758 547.211C91.5407 547.791 91.4836 548.375 91.4705 548.955C91.4617 549.548 91.1192 549.671 90.623 549.645C90.1838 549.623 89.9819 549.403 90.0038 548.964C90.0433 548.09 90.0741 547.216 90.1048 546.341C90.1268 545.744 90.3858 545.322 91.0226 545.397C91.7251 545.476 91.7164 546.008 91.6154 546.557C91.5758 546.772 91.5758 546.992 91.5583 547.207C91.5671 547.211 91.5714 547.211 91.5758 547.211Z" fill="white"/>
<path d="M40.506 491.693C39.9351 491.662 39.3599 491.658 38.789 491.592C38.3543 491.544 38.2445 491.207 38.2357 490.817C38.227 490.384 38.4377 490.143 38.8637 490.156C39.8649 490.183 40.8705 490.218 41.8717 490.288C42.3898 490.323 42.5962 490.664 42.5523 491.172C42.5084 491.645 42.1747 491.723 41.8014 491.736C41.3711 491.75 40.9407 491.741 40.5104 491.741C40.506 491.723 40.506 491.706 40.506 491.693Z" fill="white"/>
<path d="M146.018 486.854C145.522 486.846 144.956 487.034 144.833 486.285C144.718 485.602 145.179 485.445 145.724 485.366C146.58 485.248 147.432 485.112 148.284 484.99C148.745 484.92 148.916 485.204 148.995 485.585C149.075 485.975 149.013 486.32 148.561 486.408C147.722 486.574 146.87 486.706 146.018 486.854Z" fill="white"/>
<path d="M40.0185 497.368C39.8034 497.368 39.5882 497.385 39.373 497.363C38.9163 497.32 38.3104 497.56 38.2181 496.786C38.1215 495.971 38.6221 495.845 39.272 495.845C40.0581 495.845 40.8485 495.805 41.6345 495.801C42.0868 495.801 42.4952 495.893 42.5259 496.471C42.5523 497.022 42.2273 497.223 41.7355 497.25C41.1647 497.28 40.5894 497.307 40.0185 497.337C40.0185 497.346 40.0185 497.355 40.0185 497.368Z" fill="white"/>
<path d="M97.1133 548.006C96.9244 548.393 97.9301 549.566 96.56 549.645C95.2733 549.719 95.8398 548.538 95.7168 547.87C95.629 547.383 95.6685 546.869 95.6509 546.368C95.6378 545.902 95.73 545.516 96.3096 545.489C96.863 545.463 97.0869 545.766 97.1045 546.262C97.1308 546.768 97.1133 547.268 97.1133 548.006Z" fill="white"/>
<path d="M93.407 445.177C65.2637 445.309 44.9235 468.13 45.1343 494.057C45.0289 520.665 66.2166 542.024 91.9667 542.871C120.628 543.812 142.712 521.091 142.799 494.18C142.883 467.998 122.459 445.036 93.407 445.177ZM138.496 509.96C138.237 510.913 137.785 511.067 136.893 510.702C136.046 510.355 135.132 509.507 134.298 509.946C133.508 510.364 133.411 511.559 132.994 512.402C132.388 513.636 131.286 514.915 131.36 516.118C131.435 517.305 133.486 517.384 134.368 518.535C130.68 524.698 125.77 529.697 119.776 533.651C116.839 535.592 113.681 537.099 110.419 538.417C109.422 538.817 108.899 538.804 108.495 537.622C107.608 535.052 107.538 535.078 104.815 535.821C104.464 535.917 104.104 535.988 103.748 536.071C102.756 536.313 101.478 536.265 100.85 536.88C100.143 537.569 100.824 538.808 100.991 539.796C101.118 540.561 100.784 540.851 100.077 540.947C98.189 541.202 96.2964 541.316 94.3906 541.325C93.5826 541.33 93.1303 541.084 93.2226 540.196C93.2621 539.836 93.2357 539.467 93.2401 539.098C93.2753 537.191 93.4729 537.288 91.3695 537.147C82.4509 536.546 74.4369 533.488 67.3275 528.058C66.9235 527.751 66.5196 527.43 66.1463 527.083C65.5579 526.525 65.0573 526.49 64.5084 527.167C63.9112 527.9 63.2437 528.572 62.4884 529.398C60.4641 527.58 58.7427 525.809 57.2102 523.854C57.9567 522.655 59.3267 522.211 60.1655 521.021C58.9403 519.426 57.7415 517.779 56.7447 516.004C56.2529 515.126 55.7874 515.205 54.9882 515.635C52.393 517.032 52.393 516.988 51.1152 514.265C47.0313 505.54 45.7271 496.407 47.106 486.883C47.207 486.172 47.1938 485.421 47.6373 484.814C48.9678 484.595 50.4433 485.913 51.3962 485.056C52.1778 484.353 52.1778 482.785 52.5291 481.603C52.5511 481.533 52.5818 481.467 52.5994 481.397C52.8321 480.421 53.6665 479.424 53.3152 478.528C52.9814 477.68 51.708 477.654 50.8385 477.32C50.0613 477.021 49.7758 476.666 50.1754 475.866C51.0229 474.166 51.8573 472.457 52.6696 470.739C53.0517 469.936 53.4776 469.949 54.2197 470.357C55.0673 470.823 55.8489 472.005 56.8325 471.513C57.579 471.139 57.9655 470.045 58.5144 469.268C63.5467 462.142 70.1116 456.972 78.2222 453.769C80.1587 453.005 80.1587 453.01 79.522 451.033C78.9028 449.104 78.894 449.078 80.8218 448.559C82.3016 448.164 83.8166 447.883 85.292 447.47C86.223 447.211 86.5743 447.47 86.7631 448.423C86.9431 449.319 86.5918 450.545 87.4613 451.05C88.2517 451.507 89.3144 451.033 90.2541 450.971C91.2773 450.905 92.296 450.76 93.3148 450.782C94.2545 450.8 94.5355 450.484 94.5619 449.526C94.6409 446.622 94.6936 446.578 97.5128 446.811C107.332 447.624 116.11 451.081 123.781 457.293C125.23 458.466 125.213 458.488 123.992 459.946C123.851 460.113 123.72 460.297 123.557 460.438C122.631 461.229 122.653 461.918 123.619 462.722C125.076 463.939 126.451 465.261 127.983 466.65C128.581 466.404 129.301 465.657 130.082 465.011C130.702 464.501 131.097 464.62 131.496 465.218C132.599 466.856 133.688 468.499 134.812 470.12C135.295 470.818 134.939 471.117 134.368 471.482C133.53 472.013 132.098 472.172 131.993 473.142C131.896 474.012 132.726 474.983 133.143 475.91C136.748 483.927 137.908 492.278 136.56 500.976C136.287 502.72 136.331 502.724 137.978 503.067C138.334 503.142 138.689 503.256 139.049 503.291C139.941 503.379 140.362 503.722 140.051 504.706C139.497 506.445 138.975 508.198 138.496 509.96Z" fill="white"/>
<path d="M64.4382 468.095C64.5085 468.121 64.5875 468.13 64.6402 468.174C66.6382 469.659 66.6382 469.659 65.1671 471.601C55.5811 484.239 54.8566 500.682 63.336 513.883C64.7588 516.101 66.4318 518.126 68.32 519.976C69.9272 521.548 69.8262 521.184 68.4254 522.879C68.2849 523.046 68.1444 523.218 68.0127 523.38C52.5863 510.952 49.1699 484.81 64.4382 468.095Z" fill="white"/>
<path d="M133.275 494.399C133.227 503.177 130.276 511.554 124.422 518.903C123.461 520.112 122.143 519.879 121.485 518.455C121.177 517.788 121.779 517.533 122.055 517.195C124.181 514.563 125.915 511.708 127.29 508.619C133.249 495.238 130.416 479.318 120.185 468.749C119.829 468.38 119.495 467.984 119.104 467.659C118.283 466.987 118.174 466.456 118.951 465.538C119.829 464.501 120.281 464.712 121.142 465.529C128.73 472.729 133.02 482.653 133.275 494.399Z" fill="white"/>
<path d="M94.2063 467.098C79.2542 466.966 67.108 478.989 67.0378 493.991C66.9675 508.716 78.9556 520.819 93.7144 520.929C108.557 521.039 120.69 509.046 120.795 494.149C120.9 479.411 108.921 467.225 94.2063 467.098ZM112.746 495.252C112.083 504.552 105.105 511.708 95.9979 512.71C95.853 512.727 95.708 512.758 95.5675 512.784C94.5005 512.982 93.1128 512.411 92.419 513.153C91.5979 514.032 91.9404 515.512 91.8306 516.738C91.5979 519.396 91.6242 519.396 89.0905 518.899C76.9356 516.514 68.4825 506.182 68.5352 492.111C68.8118 485.271 72.3072 478.436 79.1224 473.336C80.5979 472.233 80.6286 472.268 81.5683 473.775C82.0689 474.579 82.552 475.4 83.0482 476.209C84.0142 477.786 84.023 477.803 85.6434 477.052C90.0609 475 94.6234 474.544 99.3001 475.941C108.429 478.669 113.326 487.143 112.746 495.252Z" fill="white"/>
<path d="M102.374 493.934C102.409 498.647 98.6502 502.486 93.9647 502.521C89.2749 502.556 85.3799 498.744 85.3492 494.092C85.3184 489.431 89.1081 485.566 93.8023 485.473C98.4218 485.386 102.339 489.247 102.374 493.934Z" fill="white"/>
</g>
</svg>
