<svg width="320" height="135" viewBox="0 0 320 135" fill="none" xmlns="http://www.w3.org/2000/svg">
<g opacity="0.3">
<path d="M67.3447 124.42C68.4087 125.289 69.3131 126.283 70.1821 127.303C71.0333 128.341 71.8491 129.414 72.5052 130.612C71.4412 129.742 70.5368 128.749 69.6678 127.729C68.8166 126.691 68.0008 125.617 67.3447 124.42Z" fill="#CAEAE9"/>
<path d="M54.1594 108.559C55.1879 109.588 56.1633 110.653 57.1298 111.735C58.1052 112.808 59.0362 113.917 59.9672 115.025C60.8894 116.143 61.8027 117.261 62.6894 118.414C63.5761 119.558 64.4539 120.711 65.2697 121.917C64.2411 120.897 63.2658 119.824 62.2993 118.742C61.3239 117.669 60.3929 116.56 59.4618 115.451C58.5397 114.334 57.6264 113.216 56.7485 112.063C55.853 110.919 54.9751 109.766 54.1594 108.559Z" fill="#CAEAE9"/>
<path d="M62.3083 107.006L67.1319 112.852C68.7546 114.786 70.3684 116.728 72.0176 118.644L76.8945 124.446C78.5083 126.398 80.1132 128.349 81.6472 130.363C79.9004 128.527 78.1979 126.664 76.5043 124.783C74.8107 122.902 73.1615 120.986 71.5034 119.07C69.8896 117.119 68.2669 115.176 66.724 113.171C65.1901 111.166 63.6915 109.126 62.3083 107.006Z" fill="#CAEAE9"/>
<path d="M42.1359 82.1238C43.9713 83.7205 45.6915 85.4503 47.3496 87.2334C49.0078 89.0253 50.5595 90.897 52.0935 92.7865C53.5831 94.7114 55.0639 96.6453 56.4738 98.6235C57.8836 100.602 59.2669 102.606 60.588 104.647C59.0452 102.766 57.5555 100.841 56.0659 98.9251C54.5762 97.009 53.1043 95.0751 51.5792 93.1945C50.0895 91.2784 48.5467 89.4156 46.9772 87.5616C45.3989 85.7165 43.7763 83.9157 42.1359 82.1238Z" fill="#CAEAE9"/>
<path d="M55.0903 124.614C56.1543 125.421 57.0676 126.352 57.9454 127.328C58.8055 128.313 59.6302 129.324 60.3041 130.487C59.24 129.688 58.3267 128.748 57.4489 127.772C56.5799 126.787 55.7553 125.767 55.0903 124.614Z" fill="#CAEAE9"/>
<path d="M40.5753 107.165C41.6659 108.274 42.7122 109.436 43.7408 110.598C44.7782 111.76 45.7713 112.949 46.7644 114.138C47.7486 115.335 48.724 116.542 49.6728 117.775C50.6215 119.008 51.5614 120.241 52.4393 121.536C51.3486 120.427 50.3112 119.274 49.2826 118.112C48.2452 116.95 47.2521 115.761 46.259 114.564C45.2748 113.357 44.2905 112.16 43.3506 110.918C42.393 109.693 41.4531 108.452 40.5753 107.165Z" fill="#CAEAE9"/>
<path d="M0.87793 58.0139C2.44738 59.9654 4.03457 61.8992 5.62176 63.8329L10.3922 69.6342L19.9774 81.1924C23.1429 85.0688 26.3439 88.9275 29.465 92.8393L34.1113 98.7382L38.6335 104.735L33.8542 98.9422L29.066 93.1587L19.4631 81.6093C16.2976 77.7329 13.1055 73.8743 9.99317 69.9447L5.36461 64.0281C3.85723 62.0411 2.35871 60.0364 0.87793 58.0139Z" fill="#CAEAE9"/>
<path d="M50.063 77.9375C51.8541 79.9511 53.6364 81.9824 55.4009 84.0226L60.6058 90.2231C64.0462 94.3744 67.4156 98.5968 70.8117 102.784C74.1723 107.006 77.5683 111.184 80.9998 115.353C82.7112 117.438 84.4402 119.504 86.187 121.562C87.9249 123.629 89.6806 125.669 91.4629 127.701C89.6008 125.749 87.7653 123.771 85.9387 121.784C84.1387 119.771 82.3654 117.739 80.6097 115.69C77.0984 111.592 73.7023 107.396 70.2974 103.209L60.2068 90.5513L55.1526 84.2355C53.4679 82.1155 51.7743 80.0221 50.063 77.9375Z" fill="#CAEAE9"/>
<path d="M0.0975342 18.2021L6.26008 25.2986L12.3694 32.4395L24.5083 46.7833C28.5073 51.6 32.5506 56.3902 36.5142 61.2424L42.455 68.5252L48.3427 75.8523L42.2068 68.7381L36.124 61.5706L23.994 47.2091L11.9793 32.7677L6.0118 25.5115L0.0975342 18.2021Z" fill="#CAEAE9"/>
<path d="M0 31.4734L19.1083 53.4637C22.2472 57.1716 25.395 60.8707 28.4364 64.6584C29.9526 66.5568 31.4511 68.4639 32.9408 70.3889C34.4038 72.3315 35.8403 74.2919 37.259 76.2612C35.7516 74.354 34.2265 72.4646 32.6837 70.5929C31.1497 68.7123 29.6068 66.8406 28.0462 64.9867C24.9251 61.2699 21.7861 57.5619 18.6118 53.8984C15.4729 50.1904 12.2896 46.5269 9.17731 42.8012L4.53102 37.1861C3.0059 35.2966 1.49852 33.3894 0 31.4734Z" fill="#CAEAE9"/>
<path d="M28.5074 77.7241C30.2897 79.6579 32.0276 81.6359 33.7478 83.6229C35.468 85.6098 37.1527 87.6323 38.8552 89.637C40.5133 91.6771 42.198 93.6907 43.8384 95.7486C45.4788 97.8065 47.1103 99.8644 48.6887 101.976C46.8975 100.042 45.1685 98.0638 43.4483 96.0768C41.7281 94.0899 40.0434 92.0674 38.3498 90.0627C36.6917 88.0226 35.0069 86.009 33.3665 83.9511C31.7084 81.8932 30.0769 79.8353 28.5074 77.7241Z" fill="#CAEAE9"/>
<path d="M0.886719 44.5212C3.1478 47.0228 5.35568 49.5775 7.55469 52.1412C9.7537 54.6959 11.9084 57.295 14.0896 59.8675L20.5005 67.7003C22.6197 70.326 24.7212 72.9606 26.7783 75.6484C24.5172 73.1469 22.3093 70.5921 20.1103 68.0285L13.5754 60.2933C11.4384 57.6853 9.27488 55.0951 7.16454 52.4605C5.04533 49.8348 2.93499 47.2002 0.886719 44.5212Z" fill="#CAEAE9"/>
<path d="M110.269 122.37C111.768 123.7 113.116 125.173 114.419 126.672C115.714 128.189 116.973 129.732 118.072 131.409C116.574 130.069 115.226 128.606 113.923 127.107C112.628 125.599 111.378 124.055 110.269 122.37Z" fill="#CAEAE9"/>
<path d="M126.203 116.08C127.117 116.967 127.977 117.889 128.819 118.83C129.67 119.761 130.486 120.728 131.302 121.695C132.1 122.671 132.907 123.647 133.669 124.659C134.432 125.661 135.195 126.672 135.895 127.737C134.982 126.859 134.122 125.927 133.279 124.987C132.428 124.055 131.612 123.088 130.797 122.121C129.999 121.145 129.192 120.169 128.429 119.158C127.667 118.156 126.904 117.144 126.203 116.08Z" fill="#CAEAE9"/>
<path d="M72.9663 77.5295C76.1052 80.3237 78.9781 83.4017 81.718 86.5773C84.4579 89.7618 87.0382 93.0793 89.6096 96.3968L97.2175 106.42C99.7712 109.747 102.378 113.02 105.127 116.196C102.174 113.206 99.4608 110.004 96.8185 106.74C94.1761 103.475 91.6579 100.122 89.0865 96.8049C86.5594 93.4608 83.988 90.1521 81.3367 86.9144C78.6766 83.6678 75.9101 80.5189 72.9663 77.5295Z" fill="#CAEAE9"/>
<path d="M56.1722 57.3389C57.5644 58.8025 58.9033 60.3106 60.2333 61.8186C61.5633 63.3355 62.849 64.8879 64.1614 66.4137C65.4293 67.9749 66.7239 69.5273 67.9653 71.1063C69.2155 72.6942 70.448 74.2821 71.6362 75.9143C70.2441 74.4506 68.9052 72.9426 67.5751 71.4346C66.2451 69.9177 64.9594 68.3653 63.6471 66.8395C62.3791 65.2694 61.0845 63.7258 59.8432 62.1468C58.5929 60.5678 57.3604 58.98 56.1722 57.3389Z" fill="#CAEAE9"/>
<path d="M66.8481 57.2161L74.0925 66.0067L81.2215 74.8949L95.3909 92.7333C100.108 98.6854 104.887 104.575 109.747 110.412L113.409 114.776L117.115 119.105L120.848 123.407L124.634 127.656L120.724 123.514L116.867 119.318L113.089 115.051L109.356 110.74C104.417 104.966 99.6293 99.0668 94.8766 93.1414C90.1594 87.1893 85.4776 81.2106 80.8225 75.2053L66.8481 57.2161Z" fill="#CAEAE9"/>
<path d="M44.7516 31.313C46.5959 33.1315 48.3693 35.0121 50.125 36.9194C51.8806 38.8266 53.5653 40.7871 55.2678 42.7298C56.9259 44.7169 58.6018 46.6951 60.2156 48.7176C61.8294 50.7402 63.4254 52.7805 64.9505 54.874C63.2126 52.9579 61.519 50.9975 59.8254 49.0459L54.7713 43.1645L49.7437 37.2565C48.0767 35.2871 46.4008 33.3178 44.7516 31.313Z" fill="#CAEAE9"/>
<path d="M61.5279 77.8303C64.1702 80.7044 66.7594 83.6318 69.3308 86.568C71.9022 89.5042 74.4205 92.4937 76.9387 95.4742C79.4214 98.4903 81.913 101.497 84.3337 104.558C86.7544 107.618 89.1485 110.705 91.4539 113.863L76.4244 95.9L68.9318 86.8962C66.4491 83.889 63.9574 80.8819 61.5279 77.8303Z" fill="#CAEAE9"/>
<path d="M22.1052 30.4883L31.4156 41.7807C34.5367 45.533 37.6402 49.2853 40.7968 53.011L50.1958 64.2235L54.8864 69.8476L59.5239 75.5071L54.6382 70.0605L49.8057 64.5606C46.5958 60.8882 43.4392 57.1625 40.2825 53.4368C37.1702 49.6756 34.049 45.9233 31.0165 42.1L26.5032 36.3429L22.1052 30.4883Z" fill="#CAEAE9"/>
<path d="M0.611816 4.65674C2.39408 6.58169 4.12314 8.55987 5.83447 10.538C7.55467 12.5162 9.22166 14.5387 10.9241 16.5347C12.5822 18.5661 14.2581 20.5797 15.8985 22.6289C17.53 24.678 19.1615 26.736 20.731 28.8384C18.9487 26.9134 17.2197 24.9353 15.5083 22.9571C13.7882 20.9789 12.1212 18.9564 10.4187 16.9605C8.76057 14.9291 7.08472 12.9154 5.45319 10.8663C3.8128 8.81712 2.18127 6.7591 0.611816 4.65674Z" fill="#CAEAE9"/>
<path d="M78.1623 57.6147C79.448 58.8211 80.6805 60.0895 81.8864 61.3846C83.1012 62.6708 84.2539 64.0013 85.3889 65.3673C86.5061 66.7333 87.5968 68.126 88.6076 69.5807C89.6273 71.0265 90.5938 72.5079 91.4539 74.0513C90.3633 72.6586 89.2992 71.2571 88.1997 69.8911C87.1002 68.5251 86.0007 67.1502 84.8746 65.7931L81.5051 61.7305C80.379 60.3645 79.2529 59.0074 78.1623 57.6147Z" fill="#CAEAE9"/>
<path d="M55.587 30.9229C57.1476 33.0251 58.7437 35.0919 60.3841 37.1144C62.0333 39.1369 63.6914 41.1504 65.4205 43.1019C67.1052 45.0978 68.852 47.0315 70.5811 49.0008C72.3013 50.9611 74.0392 52.9215 75.7062 54.9351C73.8352 53.1078 72.0086 51.2361 70.1998 49.3467C68.3998 47.4484 66.653 45.5058 64.9151 43.5455C63.2215 41.5496 61.5456 39.536 59.985 37.4337C58.4156 35.3315 56.9259 33.1759 55.587 30.9229Z" fill="#CAEAE9"/>
<path d="M30.1388 1.37524C32.2225 3.57517 34.2442 5.82833 36.2659 8.08148C38.2876 10.3346 40.256 12.6321 42.26 14.903C44.2196 17.2094 46.1969 19.498 48.1299 21.8222C50.0629 24.1463 51.9959 26.4793 53.8669 28.8655C51.7831 26.6656 49.7614 24.4213 47.7398 22.1592C45.7181 19.9061 43.7496 17.6086 41.7457 15.3377C39.7861 13.0313 37.8087 10.7427 35.8669 8.40969C33.9427 6.08558 32.0097 3.75259 30.1388 1.37524Z" fill="#CAEAE9"/>
<path d="M20.2964 2.22607C21.8127 3.84053 23.2758 5.49935 24.7299 7.15816C26.1841 8.82584 27.594 10.529 29.0304 12.2056C30.4225 13.9265 31.8413 15.6208 33.2156 17.3505C34.59 19.0892 35.9555 20.8278 37.259 22.6108C35.7427 20.9964 34.2797 19.3376 32.8166 17.6788C31.3624 16.0111 29.9526 14.3079 28.5161 12.6314C27.124 10.9104 25.7053 9.21615 24.3309 7.48637C22.9654 5.74772 21.5999 4.00908 20.2964 2.22607Z" fill="#CAEAE9"/>
<path d="M105.242 90.8879C106.944 92.7153 108.585 94.5871 110.216 96.4677C111.848 98.3483 113.444 100.264 115.058 102.163C116.627 104.097 118.223 106.004 119.775 107.955C121.327 109.907 122.87 111.858 124.359 113.863C122.657 112.036 121.016 110.164 119.385 108.284C117.753 106.403 116.157 104.487 114.543 102.589C112.974 100.655 111.378 98.7475 109.826 96.7959C108.274 94.8443 106.732 92.8927 105.242 90.8879Z" fill="#CAEAE9"/>
<path d="M92.9967 76.1628C93.9809 77.1386 94.912 78.1498 95.8341 79.1787C96.7652 80.1988 97.6519 81.2544 98.5386 82.3099C99.4164 83.3744 100.285 84.4388 101.128 85.5387C101.97 86.6298 102.804 87.7297 103.575 88.8828C102.591 87.916 101.66 86.8959 100.738 85.8669C99.8066 84.8468 98.9198 83.7913 98.0332 82.7357C97.1553 81.6713 96.2864 80.6069 95.4529 79.5069C94.6016 78.4159 93.777 77.316 92.9967 76.1628Z" fill="#CAEAE9"/>
<path d="M33.9515 30.6299C35.2816 32.0138 36.5584 33.4509 37.8264 34.8969C39.0944 36.334 40.318 37.8155 41.5683 39.2704C42.7742 40.7608 44.0067 42.2334 45.1948 43.7415C46.383 45.2496 47.5623 46.7666 48.6796 48.3279C47.3495 46.944 46.0727 45.5068 44.8047 44.0697C43.5367 42.6326 42.3131 41.1511 41.0628 39.6962C39.8569 38.2059 38.6244 36.7333 37.4451 35.2252C36.257 33.7082 35.0776 32.1912 33.9515 30.6299Z" fill="#CAEAE9"/>
<path d="M11.8109 4.00977C13.6197 5.97014 15.3754 7.98374 17.1222 9.99733C18.8689 12.0109 20.5714 14.0689 22.3005 16.1002C23.9852 18.167 25.6965 20.2161 27.3635 22.3007C29.0305 24.3852 30.6886 26.4787 32.2846 28.6165C30.4758 26.6561 28.7201 24.6425 26.9733 22.6289C25.2266 20.6153 23.5241 18.5573 21.795 16.526C20.1103 14.4592 18.399 12.4101 16.7409 10.3255C15.065 8.24098 13.4069 6.14755 11.8109 4.00977Z" fill="#CAEAE9"/>
<path d="M117.842 90.5867C120.378 93.5494 122.861 96.5565 125.326 99.5725L132.668 108.665L139.894 117.855C142.279 120.933 144.656 124.02 146.979 127.16C144.443 124.197 141.969 121.19 139.495 118.174L132.153 109.082L124.927 99.8919C122.542 96.8049 120.165 93.718 117.842 90.5867Z" fill="#CAEAE9"/>
<path d="M110.269 81.4319C111.529 82.5409 112.628 83.7741 113.692 85.0428C114.738 86.3204 115.749 87.6334 116.6 89.0796C115.341 87.9706 114.242 86.7374 113.178 85.4687C112.131 84.1911 111.121 82.878 110.269 81.4319Z" fill="#CAEAE9"/>
<path d="M89.9289 56.9753C91.3033 58.4124 92.6156 59.8938 93.9279 61.3841C95.2402 62.8745 96.4993 64.4002 97.785 65.8994C99.0353 67.4429 100.303 68.9598 101.527 70.5211C102.751 72.0824 103.974 73.6436 105.127 75.2493C103.752 73.8122 102.44 72.3308 101.128 70.8405C99.8244 69.3502 98.5564 67.8244 97.2707 66.3163C96.0294 64.7728 94.7525 63.2559 93.5289 61.6946C92.3052 60.1511 91.0905 58.5898 89.9289 56.9753Z" fill="#CAEAE9"/>
<path d="M54.1594 13.9802C56.9081 17.4841 59.781 20.8815 62.7337 24.208C65.6864 27.5345 68.6746 30.8343 71.6716 34.1253C74.6332 37.4518 77.6036 40.7783 80.4145 44.2378C83.2253 47.6973 85.9209 51.2633 88.3061 55.0244C85.6992 51.4141 82.915 47.9457 80.0243 44.566C77.1337 41.1863 74.1721 37.8687 71.1751 34.5688C68.2224 31.2424 65.2165 27.9425 62.3436 24.5362C59.4707 21.1388 56.6865 17.6526 54.1594 13.9802Z" fill="#CAEAE9"/>
<path d="M43.6874 1.39307C44.7249 2.22691 45.6027 3.18494 46.4362 4.17846C47.2608 5.18085 48.05 6.22759 48.6796 7.38965C47.6421 6.5558 46.7643 5.59777 45.9308 4.60425C45.1062 3.60187 44.317 2.55513 43.6874 1.39307Z" fill="#CAEAE9"/>
<path d="M91.454 113.863C92.7309 115.229 93.9457 116.631 95.1516 118.041C96.3575 119.452 97.519 120.898 98.7072 122.326C99.8511 123.789 101.022 125.226 102.148 126.708C103.274 128.189 104.391 129.67 105.446 131.205C104.169 129.848 102.955 128.446 101.749 127.027C100.543 125.617 99.3723 124.162 98.1841 122.734C97.0402 121.27 95.8698 119.824 94.7437 118.343C93.6353 116.879 92.5181 115.389 91.454 113.863Z" fill="#CAEAE9"/>
<path d="M1.729 116.781C2.6689 117.668 3.55559 118.609 4.43342 119.549C5.32011 120.489 6.16247 121.465 7.00483 122.432C7.83832 123.417 8.67182 124.401 9.46097 125.422C10.259 126.433 11.0482 127.453 11.7752 128.526C10.8353 127.639 9.94865 126.699 9.07083 125.759C8.18413 124.818 7.34178 123.843 6.49942 122.876C5.66593 121.891 4.8413 120.906 4.04328 119.886C3.25412 118.866 2.46496 117.846 1.729 116.781Z" fill="#CAEAE9"/>
<path d="M1.62268 102.535C3.46701 104.54 5.25813 106.589 7.04039 108.638C8.82265 110.696 10.5606 112.79 12.3251 114.857C14.0453 116.959 15.7921 119.052 17.4945 121.173C19.197 123.302 20.8906 125.43 22.5221 127.604C20.6778 125.599 18.8867 123.55 17.0955 121.501C15.3133 119.443 13.5753 117.349 11.8108 115.282C10.0906 113.171 8.34384 111.087 6.64138 108.967C4.94779 106.847 3.2542 104.709 1.62268 102.535Z" fill="#CAEAE9"/>
<path d="M31.1762 124.481C31.9033 124.942 32.4797 125.536 33.0117 126.166C33.5348 126.804 34.0137 127.478 34.3329 128.276C33.6058 127.815 33.0294 127.221 32.4974 126.591C31.9831 125.944 31.5043 125.279 31.1762 124.481Z" fill="#CAEAE9"/>
<path d="M16.0936 106.341C17.2818 107.556 18.4168 108.825 19.5429 110.093C20.6779 111.362 21.7685 112.657 22.8591 113.961C23.9409 115.274 25.0138 116.578 26.0601 117.927C27.1064 119.266 28.1439 120.615 29.1193 122.008C27.9311 120.792 26.7961 119.524 25.67 118.255C24.535 116.986 23.4444 115.691 22.3537 114.387C21.272 113.074 20.199 111.77 19.1527 110.422C18.1064 109.082 17.0779 107.734 16.0936 106.341Z" fill="#CAEAE9"/>
<path d="M1.6582 88.9812C2.85524 90.2053 3.99021 91.4738 5.12519 92.7423C6.26016 94.0108 7.35966 95.3148 8.4503 96.6188C9.53207 97.9316 10.6138 99.2445 11.6601 100.593C12.7064 101.932 13.7439 103.289 14.7281 104.682C13.5311 103.458 12.3961 102.189 11.2611 100.921C10.1262 99.6525 9.02665 98.3485 7.93601 97.0446C6.85424 95.7317 5.77248 94.4189 4.72617 93.0705C3.67987 91.7311 2.63357 90.3828 1.6582 88.9812Z" fill="#CAEAE9"/>
<path d="M43.3063 123.736C44.2284 124.445 44.9999 125.279 45.7358 126.149C46.454 127.027 47.1279 127.941 47.6511 128.987C46.7289 128.278 45.9575 127.444 45.2215 126.574C44.5122 125.696 43.8294 124.783 43.3063 123.736Z" fill="#CAEAE9"/>
<path d="M29.1013 106.571C30.2806 107.777 31.3979 109.037 32.5151 110.297C33.6323 111.556 34.7141 112.843 35.7959 114.138C36.8599 115.442 37.9328 116.737 38.9525 118.076C39.9811 119.407 41.0097 120.746 41.9762 122.13C40.7969 120.924 39.6796 119.664 38.5624 118.404C37.4451 117.145 36.3634 115.859 35.2816 114.563C34.2176 113.26 33.1535 111.964 32.125 110.625C31.0964 109.294 30.0678 107.955 29.1013 106.571Z" fill="#CAEAE9"/>
<path d="M0.7005 72.2515C3.00591 74.8239 5.24926 77.4318 7.4926 80.0574L14.1428 87.9786L20.6778 95.9975C22.8325 98.6852 24.9871 101.382 27.0709 104.132C24.7655 101.568 22.5221 98.9513 20.2788 96.3257L13.6285 88.4044L7.09359 80.3856C4.93891 77.689 2.79311 74.9924 0.7005 72.2515Z" fill="#CAEAE9"/>
<path d="M141.703 90.9587L150.127 101.311L158.586 111.628L167.063 121.927C169.882 125.369 172.72 128.793 175.504 132.27C172.507 128.979 169.581 125.626 166.672 122.255C163.764 118.884 160.918 115.469 158.071 112.045C155.269 108.594 152.459 105.134 149.728 101.621C146.997 98.1175 144.301 94.5692 141.703 90.9587Z" fill="#CAEAE9"/>
<path d="M110.172 53.064C112.779 55.9824 115.324 58.9363 117.86 61.908L125.414 70.8673L132.845 79.9242C135.301 82.958 137.748 86.0006 140.142 89.0964C137.536 86.178 134.991 83.2241 132.455 80.2524L124.9 71.2931L117.47 62.2362C115.013 59.1936 112.566 56.1509 110.172 53.064Z" fill="#CAEAE9"/>
<path d="M130.894 65.1721L138.147 73.4307L145.347 81.7247L159.667 98.3926L173.872 115.158L180.93 123.576L187.935 132.039L180.682 123.789L173.482 115.486L159.162 98.8184L144.957 82.0529L137.899 73.6347L130.894 65.1721Z" fill="#CAEAE9"/>
<path d="M124.262 44.5486C125.946 46.4203 127.702 48.2476 129.475 50.0395L134.858 55.3796C135.727 56.4441 135.7 57.8723 136.498 58.7416L139.185 61.4028L144.576 66.7252L144.585 66.734L144.593 66.7429C148.025 70.9831 151.403 75.2676 154.915 79.4368C158.417 83.6149 162.07 87.6599 165.901 91.5186L165.91 91.5275L165.919 91.5363C171.416 98.3578 177.029 105.073 182.642 111.797L199.631 131.844C193.787 125.316 187.98 118.76 182.278 112.107C176.55 105.481 170.964 98.7304 165.422 91.9444L165.44 91.971C161.556 88.1211 157.929 84.0229 154.436 79.8271C150.942 75.6313 147.564 71.3468 144.177 67.0711L144.194 67.0889L138.874 61.6955L136.214 58.99C135.31 57.9255 135.363 56.4973 134.6 55.5837L129.351 50.146C127.613 48.3186 125.911 46.4646 124.262 44.5486Z" fill="#CAEAE9"/>
<path d="M66.8481 1.02905L71.7516 6.65295L76.5929 12.3301L86.1959 23.7375L95.6835 35.2515L100.383 41.035L105.029 46.8718L100.135 41.2479L95.2845 35.5797L85.6816 24.1633L76.2028 12.6494L71.5033 6.86584L66.8481 1.02905Z" fill="#CAEAE9"/>
<path d="M76.7879 0.940674L83.2608 8.47184L89.6893 16.0474L102.449 31.2605L115.084 46.5801L121.362 54.2709L127.587 62.0061L121.114 54.4838L114.694 46.9083L101.935 31.6863L89.2992 16.3756L83.0125 8.67587L76.7879 0.940674Z" fill="#CAEAE9"/>
<path d="M54.8156 0.612549C57.9811 4.17853 61.0491 7.82434 64.0993 11.479L73.1702 22.5229C76.1584 26.2308 79.1821 29.9121 82.2057 33.5845C85.2293 37.2658 88.2884 40.9116 91.3741 44.5486C88.0845 41.0979 84.9279 37.532 81.8155 33.9216C78.7032 30.3113 75.6885 26.63 72.656 22.9487L63.7092 11.8072L54.8156 0.612549Z" fill="#CAEAE9"/>
<path d="M88.6164 1.42798C89.2726 1.80876 89.778 2.32237 90.2479 2.86254C90.7001 3.42043 91.108 4.00488 91.3651 4.72217C90.709 4.34139 90.2036 3.82778 89.7336 3.2876C89.2814 2.72971 88.8735 2.14526 88.6164 1.42798Z" fill="#CAEAE9"/>
<path d="M118.285 37.3625C119.482 38.3917 120.529 39.5538 121.531 40.7426C122.524 41.9492 123.473 43.1824 124.262 44.5486C123.065 43.5195 122.018 42.3573 121.016 41.1685C120.032 39.9619 119.075 38.7288 118.285 37.3625Z" fill="#CAEAE9"/>
<path d="M92.8992 6.8479C95.0006 9.15427 97.04 11.5139 99.0794 13.8823C101.119 16.2419 103.105 18.6459 105.127 21.0232C107.104 23.4361 109.099 25.8311 111.05 28.2617C113.001 30.6923 114.951 33.1317 116.84 35.6155C114.739 33.3091 112.699 30.9495 110.66 28.581C108.62 26.2126 106.634 23.8175 104.612 21.4402C102.635 19.0273 100.64 16.6322 98.6893 14.1928C96.7386 11.78 94.7878 9.34056 92.8992 6.8479Z" fill="#CAEAE9"/>
<path d="M161.476 129.582C162.008 129.803 162.39 130.148 162.727 130.528C163.055 130.926 163.338 131.351 163.471 131.908C162.939 131.687 162.558 131.342 162.221 130.962C161.893 130.564 161.609 130.139 161.476 129.582Z" fill="#CAEAE9"/>
<path d="M129.981 90.9766L137.349 100.051L144.735 109.099L152.131 118.147C154.596 121.163 157.061 124.179 159.481 127.24C156.848 124.365 154.285 121.429 151.74 118.475C149.196 115.521 146.713 112.523 144.221 109.516C141.774 106.482 139.327 103.449 136.95 100.362C134.574 97.2835 132.233 94.1611 129.981 90.9766Z" fill="#CAEAE9"/>
<path d="M91.3563 44.5486C93.0233 46.2872 94.6725 48.0436 96.304 49.8265C97.909 51.6184 99.4961 53.4368 101.074 55.2641C104.213 58.9276 107.228 62.6887 110.261 66.4409L119.234 77.7774C120.724 79.6668 122.24 81.5473 123.756 83.4101C125.264 85.2907 126.789 87.1535 128.34 88.9985C126.709 87.2244 125.104 85.4326 123.508 83.6142C121.938 81.7868 120.378 79.9418 118.835 78.0878C115.758 74.38 112.77 70.5923 109.737 66.849C106.749 63.0701 103.726 59.3179 100.684 55.5835C99.1592 53.7207 97.6163 51.8667 96.0646 50.0305C94.5218 48.1855 92.9523 46.3582 91.3563 44.5486Z" fill="#CAEAE9"/>
<path d="M141.047 37.6997L147.351 45.089L153.549 52.5758C157.663 57.5789 161.698 62.644 165.759 67.6914L189.833 98.1887L183.582 90.7551L177.419 83.2417C173.331 78.2209 169.297 73.1469 165.245 68.0995L141.047 37.6997Z" fill="#CAEAE9"/>
<path d="M112.54 2.13818C114.969 4.76387 117.31 7.48714 119.607 10.2281C121.912 12.9692 124.138 15.7723 126.372 18.5665C128.571 21.3962 130.779 24.2082 132.942 27.0556C135.106 29.9031 137.269 32.7594 139.389 35.6423C137.048 32.9279 134.787 30.1515 132.535 27.375L125.84 18.9745L119.199 10.5475L112.54 2.13818Z" fill="#CAEAE9"/>
<path d="M224.973 124.029C226.436 125.36 227.739 126.814 229.007 128.305C230.257 129.804 231.472 131.339 232.536 133.006C231.073 131.676 229.77 130.221 228.502 128.731C227.251 127.231 226.037 125.697 224.973 124.029Z" fill="#CAEAE9"/>
<path d="M208.418 104.363C209.784 105.773 211.105 107.237 212.408 108.71C213.712 110.173 214.98 111.681 216.265 113.163C217.507 114.68 218.775 116.179 219.998 117.722C221.222 119.257 222.437 120.8 223.598 122.397C222.224 120.987 220.912 119.523 219.608 118.059C218.305 116.596 217.037 115.088 215.76 113.606C214.519 112.089 213.251 110.59 212.027 109.047C210.794 107.503 209.58 105.96 208.418 104.363Z" fill="#CAEAE9"/>
<path d="M174.715 64.1431C177.454 67.2035 180.141 70.3082 182.819 73.4219L190.79 82.816L198.638 92.3078C201.236 95.4924 203.816 98.677 206.352 101.915C203.612 98.8544 200.925 95.7496 198.248 92.636L190.276 83.2418L182.429 73.7501C179.831 70.5655 177.251 67.3809 174.715 64.1431Z" fill="#CAEAE9"/>
<path d="M152.858 37.7539C154.613 39.661 156.316 41.6125 158.009 43.5728C159.703 45.5332 161.352 47.529 163.019 49.5071C164.651 51.5206 166.3 53.5076 167.914 55.5389C169.519 57.5702 171.124 59.6015 172.666 61.686C170.911 59.7789 169.208 57.8274 167.515 55.8671C165.821 53.9068 164.172 51.9109 162.505 49.9329C160.873 47.9193 159.224 45.9323 157.61 43.901C155.996 41.8697 154.4 39.8296 152.858 37.7539Z" fill="#CAEAE9"/>
<path d="M130.894 11.532C132.322 13.7673 133.918 15.8785 135.603 17.9009C137.296 19.9234 139.043 21.9015 140.861 23.8263C142.634 25.7867 144.47 27.6938 146.234 29.6808C147.999 31.6589 149.728 33.6813 151.262 35.8457C149.515 33.8499 147.697 31.9339 145.862 30.0267L140.382 24.2787C138.608 22.3095 136.835 20.3314 135.212 18.2203C133.59 16.1091 132.082 13.9004 130.894 11.532Z" fill="#CAEAE9"/>
<path d="M236.42 124.296C237.856 125.573 239.142 126.983 240.383 128.429C241.616 129.884 242.804 131.374 243.842 132.997C242.405 131.72 241.119 130.309 239.878 128.864C238.654 127.4 237.457 125.91 236.42 124.296Z" fill="#CAEAE9"/>
<path d="M218.987 103.848C220.371 105.259 221.701 106.713 223.022 108.177C224.343 109.641 225.62 111.14 226.915 112.621C228.174 114.138 229.451 115.637 230.692 117.172C231.933 118.706 233.157 120.25 234.336 121.838C232.953 120.427 231.623 118.972 230.302 117.509C228.981 116.045 227.704 114.546 226.409 113.065C225.15 111.548 223.864 110.049 222.632 108.514C221.39 106.979 220.158 105.436 218.987 103.848Z" fill="#CAEAE9"/>
<path d="M188.086 67.6289C190.587 70.3522 193.034 73.1199 195.481 75.9053L202.734 84.2971L209.872 92.7865C212.231 95.634 214.581 98.4904 216.877 101.391C214.377 98.6678 211.92 95.9001 209.482 93.1235L202.229 84.7318L195.091 76.2424C192.732 73.386 190.383 70.5297 188.086 67.6289Z" fill="#CAEAE9"/>
<path d="M248.639 124.365C250.102 125.749 251.414 127.266 252.682 128.809C253.932 130.37 255.156 131.958 256.211 133.679C254.748 132.295 253.436 130.778 252.168 129.235C250.909 127.674 249.694 126.086 248.639 124.365Z" fill="#CAEAE9"/>
<path d="M231.339 103.972C232.767 105.338 234.123 106.775 235.462 108.23C236.801 109.676 238.087 111.184 239.382 112.665C240.641 114.182 241.909 115.699 243.123 117.252C244.338 118.804 245.544 120.365 246.688 121.98C245.331 120.543 244.028 119.061 242.733 117.58L238.876 113.1L235.081 108.567C233.822 107.05 232.563 105.533 231.339 103.972Z" fill="#CAEAE9"/>
<path d="M222.321 94.4895C223.669 95.5185 224.884 96.6894 226.054 97.8958C227.216 99.1111 228.342 100.371 229.309 101.763C227.952 100.734 226.746 99.5635 225.576 98.3571C224.423 97.133 223.297 95.8822 222.321 94.4895Z" fill="#CAEAE9"/>
<path d="M190.799 99.7227L198.283 107.954L205.811 116.151C208.294 118.91 210.794 121.642 213.242 124.445C215.68 127.239 218.092 130.069 220.389 132.987L205.324 116.603C202.841 113.845 200.34 111.104 197.911 108.3C195.472 105.488 193.078 102.65 190.799 99.7227Z" fill="#CAEAE9"/>
<path d="M168.091 43.5898C169.465 45.0269 170.778 46.5083 172.081 47.9896C173.394 49.4799 174.653 51.0056 175.938 52.5048C177.189 54.0394 178.457 55.5651 179.68 57.1174C180.904 58.6698 182.119 60.2399 183.28 61.8455C181.906 60.4084 180.593 58.927 179.29 57.4457C177.987 55.9554 176.719 54.4385 175.433 52.9305C174.192 51.3871 172.915 49.8702 171.691 48.3179C170.467 46.7655 169.253 45.2043 168.091 43.5898Z" fill="#CAEAE9"/>
<path d="M133.537 2.35962L141.934 12.0371L150.277 21.7588C153.026 25.032 155.784 28.2873 158.497 31.5959C161.202 34.9045 163.879 38.2309 166.469 41.6282L158.107 31.9241L149.781 22.1935C147.041 18.9204 144.266 15.665 141.552 12.3652C138.83 9.06552 136.144 5.74805 133.537 2.35962Z" fill="#CAEAE9"/>
<path d="M122.55 2.29688C123.588 3.1395 124.483 4.11517 125.326 5.11745C126.159 6.13747 126.957 7.1841 127.596 8.36377C126.549 7.52115 125.663 6.54548 124.82 5.5432C123.978 4.52318 123.189 3.47655 122.55 2.29688Z" fill="#CAEAE9"/>
<path d="M197.84 64.4006C199.932 66.7158 201.981 69.0842 204.011 71.4526C206.042 73.821 208.028 76.2337 210.041 78.6199C212.009 81.0415 214.004 83.4454 215.955 85.8847C217.906 88.3241 219.848 90.7723 221.727 93.2649C219.626 90.9497 217.586 88.5813 215.556 86.2129C213.525 83.8445 211.539 81.4318 209.526 79.0457C207.558 76.624 205.563 74.2202 203.612 71.7808C201.661 69.3414 199.72 66.9021 197.84 64.4006Z" fill="#CAEAE9"/>
<path d="M180.665 43.6523C181.968 45.0184 183.227 46.4287 184.468 47.848C185.71 49.2672 186.907 50.722 188.131 52.1589C189.31 53.6314 190.516 55.0773 191.677 56.5675C192.839 58.0577 193.992 59.5479 195.091 61.0913C193.779 59.7253 192.529 58.3149 191.287 56.8957C190.046 55.4764 188.84 54.0217 187.625 52.5847C186.446 51.1122 185.24 49.6664 184.078 48.1762C182.917 46.686 181.764 45.1958 180.665 43.6523Z" fill="#CAEAE9"/>
<path d="M146.048 2.08374C148.894 5.29484 151.687 8.54142 154.48 11.8057L162.771 21.6431L170.946 31.578C173.651 34.9044 176.346 38.2397 178.98 41.6282C176.133 38.4259 173.331 35.1705 170.547 31.9062L162.257 22.0689L154.081 12.134C151.386 8.79867 148.69 5.46338 146.048 2.08374Z" fill="#CAEAE9"/>
<path d="M130.105 37.4778L136.542 44.9646L142.927 52.4957L155.615 67.6201L168.18 82.8509L174.422 90.4973L180.611 98.197L174.174 90.7102L167.79 83.1791L155.101 68.0459L142.536 52.8239L136.294 45.1686L130.105 37.4778Z" fill="#CAEAE9"/>
<path d="M100.126 1.69458L107.592 9.96183C110.075 12.7205 112.513 15.5147 114.96 18.3178C117.363 21.1475 119.766 23.9771 122.08 26.8955C124.386 29.805 126.638 32.7677 128.731 35.8369C126.407 32.9363 124.067 30.0623 121.681 27.2237C119.296 24.3852 116.902 21.5555 114.455 18.7613L107.202 10.3078C104.808 7.46037 102.422 4.62183 100.126 1.69458Z" fill="#CAEAE9"/>
<path d="M273.537 124.064C275.027 125.439 276.357 126.948 277.651 128.482C278.928 130.035 280.17 131.614 281.251 133.326C279.762 131.951 278.432 130.443 277.137 128.908C275.86 127.356 274.619 125.777 273.537 124.064Z" fill="#CAEAE9"/>
<path d="M246.227 91.2256C248.497 93.736 250.705 96.2908 252.904 98.8544C255.112 101.418 257.266 104.017 259.448 106.599L265.876 114.44C267.995 117.075 270.106 119.709 272.163 122.397C269.893 119.887 267.685 117.332 265.486 114.768L258.942 107.024C256.805 104.407 254.633 101.817 252.514 99.1826C250.394 96.5569 248.284 93.9134 246.227 91.2256Z" fill="#CAEAE9"/>
<path d="M266.94 103.342C269.157 105.791 271.311 108.283 273.457 110.776C275.603 113.277 277.713 115.805 279.842 118.325L286.102 125.971C288.168 128.535 290.225 131.116 292.229 133.733C290.012 131.285 287.857 128.801 285.711 126.299L279.327 118.75C277.243 116.196 275.133 113.668 273.067 111.104C271.001 108.54 268.944 105.959 266.94 103.342Z" fill="#CAEAE9"/>
<path d="M275.293 100.726C277.74 103.449 280.125 106.216 282.502 108.993L289.577 117.375L296.538 125.855C298.835 128.703 301.122 131.55 303.357 134.451C300.909 131.728 298.524 128.96 296.148 126.184L289.072 117.801L282.111 109.321C279.815 106.474 277.527 103.626 275.293 100.726Z" fill="#CAEAE9"/>
<path d="M260.307 82.7185C261.575 84.0313 262.799 85.3974 264.005 86.7634C265.22 88.1294 266.39 89.5221 267.561 90.9236C268.722 92.334 269.884 93.7355 271.001 95.1814C272.127 96.6184 273.244 98.0642 274.3 99.5544C273.023 98.2416 271.808 96.8756 270.602 95.5096C269.387 94.1435 268.217 92.7509 267.046 91.3494C265.885 89.939 264.723 88.5375 263.606 87.0916C262.489 85.6546 261.372 84.2087 260.307 82.7185Z" fill="#CAEAE9"/>
<path d="M206.6 43.5981C209.553 46.9868 212.435 50.4376 215.299 53.8973L223.855 64.3117C226.675 67.8068 229.548 71.2665 232.412 74.7261C235.276 78.1858 238.176 81.6188 241.084 85.043C237.972 81.7962 234.975 78.443 232.022 75.0543C229.069 71.6568 226.205 68.1971 223.341 64.7375C220.521 61.2424 217.684 57.7472 214.909 54.2255C212.124 50.686 209.349 47.1554 206.6 43.5981Z" fill="#CAEAE9"/>
<path d="M190.108 23.7729C191.456 25.1745 192.741 26.6294 194.027 28.0842C195.313 29.539 196.545 31.0382 197.804 32.5107C199.028 34.0188 200.269 35.5091 201.466 37.0349C202.664 38.5606 203.861 40.0953 204.987 41.6743C203.639 40.2727 202.353 38.8179 201.067 37.3631C199.791 35.9083 198.549 34.4091 197.29 32.9365C196.075 31.4285 194.825 29.9382 193.628 28.4124C192.44 26.8777 191.243 25.352 190.108 23.7729Z" fill="#CAEAE9"/>
<path d="M196.572 19.542L200.73 24.616L204.933 29.6456C207.735 32.9987 210.555 36.3341 213.392 39.6606L230.461 59.5663C236.127 66.2192 241.811 72.8722 247.362 79.6228C250.137 83.0025 252.886 86.3999 255.617 89.8151L259.66 94.9778L263.65 100.176L259.527 95.0754L255.36 90.0103C252.575 86.6394 249.782 83.2775 246.963 79.9421C241.323 73.2625 235.657 66.6184 229.947 59.9921C224.281 53.3391 218.58 46.7039 212.993 39.9799C210.2 36.618 207.425 33.2382 204.676 29.8408L200.597 24.7047L196.572 19.542Z" fill="#CAEAE9"/>
<path d="M182.048 2.09229C183.245 3.31659 184.38 4.58525 185.515 5.86279C186.65 7.13145 187.749 8.4356 188.84 9.74862C189.922 11.0616 191.003 12.3835 192.05 13.7321C193.096 15.0806 194.142 16.4291 195.126 17.8308C193.929 16.6065 192.794 15.3378 191.659 14.0603C190.525 12.7916 189.425 11.4875 188.334 10.1745C187.253 8.86145 186.171 7.53955 185.125 6.19104C184.078 4.84253 183.032 3.49403 182.048 2.09229Z" fill="#CAEAE9"/>
<path d="M211.149 64.5156C212.559 65.9881 213.916 67.505 215.281 69.013L219.351 73.5547L223.394 78.1141C224.742 79.6399 226.099 81.1567 227.42 82.7002C225.895 81.343 224.45 79.9149 223.022 78.4601C221.594 77.0053 220.229 75.4973 218.855 73.9893C217.525 72.4459 216.186 70.9201 214.9 69.3323C213.605 67.7711 212.346 66.1655 211.149 64.5156Z" fill="#CAEAE9"/>
<path d="M194.249 43.8914C195.561 45.2752 196.811 46.7033 198.062 48.1493C199.312 49.5863 200.509 51.0588 201.732 52.5136C202.921 54.0039 204.127 55.4764 205.288 56.9755C206.45 58.4835 207.602 59.9915 208.702 61.5527C207.39 60.1689 206.139 58.7408 204.889 57.2948C203.648 55.8578 202.442 54.3853 201.218 52.9305C200.039 51.4402 198.824 49.9677 197.662 48.4686C196.501 46.9606 195.348 45.4437 194.249 43.8914Z" fill="#CAEAE9"/>
<path d="M174.44 19.8613C176.045 21.6 177.597 23.3918 179.148 25.1837C180.691 26.9755 182.19 28.8117 183.715 30.6213C185.196 32.4664 186.703 34.2938 188.166 36.1566C189.629 38.0194 191.083 39.8911 192.475 41.8071C190.862 40.0685 189.31 38.2766 187.767 36.4759C186.224 34.6841 184.726 32.8479 183.201 31.0383C181.72 29.1932 180.212 27.3658 178.749 25.503C177.295 23.6491 175.841 21.7774 174.44 19.8613Z" fill="#CAEAE9"/>
<path d="M159.517 2.35962C160.696 3.53051 161.822 4.74574 162.931 5.96098C164.048 7.17622 165.13 8.42694 166.211 9.67766C167.284 10.9372 168.348 12.2057 169.377 13.5008C170.414 14.7958 171.434 16.0909 172.409 17.4392C171.23 16.2683 170.104 15.0531 168.996 13.8378C167.878 12.6226 166.797 11.3719 165.715 10.1212C164.651 8.86158 163.578 7.59312 162.549 6.29805C161.512 5.01185 160.483 3.70791 159.517 2.35962Z" fill="#CAEAE9"/>
<path d="M207.62 19.666C209.314 21.5732 210.954 23.5159 212.603 25.4497L217.524 31.2778C219.147 33.2382 220.805 35.1632 222.455 37.097L227.42 42.8984C225.567 41.142 223.802 39.3058 222.073 37.4429C220.344 35.5712 218.686 33.6463 217.019 31.7125C215.396 29.752 213.774 27.7916 212.213 25.7779C210.635 23.7732 209.092 21.7418 207.62 19.666Z" fill="#CAEAE9"/>
<path d="M193.734 2.35962C194.843 3.52163 195.889 4.72799 196.935 5.93435C197.982 7.14071 198.992 8.38255 200.003 9.62439C200.996 10.8751 201.998 12.1258 202.947 13.412C203.905 14.6893 204.862 15.9755 205.749 17.3149C204.641 16.1529 203.586 14.9466 202.548 13.7402C201.502 12.5338 200.491 11.292 199.489 10.0502C198.496 8.79945 197.503 7.54874 196.545 6.26255C195.579 4.98523 194.63 3.69903 193.734 2.35962Z" fill="#CAEAE9"/>
<path d="M228.954 45.02C231.676 48.0713 234.336 51.1758 236.987 54.2804L244.888 63.656L252.673 73.1292C255.245 76.3047 257.807 79.4891 260.316 82.7178C257.594 79.6665 254.934 76.562 252.283 73.4574L244.382 64.0818L236.606 54.6086C234.026 51.4331 231.463 48.2487 228.954 45.02Z" fill="#CAEAE9"/>
<path d="M172.134 2.16455C173.278 3.32649 174.369 4.54165 175.451 5.75681C176.541 6.97196 177.588 8.21373 178.634 9.46437C179.671 10.7239 180.7 11.9745 181.702 13.2695C182.704 14.5556 183.697 15.8506 184.628 17.1899C183.484 16.028 182.394 14.8128 181.312 13.5977C180.221 12.3825 179.175 11.1408 178.129 9.89012C177.091 8.63061 176.063 7.37998 175.061 6.08499C174.067 4.79887 173.074 3.50389 172.134 2.16455Z" fill="#CAEAE9"/>
<path d="M261.904 124.907C263.358 126.167 264.661 127.55 265.92 128.97C267.171 130.398 268.376 131.87 269.441 133.467C267.986 132.216 266.683 130.832 265.424 129.404C264.174 127.967 262.968 126.504 261.904 124.907Z" fill="#CAEAE9"/>
<path d="M244.87 104.272C246.227 105.709 247.53 107.191 248.825 108.681C250.119 110.172 251.37 111.698 252.638 113.206C253.87 114.749 255.12 116.266 256.335 117.828C257.55 119.389 258.747 120.951 259.9 122.565C258.543 121.128 257.24 119.646 255.945 118.156C254.651 116.666 253.4 115.14 252.123 113.632C250.891 112.088 249.632 110.571 248.426 109.01C247.22 107.448 246.014 105.878 244.87 104.272Z" fill="#CAEAE9"/>
<path d="M227.411 82.7185C228.812 84.2265 230.16 85.7878 231.499 87.3579C232.838 88.9192 234.132 90.5248 235.453 92.1127C236.73 93.7272 238.034 95.3239 239.284 96.965C240.543 98.5973 241.784 100.238 242.973 101.924C241.572 100.407 240.224 98.8545 238.885 97.2844C237.546 95.7142 236.251 94.1175 234.939 92.5296C233.662 90.9151 232.359 89.3184 231.109 87.6862C229.849 86.0451 228.599 84.404 227.411 82.7185Z" fill="#CAEAE9"/>
<path d="M311.062 117.527C312.454 118.84 313.696 120.277 314.893 121.749C316.081 123.23 317.225 124.747 318.209 126.388C316.808 125.075 315.575 123.639 314.378 122.166C313.19 120.676 312.055 119.168 311.062 117.527Z" fill="#CAEAE9"/>
<path d="M297.088 100.681C298.196 101.799 299.243 102.952 300.28 104.123C301.326 105.285 302.328 106.483 303.339 107.68C304.332 108.887 305.325 110.093 306.274 111.335C307.232 112.568 308.18 113.81 309.076 115.105C307.968 113.987 306.921 112.834 305.884 111.663C304.838 110.501 303.836 109.303 302.825 108.106C301.832 106.9 300.839 105.693 299.89 104.451C298.932 103.218 297.983 101.968 297.088 100.681Z" fill="#CAEAE9"/>
<path d="M279.106 78.3542C280.551 79.9332 281.934 81.5565 283.309 83.1887C284.683 84.8209 286.013 86.4796 287.37 88.1296C288.682 89.8061 290.021 91.4649 291.315 93.168C292.61 94.8623 293.896 96.5654 295.119 98.3218C293.674 96.7428 292.291 95.1284 290.916 93.4962C289.542 91.8641 288.203 90.1964 286.855 88.5553C285.543 86.8699 284.204 85.2112 282.91 83.5169C281.615 81.8049 280.329 80.1017 279.106 78.3542Z" fill="#CAEAE9"/>
<path d="M246.227 37.585C248.958 40.7607 251.645 43.9807 254.314 47.2008L262.258 56.9319L270.088 66.7606C272.677 70.0517 275.257 73.3516 277.776 76.6958C275.036 73.5201 272.358 70.3 269.689 67.08L261.744 57.3488L253.923 47.5201C251.325 44.2291 248.745 40.9292 246.227 37.585Z" fill="#CAEAE9"/>
<path d="M308.234 101.028C309.165 101.941 310.051 102.891 310.92 103.857C311.798 104.815 312.632 105.809 313.465 106.802C314.29 107.805 315.114 108.807 315.895 109.845C316.684 110.874 317.464 111.912 318.182 113.003C317.242 112.089 316.365 111.14 315.496 110.173C314.618 109.215 313.784 108.222 312.951 107.228C312.126 106.226 311.301 105.223 310.521 104.186C309.741 103.148 308.961 102.11 308.234 101.028Z" fill="#CAEAE9"/>
<path d="M290.136 78.5142C291.59 80.1108 292.982 81.7428 294.366 83.3838C295.749 85.0248 297.088 86.7012 298.453 88.3599C299.774 90.0541 301.122 91.7217 302.417 93.4336C303.72 95.1455 305.015 96.8574 306.247 98.6226C304.802 97.0348 303.401 95.3939 302.018 93.7529C300.635 92.1119 299.296 90.4266 297.93 88.7679C296.609 87.0738 295.261 85.3973 293.958 83.6854C292.663 81.9912 291.369 80.2704 290.136 78.5142Z" fill="#CAEAE9"/>
<path d="M266.94 49.6936C268.846 51.8403 270.7 54.0401 272.535 56.24C274.379 58.4399 276.171 60.6841 277.997 62.9018C279.779 65.1549 281.579 67.3902 283.335 69.6611C285.091 71.9319 286.846 74.2028 288.531 76.5269C286.625 74.3802 284.772 72.1803 282.936 69.9804C281.092 67.7805 279.301 65.5363 277.474 63.3187C275.692 61.0656 273.892 58.8302 272.136 56.5594C270.389 54.2974 268.634 52.0177 266.94 49.6936Z" fill="#CAEAE9"/>
<path d="M301.566 78.6562C303.038 80.2174 304.456 81.8141 305.866 83.4285C307.276 85.0429 308.641 86.6839 310.034 88.316C311.381 89.9748 312.756 91.6247 314.086 93.3012C315.416 94.9777 316.737 96.663 317.996 98.4016C316.524 96.8404 315.105 95.2438 313.696 93.6294C312.286 92.015 310.92 90.374 309.528 88.7418C308.18 87.0742 306.806 85.4332 305.485 83.7567C304.146 82.0802 302.825 80.3948 301.566 78.6562Z" fill="#CAEAE9"/>
<path d="M278.84 51.344C280.666 53.322 282.44 55.3533 284.195 57.3845C285.96 59.4158 287.68 61.4914 289.418 63.5404C291.12 65.6249 292.841 67.6916 294.525 69.7938C296.201 71.8961 297.877 74.0072 299.491 76.1626C297.664 74.1846 295.891 72.1533 294.126 70.122C292.362 68.0908 290.642 66.0152 288.904 63.9662C287.201 61.8817 285.481 59.815 283.796 57.7127C282.129 55.6105 280.462 53.5083 278.84 51.344Z" fill="#CAEAE9"/>
<path d="M262.161 31.2952C263.526 32.7233 264.839 34.1959 266.142 35.6773C267.445 37.1587 268.705 38.6755 269.981 40.1747C271.223 41.7093 272.482 43.2173 273.706 44.7697C274.929 46.322 276.135 47.8744 277.288 49.48C275.922 48.0518 274.61 46.5793 273.307 45.0979C272.003 43.6165 270.744 42.0996 269.467 40.6005C268.226 39.0658 266.967 37.5578 265.743 36.0055C264.528 34.4531 263.313 32.9008 262.161 31.2952Z" fill="#CAEAE9"/>
<path d="M216.168 1.44556C218.349 3.84952 220.477 6.3067 222.588 8.77276C224.707 11.2299 226.782 13.7315 228.874 16.2064L235.046 23.7465C237.076 26.2747 239.107 28.8117 241.075 31.3931C238.894 28.9891 236.766 26.5319 234.647 24.0659L228.36 16.6233C226.303 14.1129 224.228 11.6203 222.189 9.08323C220.167 6.57282 218.136 4.0358 216.168 1.44556Z" fill="#CAEAE9"/>
<path d="M226.524 1.34814L231.286 6.9011L236.003 12.4895L245.34 23.7285L254.562 35.0739L259.128 40.7777L263.642 46.5347L258.88 40.9906L254.163 35.4021L244.826 24.1543L235.604 12.8089L231.038 7.10512L226.524 1.34814Z" fill="#CAEAE9"/>
<path d="M220.122 19.7358C221.63 21.0399 222.96 22.5126 224.201 24.0651C225.416 25.6265 226.551 27.2766 227.411 29.0686C226.108 27.5605 224.902 26.0168 223.678 24.4732C222.472 22.9207 221.24 21.3859 220.122 19.7358Z" fill="#CAEAE9"/>
<path d="M204.614 2.39453L208.054 6.21785L211.53 9.99682C212.683 11.2654 213.853 12.5161 214.988 13.8024C216.123 15.0887 217.258 16.3838 218.322 17.7322C217.054 16.5612 215.84 15.3637 214.616 14.1484C213.392 12.9419 212.213 11.7 211.043 10.4404C209.89 9.17184 208.746 7.88557 207.664 6.54608C206.591 5.21545 205.545 3.84048 204.614 2.39453Z" fill="#CAEAE9"/>
<path d="M237.262 1.35718C239.417 3.45948 241.456 5.6771 243.434 7.93907C245.42 10.201 247.317 12.534 249.224 14.858L254.801 21.9455L260.316 29.0774C258.277 26.8686 256.326 24.5801 254.402 22.2649C252.478 19.9586 250.616 17.599 248.71 15.2749C246.848 12.9154 244.95 10.5913 243.052 8.26727C241.146 5.94321 239.213 3.64576 237.262 1.35718Z" fill="#CAEAE9"/>
<path d="M314.972 79.0288C315.762 79.5699 316.4 80.244 317.003 80.9447C317.588 81.6632 318.138 82.4083 318.519 83.2864C317.721 82.7453 317.092 82.0712 316.489 81.3705C315.912 80.652 315.363 79.9069 314.972 79.0288Z" fill="#CAEAE9"/>
<path d="M291.688 51.5737C293.559 53.5696 295.385 55.6098 297.194 57.6677C299.003 59.7168 300.776 61.8103 302.567 63.8771C304.323 65.9794 306.097 68.0639 307.826 70.184C309.555 72.304 311.275 74.4329 312.942 76.6062C311.062 74.6103 309.244 72.5701 307.435 70.5122C305.627 68.4631 303.853 66.3786 302.062 64.3029C300.315 62.2006 298.542 60.116 296.804 57.996C295.075 55.8759 293.355 53.747 291.688 51.5737Z" fill="#CAEAE9"/>
<path d="M249.783 0.940674L254.934 6.91055L260.024 12.9248L270.141 25.0242L280.134 37.2123L285.091 43.3508L289.985 49.5247L284.834 43.5548L279.735 37.5406L269.627 25.4411L259.634 13.2441L254.677 7.11458L249.783 0.940674Z" fill="#CAEAE9"/>
<path d="M286.917 100.539C289.374 103.28 291.768 106.066 294.162 108.86L301.264 117.295L308.251 125.829C310.557 128.694 312.862 131.559 315.097 134.477C312.641 131.736 310.246 128.951 307.852 126.157L300.75 117.721L293.763 109.188C291.457 106.323 289.161 103.458 286.917 100.539Z" fill="#CAEAE9"/>
<path d="M268.572 78.5491C270.097 80.1547 271.56 81.8135 273.014 83.4812C274.477 85.14 275.887 86.8431 277.323 88.5286C278.724 90.2406 280.143 91.9349 281.517 93.6735C282.892 95.4033 284.257 97.142 285.57 98.9338C284.045 97.3282 282.581 95.6694 281.127 94.0018C279.673 92.3341 278.254 90.6398 276.818 88.9543C275.426 87.2423 273.998 85.548 272.624 83.8094C271.249 82.0796 269.884 80.3409 268.572 78.5491Z" fill="#CAEAE9"/>
<path d="M227.411 29.0686C229.025 31.0734 230.648 33.0604 232.288 35.0386L237.209 40.9731C240.508 44.9117 243.815 48.8414 247.158 52.7445L257.098 64.5248L262.019 70.4593L266.842 76.4736L256.708 64.853L246.652 53.1703C243.345 49.2317 240.038 45.302 236.819 41.2924C235.214 39.2877 233.618 37.2651 232.04 35.2426C230.479 33.1935 228.936 31.1355 227.411 29.0686Z" fill="#CAEAE9"/>
<path d="M316.267 51.8215C316.781 51.9718 317.153 52.2722 317.499 52.608C317.827 52.9526 318.111 53.3325 318.253 53.8539C317.73 53.6948 317.357 53.4032 317.02 53.0675C316.701 52.7228 316.418 52.3429 316.267 51.8215Z" fill="#CAEAE9"/>
<path d="M294.197 25.2808C295.997 27.2323 297.753 29.2371 299.491 31.2418C301.229 33.2466 302.922 35.2957 304.642 37.3182C306.318 39.3762 308.021 41.4165 309.679 43.4922C311.337 45.5679 312.986 47.6525 314.573 49.7815C312.765 47.83 311.018 45.8252 309.28 43.8204C307.542 41.8157 305.848 39.7665 304.128 37.744C302.452 35.686 300.75 33.6458 299.092 31.5701C297.434 29.4943 295.784 27.4097 294.197 25.2808Z" fill="#CAEAE9"/>
<path d="M308.278 16.7747C309.75 18.1318 311.062 19.622 312.339 21.1388C313.598 22.6733 314.822 24.2345 315.886 25.9287C314.414 24.5716 313.101 23.0814 311.825 21.5646C310.566 20.03 309.351 18.4689 308.278 16.7747Z" fill="#CAEAE9"/>
<path d="M273.998 1.00244C275.355 2.42174 276.658 3.88539 277.953 5.36678C279.248 6.8393 280.498 8.3473 281.775 9.83756C283.007 11.3633 284.266 12.8713 285.481 14.4059C286.696 15.9494 287.902 17.4929 289.046 19.0896C287.689 17.6703 286.385 16.2067 285.082 14.7253C283.787 13.2527 282.537 11.7447 281.26 10.2545C280.028 8.72873 278.769 7.22073 277.554 5.67725C276.348 4.1515 275.142 2.59915 273.998 1.00244Z" fill="#CAEAE9"/>
<path d="M283.885 0.89624C286.323 3.56626 288.664 6.32499 290.978 9.10146C293.302 11.8779 295.554 14.6987 297.85 17.4841C300.103 20.3049 302.39 23.0991 304.678 25.9022C306.966 28.6964 309.28 31.4729 311.603 34.2405C309.067 31.6592 306.655 28.9625 304.288 26.2304C301.92 23.4983 299.633 20.6952 297.336 17.901L290.588 9.4208L283.885 0.89624Z" fill="#CAEAE9"/>
<path d="M261.585 0.60376C262.835 1.86337 264.041 3.16733 265.229 4.48016C266.426 5.78412 267.579 7.13244 268.731 8.47188C269.875 9.8202 271.019 11.1774 272.118 12.5612C273.227 13.945 274.326 15.3288 275.373 16.7747C274.122 15.515 272.925 14.2111 271.728 12.8983C270.531 11.5854 269.379 10.246 268.226 8.90654C267.082 7.54935 265.938 6.20104 264.839 4.80837C263.73 3.43344 262.631 2.04078 261.585 0.60376Z" fill="#CAEAE9"/>
<path d="M294.33 0C295.376 1.04671 296.369 2.13778 297.354 3.22884C298.338 4.31991 299.287 5.44645 300.236 6.573C301.175 7.70842 302.106 8.84383 303.002 10.0147C303.906 11.1768 304.793 12.3565 305.627 13.5718C304.58 12.5251 303.587 11.434 302.603 10.3429C301.619 9.25187 300.67 8.12533 299.721 6.99878C298.79 5.86336 297.85 4.72794 296.955 3.55705C296.05 2.39502 295.164 1.22412 294.33 0Z" fill="#CAEAE9"/>
<path d="M304.359 51.6179C305.769 53.0993 307.116 54.6251 308.464 56.1597C309.812 57.6943 311.106 59.2644 312.437 60.8079C313.722 62.3957 315.026 63.957 316.285 65.5537C317.544 67.1593 318.803 68.7649 320 70.4148C318.59 68.9334 317.234 67.4076 315.895 65.8819C314.547 64.3473 313.252 62.7772 311.922 61.2337C310.637 59.6458 309.333 58.0846 308.074 56.479C306.815 54.8823 305.565 53.2679 304.359 51.6179Z" fill="#CAEAE9"/>
<path d="M275.381 16.7747C277.758 19.4181 280.09 22.1147 282.404 24.8202L289.294 32.9721L296.059 41.2305C298.294 43.9981 300.519 46.7746 302.692 49.6042C300.306 46.9608 297.983 44.2642 295.669 41.5587L288.788 33.3979L282.023 25.1395C279.771 22.3719 277.545 19.5955 275.381 16.7747Z" fill="#CAEAE9"/>
<path d="M306.327 0.336914C307.391 1.40141 308.393 2.51025 309.386 3.61909C310.388 4.72794 311.346 5.87227 312.303 7.01659C313.252 8.16979 314.201 9.32299 315.105 10.5117C316.019 11.6915 316.923 12.8802 317.765 14.1221C316.71 13.0665 315.708 11.9576 314.706 10.8399C313.704 9.73104 312.747 8.58672 311.789 7.44239C310.84 6.28919 309.892 5.13599 308.987 3.94731C308.083 2.75863 307.178 1.56995 306.327 0.336914Z" fill="#CAEAE9"/>
</g>
<path d="M285.372 39.9487C206.492 39.9607 115.436 39.9607 34.605 39.9727C34.5085 39.6606 34.4121 39.3485 34.3379 39.0305C114.338 38.9945 205.037 39.0065 283.294 39.0065C284.897 39.0065 286.492 38.9885 288.087 39.0125C289.193 39.0305 290.536 38.8925 291.381 39.4326C290.179 40.2487 287.442 39.9427 285.372 39.9487Z" fill="white"/>
<path d="M46.3581 47.1675C50.4219 47.1675 53.7162 43.7976 53.7162 39.6406C53.7162 35.4837 50.4219 32.1138 46.3581 32.1138C42.2943 32.1138 39 35.4837 39 39.6406C39 43.7976 42.2943 47.1675 46.3581 47.1675Z" fill="#00EEF4"/>
<path d="M66.3581 47.1675C70.4219 47.1675 73.7162 43.7976 73.7162 39.6406C73.7162 35.4837 70.4219 32.1138 66.3581 32.1138C62.2943 32.1138 59 35.4837 59 39.6406C59 43.7976 62.2943 47.1675 66.3581 47.1675Z" fill="#95EDF0"/>
<path d="M85.3581 47.1675C89.4219 47.1675 92.7162 43.7976 92.7162 39.6406C92.7162 35.4837 89.4219 32.1138 85.3581 32.1138C81.2943 32.1138 78 35.4837 78 39.6406C78 43.7976 81.2943 47.1675 85.3581 47.1675Z" fill="#95EDF0"/>
<path d="M105.466 46.1643C109.53 46.1643 112.824 42.7945 112.824 38.6376C112.824 34.4807 109.53 31.1108 105.466 31.1108C101.402 31.1108 98.1082 34.4807 98.1082 38.6376C98.1082 42.7945 101.402 46.1643 105.466 46.1643Z" fill="#CAEAE9"/>
<path d="M256.358 47.1675C260.422 47.1675 263.716 43.7976 263.716 39.6406C263.716 35.4837 260.422 32.1138 256.358 32.1138C252.294 32.1138 249 35.4837 249 39.6406C249 43.7976 252.294 47.1675 256.358 47.1675Z" fill="#95EDF0"/>
<path d="M277.358 47.1675C281.422 47.1675 284.716 43.7976 284.716 39.6406C284.716 35.4837 281.422 32.1138 277.358 32.1138C273.294 32.1138 270 35.4837 270 39.6406C270 43.7976 273.294 47.1675 277.358 47.1675Z" fill="#00EEF4"/>
<path d="M286.33 59.1508C207.149 59.1627 115.746 59.1627 34.606 59.1747C34.5092 58.864 34.4124 58.5533 34.3379 58.2367C114.644 58.2008 205.689 58.2128 284.245 58.2128C285.853 58.2128 287.455 58.1948 289.056 58.2187C290.165 58.2367 291.513 58.0992 292.362 58.637C291.156 59.4555 288.415 59.1508 286.33 59.1508Z" fill="white"/>
<path d="M46.3581 66.2349C50.4219 66.2349 53.7162 62.8653 53.7162 58.7086C53.7162 54.552 50.4219 51.1824 46.3581 51.1824C42.2943 51.1824 39 54.552 39 58.7086C39 62.8653 42.2943 66.2349 46.3581 66.2349Z" fill="#00EEF4"/>
<path d="M66.3581 66.2349C70.4219 66.2349 73.7162 62.8653 73.7162 58.7086C73.7162 54.552 70.4219 51.1824 66.3581 51.1824C62.2943 51.1824 59 54.552 59 58.7086C59 62.8653 62.2943 66.2349 66.3581 66.2349Z" fill="#95EDF0"/>
<path d="M85.3581 66.2349C89.4219 66.2349 92.7162 62.8653 92.7162 58.7086C92.7162 54.552 89.4219 51.1824 85.3581 51.1824C81.2943 51.1824 78 54.552 78 58.7086C78 62.8653 81.2943 66.2349 85.3581 66.2349Z" fill="#95EDF0"/>
<path d="M235.95 66.2349C240.014 66.2349 243.308 62.8653 243.308 58.7086C243.308 54.552 240.014 51.1824 235.95 51.1824C231.886 51.1824 228.592 54.552 228.592 58.7086C228.592 62.8653 231.886 66.2349 235.95 66.2349Z" fill="#CAEAE9"/>
<path d="M256.358 66.2349C260.422 66.2349 263.716 62.8653 263.716 58.7086C263.716 54.552 260.422 51.1824 256.358 51.1824C252.294 51.1824 249 54.552 249 58.7086C249 62.8653 252.294 66.2349 256.358 66.2349Z" fill="#95EDF0"/>
<path d="M277.358 66.2349C281.422 66.2349 284.716 62.8653 284.716 58.7086C284.716 54.552 281.422 51.1824 277.358 51.1824C273.294 51.1824 270 54.552 270 58.7086C270 62.8653 273.294 66.2349 277.358 66.2349Z" fill="#00EEF4"/>
<path d="M286.314 77.218C206.83 77.23 115.077 77.23 33.6259 77.2419C33.5288 76.9307 33.4316 76.6194 33.3568 76.3021C113.963 76.2722 205.357 76.2782 284.214 76.2782C285.828 76.2782 287.436 76.2602 289.043 76.2842C290.157 76.3021 291.51 76.1645 292.362 76.7032C291.159 77.5173 288.4 77.218 286.314 77.218Z" fill="white"/>
<path d="M46.3581 85.304C50.4219 85.304 53.7162 81.9339 53.7162 77.7767C53.7162 73.6196 50.4219 70.2495 46.3581 70.2495C42.2943 70.2495 39 73.6196 39 77.7767C39 81.9339 42.2943 85.304 46.3581 85.304Z" fill="#00EEF4"/>
<path d="M66.3581 85.304C70.4219 85.304 73.7162 81.9339 73.7162 77.7767C73.7162 73.6196 70.4219 70.2495 66.3581 70.2495C62.2943 70.2495 59 73.6196 59 77.7767C59 81.9339 62.2943 85.304 66.3581 85.304Z" fill="#95EDF0"/>
<path d="M256.358 85.304C260.422 85.304 263.716 81.9339 263.716 77.7767C263.716 73.6196 260.422 70.2495 256.358 70.2495C252.294 70.2495 249 73.6196 249 77.7767C249 81.9339 252.294 85.304 256.358 85.304Z" fill="#95EDF0"/>
<path d="M277.358 85.304C281.422 85.304 284.716 81.9339 284.716 77.7767C284.716 73.6196 281.422 70.2495 277.358 70.2495C273.294 70.2495 270 73.6196 270 77.7767C270 81.9339 273.294 85.304 277.358 85.304Z" fill="#00EEF4"/>
<path d="M285.372 96.2839C206.492 96.2958 115.436 96.2958 34.605 96.3078C34.5085 95.9971 34.4121 95.6864 34.3379 95.3697C114.338 95.3339 205.037 95.3458 283.294 95.3458C284.897 95.3458 286.492 95.3279 288.087 95.3518C289.193 95.3697 290.536 95.2323 291.381 95.77C290.179 96.5886 287.449 96.2839 285.372 96.2839Z" fill="white"/>
<path d="M46.3581 105.375C50.4219 105.375 53.7162 102.005 53.7162 97.848C53.7162 93.6911 50.4219 90.3213 46.3581 90.3213C42.2943 90.3213 39 93.6911 39 97.848C39 102.005 42.2943 105.375 46.3581 105.375Z" fill="#00EEF4"/>
<path d="M66.3581 105.375C70.4219 105.375 73.7162 102.005 73.7162 97.848C73.7162 93.6911 70.4219 90.3213 66.3581 90.3213C62.2943 90.3213 59 93.6911 59 97.848C59 102.005 62.2943 105.375 66.3581 105.375Z" fill="#95EDF0"/>
<path d="M85.3581 105.375C89.4219 105.375 92.7162 102.005 92.7162 97.848C92.7162 93.6911 89.4219 90.3213 85.3581 90.3213C81.2943 90.3213 78 93.6911 78 97.848C78 102.005 81.2943 105.375 85.3581 105.375Z" fill="#95EDF0"/>
<path d="M236.441 105.375C240.775 105.375 244.289 102.005 244.289 97.848C244.289 93.6911 240.775 90.3213 236.441 90.3213C232.106 90.3213 228.592 93.6911 228.592 97.848C228.592 102.005 232.106 105.375 236.441 105.375Z" fill="#CAEAE9"/>
<path d="M256.358 105.375C260.422 105.375 263.716 102.005 263.716 97.848C263.716 93.6911 260.422 90.3213 256.358 90.3213C252.294 90.3213 249 93.6911 249 97.848C249 102.005 252.294 105.375 256.358 105.375Z" fill="#95EDF0"/>
<path d="M276.849 105.375C281.183 105.375 284.697 102.005 284.697 97.848C284.697 93.6911 281.183 90.3213 276.849 90.3213C272.514 90.3213 269 93.6911 269 97.848C269 102.005 272.514 105.375 276.849 105.375Z" fill="#00EEF4"/>
<path d="M118.887 42.4122C120.364 42.4234 121.571 41.2254 121.583 39.7365C121.594 38.2475 120.405 37.0314 118.928 37.0202C117.45 37.0091 116.243 38.207 116.232 39.696C116.22 41.1849 117.409 42.401 118.887 42.4122Z" fill="white"/>
<path d="M100.676 61.4122C102.153 61.4234 103.36 60.2254 103.371 58.7365C103.383 57.2475 102.194 56.0314 100.716 56.0202C99.2386 56.0091 98.0316 57.207 98.0204 58.696C98.0091 60.1849 99.1979 61.401 100.676 61.4122Z" fill="white"/>
<path d="M80.6755 79.4122C82.1532 79.4234 83.3602 78.2254 83.3714 76.7365C83.3827 75.2475 82.194 74.0314 80.7163 74.0202C79.2386 74.0091 78.0316 75.207 78.0204 76.696C78.0091 78.1849 79.1979 79.401 80.6755 79.4122Z" fill="white"/>
<path d="M100.676 98.4122C102.153 98.4234 103.36 97.2254 103.371 95.7365C103.383 94.2475 102.194 93.0314 100.716 93.0202C99.2386 93.0091 98.0316 94.207 98.0204 95.696C98.0091 97.1849 99.1979 98.401 100.676 98.4122Z" fill="white"/>
<path d="M241.675 42.4146C243.153 42.4271 244.361 41.2303 244.374 39.7413C244.386 38.2524 243.199 37.0352 241.721 37.0227C240.243 37.0102 239.035 38.207 239.023 39.696C239.01 41.1849 240.198 42.4021 241.675 42.4146Z" fill="white"/>
<path d="M290.641 41.3212C291.548 41.3289 292.289 40.5948 292.296 39.6815C292.304 38.7682 291.576 38.0216 290.669 38.0139C289.763 38.0062 289.022 38.7404 289.014 39.6537C289.006 40.567 289.735 41.3136 290.641 41.3212Z" fill="white"/>
<path d="M290.641 60.3212C291.548 60.3289 292.289 59.5948 292.296 58.6815C292.304 57.7682 291.576 57.0216 290.669 57.0139C289.763 57.0062 289.022 57.7404 289.014 58.6537C289.006 59.567 289.735 60.3136 290.641 60.3212Z" fill="white"/>
<path d="M290.641 78.3212C291.548 78.3289 292.289 77.5948 292.296 76.6815C292.304 75.7682 291.576 75.0216 290.669 75.0139C289.763 75.0062 289.022 75.7404 289.014 76.6537C289.006 77.567 289.735 78.3136 290.641 78.3212Z" fill="white"/>
<path d="M33.6411 78.3212C34.5475 78.3289 35.2885 77.5948 35.2962 76.6815C35.304 75.7682 34.5755 75.0216 33.6691 75.0139C32.7628 75.0062 32.0217 75.7404 32.014 76.6537C32.0063 77.567 32.7347 78.3136 33.6411 78.3212Z" fill="white"/>
<path d="M33.6411 60.3212C34.5475 60.3289 35.2885 59.5948 35.2962 58.6815C35.304 57.7682 34.5755 57.0216 33.6691 57.0139C32.7628 57.0062 32.0217 57.7404 32.014 58.6537C32.0063 59.567 32.7347 60.3136 33.6411 60.3212Z" fill="white"/>
<path d="M33.6411 41.3212C34.5475 41.3289 35.2885 40.5948 35.2962 39.6815C35.304 38.7682 34.5755 38.0216 33.6691 38.0139C32.7628 38.0062 32.0217 38.7404 32.014 39.6537C32.0063 40.567 32.7347 41.3136 33.6411 41.3212Z" fill="white"/>
<path d="M33.6411 97.3212C34.5475 97.3289 35.2885 96.5948 35.2962 95.6815C35.304 94.7682 34.5755 94.0216 33.6691 94.0139C32.7628 94.0062 32.0217 94.7404 32.014 95.6537C32.0063 96.567 32.7347 97.3136 33.6411 97.3212Z" fill="white"/>
<path d="M290.641 97.3212C291.548 97.3289 292.289 96.5948 292.296 95.6815C292.304 94.7682 291.576 94.0216 290.669 94.0139C289.763 94.0062 289.022 94.7404 289.014 95.6537C289.006 96.567 289.735 97.3136 290.641 97.3212Z" fill="white"/>
<path d="M221.676 61.4146C223.153 61.4271 224.361 60.2303 224.374 58.7413C224.386 57.2524 223.199 56.0352 221.721 56.0227C220.244 56.0102 219.035 57.207 219.023 58.696C219.01 60.1849 220.198 61.4021 221.676 61.4146Z" fill="white"/>
<path d="M242.676 79.4146C244.153 79.4271 245.361 78.2303 245.374 76.7413C245.386 75.2524 244.199 74.0352 242.721 74.0227C241.244 74.0102 240.035 75.207 240.023 76.696C240.01 78.1849 241.198 79.4021 242.676 79.4146Z" fill="white"/>
<path d="M223.676 98.4146C225.153 98.4271 226.361 97.2303 226.374 95.7413C226.386 94.2524 225.199 93.0352 223.721 93.0227C222.244 93.0102 221.035 94.207 221.023 95.696C221.01 97.1849 222.198 98.4021 223.676 98.4146Z" fill="white"/>
</svg>
