<svg width="538" height="354" viewBox="0 0 538 354" fill="none" xmlns="http://www.w3.org/2000/svg">
<g opacity="0.5">
<path opacity="0.2" d="M79 49L79 266" stroke="white"/>
<path opacity="0.2" d="M210 49L210 266" stroke="white"/>
<path opacity="0.2" d="M340 49L340 354" stroke="white"/>
<path opacity="0.2" d="M471 49L471 307" stroke="white"/>
<path opacity="0.2" d="M14 237.233L511 237.233" stroke="white"/>
<path opacity="0.2" d="M13 155.609L537.5 155.609" stroke="white"/>
<path opacity="0.2" d="M0 69.6089L499.5 69.6089" stroke="white"/>
</g>
<g opacity="0.8">
<path opacity="0.2" d="M291.641 53.6742C291.852 52.4991 291.465 51.386 291.574 50.1591C292.42 51.065 292.905 52.116 293.69 52.9805C294.371 52.0331 295.037 51.1064 295.703 50.1798C295.677 51.3446 295.683 52.4421 295.683 53.6173C296.849 53.4257 297.861 52.9236 299.105 52.6492C298.341 53.6225 297.644 54.5025 296.906 55.4396C298.011 55.921 299.126 56.1385 300.267 56.5578C299.188 57.0548 298.068 57.2463 296.937 57.6967C297.489 58.6648 298.331 59.3896 298.997 60.4146C297.804 60.3163 296.854 59.7261 295.683 59.5397C295.683 60.6942 295.688 61.8331 295.848 63.1119C294.97 62.1852 294.475 61.1498 293.7 60.2386C292.88 61.0566 292.389 62.1179 291.579 63.0756C291.434 61.8383 291.827 60.7097 291.646 59.4931C290.531 59.8452 289.452 60.1817 288.167 60.5855C288.998 59.5449 289.7 58.67 290.443 57.733C289.359 57.236 288.223 57.0444 287 56.5733C288.27 56.1747 289.333 55.8382 290.474 55.4758C289.71 54.5077 289.013 53.6276 288.198 52.5974C289.473 53.0012 290.536 53.3325 291.641 53.6742Z" fill="white"/>
<path opacity="0.2" d="M310.501 53.6742C310.713 52.4991 310.326 51.386 310.434 50.1591C311.281 51.065 311.766 52.116 312.551 52.9805C313.232 52.0331 313.898 51.1064 314.564 50.1798C314.538 51.3446 314.543 52.4421 314.543 53.6173C315.71 53.4257 316.722 52.9236 317.966 52.6492C317.202 53.6225 316.505 54.5025 315.767 55.4396C316.871 55.921 317.986 56.1385 319.127 56.5578C318.048 57.0548 316.928 57.2463 315.798 57.6967C316.35 58.6648 317.191 59.3896 317.857 60.4146C316.665 60.3163 315.715 59.7261 314.543 59.5397C314.543 60.6942 314.548 61.8331 314.708 63.1119C313.831 62.1852 313.335 61.1498 312.561 60.2386C311.74 61.0566 311.25 62.1179 310.439 63.0756C310.295 61.8383 310.687 60.7097 310.506 59.4931C309.391 59.8452 308.313 60.1817 307.027 60.5855C307.858 59.5449 308.56 58.67 309.304 57.733C308.22 57.236 307.084 57.0444 305.861 56.5733C307.13 56.1747 308.194 55.8382 309.335 55.4758C308.571 54.5077 307.874 53.6276 307.058 52.5974C308.333 53.0012 309.397 53.3325 310.501 53.6742Z" fill="white"/>
<path opacity="0.2" d="M329.362 53.6742C329.574 52.4991 329.187 51.386 329.295 50.1591C330.142 51.065 330.627 52.116 331.411 52.9805C332.093 52.0331 332.759 51.1064 333.425 50.1798C333.399 51.3446 333.404 52.4421 333.404 53.6173C334.571 53.4257 335.582 52.9236 336.826 52.6492C336.062 53.6225 335.366 54.5025 334.627 55.4396C335.732 55.921 336.847 56.1385 337.988 56.5578C336.909 57.0548 335.789 57.2463 334.658 57.6967C335.211 58.6648 336.052 59.3896 336.718 60.4146C335.526 60.3163 334.576 59.7261 333.404 59.5397C333.404 60.6942 333.409 61.8331 333.569 63.1119C332.692 62.1852 332.196 61.1498 331.422 60.2386C330.601 61.0566 330.111 62.1179 329.3 63.0756C329.156 61.8383 329.548 60.7097 329.367 59.4931C328.252 59.8452 327.173 60.1817 325.888 60.5855C326.719 59.5449 327.421 58.67 328.164 57.733C327.08 57.236 325.945 57.0444 324.721 56.5733C325.991 56.1747 327.055 55.8382 328.195 55.4758C327.431 54.5077 326.735 53.6276 325.919 52.5974C327.194 53.0012 328.257 53.3325 329.362 53.6742Z" fill="white"/>
<path opacity="0.1" d="M338.792 19.6039C339.004 18.4287 338.617 17.3156 338.725 16.0887C339.572 16.9947 340.057 18.0456 340.842 18.9102C341.523 17.9628 342.189 17.0361 342.855 16.1094C342.829 17.2742 342.834 18.3718 342.834 19.547C344.001 19.3554 345.013 18.8532 346.257 18.5788C345.493 19.5521 344.796 20.4322 344.058 21.3693C345.162 21.8507 346.277 22.0682 347.418 22.4875C346.339 22.9845 345.219 23.1761 344.089 23.6265C344.641 24.5946 345.482 25.3194 346.148 26.3444C344.956 26.2461 344.006 25.6559 342.834 25.4695C342.834 26.624 342.839 27.7629 342.999 29.0417C342.122 28.115 341.626 27.0796 340.852 26.1684C340.031 26.9864 339.541 28.0477 338.73 29.0054C338.586 27.7681 338.978 26.6395 338.797 25.4229C337.682 25.7749 336.604 26.1115 335.318 26.5153C336.149 25.4747 336.851 24.5998 337.595 23.6627C336.511 23.1657 335.375 22.9742 334.152 22.5031C335.421 22.1044 336.485 21.7679 337.626 21.4055C336.862 20.4374 336.165 19.5573 335.349 18.5271C336.624 18.9309 337.688 19.2622 338.792 19.6039Z" fill="white"/>
<path opacity="0.2" d="M338.792 3.51519C339.004 2.34001 338.617 1.22695 338.725 0C339.572 0.905977 340.057 1.95691 340.842 2.82147C341.523 1.87408 342.189 0.947393 342.855 0.020708C342.829 1.18554 342.834 2.28306 342.834 3.45825C344.001 3.2667 345.013 2.76453 346.257 2.49014C345.493 3.46342 344.796 4.34351 344.058 5.28055C345.162 5.76202 346.277 5.97945 347.418 6.39879C346.339 6.89578 345.219 7.08733 344.089 7.53773C344.641 8.50583 345.482 9.23062 346.148 10.2557C344.956 10.1573 344.006 9.56712 342.834 9.38075C342.834 10.5352 342.839 11.6742 342.999 12.9529C342.122 12.0262 341.626 10.9908 340.852 10.0796C340.031 10.8976 339.541 11.9589 338.73 12.9166C338.586 11.6793 338.978 10.5508 338.797 9.33416C337.682 9.68619 336.604 10.0227 335.318 10.4265C336.149 9.38593 336.851 8.51101 337.595 7.57397C336.511 7.07698 335.375 6.88543 334.152 6.41432C335.421 6.01569 336.485 5.67918 337.626 5.31679C336.862 4.34869 336.165 3.4686 335.349 2.43837C336.624 2.84218 337.688 3.17351 338.792 3.51519Z" fill="white"/>
<path opacity="0.1" d="M357.653 19.6039C357.865 18.4287 357.477 17.3156 357.586 16.0887C358.432 16.9947 358.918 18.0456 359.702 18.9102C360.384 17.9628 361.05 17.0361 361.715 16.1094C361.69 17.2742 361.695 18.3718 361.695 19.547C362.861 19.3554 363.873 18.8532 365.117 18.5788C364.353 19.5521 363.656 20.4322 362.918 21.3693C364.023 21.8507 365.138 22.0682 366.279 22.4875C365.2 22.9845 364.08 23.1761 362.949 23.6265C363.502 24.5946 364.343 25.3194 365.009 26.3444C363.816 26.2461 362.867 25.6559 361.695 25.4695C361.695 26.624 361.7 27.7629 361.86 29.0417C360.982 28.115 360.487 27.0796 359.713 26.1684C358.892 26.9864 358.401 28.0477 357.591 29.0054C357.446 27.7681 357.839 26.6395 357.658 25.4229C356.543 25.7749 355.464 26.1115 354.179 26.5153C355.01 25.4747 355.712 24.5998 356.455 23.6627C355.371 23.1657 354.236 22.9742 353.012 22.5031C354.282 22.1044 355.345 21.7679 356.486 21.4055C355.722 20.4374 355.025 19.5573 354.21 18.5271C355.485 18.9309 356.548 19.2622 357.653 19.6039Z" fill="white"/>
<path opacity="0.2" d="M357.653 3.51519C357.865 2.34001 357.477 1.22695 357.586 0C358.432 0.905977 358.918 1.95691 359.702 2.82147C360.384 1.87408 361.05 0.947393 361.715 0.020708C361.69 1.18554 361.695 2.28306 361.695 3.45825C362.861 3.2667 363.873 2.76453 365.117 2.49014C364.353 3.46342 363.656 4.34351 362.918 5.28055C364.023 5.76202 365.138 5.97945 366.279 6.39879C365.2 6.89578 364.08 7.08733 362.949 7.53773C363.502 8.50583 364.343 9.23062 365.009 10.2557C363.816 10.1573 362.867 9.56712 361.695 9.38075C361.695 10.5352 361.7 11.6742 361.86 12.9529C360.982 12.0262 360.487 10.9908 359.713 10.0796C358.892 10.8976 358.401 11.9589 357.591 12.9166C357.446 11.6793 357.839 10.5508 357.658 9.33416C356.543 9.68619 355.464 10.0227 354.179 10.4265C355.01 9.38593 355.712 8.51101 356.455 7.57397C355.371 7.07698 354.236 6.88543 353.012 6.41432C354.282 6.01569 355.345 5.67918 356.486 5.31679C355.722 4.34869 355.025 3.4686 354.21 2.43837C355.485 2.84218 356.548 3.17351 357.653 3.51519Z" fill="white"/>
<path opacity="0.1" d="M376.514 19.6039C376.725 18.4287 376.338 17.3156 376.446 16.0887C377.293 16.9947 377.778 18.0456 378.563 18.9102C379.244 17.9628 379.91 17.0361 380.576 16.1094C380.55 17.2742 380.555 18.3718 380.555 19.547C381.722 19.3554 382.734 18.8532 383.978 18.5788C383.214 19.5521 382.517 20.4322 381.779 21.3693C382.884 21.8507 383.999 22.0682 385.139 22.4875C384.06 22.9845 382.94 23.1761 381.81 23.6265C382.362 24.5946 383.204 25.3194 383.869 26.3444C382.677 26.2461 381.727 25.6559 380.555 25.4695C380.555 26.624 380.561 27.7629 380.721 29.0417C379.843 28.115 379.348 27.0796 378.573 26.1684C377.752 26.9864 377.262 28.0477 376.452 29.0054C376.307 27.7681 376.699 26.6395 376.519 25.4229C375.404 25.7749 374.325 26.1115 373.039 26.5153C373.871 25.4747 374.573 24.5998 375.316 23.6627C374.232 23.1657 373.096 22.9742 371.873 22.5031C373.143 22.1044 374.206 21.7679 375.347 21.4055C374.583 20.4374 373.886 19.5573 373.07 18.5271C374.345 18.9309 375.409 19.2622 376.514 19.6039Z" fill="white"/>
<path opacity="0.2" d="M376.514 3.51519C376.725 2.34001 376.338 1.22695 376.446 0C377.293 0.905977 377.778 1.95691 378.563 2.82147C379.244 1.87408 379.91 0.947393 380.576 0.020708C380.55 1.18554 380.555 2.28306 380.555 3.45825C381.722 3.2667 382.734 2.76453 383.978 2.49014C383.214 3.46342 382.517 4.34351 381.779 5.28055C382.884 5.76202 383.999 5.97945 385.139 6.39879C384.06 6.89578 382.94 7.08733 381.81 7.53773C382.362 8.50583 383.204 9.23062 383.869 10.2557C382.677 10.1573 381.727 9.56712 380.555 9.38075C380.555 10.5352 380.561 11.6742 380.721 12.9529C379.843 12.0262 379.348 10.9908 378.573 10.0796C377.752 10.8976 377.262 11.9589 376.452 12.9166C376.307 11.6793 376.699 10.5508 376.519 9.33416C375.404 9.68619 374.325 10.0227 373.039 10.4265C373.871 9.38593 374.573 8.51101 375.316 7.57397C374.232 7.07698 373.096 6.88543 371.873 6.41432C373.143 6.01569 374.206 5.67918 375.347 5.31679C374.583 4.34869 373.886 3.4686 373.07 2.43837C374.345 2.84218 375.409 3.17351 376.514 3.51519Z" fill="white"/>
<path opacity="0.1" d="M395.374 19.6039C395.586 18.4287 395.199 17.3156 395.307 16.0887C396.154 16.9947 396.639 18.0456 397.423 18.9102C398.105 17.9628 398.771 17.0361 399.437 16.1094C399.411 17.2742 399.416 18.3718 399.416 19.547C400.583 19.3554 401.594 18.8532 402.838 18.5788C402.075 19.5521 401.378 20.4322 400.639 21.3693C401.744 21.8507 402.859 22.0682 404 22.4875C402.921 22.9845 401.801 23.1761 400.67 23.6265C401.223 24.5946 402.064 25.3194 402.73 26.3444C401.538 26.2461 400.588 25.6559 399.416 25.4695C399.416 26.624 399.421 27.7629 399.581 29.0417C398.704 28.115 398.208 27.0796 397.434 26.1684C396.613 26.9864 396.123 28.0477 395.312 29.0054C395.168 27.7681 395.56 26.6395 395.379 25.4229C394.264 25.7749 393.185 26.1115 391.9 26.5153C392.731 25.4747 393.433 24.5998 394.177 23.6627C393.092 23.1657 391.957 22.9742 390.733 22.5031C392.003 22.1044 393.067 21.7679 394.207 21.4055C393.443 20.4374 392.747 19.5573 391.931 18.5271C393.206 18.9309 394.269 19.2622 395.374 19.6039Z" fill="white"/>
</g>
</svg>
