<svg width="659" height="25" viewBox="0 0 659 25" fill="none" xmlns="http://www.w3.org/2000/svg">
<path d="M395.5 13L659 13" stroke="white"/>
<path d="M0 13L241 13" stroke="white"/>
<path d="M271.924 16.09C271.366 16.09 270.898 16.009 270.52 15.847C270.148 15.679 269.863 15.463 269.665 15.199C269.473 14.929 269.371 14.647 269.359 14.353C269.359 14.299 269.377 14.254 269.413 14.218C269.449 14.182 269.494 14.164 269.548 14.164H270.349C270.427 14.164 270.484 14.182 270.52 14.218C270.562 14.248 270.598 14.287 270.628 14.335C270.664 14.449 270.733 14.563 270.835 14.677C270.937 14.785 271.075 14.875 271.249 14.947C271.429 15.019 271.654 15.055 271.924 15.055C272.356 15.055 272.677 14.983 272.887 14.839C273.103 14.695 273.211 14.5 273.211 14.254C273.211 14.08 273.154 13.942 273.04 13.84C272.926 13.732 272.749 13.636 272.509 13.552C272.275 13.462 271.963 13.369 271.573 13.273C271.123 13.165 270.745 13.036 270.439 12.886C270.139 12.73 269.911 12.535 269.755 12.301C269.605 12.067 269.53 11.77 269.53 11.41C269.53 11.062 269.623 10.753 269.809 10.483C270.001 10.213 270.271 10 270.619 9.844C270.973 9.688 271.393 9.61 271.879 9.61C272.269 9.61 272.614 9.664 272.914 9.772C273.214 9.874 273.463 10.012 273.661 10.186C273.859 10.354 274.009 10.537 274.111 10.735C274.219 10.927 274.276 11.116 274.282 11.302C274.282 11.35 274.264 11.395 274.228 11.437C274.198 11.473 274.153 11.491 274.093 11.491H273.256C273.208 11.491 273.16 11.479 273.112 11.455C273.064 11.431 273.025 11.386 272.995 11.32C272.959 11.134 272.842 10.975 272.644 10.843C272.446 10.711 272.191 10.645 271.879 10.645C271.555 10.645 271.294 10.705 271.096 10.825C270.898 10.945 270.799 11.131 270.799 11.383C270.799 11.551 270.847 11.692 270.943 11.806C271.045 11.914 271.204 12.01 271.42 12.094C271.642 12.178 271.933 12.268 272.293 12.364C272.803 12.478 273.22 12.61 273.544 12.76C273.868 12.91 274.105 13.102 274.255 13.336C274.405 13.564 274.48 13.855 274.48 14.209C274.48 14.605 274.372 14.944 274.156 15.226C273.946 15.502 273.649 15.715 273.265 15.865C272.881 16.015 272.434 16.09 271.924 16.09ZM275.728 16C275.668 16 275.617 15.979 275.575 15.937C275.533 15.895 275.512 15.844 275.512 15.784V9.925C275.512 9.859 275.533 9.805 275.575 9.763C275.617 9.721 275.668 9.7 275.728 9.7H279.688C279.754 9.7 279.808 9.721 279.85 9.763C279.892 9.805 279.913 9.859 279.913 9.925V10.519C279.913 10.579 279.892 10.63 279.85 10.672C279.808 10.714 279.754 10.735 279.688 10.735H276.727V12.328H279.49C279.556 12.328 279.61 12.349 279.652 12.391C279.694 12.427 279.715 12.478 279.715 12.544V13.102C279.715 13.168 279.694 13.222 279.652 13.264C279.61 13.3 279.556 13.318 279.49 13.318H276.727V14.965H279.76C279.826 14.965 279.88 14.986 279.922 15.028C279.964 15.07 279.985 15.124 279.985 15.19V15.784C279.985 15.844 279.964 15.895 279.922 15.937C279.88 15.979 279.826 16 279.76 16H275.728ZM283.505 16.09C282.953 16.09 282.482 15.994 282.092 15.802C281.708 15.61 281.408 15.334 281.192 14.974C280.982 14.608 280.868 14.173 280.85 13.669C280.844 13.411 280.841 13.135 280.841 12.841C280.841 12.541 280.844 12.259 280.85 11.995C280.868 11.497 280.982 11.071 281.192 10.717C281.408 10.363 281.711 10.09 282.101 9.898C282.497 9.706 282.965 9.61 283.505 9.61C283.943 9.61 284.327 9.67 284.657 9.79C284.987 9.904 285.26 10.054 285.476 10.24C285.698 10.42 285.863 10.615 285.971 10.825C286.085 11.035 286.145 11.23 286.151 11.41C286.157 11.464 286.142 11.509 286.106 11.545C286.07 11.581 286.022 11.599 285.962 11.599H285.035C284.975 11.599 284.93 11.587 284.9 11.563C284.87 11.539 284.843 11.503 284.819 11.455C284.771 11.329 284.696 11.206 284.594 11.086C284.492 10.96 284.354 10.855 284.18 10.771C284.006 10.687 283.781 10.645 283.505 10.645C283.097 10.645 282.77 10.753 282.524 10.969C282.284 11.185 282.155 11.542 282.137 12.04C282.119 12.562 282.119 13.09 282.137 13.624C282.155 14.134 282.287 14.5 282.533 14.722C282.785 14.944 283.115 15.055 283.523 15.055C283.793 15.055 284.033 15.007 284.243 14.911C284.459 14.815 284.627 14.665 284.747 14.461C284.873 14.257 284.936 13.996 284.936 13.678V13.399H283.838C283.778 13.399 283.727 13.378 283.685 13.336C283.643 13.294 283.622 13.24 283.622 13.174V12.697C283.622 12.631 283.643 12.577 283.685 12.535C283.727 12.493 283.778 12.472 283.838 12.472H285.989C286.055 12.472 286.106 12.493 286.142 12.535C286.184 12.577 286.205 12.631 286.205 12.697V13.642C286.205 14.146 286.094 14.581 285.872 14.947C285.656 15.313 285.344 15.595 284.936 15.793C284.534 15.991 284.057 16.09 283.505 16.09ZM289.87 16.09C289.348 16.09 288.895 16.003 288.511 15.829C288.127 15.649 287.83 15.376 287.62 15.01C287.41 14.638 287.305 14.164 287.305 13.588V9.925C287.305 9.859 287.326 9.805 287.368 9.763C287.41 9.721 287.461 9.7 287.521 9.7H288.34C288.406 9.7 288.457 9.721 288.493 9.763C288.535 9.805 288.556 9.859 288.556 9.925V13.588C288.556 14.08 288.673 14.446 288.907 14.686C289.141 14.92 289.462 15.037 289.87 15.037C290.278 15.037 290.596 14.92 290.824 14.686C291.058 14.446 291.175 14.08 291.175 13.588V9.925C291.175 9.859 291.196 9.805 291.238 9.763C291.28 9.721 291.334 9.7 291.4 9.7H292.21C292.276 9.7 292.327 9.721 292.363 9.763C292.405 9.805 292.426 9.859 292.426 9.925V13.588C292.426 14.164 292.321 14.638 292.111 15.01C291.907 15.376 291.613 15.649 291.229 15.829C290.851 16.003 290.398 16.09 289.87 16.09ZM293.991 16C293.931 16 293.88 15.979 293.838 15.937C293.796 15.895 293.775 15.844 293.775 15.784V9.916C293.775 9.856 293.796 9.805 293.838 9.763C293.88 9.721 293.931 9.7 293.991 9.7H294.837C294.903 9.7 294.954 9.721 294.99 9.763C295.032 9.805 295.053 9.856 295.053 9.916V15.784C295.053 15.844 295.032 15.895 294.99 15.937C294.954 15.979 294.903 16 294.837 16H293.991ZM294.018 9.25C293.922 9.25 293.874 9.202 293.874 9.106C293.874 9.058 293.889 9.019 293.919 8.989L294.648 8.098C294.708 8.032 294.759 7.99 294.801 7.972C294.843 7.948 294.903 7.936 294.981 7.936H295.944C296.058 7.936 296.115 7.993 296.115 8.107C296.115 8.149 296.1 8.185 296.07 8.215L294.954 9.133C294.906 9.175 294.858 9.205 294.81 9.223C294.768 9.241 294.711 9.25 294.639 9.25H294.018ZM298.737 16C298.677 16 298.626 15.979 298.584 15.937C298.542 15.895 298.521 15.844 298.521 15.784V9.916C298.521 9.856 298.542 9.805 298.584 9.763C298.626 9.721 298.677 9.7 298.737 9.7H299.583C299.649 9.7 299.7 9.721 299.736 9.763C299.778 9.805 299.799 9.856 299.799 9.916V15.784C299.799 15.844 299.778 15.895 299.736 15.937C299.7 15.979 299.649 16 299.583 16H298.737ZM301.427 16C301.367 16 301.316 15.979 301.274 15.937C301.232 15.895 301.211 15.844 301.211 15.784V9.925C301.211 9.859 301.232 9.805 301.274 9.763C301.316 9.721 301.367 9.7 301.427 9.7H302.12C302.204 9.7 302.264 9.721 302.3 9.763C302.342 9.799 302.369 9.826 302.381 9.844L304.973 13.876V9.925C304.973 9.859 304.991 9.805 305.027 9.763C305.069 9.721 305.123 9.7 305.189 9.7H305.945C306.011 9.7 306.065 9.721 306.107 9.763C306.149 9.805 306.17 9.859 306.17 9.925V15.775C306.17 15.841 306.149 15.895 306.107 15.937C306.065 15.979 306.014 16 305.954 16H305.252C305.168 16 305.108 15.979 305.072 15.937C305.036 15.895 305.009 15.868 304.991 15.856L302.408 11.914V15.784C302.408 15.844 302.387 15.895 302.345 15.937C302.303 15.979 302.249 16 302.183 16H301.427ZM307.79 16C307.73 16 307.679 15.979 307.637 15.937C307.595 15.895 307.574 15.844 307.574 15.784V9.925C307.574 9.859 307.595 9.805 307.637 9.763C307.679 9.721 307.73 9.7 307.79 9.7H311.696C311.762 9.7 311.816 9.721 311.858 9.763C311.9 9.805 311.921 9.859 311.921 9.925V10.555C311.921 10.621 311.9 10.675 311.858 10.717C311.816 10.753 311.762 10.771 311.696 10.771H308.807V12.481H311.516C311.582 12.481 311.636 12.502 311.678 12.544C311.72 12.586 311.741 12.64 311.741 12.706V13.336C311.741 13.396 311.72 13.447 311.678 13.489C311.636 13.531 311.582 13.552 311.516 13.552H308.807V15.784C308.807 15.844 308.786 15.895 308.744 15.937C308.702 15.979 308.648 16 308.582 16H307.79ZM315.356 16.09C314.822 16.09 314.363 16.003 313.979 15.829C313.595 15.649 313.295 15.376 313.079 15.01C312.863 14.638 312.746 14.176 312.728 13.624C312.722 13.366 312.719 13.111 312.719 12.859C312.719 12.607 312.722 12.349 312.728 12.085C312.746 11.539 312.866 11.083 313.088 10.717C313.31 10.351 313.613 10.075 313.997 9.889C314.387 9.703 314.84 9.61 315.356 9.61C315.872 9.61 316.325 9.703 316.715 9.889C317.105 10.075 317.411 10.351 317.633 10.717C317.855 11.083 317.975 11.539 317.993 12.085C318.005 12.349 318.011 12.607 318.011 12.859C318.011 13.111 318.005 13.366 317.993 13.624C317.975 14.176 317.858 14.638 317.642 15.01C317.426 15.376 317.123 15.649 316.733 15.829C316.349 16.003 315.89 16.09 315.356 16.09ZM315.356 15.055C315.746 15.055 316.064 14.941 316.31 14.713C316.556 14.479 316.688 14.101 316.706 13.579C316.718 13.315 316.724 13.072 316.724 12.85C316.724 12.622 316.718 12.379 316.706 12.121C316.694 11.773 316.628 11.491 316.508 11.275C316.394 11.053 316.238 10.894 316.04 10.798C315.842 10.696 315.614 10.645 315.356 10.645C315.104 10.645 314.879 10.696 314.681 10.798C314.483 10.894 314.324 11.053 314.204 11.275C314.09 11.491 314.027 11.773 314.015 12.121C314.009 12.379 314.006 12.622 314.006 12.85C314.006 13.072 314.009 13.315 314.015 13.579C314.033 14.101 314.165 14.479 314.411 14.713C314.657 14.941 314.972 15.055 315.356 15.055ZM319.409 16C319.349 16 319.298 15.979 319.256 15.937C319.214 15.895 319.193 15.844 319.193 15.784V9.925C319.193 9.859 319.214 9.805 319.256 9.763C319.298 9.721 319.349 9.7 319.409 9.7H321.74C322.466 9.7 323.039 9.868 323.459 10.204C323.879 10.54 324.089 11.029 324.089 11.671C324.089 12.115 323.978 12.484 323.756 12.778C323.54 13.072 323.249 13.285 322.883 13.417L324.197 15.712C324.215 15.748 324.224 15.781 324.224 15.811C324.224 15.865 324.203 15.91 324.161 15.946C324.125 15.982 324.083 16 324.035 16H323.216C323.114 16 323.036 15.973 322.982 15.919C322.928 15.865 322.886 15.811 322.856 15.757L321.695 13.624H320.444V15.784C320.444 15.844 320.423 15.895 320.381 15.937C320.345 15.979 320.294 16 320.228 16H319.409ZM320.444 12.607H321.713C322.079 12.607 322.352 12.526 322.532 12.364C322.712 12.196 322.802 11.962 322.802 11.662C322.802 11.362 322.712 11.128 322.532 10.96C322.358 10.786 322.085 10.699 321.713 10.699H320.444V12.607ZM325.474 16C325.408 16 325.354 15.979 325.312 15.937C325.27 15.895 325.249 15.844 325.249 15.784V9.925C325.249 9.859 325.27 9.805 325.312 9.763C325.354 9.721 325.408 9.7 325.474 9.7H326.185C326.269 9.7 326.332 9.724 326.374 9.772C326.416 9.814 326.443 9.847 326.455 9.871L328.192 13.111L329.947 9.871C329.959 9.847 329.986 9.814 330.028 9.772C330.07 9.724 330.133 9.7 330.217 9.7H330.919C330.985 9.7 331.039 9.721 331.081 9.763C331.123 9.805 331.144 9.859 331.144 9.925V15.784C331.144 15.844 331.123 15.895 331.081 15.937C331.039 15.979 330.985 16 330.919 16H330.163C330.097 16 330.043 15.979 330.001 15.937C329.965 15.895 329.947 15.844 329.947 15.784V11.887L328.687 14.29C328.657 14.344 328.618 14.392 328.57 14.434C328.522 14.47 328.459 14.488 328.381 14.488H328.012C327.928 14.488 327.862 14.47 327.814 14.434C327.772 14.392 327.736 14.344 327.706 14.29L326.446 11.887V15.784C326.446 15.844 326.425 15.895 326.383 15.937C326.341 15.979 326.29 16 326.23 16H325.474ZM332.157 16C332.109 16 332.064 15.982 332.022 15.946C331.986 15.91 331.968 15.865 331.968 15.811C331.968 15.787 331.974 15.76 331.986 15.73L334.155 9.925C334.173 9.865 334.206 9.814 334.254 9.772C334.308 9.724 334.38 9.7 334.47 9.7H335.451C335.541 9.7 335.61 9.724 335.658 9.772C335.706 9.814 335.742 9.865 335.766 9.925L337.935 15.73C337.941 15.76 337.944 15.787 337.944 15.811C337.944 15.865 337.926 15.91 337.89 15.946C337.854 15.982 337.812 16 337.764 16H336.981C336.897 16 336.834 15.982 336.792 15.946C336.756 15.904 336.732 15.865 336.72 15.829L336.297 14.731H333.624L333.201 15.829C333.189 15.865 333.162 15.904 333.12 15.946C333.084 15.982 333.024 16 332.94 16H332.157ZM333.939 13.696H335.982L334.956 10.915L333.939 13.696ZM339 16C338.94 16 338.889 15.979 338.847 15.937C338.805 15.895 338.784 15.844 338.784 15.784V9.925C338.784 9.859 338.805 9.805 338.847 9.763C338.889 9.721 338.94 9.7 339 9.7H339.693C339.777 9.7 339.837 9.721 339.873 9.763C339.915 9.799 339.942 9.826 339.954 9.844L342.546 13.876V9.925C342.546 9.859 342.564 9.805 342.6 9.763C342.642 9.721 342.696 9.7 342.762 9.7H343.518C343.584 9.7 343.638 9.721 343.68 9.763C343.722 9.805 343.743 9.859 343.743 9.925V15.775C343.743 15.841 343.722 15.895 343.68 15.937C343.638 15.979 343.587 16 343.527 16H342.825C342.741 16 342.681 15.979 342.645 15.937C342.609 15.895 342.582 15.868 342.564 15.856L339.981 11.914V15.784C339.981 15.844 339.96 15.895 339.918 15.937C339.876 15.979 339.822 16 339.756 16H339ZM345.363 16C345.303 16 345.252 15.979 345.21 15.937C345.168 15.895 345.147 15.844 345.147 15.784V9.925C345.147 9.859 345.168 9.805 345.21 9.763C345.252 9.721 345.303 9.7 345.363 9.7H347.559C348.165 9.7 348.663 9.793 349.053 9.979C349.449 10.165 349.746 10.441 349.944 10.807C350.148 11.173 350.253 11.62 350.259 12.148C350.271 12.412 350.277 12.646 350.277 12.85C350.277 13.054 350.271 13.285 350.259 13.543C350.247 14.101 350.145 14.563 349.953 14.929C349.761 15.289 349.47 15.559 349.08 15.739C348.696 15.913 348.204 16 347.604 16H345.363ZM346.398 14.965H347.559C347.895 14.965 348.168 14.917 348.378 14.821C348.588 14.725 348.741 14.572 348.837 14.362C348.939 14.146 348.993 13.864 348.999 13.516C349.005 13.336 349.008 13.18 349.008 13.048C349.014 12.91 349.014 12.775 349.008 12.643C349.008 12.505 349.005 12.349 348.999 12.175C348.987 11.683 348.864 11.32 348.63 11.086C348.396 10.852 348.024 10.735 347.514 10.735H346.398V14.965ZM353.896 16.09C353.362 16.09 352.903 16.003 352.519 15.829C352.135 15.649 351.835 15.376 351.619 15.01C351.403 14.638 351.286 14.176 351.268 13.624C351.262 13.366 351.259 13.111 351.259 12.859C351.259 12.607 351.262 12.349 351.268 12.085C351.286 11.539 351.406 11.083 351.628 10.717C351.85 10.351 352.153 10.075 352.537 9.889C352.927 9.703 353.38 9.61 353.896 9.61C354.412 9.61 354.865 9.703 355.255 9.889C355.645 10.075 355.951 10.351 356.173 10.717C356.395 11.083 356.515 11.539 356.533 12.085C356.545 12.349 356.551 12.607 356.551 12.859C356.551 13.111 356.545 13.366 356.533 13.624C356.515 14.176 356.398 14.638 356.182 15.01C355.966 15.376 355.663 15.649 355.273 15.829C354.889 16.003 354.43 16.09 353.896 16.09ZM353.896 15.055C354.286 15.055 354.604 14.941 354.85 14.713C355.096 14.479 355.228 14.101 355.246 13.579C355.258 13.315 355.264 13.072 355.264 12.85C355.264 12.622 355.258 12.379 355.246 12.121C355.234 11.773 355.168 11.491 355.048 11.275C354.934 11.053 354.778 10.894 354.58 10.798C354.382 10.696 354.154 10.645 353.896 10.645C353.644 10.645 353.419 10.696 353.221 10.798C353.023 10.894 352.864 11.053 352.744 11.275C352.63 11.491 352.567 11.773 352.555 12.121C352.549 12.379 352.546 12.622 352.546 12.85C352.546 13.072 352.549 13.315 352.555 13.579C352.573 14.101 352.705 14.479 352.951 14.713C353.197 14.941 353.512 15.055 353.896 15.055ZM359.221 16C359.161 16 359.11 15.979 359.068 15.937C359.026 15.895 359.005 15.844 359.005 15.784V10.807H357.34C357.28 10.807 357.229 10.786 357.187 10.744C357.145 10.702 357.124 10.651 357.124 10.591V9.925C357.124 9.859 357.145 9.805 357.187 9.763C357.229 9.721 357.28 9.7 357.34 9.7H361.93C361.996 9.7 362.05 9.721 362.092 9.763C362.134 9.805 362.155 9.859 362.155 9.925V10.591C362.155 10.651 362.134 10.702 362.092 10.744C362.05 10.786 361.996 10.807 361.93 10.807H360.274V15.784C360.274 15.844 360.253 15.895 360.211 15.937C360.169 15.979 360.115 16 360.049 16H359.221ZM363.284 16C363.224 16 363.173 15.979 363.131 15.937C363.089 15.895 363.068 15.844 363.068 15.784V9.925C363.068 9.859 363.089 9.805 363.131 9.763C363.173 9.721 363.224 9.7 363.284 9.7H367.244C367.31 9.7 367.364 9.721 367.406 9.763C367.448 9.805 367.469 9.859 367.469 9.925V10.519C367.469 10.579 367.448 10.63 367.406 10.672C367.364 10.714 367.31 10.735 367.244 10.735H364.283V12.328H367.046C367.112 12.328 367.166 12.349 367.208 12.391C367.25 12.427 367.271 12.478 367.271 12.544V13.102C367.271 13.168 367.25 13.222 367.208 13.264C367.166 13.3 367.112 13.318 367.046 13.318H364.283V14.965H367.316C367.382 14.965 367.436 14.986 367.478 15.028C367.52 15.07 367.541 15.124 367.541 15.19V15.784C367.541 15.844 367.52 15.895 367.478 15.937C367.436 15.979 367.382 16 367.316 16H363.284Z" fill="white"/>
<path d="M262 1H375V-1H262V1ZM386 12V13H388V12H386ZM375 24H262V26H375V24ZM251 13V12H249V13H251ZM262 24C255.925 24 251 19.0751 251 13H249C249 20.1797 254.82 26 262 26V24ZM386 13C386 19.0751 381.075 24 375 24V26C382.18 26 388 20.1797 388 13H386ZM375 1C381.075 1 386 5.92487 386 12H388C388 4.8203 382.18 -1 375 -1V1ZM262 -1C254.82 -1 249 4.8203 249 12H251C251 5.92487 255.925 1 262 1V-1Z" fill="white"/>
</svg>
