<svg width="27" height="27" viewBox="0 0 27 27" fill="none" xmlns="http://www.w3.org/2000/svg">
<path d="M9.44475 7.32734C9.87549 4.8777 9.08755 2.55755 9.30817 0C11.0311 1.88849 12.0187 4.07914 13.6156 5.8813C15.0023 3.90647 16.3576 1.97482 17.7128 0.0431654C17.6603 2.47122 17.6708 4.75899 17.6708 7.20863C20.0451 6.80935 22.1043 5.76259 24.6362 5.19065C23.0813 7.21943 21.663 9.05396 20.1607 11.0072C22.4089 12.0108 24.6782 12.464 27 13.3381C24.8043 14.3741 22.5245 14.7734 20.2237 15.7122C21.3479 17.7302 23.0603 19.241 24.4156 21.3777C21.9887 21.1727 20.0556 19.9424 17.6708 19.554C17.6708 21.9604 17.6813 24.3345 18.007 27C16.221 25.0683 15.2125 22.9101 13.6366 21.0108C11.9661 22.7158 10.9681 24.9281 9.31868 26.9245C9.02451 24.3453 9.82296 21.9928 9.45525 19.4568C7.18599 20.1906 4.99027 20.8921 2.37432 21.7338C4.06576 19.5647 5.49455 17.741 7.00739 15.7878C4.80117 14.7518 2.48988 14.3525 0 13.3705C2.58444 12.5396 4.74864 11.8381 7.07043 11.0827C5.51556 9.06475 4.09728 7.23022 2.43735 5.08273C5.0323 5.92446 7.1965 6.61511 9.44475 7.32734Z" fill="#00EEF4"/>
</svg>
