<svg width="1624" height="175" viewBox="0 0 1624 175" fill="none" xmlns="http://www.w3.org/2000/svg">
<g opacity="0.2">
<path d="M208.223 2.32721C206.56 0.629751 204.83 -9.02287e-05 202.391 -9.03353e-05C140.629 0.0624451 78.8633 0.0445591 17.1017 0.0445564C12.3274 0.0445562 7.55301 0.0266956 2.77867 0.0669023C1.82828 0.0758363 0.703062 -0.330666 0.0216529 0.763752C-0.0635232 1.21492 0.111312 1.50528 0.393738 1.7331C0.501329 1.62589 0.608919 1.51868 0.71651 1.41147C1.70276 1.10325 2.72487 1.17918 3.73802 1.17918C69.9826 1.17918 136.232 1.18812 202.476 1.13452C204.485 1.13452 205.892 1.70183 207.26 3.06426C211.066 6.85228 215.051 10.475 218.848 14.272C220.22 15.6433 221.627 16.1972 223.636 16.1928C251.883 16.1347 280.13 16.1794 308.373 16.1079C310.699 16.1034 312.331 16.7467 313.945 18.3325C320.472 24.7471 327.102 31.0634 333.764 37.3485C335.015 38.5278 335.575 39.716 335.571 41.4179C335.553 49.0207 335.553 56.6191 335.544 64.2219L337.969 64.2219C338.068 64.1371 338.171 64.0567 338.283 63.9807C339.135 63.4 339.157 62.5289 339.157 61.6266C339.144 54.4169 339.13 47.2071 339.175 40.0019C339.184 38.8315 338.798 38.0007 337.938 37.1787C330.007 29.6295 322.108 22.0535 314.227 14.4551C313.38 13.6377 312.524 13.2178 311.295 13.2312C306.624 13.2848 301.948 13.2535 297.277 13.2446C296.448 13.2446 295.596 13.2267 295.054 13.9325C294.121 15.152 292.808 15.0403 291.476 15.0403C268.923 15.0314 246.373 15.0179 223.82 15.0716C222.035 15.076 220.785 14.531 219.574 13.3339C215.835 9.62628 211.908 6.08396 208.223 2.32721Z" fill="#E5E5E5"/>
</g>
<g opacity="0.3">
<path d="M1351.52 69.5316C1351.37 69.3998 1351.14 69.3278 1350.76 69.3578C1349.52 70.2568 1351.37 72.4382 1348.96 73.0795C1348.14 70.0949 1349.17 67.0925 1348.27 64.0001C1346.12 65.2166 1347.24 66.9546 1346.98 68.327C1346.69 69.8612 1347.46 71.5572 1346.3 73.2113C1344.91 71.9827 1346.08 70.4425 1345.18 69.3938C1344.3 69.1121 1343.92 69.4177 1343.83 70.2867C1343.73 71.1977 1344.25 72.2824 1343.26 73.0135C1341.48 72.2225 1343.72 69.6215 1341.15 69.3159C1340.37 70.5025 1341.24 71.8389 1340.43 72.9596C1337.8 72.7798 1340.46 69.6575 1338.21 69.2919C1336.92 70.2568 1338.75 72.4142 1336.36 73.0855C1335.56 70.089 1336.58 67.0924 1335.35 64.2218C1333.36 66.8647 1335.31 70.2687 1333.71 73.2053C1332.29 71.9827 1333.48 70.4366 1332.47 69.2979C1329.92 69.6455 1332.2 72.1386 1330.58 73.0076C1328.48 72.606 1330.71 69.7474 1328.56 69.3159C1327.52 70.4485 1328.87 72.0846 1327.36 73.0195C1325.54 72.2704 1327.38 70.1069 1325.75 69.2499C1324.1 70.071 1326.26 72.636 1323.62 73.0255C1323.06 70.089 1323.72 67.1823 1323.23 64.4016C1321.91 63.9581 1321.7 64.6054 1321.7 65.4743C1321.7 67.5359 1321.71 69.5975 1321.7 71.6531C1321.69 72.1865 1321.78 72.7978 1320.85 72.9776C1319.63 72.0247 1320.88 70.4605 1319.96 69.4297C1319.08 69.1121 1318.7 69.4237 1318.61 70.2927C1318.51 71.2037 1319.01 72.2824 1318.06 73.0255C1316.19 72.2584 1318.44 69.6275 1315.92 69.3219C1314.9 70.4066 1316.33 72.2045 1314.6 73.0435C1313.11 72.0487 1314.64 70.1908 1313.16 69.226C1311.47 70.065 1313.54 72.606 1310.99 73.0495C1310.36 70.1249 1311.08 67.2183 1310.59 64.5035C1310.07 64.1798 1309.7 64.1918 1309.17 64.4975C1308.68 67.2123 1309.47 70.1729 1308.69 73.1394C1306.61 72.2704 1308.83 69.6575 1306.31 69.2739C1305.45 70.4246 1306.42 71.8988 1305.48 73.0615C1303.22 72.4922 1305.3 69.9571 1303.5 69.2619C1302.11 70.2867 1303.76 72.1805 1302.06 73.0255C1300.37 72.1745 1302.01 70.2867 1300.66 69.2859C1298.66 69.8013 1301.04 72.7439 1298.33 73.0135C1297.8 70.059 1298.49 67.1464 1297.92 64.3716C1296.89 64.084 1296.43 64.3716 1296.43 65.2526C1296.43 67.4041 1296.44 69.5616 1296.42 71.7131C1296.41 72.2345 1296.52 72.8877 1295.64 72.9416C1293.99 72.2464 1296.27 69.6035 1293.68 69.3278C1292.73 70.4485 1293.99 72.0607 1292.57 73.0255C1290.73 72.2584 1292.54 70.095 1290.97 69.2739C1289.87 69.7593 1290.27 70.5924 1290.2 71.2696C1290.12 72.0966 1290.31 73.0615 1288.88 72.9237C1288.12 71.8149 1288.98 70.4725 1288.2 69.3219C1285.53 69.4777 1288.06 72.5281 1285.93 73.0135C1285.29 72.3423 1285.49 71.5692 1285.48 70.8561C1285.46 68.9862 1285.47 67.1104 1285.48 65.2346C1285.48 64.3417 1285 64.084 1284 64.3656L1284 74.344L1286.9 74.344C1308.44 74.344 1329.97 74.344 1351.5 74.344L1351.5 69.5316L1351.52 69.5316Z" fill="#C5C5C5"/>
<path d="M1472.64 72.8218C1472.17 72.606 1472.02 72.2225 1471.97 71.785C1471.54 71.0658 1471.12 70.3347 1470.72 69.5855C1470.38 70.1069 1470.55 70.6763 1470.49 71.2037C1470.41 71.8869 1470.75 72.7678 1469.45 72.9596C1468.53 72.2824 1468.96 71.2756 1468.86 70.4006C1468.8 69.8193 1468.79 69.2379 1467.85 69.3518C1466.63 70.2388 1468.32 72.3663 1466.28 73.0615C1465.25 71.8869 1466.21 70.5204 1465.52 69.5256C1465.11 69.208 1464.74 69.2619 1464.3 69.4657C1463.53 70.4665 1464.65 72.0007 1463.59 72.9416C1463.26 72.9177 1463.1 72.9416 1463.08 72.9057C1461.99 70.1369 1463.14 67.1943 1462.42 64.4555C1461.97 64.1978 1461.61 64.1499 1461.06 64.4735C1460.6 67.1823 1461.24 70.083 1460.71 72.9776C1457.94 72.7558 1460.54 69.6874 1458.35 69.2859C1457.05 70.2448 1458.85 72.4082 1456.7 73.0255C1455.66 71.8569 1456.77 70.3466 1455.73 69.214C1453.48 69.7833 1455.5 72.3184 1453.65 73.0555C1452.58 71.8988 1453.73 70.3766 1452.63 69.208C1450.16 69.5795 1452.59 72.4322 1450.63 72.9956C1449.73 72.4023 1450.06 71.5932 1450.04 70.892C1450 69.0222 1450.03 67.1464 1450.03 65.2706C1450.04 64.4136 1449.61 64.078 1448.49 64.3417C1447.91 67.1224 1448.82 70.1189 1447.96 73.1154C1445.66 72.3723 1447.51 70.1908 1445.96 69.2439C1444.8 69.7414 1445.26 70.7781 1445.19 71.5932C1445.12 72.4262 1444.97 73.0855 1443.77 72.8397C1443.23 71.725 1443.95 70.4066 1443.16 69.2679C1440.38 69.4597 1443.13 72.4981 1441.04 72.9716C1439.51 72.1266 1441.76 69.6455 1439.24 69.2799C1438.05 70.3526 1439.63 72.1505 1437.94 73.0615C1437.1 72.2524 1437.4 71.3715 1437.38 70.5684C1437.33 68.7885 1437.39 67.0085 1437.3 65.2346C1437.27 64.5274 1436.87 63.9821 1435.8 64.4615C1435.39 67.2243 1436.07 70.1249 1435.38 73.0975C1432.96 72.5161 1434.95 70.053 1433.38 69.2499C1431.58 70.029 1433.78 72.618 1431.34 72.9956C1430.51 71.8269 1431.4 70.4785 1430.59 69.3278C1427.88 69.4537 1430.4 72.4981 1428.42 72.9836C1426.91 72.1206 1429.1 69.6634 1426.58 69.2919C1425.57 70.4365 1426.74 71.9708 1425.49 73.1394C1423.76 71.8569 1424.79 70.1609 1424.5 68.7585C1424.18 67.2662 1425.18 65.5283 1423.74 64.1559C1422.66 64.7671 1423.05 65.6002 1423.03 66.2834C1422.97 68.1532 1423.03 70.029 1422.98 71.8988C1422.97 72.654 1422.61 73.1574 1421.64 72.8517C1420.92 71.773 1421.83 70.4246 1420.95 69.2919C1418.41 69.5136 1420.86 72.5341 1418.71 72.9896C1417.82 71.8569 1418.75 70.4965 1418 69.4297C1417.1 69.0821 1416.69 69.3758 1416.59 70.2328C1416.48 71.1557 1416.95 72.2285 1415.92 73.1334C1414.62 71.9708 1415.79 70.4306 1414.79 69.2919C1412.27 69.6694 1414.47 72.1086 1412.79 73.1034C1411.19 71.9648 1412.12 70.2687 1411.89 68.8784C1411.63 67.3441 1412.37 65.6541 1411.27 64.06C1410.26 64.5814 1410.42 65.2706 1410.41 65.8759C1410.39 67.7457 1410.42 69.6215 1410.41 71.4973C1410.4 72.2704 1410.35 73.0435 1409.17 72.9296C1408.18 71.8749 1409.32 70.3467 1408.25 69.22C1405.99 69.7833 1407.99 72.2944 1406.18 73.0735C1405.25 72.1026 1405.83 71.0179 1405.62 70.071C1405.42 69.1361 1404.87 69.1361 1404.21 69.4837C1403.44 70.5924 1404.66 72.1446 1403.26 73.0195C1401.64 72.1625 1403.81 69.6155 1401.21 69.3278C1400.43 70.5264 1401.37 71.8749 1400.46 72.9656C1399.34 72.9536 1399.22 72.2584 1399.22 71.4554C1399.23 69.3938 1399.23 67.3322 1399.21 65.2766C1399.2 64.6773 1399.1 64.1199 1397.82 64.3656C1397.81 65.8219 1397.95 67.3981 1397.75 68.9383C1397.58 70.2927 1398.73 72.0607 1396.6 73.0855C1395.65 71.8569 1396.65 70.3706 1395.69 69.226C1393.32 69.7174 1395.41 72.2644 1393.62 73.0435C1392.43 71.9408 1393.61 70.4006 1392.67 69.3638C1391.77 69.1361 1391.41 69.4657 1391.33 70.3287C1391.24 71.2276 1391.8 72.3363 1390.68 72.9956C1388.96 72.1985 1391.21 69.5915 1388.55 69.3159C1387.83 70.5025 1388.69 71.8449 1387.83 72.9416C1386.66 73.0255 1386.58 72.2884 1386.58 71.5033C1386.57 69.4417 1386.58 67.3801 1386.56 65.3245C1386.56 64.7372 1386.49 64.1619 1385.58 64.2817C1384.83 64.8451 1385.14 65.6481 1385.12 66.3553C1385.08 68.1352 1385.11 69.9152 1385.11 71.6951C1385.1 72.5701 1384.73 73.0615 1383.81 72.9237C1382.77 71.8209 1384.53 69.7593 1382.24 69.2799C1381.05 70.3646 1382.64 72.1805 1381 73.0195C1379.51 72.0966 1381.63 69.6934 1379.07 69.2859C1378.57 69.9931 1378.77 70.6703 1378.7 71.3055C1378.63 71.8929 1378.99 72.636 1377.94 73.0195C1376.43 72.2225 1378.41 69.7294 1376.05 69.2619C1375.14 70.4246 1376.15 71.9228 1375.07 73.1514C1373.16 71.9588 1374.22 70.2388 1373.98 68.8544C1373.73 67.3442 1374.31 65.744 1373.62 64.2877C1372.33 64.2458 1372.5 65.0368 1372.5 65.6481C1372.47 67.7097 1372.5 69.7713 1372.47 71.8269C1372.46 72.5641 1372.15 73.1154 1371.16 72.9057C1370.36 71.8509 1371.31 70.4845 1370.5 69.4237C1369.21 69.7114 1369.22 69.7174 1369.13 70.2987C1368.98 71.2096 1369.53 72.3004 1368.39 73.1274C1367.32 72.1625 1367.9 71.0718 1367.72 70.1309C1367.54 69.232 1367.02 69.1181 1366.29 69.4837C1365.6 70.5924 1366.49 71.9348 1365.56 73.0615C1365.36 73.0076 1365.2 72.9356 1365.06 72.8577C1365.16 73.3551 1365.27 73.8526 1365.38 74.344C1401.49 74.344 1437.59 74.344 1473.69 74.344C1473.33 73.8466 1472.98 73.3372 1472.64 72.8218Z" fill="#C5C5C5"/>
<path d="M1487.94 68.7526C1487.82 67.2843 1488.11 65.786 1487.74 64.3897C1486.95 64.15 1486.37 64.144 1486.27 64.935C1486.19 65.5823 1486.26 66.2475 1486.22 66.9007C1486.13 68.2192 1486.28 69.5497 1486.24 70.8921C1486.42 72.0427 1486.59 73.1994 1486.75 74.356C1515.44 74.356 1544.13 74.356 1572.82 74.356C1575.02 74.356 1577.37 73.9725 1579.37 74.5898C1581.38 75.213 1582.64 77.2567 1584.19 78.707C1594.8 88.6374 1605.4 98.5918 1615.99 108.54C1616.4 109.109 1616.4 109.841 1616.84 110.392C1617.39 111.189 1617.35 112.196 1617.91 112.993C1618.62 114.024 1619.58 114.641 1620.91 114.413C1622.29 114.174 1623.33 113.424 1623.53 112.058C1623.71 110.817 1622.97 109.943 1621.88 109.289C1621.02 108.774 1619.95 108.804 1619.09 108.3C1618.5 107.887 1617.7 107.893 1617.12 107.479C1616.81 107.234 1616.5 107.006 1616.22 106.748C1605.11 96.3564 1593.97 85.9825 1582.92 75.5367C1581.23 73.9365 1579.56 72.696 1577.04 72.9177C1576.89 72.9297 1576.73 72.714 1576.48 72.5402C1576.05 69.8553 1576.71 67.0386 1576.14 64.3297C1574.78 64.09 1574.68 64.8631 1574.67 65.6482C1574.65 67.7098 1574.67 69.7714 1574.65 71.827C1574.65 72.4023 1574.59 72.9837 1573.72 72.9477C1572.31 72.1147 1574.49 69.6755 1571.99 69.292C1570.82 70.3647 1572.4 72.1686 1570.83 72.9956C1569.26 72.1147 1571.45 69.6695 1568.91 69.3099C1568.28 69.9931 1568.55 70.6823 1568.47 71.3116C1568.39 71.9049 1568.73 72.642 1567.86 72.9837C1567 72.0547 1567 72.0547 1566.87 70.6524C1566.82 70.0171 1566.95 69.256 1565.82 69.3579C1564.71 70.3228 1566.3 72.1926 1564.16 73.1994C1563.29 70.149 1564.18 67.1525 1563.56 64.3477C1562.23 64.078 1562.09 64.8332 1562.08 65.6302C1562.05 67.6918 1562.06 69.7534 1562.05 71.809C1562.04 72.3784 1562 72.9717 1561.13 72.9357C1559.72 72.1326 1561.9 69.6755 1559.37 69.3219C1558.36 70.4546 1559.59 72.0128 1558.24 73.1035C1557.1 72.2765 1557.72 71.1498 1557.49 70.2508C1557.31 69.5197 1556.94 69.0522 1555.99 69.5437C1555.52 70.6044 1556.21 71.9109 1555.39 73.0795C1553.12 72.4922 1555.19 69.9871 1553.52 69.2979C1551.73 70.0531 1554.05 72.672 1551.1 73.0316L1551.1 64.4256C1549.59 64.0001 1549.41 64.6414 1549.41 65.5104C1549.42 67.572 1549.42 69.6336 1549.4 71.6892C1549.39 72.2225 1549.47 72.8458 1548.48 72.9597C1547.41 71.9588 1548.58 70.4246 1547.65 69.3878C1546.76 69.1481 1546.38 69.4598 1546.3 70.3287C1546.22 71.2337 1546.75 72.3304 1545.7 73.0256C1543.93 72.2345 1546.21 69.6156 1543.6 69.3339C1542.77 70.4965 1543.69 71.851 1542.8 73.0076C1540.42 72.6001 1542.6 70.0171 1540.87 69.28C1539.11 70.0171 1541.31 72.6241 1538.72 73.0316C1538.11 70.101 1538.76 67.2004 1538.31 64.4676C1537.65 64.132 1537.21 64.15 1536.76 64.7852C1536.76 66.0258 1536.82 67.4281 1536.74 68.8185C1536.66 70.2089 1537.17 71.7011 1536.23 73.2114C1534.64 72.0667 1535.92 70.4965 1535.04 69.4777C1534.68 69.274 1534.31 69.226 1533.89 69.4897C1533.2 70.5265 1534.09 71.863 1533.26 73.0016C1530.79 72.726 1533.26 69.7115 1531.04 69.3099C1530.02 70.4126 1531.16 71.9409 1530.11 73.0496C1527.83 72.4922 1530.02 69.9272 1528.21 69.292C1526.52 70.0711 1528.73 72.6241 1526.02 72.9777C1525.59 69.9991 1526.22 67.0985 1525.65 64.3477C1524.5 64.084 1524.15 64.5035 1524.15 65.3246C1524.15 67.4761 1524.15 69.6336 1524.13 71.7851C1524.12 72.3304 1524.17 72.9657 1523.26 72.9357C1521.78 72.1446 1524 69.6575 1521.48 69.2979C1520.47 70.4366 1521.63 71.9768 1520.47 73.0556C1519.06 72.6061 1519.49 71.5513 1519.4 70.7063C1519.33 70.089 1519.54 69.3039 1518.42 69.3579C1517.12 70.2448 1518.93 72.3963 1516.89 73.0376C1515.57 71.9768 1517.06 70.1969 1515.67 69.274C1513.84 70.0531 1516.06 72.654 1513.19 73.0496L1513.19 64.5275C1512.49 64.1739 1512.12 64.1739 1511.49 64.6294C1511.49 65.8939 1511.56 67.3742 1511.47 68.8485C1511.4 70.2269 1511.89 71.7131 1510.93 73.3253C1509.51 72.0008 1510.63 70.4666 1509.57 69.1841C1507.37 69.7894 1509.22 72.0547 1507.83 73.0256C1505.67 72.5402 1507.8 69.9871 1505.94 69.274C1504.46 70.143 1506.28 72.3064 1504.34 73.0316C1503.03 71.9708 1504.3 70.3587 1503.11 69.238C1500.95 69.7714 1502.82 72.2225 1501 73.2114C1500 70.1729 1500.99 67.1824 1500.35 64.4256C1499.82 64.2399 1499.45 64.1679 1498.84 64.6773C1498.84 65.9179 1498.91 67.4042 1498.81 68.8784C1498.72 70.2508 1499.28 71.7431 1498.34 73.0676C1496.43 72.2525 1498.63 69.6395 1496.06 69.3159C1495.3 70.4906 1496.22 71.9588 1495.29 73.0795C1493.71 72.666 1494.22 71.5753 1494.1 70.7423C1494.01 70.149 1494.31 69.3339 1493.17 69.3639C1491.86 70.2508 1493.68 72.4143 1491.56 73.0616C1490.46 71.9109 1491.65 70.3827 1490.52 69.226C1488.32 69.7774 1490.22 72.2345 1488.42 73.1874C1487.57 71.6412 1488.06 70.155 1487.94 68.7526Z" fill="#C5C5C5"/>
<path d="M1284.05 74.344C1284.05 74.5717 1284.05 74.8055 1284.05 75.0332C1284.05 76.6393 1284.48 77.8319 1285.74 78.9826C1291.18 83.9568 1296.52 89.0209 1301.9 94.049C1321.72 112.579 1341.51 131.122 1361.37 149.61C1362.77 150.917 1363.29 152.229 1363.26 154.033C1363.16 159.834 1363.21 165.641 1363.24 171.449C1363.25 172.348 1362.95 173.307 1363.58 174.158C1365.14 174.331 1364.81 173.259 1364.82 172.503C1364.84 166.325 1364.73 160.146 1364.88 153.967C1364.93 151.708 1364.13 150.144 1362.45 148.573C1337.64 125.446 1312.9 102.247 1288.08 79.1264C1286.55 77.7001 1285.82 76.2977 1285.7 74.368L1284.68 74.368C1284.68 74.368 1284.68 74.338 1284.67 74.2901C1284.47 74.308 1284.26 74.326 1284.05 74.344Z" fill="#BDBDBD"/>
</g>
<g opacity="0.2">
<path d="M369.013 86.1221L369.013 108.51L391.497 108.51L391.497 86.1221L369.013 86.1221Z" stroke="white" stroke-opacity="0.6" stroke-miterlimit="10"/>
<path d="M369.013 108.51L391.497 86.1221" stroke="white" stroke-opacity="0.6" stroke-miterlimit="10"/>
<path d="M369.013 86.1221L391.497 108.51" stroke="white" stroke-opacity="0.6" stroke-miterlimit="10"/>
<path opacity="0.3" d="M373 110.349L367 110.349L367 104.544" stroke="white" stroke-opacity="0.6" stroke-width="3" stroke-miterlimit="10"/>
<path d="M367 90.0913L367 84.1213L372.83 84.1213" stroke="white" stroke-opacity="0.6" stroke-width="3" stroke-miterlimit="10"/>
<path d="M387.47 84.1214L393.47 84.1214L393.47 89.9265" stroke="white" stroke-opacity="0.6" stroke-width="3" stroke-miterlimit="10"/>
<path opacity="0.3" d="M393.47 104.375L393.47 110.349L387.64 110.349" stroke="white" stroke-opacity="0.6" stroke-width="3" stroke-miterlimit="10"/>
</g>
<g opacity="0.2">
<path d="M436.013 86.0007L436.013 108.388L458.497 108.388L458.497 86.0007L436.013 86.0007Z" stroke="white" stroke-opacity="0.6" stroke-miterlimit="10"/>
<path d="M436.013 108.388L458.497 86.0007" stroke="white" stroke-opacity="0.6" stroke-miterlimit="10"/>
<path opacity="0.3" d="M440 110.228L434 110.228L434 104.423" stroke="white" stroke-opacity="0.6" stroke-width="3" stroke-miterlimit="10"/>
<path d="M434 89.97L434 84L439.83 84" stroke="white" stroke-opacity="0.6" stroke-width="3" stroke-miterlimit="10"/>
<path d="M454.47 84L460.47 84L460.47 89.8052" stroke="white" stroke-opacity="0.6" stroke-width="3" stroke-miterlimit="10"/>
<path opacity="0.3" d="M460.47 104.254L460.47 110.228L454.64 110.228" stroke="white" stroke-opacity="0.6" stroke-width="3" stroke-miterlimit="10"/>
</g>
<g opacity="0.2">
<path d="M423.215 84H400.827V106.484H423.215V84Z" stroke="white" stroke-opacity="0.6" stroke-width="2" stroke-miterlimit="10"/>
<path d="M400.827 84L423.215 106.484" stroke="white" stroke-opacity="0.6" stroke-miterlimit="10"/>
<path d="M423.215 84L400.827 106.484" stroke="white" stroke-opacity="0.6" stroke-miterlimit="10"/>
<path d="M423.215 108.457H400.827V110.471H423.215V108.457Z" fill="white" fill-opacity="0.6"/>
<path d="M423.215 111.728H400.827V112.731H423.215V111.728Z" fill="white" fill-opacity="0.6"/>
<path d="M424.992 84H426.369V112.547H424.992" stroke="white" stroke-opacity="0.6" stroke-miterlimit="10"/>
</g>
</svg>
