<svg width="1380" height="148" viewBox="0 0 1380 148" fill="none" xmlns="http://www.w3.org/2000/svg">
<g opacity="0.4">
<path d="M961.912 8.46534C961.895 8.41272 961.865 8.36511 961.83 8.32251C961.825 16.5264 961.827 24.7302 961.845 32.9341C961.847 33.8888 961.545 34.5628 960.844 35.2168C958.766 37.1512 956.726 39.1233 954.721 41.1279C954.077 41.7744 953.398 42.0375 952.479 42.0199C950.16 41.9723 947.84 41.9999 945.518 42.0074C944.889 42.0099 944.252 42.05 943.835 41.4687C943.306 40.7345 942.532 40.737 941.72 40.7395C936.797 40.7545 931.873 40.7771 926.952 40.722C925.895 40.7094 925.174 41.0252 924.437 41.7418C917.621 48.377 910.752 54.9572 903.946 61.6024C903.074 62.4519 902.215 62.7877 900.984 62.7726C895.381 62.71 889.779 62.7601 884.178 62.725C883.162 62.7175 882.271 62.8027 881.649 63.6822C881.144 64.3989 880.41 64.4841 879.566 64.4815C878.311 64.4815 877.052 64.4815 875.796 64.4815C875.811 64.89 875.829 65.3335 875.829 65.6593C875.839 65.777 875.839 65.9574 875.834 66.1654C882.011 66.1629 888.188 66.1629 894.365 66.1554C895.339 66.1554 896.128 66.3208 896.725 67.1026C897.274 67.8217 898.018 68.0297 898.944 67.9896C900.468 67.922 902.001 67.9144 903.526 67.9896C904.57 68.0397 905.346 67.7741 906.063 67.0073C907.236 65.752 908.482 64.5492 909.781 63.4141C910.567 62.7275 910.974 61.9958 910.799 60.9835C910.625 59.9712 911.069 59.2696 911.821 58.5554C916.135 54.456 920.485 50.3842 924.629 46.1244C926.362 44.3428 928.138 43.348 930.657 43.7765C930.877 43.8141 931.109 43.7715 931.336 43.7815C931.748 43.799 932.137 43.7489 932.397 43.3981C932.931 42.6764 933.695 42.6589 934.514 42.6614C940.454 42.6764 946.397 42.6439 952.337 42.689C953.493 42.699 954.347 42.4133 955.161 41.5889C957.151 39.5718 959.196 37.6023 961.306 35.7029C962.212 34.886 962.544 34.0391 962.536 32.8438C962.482 25.0309 962.514 17.2154 962.499 9.40249C962.499 9.10932 962.499 8.82366 962.529 8.54803C962.177 8.52297 961.922 8.4929 961.912 8.46534Z" fill="#E5E5E5"/>
<path d="M962.749 7.79182C962.749 7.78932 962.749 7.78433 962.749 7.78183L961.832 7.78183C961.832 7.83177 961.832 7.8817 961.832 7.93164C962.137 7.8842 962.442 7.83426 962.749 7.79182Z" fill="#E5E5E5"/>
</g>
<g opacity="0.4">
<path d="M1231.44 146.103C1231.47 146.194 1231.52 146.275 1231.58 146.348C1231.59 132.265 1231.58 118.182 1231.55 104.099C1231.55 102.46 1232.07 101.303 1233.27 100.18C1236.84 96.859 1240.34 93.4737 1243.78 90.0324C1244.89 88.9226 1246.05 88.471 1247.63 88.5011C1251.61 88.5828 1255.59 88.5355 1259.58 88.5226C1260.66 88.5183 1261.75 88.4495 1262.47 89.4474C1263.38 90.7078 1264.71 90.7035 1266.1 90.6992C1274.55 90.6734 1283 90.6347 1291.45 90.7293C1293.27 90.7508 1294.5 90.2088 1295.77 88.9786C1307.47 77.5881 1319.26 66.2922 1330.95 54.8845C1332.44 53.4262 1333.92 52.8498 1336.03 52.8756C1345.65 52.9832 1355.27 52.8972 1364.88 52.9574C1366.62 52.9703 1368.15 52.824 1369.22 51.3142C1370.09 50.0839 1371.35 49.9377 1372.8 49.942C1374.95 49.942 1377.11 49.942 1379.27 49.942C1379.24 49.2408 1379.21 48.4795 1379.21 47.9203C1379.2 47.7181 1379.2 47.4084 1379.2 47.0513C1368.6 47.0556 1358 47.0556 1347.39 47.0686C1345.72 47.0686 1344.37 46.7846 1343.34 45.4426C1342.4 44.208 1341.12 43.851 1339.53 43.9198C1336.92 44.036 1334.28 44.0489 1331.67 43.9198C1329.87 43.8338 1328.54 44.2897 1327.31 45.606C1325.3 47.7611 1323.16 49.8258 1320.93 51.7744C1319.58 52.9531 1318.88 54.2091 1319.18 55.947C1319.48 57.6848 1318.72 58.8892 1317.43 60.1152C1310.02 67.1525 1302.55 74.1425 1295.44 81.4552C1292.46 84.5136 1289.42 86.2213 1285.09 85.4857C1284.71 85.4212 1284.32 85.4943 1283.93 85.4771C1283.22 85.447 1282.55 85.533 1282.1 86.1352C1281.19 87.3741 1279.87 87.4042 1278.47 87.3999C1268.27 87.3741 1258.07 87.43 1247.87 87.3526C1245.89 87.3354 1244.42 87.8258 1243.03 89.241C1239.61 92.7037 1236.1 96.0847 1232.48 99.3453C1230.92 100.748 1230.35 102.202 1230.36 104.253C1230.46 117.666 1230.4 131.082 1230.43 144.494C1230.43 144.998 1230.43 145.488 1230.38 145.961C1230.98 146.004 1231.42 146.056 1231.44 146.103Z" fill="#E5E5E5"/>
<path d="M1230 147.259C1230 147.264 1230 147.272 1230 147.277L1231.57 147.277C1231.57 147.191 1231.57 147.105 1231.57 147.019C1231.05 147.101 1230.53 147.187 1230 147.259Z" fill="#E5E5E5"/>
</g>
<g opacity="0.4">
<path d="M789.836 8.46534C789.854 8.41272 789.884 8.36511 789.919 8.32251C789.924 16.5264 789.921 24.7302 789.904 32.9341C789.901 33.8888 790.203 34.5628 790.905 35.2168C792.982 37.1512 795.022 39.1233 797.027 41.1279C797.672 41.7744 798.351 42.0375 799.27 42.0199C801.589 41.9723 803.909 41.9999 806.231 42.0074C806.86 42.0099 807.497 42.05 807.914 41.4687C808.443 40.7345 809.217 40.737 810.028 40.7395C814.952 40.7545 819.876 40.7771 824.797 40.722C825.853 40.7094 826.575 41.0252 827.312 41.7418C834.128 48.377 840.997 54.9572 847.803 61.6024C848.675 62.4519 849.533 62.7877 850.764 62.7726C856.367 62.71 861.97 62.7601 867.571 62.725C868.587 62.7175 869.478 62.8027 870.1 63.6822C870.604 64.3989 871.338 64.4841 872.182 64.4815C873.438 64.4815 874.697 64.4815 875.953 64.4815C875.938 64.89 875.92 65.3335 875.92 65.6593C875.91 65.777 875.91 65.9574 875.915 66.1654C869.738 66.1629 863.561 66.1629 857.384 66.1554C856.41 66.1554 855.621 66.3208 855.024 67.1026C854.475 67.8217 853.731 68.0297 852.804 67.9896C851.281 67.922 849.748 67.9144 848.223 67.9896C847.179 68.0397 846.402 67.7741 845.686 67.0073C844.512 65.752 843.266 64.5492 841.968 63.4141C841.182 62.7275 840.775 61.9958 840.949 60.9835C841.124 59.9712 840.68 59.2696 839.928 58.5554C835.614 54.456 831.264 50.3842 827.119 46.1244C825.386 44.3428 823.611 43.348 821.092 43.7765C820.872 43.8141 820.64 43.7715 820.413 43.7815C820.001 43.799 819.611 43.7489 819.352 43.3981C818.817 42.6764 818.053 42.6589 817.234 42.6614C811.294 42.6764 805.352 42.6439 799.412 42.689C798.256 42.699 797.402 42.4133 796.588 41.5889C794.598 39.5718 792.553 37.6023 790.443 35.7029C789.537 34.886 789.205 34.0391 789.212 32.8438C789.267 25.0309 789.235 17.2154 789.25 9.40249C789.25 9.10932 789.25 8.82366 789.22 8.54803C789.572 8.52297 789.826 8.4929 789.836 8.46534Z" fill="#E5E5E5"/>
<path d="M789 7.79182C789 7.78932 789 7.78433 789 7.78183L789.916 7.78183C789.916 7.83177 789.916 7.8817 789.916 7.93164C789.612 7.8842 789.307 7.83426 789 7.79182Z" fill="#E5E5E5"/>
</g>
<path opacity="0.2" d="M91 21L92 125" stroke="white"/>
<path opacity="0.2" d="M222 21L222 125" stroke="white"/>
<path opacity="0.2" d="M353 21L353 125" stroke="white"/>
<path opacity="0.2" d="M483 0L483 125" stroke="white"/>
<path opacity="0.2" d="M614 0L614 125" stroke="white"/>
<path opacity="0.2" d="M744 0L744 125" stroke="white"/>
<path opacity="0.2" d="M0.167114 109.233L1232 110.196" stroke="white"/>
<path d="M1127.76 51.786C1130.65 52.0363 1133.21 51.622 1135.75 52.0622C1135.88 52.0881 1135.97 52.2953 1136.19 52.537C1134.98 53.6937 1133.49 53.029 1132.17 53.1412C1130.81 53.2534 1129.45 53.1671 1127.97 53.1671C1125.77 55.3251 1123.54 57.5003 1121.31 59.6842C1121.03 57.6989 1122.59 57.0515 1123.51 56.007C1124.53 54.859 1125.75 53.9008 1127.07 52.6837C1124.88 50.4567 1122.94 48.4713 1121 46.5119C1121.71 45.5969 1122.15 46.1062 1122.57 46.5205C1124.31 48.2728 1126.05 50.0423 1127.76 51.786Z" fill="#CFCFCF"/>
<path d="M978.095 59.9741C977.656 60.9582 977.089 60.2676 976.555 60.095C975.222 58.2995 973.459 56.9271 971.971 55.2784C971.266 54.5015 970.38 54.3979 969.408 54.4152C967.292 54.4497 965.176 54.4238 963 54.4238C963.052 53.3275 963.636 53.3362 964.23 53.3362C966.526 53.3362 968.832 53.3362 971.051 53.3362C973.536 51.3422 975.308 48.7526 977.846 47.009C977.914 46.9572 978.138 47.1384 978.568 47.337C976.676 49.6762 974.388 51.5494 972.298 53.9059C974.259 55.9603 976.177 57.9715 978.095 59.9741Z" fill="#CFCFCF"/>
</svg>
